<?xml version="1.0" encoding="utf-8"?>
<svg xmlns="http://www.w3.org/2000/svg" xmlns:xlink="http://www.w3.org/1999/xlink" width="600" height="400" viewBox="0 0 2400 1600">
<defs>
  <clipPath id="clip670">
    <rect x="0" y="0" width="2400" height="1600"/>
  </clipPath>
</defs>
<path clip-path="url(#clip670)" d="
M0 1600 L2400 1600 L2400 0 L0 0  Z
  " fill="#ffffff" fill-rule="evenodd" fill-opacity="1"/>
<defs>
  <clipPath id="clip671">
    <rect x="480" y="0" width="1681" height="1600"/>
  </clipPath>
</defs>
<defs>
  <clipPath id="clip672">
    <rect x="156" y="47" width="2198" height="1440"/>
  </clipPath>
</defs>
<path clip-path="url(#clip670)" d="
M47.2441 1332.46 L2183.41 1332.46 L2183.41 47.2441 L47.2441 47.2441  Z
  " fill="#ffffff" fill-rule="evenodd" fill-opacity="1"/>
<defs>
  <clipPath id="clip673">
    <rect x="47" y="47" width="2137" height="1286"/>
  </clipPath>
</defs>
<polyline clip-path="url(#clip673)" style="stroke:#000000; stroke-linecap:round; stroke-linejoin:round; stroke-width:2; stroke-opacity:0.1; fill:none" points="
  2005.39,1332.46 2005.39,47.2441 
  "/>
<polyline clip-path="url(#clip673)" style="stroke:#000000; stroke-linecap:round; stroke-linejoin:round; stroke-width:2; stroke-opacity:0.1; fill:none" points="
  1115.33,1332.46 1115.33,47.2441 
  "/>
<polyline clip-path="url(#clip673)" style="stroke:#000000; stroke-linecap:round; stroke-linejoin:round; stroke-width:2; stroke-opacity:0.1; fill:none" points="
  225.258,1332.46 225.258,47.2441 
  "/>
<polyline clip-path="url(#clip670)" style="stroke:#000000; stroke-linecap:round; stroke-linejoin:round; stroke-width:4; stroke-opacity:1; fill:none" points="
  47.2441,1332.46 2183.41,1332.46 
  "/>
<polyline clip-path="url(#clip670)" style="stroke:#000000; stroke-linecap:round; stroke-linejoin:round; stroke-width:4; stroke-opacity:1; fill:none" points="
  2005.39,1332.46 2005.39,1313.56 
  "/>
<polyline clip-path="url(#clip670)" style="stroke:#000000; stroke-linecap:round; stroke-linejoin:round; stroke-width:4; stroke-opacity:1; fill:none" points="
  1115.33,1332.46 1115.33,1313.56 
  "/>
<polyline clip-path="url(#clip670)" style="stroke:#000000; stroke-linecap:round; stroke-linejoin:round; stroke-width:4; stroke-opacity:1; fill:none" points="
  225.258,1332.46 225.258,1313.56 
  "/>
<path clip-path="url(#clip670)" d="M1987.17 1367.86 L2021.58 1367.86 L2021.58 1375.24 L1995.19 1375.24 L1995.19 1391.12 Q1997.1 1390.47 1999.01 1390.17 Q2000.92 1389.82 2002.83 1389.82 Q2013.68 1389.82 2020.02 1395.77 Q2026.36 1401.71 2026.36 1411.87 Q2026.36 1422.33 2019.85 1428.15 Q2013.34 1433.92 2001.49 1433.92 Q1997.41 1433.92 1993.15 1433.22 Q1988.94 1432.53 1984.43 1431.14 L1984.43 1422.33 Q1988.34 1424.46 1992.5 1425.5 Q1996.67 1426.54 2001.31 1426.54 Q2008.82 1426.54 2013.21 1422.59 Q2017.59 1418.64 2017.59 1411.87 Q2017.59 1405.1 2013.21 1401.15 Q2008.82 1397.2 2001.31 1397.2 Q1997.8 1397.2 1994.28 1397.98 Q1990.81 1398.76 1987.17 1400.41 L1987.17 1367.86 Z" fill="#000000" fill-rule="evenodd" fill-opacity="1" /><path clip-path="url(#clip670)" d="M1115.33 1373.63 Q1108.56 1373.63 1105.13 1380.32 Q1101.74 1386.96 1101.74 1400.32 Q1101.74 1413.65 1105.13 1420.33 Q1108.56 1426.97 1115.33 1426.97 Q1122.14 1426.97 1125.53 1420.33 Q1128.95 1413.65 1128.95 1400.32 Q1128.95 1386.96 1125.53 1380.32 Q1122.14 1373.63 1115.33 1373.63 M1115.33 1366.69 Q1126.22 1366.69 1131.95 1375.33 Q1137.72 1383.92 1137.72 1400.32 Q1137.72 1416.69 1131.95 1425.32 Q1126.22 1433.92 1115.33 1433.92 Q1104.43 1433.92 1098.66 1425.32 Q1092.93 1416.69 1092.93 1400.32 Q1092.93 1383.92 1098.66 1375.33 Q1104.43 1366.69 1115.33 1366.69 Z" fill="#000000" fill-rule="evenodd" fill-opacity="1" /><path clip-path="url(#clip670)" d="M168.335 1401.11 L223.977 1401.11 L223.977 1408.48 L168.335 1408.48 L168.335 1401.11 Z" fill="#000000" fill-rule="evenodd" fill-opacity="1" /><path clip-path="url(#clip670)" d="M242.988 1367.86 L277.406 1367.86 L277.406 1375.24 L251.017 1375.24 L251.017 1391.12 Q252.927 1390.47 254.837 1390.17 Q256.746 1389.82 258.656 1389.82 Q269.507 1389.82 275.843 1395.77 Q282.18 1401.71 282.18 1411.87 Q282.18 1422.33 275.67 1428.15 Q269.159 1433.92 257.311 1433.92 Q253.231 1433.92 248.977 1433.22 Q244.767 1432.53 240.253 1431.14 L240.253 1422.33 Q244.16 1424.46 248.326 1425.5 Q252.493 1426.54 257.137 1426.54 Q264.646 1426.54 269.029 1422.59 Q273.413 1418.64 273.413 1411.87 Q273.413 1405.1 269.029 1401.15 Q264.646 1397.2 257.137 1397.2 Q253.621 1397.2 250.106 1397.98 Q246.633 1398.76 242.988 1400.41 L242.988 1367.86 Z" fill="#000000" fill-rule="evenodd" fill-opacity="1" /><path clip-path="url(#clip670)" d="M1157.75 1506.65 Q1157.75 1513.46 1154.31 1526.64 Q1152.92 1532.35 1151.02 1537.54 Q1149.19 1542.67 1146.48 1547.64 Q1143.77 1552.62 1140.62 1556.21 Q1137.47 1559.72 1133.38 1561.92 Q1129.28 1564.11 1124.74 1564.11 Q1117.57 1564.11 1113.32 1559.87 Q1109.15 1555.55 1107.83 1548.16 Q1098.02 1564.11 1084.92 1564.11 Q1076.8 1564.11 1072.99 1558.33 Q1069.18 1552.47 1069.18 1542.67 Q1069.18 1534.39 1071.38 1525.83 Q1075.55 1509.58 1083.68 1498.24 Q1084.77 1496.92 1086.38 1496.92 Q1087.34 1496.92 1087.77 1497.21 Q1089.09 1498.02 1089.09 1499.33 Q1089.09 1500.29 1088.36 1501.24 Q1083.24 1508.34 1079.87 1514.41 Q1076.5 1520.49 1074.97 1526.64 Q1073.79 1531.91 1073.79 1536.37 Q1073.79 1543.91 1077.02 1548.59 Q1080.31 1553.28 1086.82 1553.28 Q1092.83 1553.28 1098.1 1549.55 Q1103.37 1545.74 1107.24 1539.37 Q1107.46 1532.42 1109.15 1525.83 Q1110.68 1518.8 1114.27 1518.8 Q1117.13 1518.8 1117.13 1522.68 Q1117.13 1524 1116.54 1526.64 Q1114.93 1533.59 1112 1539.81 Q1113.03 1545.89 1116.83 1549.62 Q1120.64 1553.28 1126.71 1553.28 Q1132.35 1553.28 1137.33 1549.18 Q1142.38 1545.08 1145.6 1539.08 Q1148.89 1533 1150.72 1525.83 Q1151.31 1523.42 1151.31 1520.34 Q1151.31 1512.14 1145.6 1507.09 Q1143.99 1505.48 1143.99 1503.36 Q1143.99 1500.87 1146.04 1498.6 Q1148.45 1496.19 1151.31 1496.19 Q1153.43 1496.19 1154.75 1497.5 Q1157.75 1500.14 1157.75 1506.65 Z" fill="#000000" fill-rule="evenodd" fill-opacity="1" /><polyline clip-path="url(#clip673)" style="stroke:#000000; stroke-linecap:round; stroke-linejoin:round; stroke-width:2; stroke-opacity:0.1; fill:none" points="
  47.2441,312.003 2183.41,312.003 
  "/>
<polyline clip-path="url(#clip673)" style="stroke:#000000; stroke-linecap:round; stroke-linejoin:round; stroke-width:2; stroke-opacity:0.1; fill:none" points="
  47.2441,1296.1 2183.41,1296.1 
  "/>
<polyline clip-path="url(#clip670)" style="stroke:#000000; stroke-linecap:round; stroke-linejoin:round; stroke-width:4; stroke-opacity:1; fill:none" points="
  2183.41,1332.46 2183.41,47.2441 
  "/>
<polyline clip-path="url(#clip670)" style="stroke:#000000; stroke-linecap:round; stroke-linejoin:round; stroke-width:4; stroke-opacity:1; fill:none" points="
  2183.41,312.003 2164.51,312.003 
  "/>
<polyline clip-path="url(#clip670)" style="stroke:#000000; stroke-linecap:round; stroke-linejoin:round; stroke-width:4; stroke-opacity:1; fill:none" points="
  2183.41,1296.1 2164.51,1296.1 
  "/>
<path clip-path="url(#clip670)" d="M2241.8 285.375 Q2235.03 285.375 2231.6 292.059 Q2228.22 298.7 2228.22 312.068 Q2228.22 325.392 2231.6 332.076 Q2235.03 338.717 2241.8 338.717 Q2248.62 338.717 2252 332.076 Q2255.43 325.392 2255.43 312.068 Q2255.43 298.7 2252 292.059 Q2248.62 285.375 2241.8 285.375 M2241.8 278.431 Q2252.7 278.431 2258.43 287.068 Q2264.2 295.662 2264.2 312.068 Q2264.2 328.431 2258.43 337.068 Q2252.7 345.661 2241.8 345.661 Q2230.91 345.661 2225.14 337.068 Q2219.41 328.431 2219.41 312.068 Q2219.41 295.662 2225.14 287.068 Q2230.91 278.431 2241.8 278.431 Z" fill="#000000" fill-rule="evenodd" fill-opacity="1" /><path clip-path="url(#clip670)" d="M2279.61 333.379 L2288.77 333.379 L2288.77 344.403 L2279.61 344.403 L2279.61 333.379 Z" fill="#000000" fill-rule="evenodd" fill-opacity="1" /><path clip-path="url(#clip670)" d="M2334.42 309.464 Q2340.72 310.809 2344.23 315.063 Q2347.79 319.316 2347.79 325.566 Q2347.79 335.158 2341.2 340.41 Q2334.6 345.661 2322.45 345.661 Q2318.37 345.661 2314.03 344.837 Q2309.73 344.056 2305.13 342.45 L2305.13 333.986 Q2308.77 336.113 2313.11 337.198 Q2317.45 338.283 2322.19 338.283 Q2330.43 338.283 2334.73 335.028 Q2339.07 331.773 2339.07 325.566 Q2339.07 319.837 2335.03 316.625 Q2331.04 313.37 2323.88 313.37 L2316.33 313.37 L2316.33 306.165 L2324.23 306.165 Q2330.69 306.165 2334.12 303.604 Q2337.55 301 2337.55 296.139 Q2337.55 291.148 2333.99 288.5 Q2330.47 285.809 2323.88 285.809 Q2320.28 285.809 2316.15 286.591 Q2312.03 287.372 2307.08 289.021 L2307.08 281.209 Q2312.07 279.82 2316.41 279.125 Q2320.8 278.431 2324.66 278.431 Q2334.64 278.431 2340.46 282.988 Q2346.27 287.502 2346.27 295.228 Q2346.27 300.61 2343.19 304.342 Q2340.11 308.031 2334.42 309.464 Z" fill="#000000" fill-rule="evenodd" fill-opacity="1" /><path clip-path="url(#clip670)" d="M2241.8 1269.47 Q2235.03 1269.47 2231.6 1276.15 Q2228.22 1282.79 2228.22 1296.16 Q2228.22 1309.49 2231.6 1316.17 Q2235.03 1322.81 2241.8 1322.81 Q2248.62 1322.81 2252 1316.17 Q2255.43 1309.49 2255.43 1296.16 Q2255.43 1282.79 2252 1276.15 Q2248.62 1269.47 2241.8 1269.47 M2241.8 1262.53 Q2252.7 1262.53 2258.43 1271.16 Q2264.2 1279.76 2264.2 1296.16 Q2264.2 1312.53 2258.43 1321.16 Q2252.7 1329.76 2241.8 1329.76 Q2230.91 1329.76 2225.14 1321.16 Q2219.41 1312.53 2219.41 1296.16 Q2219.41 1279.76 2225.14 1271.16 Q2230.91 1262.53 2241.8 1262.53 Z" fill="#000000" fill-rule="evenodd" fill-opacity="1" /><path clip-path="url(#clip670)" d="M2279.61 1317.47 L2288.77 1317.47 L2288.77 1328.5 L2279.61 1328.5 L2279.61 1317.47 Z" fill="#000000" fill-rule="evenodd" fill-opacity="1" /><path clip-path="url(#clip670)" d="M2326.61 1269.47 Q2319.84 1269.47 2316.41 1276.15 Q2313.03 1282.79 2313.03 1296.16 Q2313.03 1309.49 2316.41 1316.17 Q2319.84 1322.81 2326.61 1322.81 Q2333.43 1322.81 2336.81 1316.17 Q2340.24 1309.49 2340.24 1296.16 Q2340.24 1282.79 2336.81 1276.15 Q2333.43 1269.47 2326.61 1269.47 M2326.61 1262.53 Q2337.51 1262.53 2343.24 1271.16 Q2349.01 1279.76 2349.01 1296.16 Q2349.01 1312.53 2343.24 1321.16 Q2337.51 1329.76 2326.61 1329.76 Q2315.72 1329.76 2309.95 1321.16 Q2304.22 1312.53 2304.22 1296.16 Q2304.22 1279.76 2309.95 1271.16 Q2315.72 1262.53 2326.61 1262.53 Z" fill="#000000" fill-rule="evenodd" fill-opacity="1" /><polyline clip-path="url(#clip673)" style="stroke:#009af9; stroke-linecap:round; stroke-linejoin:round; stroke-width:12; stroke-opacity:1; fill:none" points="
  -664.81,1296.09 -661.247,1296.09 -657.683,1296.09 -654.119,1296.09 -650.555,1296.09 -646.991,1296.08 -643.427,1296.08 -639.864,1296.08 -636.3,1296.08 -632.736,1296.08 
  -629.172,1296.08 -625.608,1296.08 -622.044,1296.08 -618.481,1296.08 -614.917,1296.08 -611.353,1296.08 -607.789,1296.08 -604.225,1296.08 -600.661,1296.08 -597.098,1296.08 
  -593.534,1296.08 -589.97,1296.08 -586.406,1296.08 -582.842,1296.08 -579.278,1296.08 -575.715,1296.08 -572.151,1296.08 -568.587,1296.08 -565.023,1296.08 -561.459,1296.08 
  -557.895,1296.08 -554.332,1296.08 -550.768,1296.08 -547.204,1296.08 -543.64,1296.08 -540.076,1296.08 -536.512,1296.08 -532.949,1296.08 -529.385,1296.08 -525.821,1296.08 
  -522.257,1296.08 -518.693,1296.08 -515.129,1296.08 -511.566,1296.08 -508.002,1296.08 -504.438,1296.08 -500.874,1296.08 -497.31,1296.08 -493.746,1296.08 -490.182,1296.08 
  -486.619,1296.08 -483.055,1296.08 -479.491,1296.08 -475.927,1296.08 -472.363,1296.08 -468.799,1296.08 -465.236,1296.08 -461.672,1296.08 -458.108,1296.08 -454.544,1296.08 
  -450.98,1296.08 -447.416,1296.08 -443.853,1296.08 -440.289,1296.08 -436.725,1296.08 -433.161,1296.08 -429.597,1296.08 -426.033,1296.08 -422.47,1296.08 -418.906,1296.08 
  -415.342,1296.08 -411.778,1296.08 -408.214,1296.08 -404.65,1296.08 -401.087,1296.08 -397.523,1296.08 -393.959,1296.08 -390.395,1296.08 -386.831,1296.08 -383.267,1296.08 
  -379.704,1296.08 -376.14,1296.08 -372.576,1296.08 -369.012,1296.08 -365.448,1296.08 -361.884,1296.08 -358.321,1296.08 -354.757,1296.08 -351.193,1296.08 -347.629,1296.08 
  -344.065,1296.08 -340.501,1296.08 -336.938,1296.08 -333.374,1296.08 -329.81,1296.08 -326.246,1296.08 -322.682,1296.08 -319.118,1296.08 -315.554,1296.08 -311.991,1296.08 
  -308.427,1296.08 -304.863,1296.08 -301.299,1296.08 -297.735,1296.08 -294.171,1296.08 -290.608,1296.08 -287.044,1296.08 -283.48,1296.08 -279.916,1296.08 -276.352,1296.08 
  -272.788,1296.08 -269.225,1296.08 -265.661,1296.08 -262.097,1296.08 -258.533,1296.08 -254.969,1296.07 -251.405,1296.07 -247.842,1296.07 -244.278,1296.07 -240.714,1296.07 
  -237.15,1296.07 -233.586,1296.07 -230.022,1296.07 -226.459,1296.07 -222.895,1296.07 -219.331,1296.07 -215.767,1296.07 -212.203,1296.07 -208.639,1296.07 -205.076,1296.07 
  -201.512,1296.07 -197.948,1296.07 -194.384,1296.07 -190.82,1296.07 -187.256,1296.07 -183.693,1296.07 -180.129,1296.07 -176.565,1296.07 -173.001,1296.07 -169.437,1296.07 
  -165.873,1296.07 -162.31,1296.07 -158.746,1296.07 -155.182,1296.07 -151.618,1296.07 -148.054,1296.07 -144.49,1296.07 -140.926,1296.07 -137.363,1296.07 -133.799,1296.07 
  -130.235,1296.07 -126.671,1296.07 -123.107,1296.07 -119.543,1296.07 -115.98,1296.07 -112.416,1296.07 -108.852,1296.07 -105.288,1296.07 -101.724,1296.07 -98.1604,1296.07 
  -94.5966,1296.07 -91.0328,1296.07 -87.4689,1296.07 -83.9051,1296.07 -80.3413,1296.07 -76.7774,1296.06 -73.2136,1296.06 -69.6498,1296.06 -66.0859,1296.06 -62.5221,1296.06 
  -58.9582,1296.06 -55.3944,1296.06 -51.8306,1296.06 -48.2667,1296.06 -44.7029,1296.06 -41.1391,1296.06 -37.5752,1296.06 -34.0114,1296.06 -30.4475,1296.06 -26.8837,1296.06 
  -23.3199,1296.06 -19.756,1296.06 -16.1922,1296.06 -12.6284,1296.06 -9.06453,1296.06 -5.50069,1296.06 -1.93685,1296.06 1.62698,1296.05 5.19082,1296.05 8.75466,1296.05 
  12.3185,1296.05 15.8823,1296.05 19.4462,1296.05 23.01,1296.05 26.5738,1296.05 30.1377,1296.05 33.7015,1296.05 37.2654,1296.04 40.8292,1296.04 44.393,1296.04 
  47.9569,1296.04 51.5207,1296.04 55.0845,1296.03 58.6484,1296.03 62.2122,1296.03 65.776,1296.02 69.3399,1296.02 72.9037,1296.01 76.4676,1296 80.0314,1296 
  83.5952,1295.99 87.1591,1295.98 90.7229,1295.96 94.2867,1295.94 97.8506,1295.92 101.414,1295.9 104.978,1295.86 108.542,1295.82 112.106,1295.77 115.67,1295.71 
  119.234,1295.62 122.797,1295.52 126.361,1295.4 129.925,1295.25 133.489,1295.08 137.053,1294.92 140.617,1294.78 144.18,1294.68 147.744,1294.64 151.308,1294.66 
  154.872,1294.71 158.436,1294.79 162,1294.88 165.563,1294.96 169.127,1295.04 172.691,1295.11 176.255,1295.16 179.819,1295.21 183.383,1295.25 186.946,1295.29 
  190.51,1295.31 194.074,1295.33 197.638,1295.35 201.202,1295.36 204.766,1295.36 208.33,1295.36 211.893,1295.36 215.457,1295.35 219.021,1295.34 222.585,1295.33 
  226.149,1295.31 229.713,1295.28 233.276,1295.26 236.84,1295.22 240.404,1295.19 243.968,1295.14 247.532,1295.09 251.096,1295.03 254.659,1294.96 258.223,1294.88 
  261.787,1294.79 265.351,1294.69 268.915,1294.57 272.479,1294.43 276.042,1294.27 279.606,1294.08 283.17,1293.85 286.734,1293.58 290.298,1293.27 293.862,1292.89 
  297.425,1292.43 300.989,1291.87 304.553,1291.19 308.117,1290.36 311.681,1289.34 315.245,1288.07 318.808,1286.5 322.372,1284.56 325.936,1282.2 329.5,1279.39 
  333.064,1276.16 336.628,1272.68 340.191,1269.27 343.755,1266.4 347.319,1264.53 350.883,1263.9 354.447,1264.47 358.011,1265.92 361.575,1267.86 365.138,1269.96 
  368.702,1271.99 372.266,1273.85 375.83,1275.47 379.394,1276.85 382.958,1278 386.521,1278.94 390.085,1279.69 393.649,1280.27 397.213,1280.7 400.777,1280.99 
  404.341,1281.15 407.904,1281.18 411.468,1281.1 415.032,1280.9 418.596,1280.57 422.16,1280.11 425.724,1279.51 429.287,1278.76 432.851,1277.82 436.415,1276.69 
  439.979,1275.31 443.543,1273.66 447.107,1271.67 450.67,1269.27 454.234,1266.38 457.798,1262.88 461.362,1258.64 464.926,1253.46 468.49,1247.12 472.053,1239.35 
  475.617,1229.84 479.181,1218.26 482.745,1204.34 486.309,1188 489.873,1169.58 493.436,1150.17 497,1131.75 500.564,1116.99 504.128,1108.37 507.692,1107.11 
  511.256,1112.56 514.819,1122.73 518.383,1135.29 521.947,1148.33 525.511,1160.65 529.075,1171.62 532.639,1181.01 536.203,1188.82 539.766,1195.15 543.33,1200.14 
  546.894,1203.92 550.458,1206.59 554.022,1208.24 557.586,1208.92 561.149,1208.67 564.713,1207.46 568.277,1205.25 571.841,1201.98 575.405,1197.52 578.969,1191.7 
  582.532,1184.3 586.096,1175.02 589.66,1163.47 593.224,1149.15 596.788,1131.46 600.352,1109.65 603.915,1082.9 607.479,1050.37 611.043,1011.47 614.607,966.305 
  618.171,916.403 621.735,865.53 625.298,820.016 628.862,787.577 632.426,774.345 635.99,781.784 639.554,806.093 643.118,840.548 646.681,878.562 650.245,915.417 
  653.809,948.477 657.373,976.645 660.937,999.729 664.501,1017.97 668.064,1031.75 671.628,1041.46 675.192,1047.38 678.756,1049.72 682.32,1048.52 685.884,1043.69 
  689.447,1035 693.011,1022.01 696.575,1004.12 700.139,980.477 703.703,949.991 707.267,911.346 710.831,863.103 714.394,803.99 717.958,733.55 721.522,653.308 
  725.086,568.415 728.65,488.95 732.214,428.985 735.777,401.697 739.341,412.433 742.905,455.604 746.469,518.444 750.033,587.684 753.597,653.781 757.16,711.571 
  760.724,759.079 764.288,796.095 767.852,823.153 771.416,840.939 774.98,849.989 778.543,850.542 782.107,842.466 785.671,825.214 789.235,797.796 792.799,758.785 
  796.363,706.421 799.926,638.951 803.49,555.465 807.054,457.555 810.618,351.914 814.182,252.791 817.746,180.991 821.309,155.929 824.873,183.879 828.437,253.588 
  832.001,344.204 835.565,436.576 839.129,518.702 842.692,585.213 846.256,634.744 849.82,667.669 853.384,684.718 856.948,686.281 860.512,672.093 864.075,641.15 
  867.639,591.846 871.203,522.527 874.767,432.913 878.331,326.962 881.895,217.07 885.459,126.574 889.022,83.6181 892.586,104.123 896.15,178.818 899.714,280.679 
  903.278,383.088 906.842,469.738 910.405,533.879 913.969,573.97 917.533,590.195 921.097,582.612 924.661,550.528 928.225,492.922 931.788,410.356 935.352,309.287 
  938.916,208.281 942.48,139.611 946.044,134.188 949.608,195.363 953.171,294.807 956.735,397.011 960.299,479.01 963.863,531.351 967.427,551.558 970.991,539.155 
  974.554,494.197 978.118,419.602 981.682,328.034 985.246,249.967 988.81,226.368 992.374,274.257 995.937,366.132 999.501,458.491 1003.07,523.085 1006.63,549.066 
  1010.19,534.208 1013.76,481.571 1017.32,405.746 1020.88,343.348 1024.45,340.424 1028.01,403.336 1031.58,487.795 1035.14,548.507 1038.7,565.006 1042.27,535.506 
  1045.83,476.469 1049.4,432.115 1052.96,449.822 1056.52,516.492 1060.09,574.632 1063.65,587.73 1067.21,555.451 1070.78,515.424 1074.34,524.216 1077.91,577.288 
  1081.47,613.22 1085.03,602.528 1088.6,576.93 1092.16,592.803 1095.72,631.021 1099.29,636.294 1102.85,625.367 1106.42,644.864 1109.98,661.398 1113.54,660.727 
  1117.11,678.128 1120.67,684.982 1124.24,687.591 1127.8,712.7 1131.36,720.586 1134.93,710.244 1138.49,727.186 1142.05,760.869 1145.62,768.553 1149.18,751.073 
  1152.75,748.657 1156.31,781.461 1159.87,817.997 1163.44,828.625 1167,812.542 1170.57,793.017 1174.13,800.739 1177.69,837.533 1181.26,876.45 1184.82,896.854 
  1188.38,894.177 1191.95,874.848 1195.51,855.193 1199.08,855.731 1202.64,882.633 1206.2,921.341 1209.77,954.351 1213.33,973.159 1216.9,976.389 1220.46,966.25 
  1224.02,948.177 1227.59,931.92 1231.15,929.223 1234.71,945.62 1238.28,975.335 1241.84,1007.42 1245.41,1033.93 1248.97,1051.64 1252.53,1060.18 1256.1,1060.29 
  1259.66,1053.27 1263.23,1041.27 1266.79,1027.95 1270.35,1018.65 1273.92,1018.66 1277.48,1030.07 1281.04,1050.15 1284.61,1073.6 1288.17,1095.79 1291.74,1114.14 
  1295.3,1127.79 1298.86,1136.79 1302.43,1141.51 1305.99,1142.39 1309.56,1139.86 1313.12,1134.45 1316.68,1126.93 1320.25,1118.5 1323.81,1110.96 1327.37,1106.4 
  1330.94,1106.64 1334.5,1112.32 1338.07,1122.58 1341.63,1135.54 1345.19,1149.2 1348.76,1162.02 1352.32,1173.16 1355.88,1182.26 1359.45,1189.3 1363.01,1194.37 
  1366.58,1197.63 1370.14,1199.22 1373.7,1199.23 1377.27,1197.74 1380.83,1194.79 1384.4,1190.42 1387.96,1184.69 1391.52,1177.73 1395.09,1169.79 1398.65,1161.3 
  1402.21,1152.92 1405.78,1145.48 1409.34,1139.89 1412.91,1136.9 1416.47,1136.83 1420.03,1139.54 1423.6,1144.45 1427.16,1150.73 1430.73,1157.58 1434.29,1164.32 
  1437.85,1170.47 1441.42,1175.74 1444.98,1179.94 1448.54,1183 1452.11,1184.88 1455.67,1185.56 1459.24,1184.99 1462.8,1183.14 1466.36,1179.92 1469.93,1175.25 
  1473.49,1168.97 1477.06,1160.91 1480.62,1150.87 1484.18,1138.65 1487.75,1124.04 1491.31,1106.95 1494.87,1087.44 1498.44,1065.92 1502,1043.22 1505.57,1020.78 
  1509.13,1000.53 1512.69,984.654 1516.26,974.984 1519.82,972.439 1523.39,976.721 1526.95,986.48 1530.51,999.828 1534.08,1014.87 1537.64,1030.06 1541.2,1044.3 
  1544.77,1056.93 1548.33,1067.6 1551.9,1076.15 1555.46,1082.53 1559.02,1086.75 1562.59,1088.84 1566.15,1088.77 1569.72,1086.51 1573.28,1081.96 1576.84,1074.98 
  1580.41,1065.36 1583.97,1052.82 1587.53,1037.04 1591.1,1017.65 1594.66,994.273 1598.23,966.631 1601.79,934.648 1605.35,898.696 1608.92,859.882 1612.48,820.376 
  1616.05,783.576 1619.61,753.851 1623.17,735.626 1626.74,731.974 1630.3,743.416 1633.86,767.712 1637.43,800.807 1640.99,838.248 1644.56,876.294 1648.12,912.372 
  1651.68,945.024 1655.25,973.628 1658.81,998.089 1662.37,1018.6 1665.94,1035.47 1669.5,1049.05 1673.07,1059.66 1676.63,1067.58 1680.19,1073 1683.76,1076.08 
  1687.32,1076.91 1690.89,1075.51 1694.45,1071.83 1698.01,1065.77 1701.58,1057.18 1705.14,1045.84 1708.7,1031.49 1712.27,1013.87 1715.83,992.747 1719.4,968.067 
  1722.96,940.083 1726.52,909.64 1730.09,878.489 1733.65,849.543 1737.22,826.813 1740.78,814.701 1744.34,816.601 1747.91,833.41 1751.47,862.964 1755.03,900.911 
  1758.6,942.376 1762.16,983.353 1765.73,1021.27 1769.29,1054.87 1772.85,1083.84 1776.42,1108.38 1779.98,1128.96 1783.55,1146.11 1787.11,1160.36 1790.67,1172.15 
  1794.24,1181.89 1797.8,1189.89 1801.36,1196.43 1804.93,1201.7 1808.49,1205.87 1812.06,1209.06 1815.62,1211.36 1819.18,1212.85 1822.75,1213.55 1826.31,1213.47 
  1829.88,1212.63 1833.44,1210.98 1837,1208.49 1840.57,1205.09 1844.13,1200.72 1847.69,1195.33 1851.26,1188.87 1854.82,1181.42 1858.39,1173.17 1861.95,1164.62 
  1865.51,1156.6 1869.08,1150.4 1872.64,1147.55 1876.21,1149.43 1879.77,1156.53 1883.33,1168.18 1886.9,1182.71 1890.46,1198.16 1894.02,1212.98 1897.59,1226.24 
  1901.15,1237.6 1904.72,1247.06 1908.28,1254.82 1911.84,1261.15 1915.41,1266.29 1918.97,1270.47 1922.54,1273.89 1926.1,1276.69 1929.66,1279 1933.23,1280.91 
  1936.79,1282.5 1940.35,1283.84 1943.92,1284.95 1947.48,1285.89 1951.05,1286.69 1954.61,1287.35 1958.17,1287.92 1961.74,1288.39 1965.3,1288.78 1968.86,1289.11 
  1972.43,1289.37 1975.99,1289.57 1979.56,1289.72 1983.12,1289.82 1986.68,1289.87 1990.25,1289.87 1993.81,1289.82 1997.38,1289.71 2000.94,1289.55 2004.5,1289.32 
  2008.07,1289.04 2011.63,1288.69 2015.19,1288.28 2018.76,1287.83 2022.32,1287.38 2025.89,1287 2029.45,1286.77 2033.01,1286.83 2036.58,1287.24 2040.14,1288.01 
  2043.71,1289.05 2047.27,1290.18 2050.83,1291.27 2054.4,1292.23 2057.96,1293.02 2061.52,1293.66 2065.09,1294.15 2068.65,1294.54 2072.22,1294.84 2075.78,1295.07 
  2079.34,1295.25 2082.91,1295.39 2086.47,1295.51 2090.04,1295.6 2093.6,1295.67 2097.16,1295.73 2100.73,1295.78 2104.29,1295.82 2107.85,1295.85 2111.42,1295.88 
  2114.98,1295.9 2118.55,1295.92 2122.11,1295.94 2125.67,1295.95 2129.24,1295.96 2132.8,1295.97 2136.37,1295.98 2139.93,1295.99 2143.49,1296 2147.06,1296 
  2150.62,1296.01 2154.18,1296.01 2157.75,1296.02 2161.31,1296.02 2164.88,1296.02 2168.44,1296.03 2172,1296.03 2175.57,1296.03 2179.13,1296.03 2182.7,1296.04 
  2186.26,1296.04 2189.82,1296.04 2193.39,1296.04 2196.95,1296.04 2200.51,1296.04 2204.08,1296.05 2207.64,1296.05 2211.21,1296.05 2214.77,1296.05 2218.33,1296.05 
  2221.9,1296.05 2225.46,1296.05 2229.02,1296.05 2232.59,1296.05 2236.15,1296.05 2239.72,1296.05 2243.28,1296.06 2246.84,1296.06 2250.41,1296.06 2253.97,1296.06 
  2257.54,1296.06 2261.1,1296.06 2264.66,1296.06 2268.23,1296.06 2271.79,1296.06 2275.35,1296.06 2278.92,1296.06 2282.48,1296.06 2286.05,1296.06 2289.61,1296.06 
  2293.17,1296.06 2296.74,1296.06 2300.3,1296.06 2303.87,1296.06 2307.43,1296.06 2310.99,1296.06 2314.56,1296.06 2318.12,1296.06 2321.68,1296.07 2325.25,1296.07 
  2328.81,1296.07 2332.38,1296.07 2335.94,1296.07 2339.5,1296.07 2343.07,1296.07 2346.63,1296.07 2350.2,1296.07 2353.76,1296.07 2357.32,1296.07 2360.89,1296.07 
  2364.45,1296.07 2368.01,1296.07 2371.58,1296.07 2375.14,1296.07 2378.71,1296.07 2382.27,1296.07 2385.83,1296.07 2389.4,1296.07 2392.96,1296.07 2396.53,1296.07 
  2400.09,1296.07 2403.65,1296.07 2407.22,1296.07 2410.78,1296.07 2414.34,1296.07 2417.91,1296.07 2421.47,1296.07 2425.04,1296.07 2428.6,1296.07 2432.16,1296.07 
  2435.73,1296.07 2439.29,1296.07 2442.86,1296.07 2446.42,1296.07 2449.98,1296.07 2453.55,1296.07 2457.11,1296.07 2460.67,1296.07 2464.24,1296.07 2467.8,1296.07 
  2471.37,1296.07 2474.93,1296.07 2478.49,1296.08 2482.06,1296.08 2485.62,1296.08 2489.19,1296.08 2492.75,1296.08 2496.31,1296.08 2499.88,1296.08 2503.44,1296.08 
  2507,1296.08 2510.57,1296.08 2514.13,1296.08 2517.7,1296.08 2521.26,1296.08 2524.82,1296.08 2528.39,1296.08 2531.95,1296.08 2535.51,1296.08 2539.08,1296.08 
  2542.64,1296.08 2546.21,1296.08 2549.77,1296.08 2553.33,1296.08 2556.9,1296.08 2560.46,1296.08 2564.03,1296.08 2567.59,1296.08 2571.15,1296.08 2574.72,1296.08 
  2578.28,1296.08 2581.84,1296.08 2585.41,1296.08 2588.97,1296.08 2592.54,1296.08 2596.1,1296.08 2599.66,1296.08 2603.23,1296.08 2606.79,1296.08 2610.36,1296.08 
  2613.92,1296.08 2617.48,1296.08 2621.05,1296.08 2624.61,1296.08 2628.17,1296.08 2631.74,1296.08 2635.3,1296.08 2638.87,1296.08 2642.43,1296.08 2645.99,1296.08 
  2649.56,1296.08 2653.12,1296.08 2656.69,1296.08 2660.25,1296.08 2663.81,1296.08 2667.38,1296.08 2670.94,1296.08 2674.5,1296.08 2678.07,1296.08 2681.63,1296.08 
  2685.2,1296.08 2688.76,1296.08 2692.32,1296.08 2695.89,1296.08 2699.45,1296.08 2703.02,1296.08 2706.58,1296.08 2710.14,1296.08 2713.71,1296.08 2717.27,1296.08 
  2720.83,1296.08 2724.4,1296.08 2727.96,1296.08 2731.53,1296.08 2735.09,1296.08 2738.65,1296.08 2742.22,1296.08 2745.78,1296.08 2749.35,1296.08 2752.91,1296.08 
  2756.47,1296.08 2760.04,1296.08 2763.6,1296.08 2767.16,1296.08 2770.73,1296.08 2774.29,1296.08 2777.86,1296.08 2781.42,1296.08 2784.98,1296.08 2788.55,1296.08 
  2792.11,1296.08 2795.68,1296.08 2799.24,1296.08 2802.8,1296.08 2806.37,1296.08 2809.93,1296.08 2813.49,1296.08 2817.06,1296.08 2820.62,1296.08 2824.19,1296.08 
  2827.75,1296.08 2831.31,1296.08 2834.88,1296.08 2838.44,1296.08 2842,1296.08 2845.57,1296.09 2849.13,1296.09 2852.7,1296.09 2856.26,1296.09 2859.82,1296.09 
  2863.39,1296.09 2866.95,1296.09 2870.52,1296.09 2874.08,1296.09 2877.64,1296.09 2881.21,1296.09 2884.77,1296.09 2888.33,1296.09 2891.9,1296.09 2895.46,1296.09 
  
  "/>
<polyline clip-path="url(#clip673)" style="stroke:#e26f46; stroke-linecap:round; stroke-linejoin:round; stroke-width:12; stroke-opacity:1; fill:none" points="
  -664.81,1296.09 -661.247,1296.09 -657.683,1296.09 -654.119,1296.09 -650.555,1296.09 -646.991,1296.08 -643.427,1296.08 -639.864,1296.08 -636.3,1296.08 -632.736,1296.08 
  -629.172,1296.08 -625.608,1296.08 -622.044,1296.08 -618.481,1296.08 -614.917,1296.08 -611.353,1296.08 -607.789,1296.08 -604.225,1296.08 -600.661,1296.08 -597.098,1296.08 
  -593.534,1296.08 -589.97,1296.08 -586.406,1296.08 -582.842,1296.08 -579.278,1296.08 -575.715,1296.08 -572.151,1296.08 -568.587,1296.08 -565.023,1296.08 -561.459,1296.08 
  -557.895,1296.08 -554.332,1296.08 -550.768,1296.08 -547.204,1296.08 -543.64,1296.08 -540.076,1296.08 -536.512,1296.08 -532.949,1296.08 -529.385,1296.08 -525.821,1296.08 
  -522.257,1296.08 -518.693,1296.08 -515.129,1296.08 -511.566,1296.08 -508.002,1296.08 -504.438,1296.08 -500.874,1296.08 -497.31,1296.08 -493.746,1296.08 -490.182,1296.08 
  -486.619,1296.08 -483.055,1296.08 -479.491,1296.08 -475.927,1296.08 -472.363,1296.08 -468.799,1296.08 -465.236,1296.08 -461.672,1296.08 -458.108,1296.08 -454.544,1296.08 
  -450.98,1296.08 -447.416,1296.08 -443.853,1296.08 -440.289,1296.08 -436.725,1296.08 -433.161,1296.08 -429.597,1296.08 -426.033,1296.08 -422.47,1296.08 -418.906,1296.08 
  -415.342,1296.08 -411.778,1296.08 -408.214,1296.08 -404.65,1296.08 -401.087,1296.08 -397.523,1296.08 -393.959,1296.08 -390.395,1296.08 -386.831,1296.08 -383.267,1296.08 
  -379.704,1296.08 -376.14,1296.08 -372.576,1296.08 -369.012,1296.08 -365.448,1296.08 -361.884,1296.08 -358.321,1296.08 -354.757,1296.08 -351.193,1296.08 -347.629,1296.08 
  -344.065,1296.08 -340.501,1296.08 -336.938,1296.08 -333.374,1296.08 -329.81,1296.08 -326.246,1296.08 -322.682,1296.08 -319.118,1296.08 -315.554,1296.08 -311.991,1296.08 
  -308.427,1296.08 -304.863,1296.08 -301.299,1296.08 -297.735,1296.08 -294.171,1296.08 -290.608,1296.08 -287.044,1296.08 -283.48,1296.08 -279.916,1296.08 -276.352,1296.08 
  -272.788,1296.08 -269.225,1296.08 -265.661,1296.08 -262.097,1296.08 -258.533,1296.08 -254.969,1296.07 -251.405,1296.07 -247.842,1296.07 -244.278,1296.07 -240.714,1296.07 
  -237.15,1296.07 -233.586,1296.07 -230.022,1296.07 -226.459,1296.07 -222.895,1296.07 -219.331,1296.07 -215.767,1296.07 -212.203,1296.07 -208.639,1296.07 -205.076,1296.07 
  -201.512,1296.07 -197.948,1296.07 -194.384,1296.07 -190.82,1296.07 -187.256,1296.07 -183.693,1296.07 -180.129,1296.07 -176.565,1296.07 -173.001,1296.07 -169.437,1296.07 
  -165.873,1296.07 -162.31,1296.07 -158.746,1296.07 -155.182,1296.07 -151.618,1296.07 -148.054,1296.07 -144.49,1296.07 -140.926,1296.07 -137.363,1296.07 -133.799,1296.07 
  -130.235,1296.07 -126.671,1296.07 -123.107,1296.07 -119.543,1296.07 -115.98,1296.07 -112.416,1296.07 -108.852,1296.07 -105.288,1296.07 -101.724,1296.07 -98.1604,1296.07 
  -94.5966,1296.07 -91.0328,1296.06 -87.4689,1296.06 -83.9051,1296.06 -80.3413,1296.06 -76.7774,1296.06 -73.2136,1296.06 -69.6498,1296.06 -66.0859,1296.06 -62.5221,1296.06 
  -58.9582,1296.06 -55.3944,1296.06 -51.8306,1296.06 -48.2667,1296.06 -44.7029,1296.06 -41.1391,1296.06 -37.5752,1296.06 -34.0114,1296.06 -30.4475,1296.06 -26.8837,1296.06 
  -23.3199,1296.06 -19.756,1296.05 -16.1922,1296.05 -12.6284,1296.05 -9.06453,1296.05 -5.50069,1296.05 -1.93685,1296.05 1.62698,1296.05 5.19082,1296.05 8.75466,1296.05 
  12.3185,1296.04 15.8823,1296.04 19.4462,1296.04 23.01,1296.04 26.5738,1296.04 30.1377,1296.03 33.7015,1296.03 37.2654,1296.03 40.8292,1296.03 44.393,1296.02 
  47.9569,1296.02 51.5207,1296.02 55.0845,1296.01 58.6484,1296.01 62.2122,1296 65.776,1295.99 69.3399,1295.99 72.9037,1295.98 76.4676,1295.97 80.0314,1295.96 
  83.5952,1295.95 87.1591,1295.94 90.7229,1295.93 94.2867,1295.91 97.8506,1295.9 101.414,1295.88 104.978,1295.86 108.542,1295.84 112.106,1295.82 115.67,1295.8 
  119.234,1295.77 122.797,1295.74 126.361,1295.71 129.925,1295.68 133.489,1295.65 137.053,1295.61 140.617,1295.57 144.18,1295.53 147.744,1295.49 151.308,1295.45 
  154.872,1295.41 158.436,1295.36 162,1295.32 165.563,1295.27 169.127,1295.23 172.691,1295.18 176.255,1295.13 179.819,1295.08 183.383,1295.03 186.946,1294.98 
  190.51,1294.93 194.074,1294.88 197.638,1294.82 201.202,1294.76 204.766,1294.7 208.33,1294.64 211.893,1294.57 215.457,1294.5 219.021,1294.42 222.585,1294.34 
  226.149,1294.25 229.713,1294.16 233.276,1294.07 236.84,1293.96 240.404,1293.85 243.968,1293.73 247.532,1293.6 251.096,1293.46 254.659,1293.32 258.223,1293.16 
  261.787,1292.98 265.351,1292.8 268.915,1292.6 272.479,1292.39 276.042,1292.16 279.606,1291.92 283.17,1291.66 286.734,1291.38 290.298,1291.08 293.862,1290.76 
  297.425,1290.42 300.989,1290.06 304.553,1289.67 308.117,1289.26 311.681,1288.83 315.245,1288.37 318.808,1287.89 322.372,1287.38 325.936,1286.84 329.5,1286.28 
  333.064,1285.69 336.628,1285.08 340.191,1284.43 343.755,1283.77 347.319,1283.07 350.883,1282.34 354.447,1281.59 358.011,1280.81 361.575,1280 365.138,1279.16 
  368.702,1278.29 372.266,1277.38 375.83,1276.45 379.394,1275.48 382.958,1274.47 386.521,1273.43 390.085,1272.35 393.649,1271.22 397.213,1270.06 400.777,1268.85 
  404.341,1267.59 407.904,1266.29 411.468,1264.93 415.032,1263.52 418.596,1262.05 422.16,1260.53 425.724,1258.94 429.287,1257.3 432.851,1255.59 436.415,1253.81 
  439.979,1251.97 443.543,1250.05 447.107,1248.07 450.67,1246 454.234,1243.87 457.798,1241.65 461.362,1239.36 464.926,1236.98 468.49,1234.52 472.053,1231.97 
  475.617,1229.33 479.181,1226.6 482.745,1223.78 486.309,1220.87 489.873,1217.86 493.436,1214.75 497,1211.53 500.564,1208.22 504.128,1204.8 507.692,1201.27 
  511.256,1197.63 514.819,1193.88 518.383,1190.01 521.947,1186.04 525.511,1181.94 529.075,1177.73 532.639,1173.4 536.203,1168.95 539.766,1164.38 543.33,1159.68 
  546.894,1154.87 550.458,1149.93 554.022,1144.87 557.586,1139.68 561.149,1134.36 564.713,1128.92 568.277,1123.35 571.841,1117.66 575.405,1111.84 578.969,1105.88 
  582.532,1099.8 586.096,1093.59 589.66,1087.25 593.224,1080.78 596.788,1074.19 600.352,1067.46 603.915,1060.61 607.479,1053.63 611.043,1046.53 614.607,1039.3 
  618.171,1031.95 621.735,1024.48 625.298,1016.89 628.862,1009.18 632.426,1001.35 635.99,993.405 639.554,985.349 643.118,977.181 646.681,968.904 650.245,960.518 
  653.809,952.028 657.373,943.434 660.937,934.74 664.501,925.948 668.064,917.063 671.628,908.086 675.192,899.023 678.756,889.876 682.32,880.65 685.884,871.348 
  689.447,861.975 693.011,852.535 696.575,843.032 700.139,833.47 703.703,823.853 707.267,814.186 710.831,804.473 714.394,794.719 717.958,784.929 721.522,775.109 
  725.086,765.263 728.65,755.398 732.214,745.52 735.777,735.634 739.341,725.748 742.905,715.866 746.469,705.997 750.033,696.144 753.597,686.316 757.16,676.517 
  760.724,666.754 764.288,657.034 767.852,647.362 771.416,637.746 774.98,628.192 778.543,618.708 782.107,609.301 785.671,599.978 789.235,590.747 792.799,581.616 
  796.363,572.591 799.926,563.678 803.49,554.886 807.054,546.219 810.618,537.685 814.182,529.291 817.746,521.044 821.309,512.951 824.873,505.019 828.437,497.256 
  832.001,489.669 835.565,482.265 839.129,475.05 842.692,468.029 846.256,461.209 849.82,454.596 853.384,448.195 856.948,442.012 860.512,436.053 864.075,430.325 
  867.639,424.834 871.203,419.585 874.767,414.583 878.331,409.832 881.895,405.335 885.459,401.097 889.022,397.122 892.586,393.414 896.15,389.977 899.714,386.817 
  903.278,383.935 906.842,381.334 910.405,379.017 913.969,376.984 917.533,375.237 921.097,373.779 924.661,372.612 928.225,371.738 931.788,371.157 935.352,370.87 
  938.916,370.875 942.48,371.172 946.044,371.761 949.608,372.642 953.171,373.815 956.735,375.279 960.299,377.031 963.863,379.067 967.427,381.386 970.991,383.986 
  974.554,386.865 978.118,390.02 981.682,393.446 985.246,397.139 988.81,401.095 992.374,405.311 995.937,409.784 999.501,414.507 1003.07,419.475 1006.63,424.683 
  1010.19,430.127 1013.76,435.802 1017.32,441.703 1020.88,447.821 1024.45,454.152 1028.01,460.693 1031.58,467.437 1035.14,474.378 1038.7,481.509 1042.27,488.828 
  1045.83,496.33 1049.4,504.006 1052.96,511.853 1056.52,519.868 1060.09,528.044 1063.65,536.375 1067.21,544.858 1070.78,553.487 1074.34,562.253 1077.91,571.148 
  1081.47,580.167 1085.03,589.295 1088.6,598.522 1092.16,607.84 1095.72,617.234 1099.29,626.704 1102.85,636.242 1106.42,645.854 1109.98,655.535 1113.54,665.272 
  1117.11,675.044 1120.67,684.849 1124.24,694.697 1127.8,704.579 1131.36,714.479 1134.93,724.381 1138.49,734.279 1142.05,744.167 1145.62,754.047 1149.18,763.918 
  1152.75,773.779 1156.31,783.627 1159.87,793.455 1163.44,803.258 1167,813.027 1170.57,822.752 1174.13,832.427 1177.69,842.042 1181.26,851.587 1184.82,861.057 
  1188.38,870.444 1191.95,879.742 1195.51,888.944 1199.08,898.045 1202.64,907.043 1206.2,915.933 1209.77,924.71 1213.33,933.372 1216.9,941.917 1220.46,950.344 
  1224.02,958.648 1227.59,966.827 1231.15,974.881 1234.71,982.81 1238.28,990.611 1241.84,998.282 1245.41,1005.82 1248.97,1013.23 1252.53,1020.5 1256.1,1027.64 
  1259.66,1034.65 1263.23,1041.52 1266.79,1048.24 1270.35,1054.83 1273.92,1061.27 1277.48,1067.58 1281.04,1073.73 1284.61,1079.74 1288.17,1085.6 1291.74,1091.31 
  1295.3,1096.86 1298.86,1102.26 1302.43,1107.5 1305.99,1112.58 1309.56,1117.5 1313.12,1122.25 1316.68,1126.83 1320.25,1131.24 1323.81,1135.47 1327.37,1139.53 
  1330.94,1143.41 1334.5,1147.11 1338.07,1150.62 1341.63,1153.95 1345.19,1157.08 1348.76,1160.02 1352.32,1162.76 1355.88,1165.3 1359.45,1167.64 1363.01,1169.77 
  1366.58,1171.7 1370.14,1173.42 1373.7,1174.93 1377.27,1176.23 1380.83,1177.32 1384.4,1178.18 1387.96,1178.83 1391.52,1179.25 1395.09,1179.45 1398.65,1179.43 
  1402.21,1179.18 1405.78,1178.71 1409.34,1178.02 1412.91,1177.11 1416.47,1175.98 1420.03,1174.64 1423.6,1173.07 1427.16,1171.29 1430.73,1169.29 1434.29,1167.08 
  1437.85,1164.65 1441.42,1162.02 1444.98,1159.18 1448.54,1156.13 1452.11,1152.89 1455.67,1149.45 1459.24,1145.83 1462.8,1142.03 1466.36,1138.06 1469.93,1133.91 
  1473.49,1129.61 1477.06,1125.15 1480.62,1120.55 1484.18,1115.81 1487.75,1110.94 1491.31,1105.94 1494.87,1100.83 1498.44,1095.61 1502,1090.3 1505.57,1084.9 
  1509.13,1079.42 1512.69,1073.87 1516.26,1068.27 1519.82,1062.63 1523.39,1056.96 1526.95,1051.27 1530.51,1045.57 1534.08,1039.88 1537.64,1034.2 1541.2,1028.55 
  1544.77,1022.95 1548.33,1017.39 1551.9,1011.9 1555.46,1006.48 1559.02,1001.15 1562.59,995.908 1566.15,990.777 1569.72,985.765 1573.28,980.883 1576.84,976.145 
  1580.41,971.561 1583.97,967.144 1587.53,962.903 1591.1,958.85 1594.66,954.994 1598.23,951.345 1601.79,947.911 1605.35,944.7 1608.92,941.719 1612.48,938.974 
  1616.05,936.471 1619.61,934.216 1623.17,932.214 1626.74,930.469 1630.3,928.986 1633.86,927.77 1637.43,926.823 1640.99,926.15 1644.56,925.753 1648.12,925.635 
  1651.68,925.798 1655.25,926.242 1658.81,926.968 1662.37,927.975 1665.94,929.262 1669.5,930.825 1673.07,932.661 1676.63,934.766 1680.19,937.134 1683.76,939.761 
  1687.32,942.639 1690.89,945.763 1694.45,949.126 1698.01,952.72 1701.58,956.538 1705.14,960.574 1708.7,964.819 1712.27,969.265 1715.83,973.905 1719.4,978.73 
  1722.96,983.731 1726.52,988.9 1730.09,994.226 1733.65,999.7 1737.22,1005.31 1740.78,1011.05 1744.34,1016.9 1747.91,1022.85 1751.47,1028.89 1755.03,1035.02 
  1758.6,1041.21 1762.16,1047.45 1765.73,1053.74 1769.29,1060.06 1772.85,1066.4 1776.42,1072.75 1779.98,1079.1 1783.55,1085.44 1787.11,1091.76 1790.67,1098.06 
  1794.24,1104.32 1797.8,1110.55 1801.36,1116.72 1804.93,1122.83 1808.49,1128.88 1812.06,1134.85 1815.62,1140.75 1819.18,1146.55 1822.75,1152.27 1826.31,1157.88 
  1829.88,1163.39 1833.44,1168.79 1837,1174.07 1840.57,1179.22 1844.13,1184.25 1847.69,1189.15 1851.26,1193.92 1854.82,1198.54 1858.39,1203.04 1861.95,1207.39 
  1865.51,1211.6 1869.08,1215.67 1872.64,1219.61 1876.21,1223.41 1879.77,1227.07 1883.33,1230.6 1886.9,1234 1890.46,1237.27 1894.02,1240.41 1897.59,1243.43 
  1901.15,1246.32 1904.72,1249.1 1908.28,1251.75 1911.84,1254.29 1915.41,1256.72 1918.97,1259.04 1922.54,1261.25 1926.1,1263.35 1929.66,1265.35 1933.23,1267.24 
  1936.79,1269.04 1940.35,1270.74 1943.92,1272.34 1947.48,1273.86 1951.05,1275.29 1954.61,1276.63 1958.17,1277.9 1961.74,1279.08 1965.3,1280.2 1968.86,1281.24 
  1972.43,1282.23 1975.99,1283.14 1979.56,1284 1983.12,1284.81 1986.68,1285.57 1990.25,1286.28 1993.81,1286.94 1997.38,1287.57 2000.94,1288.15 2004.5,1288.71 
  2008.07,1289.22 2011.63,1289.71 2015.19,1290.18 2018.76,1290.61 2022.32,1291.02 2025.89,1291.41 2029.45,1291.78 2033.01,1292.12 2036.58,1292.45 2040.14,1292.75 
  2043.71,1293.04 2047.27,1293.31 2050.83,1293.56 2054.4,1293.79 2057.96,1294.01 2061.52,1294.21 2065.09,1294.39 2068.65,1294.56 2072.22,1294.72 2075.78,1294.86 
  2079.34,1294.99 2082.91,1295.1 2086.47,1295.2 2090.04,1295.3 2093.6,1295.38 2097.16,1295.46 2100.73,1295.52 2104.29,1295.58 2107.85,1295.63 2111.42,1295.68 
  2114.98,1295.72 2118.55,1295.76 2122.11,1295.79 2125.67,1295.82 2129.24,1295.84 2132.8,1295.87 2136.37,1295.89 2139.93,1295.91 2143.49,1295.92 2147.06,1295.93 
  2150.62,1295.95 2154.18,1295.96 2157.75,1295.97 2161.31,1295.98 2164.88,1295.98 2168.44,1295.99 2172,1296 2175.57,1296 2179.13,1296.01 2182.7,1296.01 
  2186.26,1296.02 2189.82,1296.02 2193.39,1296.02 2196.95,1296.03 2200.51,1296.03 2204.08,1296.03 2207.64,1296.04 2211.21,1296.04 2214.77,1296.04 2218.33,1296.04 
  2221.9,1296.04 2225.46,1296.04 2229.02,1296.05 2232.59,1296.05 2236.15,1296.05 2239.72,1296.05 2243.28,1296.05 2246.84,1296.05 2250.41,1296.05 2253.97,1296.05 
  2257.54,1296.05 2261.1,1296.06 2264.66,1296.06 2268.23,1296.06 2271.79,1296.06 2275.35,1296.06 2278.92,1296.06 2282.48,1296.06 2286.05,1296.06 2289.61,1296.06 
  2293.17,1296.06 2296.74,1296.06 2300.3,1296.06 2303.87,1296.06 2307.43,1296.06 2310.99,1296.06 2314.56,1296.06 2318.12,1296.06 2321.68,1296.06 2325.25,1296.07 
  2328.81,1296.07 2332.38,1296.07 2335.94,1296.07 2339.5,1296.07 2343.07,1296.07 2346.63,1296.07 2350.2,1296.07 2353.76,1296.07 2357.32,1296.07 2360.89,1296.07 
  2364.45,1296.07 2368.01,1296.07 2371.58,1296.07 2375.14,1296.07 2378.71,1296.07 2382.27,1296.07 2385.83,1296.07 2389.4,1296.07 2392.96,1296.07 2396.53,1296.07 
  2400.09,1296.07 2403.65,1296.07 2407.22,1296.07 2410.78,1296.07 2414.34,1296.07 2417.91,1296.07 2421.47,1296.07 2425.04,1296.07 2428.6,1296.07 2432.16,1296.07 
  2435.73,1296.07 2439.29,1296.07 2442.86,1296.07 2446.42,1296.07 2449.98,1296.07 2453.55,1296.07 2457.11,1296.07 2460.67,1296.07 2464.24,1296.07 2467.8,1296.07 
  2471.37,1296.07 2474.93,1296.07 2478.49,1296.08 2482.06,1296.08 2485.62,1296.08 2489.19,1296.08 2492.75,1296.08 2496.31,1296.08 2499.88,1296.08 2503.44,1296.08 
  2507,1296.08 2510.57,1296.08 2514.13,1296.08 2517.7,1296.08 2521.26,1296.08 2524.82,1296.08 2528.39,1296.08 2531.95,1296.08 2535.51,1296.08 2539.08,1296.08 
  2542.64,1296.08 2546.21,1296.08 2549.77,1296.08 2553.33,1296.08 2556.9,1296.08 2560.46,1296.08 2564.03,1296.08 2567.59,1296.08 2571.15,1296.08 2574.72,1296.08 
  2578.28,1296.08 2581.84,1296.08 2585.41,1296.08 2588.97,1296.08 2592.54,1296.08 2596.1,1296.08 2599.66,1296.08 2603.23,1296.08 2606.79,1296.08 2610.36,1296.08 
  2613.92,1296.08 2617.48,1296.08 2621.05,1296.08 2624.61,1296.08 2628.17,1296.08 2631.74,1296.08 2635.3,1296.08 2638.87,1296.08 2642.43,1296.08 2645.99,1296.08 
  2649.56,1296.08 2653.12,1296.08 2656.69,1296.08 2660.25,1296.08 2663.81,1296.08 2667.38,1296.08 2670.94,1296.08 2674.5,1296.08 2678.07,1296.08 2681.63,1296.08 
  2685.2,1296.08 2688.76,1296.08 2692.32,1296.08 2695.89,1296.08 2699.45,1296.08 2703.02,1296.08 2706.58,1296.08 2710.14,1296.08 2713.71,1296.08 2717.27,1296.08 
  2720.83,1296.08 2724.4,1296.08 2727.96,1296.08 2731.53,1296.08 2735.09,1296.08 2738.65,1296.08 2742.22,1296.08 2745.78,1296.08 2749.35,1296.08 2752.91,1296.08 
  2756.47,1296.08 2760.04,1296.08 2763.6,1296.08 2767.16,1296.08 2770.73,1296.08 2774.29,1296.08 2777.86,1296.08 2781.42,1296.08 2784.98,1296.08 2788.55,1296.08 
  2792.11,1296.08 2795.68,1296.08 2799.24,1296.08 2802.8,1296.08 2806.37,1296.08 2809.93,1296.08 2813.49,1296.08 2817.06,1296.08 2820.62,1296.08 2824.19,1296.08 
  2827.75,1296.08 2831.31,1296.08 2834.88,1296.08 2838.44,1296.08 2842,1296.08 2845.57,1296.09 2849.13,1296.09 2852.7,1296.09 2856.26,1296.09 2859.82,1296.09 
  2863.39,1296.09 2866.95,1296.09 2870.52,1296.09 2874.08,1296.09 2877.64,1296.09 2881.21,1296.09 2884.77,1296.09 2888.33,1296.09 2891.9,1296.09 2895.46,1296.09 
  
  "/>
<polyline clip-path="url(#clip673)" style="stroke:#000000; stroke-linecap:round; stroke-linejoin:round; stroke-width:6; stroke-opacity:1; fill:none" stroke-dasharray="24, 15" points="
  225.258,1294.31 227.04,1294.25 228.822,1294.2 230.603,1294.14 232.385,1294.07 234.167,1294.01 235.949,1293.95 237.731,1293.88 239.513,1293.81 241.295,1293.74 
  243.077,1293.66 244.859,1293.59 246.641,1293.51 248.423,1293.43 250.205,1293.35 251.987,1293.27 253.768,1293.18 255.55,1293.09 257.332,1293 259.114,1292.91 
  260.896,1292.81 262.678,1292.71 264.46,1292.61 266.242,1292.5 268.024,1292.4 269.806,1292.29 271.588,1292.17 273.37,1292.06 275.151,1291.94 276.933,1291.82 
  278.715,1291.69 280.497,1291.56 282.279,1291.43 284.061,1291.29 285.843,1291.15 287.625,1291.01 289.407,1290.86 291.189,1290.71 292.971,1290.56 294.753,1290.4 
  296.534,1290.23 298.316,1290.07 300.098,1289.89 301.88,1289.72 303.662,1289.54 305.444,1289.35 307.226,1289.16 309.008,1288.97 310.79,1288.77 312.572,1288.57 
  314.354,1288.36 316.136,1288.14 317.917,1287.92 319.699,1287.7 321.481,1287.47 323.263,1287.23 325.045,1286.99 326.827,1286.74 328.609,1286.49 330.391,1286.23 
  332.173,1285.96 333.955,1285.69 335.737,1285.41 337.519,1285.12 339.301,1284.83 341.082,1284.53 342.864,1284.22 344.646,1283.91 346.428,1283.59 348.21,1283.26 
  349.992,1282.93 351.774,1282.58 353.556,1282.23 355.338,1281.87 357.12,1281.5 358.902,1281.13 360.684,1280.74 362.465,1280.35 364.247,1279.95 366.029,1279.54 
  367.811,1279.11 369.593,1278.69 371.375,1278.25 373.157,1277.8 374.939,1277.34 376.721,1276.87 378.503,1276.39 380.285,1275.9 382.067,1275.4 383.848,1274.89 
  385.63,1274.37 387.412,1273.84 389.194,1273.3 390.976,1272.74 392.758,1272.18 394.54,1271.6 396.322,1271.01 398.104,1270.41 399.886,1269.79 401.668,1269.16 
  403.45,1268.52 405.232,1267.87 407.013,1267.2 408.795,1266.52 410.577,1265.83 412.359,1265.12 414.141,1264.4 415.923,1263.66 417.705,1262.91 419.487,1262.15 
  421.269,1261.37 423.051,1260.58 424.833,1259.77 426.615,1258.94 428.396,1258.1 430.178,1257.24 431.96,1256.37 433.742,1255.48 435.524,1254.57 437.306,1253.64 
  439.088,1252.7 440.87,1251.75 442.652,1250.77 444.434,1249.78 446.216,1248.76 447.998,1247.73 449.779,1246.68 451.561,1245.62 453.343,1244.53 455.125,1243.42 
  456.907,1242.3 458.689,1241.15 460.471,1239.99 462.253,1238.8 464.035,1237.6 465.817,1236.37 467.599,1235.12 469.381,1233.85 471.162,1232.56 472.944,1231.25 
  474.726,1229.92 476.508,1228.56 478.29,1227.18 480.072,1225.78 481.854,1224.36 483.636,1222.91 485.418,1221.44 487.2,1219.94 488.982,1218.43 490.764,1216.89 
  492.546,1215.32 494.327,1213.73 496.109,1212.11 497.891,1210.47 499.673,1208.81 501.455,1207.12 503.237,1205.4 505.019,1203.66 506.801,1201.89 508.583,1200.09 
  510.365,1198.27 512.147,1196.42 513.929,1194.55 515.71,1192.65 517.492,1190.72 519.274,1188.76 521.056,1186.77 522.838,1184.76 524.62,1182.72 526.402,1180.65 
  528.184,1178.55 529.966,1176.42 531.748,1174.27 533.53,1172.08 535.312,1169.87 537.093,1167.62 538.875,1165.35 540.657,1163.05 542.439,1160.71 544.221,1158.35 
  546.003,1155.96 547.785,1153.53 549.567,1151.08 551.349,1148.59 553.131,1146.07 554.913,1143.53 556.695,1140.95 558.476,1138.34 560.258,1135.7 562.04,1133.02 
  563.822,1130.32 565.604,1127.58 567.386,1124.82 569.168,1122.02 570.95,1119.19 572.732,1116.32 574.514,1113.43 576.296,1110.5 578.078,1107.54 579.86,1104.55 
  581.641,1101.52 583.423,1098.47 585.205,1095.38 586.987,1092.26 588.769,1089.1 590.551,1085.92 592.333,1082.7 594.115,1079.45 595.897,1076.17 597.679,1072.85 
  599.461,1069.51 601.243,1066.13 603.024,1062.72 604.806,1059.27 606.588,1055.8 608.37,1052.29 610.152,1048.75 611.934,1045.18 613.716,1041.58 615.498,1037.94 
  617.28,1034.28 619.062,1030.58 620.844,1026.85 622.626,1023.1 624.407,1019.31 626.189,1015.49 627.971,1011.64 629.753,1007.75 631.535,1003.84 633.317,999.903 
  635.099,995.932 636.881,991.933 638.663,987.904 640.445,983.846 642.227,979.759 644.009,975.644 645.79,971.501 647.572,967.33 649.354,963.132 651.136,958.906 
  652.918,954.653 654.7,950.374 656.482,946.069 658.264,941.738 660.046,937.381 661.828,932.999 663.61,928.592 665.392,924.161 667.174,919.706 668.955,915.228 
  670.737,910.726 672.519,906.202 674.301,901.655 676.083,897.087 677.865,892.497 679.647,887.887 681.429,883.256 683.211,878.605 684.993,873.935 686.775,869.247 
  688.557,864.539 690.338,859.815 692.12,855.072 693.902,850.314 695.684,845.539 697.466,840.749 699.248,835.943 701.03,831.124 702.812,826.291 704.594,821.444 
  706.376,816.586 708.158,811.715 709.94,806.833 711.721,801.941 713.503,797.039 715.285,792.128 717.067,787.208 718.849,782.28 720.631,777.345 722.413,772.404 
  724.195,767.458 725.977,762.506 727.759,757.55 729.541,752.59 731.323,747.628 733.104,742.664 734.886,737.699 736.668,732.733 738.45,727.768 740.232,722.803 
  742.014,717.841 743.796,712.881 745.578,707.925 747.36,702.973 749.142,698.026 750.924,693.085 752.706,688.151 754.488,683.225 756.269,678.306 758.051,673.398 
  759.833,668.499 761.615,663.611 763.397,658.736 765.179,653.872 766.961,649.023 768.743,644.188 770.525,639.368 772.307,634.564 774.089,629.777 775.871,625.009 
  777.652,620.259 779.434,615.528 781.216,610.818 782.998,606.13 784.78,601.464 786.562,596.821 788.344,592.202 790.126,587.608 791.908,583.04 793.69,578.499 
  795.472,573.985 797.254,569.5 799.035,565.044 800.817,560.618 802.599,556.224 804.381,551.861 806.163,547.532 807.945,543.236 809.727,538.975 811.509,534.749 
  813.291,530.56 815.073,526.407 816.855,522.293 818.637,518.218 820.418,514.182 822.2,510.188 823.982,506.234 825.764,502.323 827.546,498.455 829.328,494.63 
  831.11,490.851 832.892,487.117 834.674,483.429 836.456,479.788 838.238,476.196 840.02,472.651 841.802,469.157 843.583,465.712 845.365,462.319 847.147,458.977 
  848.929,455.687 850.711,452.451 852.493,449.268 854.275,446.14 856.057,443.067 857.839,440.05 859.621,437.09 861.403,434.187 863.185,431.341 864.966,428.555 
  866.748,425.827 868.53,423.159 870.312,420.552 872.094,418.005 873.876,415.52 875.658,413.098 877.44,410.737 879.222,408.44 881.004,406.207 882.786,404.038 
  884.568,401.933 886.349,399.894 888.131,397.921 889.913,396.013 891.695,394.172 893.477,392.398 895.259,390.692 897.041,389.053 898.823,387.483 900.605,385.981 
  902.387,384.547 904.169,383.183 905.951,381.889 907.732,380.664 909.514,379.51 911.296,378.426 913.078,377.412 914.86,376.47 916.642,375.598 918.424,374.798 
  920.206,374.069 921.988,373.412 923.77,372.827 925.552,372.314 927.334,371.873 929.116,371.504 930.897,371.207 932.679,370.982 934.461,370.83 936.243,370.751 
  938.025,370.743 939.807,370.808 941.589,370.946 943.371,371.156 945.153,371.438 946.935,371.793 948.717,372.22 950.499,372.719 952.28,373.29 954.062,373.932 
  955.844,374.647 957.626,375.433 959.408,376.29 961.19,377.218 962.972,378.217 964.754,379.287 966.536,380.428 968.318,381.638 970.1,382.919 971.882,384.269 
  973.663,385.688 975.445,387.177 977.227,388.733 979.009,390.358 980.791,392.051 982.573,393.812 984.355,395.639 986.137,397.534 987.919,399.494 989.701,401.52 
  991.483,403.611 993.265,405.768 995.046,407.988 996.828,410.272 998.61,412.62 1000.39,415.03 1002.17,417.503 1003.96,420.037 1005.74,422.632 1007.52,425.288 
  1009.3,428.004 1011.08,430.778 1012.87,433.612 1014.65,436.503 1016.43,439.452 1018.21,442.458 1019.99,445.52 1021.78,448.637 1023.56,451.808 1025.34,455.034 
  1027.12,458.313 1028.9,461.644 1030.68,465.027 1032.47,468.462 1034.25,471.946 1036.03,475.48 1037.81,479.063 1039.59,482.694 1041.38,486.372 1043.16,490.097 
  1044.94,493.867 1046.72,497.682 1048.5,501.542 1050.29,505.444 1052.07,509.389 1053.85,513.375 1055.63,517.402 1057.41,521.469 1059.2,525.575 1060.98,529.719 
  1062.76,533.901 1064.54,538.119 1066.32,542.373 1068.11,546.661 1069.89,550.984 1071.67,555.339 1073.45,559.726 1075.23,564.145 1077.01,568.594 1078.8,573.073 
  1080.58,577.58 1082.36,582.115 1084.14,586.677 1085.92,591.265 1087.71,595.878 1089.49,600.515 1091.27,605.175 1093.05,609.858 1094.83,614.562 1096.62,619.287 
  1098.4,624.032 1100.18,628.795 1101.96,633.576 1103.74,638.375 1105.53,643.19 1107.31,648.02 1109.09,652.864 1110.87,657.723 1112.65,662.594 1114.44,667.476 
  1116.22,672.37 1118,677.274 1119.78,682.187 1121.56,687.109 1123.34,692.038 1125.13,696.974 1126.91,701.916 1128.69,706.863 1130.47,711.814 1132.25,716.768 
  1134.04,721.726 1135.82,726.685 1137.6,731.645 1139.38,736.605 1141.16,741.564 1142.95,746.522 1144.73,751.478 1146.51,756.432 1148.29,761.381 1150.07,766.326 
  1151.86,771.265 1153.64,776.199 1155.42,781.126 1157.2,786.046 1158.98,790.957 1160.76,795.859 1162.55,800.752 1164.33,805.635 1166.11,810.506 1167.89,815.366 
  1169.67,820.214 1171.46,825.048 1173.24,829.869 1175.02,834.675 1176.8,839.467 1178.58,844.243 1180.37,849.002 1182.15,853.745 1183.93,858.47 1185.71,863.177 
  1187.49,867.865 1189.28,872.534 1191.06,877.184 1192.84,881.812 1194.62,886.42 1196.4,891.006 1198.19,895.57 1199.97,900.112 1201.75,904.63 1203.53,909.125 
  1205.31,913.595 1207.09,918.041 1208.88,922.461 1210.66,926.856 1212.44,931.224 1214.22,935.566 1216,939.881 1217.79,944.168 1219.57,948.427 1221.35,952.658 
  1223.13,956.86 1224.91,961.032 1226.7,965.174 1228.48,969.287 1230.26,973.369 1232.04,977.42 1233.82,981.439 1235.61,985.427 1237.39,989.382 1239.17,993.305 
  1240.95,997.195 1242.73,1001.05 1244.52,1004.88 1246.3,1008.66 1248.08,1012.42 1249.86,1016.14 1251.64,1019.83 1253.42,1023.48 1255.21,1027.09 1256.99,1030.67 
  1258.77,1034.21 1260.55,1037.72 1262.33,1041.19 1264.12,1044.62 1265.9,1048.01 1267.68,1051.37 1269.46,1054.69 1271.24,1057.97 1273.03,1061.21 1274.81,1064.41 
  1276.59,1067.57 1278.37,1070.7 1280.15,1073.78 1281.94,1076.83 1283.72,1079.83 1285.5,1082.8 1287.28,1085.72 1289.06,1088.6 1290.84,1091.44 1292.63,1094.24 
  1294.41,1097 1296.19,1099.72 1297.97,1102.39 1299.75,1105.02 1301.54,1107.61 1303.32,1110.16 1305.1,1112.66 1306.88,1115.12 1308.66,1117.54 1310.45,1119.91 
  1312.23,1122.24 1314.01,1124.52 1315.79,1126.76 1317.57,1128.96 1319.36,1131.11 1321.14,1133.21 1322.92,1135.27 1324.7,1137.28 1326.48,1139.25 1328.27,1141.17 
  1330.05,1143.05 1331.83,1144.88 1333.61,1146.66 1335.39,1148.4 1337.17,1150.09 1338.96,1151.73 1340.74,1153.32 1342.52,1154.87 1344.3,1156.36 1346.08,1157.81 
  1347.87,1159.22 1349.65,1160.57 1351.43,1161.87 1353.21,1163.13 1354.99,1164.33 1356.78,1165.49 1358.56,1166.6 1360.34,1167.65 1362.12,1168.66 1363.9,1169.62 
  1365.69,1170.53 1367.47,1171.38 1369.25,1172.19 1371.03,1172.94 1372.81,1173.65 1374.6,1174.3 1376.38,1174.9 1378.16,1175.45 1379.94,1175.95 1381.72,1176.4 
  1383.5,1176.79 1385.29,1177.14 1387.07,1177.43 1388.85,1177.67 1390.63,1177.85 1392.41,1177.99 1394.2,1178.07 1395.98,1178.1 1397.76,1178.08 1399.54,1178 
  1401.32,1177.88 1403.11,1177.69 1404.89,1177.46 1406.67,1177.18 1408.45,1176.84 1410.23,1176.45 1412.02,1176 1413.8,1175.51 1415.58,1174.96 1417.36,1174.36 
  1419.14,1173.7 1420.92,1173 1422.71,1172.24 1424.49,1171.43 1426.27,1170.57 1428.05,1169.65 1429.83,1168.69 1431.62,1167.67 1433.4,1166.61 1435.18,1165.49 
  1436.96,1164.32 1438.74,1163.1 1440.53,1161.83 1442.31,1160.52 1444.09,1159.15 1445.87,1157.73 1447.65,1156.27 1449.44,1154.76 1451.22,1153.2 1453,1151.59 
  1454.78,1149.93 1456.56,1148.23 1458.35,1146.49 1460.13,1144.7 1461.91,1142.86 1463.69,1140.98 1465.47,1139.06 1467.25,1137.1 1469.04,1135.09 1470.82,1133.04 
  1472.6,1130.95 1474.38,1128.82 1476.16,1126.66 1477.95,1124.45 1479.73,1122.21 1481.51,1119.93 1483.29,1117.61 1485.07,1115.26 1486.86,1112.88 1488.64,1110.46 
  1490.42,1108.02 1492.2,1105.54 1493.98,1103.03 1495.77,1100.49 1497.55,1097.93 1499.33,1095.34 1501.11,1092.72 1502.89,1090.08 1504.68,1087.42 1506.46,1084.73 
  1508.24,1082.02 1510.02,1079.3 1511.8,1076.56 1513.58,1073.79 1515.37,1071.02 1517.15,1068.23 1518.93,1065.43 1520.71,1062.61 1522.49,1059.79 1524.28,1056.96 
  1526.06,1054.12 1527.84,1051.27 1529.62,1048.42 1531.4,1045.57 1533.19,1042.71 1534.97,1039.86 1536.75,1037.01 1538.53,1034.16 1540.31,1031.31 1542.1,1028.47 
  1543.88,1025.64 1545.66,1022.82 1547.44,1020.01 1549.22,1017.21 1551.01,1014.43 1552.79,1011.66 1554.57,1008.91 1556.35,1006.17 1558.13,1003.46 1559.91,1000.77 
  1561.7,998.101 1563.48,995.458 1565.26,992.841 1567.04,990.252 1568.82,987.693 1570.61,985.165 1572.39,982.669 1574.17,980.207 1575.95,977.781 1577.73,975.392 
  1579.52,973.041 1581.3,970.73 1583.08,968.461 1584.86,966.234 1586.64,964.051 1588.43,961.914 1590.21,959.824 1591.99,957.781 1593.77,955.789 1595.55,953.847 
  1597.33,951.956 1599.12,950.12 1600.9,948.337 1602.68,946.61 1604.46,944.94 1606.24,943.327 1608.03,941.773 1609.81,940.279 1611.59,938.846 1613.37,937.475 
  1615.15,936.166 1616.94,934.921 1618.72,933.74 1620.5,932.625 1622.28,931.576 1624.06,930.593 1625.85,929.678 1627.63,928.831 1629.41,928.053 1631.19,927.344 
  1632.97,926.705 1634.76,926.136 1636.54,925.638 1638.32,925.211 1640.1,924.855 1641.88,924.571 1643.66,924.359 1645.45,924.22 1647.23,924.152 1649.01,924.157 
  1650.79,924.235 1652.57,924.385 1654.36,924.608 1656.14,924.903 1657.92,925.271 1659.7,925.711 1661.48,926.223 1663.27,926.807 1665.05,927.462 1666.83,928.189 
  1668.61,928.986 1670.39,929.853 1672.18,930.791 1673.96,931.798 1675.74,932.874 1677.52,934.018 1679.3,935.23 1681.09,936.509 1682.87,937.854 1684.65,939.265 
  1686.43,940.74 1688.21,942.28 1689.99,943.882 1691.78,945.547 1693.56,947.273 1695.34,949.059 1697.12,950.905 1698.9,952.809 1700.69,954.77 1702.47,956.787 
  1704.25,958.86 1706.03,960.986 1707.81,963.165 1709.6,965.396 1711.38,967.677 1713.16,970.008 1714.94,972.386 1716.72,974.81 1718.51,977.28 1720.29,979.794 
  1722.07,982.351 1723.85,984.949 1725.63,987.587 1727.41,990.264 1729.2,992.977 1730.98,995.727 1732.76,998.511 1734.54,1001.33 1736.32,1004.18 1738.11,1007.06 
  1739.89,1009.96 1741.67,1012.9 1743.45,1015.86 1745.23,1018.84 1747.02,1021.85 1748.8,1024.88 1750.58,1027.93 1752.36,1031 1754.14,1034.08 1755.93,1037.18 
  1757.71,1040.3 1759.49,1043.43 1761.27,1046.57 1763.05,1049.72 1764.84,1052.88 1766.62,1056.04 1768.4,1059.22 1770.18,1062.39 1771.96,1065.57 1773.74,1068.76 
  1775.53,1071.94 1777.31,1075.13 1779.09,1078.31 1780.87,1081.49 1782.65,1084.66 1784.44,1087.83 1786.22,1090.99 1788,1094.15 1789.78,1097.3 1791.56,1100.43 
  1793.35,1103.56 1795.13,1106.67 1796.91,1109.77 1798.69,1112.86 1800.47,1115.93 1802.26,1118.99 1804.04,1122.03 1805.82,1125.05 1807.6,1128.05 1809.38,1131.03 
  1811.17,1133.99 1812.95,1136.93 1814.73,1139.85 1816.51,1142.75 1818.29,1145.62 1820.07,1148.47 1821.86,1151.29 1823.64,1154.09 1825.42,1156.86 1827.2,1159.6 
  1828.98,1162.32 1830.77,1165.01 1832.55,1167.67 1834.33,1170.3 1836.11,1172.91 1837.89,1175.48 1839.68,1178.02 1841.46,1180.53 1843.24,1183.02 1845.02,1185.47 
  1846.8,1187.89 1848.59,1190.27 1850.37,1192.63 1852.15,1194.95 1853.93,1197.24 1855.71,1199.5 1857.49,1201.73 1859.28,1203.92 1861.06,1206.08 1862.84,1208.21 
  1864.62,1210.3 1866.4,1212.36 1868.19,1214.39 1869.97,1216.38 1871.75,1218.35 1873.53,1220.27 1875.31,1222.17 1877.1,1224.03 1878.88,1225.86 1880.66,1227.66 
  1882.44,1229.42 1884.22,1231.15 1886.01,1232.85 1887.79,1234.52 1889.57,1236.16 1891.35,1237.76 1893.13,1239.33 1894.92,1240.87 1896.7,1242.38 1898.48,1243.86 
  1900.26,1245.31 1902.04,1246.73 1903.82,1248.12 1905.61,1249.47 1907.39,1250.8 1909.17,1252.1 1910.95,1253.37 1912.73,1254.62 1914.52,1255.83 1916.3,1257.02 
  1918.08,1258.18 1919.86,1259.31 1921.64,1260.42 1923.43,1261.5 1925.21,1262.55 1926.99,1263.58 1928.77,1264.58 1930.55,1265.56 1932.34,1266.51 1934.12,1267.44 
  1935.9,1268.35 1937.68,1269.23 1939.46,1270.09 1941.25,1270.93 1943.03,1271.74 1944.81,1272.54 1946.59,1273.31 1948.37,1274.06 1950.15,1274.79 1951.94,1275.5 
  1953.72,1276.19 1955.5,1276.87 1957.28,1277.52 1959.06,1278.15 1960.85,1278.77 1962.63,1279.37 1964.41,1279.95 1966.19,1280.51 1967.97,1281.06 1969.76,1281.59 
  1971.54,1282.1 1973.32,1282.6 1975.1,1283.09 1976.88,1283.56 1978.67,1284.01 1980.45,1284.45 1982.23,1284.88 1984.01,1285.29 1985.79,1285.69 1987.58,1286.08 
  1989.36,1286.45 1991.14,1286.82 1992.92,1287.17 1994.7,1287.51 1996.48,1287.84 1998.27,1288.15 2000.05,1288.46 2001.83,1288.75 2003.61,1289.04 2005.39,1289.32 
  
  "/>
<path clip-path="url(#clip670)" d="
M1450.27 608.485 L2112.2 608.485 L2112.2 90.0846 L1450.27 90.0846  Z
  " fill="#ffffff" fill-rule="evenodd" fill-opacity="1"/>
<polyline clip-path="url(#clip670)" style="stroke:#000000; stroke-linecap:round; stroke-linejoin:round; stroke-width:4; stroke-opacity:1; fill:none" points="
  1450.27,608.485 2112.2,608.485 2112.2,90.0846 1450.27,90.0846 1450.27,608.485 
  "/>
<polyline clip-path="url(#clip670)" style="stroke:#009af9; stroke-linecap:round; stroke-linejoin:round; stroke-width:10; stroke-opacity:1; fill:none" points="
  1474,219.685 1616.41,219.685 
  "/>
<path clip-path="url(#clip670)" d="M1694.43 223.764 L1694.43 262.885 L1683.78 262.885 L1683.78 224.112 Q1683.78 214.91 1680.19 210.339 Q1676.61 205.767 1669.43 205.767 Q1660.81 205.767 1655.83 211.265 Q1650.85 216.762 1650.85 226.253 L1650.85 262.885 L1640.15 262.885 L1640.15 198.07 L1650.85 198.07 L1650.85 208.14 Q1654.67 202.295 1659.82 199.401 Q1665.03 196.508 1671.8 196.508 Q1682.97 196.508 1688.7 203.452 Q1694.43 210.339 1694.43 223.764 Z" fill="#000000" fill-rule="evenodd" fill-opacity="1" /><path clip-path="url(#clip670)" d="M1740.78 205.535 Q1732.22 205.535 1727.24 212.248 Q1722.27 218.903 1722.27 230.535 Q1722.27 242.167 1727.18 248.88 Q1732.16 255.535 1740.78 255.535 Q1749.29 255.535 1754.27 248.822 Q1759.24 242.109 1759.24 230.535 Q1759.24 219.019 1754.27 212.306 Q1749.29 205.535 1740.78 205.535 M1740.78 196.508 Q1754.67 196.508 1762.6 205.535 Q1770.53 214.563 1770.53 230.535 Q1770.53 246.45 1762.6 255.535 Q1754.67 264.563 1740.78 264.563 Q1726.84 264.563 1718.91 255.535 Q1711.04 246.45 1711.04 230.535 Q1711.04 214.563 1718.91 205.535 Q1726.84 196.508 1740.78 196.508 Z" fill="#000000" fill-rule="evenodd" fill-opacity="1" /><path clip-path="url(#clip670)" d="M1842.06 223.764 L1842.06 262.885 L1831.41 262.885 L1831.41 224.112 Q1831.41 214.91 1827.82 210.339 Q1824.23 205.767 1817.06 205.767 Q1808.43 205.767 1803.46 211.265 Q1798.48 216.762 1798.48 226.253 L1798.48 262.885 L1787.77 262.885 L1787.77 198.07 L1798.48 198.07 L1798.48 208.14 Q1802.3 202.295 1807.45 199.401 Q1812.66 196.508 1819.43 196.508 Q1830.6 196.508 1836.33 203.452 Q1842.06 210.339 1842.06 223.764 Z" fill="#000000" fill-rule="evenodd" fill-opacity="1" /><path clip-path="url(#clip670)" d="M1857.91 225.674 L1889.1 225.674 L1889.1 235.165 L1857.91 235.165 L1857.91 225.674 Z" fill="#000000" fill-rule="evenodd" fill-opacity="1" /><path clip-path="url(#clip670)" d="M1933.38 205.535 Q1924.81 205.535 1919.83 212.248 Q1914.86 218.903 1914.86 230.535 Q1914.86 242.167 1919.78 248.88 Q1924.75 255.535 1933.38 255.535 Q1941.88 255.535 1946.86 248.822 Q1951.84 242.109 1951.84 230.535 Q1951.84 219.019 1946.86 212.306 Q1941.88 205.535 1933.38 205.535 M1933.38 196.508 Q1947.26 196.508 1955.19 205.535 Q1963.12 214.563 1963.12 230.535 Q1963.12 246.45 1955.19 255.535 Q1947.26 264.563 1933.38 264.563 Q1919.43 264.563 1911.5 255.535 Q1903.63 246.45 1903.63 230.535 Q1903.63 214.563 1911.5 205.535 Q1919.43 196.508 1933.38 196.508 Z" fill="#000000" fill-rule="evenodd" fill-opacity="1" /><path clip-path="url(#clip670)" d="M1991.07 253.162 L1991.07 287.537 L1980.37 287.537 L1980.37 198.07 L1991.07 198.07 L1991.07 207.908 Q1994.43 202.121 1999.52 199.343 Q2004.67 196.508 2011.79 196.508 Q2023.59 196.508 2030.94 205.883 Q2038.35 215.258 2038.35 230.535 Q2038.35 245.813 2030.94 255.188 Q2023.59 264.563 2011.79 264.563 Q2004.67 264.563 1999.52 261.785 Q1994.43 258.949 1991.07 253.162 M2027.3 230.535 Q2027.3 218.788 2022.44 212.133 Q2017.63 205.42 2009.19 205.42 Q2000.74 205.42 1995.88 212.133 Q1991.07 218.788 1991.07 230.535 Q1991.07 242.283 1995.88 248.996 Q2000.74 255.651 2009.19 255.651 Q2017.63 255.651 2022.44 248.996 Q2027.3 242.283 2027.3 230.535 Z" fill="#000000" fill-rule="evenodd" fill-opacity="1" /><path clip-path="url(#clip670)" d="M2066.53 179.667 L2066.53 198.07 L2088.47 198.07 L2088.47 206.346 L2066.53 206.346 L2066.53 241.531 Q2066.53 249.459 2068.68 251.716 Q2070.87 253.973 2077.53 253.973 L2088.47 253.973 L2088.47 262.885 L2077.53 262.885 Q2065.2 262.885 2060.52 258.313 Q2055.83 253.683 2055.83 241.531 L2055.83 206.346 L2048.02 206.346 L2048.02 198.07 L2055.83 198.07 L2055.83 179.667 L2066.53 179.667 Z" fill="#000000" fill-rule="evenodd" fill-opacity="1" /><polyline clip-path="url(#clip670)" style="stroke:#e26f46; stroke-linecap:round; stroke-linejoin:round; stroke-width:10; stroke-opacity:1; fill:none" points="
  1474,349.285 1616.41,349.285 
  "/>
<path clip-path="url(#clip670)" d="M1669.89 335.135 Q1661.33 335.135 1656.35 341.848 Q1651.37 348.503 1651.37 360.135 Q1651.37 371.767 1656.29 378.48 Q1661.27 385.135 1669.89 385.135 Q1678.4 385.135 1683.38 378.422 Q1688.35 371.709 1688.35 360.135 Q1688.35 348.619 1683.38 341.906 Q1678.4 335.135 1669.89 335.135 M1669.89 326.108 Q1683.78 326.108 1691.71 335.135 Q1699.64 344.163 1699.64 360.135 Q1699.64 376.05 1691.71 385.135 Q1683.78 394.163 1669.89 394.163 Q1655.95 394.163 1648.02 385.135 Q1640.15 376.05 1640.15 360.135 Q1640.15 344.163 1648.02 335.135 Q1655.95 326.108 1669.89 326.108 Z" fill="#000000" fill-rule="evenodd" fill-opacity="1" /><path clip-path="url(#clip670)" d="M1727.59 382.762 L1727.59 417.137 L1716.88 417.137 L1716.88 327.67 L1727.59 327.67 L1727.59 337.508 Q1730.95 331.721 1736.04 328.943 Q1741.19 326.108 1748.31 326.108 Q1760.11 326.108 1767.46 335.483 Q1774.87 344.858 1774.87 360.135 Q1774.87 375.413 1767.46 384.788 Q1760.11 394.163 1748.31 394.163 Q1741.19 394.163 1736.04 391.385 Q1730.95 388.549 1727.59 382.762 M1763.82 360.135 Q1763.82 348.388 1758.96 341.733 Q1754.15 335.02 1745.7 335.02 Q1737.25 335.02 1732.39 341.733 Q1727.59 348.388 1727.59 360.135 Q1727.59 371.883 1732.39 378.596 Q1737.25 385.251 1745.7 385.251 Q1754.15 385.251 1758.96 378.596 Q1763.82 371.883 1763.82 360.135 Z" fill="#000000" fill-rule="evenodd" fill-opacity="1" /><path clip-path="url(#clip670)" d="M1803.05 309.267 L1803.05 327.67 L1824.98 327.67 L1824.98 335.946 L1803.05 335.946 L1803.05 371.131 Q1803.05 379.059 1805.19 381.316 Q1807.39 383.573 1814.05 383.573 L1824.98 383.573 L1824.98 392.485 L1814.05 392.485 Q1801.72 392.485 1797.03 387.913 Q1792.35 383.283 1792.35 371.131 L1792.35 335.946 L1784.53 335.946 L1784.53 327.67 L1792.35 327.67 L1792.35 309.267 L1803.05 309.267 Z" fill="#000000" fill-rule="evenodd" fill-opacity="1" /><polyline clip-path="url(#clip670)" style="stroke:#000000; stroke-linecap:round; stroke-linejoin:round; stroke-width:10; stroke-opacity:1; fill:none" stroke-dasharray="40, 25" points="
  1474,478.885 1616.41,478.885 
  "/>
<path clip-path="url(#clip670)" d="M1700.22 487.015 L1700.22 492.224 L1651.26 492.224 Q1651.95 503.219 1657.86 509.006 Q1663.82 514.735 1674.41 514.735 Q1680.54 514.735 1686.27 513.231 Q1692.06 511.726 1697.73 508.717 L1697.73 518.786 Q1692 521.217 1685.98 522.49 Q1679.96 523.763 1673.77 523.763 Q1658.26 523.763 1649.18 514.735 Q1640.15 505.707 1640.15 490.314 Q1640.15 474.4 1648.71 465.083 Q1657.34 455.708 1671.92 455.708 Q1685 455.708 1692.58 464.157 Q1700.22 472.548 1700.22 487.015 M1689.57 483.89 Q1689.45 475.152 1684.65 469.944 Q1679.9 464.735 1672.03 464.735 Q1663.12 464.735 1657.74 469.77 Q1652.42 474.805 1651.61 483.948 L1689.57 483.89 Z" fill="#000000" fill-rule="evenodd" fill-opacity="1" /><path clip-path="url(#clip670)" d="M1769.49 457.27 L1746.05 488.809 L1770.7 522.085 L1758.14 522.085 L1739.28 496.622 L1720.41 522.085 L1707.86 522.085 L1733.03 488.173 L1710 457.27 L1722.55 457.27 L1739.74 480.36 L1756.93 457.27 L1769.49 457.27 Z" fill="#000000" fill-rule="evenodd" fill-opacity="1" /><path clip-path="url(#clip670)" d="M1815.2 489.504 Q1802.3 489.504 1797.32 492.455 Q1792.35 495.407 1792.35 502.525 Q1792.35 508.196 1796.05 511.552 Q1799.81 514.851 1806.23 514.851 Q1815.09 514.851 1820.41 508.601 Q1825.8 502.293 1825.8 491.876 L1825.8 489.504 L1815.2 489.504 M1836.44 485.106 L1836.44 522.085 L1825.8 522.085 L1825.8 512.247 Q1822.15 518.149 1816.71 520.985 Q1811.27 523.763 1803.4 523.763 Q1793.45 523.763 1787.54 518.207 Q1781.7 512.594 1781.7 503.219 Q1781.7 492.282 1788.99 486.726 Q1796.34 481.17 1810.86 481.17 L1825.8 481.17 L1825.8 480.129 Q1825.8 472.779 1820.93 468.786 Q1816.13 464.735 1807.39 464.735 Q1801.84 464.735 1796.57 466.066 Q1791.3 467.397 1786.44 470.059 L1786.44 460.222 Q1792.29 457.965 1797.79 456.865 Q1803.28 455.708 1808.49 455.708 Q1822.55 455.708 1829.5 462.999 Q1836.44 470.291 1836.44 485.106 Z" fill="#000000" fill-rule="evenodd" fill-opacity="1" /><path clip-path="url(#clip670)" d="M1905.02 459.759 L1905.02 469.712 Q1900.51 467.224 1895.93 466.009 Q1891.42 464.735 1886.79 464.735 Q1876.43 464.735 1870.7 471.333 Q1864.97 477.872 1864.97 489.735 Q1864.97 501.599 1870.7 508.196 Q1876.43 514.735 1886.79 514.735 Q1891.42 514.735 1895.93 513.52 Q1900.51 512.247 1905.02 509.758 L1905.02 519.596 Q1900.56 521.68 1895.76 522.721 Q1891.01 523.763 1885.63 523.763 Q1870.99 523.763 1862.37 514.562 Q1853.75 505.36 1853.75 489.735 Q1853.75 473.879 1862.43 464.793 Q1871.17 455.708 1886.33 455.708 Q1891.25 455.708 1895.93 456.749 Q1900.62 457.733 1905.02 459.759 Z" fill="#000000" fill-rule="evenodd" fill-opacity="1" /><path clip-path="url(#clip670)" d="M1934.07 438.867 L1934.07 457.27 L1956 457.27 L1956 465.546 L1934.07 465.546 L1934.07 500.731 Q1934.07 508.659 1936.21 510.916 Q1938.41 513.173 1945.07 513.173 L1956 513.173 L1956 522.085 L1945.07 522.085 Q1932.74 522.085 1928.05 517.513 Q1923.36 512.883 1923.36 500.731 L1923.36 465.546 L1915.55 465.546 L1915.55 457.27 L1923.36 457.27 L1923.36 438.867 L1934.07 438.867 Z" fill="#000000" fill-rule="evenodd" fill-opacity="1" /></svg>
