<?xml version="1.0" encoding="utf-8"?>
<svg xmlns="http://www.w3.org/2000/svg" xmlns:xlink="http://www.w3.org/1999/xlink" width="600" height="400" viewBox="0 0 2400 1600">
<defs>
  <clipPath id="clip400">
    <rect x="0" y="0" width="2400" height="1600"/>
  </clipPath>
</defs>
<path clip-path="url(#clip400)" d="
M0 1600 L2400 1600 L2400 0 L0 0  Z
  " fill="#ffffff" fill-rule="evenodd" fill-opacity="1"/>
<defs>
  <clipPath id="clip401">
    <rect x="480" y="0" width="1681" height="1600"/>
  </clipPath>
</defs>
<defs>
  <clipPath id="clip402">
    <rect x="156" y="47" width="2197" height="1440"/>
  </clipPath>
</defs>
<path clip-path="url(#clip400)" d="
M340.34 1332.46 L2352.76 1332.46 L2352.76 47.2441 L340.34 47.2441  Z
  " fill="#ffffff" fill-rule="evenodd" fill-opacity="1"/>
<defs>
  <clipPath id="clip403">
    <rect x="340" y="47" width="2013" height="1286"/>
  </clipPath>
</defs>
<polyline clip-path="url(#clip403)" style="stroke:#000000; stroke-linecap:round; stroke-linejoin:round; stroke-width:2; stroke-opacity:0.1; fill:none" points="
  2185.05,1332.46 2185.05,47.2441 
  "/>
<polyline clip-path="url(#clip403)" style="stroke:#000000; stroke-linecap:round; stroke-linejoin:round; stroke-width:2; stroke-opacity:0.1; fill:none" points="
  1346.55,1332.46 1346.55,47.2441 
  "/>
<polyline clip-path="url(#clip403)" style="stroke:#000000; stroke-linecap:round; stroke-linejoin:round; stroke-width:2; stroke-opacity:0.1; fill:none" points="
  508.041,1332.46 508.041,47.2441 
  "/>
<polyline clip-path="url(#clip400)" style="stroke:#000000; stroke-linecap:round; stroke-linejoin:round; stroke-width:4; stroke-opacity:1; fill:none" points="
  340.34,1332.46 2352.76,1332.46 
  "/>
<polyline clip-path="url(#clip400)" style="stroke:#000000; stroke-linecap:round; stroke-linejoin:round; stroke-width:4; stroke-opacity:1; fill:none" points="
  2185.05,1332.46 2185.05,1313.56 
  "/>
<polyline clip-path="url(#clip400)" style="stroke:#000000; stroke-linecap:round; stroke-linejoin:round; stroke-width:4; stroke-opacity:1; fill:none" points="
  1346.55,1332.46 1346.55,1313.56 
  "/>
<polyline clip-path="url(#clip400)" style="stroke:#000000; stroke-linecap:round; stroke-linejoin:round; stroke-width:4; stroke-opacity:1; fill:none" points="
  508.041,1332.46 508.041,1313.56 
  "/>
<path clip-path="url(#clip400)" d="M2166.83 1367.86 L2201.24 1367.86 L2201.24 1375.24 L2174.85 1375.24 L2174.85 1391.12 Q2176.76 1390.47 2178.67 1390.17 Q2180.58 1389.82 2182.49 1389.82 Q2193.34 1389.82 2199.68 1395.77 Q2206.02 1401.71 2206.02 1411.87 Q2206.02 1422.33 2199.51 1428.15 Q2193 1433.92 2181.15 1433.92 Q2177.07 1433.92 2172.82 1433.22 Q2168.61 1432.53 2164.09 1431.14 L2164.09 1422.33 Q2168 1424.46 2172.16 1425.5 Q2176.33 1426.54 2180.97 1426.54 Q2188.48 1426.54 2192.87 1422.59 Q2197.25 1418.64 2197.25 1411.87 Q2197.25 1405.1 2192.87 1401.15 Q2188.48 1397.2 2180.97 1397.2 Q2177.46 1397.2 2173.94 1397.98 Q2170.47 1398.76 2166.83 1400.41 L2166.83 1367.86 Z" fill="#000000" fill-rule="evenodd" fill-opacity="1" /><path clip-path="url(#clip400)" d="M1346.55 1373.63 Q1339.78 1373.63 1336.35 1380.32 Q1332.96 1386.96 1332.96 1400.32 Q1332.96 1413.65 1336.35 1420.33 Q1339.78 1426.97 1346.55 1426.97 Q1353.36 1426.97 1356.75 1420.33 Q1360.18 1413.65 1360.18 1400.32 Q1360.18 1386.96 1356.75 1380.32 Q1353.36 1373.63 1346.55 1373.63 M1346.55 1366.69 Q1357.44 1366.69 1363.17 1375.33 Q1368.94 1383.92 1368.94 1400.32 Q1368.94 1416.69 1363.17 1425.32 Q1357.44 1433.92 1346.55 1433.92 Q1335.65 1433.92 1329.88 1425.32 Q1324.15 1416.69 1324.15 1400.32 Q1324.15 1383.92 1329.88 1375.33 Q1335.65 1366.69 1346.55 1366.69 Z" fill="#000000" fill-rule="evenodd" fill-opacity="1" /><path clip-path="url(#clip400)" d="M451.119 1401.11 L506.761 1401.11 L506.761 1408.48 L451.119 1408.48 L451.119 1401.11 Z" fill="#000000" fill-rule="evenodd" fill-opacity="1" /><path clip-path="url(#clip400)" d="M525.771 1367.86 L560.19 1367.86 L560.19 1375.24 L533.801 1375.24 L533.801 1391.12 Q535.711 1390.47 537.62 1390.17 Q539.53 1389.82 541.44 1389.82 Q552.29 1389.82 558.627 1395.77 Q564.964 1401.71 564.964 1411.87 Q564.964 1422.33 558.454 1428.15 Q551.943 1433.92 540.094 1433.92 Q536.014 1433.92 531.761 1433.22 Q527.551 1432.53 523.037 1431.14 L523.037 1422.33 Q526.943 1424.46 531.11 1425.5 Q535.277 1426.54 539.921 1426.54 Q547.429 1426.54 551.813 1422.59 Q556.197 1418.64 556.197 1411.87 Q556.197 1405.1 551.813 1401.15 Q547.429 1397.2 539.921 1397.2 Q536.405 1397.2 532.889 1397.98 Q529.417 1398.76 525.771 1400.41 L525.771 1367.86 Z" fill="#000000" fill-rule="evenodd" fill-opacity="1" /><path clip-path="url(#clip400)" d="M1388.97 1506.65 Q1388.97 1513.46 1385.53 1526.64 Q1384.14 1532.35 1382.24 1537.54 Q1380.41 1542.67 1377.7 1547.64 Q1374.99 1552.62 1371.84 1556.21 Q1368.7 1559.72 1364.6 1561.92 Q1360.5 1564.11 1355.96 1564.11 Q1348.79 1564.11 1344.54 1559.87 Q1340.37 1555.55 1339.05 1548.16 Q1329.24 1564.11 1316.14 1564.11 Q1308.02 1564.11 1304.21 1558.33 Q1300.41 1552.47 1300.41 1542.67 Q1300.41 1534.39 1302.6 1525.83 Q1306.77 1509.58 1314.9 1498.24 Q1316 1496.92 1317.61 1496.92 Q1318.56 1496.92 1319 1497.21 Q1320.31 1498.02 1320.31 1499.33 Q1320.31 1500.29 1319.58 1501.24 Q1314.46 1508.34 1311.09 1514.41 Q1307.72 1520.49 1306.19 1526.64 Q1305.02 1531.91 1305.02 1536.37 Q1305.02 1543.91 1308.24 1548.59 Q1311.53 1553.28 1318.05 1553.28 Q1324.05 1553.28 1329.32 1549.55 Q1334.59 1545.74 1338.47 1539.37 Q1338.69 1532.42 1340.37 1525.83 Q1341.91 1518.8 1345.49 1518.8 Q1348.35 1518.8 1348.35 1522.68 Q1348.35 1524 1347.76 1526.64 Q1346.15 1533.59 1343.22 1539.81 Q1344.25 1545.89 1348.06 1549.62 Q1351.86 1553.28 1357.94 1553.28 Q1363.57 1553.28 1368.55 1549.18 Q1373.6 1545.08 1376.82 1539.08 Q1380.11 1533 1381.94 1525.83 Q1382.53 1523.42 1382.53 1520.34 Q1382.53 1512.14 1376.82 1507.09 Q1375.21 1505.48 1375.21 1503.36 Q1375.21 1500.87 1377.26 1498.6 Q1379.68 1496.19 1382.53 1496.19 Q1384.65 1496.19 1385.97 1497.5 Q1388.97 1500.14 1388.97 1506.65 Z" fill="#000000" fill-rule="evenodd" fill-opacity="1" /><polyline clip-path="url(#clip403)" style="stroke:#000000; stroke-linecap:round; stroke-linejoin:round; stroke-width:2; stroke-opacity:0.1; fill:none" points="
  340.34,618.604 2352.76,618.604 
  "/>
<polyline clip-path="url(#clip403)" style="stroke:#000000; stroke-linecap:round; stroke-linejoin:round; stroke-width:2; stroke-opacity:0.1; fill:none" points="
  340.34,1296.09 2352.76,1296.09 
  "/>
<polyline clip-path="url(#clip400)" style="stroke:#000000; stroke-linecap:round; stroke-linejoin:round; stroke-width:4; stroke-opacity:1; fill:none" points="
  340.34,1332.46 340.34,47.2441 
  "/>
<polyline clip-path="url(#clip400)" style="stroke:#000000; stroke-linecap:round; stroke-linejoin:round; stroke-width:4; stroke-opacity:1; fill:none" points="
  340.34,618.604 359.238,618.604 
  "/>
<polyline clip-path="url(#clip400)" style="stroke:#000000; stroke-linecap:round; stroke-linejoin:round; stroke-width:4; stroke-opacity:1; fill:none" points="
  340.34,1296.09 359.238,1296.09 
  "/>
<path clip-path="url(#clip400)" d="M198.351 591.977 Q191.58 591.977 188.152 598.661 Q184.766 605.301 184.766 618.669 Q184.766 631.994 188.152 638.678 Q191.58 645.318 198.351 645.318 Q205.165 645.318 208.551 638.678 Q211.98 631.994 211.98 618.669 Q211.98 605.301 208.551 598.661 Q205.165 591.977 198.351 591.977 M198.351 585.032 Q209.245 585.032 214.974 593.669 Q220.747 602.263 220.747 618.669 Q220.747 635.032 214.974 643.669 Q209.245 652.263 198.351 652.263 Q187.457 652.263 181.685 643.669 Q175.955 635.032 175.955 618.669 Q175.955 602.263 181.685 593.669 Q187.457 585.032 198.351 585.032 Z" fill="#000000" fill-rule="evenodd" fill-opacity="1" /><path clip-path="url(#clip400)" d="M236.155 639.98 L245.313 639.98 L245.313 651.004 L236.155 651.004 L236.155 639.98 Z" fill="#000000" fill-rule="evenodd" fill-opacity="1" /><path clip-path="url(#clip400)" d="M290.972 616.065 Q297.266 617.411 300.781 621.664 Q304.34 625.917 304.34 632.167 Q304.34 641.759 297.743 647.011 Q291.146 652.263 278.993 652.263 Q274.913 652.263 270.573 651.438 Q266.276 650.657 261.675 649.051 L261.675 640.587 Q265.321 642.714 269.662 643.799 Q274.002 644.884 278.733 644.884 Q286.979 644.884 291.276 641.629 Q295.616 638.374 295.616 632.167 Q295.616 626.438 291.58 623.226 Q287.587 619.971 280.425 619.971 L272.873 619.971 L272.873 612.766 L280.773 612.766 Q287.24 612.766 290.668 610.206 Q294.097 607.602 294.097 602.74 Q294.097 597.749 290.538 595.102 Q287.023 592.411 280.425 592.411 Q276.823 592.411 272.7 593.192 Q268.576 593.973 263.629 595.622 L263.629 587.81 Q268.62 586.421 272.96 585.727 Q277.344 585.032 281.207 585.032 Q291.189 585.032 297.005 589.589 Q302.821 594.103 302.821 601.829 Q302.821 607.211 299.739 610.944 Q296.658 614.633 290.972 616.065 Z" fill="#000000" fill-rule="evenodd" fill-opacity="1" /><path clip-path="url(#clip400)" d="M197.136 1269.47 Q190.365 1269.47 186.936 1276.15 Q183.551 1282.79 183.551 1296.16 Q183.551 1309.48 186.936 1316.17 Q190.365 1322.81 197.136 1322.81 Q203.95 1322.81 207.335 1316.17 Q210.764 1309.48 210.764 1296.16 Q210.764 1282.79 207.335 1276.15 Q203.95 1269.47 197.136 1269.47 M197.136 1262.52 Q208.03 1262.52 213.759 1271.16 Q219.532 1279.75 219.532 1296.16 Q219.532 1312.52 213.759 1321.16 Q208.03 1329.75 197.136 1329.75 Q186.242 1329.75 180.469 1321.16 Q174.74 1312.52 174.74 1296.16 Q174.74 1279.75 180.469 1271.16 Q186.242 1262.52 197.136 1262.52 Z" fill="#000000" fill-rule="evenodd" fill-opacity="1" /><path clip-path="url(#clip400)" d="M234.939 1317.47 L244.097 1317.47 L244.097 1328.49 L234.939 1328.49 L234.939 1317.47 Z" fill="#000000" fill-rule="evenodd" fill-opacity="1" /><path clip-path="url(#clip400)" d="M281.944 1269.47 Q275.174 1269.47 271.745 1276.15 Q268.359 1282.79 268.359 1296.16 Q268.359 1309.48 271.745 1316.17 Q275.174 1322.81 281.944 1322.81 Q288.759 1322.81 292.144 1316.17 Q295.573 1309.48 295.573 1296.16 Q295.573 1282.79 292.144 1276.15 Q288.759 1269.47 281.944 1269.47 M281.944 1262.52 Q292.838 1262.52 298.568 1271.16 Q304.34 1279.75 304.34 1296.16 Q304.34 1312.52 298.568 1321.16 Q292.838 1329.75 281.944 1329.75 Q271.05 1329.75 265.278 1321.16 Q259.549 1312.52 259.549 1296.16 Q259.549 1279.75 265.278 1271.16 Q271.05 1262.52 281.944 1262.52 Z" fill="#000000" fill-rule="evenodd" fill-opacity="1" /><path clip-path="url(#clip400)" d="M48.927 657.422 Q59.7599 657.422 69.934 662.985 Q80.1081 668.474 86.2565 677.111 Q92.4049 685.675 92.4049 694.312 Q92.4049 704.047 82.304 709.098 Q118.975 718.247 119.926 718.759 Q123.074 720.882 123.074 723.956 Q123.074 725.859 121.903 727.03 Q120.805 728.202 119.048 728.202 Q118.462 728.128 116.632 727.689 L57.7104 713.05 Q44.0229 709.683 34.288 699.509 Q24.4798 689.262 24.4798 678.282 Q24.4798 669.572 30.9942 663.497 Q37.5085 657.422 48.927 657.422 M42.4858 668.182 Q35.1663 668.182 31.5065 671.109 Q27.7736 674.037 27.7736 678.575 Q27.7736 682.747 31.1406 687.798 Q34.5075 692.775 41.9734 697.167 Q46.292 699.509 51.6352 701.193 Q56.9784 702.876 70.1536 706.17 Q75.4236 707.341 75.7164 707.341 Q76.302 707.341 77.6195 707.048 Q78.937 706.682 80.9865 705.804 Q82.9627 704.852 84.7194 703.535 Q86.4761 702.217 87.7936 699.802 Q89.0379 697.386 89.0379 694.459 Q89.0379 689.921 85.3782 685.09 Q81.6452 680.186 74.8381 676.599 Q69.3484 673.598 59.0279 670.89 Q48.6342 668.182 42.4858 668.182 Z" fill="#000000" fill-rule="evenodd" fill-opacity="1" /><polyline clip-path="url(#clip403)" style="stroke:#009af9; stroke-linecap:round; stroke-linejoin:round; stroke-width:12; stroke-opacity:1; fill:none" points="
  -330.465,1296.09 -327.108,1296.09 -323.75,1296.09 -320.393,1296.09 -317.036,1296.09 -313.678,1296.09 -310.321,1296.09 -306.963,1296.09 -303.606,1296.09 -300.249,1296.09 
  -296.891,1296.09 -293.534,1296.09 -290.176,1296.09 -286.819,1296.08 -283.462,1296.08 -280.104,1296.08 -276.747,1296.08 -273.39,1296.08 -270.032,1296.08 -266.675,1296.08 
  -263.317,1296.08 -259.96,1296.08 -256.603,1296.08 -253.245,1296.08 -249.888,1296.08 -246.531,1296.08 -243.173,1296.08 -239.816,1296.08 -236.458,1296.08 -233.101,1296.08 
  -229.744,1296.08 -226.386,1296.08 -223.029,1296.08 -219.671,1296.08 -216.314,1296.08 -212.957,1296.08 -209.599,1296.08 -206.242,1296.08 -202.885,1296.08 -199.527,1296.08 
  -196.17,1296.08 -192.812,1296.08 -189.455,1296.08 -186.098,1296.08 -182.74,1296.08 -179.383,1296.08 -176.025,1296.08 -172.668,1296.08 -169.311,1296.08 -165.953,1296.08 
  -162.596,1296.08 -159.239,1296.08 -155.881,1296.08 -152.524,1296.08 -149.166,1296.08 -145.809,1296.08 -142.452,1296.08 -139.094,1296.08 -135.737,1296.08 -132.379,1296.08 
  -129.022,1296.08 -125.665,1296.08 -122.307,1296.08 -118.95,1296.08 -115.593,1296.08 -112.235,1296.08 -108.878,1296.08 -105.52,1296.08 -102.163,1296.08 -98.8056,1296.08 
  -95.4482,1296.08 -92.0909,1296.08 -88.7335,1296.08 -85.3761,1296.08 -82.0187,1296.08 -78.6613,1296.08 -75.3039,1296.08 -71.9466,1296.08 -68.5892,1296.08 -65.2318,1296.08 
  -61.8744,1296.08 -58.517,1296.08 -55.1596,1296.08 -51.8023,1296.08 -48.4449,1296.08 -45.0875,1296.08 -41.7301,1296.08 -38.3727,1296.08 -35.0153,1296.08 -31.6579,1296.08 
  -28.3006,1296.08 -24.9432,1296.08 -21.5858,1296.08 -18.2284,1296.08 -14.871,1296.08 -11.5136,1296.08 -8.15626,1296.08 -4.79888,1296.08 -1.4415,1296.08 1.91589,1296.08 
  5.27327,1296.08 8.63065,1296.08 11.988,1296.08 15.3454,1296.08 18.7028,1296.08 22.0602,1296.08 25.4176,1296.08 28.775,1296.08 32.1323,1296.08 35.4897,1296.08 
  38.8471,1296.08 42.2045,1296.08 45.5619,1296.08 48.9193,1296.08 52.2766,1296.08 55.634,1296.08 58.9914,1296.08 62.3488,1296.08 65.7062,1296.08 69.0636,1296.08 
  72.4209,1296.08 75.7783,1296.08 79.1357,1296.08 82.4931,1296.08 85.8505,1296.08 89.2079,1296.08 92.5652,1296.08 95.9226,1296.08 99.28,1296.08 102.637,1296.08 
  105.995,1296.08 109.352,1296.08 112.71,1296.08 116.067,1296.08 119.424,1296.08 122.782,1296.08 126.139,1296.08 129.496,1296.08 132.854,1296.08 136.211,1296.08 
  139.569,1296.08 142.926,1296.08 146.283,1296.08 149.641,1296.08 152.998,1296.08 156.356,1296.08 159.713,1296.08 163.07,1296.08 166.428,1296.07 169.785,1296.07 
  173.142,1296.07 176.5,1296.07 179.857,1296.07 183.215,1296.07 186.572,1296.07 189.929,1296.07 193.287,1296.07 196.644,1296.07 200.002,1296.07 203.359,1296.07 
  206.716,1296.07 210.074,1296.07 213.431,1296.07 216.788,1296.07 220.146,1296.07 223.503,1296.07 226.861,1296.07 230.218,1296.07 233.575,1296.07 236.933,1296.07 
  240.29,1296.07 243.648,1296.07 247.005,1296.07 250.362,1296.07 253.72,1296.07 257.077,1296.07 260.434,1296.07 263.792,1296.07 267.149,1296.07 270.507,1296.07 
  273.864,1296.07 277.221,1296.07 280.579,1296.07 283.936,1296.07 287.293,1296.07 290.651,1296.07 294.008,1296.07 297.366,1296.07 300.723,1296.07 304.08,1296.07 
  307.438,1296.07 310.795,1296.07 314.153,1296.07 317.51,1296.07 320.867,1296.07 324.225,1296.07 327.582,1296.07 330.939,1296.07 334.297,1296.07 337.654,1296.07 
  341.012,1296.07 344.369,1296.06 347.726,1296.06 351.084,1296.06 354.441,1296.06 357.799,1296.06 361.156,1296.06 364.513,1296.06 367.871,1296.06 371.228,1296.06 
  374.585,1296.06 377.943,1296.06 381.3,1296.06 384.658,1296.06 388.015,1296.06 391.372,1296.06 394.73,1296.06 398.087,1296.06 401.445,1296.06 404.802,1296.06 
  408.159,1296.06 411.517,1296.06 414.874,1296.06 418.231,1296.05 421.589,1296.05 424.946,1296.05 428.304,1296.05 431.661,1296.05 435.018,1296.05 438.376,1296.05 
  441.733,1296.04 445.091,1296.04 448.448,1296.04 451.805,1296.03 455.163,1296.03 458.52,1296.02 461.877,1296.02 465.235,1296 468.592,1295.99 471.95,1295.97 
  475.307,1295.94 478.664,1295.89 482.022,1295.82 485.379,1295.71 488.737,1295.53 492.094,1295.25 495.451,1294.91 498.809,1294.71 502.166,1294.81 505.523,1295.06 
  508.881,1295.29 512.238,1295.46 515.596,1295.58 518.953,1295.66 522.31,1295.72 525.668,1295.76 529.025,1295.79 532.383,1295.81 535.74,1295.82 539.097,1295.84 
  542.455,1295.84 545.812,1295.85 549.169,1295.85 552.527,1295.85 555.884,1295.85 559.242,1295.85 562.599,1295.85 565.956,1295.84 569.314,1295.84 572.671,1295.83 
  576.028,1295.82 579.386,1295.81 582.743,1295.79 586.101,1295.77 589.458,1295.75 592.815,1295.73 596.173,1295.7 599.53,1295.67 602.888,1295.63 606.245,1295.58 
  609.602,1295.53 612.96,1295.46 616.317,1295.38 619.674,1295.27 623.032,1295.15 626.389,1294.98 629.747,1294.78 633.104,1294.51 636.461,1294.15 639.819,1293.66 
  643.176,1292.98 646.534,1292.01 649.891,1290.58 653.248,1288.44 656.606,1285.14 659.963,1280.12 663.32,1273.12 666.678,1265.75 670.035,1262.46 673.393,1265.48 
  676.75,1271.45 680.107,1276.99 683.465,1281.15 686.822,1284.08 690.18,1286.14 693.537,1287.61 696.894,1288.67 700.252,1289.44 703.609,1290 706.966,1290.42 
  710.324,1290.71 713.681,1290.92 717.039,1291.04 720.396,1291.1 723.753,1291.09 727.111,1291.02 730.468,1290.9 733.826,1290.71 737.183,1290.45 740.54,1290.11 
  743.898,1289.67 747.255,1289.13 750.612,1288.44 753.97,1287.58 757.327,1286.5 760.685,1285.12 764.042,1283.33 767.399,1281.01 770.757,1277.92 774.114,1273.73 
  777.472,1267.92 780.829,1259.67 784.186,1247.69 787.544,1229.95 790.901,1203.73 794.258,1166.94 797.616,1123.62 800.973,1092.03 804.331,1093.54 807.688,1123.04 
  811.045,1158.83 814.403,1188.68 817.76,1210.64 821.117,1226.24 824.475,1237.31 827.832,1245.22 831.19,1250.91 834.547,1255.01 837.904,1257.92 841.262,1259.91 
  844.619,1261.14 847.977,1261.73 851.334,1261.73 854.691,1261.14 858.049,1259.96 861.406,1258.12 864.763,1255.51 868.121,1251.97 871.478,1247.24 874.836,1240.96 
  878.193,1232.59 881.55,1221.31 884.908,1205.9 888.265,1184.44 891.623,1153.99 894.98,1110.09 898.337,1046.61 901.695,957.788 905.052,847.365 908.409,747.421 
  911.767,715.451 915.124,769.856 918.482,865.005 921.839,955.434 925.196,1025.58 928.554,1076.26 931.911,1112.16 935.269,1137.51 938.626,1155.38 941.983,1167.78 
  945.341,1176.06 948.698,1181.02 952.055,1183.16 955.413,1182.69 958.77,1179.59 962.128,1173.63 965.485,1164.3 968.842,1150.74 972.2,1131.62 975.557,1104.83 
  978.915,1067.17 982.272,1013.7 985.629,937.19 988.987,828.285 992.344,679.8 995.701,502.593 999.059,352.957 1002.42,318.332 1005.77,417.257 1009.13,575.05 
  1012.49,722.418 1015.85,836.091 1019.2,917.645 1022.56,974.571 1025.92,1013.61 1029.28,1039.55 1032.63,1055.48 1035.99,1063.22 1039.35,1063.61 1042.7,1056.68 
  1046.06,1041.64 1049.42,1016.74 1052.78,978.889 1056.13,923.173 1059.49,842.138 1062.85,725.704 1066.21,564.377 1069.56,363.148 1072.92,171.816 1076.28,91.3098 
  1079.64,176.356 1082.99,358.701 1086.35,543.628 1089.71,689.605 1093.07,793.566 1096.42,863.875 1099.78,908.959 1103.14,934.702 1106.5,944.447 1109.85,939.355 
  1113.21,918.566 1116.57,879.019 1119.92,814.985 1123.28,717.753 1126.64,577.361 1130,392.373 1133.35,196.85 1136.71,83.6181 1140.07,134.14 1143.43,305.383 
  1146.78,493.891 1150.14,644.207 1153.5,748.134 1156.86,813.238 1160.21,847.662 1163.57,856.208 1166.93,839.841 1170.29,795.669 1173.64,717.051 1177,595.758 
  1180.36,432.743 1183.71,266.888 1187.07,192.594 1190.43,271.377 1193.79,437.874 1197.14,597.181 1200.5,711.114 1203.86,778.542 1207.22,806.201 1210.57,797.756 
  1213.93,751.62 1217.29,662.637 1220.65,532.028 1224,395.898 1227.36,343.867 1230.72,426.481 1234.08,571.048 1237.43,693.215 1240.79,765.827 1244.15,789.273 
  1247.51,765.84 1250.86,694.955 1254.22,586.473 1257.58,494.825 1260.93,506.586 1264.29,612.702 1267.65,720.956 1271.01,781.208 1274.36,785.39 1277.72,735.983 
  1281.08,651.865 1284.44,601.144 1287.79,649.011 1291.15,740.499 1294.51,796.144 1297.87,792.149 1301.22,738.932 1304.58,693.06 1307.94,725.341 1311.3,792.445 
  1314.65,817.422 1318.01,788.803 1321.37,761.441 1324.73,794.657 1328.08,832.587 1331.44,824.33 1334.8,813.719 1338.15,841.111 1341.51,850.642 1344.87,849.133 
  1348.23,868.579 1351.58,868.666 1354.94,876.394 1358.3,901.524 1361.66,897.286 1365.01,889.359 1368.37,919.368 1371.73,945.659 1375.09,935.912 1378.44,915.341 
  1381.8,932.558 1385.16,974.313 1388.52,996.249 1391.87,986.112 1395.23,959.062 1398.59,953.134 1401.94,986.406 1405.3,1027.75 1408.66,1050.32 1412.02,1048.89 
  1415.37,1027.96 1418.73,1002.7 1422.09,999.865 1425.45,1028.97 1428.8,1068.09 1432.16,1097.08 1435.52,1110.54 1438.88,1109.19 1442.23,1095.2 1445.59,1073.61 
  1448.95,1056.58 1452.31,1059.53 1455.66,1084.01 1459.02,1115.73 1462.38,1142.31 1465.74,1159.81 1469.09,1168.56 1472.45,1169.65 1475.81,1163.96 1479.16,1152.46 
  1482.52,1137.6 1485.88,1124.91 1489.24,1122.12 1492.59,1132.98 1495.95,1153 1499.31,1174.42 1502.67,1192.41 1506.02,1205.63 1509.38,1214.41 1512.74,1219.43 
  1516.1,1221.29 1519.45,1220.34 1522.81,1216.83 1526.17,1210.96 1529.53,1203.26 1532.88,1194.96 1536.24,1188.26 1539.6,1185.89 1542.95,1189.45 1546.31,1198.13 
  1549.67,1209.34 1553.03,1220.57 1556.38,1230.34 1559.74,1238.19 1563.1,1244.15 1566.46,1248.47 1569.81,1251.39 1573.17,1253.12 1576.53,1253.81 1579.89,1253.53 
  1583.24,1252.32 1586.6,1250.16 1589.96,1247.01 1593.32,1242.82 1596.67,1237.59 1600.03,1231.44 1603.39,1224.7 1606.75,1217.99 1610.1,1212.25 1613.46,1208.51 
  1616.82,1207.46 1620.17,1209.19 1623.53,1213.09 1626.89,1218.24 1630.25,1223.73 1633.6,1228.93 1636.96,1233.48 1640.32,1237.21 1643.68,1240.06 1647.03,1242.07 
  1650.39,1243.25 1653.75,1243.62 1657.11,1243.2 1660.46,1241.95 1663.82,1239.83 1667.18,1236.73 1670.54,1232.54 1673.89,1227.08 1677.25,1220.13 1680.61,1211.44 
  1683.97,1200.76 1687.32,1187.89 1690.68,1172.81 1694.04,1155.88 1697.39,1138.06 1700.75,1121.03 1704.11,1107.06 1707.47,1098.34 1710.82,1096.08 1714.18,1099.96 
  1717.54,1108.41 1720.9,1119.38 1724.25,1131.05 1727.61,1142.16 1730.97,1151.98 1734.33,1160.19 1737.68,1166.68 1741.04,1171.47 1744.4,1174.64 1747.76,1176.23 
  1751.11,1176.27 1754.47,1174.77 1757.83,1171.67 1761.18,1166.86 1764.54,1160.19 1767.9,1151.44 1771.26,1140.33 1774.61,1126.56 1777.97,1109.81 1781.33,1089.82 
  1784.69,1066.5 1788.04,1040.18 1791.4,1011.81 1794.76,983.273 1798.12,957.45 1801.47,937.804 1804.83,927.423 1808.19,927.843 1811.55,938.402 1814.9,956.611 
  1818.26,979.227 1821.62,1003.28 1824.98,1026.59 1828.33,1047.88 1831.69,1066.53 1835.05,1082.37 1838.4,1095.46 1841.76,1106 1845.12,1114.19 1848.48,1120.23 
  1851.83,1124.3 1855.19,1126.52 1858.55,1126.98 1861.91,1125.71 1865.26,1122.71 1868.62,1117.95 1871.98,1111.36 1875.34,1102.85 1878.69,1092.34 1882.05,1079.79 
  1885.41,1065.22 1888.77,1048.82 1892.12,1031.03 1895.48,1012.63 1898.84,994.866 1902.2,979.382 1905.55,968.076 1908.91,962.694 1912.27,964.337 1915.62,973.074 
  1918.98,987.899 1922.34,1007.06 1925.7,1028.58 1929.05,1050.68 1932.41,1072.04 1935.77,1091.84 1939.13,1109.66 1942.48,1125.35 1945.84,1138.96 1949.2,1150.63 
  1952.56,1160.55 1955.91,1168.9 1959.27,1175.88 1962.63,1181.63 1965.99,1186.29 1969.34,1190 1972.7,1192.84 1976.06,1194.91 1979.41,1196.26 1982.77,1196.96 
  1986.13,1197.05 1989.49,1196.59 1992.84,1195.64 1996.2,1194.24 1999.56,1192.47 2002.92,1190.44 2006.27,1188.27 2009.63,1186.13 2012.99,1184.23 2016.35,1182.81 
  2019.7,1182.13 2023.06,1182.43 2026.42,1183.91 2029.78,1186.67 2033.13,1190.69 2036.49,1195.84 2039.85,1201.86 2043.21,1208.46 2046.56,1215.32 2049.92,1222.17 
  2053.28,1228.78 2056.63,1235.01 2059.99,1240.76 2063.35,1245.98 2066.71,1250.67 2070.06,1254.85 2073.42,1258.56 2076.78,1261.84 2080.14,1264.73 2083.49,1267.28 
  2086.85,1269.52 2090.21,1271.5 2093.57,1273.25 2096.92,1274.8 2100.28,1276.17 2103.64,1277.38 2107,1278.47 2110.35,1279.44 2113.71,1280.31 2117.07,1281.09 
  2120.42,1281.8 2123.78,1282.44 2127.14,1283.03 2130.5,1283.57 2133.85,1284.07 2137.21,1284.54 2140.57,1284.98 2143.93,1285.4 2147.28,1285.8 2150.64,1286.2 
  2154,1286.59 2157.36,1286.98 2160.71,1287.36 2164.07,1287.75 2167.43,1288.15 2170.79,1288.55 2174.14,1288.96 2177.5,1289.38 2180.86,1289.8 2184.22,1290.22 
  2187.57,1290.64 2190.93,1291.05 2194.29,1291.45 2197.64,1291.85 2201,1292.23 2204.36,1292.59 2207.72,1292.93 2211.07,1293.24 2214.43,1293.54 2217.79,1293.81 
  2221.15,1294.06 2224.5,1294.28 2227.86,1294.48 2231.22,1294.66 2234.58,1294.83 2237.93,1294.97 2241.29,1295.1 2244.65,1295.22 2248.01,1295.32 2251.36,1295.4 
  2254.72,1295.48 2258.08,1295.55 2261.44,1295.61 2264.79,1295.67 2268.15,1295.71 2271.51,1295.75 2274.86,1295.79 2278.22,1295.82 2281.58,1295.85 2284.94,1295.87 
  2288.29,1295.89 2291.65,1295.91 2295.01,1295.93 2298.37,1295.94 2301.72,1295.96 2305.08,1295.97 2308.44,1295.98 2311.8,1295.99 2315.15,1296 2318.51,1296 
  2321.87,1296.01 2325.23,1296.01 2328.58,1296.02 2331.94,1296.02 2335.3,1296.03 2338.65,1296.03 2342.01,1296.03 2345.37,1296.04 2348.73,1296.04 2352.08,1296.04 
  2355.44,1296.05 2358.8,1296.05 2362.16,1296.05 2365.51,1296.05 2368.87,1296.05 2372.23,1296.05 2375.59,1296.05 2378.94,1296.06 2382.3,1296.06 2385.66,1296.06 
  2389.02,1296.06 2392.37,1296.06 2395.73,1296.06 2399.09,1296.06 2402.45,1296.06 2405.8,1296.06 2409.16,1296.06 2412.52,1296.06 2415.87,1296.06 2419.23,1296.07 
  2422.59,1296.07 2425.95,1296.07 2429.3,1296.07 2432.66,1296.07 2436.02,1296.07 2439.38,1296.07 2442.73,1296.07 2446.09,1296.07 2449.45,1296.07 2452.81,1296.07 
  2456.16,1296.07 2459.52,1296.07 2462.88,1296.07 2466.24,1296.07 2469.59,1296.07 2472.95,1296.07 2476.31,1296.07 2479.67,1296.07 2483.02,1296.07 2486.38,1296.07 
  2489.74,1296.07 2493.09,1296.07 2496.45,1296.07 2499.81,1296.07 2503.17,1296.07 2506.52,1296.07 2509.88,1296.07 2513.24,1296.07 2516.6,1296.07 2519.95,1296.07 
  2523.31,1296.07 2526.67,1296.07 2530.03,1296.07 2533.38,1296.07 2536.74,1296.07 2540.1,1296.07 2543.46,1296.08 2546.81,1296.08 2550.17,1296.08 2553.53,1296.08 
  2556.88,1296.08 2560.24,1296.08 2563.6,1296.08 2566.96,1296.08 2570.31,1296.08 2573.67,1296.08 2577.03,1296.08 2580.39,1296.08 2583.74,1296.08 2587.1,1296.08 
  2590.46,1296.08 2593.82,1296.08 2597.17,1296.08 2600.53,1296.08 2603.89,1296.08 2607.25,1296.08 2610.6,1296.08 2613.96,1296.08 2617.32,1296.08 2620.68,1296.08 
  2624.03,1296.08 2627.39,1296.08 2630.75,1296.08 2634.1,1296.08 2637.46,1296.08 2640.82,1296.08 2644.18,1296.08 2647.53,1296.08 2650.89,1296.08 2654.25,1296.08 
  2657.61,1296.08 2660.96,1296.08 2664.32,1296.08 2667.68,1296.08 2671.04,1296.08 2674.39,1296.08 2677.75,1296.08 2681.11,1296.08 2684.47,1296.08 2687.82,1296.08 
  2691.18,1296.08 2694.54,1296.08 2697.89,1296.08 2701.25,1296.08 2704.61,1296.08 2707.97,1296.08 2711.32,1296.08 2714.68,1296.08 2718.04,1296.08 2721.4,1296.08 
  2724.75,1296.08 2728.11,1296.08 2731.47,1296.08 2734.83,1296.08 2738.18,1296.08 2741.54,1296.08 2744.9,1296.08 2748.26,1296.08 2751.61,1296.08 2754.97,1296.08 
  2758.33,1296.08 2761.69,1296.08 2765.04,1296.08 2768.4,1296.08 2771.76,1296.08 2775.11,1296.08 2778.47,1296.08 2781.83,1296.08 2785.19,1296.08 2788.54,1296.08 
  2791.9,1296.08 2795.26,1296.08 2798.62,1296.08 2801.97,1296.08 2805.33,1296.08 2808.69,1296.08 2812.05,1296.08 2815.4,1296.08 2818.76,1296.08 2822.12,1296.08 
  2825.48,1296.08 2828.83,1296.08 2832.19,1296.08 2835.55,1296.08 2838.91,1296.08 2842.26,1296.08 2845.62,1296.08 2848.98,1296.08 2852.33,1296.08 2855.69,1296.08 
  2859.05,1296.08 2862.41,1296.08 2865.76,1296.08 2869.12,1296.08 2872.48,1296.08 2875.84,1296.08 2879.19,1296.08 2882.55,1296.08 2885.91,1296.08 2889.27,1296.08 
  2892.62,1296.08 2895.98,1296.08 2899.34,1296.08 2902.7,1296.08 2906.05,1296.08 2909.41,1296.08 2912.77,1296.08 2916.12,1296.08 2919.48,1296.08 2922.84,1296.08 
  2926.2,1296.08 2929.55,1296.08 2932.91,1296.08 2936.27,1296.08 2939.63,1296.08 2942.98,1296.08 2946.34,1296.08 2949.7,1296.08 2953.06,1296.08 2956.41,1296.09 
  2959.77,1296.09 2963.13,1296.09 2966.49,1296.09 2969.84,1296.09 2973.2,1296.09 2976.56,1296.09 2979.92,1296.09 2983.27,1296.09 2986.63,1296.09 2989.99,1296.09 
  2993.34,1296.09 2996.7,1296.09 3000.06,1296.09 3003.42,1296.09 3006.77,1296.09 3010.13,1296.09 3013.49,1296.09 3016.85,1296.09 3020.2,1296.09 3023.56,1296.09 
  
  "/>
<polyline clip-path="url(#clip403)" style="stroke:#e26f46; stroke-linecap:round; stroke-linejoin:round; stroke-width:12; stroke-opacity:1; fill:none" points="
  -330.465,1296.09 -327.108,1296.09 -323.75,1296.09 -320.393,1296.09 -317.036,1296.09 -313.678,1296.09 -310.321,1296.09 -306.963,1296.09 -303.606,1296.09 -300.249,1296.09 
  -296.891,1296.09 -293.534,1296.09 -290.176,1296.09 -286.819,1296.08 -283.462,1296.08 -280.104,1296.08 -276.747,1296.08 -273.39,1296.08 -270.032,1296.08 -266.675,1296.08 
  -263.317,1296.08 -259.96,1296.08 -256.603,1296.08 -253.245,1296.08 -249.888,1296.08 -246.531,1296.08 -243.173,1296.08 -239.816,1296.08 -236.458,1296.08 -233.101,1296.08 
  -229.744,1296.08 -226.386,1296.08 -223.029,1296.08 -219.671,1296.08 -216.314,1296.08 -212.957,1296.08 -209.599,1296.08 -206.242,1296.08 -202.885,1296.08 -199.527,1296.08 
  -196.17,1296.08 -192.812,1296.08 -189.455,1296.08 -186.098,1296.08 -182.74,1296.08 -179.383,1296.08 -176.025,1296.08 -172.668,1296.08 -169.311,1296.08 -165.953,1296.08 
  -162.596,1296.08 -159.239,1296.08 -155.881,1296.08 -152.524,1296.08 -149.166,1296.08 -145.809,1296.08 -142.452,1296.08 -139.094,1296.08 -135.737,1296.08 -132.379,1296.08 
  -129.022,1296.08 -125.665,1296.08 -122.307,1296.08 -118.95,1296.08 -115.593,1296.08 -112.235,1296.08 -108.878,1296.08 -105.52,1296.08 -102.163,1296.08 -98.8056,1296.08 
  -95.4482,1296.08 -92.0909,1296.08 -88.7335,1296.08 -85.3761,1296.08 -82.0187,1296.08 -78.6613,1296.08 -75.3039,1296.08 -71.9466,1296.08 -68.5892,1296.08 -65.2318,1296.08 
  -61.8744,1296.08 -58.517,1296.08 -55.1596,1296.08 -51.8023,1296.08 -48.4449,1296.08 -45.0875,1296.08 -41.7301,1296.08 -38.3727,1296.08 -35.0153,1296.08 -31.6579,1296.08 
  -28.3006,1296.08 -24.9432,1296.08 -21.5858,1296.08 -18.2284,1296.08 -14.871,1296.08 -11.5136,1296.08 -8.15626,1296.08 -4.79888,1296.08 -1.4415,1296.08 1.91589,1296.08 
  5.27327,1296.08 8.63065,1296.08 11.988,1296.08 15.3454,1296.08 18.7028,1296.08 22.0602,1296.08 25.4176,1296.08 28.775,1296.08 32.1323,1296.08 35.4897,1296.08 
  38.8471,1296.08 42.2045,1296.08 45.5619,1296.08 48.9193,1296.08 52.2766,1296.08 55.634,1296.08 58.9914,1296.08 62.3488,1296.08 65.7062,1296.08 69.0636,1296.08 
  72.4209,1296.08 75.7783,1296.08 79.1357,1296.08 82.4931,1296.08 85.8505,1296.08 89.2079,1296.08 92.5652,1296.08 95.9226,1296.08 99.28,1296.08 102.637,1296.08 
  105.995,1296.08 109.352,1296.08 112.71,1296.08 116.067,1296.08 119.424,1296.08 122.782,1296.08 126.139,1296.08 129.496,1296.08 132.854,1296.08 136.211,1296.08 
  139.569,1296.08 142.926,1296.08 146.283,1296.08 149.641,1296.08 152.998,1296.08 156.356,1296.08 159.713,1296.08 163.07,1296.08 166.428,1296.07 169.785,1296.07 
  173.142,1296.07 176.5,1296.07 179.857,1296.07 183.215,1296.07 186.572,1296.07 189.929,1296.07 193.287,1296.07 196.644,1296.07 200.002,1296.07 203.359,1296.07 
  206.716,1296.07 210.074,1296.07 213.431,1296.07 216.788,1296.07 220.146,1296.07 223.503,1296.07 226.861,1296.07 230.218,1296.07 233.575,1296.07 236.933,1296.07 
  240.29,1296.07 243.648,1296.07 247.005,1296.07 250.362,1296.07 253.72,1296.07 257.077,1296.07 260.434,1296.07 263.792,1296.07 267.149,1296.07 270.507,1296.07 
  273.864,1296.07 277.221,1296.07 280.579,1296.07 283.936,1296.07 287.293,1296.07 290.651,1296.07 294.008,1296.07 297.366,1296.07 300.723,1296.07 304.08,1296.07 
  307.438,1296.07 310.795,1296.07 314.153,1296.07 317.51,1296.07 320.867,1296.07 324.225,1296.07 327.582,1296.07 330.939,1296.07 334.297,1296.06 337.654,1296.06 
  341.012,1296.06 344.369,1296.06 347.726,1296.06 351.084,1296.06 354.441,1296.06 357.799,1296.06 361.156,1296.06 364.513,1296.06 367.871,1296.06 371.228,1296.06 
  374.585,1296.06 377.943,1296.06 381.3,1296.06 384.658,1296.05 388.015,1296.05 391.372,1296.05 394.73,1296.05 398.087,1296.05 401.445,1296.05 404.802,1296.04 
  408.159,1296.04 411.517,1296.04 414.874,1296.04 418.231,1296.03 421.589,1296.03 424.946,1296.02 428.304,1296.02 431.661,1296.01 435.018,1296.01 438.376,1296 
  441.733,1295.99 445.091,1295.98 448.448,1295.98 451.805,1295.97 455.163,1295.96 458.52,1295.95 461.877,1295.94 465.235,1295.93 468.592,1295.93 471.95,1295.92 
  475.307,1295.91 478.664,1295.9 482.022,1295.89 485.379,1295.88 488.737,1295.87 492.094,1295.86 495.451,1295.85 498.809,1295.84 502.166,1295.83 505.523,1295.82 
  508.881,1295.81 512.238,1295.79 515.596,1295.78 518.953,1295.76 522.31,1295.74 525.668,1295.72 529.025,1295.7 532.383,1295.67 535.74,1295.65 539.097,1295.62 
  542.455,1295.58 545.812,1295.55 549.169,1295.51 552.527,1295.47 555.884,1295.42 559.242,1295.36 562.599,1295.31 565.956,1295.24 569.314,1295.17 572.671,1295.1 
  576.028,1295.01 579.386,1294.92 582.743,1294.82 586.101,1294.71 589.458,1294.59 592.815,1294.46 596.173,1294.32 599.53,1294.18 602.888,1294.02 606.245,1293.85 
  609.602,1293.67 612.96,1293.48 616.317,1293.28 619.674,1293.08 623.032,1292.86 626.389,1292.63 629.747,1292.4 633.104,1292.15 636.461,1291.89 639.819,1291.63 
  643.176,1291.35 646.534,1291.06 649.891,1290.76 653.248,1290.45 656.606,1290.12 659.963,1289.78 663.32,1289.42 666.678,1289.04 670.035,1288.64 673.393,1288.22 
  676.75,1287.78 680.107,1287.3 683.465,1286.8 686.822,1286.28 690.18,1285.72 693.537,1285.12 696.894,1284.5 700.252,1283.83 703.609,1283.13 706.966,1282.39 
  710.324,1281.6 713.681,1280.78 717.039,1279.9 720.396,1278.99 723.753,1278.03 727.111,1277.02 730.468,1275.95 733.826,1274.84 737.183,1273.68 740.54,1272.46 
  743.898,1271.19 747.255,1269.86 750.612,1268.47 753.97,1267.02 757.327,1265.51 760.685,1263.93 764.042,1262.28 767.399,1260.57 770.757,1258.77 774.114,1256.91 
  777.472,1254.96 780.829,1252.94 784.186,1250.83 787.544,1248.64 790.901,1246.36 794.258,1243.99 797.616,1241.53 800.973,1238.98 804.331,1236.33 807.688,1233.59 
  811.045,1230.76 814.403,1227.83 817.76,1224.8 821.117,1221.67 824.475,1218.44 827.832,1215.1 831.19,1211.66 834.547,1208.11 837.904,1204.45 841.262,1200.68 
  844.619,1196.79 847.977,1192.79 851.334,1188.67 854.691,1184.43 858.049,1180.06 861.406,1175.58 864.763,1170.97 868.121,1166.23 871.478,1161.37 874.836,1156.39 
  878.193,1151.27 881.55,1146.04 884.908,1140.67 888.265,1135.19 891.623,1129.57 894.98,1123.83 898.337,1117.97 901.695,1111.97 905.052,1105.86 908.409,1099.61 
  911.767,1093.24 915.124,1086.74 918.482,1080.12 921.839,1073.37 925.196,1066.5 928.554,1059.51 931.911,1052.4 935.269,1045.17 938.626,1037.83 941.983,1030.39 
  945.341,1022.84 948.698,1015.18 952.055,1007.43 955.413,999.579 958.77,991.637 962.128,983.605 965.485,975.487 968.842,967.287 972.2,959.009 975.557,950.657 
  978.915,942.237 982.272,933.755 985.629,925.216 988.987,916.627 992.344,907.995 995.701,899.327 999.059,890.63 1002.42,881.909 1005.77,873.171 1009.13,864.423 
  1012.49,855.669 1015.85,846.918 1019.2,838.175 1022.56,829.447 1025.92,820.743 1029.28,812.07 1032.63,803.437 1035.99,794.852 1039.35,786.325 1042.7,777.864 
  1046.06,769.477 1049.42,761.171 1052.78,752.953 1056.13,744.83 1059.49,736.81 1062.85,728.9 1066.21,721.108 1069.56,713.443 1072.92,705.913 1076.28,698.528 
  1079.64,691.296 1082.99,684.224 1086.35,677.319 1089.71,670.589 1093.07,664.039 1096.42,657.675 1099.78,651.503 1103.14,645.532 1106.5,639.768 1109.85,634.218 
  1113.21,628.891 1116.57,623.792 1119.92,618.926 1123.28,614.298 1126.64,609.911 1130,605.77 1133.35,601.88 1136.71,598.245 1140.07,594.873 1143.43,591.767 
  1146.78,588.931 1150.14,586.368 1153.5,584.079 1156.86,582.066 1160.21,580.332 1163.57,578.878 1166.93,577.71 1170.29,576.828 1173.64,576.235 1177,575.929 
  1180.36,575.91 1183.71,576.177 1187.07,576.731 1190.43,577.573 1193.79,578.704 1197.14,580.121 1200.5,581.821 1203.86,583.802 1207.22,586.062 1210.57,588.598 
  1213.93,591.411 1217.29,594.496 1220.65,597.848 1224,601.463 1227.36,605.335 1230.72,609.464 1234.08,613.844 1237.43,618.47 1240.79,623.333 1244.15,628.428 
  1247.51,633.752 1250.86,639.298 1254.22,645.059 1257.58,651.026 1260.93,657.192 1264.29,663.553 1267.65,670.101 1271.01,676.825 1274.36,683.719 1277.72,690.777 
  1281.08,697.991 1284.44,705.352 1287.79,712.852 1291.15,720.486 1294.51,728.247 1297.87,736.126 1301.22,744.117 1304.58,752.215 1307.94,760.411 1311.3,768.698 
  1314.65,777.071 1318.01,785.517 1321.37,794.028 1324.73,802.595 1328.08,811.204 1331.44,819.85 1334.8,828.523 1338.15,837.224 1341.51,845.947 1344.87,854.685 
  1348.23,863.421 1351.58,872.149 1354.94,880.871 1358.3,889.582 1361.66,898.27 1365.01,906.92 1368.37,915.528 1371.73,924.086 1375.09,932.596 1378.44,941.053 
  1381.8,949.456 1385.16,957.803 1388.52,966.086 1391.87,974.3 1395.23,982.44 1398.59,990.496 1401.94,998.463 1405.3,1006.33 1408.66,1014.1 1412.02,1021.77 
  1415.37,1029.32 1418.73,1036.75 1422.09,1044.06 1425.45,1051.25 1428.8,1058.32 1432.16,1065.26 1435.52,1072.06 1438.88,1078.74 1442.23,1085.28 1445.59,1091.69 
  1448.95,1097.97 1452.31,1104.12 1455.66,1110.13 1459.02,1116 1462.38,1121.74 1465.74,1127.35 1469.09,1132.82 1472.45,1138.16 1475.81,1143.36 1479.16,1148.43 
  1482.52,1153.37 1485.88,1158.17 1489.24,1162.84 1492.59,1167.37 1495.95,1171.77 1499.31,1176.03 1502.67,1180.16 1506.02,1184.16 1509.38,1188.02 1512.74,1191.75 
  1516.1,1195.34 1519.45,1198.8 1522.81,1202.12 1526.17,1205.3 1529.53,1208.34 1532.88,1211.25 1536.24,1214.03 1539.6,1216.66 1542.95,1219.15 1546.31,1221.5 
  1549.67,1223.71 1553.03,1225.78 1556.38,1227.7 1559.74,1229.48 1563.1,1231.12 1566.46,1232.62 1569.81,1233.97 1573.17,1235.17 1576.53,1236.23 1579.89,1237.14 
  1583.24,1237.89 1586.6,1238.5 1589.96,1238.95 1593.32,1239.26 1596.67,1239.41 1600.03,1239.42 1603.39,1239.27 1606.75,1238.98 1610.1,1238.54 1613.46,1237.95 
  1616.82,1237.2 1620.17,1236.31 1623.53,1235.27 1626.89,1234.07 1630.25,1232.73 1633.6,1231.24 1636.96,1229.6 1640.32,1227.82 1643.68,1225.9 1647.03,1223.83 
  1650.39,1221.63 1653.75,1219.29 1657.11,1216.83 1660.46,1214.23 1663.82,1211.51 1667.18,1208.67 1670.54,1205.7 1673.89,1202.63 1677.25,1199.43 1680.61,1196.13 
  1683.97,1192.73 1687.32,1189.22 1690.68,1185.62 1694.04,1181.93 1697.39,1178.16 1700.75,1174.31 1704.11,1170.39 1707.47,1166.41 1710.82,1162.38 1714.18,1158.29 
  1717.54,1154.17 1720.9,1150.01 1724.25,1145.82 1727.61,1141.61 1730.97,1137.38 1734.33,1133.14 1737.68,1128.91 1741.04,1124.68 1744.4,1120.47 1747.76,1116.28 
  1751.11,1112.13 1754.47,1108.02 1757.83,1103.95 1761.18,1099.95 1764.54,1096.02 1767.9,1092.16 1771.26,1088.38 1774.61,1084.7 1777.97,1081.11 1781.33,1077.63 
  1784.69,1074.27 1788.04,1071.02 1791.4,1067.9 1794.76,1064.91 1798.12,1062.06 1801.47,1059.35 1804.83,1056.8 1808.19,1054.4 1811.55,1052.17 1814.9,1050.11 
  1818.26,1048.22 1821.62,1046.52 1824.98,1044.99 1828.33,1043.66 1831.69,1042.52 1835.05,1041.57 1838.4,1040.81 1841.76,1040.25 1845.12,1039.89 1848.48,1039.73 
  1851.83,1039.77 1855.19,1040.01 1858.55,1040.44 1861.91,1041.07 1865.26,1041.9 1868.62,1042.92 1871.98,1044.14 1875.34,1045.55 1878.69,1047.15 1882.05,1048.93 
  1885.41,1050.9 1888.77,1053.05 1892.12,1055.37 1895.48,1057.87 1898.84,1060.53 1902.2,1063.35 1905.55,1066.32 1908.91,1069.44 1912.27,1072.7 1915.62,1076.09 
  1918.98,1079.6 1922.34,1083.23 1925.7,1086.97 1929.05,1090.81 1932.41,1094.75 1935.77,1098.78 1939.13,1102.88 1942.48,1107.06 1945.84,1111.31 1949.2,1115.61 
  1952.56,1119.97 1955.91,1124.36 1959.27,1128.8 1962.63,1133.26 1965.99,1137.73 1969.34,1142.22 1972.7,1146.72 1976.06,1151.2 1979.41,1155.68 1982.77,1160.13 
  1986.13,1164.56 1989.49,1168.95 1992.84,1173.3 1996.2,1177.61 1999.56,1181.86 2002.92,1186.05 2006.27,1190.18 2009.63,1194.24 2012.99,1198.24 2016.35,1202.15 
  2019.7,1205.99 2023.06,1209.74 2026.42,1213.41 2029.78,1217 2033.13,1220.49 2036.49,1223.89 2039.85,1227.2 2043.21,1230.41 2046.56,1233.52 2049.92,1236.54 
  2053.28,1239.45 2056.63,1242.27 2059.99,1244.98 2063.35,1247.59 2066.71,1250.1 2070.06,1252.51 2073.42,1254.82 2076.78,1257.03 2080.14,1259.15 2083.49,1261.17 
  2086.85,1263.1 2090.21,1264.93 2093.57,1266.69 2096.92,1268.35 2100.28,1269.94 2103.64,1271.44 2107,1272.88 2110.35,1274.24 2113.71,1275.53 2117.07,1276.76 
  2120.42,1277.92 2123.78,1279.03 2127.14,1280.07 2130.5,1281.07 2133.85,1282.01 2137.21,1282.91 2140.57,1283.76 2143.93,1284.56 2147.28,1285.32 2150.64,1286.05 
  2154,1286.73 2157.36,1287.38 2160.71,1287.99 2164.07,1288.57 2167.43,1289.11 2170.79,1289.62 2174.14,1290.11 2177.5,1290.56 2180.86,1290.99 2184.22,1291.39 
  2187.57,1291.76 2190.93,1292.11 2194.29,1292.44 2197.64,1292.74 2201,1293.02 2204.36,1293.28 2207.72,1293.53 2211.07,1293.75 2214.43,1293.96 2217.79,1294.15 
  2221.15,1294.32 2224.5,1294.48 2227.86,1294.63 2231.22,1294.77 2234.58,1294.89 2237.93,1295 2241.29,1295.11 2244.65,1295.2 2248.01,1295.29 2251.36,1295.36 
  2254.72,1295.43 2258.08,1295.5 2261.44,1295.55 2264.79,1295.6 2268.15,1295.65 2271.51,1295.69 2274.86,1295.73 2278.22,1295.76 2281.58,1295.8 2284.94,1295.82 
  2288.29,1295.85 2291.65,1295.87 2295.01,1295.89 2298.37,1295.91 2301.72,1295.92 2305.08,1295.94 2308.44,1295.95 2311.8,1295.96 2315.15,1295.97 2318.51,1295.98 
  2321.87,1295.99 2325.23,1296 2328.58,1296 2331.94,1296.01 2335.3,1296.02 2338.65,1296.02 2342.01,1296.02 2345.37,1296.03 2348.73,1296.03 2352.08,1296.04 
  2355.44,1296.04 2358.8,1296.04 2362.16,1296.04 2365.51,1296.05 2368.87,1296.05 2372.23,1296.05 2375.59,1296.05 2378.94,1296.05 2382.3,1296.05 2385.66,1296.06 
  2389.02,1296.06 2392.37,1296.06 2395.73,1296.06 2399.09,1296.06 2402.45,1296.06 2405.8,1296.06 2409.16,1296.06 2412.52,1296.06 2415.87,1296.06 2419.23,1296.06 
  2422.59,1296.06 2425.95,1296.07 2429.3,1296.07 2432.66,1296.07 2436.02,1296.07 2439.38,1296.07 2442.73,1296.07 2446.09,1296.07 2449.45,1296.07 2452.81,1296.07 
  2456.16,1296.07 2459.52,1296.07 2462.88,1296.07 2466.24,1296.07 2469.59,1296.07 2472.95,1296.07 2476.31,1296.07 2479.67,1296.07 2483.02,1296.07 2486.38,1296.07 
  2489.74,1296.07 2493.09,1296.07 2496.45,1296.07 2499.81,1296.07 2503.17,1296.07 2506.52,1296.07 2509.88,1296.07 2513.24,1296.07 2516.6,1296.07 2519.95,1296.07 
  2523.31,1296.07 2526.67,1296.07 2530.03,1296.07 2533.38,1296.07 2536.74,1296.07 2540.1,1296.07 2543.46,1296.08 2546.81,1296.08 2550.17,1296.08 2553.53,1296.08 
  2556.88,1296.08 2560.24,1296.08 2563.6,1296.08 2566.96,1296.08 2570.31,1296.08 2573.67,1296.08 2577.03,1296.08 2580.39,1296.08 2583.74,1296.08 2587.1,1296.08 
  2590.46,1296.08 2593.82,1296.08 2597.17,1296.08 2600.53,1296.08 2603.89,1296.08 2607.25,1296.08 2610.6,1296.08 2613.96,1296.08 2617.32,1296.08 2620.68,1296.08 
  2624.03,1296.08 2627.39,1296.08 2630.75,1296.08 2634.1,1296.08 2637.46,1296.08 2640.82,1296.08 2644.18,1296.08 2647.53,1296.08 2650.89,1296.08 2654.25,1296.08 
  2657.61,1296.08 2660.96,1296.08 2664.32,1296.08 2667.68,1296.08 2671.04,1296.08 2674.39,1296.08 2677.75,1296.08 2681.11,1296.08 2684.47,1296.08 2687.82,1296.08 
  2691.18,1296.08 2694.54,1296.08 2697.89,1296.08 2701.25,1296.08 2704.61,1296.08 2707.97,1296.08 2711.32,1296.08 2714.68,1296.08 2718.04,1296.08 2721.4,1296.08 
  2724.75,1296.08 2728.11,1296.08 2731.47,1296.08 2734.83,1296.08 2738.18,1296.08 2741.54,1296.08 2744.9,1296.08 2748.26,1296.08 2751.61,1296.08 2754.97,1296.08 
  2758.33,1296.08 2761.69,1296.08 2765.04,1296.08 2768.4,1296.08 2771.76,1296.08 2775.11,1296.08 2778.47,1296.08 2781.83,1296.08 2785.19,1296.08 2788.54,1296.08 
  2791.9,1296.08 2795.26,1296.08 2798.62,1296.08 2801.97,1296.08 2805.33,1296.08 2808.69,1296.08 2812.05,1296.08 2815.4,1296.08 2818.76,1296.08 2822.12,1296.08 
  2825.48,1296.08 2828.83,1296.08 2832.19,1296.08 2835.55,1296.08 2838.91,1296.08 2842.26,1296.08 2845.62,1296.08 2848.98,1296.08 2852.33,1296.08 2855.69,1296.08 
  2859.05,1296.08 2862.41,1296.08 2865.76,1296.08 2869.12,1296.08 2872.48,1296.08 2875.84,1296.08 2879.19,1296.08 2882.55,1296.08 2885.91,1296.08 2889.27,1296.08 
  2892.62,1296.08 2895.98,1296.08 2899.34,1296.08 2902.7,1296.08 2906.05,1296.08 2909.41,1296.08 2912.77,1296.08 2916.12,1296.08 2919.48,1296.08 2922.84,1296.08 
  2926.2,1296.08 2929.55,1296.08 2932.91,1296.08 2936.27,1296.08 2939.63,1296.08 2942.98,1296.08 2946.34,1296.08 2949.7,1296.08 2953.06,1296.08 2956.41,1296.09 
  2959.77,1296.09 2963.13,1296.09 2966.49,1296.09 2969.84,1296.09 2973.2,1296.09 2976.56,1296.09 2979.92,1296.09 2983.27,1296.09 2986.63,1296.09 2989.99,1296.09 
  2993.34,1296.09 2996.7,1296.09 3000.06,1296.09 3003.42,1296.09 3006.77,1296.09 3010.13,1296.09 3013.49,1296.09 3016.85,1296.09 3020.2,1296.09 3023.56,1296.09 
  
  "/>
<polyline clip-path="url(#clip403)" style="stroke:#000000; stroke-linecap:round; stroke-linejoin:round; stroke-width:6; stroke-opacity:1; fill:none" stroke-dasharray="24, 15" points="
  508.041,1295.85 509.72,1295.84 511.399,1295.83 513.078,1295.82 514.756,1295.81 516.435,1295.8 518.114,1295.79 519.792,1295.77 521.471,1295.76 523.15,1295.75 
  524.828,1295.73 526.507,1295.72 528.186,1295.71 529.864,1295.69 531.543,1295.67 533.222,1295.66 534.901,1295.64 536.579,1295.62 538.258,1295.6 539.937,1295.59 
  541.615,1295.57 543.294,1295.55 544.973,1295.52 546.651,1295.5 548.33,1295.48 550.009,1295.46 551.687,1295.43 553.366,1295.41 555.045,1295.38 556.724,1295.35 
  558.402,1295.33 560.081,1295.3 561.76,1295.27 563.438,1295.24 565.117,1295.2 566.796,1295.17 568.474,1295.14 570.153,1295.1 571.832,1295.06 573.51,1295.03 
  575.189,1294.99 576.868,1294.95 578.547,1294.9 580.225,1294.86 581.904,1294.82 583.583,1294.77 585.261,1294.72 586.94,1294.67 588.619,1294.62 590.297,1294.57 
  591.976,1294.51 593.655,1294.46 595.333,1294.4 597.012,1294.34 598.691,1294.28 600.37,1294.21 602.048,1294.15 603.727,1294.08 605.406,1294.01 607.084,1293.94 
  608.763,1293.86 610.442,1293.79 612.12,1293.71 613.799,1293.62 615.478,1293.54 617.156,1293.45 618.835,1293.36 620.514,1293.27 622.193,1293.17 623.871,1293.08 
  625.55,1292.97 627.229,1292.87 628.907,1292.76 630.586,1292.65 632.265,1292.54 633.943,1292.42 635.622,1292.3 637.301,1292.17 638.979,1292.04 640.658,1291.91 
  642.337,1291.78 644.016,1291.64 645.694,1291.49 647.373,1291.34 649.052,1291.19 650.73,1291.03 652.409,1290.87 654.088,1290.7 655.766,1290.53 657.445,1290.36 
  659.124,1290.18 660.802,1289.99 662.481,1289.8 664.16,1289.6 665.839,1289.4 667.517,1289.19 669.196,1288.98 670.875,1288.76 672.553,1288.53 674.232,1288.3 
  675.911,1288.06 677.589,1287.82 679.268,1287.57 680.947,1287.31 682.625,1287.05 684.304,1286.77 685.983,1286.5 687.661,1286.21 689.34,1285.92 691.019,1285.61 
  692.698,1285.31 694.376,1284.99 696.055,1284.66 697.734,1284.33 699.412,1283.99 701.091,1283.64 702.77,1283.28 704.448,1282.91 706.127,1282.53 707.806,1282.14 
  709.484,1281.75 711.163,1281.34 712.842,1280.92 714.521,1280.49 716.199,1280.06 717.878,1279.61 719.557,1279.15 721.235,1278.68 722.914,1278.2 724.593,1277.71 
  726.271,1277.2 727.95,1276.68 729.629,1276.16 731.307,1275.61 732.986,1275.06 734.665,1274.5 736.344,1273.92 738.022,1273.32 739.701,1272.72 741.38,1272.1 
  743.058,1271.46 744.737,1270.82 746.416,1270.15 748.094,1269.48 749.773,1268.79 751.452,1268.08 753.13,1267.36 754.809,1266.62 756.488,1265.86 758.167,1265.09 
  759.845,1264.31 761.524,1263.5 763.203,1262.68 764.881,1261.85 766.56,1260.99 768.239,1260.12 769.917,1259.23 771.596,1258.32 773.275,1257.39 774.953,1256.44 
  776.632,1255.48 778.311,1254.49 779.99,1253.49 781.668,1252.47 783.347,1251.42 785.026,1250.36 786.704,1249.27 788.383,1248.16 790.062,1247.04 791.74,1245.89 
  793.419,1244.72 795.098,1243.52 796.776,1242.31 798.455,1241.07 800.134,1239.81 801.813,1238.53 803.491,1237.22 805.17,1235.89 806.849,1234.53 808.527,1233.15 
  810.206,1231.75 811.885,1230.32 813.563,1228.87 815.242,1227.39 816.921,1225.89 818.599,1224.36 820.278,1222.8 821.957,1221.22 823.636,1219.61 825.314,1217.98 
  826.993,1216.31 828.672,1214.62 830.35,1212.91 832.029,1211.16 833.708,1209.39 835.386,1207.59 837.065,1205.76 838.744,1203.91 840.422,1202.02 842.101,1200.1 
  843.78,1198.16 845.459,1196.19 847.137,1194.18 848.816,1192.15 850.495,1190.09 852.173,1188 853.852,1185.87 855.531,1183.72 857.209,1181.54 858.888,1179.32 
  860.567,1177.08 862.245,1174.8 863.924,1172.49 865.603,1170.15 867.282,1167.78 868.96,1165.38 870.639,1162.95 872.318,1160.48 873.996,1157.98 875.675,1155.45 
  877.354,1152.89 879.032,1150.3 880.711,1147.67 882.39,1145.02 884.068,1142.33 885.747,1139.61 887.426,1136.85 889.105,1134.07 890.783,1131.25 892.462,1128.4 
  894.141,1125.52 895.819,1122.6 897.498,1119.65 899.177,1116.67 900.855,1113.66 902.534,1110.62 904.213,1107.54 905.891,1104.44 907.57,1101.3 909.249,1098.13 
  910.928,1094.93 912.606,1091.7 914.285,1088.43 915.964,1085.14 917.642,1081.81 919.321,1078.46 921,1075.07 922.678,1071.65 924.357,1068.21 926.036,1064.73 
  927.714,1061.22 929.393,1057.69 931.072,1054.12 932.75,1050.53 934.429,1046.91 936.108,1043.26 937.787,1039.58 939.465,1035.88 941.144,1032.15 942.823,1028.39 
  944.501,1024.6 946.18,1020.79 947.859,1016.96 949.537,1013.1 951.216,1009.21 952.895,1005.3 954.573,1001.37 956.252,997.41 957.931,993.43 959.61,989.428 
  961.288,985.404 962.967,981.359 964.646,977.293 966.324,973.207 968.003,969.101 969.682,964.977 971.36,960.833 973.039,956.673 974.718,952.494 976.396,948.3 
  978.075,944.089 979.754,939.863 981.433,935.623 983.111,931.368 984.79,927.1 986.469,922.82 988.147,918.528 989.826,914.225 991.505,909.911 993.183,905.588 
  994.862,901.256 996.541,896.916 998.219,892.569 999.898,888.215 1001.58,883.856 1003.26,879.492 1004.93,875.124 1006.61,870.752 1008.29,866.378 1009.97,862.003 
  1011.65,857.627 1013.33,853.252 1015.01,848.877 1016.69,844.505 1018.36,840.135 1020.04,835.77 1021.72,831.409 1023.4,827.054 1025.08,822.705 1026.76,818.364 
  1028.44,814.032 1030.11,809.709 1031.79,805.396 1033.47,801.095 1035.15,796.806 1036.83,792.53 1038.51,788.269 1040.19,784.023 1041.87,779.793 1043.54,775.58 
  1045.22,771.385 1046.9,767.21 1048.58,763.055 1050.26,758.921 1051.94,754.809 1053.62,750.721 1055.3,746.657 1056.97,742.617 1058.65,738.604 1060.33,734.618 
  1062.01,730.661 1063.69,726.732 1065.37,722.834 1067.05,718.966 1068.72,715.131 1070.4,711.329 1072.08,707.561 1073.76,703.829 1075.44,700.132 1077.12,696.472 
  1078.8,692.85 1080.48,689.267 1082.15,685.724 1083.83,682.222 1085.51,678.761 1087.19,675.344 1088.87,671.97 1090.55,668.64 1092.23,665.356 1093.9,662.118 
  1095.58,658.927 1097.26,655.785 1098.94,652.691 1100.62,649.648 1102.3,646.655 1103.98,643.713 1105.66,640.824 1107.33,637.988 1109.01,635.206 1110.69,632.479 
  1112.37,629.807 1114.05,627.192 1115.73,624.633 1117.41,622.132 1119.09,619.69 1120.76,617.307 1122.44,614.984 1124.12,612.721 1125.8,610.519 1127.48,608.38 
  1129.16,606.302 1130.84,604.288 1132.51,602.337 1134.19,600.451 1135.87,598.629 1137.55,596.873 1139.23,595.183 1140.91,593.558 1142.59,592.001 1144.27,590.511 
  1145.94,589.088 1147.62,587.734 1149.3,586.448 1150.98,585.231 1152.66,584.083 1154.34,583.005 1156.02,581.997 1157.7,581.059 1159.37,580.192 1161.05,579.395 
  1162.73,578.669 1164.41,578.015 1166.09,577.432 1167.77,576.92 1169.45,576.481 1171.12,576.113 1172.8,575.817 1174.48,575.593 1176.16,575.441 1177.84,575.362 
  1179.52,575.355 1181.2,575.42 1182.88,575.557 1184.55,575.766 1186.23,576.048 1187.91,576.401 1189.59,576.827 1191.27,577.324 1192.95,577.892 1194.63,578.533 
  1196.31,579.244 1197.98,580.026 1199.66,580.88 1201.34,581.804 1203.02,582.798 1204.7,583.862 1206.38,584.996 1208.06,586.199 1209.73,587.471 1211.41,588.812 
  1213.09,590.221 1214.77,591.697 1216.45,593.241 1218.13,594.852 1219.81,596.53 1221.49,598.273 1223.16,600.081 1224.84,601.955 1226.52,603.893 1228.2,605.894 
  1229.88,607.959 1231.56,610.086 1233.24,612.275 1234.92,614.526 1236.59,616.837 1238.27,619.208 1239.95,621.639 1241.63,624.128 1243.31,626.675 1244.99,629.279 
  1246.67,631.94 1248.34,634.656 1250.02,637.427 1251.7,640.252 1253.38,643.131 1255.06,646.062 1256.74,649.044 1258.42,652.078 1260.1,655.161 1261.77,658.294 
  1263.45,661.475 1265.13,664.704 1266.81,667.978 1268.49,671.299 1270.17,674.664 1271.85,678.073 1273.52,681.525 1275.2,685.019 1276.88,688.554 1278.56,692.128 
  1280.24,695.742 1281.92,699.395 1283.6,703.084 1285.28,706.809 1286.95,710.57 1288.63,714.365 1290.31,718.194 1291.99,722.055 1293.67,725.947 1295.35,729.869 
  1297.03,733.821 1298.71,737.801 1300.38,741.808 1302.06,745.842 1303.74,749.901 1305.42,753.984 1307.1,758.091 1308.78,762.22 1310.46,766.371 1312.13,770.542 
  1313.81,774.732 1315.49,778.94 1317.17,783.166 1318.85,787.409 1320.53,791.667 1322.21,795.939 1323.89,800.224 1325.56,804.523 1327.24,808.832 1328.92,813.152 
  1330.6,817.482 1332.28,821.821 1333.96,826.167 1335.64,830.52 1337.32,834.878 1338.99,839.242 1340.67,843.609 1342.35,847.98 1344.03,852.352 1345.71,856.726 
  1347.39,861.101 1349.07,865.474 1350.74,869.847 1352.42,874.217 1354.1,878.584 1355.78,882.947 1357.46,887.305 1359.14,891.657 1360.82,896.003 1362.5,900.342 
  1364.17,904.673 1365.85,908.995 1367.53,913.307 1369.21,917.609 1370.89,921.9 1372.57,926.179 1374.25,930.445 1375.93,934.698 1377.6,938.937 1379.28,943.161 
  1380.96,947.37 1382.64,951.563 1384.32,955.739 1386,959.897 1387.68,964.038 1389.35,968.16 1391.03,972.262 1392.71,976.345 1394.39,980.408 1396.07,984.449 
  1397.75,988.469 1399.43,992.467 1401.11,996.442 1402.78,1000.39 1404.46,1004.32 1406.14,1008.23 1407.82,1012.1 1409.5,1015.96 1411.18,1019.79 1412.86,1023.59 
  1414.54,1027.37 1416.21,1031.11 1417.89,1034.84 1419.57,1038.53 1421.25,1042.2 1422.93,1045.83 1424.61,1049.44 1426.29,1053.02 1427.96,1056.57 1429.64,1060.09 
  1431.32,1063.58 1433,1067.04 1434.68,1070.47 1436.36,1073.86 1438.04,1077.23 1439.72,1080.56 1441.39,1083.87 1443.07,1087.14 1444.75,1090.37 1446.43,1093.58 
  1448.11,1096.75 1449.79,1099.89 1451.47,1103 1453.14,1106.07 1454.82,1109.11 1456.5,1112.11 1458.18,1115.08 1459.86,1118.02 1461.54,1120.92 1463.22,1123.79 
  1464.9,1126.63 1466.57,1129.43 1468.25,1132.19 1469.93,1134.92 1471.61,1137.62 1473.29,1140.28 1474.97,1142.9 1476.65,1145.49 1478.33,1148.05 1480,1150.57 
  1481.68,1153.05 1483.36,1155.5 1485.04,1157.91 1486.72,1160.29 1488.4,1162.63 1490.08,1164.94 1491.75,1167.21 1493.43,1169.45 1495.11,1171.65 1496.79,1173.81 
  1498.47,1175.94 1500.15,1178.03 1501.83,1180.09 1503.51,1182.11 1505.18,1184.1 1506.86,1186.05 1508.54,1187.96 1510.22,1189.84 1511.9,1191.69 1513.58,1193.49 
  1515.26,1195.27 1516.94,1197 1518.61,1198.7 1520.29,1200.37 1521.97,1202 1523.65,1203.59 1525.33,1205.15 1527.01,1206.67 1528.69,1208.16 1530.36,1209.61 
  1532.04,1211.02 1533.72,1212.4 1535.4,1213.75 1537.08,1215.05 1538.76,1216.33 1540.44,1217.57 1542.12,1218.77 1543.79,1219.93 1545.47,1221.07 1547.15,1222.16 
  1548.83,1223.22 1550.51,1224.25 1552.19,1225.23 1553.87,1226.19 1555.55,1227.11 1557.22,1227.99 1558.9,1228.84 1560.58,1229.65 1562.26,1230.42 1563.94,1231.17 
  1565.62,1231.87 1567.3,1232.54 1568.97,1233.17 1570.65,1233.77 1572.33,1234.34 1574.01,1234.86 1575.69,1235.36 1577.37,1235.81 1579.05,1236.23 1580.73,1236.62 
  1582.4,1236.97 1584.08,1237.28 1585.76,1237.56 1587.44,1237.8 1589.12,1238.01 1590.8,1238.18 1592.48,1238.32 1594.16,1238.42 1595.83,1238.48 1597.51,1238.51 
  1599.19,1238.5 1600.87,1238.46 1602.55,1238.38 1604.23,1238.27 1605.91,1238.12 1607.58,1237.93 1609.26,1237.71 1610.94,1237.46 1612.62,1237.17 1614.3,1236.84 
  1615.98,1236.47 1617.66,1236.08 1619.34,1235.64 1621.01,1235.17 1622.69,1234.67 1624.37,1234.13 1626.05,1233.55 1627.73,1232.94 1629.41,1232.29 1631.09,1231.61 
  1632.76,1230.9 1634.44,1230.15 1636.12,1229.36 1637.8,1228.54 1639.48,1227.69 1641.16,1226.8 1642.84,1225.88 1644.52,1224.92 1646.19,1223.93 1647.87,1222.91 
  1649.55,1221.85 1651.23,1220.76 1652.91,1219.64 1654.59,1218.48 1656.27,1217.29 1657.95,1216.07 1659.62,1214.82 1661.3,1213.54 1662.98,1212.22 1664.66,1210.88 
  1666.34,1209.5 1668.02,1208.09 1669.7,1206.66 1671.37,1205.19 1673.05,1203.7 1674.73,1202.17 1676.41,1200.62 1678.09,1199.04 1679.77,1197.43 1681.45,1195.8 
  1683.13,1194.14 1684.8,1192.45 1686.48,1190.74 1688.16,1189.01 1689.84,1187.25 1691.52,1185.46 1693.2,1183.66 1694.88,1181.83 1696.56,1179.98 1698.23,1178.11 
  1699.91,1176.21 1701.59,1174.3 1703.27,1172.37 1704.95,1170.42 1706.63,1168.46 1708.31,1166.47 1709.98,1164.48 1711.66,1162.46 1713.34,1160.43 1715.02,1158.39 
  1716.7,1156.34 1718.38,1154.27 1720.06,1152.2 1721.74,1150.11 1723.41,1148.01 1725.09,1145.91 1726.77,1143.8 1728.45,1141.68 1730.13,1139.56 1731.81,1137.43 
  1733.49,1135.3 1735.17,1133.17 1736.84,1131.03 1738.52,1128.9 1740.2,1126.76 1741.88,1124.63 1743.56,1122.5 1745.24,1120.38 1746.92,1118.26 1748.59,1116.14 
  1750.27,1114.04 1751.95,1111.94 1753.63,1109.85 1755.31,1107.77 1756.99,1105.7 1758.67,1103.64 1760.35,1101.6 1762.02,1099.57 1763.7,1097.56 1765.38,1095.56 
  1767.06,1093.59 1768.74,1091.63 1770.42,1089.69 1772.1,1087.77 1773.78,1085.88 1775.45,1084.01 1777.13,1082.16 1778.81,1080.34 1780.49,1078.54 1782.17,1076.77 
  1783.85,1075.03 1785.53,1073.33 1787.2,1071.65 1788.88,1070 1790.56,1068.38 1792.24,1066.8 1793.92,1065.26 1795.6,1063.74 1797.28,1062.27 1798.96,1060.83 
  1800.63,1059.43 1802.31,1058.07 1803.99,1056.75 1805.67,1055.46 1807.35,1054.22 1809.03,1053.03 1810.71,1051.87 1812.39,1050.76 1814.06,1049.69 1815.74,1048.67 
  1817.42,1047.69 1819.1,1046.76 1820.78,1045.88 1822.46,1045.04 1824.14,1044.26 1825.81,1043.51 1827.49,1042.82 1829.17,1042.18 1830.85,1041.59 1832.53,1041.05 
  1834.21,1040.55 1835.89,1040.11 1837.57,1039.72 1839.24,1039.39 1840.92,1039.1 1842.6,1038.86 1844.28,1038.68 1845.96,1038.55 1847.64,1038.47 1849.32,1038.44 
  1850.99,1038.47 1852.67,1038.55 1854.35,1038.68 1856.03,1038.86 1857.71,1039.09 1859.39,1039.38 1861.07,1039.72 1862.75,1040.1 1864.42,1040.55 1866.1,1041.04 
  1867.78,1041.58 1869.46,1042.17 1871.14,1042.82 1872.82,1043.51 1874.5,1044.25 1876.18,1045.05 1877.85,1045.89 1879.53,1046.77 1881.21,1047.71 1882.89,1048.69 
  1884.57,1049.72 1886.25,1050.8 1887.93,1051.91 1889.6,1053.08 1891.28,1054.29 1892.96,1055.54 1894.64,1056.83 1896.32,1058.17 1898,1059.54 1899.68,1060.96 
  1901.36,1062.41 1903.03,1063.91 1904.71,1065.44 1906.39,1067 1908.07,1068.61 1909.75,1070.25 1911.43,1071.92 1913.11,1073.62 1914.79,1075.36 1916.46,1077.13 
  1918.14,1078.93 1919.82,1080.76 1921.5,1082.61 1923.18,1084.49 1924.86,1086.4 1926.54,1088.34 1928.21,1090.3 1929.89,1092.28 1931.57,1094.28 1933.25,1096.31 
  1934.93,1098.35 1936.61,1100.42 1938.29,1102.5 1939.97,1104.6 1941.64,1106.72 1943.32,1108.85 1945,1110.99 1946.68,1113.15 1948.36,1115.32 1950.04,1117.5 
  1951.72,1119.69 1953.4,1121.88 1955.07,1124.09 1956.75,1126.3 1958.43,1128.52 1960.11,1130.74 1961.79,1132.97 1963.47,1135.2 1965.15,1137.43 1966.82,1139.67 
  1968.5,1141.9 1970.18,1144.13 1971.86,1146.36 1973.54,1148.59 1975.22,1150.81 1976.9,1153.03 1978.58,1155.25 1980.25,1157.46 1981.93,1159.66 1983.61,1161.86 
  1985.29,1164.04 1986.97,1166.22 1988.65,1168.39 1990.33,1170.54 1992.01,1172.69 1993.68,1174.82 1995.36,1176.95 1997.04,1179.05 1998.72,1181.15 2000.4,1183.23 
  2002.08,1185.29 2003.76,1187.34 2005.43,1189.38 2007.11,1191.39 2008.79,1193.39 2010.47,1195.38 2012.15,1197.34 2013.83,1199.28 2015.51,1201.21 2017.19,1203.12 
  2018.86,1205.01 2020.54,1206.87 2022.22,1208.72 2023.9,1210.55 2025.58,1212.35 2027.26,1214.14 2028.94,1215.9 2030.61,1217.64 2032.29,1219.36 2033.97,1221.05 
  2035.65,1222.73 2037.33,1224.38 2039.01,1226.01 2040.69,1227.61 2042.37,1229.19 2044.04,1230.75 2045.72,1232.29 2047.4,1233.8 2049.08,1235.29 2050.76,1236.76 
  2052.44,1238.2 2054.12,1239.62 2055.8,1241.01 2057.47,1242.38 2059.15,1243.73 2060.83,1245.06 2062.51,1246.36 2064.19,1247.63 2065.87,1248.89 2067.55,1250.12 
  2069.22,1251.33 2070.9,1252.52 2072.58,1253.68 2074.26,1254.82 2075.94,1255.94 2077.62,1257.03 2079.3,1258.11 2080.98,1259.16 2082.65,1260.19 2084.33,1261.2 
  2086.01,1262.18 2087.69,1263.15 2089.37,1264.09 2091.05,1265.02 2092.73,1265.92 2094.41,1266.81 2096.08,1267.67 2097.76,1268.51 2099.44,1269.34 2101.12,1270.14 
  2102.8,1270.93 2104.48,1271.69 2106.16,1272.44 2107.83,1273.17 2109.51,1273.88 2111.19,1274.58 2112.87,1275.25 2114.55,1275.91 2116.23,1276.56 2117.91,1277.18 
  2119.59,1277.79 2121.26,1278.39 2122.94,1278.96 2124.62,1279.53 2126.3,1280.07 2127.98,1280.61 2129.66,1281.12 2131.34,1281.63 2133.02,1282.12 2134.69,1282.59 
  2136.37,1283.06 2138.05,1283.5 2139.73,1283.94 2141.41,1284.36 2143.09,1284.77 2144.77,1285.17 2146.44,1285.56 2148.12,1285.93 2149.8,1286.3 2151.48,1286.65 
  2153.16,1286.99 2154.84,1287.32 2156.52,1287.64 2158.2,1287.96 2159.87,1288.26 2161.55,1288.55 2163.23,1288.83 2164.91,1289.1 2166.59,1289.37 2168.27,1289.62 
  2169.95,1289.87 2171.63,1290.11 2173.3,1290.34 2174.98,1290.56 2176.66,1290.78 2178.34,1290.99 2180.02,1291.19 2181.7,1291.38 2183.38,1291.57 2185.05,1291.75 
  
  "/>
<path clip-path="url(#clip400)" d="
M1636.11 608.485 L2285.68 608.485 L2285.68 90.0846 L1636.11 90.0846  Z
  " fill="#ffffff" fill-rule="evenodd" fill-opacity="1"/>
<polyline clip-path="url(#clip400)" style="stroke:#000000; stroke-linecap:round; stroke-linejoin:round; stroke-width:4; stroke-opacity:1; fill:none" points="
  1636.11,608.485 2285.68,608.485 2285.68,90.0846 1636.11,90.0846 1636.11,608.485 
  "/>
<polyline clip-path="url(#clip400)" style="stroke:#009af9; stroke-linecap:round; stroke-linejoin:round; stroke-width:30; stroke-opacity:1; fill:none" points="
  1658.47,219.685 1792.64,219.685 
  "/>
<path clip-path="url(#clip400)" d="M1869.28 223.764 L1869.28 262.885 L1858.63 262.885 L1858.63 224.112 Q1858.63 214.91 1855.04 210.339 Q1851.45 205.767 1844.28 205.767 Q1835.66 205.767 1830.68 211.265 Q1825.7 216.762 1825.7 226.253 L1825.7 262.885 L1815 262.885 L1815 198.07 L1825.7 198.07 L1825.7 208.14 Q1829.52 202.295 1834.67 199.401 Q1839.88 196.508 1846.65 196.508 Q1857.82 196.508 1863.55 203.452 Q1869.28 210.339 1869.28 223.764 Z" fill="#000000" fill-rule="evenodd" fill-opacity="1" /><path clip-path="url(#clip400)" d="M1915.63 205.535 Q1907.07 205.535 1902.09 212.248 Q1897.11 218.903 1897.11 230.535 Q1897.11 242.167 1902.03 248.88 Q1907.01 255.535 1915.63 255.535 Q1924.14 255.535 1929.12 248.822 Q1934.09 242.109 1934.09 230.535 Q1934.09 219.019 1929.12 212.306 Q1924.14 205.535 1915.63 205.535 M1915.63 196.508 Q1929.52 196.508 1937.45 205.535 Q1945.38 214.563 1945.38 230.535 Q1945.38 246.45 1937.45 255.535 Q1929.52 264.563 1915.63 264.563 Q1901.69 264.563 1893.76 255.535 Q1885.89 246.45 1885.89 230.535 Q1885.89 214.563 1893.76 205.535 Q1901.69 196.508 1915.63 196.508 Z" fill="#000000" fill-rule="evenodd" fill-opacity="1" /><path clip-path="url(#clip400)" d="M2016.9 223.764 L2016.9 262.885 L2006.26 262.885 L2006.26 224.112 Q2006.26 214.91 2002.67 210.339 Q1999.08 205.767 1991.9 205.767 Q1983.28 205.767 1978.31 211.265 Q1973.33 216.762 1973.33 226.253 L1973.33 262.885 L1962.62 262.885 L1962.62 198.07 L1973.33 198.07 L1973.33 208.14 Q1977.15 202.295 1982.3 199.401 Q1987.51 196.508 1994.28 196.508 Q2005.45 196.508 2011.18 203.452 Q2016.9 210.339 2016.9 223.764 Z" fill="#000000" fill-rule="evenodd" fill-opacity="1" /><path clip-path="url(#clip400)" d="M2032.76 225.674 L2063.95 225.674 L2063.95 235.165 L2032.76 235.165 L2032.76 225.674 Z" fill="#000000" fill-rule="evenodd" fill-opacity="1" /><path clip-path="url(#clip400)" d="M2108.22 205.535 Q2099.66 205.535 2094.68 212.248 Q2089.71 218.903 2089.71 230.535 Q2089.71 242.167 2094.62 248.88 Q2099.6 255.535 2108.22 255.535 Q2116.73 255.535 2121.71 248.822 Q2126.68 242.109 2126.68 230.535 Q2126.68 219.019 2121.71 212.306 Q2116.73 205.535 2108.22 205.535 M2108.22 196.508 Q2122.11 196.508 2130.04 205.535 Q2137.97 214.563 2137.97 230.535 Q2137.97 246.45 2130.04 255.535 Q2122.11 264.563 2108.22 264.563 Q2094.28 264.563 2086.35 255.535 Q2078.48 246.45 2078.48 230.535 Q2078.48 214.563 2086.35 205.535 Q2094.28 196.508 2108.22 196.508 Z" fill="#000000" fill-rule="evenodd" fill-opacity="1" /><path clip-path="url(#clip400)" d="M2165.92 253.162 L2165.92 287.537 L2155.21 287.537 L2155.21 198.07 L2165.92 198.07 L2165.92 207.908 Q2169.28 202.121 2174.37 199.343 Q2179.52 196.508 2186.64 196.508 Q2198.44 196.508 2205.79 205.883 Q2213.2 215.258 2213.2 230.535 Q2213.2 245.813 2205.79 255.188 Q2198.44 264.563 2186.64 264.563 Q2179.52 264.563 2174.37 261.785 Q2169.28 258.949 2165.92 253.162 M2202.15 230.535 Q2202.15 218.788 2197.29 212.133 Q2192.48 205.42 2184.03 205.42 Q2175.58 205.42 2170.72 212.133 Q2165.92 218.788 2165.92 230.535 Q2165.92 242.283 2170.72 248.996 Q2175.58 255.651 2184.03 255.651 Q2192.48 255.651 2197.29 248.996 Q2202.15 242.283 2202.15 230.535 Z" fill="#000000" fill-rule="evenodd" fill-opacity="1" /><path clip-path="url(#clip400)" d="M2241.38 179.667 L2241.38 198.07 L2263.32 198.07 L2263.32 206.346 L2241.38 206.346 L2241.38 241.531 Q2241.38 249.459 2243.52 251.716 Q2245.72 253.973 2252.38 253.973 L2263.32 253.973 L2263.32 262.885 L2252.38 262.885 Q2240.05 262.885 2235.36 258.313 Q2230.68 253.683 2230.68 241.531 L2230.68 206.346 L2222.86 206.346 L2222.86 198.07 L2230.68 198.07 L2230.68 179.667 L2241.38 179.667 Z" fill="#000000" fill-rule="evenodd" fill-opacity="1" /><polyline clip-path="url(#clip400)" style="stroke:#e26f46; stroke-linecap:round; stroke-linejoin:round; stroke-width:30; stroke-opacity:1; fill:none" points="
  1658.47,349.285 1792.64,349.285 
  "/>
<path clip-path="url(#clip400)" d="M1844.74 335.135 Q1836.18 335.135 1831.2 341.848 Q1826.22 348.503 1826.22 360.135 Q1826.22 371.767 1831.14 378.48 Q1836.12 385.135 1844.74 385.135 Q1853.25 385.135 1858.22 378.422 Q1863.2 371.709 1863.2 360.135 Q1863.2 348.619 1858.22 341.906 Q1853.25 335.135 1844.74 335.135 M1844.74 326.108 Q1858.63 326.108 1866.56 335.135 Q1874.49 344.163 1874.49 360.135 Q1874.49 376.05 1866.56 385.135 Q1858.63 394.163 1844.74 394.163 Q1830.79 394.163 1822.87 385.135 Q1815 376.05 1815 360.135 Q1815 344.163 1822.87 335.135 Q1830.79 326.108 1844.74 326.108 Z" fill="#000000" fill-rule="evenodd" fill-opacity="1" /><path clip-path="url(#clip400)" d="M1902.44 382.762 L1902.44 417.137 L1891.73 417.137 L1891.73 327.67 L1902.44 327.67 L1902.44 337.508 Q1905.79 331.721 1910.89 328.943 Q1916.04 326.108 1923.15 326.108 Q1934.96 326.108 1942.31 335.483 Q1949.72 344.858 1949.72 360.135 Q1949.72 375.413 1942.31 384.788 Q1934.96 394.163 1923.15 394.163 Q1916.04 394.163 1910.89 391.385 Q1905.79 388.549 1902.44 382.762 M1938.66 360.135 Q1938.66 348.388 1933.8 341.733 Q1929 335.02 1920.55 335.02 Q1912.1 335.02 1907.24 341.733 Q1902.44 348.388 1902.44 360.135 Q1902.44 371.883 1907.24 378.596 Q1912.1 385.251 1920.55 385.251 Q1929 385.251 1933.8 378.596 Q1938.66 371.883 1938.66 360.135 Z" fill="#000000" fill-rule="evenodd" fill-opacity="1" /><path clip-path="url(#clip400)" d="M1977.9 309.267 L1977.9 327.67 L1999.83 327.67 L1999.83 335.946 L1977.9 335.946 L1977.9 371.131 Q1977.9 379.059 1980.04 381.316 Q1982.24 383.573 1988.9 383.573 L1999.83 383.573 L1999.83 392.485 L1988.9 392.485 Q1976.57 392.485 1971.88 387.913 Q1967.19 383.283 1967.19 371.131 L1967.19 335.946 L1959.38 335.946 L1959.38 327.67 L1967.19 327.67 L1967.19 309.267 L1977.9 309.267 Z" fill="#000000" fill-rule="evenodd" fill-opacity="1" /><polyline clip-path="url(#clip400)" style="stroke:#000000; stroke-linecap:round; stroke-linejoin:round; stroke-width:15; stroke-opacity:1; fill:none" stroke-dasharray="60, 38" points="
  1658.47,478.885 1792.64,478.885 
  "/>
<path clip-path="url(#clip400)" d="M1875.06 487.015 L1875.06 492.224 L1826.11 492.224 Q1826.8 503.219 1832.7 509.006 Q1838.66 514.735 1849.25 514.735 Q1855.39 514.735 1861.12 513.231 Q1866.91 511.726 1872.58 508.717 L1872.58 518.786 Q1866.85 521.217 1860.83 522.49 Q1854.81 523.763 1848.62 523.763 Q1833.11 523.763 1824.02 514.735 Q1815 505.707 1815 490.314 Q1815 474.4 1823.56 465.083 Q1832.18 455.708 1846.77 455.708 Q1859.85 455.708 1867.43 464.157 Q1875.06 472.548 1875.06 487.015 M1864.42 483.89 Q1864.3 475.152 1859.5 469.944 Q1854.75 464.735 1846.88 464.735 Q1837.97 464.735 1832.59 469.77 Q1827.26 474.805 1826.45 483.948 L1864.42 483.89 Z" fill="#000000" fill-rule="evenodd" fill-opacity="1" /><path clip-path="url(#clip400)" d="M1944.34 457.27 L1920.9 488.809 L1945.55 522.085 L1932.99 522.085 L1914.13 496.622 L1895.26 522.085 L1882.7 522.085 L1907.88 488.173 L1884.85 457.27 L1897.4 457.27 L1914.59 480.36 L1931.78 457.27 L1944.34 457.27 Z" fill="#000000" fill-rule="evenodd" fill-opacity="1" /><path clip-path="url(#clip400)" d="M1990.05 489.504 Q1977.15 489.504 1972.17 492.455 Q1967.19 495.407 1967.19 502.525 Q1967.19 508.196 1970.9 511.552 Q1974.66 514.851 1981.08 514.851 Q1989.94 514.851 1995.26 508.601 Q2000.64 502.293 2000.64 491.876 L2000.64 489.504 L1990.05 489.504 M2011.29 485.106 L2011.29 522.085 L2000.64 522.085 L2000.64 512.247 Q1997 518.149 1991.56 520.985 Q1986.12 523.763 1978.25 523.763 Q1968.29 523.763 1962.39 518.207 Q1956.55 512.594 1956.55 503.219 Q1956.55 492.282 1963.84 486.726 Q1971.19 481.17 1985.71 481.17 L2000.64 481.17 L2000.64 480.129 Q2000.64 472.779 1995.78 468.786 Q1990.98 464.735 1982.24 464.735 Q1976.68 464.735 1971.42 466.066 Q1966.15 467.397 1961.29 470.059 L1961.29 460.222 Q1967.14 457.965 1972.63 456.865 Q1978.13 455.708 1983.34 455.708 Q1997.4 455.708 2004.35 462.999 Q2011.29 470.291 2011.29 485.106 Z" fill="#000000" fill-rule="evenodd" fill-opacity="1" /><path clip-path="url(#clip400)" d="M2079.87 459.759 L2079.87 469.712 Q2075.35 467.224 2070.78 466.009 Q2066.27 464.735 2061.64 464.735 Q2051.28 464.735 2045.55 471.333 Q2039.82 477.872 2039.82 489.735 Q2039.82 501.599 2045.55 508.196 Q2051.28 514.735 2061.64 514.735 Q2066.27 514.735 2070.78 513.52 Q2075.35 512.247 2079.87 509.758 L2079.87 519.596 Q2075.41 521.68 2070.61 522.721 Q2065.86 523.763 2060.48 523.763 Q2045.84 523.763 2037.22 514.562 Q2028.59 505.36 2028.59 489.735 Q2028.59 473.879 2037.27 464.793 Q2046.01 455.708 2061.18 455.708 Q2066.09 455.708 2070.78 456.749 Q2075.47 457.733 2079.87 459.759 Z" fill="#000000" fill-rule="evenodd" fill-opacity="1" /><path clip-path="url(#clip400)" d="M2108.92 438.867 L2108.92 457.27 L2130.85 457.27 L2130.85 465.546 L2108.92 465.546 L2108.92 500.731 Q2108.92 508.659 2111.06 510.916 Q2113.26 513.173 2119.91 513.173 L2130.85 513.173 L2130.85 522.085 L2119.91 522.085 Q2107.59 522.085 2102.9 517.513 Q2098.21 512.883 2098.21 500.731 L2098.21 465.546 L2090.4 465.546 L2090.4 457.27 L2098.21 457.27 L2098.21 438.867 L2108.92 438.867 Z" fill="#000000" fill-rule="evenodd" fill-opacity="1" /></svg>
