<?xml version="1.0" encoding="utf-8"?>
<svg xmlns="http://www.w3.org/2000/svg" xmlns:xlink="http://www.w3.org/1999/xlink" width="600" height="400" viewBox="0 0 2400 1600">
<defs>
  <clipPath id="clip830">
    <rect x="0" y="0" width="2400" height="1600"/>
  </clipPath>
</defs>
<path clip-path="url(#clip830)" d="
M0 1600 L2400 1600 L2400 0 L0 0  Z
  " fill="#ffffff" fill-rule="evenodd" fill-opacity="1"/>
<defs>
  <clipPath id="clip831">
    <rect x="480" y="0" width="1681" height="1600"/>
  </clipPath>
</defs>
<defs>
  <clipPath id="clip832">
    <rect x="255" y="47" width="2098" height="1286"/>
  </clipPath>
</defs>
<path clip-path="url(#clip830)" d="
M255.532 1332.46 L2352.76 1332.46 L2352.76 47.2441 L255.532 47.2441  Z
  " fill="#ffffff" fill-rule="evenodd" fill-opacity="1"/>
<polyline clip-path="url(#clip832)" style="stroke:#000000; stroke-linecap:round; stroke-linejoin:round; stroke-width:2; stroke-opacity:0.1; fill:none" points="
  2177.99,1332.46 2177.99,47.2441 
  "/>
<polyline clip-path="url(#clip832)" style="stroke:#000000; stroke-linecap:round; stroke-linejoin:round; stroke-width:2; stroke-opacity:0.1; fill:none" points="
  1304.14,1332.46 1304.14,47.2441 
  "/>
<polyline clip-path="url(#clip832)" style="stroke:#000000; stroke-linecap:round; stroke-linejoin:round; stroke-width:2; stroke-opacity:0.1; fill:none" points="
  430.3,1332.46 430.3,47.2441 
  "/>
<polyline clip-path="url(#clip830)" style="stroke:#000000; stroke-linecap:round; stroke-linejoin:round; stroke-width:4; stroke-opacity:1; fill:none" points="
  255.532,1332.46 2352.76,1332.46 
  "/>
<polyline clip-path="url(#clip830)" style="stroke:#000000; stroke-linecap:round; stroke-linejoin:round; stroke-width:4; stroke-opacity:1; fill:none" points="
  2177.99,1332.46 2177.99,1313.56 
  "/>
<polyline clip-path="url(#clip830)" style="stroke:#000000; stroke-linecap:round; stroke-linejoin:round; stroke-width:4; stroke-opacity:1; fill:none" points="
  1304.14,1332.46 1304.14,1313.56 
  "/>
<polyline clip-path="url(#clip830)" style="stroke:#000000; stroke-linecap:round; stroke-linejoin:round; stroke-width:4; stroke-opacity:1; fill:none" points="
  430.3,1332.46 430.3,1313.56 
  "/>
<path clip-path="url(#clip830)" d="M2159.76 1367.86 L2194.18 1367.86 L2194.18 1375.24 L2167.79 1375.24 L2167.79 1391.12 Q2169.7 1390.47 2171.61 1390.17 Q2173.52 1389.82 2175.43 1389.82 Q2186.28 1389.82 2192.61 1395.77 Q2198.95 1401.71 2198.95 1411.87 Q2198.95 1422.33 2192.44 1428.15 Q2185.93 1433.92 2174.08 1433.92 Q2170 1433.92 2165.75 1433.22 Q2161.54 1432.53 2157.02 1431.14 L2157.02 1422.33 Q2160.93 1424.46 2165.1 1425.5 Q2169.26 1426.54 2173.91 1426.54 Q2181.42 1426.54 2185.8 1422.59 Q2190.18 1418.64 2190.18 1411.87 Q2190.18 1405.1 2185.8 1401.15 Q2181.42 1397.2 2173.91 1397.2 Q2170.39 1397.2 2166.88 1397.98 Q2163.4 1398.76 2159.76 1400.41 L2159.76 1367.86 Z" fill="#000000" fill-rule="evenodd" fill-opacity="1" /><path clip-path="url(#clip830)" d="M1304.14 1373.63 Q1297.37 1373.63 1293.94 1380.32 Q1290.56 1386.96 1290.56 1400.32 Q1290.56 1413.65 1293.94 1420.33 Q1297.37 1426.97 1304.14 1426.97 Q1310.96 1426.97 1314.34 1420.33 Q1317.77 1413.65 1317.77 1400.32 Q1317.77 1386.96 1314.34 1380.32 Q1310.96 1373.63 1304.14 1373.63 M1304.14 1366.69 Q1315.04 1366.69 1320.77 1375.33 Q1326.54 1383.92 1326.54 1400.32 Q1326.54 1416.69 1320.77 1425.32 Q1315.04 1433.92 1304.14 1433.92 Q1293.25 1433.92 1287.48 1425.32 Q1281.75 1416.69 1281.75 1400.32 Q1281.75 1383.92 1287.48 1375.33 Q1293.25 1366.69 1304.14 1366.69 Z" fill="#000000" fill-rule="evenodd" fill-opacity="1" /><path clip-path="url(#clip830)" d="M373.378 1401.11 L429.02 1401.11 L429.02 1408.48 L373.378 1408.48 L373.378 1401.11 Z" fill="#000000" fill-rule="evenodd" fill-opacity="1" /><path clip-path="url(#clip830)" d="M448.03 1367.86 L482.448 1367.86 L482.448 1375.24 L456.06 1375.24 L456.06 1391.12 Q457.969 1390.47 459.879 1390.17 Q461.789 1389.82 463.699 1389.82 Q474.549 1389.82 480.886 1395.77 Q487.223 1401.71 487.223 1411.87 Q487.223 1422.33 480.712 1428.15 Q474.202 1433.92 462.353 1433.92 Q458.273 1433.92 454.02 1433.22 Q449.81 1432.53 445.296 1431.14 L445.296 1422.33 Q449.202 1424.46 453.369 1425.5 Q457.535 1426.54 462.179 1426.54 Q469.688 1426.54 474.072 1422.59 Q478.455 1418.64 478.455 1411.87 Q478.455 1405.1 474.072 1401.15 Q469.688 1397.2 462.179 1397.2 Q458.664 1397.2 455.148 1397.98 Q451.676 1398.76 448.03 1400.41 L448.03 1367.86 Z" fill="#000000" fill-rule="evenodd" fill-opacity="1" /><path clip-path="url(#clip830)" d="M1346.57 1506.65 Q1346.57 1513.46 1343.13 1526.64 Q1341.74 1532.35 1339.83 1537.54 Q1338 1542.67 1335.3 1547.64 Q1332.59 1552.62 1329.44 1556.21 Q1326.29 1559.72 1322.19 1561.92 Q1318.09 1564.11 1313.56 1564.11 Q1306.38 1564.11 1302.14 1559.87 Q1297.97 1555.55 1296.65 1548.16 Q1286.84 1564.11 1273.74 1564.11 Q1265.61 1564.11 1261.81 1558.33 Q1258 1552.47 1258 1542.67 Q1258 1534.39 1260.2 1525.83 Q1264.37 1509.58 1272.49 1498.24 Q1273.59 1496.92 1275.2 1496.92 Q1276.15 1496.92 1276.59 1497.21 Q1277.91 1498.02 1277.91 1499.33 Q1277.91 1500.29 1277.18 1501.24 Q1272.05 1508.34 1268.69 1514.41 Q1265.32 1520.49 1263.78 1526.64 Q1262.61 1531.91 1262.61 1536.37 Q1262.61 1543.91 1265.83 1548.59 Q1269.13 1553.28 1275.64 1553.28 Q1281.64 1553.28 1286.91 1549.55 Q1292.18 1545.74 1296.06 1539.37 Q1296.28 1532.42 1297.97 1525.83 Q1299.5 1518.8 1303.09 1518.8 Q1305.94 1518.8 1305.94 1522.68 Q1305.94 1524 1305.36 1526.64 Q1303.75 1533.59 1300.82 1539.81 Q1301.84 1545.89 1305.65 1549.62 Q1309.46 1553.28 1315.53 1553.28 Q1321.17 1553.28 1326.15 1549.18 Q1331.2 1545.08 1334.42 1539.08 Q1337.71 1533 1339.54 1525.83 Q1340.13 1523.42 1340.13 1520.34 Q1340.13 1512.14 1334.42 1507.09 Q1332.81 1505.48 1332.81 1503.36 Q1332.81 1500.87 1334.86 1498.6 Q1337.27 1496.19 1340.13 1496.19 Q1342.25 1496.19 1343.57 1497.5 Q1346.57 1500.14 1346.57 1506.65 Z" fill="#000000" fill-rule="evenodd" fill-opacity="1" /><polyline clip-path="url(#clip832)" style="stroke:#000000; stroke-linecap:round; stroke-linejoin:round; stroke-width:2; stroke-opacity:0.1; fill:none" points="
  255.532,281.657 2352.76,281.657 
  "/>
<polyline clip-path="url(#clip832)" style="stroke:#000000; stroke-linecap:round; stroke-linejoin:round; stroke-width:2; stroke-opacity:0.1; fill:none" points="
  255.532,1296.09 2352.76,1296.09 
  "/>
<polyline clip-path="url(#clip830)" style="stroke:#000000; stroke-linecap:round; stroke-linejoin:round; stroke-width:4; stroke-opacity:1; fill:none" points="
  255.532,1332.46 255.532,47.2441 
  "/>
<polyline clip-path="url(#clip830)" style="stroke:#000000; stroke-linecap:round; stroke-linejoin:round; stroke-width:4; stroke-opacity:1; fill:none" points="
  255.532,281.657 274.429,281.657 
  "/>
<polyline clip-path="url(#clip830)" style="stroke:#000000; stroke-linecap:round; stroke-linejoin:round; stroke-width:4; stroke-opacity:1; fill:none" points="
  255.532,1296.09 274.429,1296.09 
  "/>
<path clip-path="url(#clip830)" d="M206.164 279.118 Q212.457 280.463 215.973 284.717 Q219.532 288.97 219.532 295.22 Q219.532 304.812 212.934 310.064 Q206.337 315.316 194.184 315.316 Q190.105 315.316 185.764 314.491 Q181.468 313.71 176.867 312.104 L176.867 303.64 Q180.513 305.767 184.853 306.852 Q189.193 307.937 193.924 307.937 Q202.171 307.937 206.467 304.682 Q210.808 301.427 210.808 295.22 Q210.808 289.491 206.771 286.279 Q202.778 283.024 195.617 283.024 L188.065 283.024 L188.065 275.819 L195.964 275.819 Q202.431 275.819 205.86 273.259 Q209.289 270.654 209.289 265.793 Q209.289 260.802 205.73 258.154 Q202.214 255.464 195.617 255.464 Q192.014 255.464 187.891 256.245 Q183.768 257.026 178.82 258.675 L178.82 250.863 Q183.811 249.474 188.152 248.78 Q192.535 248.085 196.398 248.085 Q206.381 248.085 212.197 252.642 Q218.012 257.156 218.012 264.882 Q218.012 270.264 214.931 273.996 Q211.849 277.686 206.164 279.118 Z" fill="#000000" fill-rule="evenodd" fill-opacity="1" /><path clip-path="url(#clip830)" d="M197.136 1269.46 Q190.365 1269.46 186.936 1276.14 Q183.551 1282.78 183.551 1296.15 Q183.551 1309.48 186.936 1316.16 Q190.365 1322.8 197.136 1322.8 Q203.95 1322.8 207.335 1316.16 Q210.764 1309.48 210.764 1296.15 Q210.764 1282.78 207.335 1276.14 Q203.95 1269.46 197.136 1269.46 M197.136 1262.51 Q208.03 1262.51 213.759 1271.15 Q219.532 1279.74 219.532 1296.15 Q219.532 1312.51 213.759 1321.15 Q208.03 1329.74 197.136 1329.74 Q186.242 1329.74 180.469 1321.15 Q174.74 1312.51 174.74 1296.15 Q174.74 1279.74 180.469 1271.15 Q186.242 1262.51 197.136 1262.51 Z" fill="#000000" fill-rule="evenodd" fill-opacity="1" /><path clip-path="url(#clip830)" d="M48.927 657.422 Q59.7599 657.422 69.934 662.985 Q80.1081 668.474 86.2565 677.111 Q92.4049 685.675 92.4049 694.312 Q92.4049 704.047 82.304 709.098 Q118.975 718.247 119.926 718.759 Q123.074 720.882 123.074 723.956 Q123.074 725.859 121.903 727.03 Q120.805 728.202 119.048 728.202 Q118.462 728.128 116.632 727.689 L57.7104 713.05 Q44.0229 709.683 34.288 699.509 Q24.4798 689.262 24.4798 678.282 Q24.4798 669.572 30.9942 663.497 Q37.5085 657.422 48.927 657.422 M42.4858 668.182 Q35.1663 668.182 31.5065 671.109 Q27.7736 674.037 27.7736 678.575 Q27.7736 682.747 31.1406 687.798 Q34.5075 692.775 41.9734 697.167 Q46.292 699.509 51.6352 701.193 Q56.9784 702.876 70.1536 706.17 Q75.4236 707.341 75.7164 707.341 Q76.302 707.341 77.6195 707.048 Q78.937 706.682 80.9865 705.804 Q82.9627 704.852 84.7194 703.535 Q86.4761 702.217 87.7936 699.802 Q89.0379 697.386 89.0379 694.459 Q89.0379 689.921 85.3782 685.09 Q81.6452 680.186 74.8381 676.599 Q69.3484 673.598 59.0279 670.89 Q48.6342 668.182 42.4858 668.182 Z" fill="#000000" fill-rule="evenodd" fill-opacity="1" /><polyline clip-path="url(#clip832)" style="stroke:#009af9; stroke-linecap:round; stroke-linejoin:round; stroke-width:12; stroke-opacity:1; fill:none" points="
  -443.543,1296.09 -440.044,1296.09 -436.545,1296.09 -433.047,1296.09 -429.548,1296.09 -426.049,1296.09 -422.55,1296.09 -419.051,1296.09 -415.552,1296.09 -412.053,1296.09 
  -408.554,1296.09 -405.056,1296.09 -401.557,1296.09 -398.058,1296.09 -394.559,1296.09 -391.06,1296.09 -387.561,1296.09 -384.062,1296.09 -380.563,1296.09 -377.065,1296.09 
  -373.566,1296.09 -370.067,1296.09 -366.568,1296.09 -363.069,1296.09 -359.57,1296.09 -356.071,1296.09 -352.572,1296.09 -349.074,1296.09 -345.575,1296.09 -342.076,1296.09 
  -338.577,1296.09 -335.078,1296.09 -331.579,1296.09 -328.08,1296.09 -324.582,1296.09 -321.083,1296.09 -317.584,1296.09 -314.085,1296.09 -310.586,1296.09 -307.087,1296.09 
  -303.588,1296.09 -300.089,1296.09 -296.591,1296.09 -293.092,1296.09 -289.593,1296.09 -286.094,1296.09 -282.595,1296.09 -279.096,1296.09 -275.597,1296.09 -272.098,1296.09 
  -268.6,1296.09 -265.101,1296.09 -261.602,1296.09 -258.103,1296.09 -254.604,1296.09 -251.105,1296.09 -247.606,1296.09 -244.107,1296.09 -240.609,1296.09 -237.11,1296.09 
  -233.611,1296.09 -230.112,1296.09 -226.613,1296.09 -223.114,1296.09 -219.615,1296.09 -216.116,1296.09 -212.618,1296.09 -209.119,1296.09 -205.62,1296.09 -202.121,1296.09 
  -198.622,1296.09 -195.123,1296.09 -191.624,1296.09 -188.125,1296.09 -184.627,1296.09 -181.128,1296.09 -177.629,1296.09 -174.13,1296.09 -170.631,1296.09 -167.132,1296.09 
  -163.633,1296.09 -160.134,1296.09 -156.636,1296.09 -153.137,1296.09 -149.638,1296.09 -146.139,1296.09 -142.64,1296.09 -139.141,1296.09 -135.642,1296.09 -132.144,1296.09 
  -128.645,1296.09 -125.146,1296.09 -121.647,1296.09 -118.148,1296.09 -114.649,1296.09 -111.15,1296.09 -107.651,1296.09 -104.153,1296.09 -100.654,1296.09 -97.1548,1296.09 
  -93.6559,1296.09 -90.157,1296.09 -86.6582,1296.09 -83.1593,1296.09 -79.6604,1296.09 -76.1616,1296.09 -72.6627,1296.09 -69.1638,1296.09 -65.6649,1296.09 -62.1661,1296.09 
  -58.6672,1296.09 -55.1683,1296.09 -51.6694,1296.09 -48.1706,1296.09 -44.6717,1296.09 -41.1728,1296.09 -37.674,1296.09 -34.1751,1296.09 -30.6762,1296.09 -27.1773,1296.09 
  -23.6785,1296.09 -20.1796,1296.09 -16.6807,1296.09 -13.1818,1296.09 -9.68297,1296.09 -6.1841,1296.09 -2.68522,1296.09 0.813649,1296.09 4.31252,1296.09 7.81139,1296.09 
  11.3103,1296.09 14.8091,1296.09 18.308,1296.09 21.8069,1296.09 25.3058,1296.09 28.8046,1296.09 32.3035,1296.09 35.8024,1296.09 39.3012,1296.09 42.8001,1296.09 
  46.299,1296.09 49.7979,1296.09 53.2967,1296.09 56.7956,1296.09 60.2945,1296.09 63.7934,1296.09 67.2922,1296.09 70.7911,1296.09 74.29,1296.09 77.7888,1296.09 
  81.2877,1296.09 84.7866,1296.09 88.2855,1296.09 91.7843,1296.09 95.2832,1296.09 98.7821,1296.09 102.281,1296.09 105.78,1296.09 109.279,1296.09 112.778,1296.09 
  116.276,1296.09 119.775,1296.09 123.274,1296.09 126.773,1296.09 130.272,1296.09 133.771,1296.09 137.27,1296.09 140.769,1296.09 144.267,1296.09 147.766,1296.09 
  151.265,1296.09 154.764,1296.09 158.263,1296.09 161.762,1296.09 165.261,1296.09 168.76,1296.09 172.258,1296.09 175.757,1296.09 179.256,1296.09 182.755,1296.09 
  186.254,1296.09 189.753,1296.09 193.252,1296.09 196.751,1296.09 200.249,1296.09 203.748,1296.09 207.247,1296.09 210.746,1296.09 214.245,1296.09 217.744,1296.09 
  221.243,1296.09 224.742,1296.09 228.24,1296.09 231.739,1296.09 235.238,1296.09 238.737,1296.09 242.236,1296.09 245.735,1296.09 249.234,1296.09 252.732,1296.09 
  256.231,1296.09 259.73,1296.09 263.229,1296.09 266.728,1296.09 270.227,1296.09 273.726,1296.09 277.225,1296.09 280.723,1296.09 284.222,1296.09 287.721,1296.09 
  291.22,1296.09 294.719,1296.09 298.218,1296.09 301.717,1296.09 305.216,1296.09 308.714,1296.09 312.213,1296.09 315.712,1296.09 319.211,1296.09 322.71,1296.09 
  326.209,1296.09 329.708,1296.09 333.207,1296.09 336.705,1296.09 340.204,1296.08 343.703,1296.08 347.202,1296.08 350.701,1296.08 354.2,1296.07 357.699,1295.33 
  361.198,1296.06 364.696,1296.08 368.195,1296.08 371.694,1296.08 375.193,1296.08 378.692,1296.08 382.191,1296.08 385.69,1296.08 389.189,1296.08 392.687,1296.08 
  396.186,1296.08 399.685,1296.08 403.184,1296.08 406.683,1296.08 410.182,1296.08 413.681,1296.08 417.18,1296.08 420.678,1296.08 424.177,1296.08 427.676,1296.08 
  431.175,1296.08 434.674,1296.08 438.173,1296.08 441.672,1296.08 445.17,1296.08 448.669,1296.08 452.168,1296.08 455.667,1296.08 459.166,1296.08 462.665,1296.08 
  466.164,1296.08 469.663,1296.08 473.161,1296.08 476.66,1296.08 480.159,1296.08 483.658,1296.08 487.157,1296.08 490.656,1296.08 494.155,1296.08 497.654,1296.08 
  501.152,1296.08 504.651,1296.08 508.15,1296.08 511.649,1296.07 515.148,1296.07 518.647,1296.06 522.146,1296.05 525.645,1296.02 529.143,1295.96 532.642,1295.68 
  536.141,1291.53 539.64,1293.78 543.139,1295.71 546.638,1295.93 550.137,1296 553.636,1296.03 557.134,1296.04 560.633,1296.05 564.132,1296.06 567.631,1296.06 
  571.13,1296.06 574.629,1296.06 578.128,1296.07 581.627,1296.07 585.125,1296.07 588.624,1296.07 592.123,1296.07 595.622,1296.07 599.121,1296.07 602.62,1296.07 
  606.119,1296.07 609.618,1296.07 613.116,1296.06 616.615,1296.06 620.114,1296.06 623.613,1296.06 627.112,1296.05 630.611,1296.05 634.11,1296.04 637.608,1296.04 
  641.107,1296.03 644.606,1296.01 648.105,1295.99 651.604,1295.97 655.103,1295.93 658.602,1295.86 662.101,1295.75 665.599,1295.53 669.098,1295.02 672.597,1293.4 
  676.096,1282.24 679.595,1190.92 683.094,1289.45 686.593,1293.91 690.092,1294.97 693.59,1295.39 697.089,1295.59 700.588,1295.71 704.087,1295.78 707.586,1295.82 
  711.085,1295.86 714.584,1295.88 718.083,1295.89 721.581,1295.9 725.08,1295.91 728.579,1295.91 732.078,1295.91 735.577,1295.9 739.076,1295.9 742.575,1295.88 
  746.074,1295.87 749.572,1295.85 753.071,1295.82 756.57,1295.78 760.069,1295.73 763.568,1295.66 767.067,1295.56 770.566,1295.41 774.065,1295.19 777.563,1294.82 
  781.062,1294.16 784.561,1292.82 788.06,1289.42 791.559,1276.41 795.058,1114.06 798.557,1188.62 802.056,1278.27 805.554,1288.87 809.053,1292.06 812.552,1293.44 
  816.051,1294.15 819.55,1294.57 823.049,1294.82 826.548,1294.99 830.046,1295.1 833.545,1295.17 837.044,1295.21 840.543,1295.23 844.042,1295.23 847.541,1295.2 
  851.04,1295.16 854.539,1295.08 858.037,1294.97 861.536,1294.81 865.035,1294.58 868.534,1294.25 872.033,1293.75 875.532,1292.94 879.031,1291.53 882.53,1288.82 
  886.028,1282.55 889.527,1262.54 893.026,1126.16 896.525,616.118 900.024,1229.11 903.523,1273.22 907.022,1284.27 910.521,1288.62 914.019,1290.75 917.518,1291.94 
  921.017,1292.65 924.516,1293.09 928.015,1293.36 931.514,1293.51 935.013,1293.55 938.512,1293.51 942.01,1293.38 945.509,1293.13 949.008,1292.73 952.507,1292.11 
  956.006,1291.14 959.505,1289.52 963.004,1286.63 966.503,1280.83 970.001,1266.5 973.5,1214.63 976.999,739.269 980.498,867.415 983.997,1219.12 987.496,1264.93 
  990.995,1278.64 994.494,1284.44 997.992,1287.37 1001.49,1289 1004.99,1289.92 1008.49,1290.4 1011.99,1290.56 1015.49,1290.44 1018.99,1290.01 1022.48,1289.17 
  1025.98,1287.69 1029.48,1285.11 1032.98,1280.23 1036.48,1269.7 1039.98,1240.72 1043.48,1110.01 1046.98,83.6181 1050.48,1070.98 1053.97,1230.6 1057.47,1264.31 
  1060.97,1276.3 1064.47,1281.72 1067.97,1284.44 1071.47,1285.76 1074.97,1286.17 1078.47,1285.81 1081.97,1284.54 1085.46,1281.89 1088.96,1276.57 1092.46,1264.82 
  1095.96,1232.31 1099.46,1090.58 1102.96,400.748 1106.46,1085.27 1109.96,1227.95 1113.46,1261.14 1116.95,1273.06 1120.45,1278.15 1123.95,1280.15 1127.45,1280.14 
  1130.95,1278.07 1134.45,1272.69 1137.95,1259.67 1141.45,1221.44 1144.95,1051.24 1148.44,747.857 1151.94,1152.27 1155.44,1239.28 1158.94,1262.89 1162.44,1271.17 
  1165.94,1273.35 1169.44,1271.12 1172.94,1262.36 1176.43,1236 1179.93,1134.14 1183.43,901.195 1186.93,1155.3 1190.43,1238.65 1193.93,1260.31 1197.43,1265.59 
  1200.93,1261.48 1204.43,1241.56 1207.92,1164.38 1211.42,1027.57 1214.92,1188.71 1218.42,1245.56 1221.92,1257.9 1225.42,1251.57 1228.92,1211.85 1232.42,1101.11 
  1235.92,1192.02 1239.41,1245.25 1242.91,1250.03 1246.41,1216.19 1249.91,1142.52 1253.41,1224.68 1256.91,1246.82 1260.41,1212.83 1263.91,1184.84 1267.41,1242.24 
  1270.9,1218.13 1274.4,1211.14 1277.9,1237.98 1281.4,1205.68 1284.9,1232.53 1288.4,1233.65 1291.9,1219.24 1295.4,1222.92 1298.9,1233.7 1302.39,1231.69 
  1305.89,1230.78 1309.39,1230.87 1312.89,1229.97 1316.39,1230.98 1319.89,1222.38 1323.39,1246.97 1326.89,1238.1 1330.39,1247.07 1333.88,1231.74 1337.38,1260.81 
  1340.88,1224.4 1344.38,1247.42 1347.88,1267.64 1351.38,1247.87 1354.88,1212.79 1358.38,1264.82 1361.88,1274.78 1365.37,1265.26 1368.87,1212.55 1372.37,1239.37 
  1375.87,1274.64 1379.37,1281.4 1382.87,1279.46 1386.37,1264.22 1389.87,1198.71 1393.36,1242.18 1396.86,1277.64 1400.36,1285.54 1403.86,1287.36 1407.36,1286.24 
  1410.86,1280.52 1414.36,1256.39 1417.86,1177.06 1421.36,1258.97 1424.85,1283.14 1428.35,1289.02 1431.85,1290.98 1435.35,1291.55 1438.85,1291.24 1442.35,1289.78 
  1445.85,1285.53 1449.35,1269.51 1452.85,1184.5 1456.34,1251.92 1459.84,1283.76 1463.34,1290.38 1466.84,1292.59 1470.34,1293.53 1473.84,1293.96 1477.34,1294.1 
  1480.84,1294.04 1484.34,1293.73 1487.83,1293.02 1491.33,1291.41 1494.83,1286.91 1498.33,1267.2 1501.83,1177.5 1505.33,1271.74 1508.83,1288.65 1512.33,1292.54 
  1515.83,1293.96 1519.32,1294.61 1522.82,1294.95 1526.32,1295.15 1529.82,1295.25 1533.32,1295.31 1536.82,1295.31 1540.32,1295.28 1543.82,1295.2 1547.32,1295.06 
  1550.81,1294.81 1554.31,1294.36 1557.81,1293.48 1561.31,1291.42 1564.81,1284.87 1568.31,1244.53 1571.81,1214.84 1575.31,1281.7 1578.81,1290.75 1582.3,1293.29 
  1585.8,1294.32 1589.3,1294.84 1592.8,1295.13 1596.3,1295.3 1599.8,1295.41 1603.3,1295.48 1606.8,1295.52 1610.3,1295.55 1613.79,1295.55 1617.29,1295.54 
  1620.79,1295.51 1624.29,1295.45 1627.79,1295.37 1631.29,1295.25 1634.79,1295.06 1638.29,1294.77 1641.78,1294.29 1645.28,1293.4 1648.78,1291.54 1652.28,1286.6 
  1655.78,1265.37 1659.28,986.386 1662.78,1235.89 1666.28,1281.71 1669.78,1289.71 1673.27,1292.41 1676.77,1293.63 1680.27,1294.28 1683.77,1294.66 1687.27,1294.9 
  1690.77,1295.06 1694.27,1295.16 1697.77,1295.22 1701.27,1295.26 1704.76,1295.28 1708.26,1295.27 1711.76,1295.24 1715.26,1295.19 1718.76,1295.1 1722.26,1294.98 
  1725.76,1294.8 1729.26,1294.54 1732.76,1294.14 1736.25,1293.5 1739.75,1292.4 1743.25,1290.25 1746.75,1285.25 1750.25,1268.75 1753.75,1140.02 1757.25,895.915 
  1760.75,1255.16 1764.25,1281.93 1767.74,1288.87 1771.24,1291.64 1774.74,1293.01 1778.24,1293.78 1781.74,1294.26 1785.24,1294.57 1788.74,1294.78 1792.24,1294.93 
  1795.74,1295.03 1799.23,1295.1 1802.73,1295.14 1806.23,1295.15 1809.73,1295.15 1813.23,1295.13 1816.73,1295.08 1820.23,1295.01 1823.73,1294.9 1827.23,1294.74 
  1830.72,1294.51 1834.22,1294.17 1837.72,1293.65 1841.22,1292.8 1844.72,1291.27 1848.22,1288.13 1851.72,1279.92 1855.22,1244.87 1858.72,462.217 1862.21,1179.18 
  1865.71,1272.47 1869.21,1286.32 1872.71,1290.75 1876.21,1292.7 1879.71,1293.73 1883.21,1294.33 1886.71,1294.71 1890.2,1294.96 1893.7,1295.14 1897.2,1295.26 
  1900.7,1295.36 1904.2,1295.42 1907.7,1295.47 1911.2,1295.5 1914.7,1295.53 1918.2,1295.54 1921.69,1295.54 1925.19,1295.53 1928.69,1295.51 1932.19,1295.47 
  1935.69,1295.42 1939.19,1295.35 1942.69,1295.24 1946.19,1295.08 1949.69,1294.85 1953.18,1294.48 1956.68,1293.84 1960.18,1292.6 1963.68,1289.66 1967.18,1279.48 
  1970.68,1175.22 1974.18,1151.9 1977.68,1280.01 1981.18,1290.5 1984.67,1293.31 1988.17,1294.44 1991.67,1295 1995.17,1295.32 1998.67,1295.51 2002.17,1295.64 
  2005.67,1295.72 2009.17,1295.79 2012.67,1295.83 2016.16,1295.87 2019.66,1295.89 2023.16,1295.91 2026.66,1295.93 2030.16,1295.94 2033.66,1295.95 2037.16,1295.96 
  2040.66,1295.96 2044.16,1295.96 2047.65,1295.96 2051.15,1295.96 2054.65,1295.96 2058.15,1295.95 2061.65,1295.94 2065.15,1295.93 2068.65,1295.91 2072.15,1295.88 
  2075.65,1295.84 2079.14,1295.78 2082.64,1295.67 2086.14,1295.47 2089.64,1295.02 2093.14,1293.6 2096.64,1282.83 2100.14,1242.75 2103.64,1292.67 2107.14,1295.04 
  2110.63,1295.6 2114.13,1295.81 2117.63,1295.91 2121.13,1295.97 2124.63,1296 2128.13,1296.02 2131.63,1296.04 2135.13,1296.05 2138.62,1296.05 2142.12,1296.06 
  2145.62,1296.06 2149.12,1296.07 2152.62,1296.07 2156.12,1296.07 2159.62,1296.07 2163.12,1296.07 2166.62,1296.08 2170.11,1296.08 2173.61,1296.08 2177.11,1296.08 
  2180.61,1296.08 2184.11,1296.08 2187.61,1296.08 2191.11,1296.08 2194.61,1296.08 2198.11,1296.08 2201.6,1296.08 2205.1,1296.08 2208.6,1296.08 2212.1,1296.08 
  2215.6,1296.08 2219.1,1296.08 2222.6,1296.08 2226.1,1296.08 2229.6,1296.07 2233.09,1296.07 2236.59,1296.06 2240.09,1296.05 2243.59,1296.02 2247.09,1295.84 
  2250.59,1285.01 2254.09,1295.9 2257.59,1296.04 2261.09,1296.07 2264.58,1296.08 2268.08,1296.08 2271.58,1296.08 2275.08,1296.08 2278.58,1296.08 2282.08,1296.08 
  2285.58,1296.08 2289.08,1296.08 2292.58,1296.08 2296.07,1296.08 2299.57,1296.08 2303.07,1296.09 2306.57,1296.09 2310.07,1296.09 2313.57,1296.09 2317.07,1296.09 
  2320.57,1296.09 2324.07,1296.09 2327.56,1296.09 2331.06,1296.09 2334.56,1296.09 2338.06,1296.09 2341.56,1296.09 2345.06,1296.09 2348.56,1296.09 2352.06,1296.09 
  2355.56,1296.09 2359.05,1296.09 2362.55,1296.09 2366.05,1296.09 2369.55,1296.09 2373.05,1296.09 2376.55,1296.09 2380.05,1296.09 2383.55,1296.09 2387.04,1296.09 
  2390.54,1296.09 2394.04,1296.09 2397.54,1296.09 2401.04,1296.09 2404.54,1296.09 2408.04,1296.09 2411.54,1296.09 2415.04,1296.09 2418.53,1296.09 2422.03,1296.09 
  2425.53,1296.09 2429.03,1296.09 2432.53,1296.09 2436.03,1296.09 2439.53,1296.09 2443.03,1296.09 2446.53,1296.09 2450.02,1296.09 2453.52,1296.09 2457.02,1296.09 
  2460.52,1296.09 2464.02,1296.09 2467.52,1296.09 2471.02,1296.09 2474.52,1296.09 2478.02,1296.09 2481.51,1296.09 2485.01,1296.09 2488.51,1296.09 2492.01,1296.09 
  2495.51,1296.09 2499.01,1296.09 2502.51,1296.09 2506.01,1296.09 2509.51,1296.09 2513,1296.09 2516.5,1296.09 2520,1296.09 2523.5,1296.09 2527,1296.09 
  2530.5,1296.09 2534,1296.09 2537.5,1296.09 2541,1296.09 2544.49,1296.09 2547.99,1296.09 2551.49,1296.09 2554.99,1296.09 2558.49,1296.09 2561.99,1296.09 
  2565.49,1296.09 2568.99,1296.09 2572.49,1296.09 2575.98,1296.09 2579.48,1296.09 2582.98,1296.09 2586.48,1296.09 2589.98,1296.09 2593.48,1296.09 2596.98,1296.09 
  2600.48,1296.09 2603.97,1296.09 2607.47,1296.09 2610.97,1296.09 2614.47,1296.09 2617.97,1296.09 2621.47,1296.09 2624.97,1296.09 2628.47,1296.09 2631.97,1296.09 
  2635.46,1296.09 2638.96,1296.09 2642.46,1296.09 2645.96,1296.09 2649.46,1296.09 2652.96,1296.09 2656.46,1296.09 2659.96,1296.09 2663.46,1296.09 2666.95,1296.09 
  2670.45,1296.09 2673.95,1296.09 2677.45,1296.09 2680.95,1296.09 2684.45,1296.09 2687.95,1296.09 2691.45,1296.09 2694.95,1296.09 2698.44,1296.09 2701.94,1296.09 
  2705.44,1296.09 2708.94,1296.09 2712.44,1296.09 2715.94,1296.09 2719.44,1296.09 2722.94,1296.09 2726.44,1296.09 2729.93,1296.09 2733.43,1296.09 2736.93,1296.09 
  2740.43,1296.09 2743.93,1296.09 2747.43,1296.09 2750.93,1296.09 2754.43,1296.09 2757.93,1296.09 2761.42,1296.09 2764.92,1296.09 2768.42,1296.09 2771.92,1296.09 
  2775.42,1296.09 2778.92,1296.09 2782.42,1296.09 2785.92,1296.09 2789.42,1296.09 2792.91,1296.09 2796.41,1296.09 2799.91,1296.09 2803.41,1296.09 2806.91,1296.09 
  2810.41,1296.09 2813.91,1296.09 2817.41,1296.09 2820.91,1296.09 2824.4,1296.09 2827.9,1296.09 2831.4,1296.09 2834.9,1296.09 2838.4,1296.09 2841.9,1296.09 
  2845.4,1296.09 2848.9,1296.09 2852.39,1296.09 2855.89,1296.09 2859.39,1296.09 2862.89,1296.09 2866.39,1296.09 2869.89,1296.09 2873.39,1296.09 2876.89,1296.09 
  2880.39,1296.09 2883.88,1296.09 2887.38,1296.09 2890.88,1296.09 2894.38,1296.09 2897.88,1296.09 2901.38,1296.09 2904.88,1296.09 2908.38,1296.09 2911.88,1296.09 
  2915.37,1296.09 2918.87,1296.09 2922.37,1296.09 2925.87,1296.09 2929.37,1296.09 2932.87,1296.09 2936.37,1296.09 2939.87,1296.09 2943.37,1296.09 2946.86,1296.09 
  2950.36,1296.09 2953.86,1296.09 2957.36,1296.09 2960.86,1296.09 2964.36,1296.09 2967.86,1296.09 2971.36,1296.09 2974.86,1296.09 2978.35,1296.09 2981.85,1296.09 
  2985.35,1296.09 2988.85,1296.09 2992.35,1296.09 2995.85,1296.09 2999.35,1296.09 3002.85,1296.09 3006.35,1296.09 3009.84,1296.09 3013.34,1296.09 3016.84,1296.09 
  3020.34,1296.09 3023.84,1296.09 3027.34,1296.09 3030.84,1296.09 3034.34,1296.09 3037.84,1296.09 3041.33,1296.09 3044.83,1296.09 3048.33,1296.09 3051.83,1296.09 
  
  "/>
<polyline clip-path="url(#clip832)" style="stroke:#e26f46; stroke-linecap:round; stroke-linejoin:round; stroke-width:12; stroke-opacity:1; fill:none" points="
  -443.543,1296.09 -440.044,1296.09 -436.545,1296.09 -433.047,1296.09 -429.548,1296.09 -426.049,1296.09 -422.55,1296.09 -419.051,1296.09 -415.552,1296.09 -412.053,1296.09 
  -408.554,1296.09 -405.056,1296.09 -401.557,1296.09 -398.058,1296.09 -394.559,1296.09 -391.06,1296.09 -387.561,1296.09 -384.062,1296.09 -380.563,1296.09 -377.065,1296.09 
  -373.566,1296.09 -370.067,1296.09 -366.568,1296.09 -363.069,1296.09 -359.57,1296.09 -356.071,1296.09 -352.572,1296.09 -349.074,1296.09 -345.575,1296.09 -342.076,1296.09 
  -338.577,1296.09 -335.078,1296.09 -331.579,1296.09 -328.08,1296.09 -324.582,1296.09 -321.083,1296.09 -317.584,1296.09 -314.085,1296.09 -310.586,1296.09 -307.087,1296.09 
  -303.588,1296.09 -300.089,1296.09 -296.591,1296.09 -293.092,1296.09 -289.593,1296.09 -286.094,1296.09 -282.595,1296.09 -279.096,1296.09 -275.597,1296.09 -272.098,1296.09 
  -268.6,1296.09 -265.101,1296.09 -261.602,1296.09 -258.103,1296.09 -254.604,1296.09 -251.105,1296.09 -247.606,1296.09 -244.107,1296.09 -240.609,1296.09 -237.11,1296.09 
  -233.611,1296.09 -230.112,1296.09 -226.613,1296.09 -223.114,1296.09 -219.615,1296.09 -216.116,1296.09 -212.618,1296.09 -209.119,1296.09 -205.62,1296.09 -202.121,1296.09 
  -198.622,1296.09 -195.123,1296.09 -191.624,1296.09 -188.125,1296.09 -184.627,1296.09 -181.128,1296.09 -177.629,1296.09 -174.13,1296.09 -170.631,1296.09 -167.132,1296.09 
  -163.633,1296.09 -160.134,1296.09 -156.636,1296.09 -153.137,1296.09 -149.638,1296.09 -146.139,1296.09 -142.64,1296.09 -139.141,1296.09 -135.642,1296.09 -132.144,1296.09 
  -128.645,1296.09 -125.146,1296.09 -121.647,1296.09 -118.148,1296.09 -114.649,1296.09 -111.15,1296.09 -107.651,1296.09 -104.153,1296.09 -100.654,1296.09 -97.1548,1296.09 
  -93.6559,1296.09 -90.157,1296.09 -86.6582,1296.09 -83.1593,1296.09 -79.6604,1296.09 -76.1616,1296.09 -72.6627,1296.09 -69.1638,1296.09 -65.6649,1296.09 -62.1661,1296.09 
  -58.6672,1296.09 -55.1683,1296.09 -51.6694,1296.09 -48.1706,1296.09 -44.6717,1296.09 -41.1728,1296.09 -37.674,1296.09 -34.1751,1296.09 -30.6762,1296.09 -27.1773,1296.09 
  -23.6785,1296.09 -20.1796,1296.09 -16.6807,1296.09 -13.1818,1296.09 -9.68297,1296.09 -6.1841,1296.09 -2.68522,1296.09 0.813649,1296.09 4.31252,1296.09 7.81139,1296.09 
  11.3103,1296.09 14.8091,1296.09 18.308,1296.09 21.8069,1296.09 25.3058,1296.09 28.8046,1296.09 32.3035,1296.09 35.8024,1296.09 39.3012,1296.09 42.8001,1296.09 
  46.299,1296.09 49.7979,1296.09 53.2967,1296.09 56.7956,1296.09 60.2945,1296.09 63.7934,1296.09 67.2922,1296.09 70.7911,1296.09 74.29,1296.09 77.7888,1296.09 
  81.2877,1296.09 84.7866,1296.09 88.2855,1296.09 91.7843,1296.09 95.2832,1296.09 98.7821,1296.09 102.281,1296.09 105.78,1296.09 109.279,1296.09 112.778,1296.09 
  116.276,1296.09 119.775,1296.09 123.274,1296.09 126.773,1296.09 130.272,1296.09 133.771,1296.09 137.27,1296.09 140.769,1296.09 144.267,1296.09 147.766,1296.09 
  151.265,1296.09 154.764,1296.09 158.263,1296.09 161.762,1296.09 165.261,1296.09 168.76,1296.09 172.258,1296.09 175.757,1296.09 179.256,1296.09 182.755,1296.09 
  186.254,1296.09 189.753,1296.09 193.252,1296.09 196.751,1296.09 200.249,1296.09 203.748,1296.09 207.247,1296.09 210.746,1296.09 214.245,1296.09 217.744,1296.09 
  221.243,1296.09 224.742,1296.09 228.24,1296.09 231.739,1296.09 235.238,1296.09 238.737,1296.09 242.236,1296.09 245.735,1296.09 249.234,1296.09 252.732,1296.09 
  256.231,1296.09 259.73,1296.09 263.229,1296.09 266.728,1296.09 270.227,1296.09 273.726,1296.09 277.225,1296.09 280.723,1296.09 284.222,1296.09 287.721,1296.09 
  291.22,1296.09 294.719,1296.09 298.218,1296.09 301.717,1296.09 305.216,1296.09 308.714,1296.09 312.213,1296.08 315.712,1296.08 319.211,1296.08 322.71,1296.08 
  326.209,1296.08 329.708,1296.08 333.207,1296.08 336.705,1296.07 340.204,1296.03 343.703,1295.99 347.202,1296.05 350.701,1296.07 354.2,1296.08 357.699,1296.08 
  361.198,1296.08 364.696,1296.08 368.195,1296.08 371.694,1296.08 375.193,1296.08 378.692,1296.08 382.191,1296.08 385.69,1296.08 389.189,1296.08 392.687,1296.08 
  396.186,1296.08 399.685,1296.08 403.184,1296.08 406.683,1296.08 410.182,1296.08 413.681,1296.08 417.18,1296.08 420.678,1296.08 424.177,1296.08 427.676,1296.08 
  431.175,1296.08 434.674,1296.08 438.173,1296.08 441.672,1296.08 445.17,1296.08 448.669,1296.08 452.168,1296.08 455.667,1296.08 459.166,1296.08 462.665,1296.08 
  466.164,1296.08 469.663,1296.08 473.161,1296.08 476.66,1296.08 480.159,1296.07 483.658,1296.07 487.157,1296.07 490.656,1296.06 494.155,1296.05 497.654,1296.04 
  501.152,1296.03 504.651,1296 508.15,1295.95 511.649,1295.87 515.148,1295.66 518.647,1295.09 522.146,1293.3 525.645,1292.7 529.143,1294.67 532.642,1295.41 
  536.141,1295.69 539.64,1295.82 543.139,1295.89 546.638,1295.93 550.137,1295.96 553.636,1295.98 557.134,1295.99 560.633,1296 564.132,1296 567.631,1296.01 
  571.13,1296.01 574.629,1296.01 578.128,1296.01 581.627,1296.01 585.125,1296.01 588.624,1296.01 592.123,1296.01 595.622,1296 599.121,1296 602.62,1295.99 
  606.119,1295.98 609.618,1295.97 613.116,1295.96 616.615,1295.94 620.114,1295.92 623.613,1295.89 627.112,1295.85 630.611,1295.8 634.11,1295.74 637.608,1295.64 
  641.107,1295.5 644.606,1295.29 648.105,1294.94 651.604,1294.34 655.103,1293.16 658.602,1290.49 662.101,1283.28 665.599,1266.08 669.098,1269.13 672.597,1283.85 
  676.096,1289.8 679.595,1292.26 683.094,1293.46 686.593,1294.13 690.092,1294.53 693.59,1294.79 697.089,1294.97 700.588,1295.09 704.087,1295.17 707.586,1295.23 
  711.085,1295.26 714.584,1295.28 718.083,1295.29 721.581,1295.28 725.08,1295.25 728.579,1295.22 732.078,1295.16 735.577,1295.09 739.076,1294.98 742.575,1294.85 
  746.074,1294.67 749.572,1294.44 753.071,1294.11 756.57,1293.65 760.069,1292.99 763.568,1291.98 767.067,1290.36 770.566,1287.56 774.065,1282.25 777.563,1270.74 
  781.062,1242.44 784.561,1186.69 788.06,1195.4 791.559,1245.33 795.058,1269 798.557,1279.39 802.056,1284.57 805.554,1287.46 809.053,1289.21 812.552,1290.34 
  816.051,1291.08 819.55,1291.57 823.049,1291.9 826.548,1292.09 830.046,1292.18 833.545,1292.17 837.044,1292.08 840.543,1291.88 844.042,1291.57 847.541,1291.12 
  851.04,1290.47 854.539,1289.55 858.037,1288.24 861.536,1286.3 865.035,1283.32 868.534,1278.5 872.033,1270.09 875.532,1253.98 879.031,1219.63 882.53,1144.91 
  886.028,1062.87 889.527,1124.45 893.026,1203.24 896.525,1242.05 900.024,1260.74 903.523,1270.66 907.022,1276.39 910.521,1279.9 914.019,1282.12 917.518,1283.53 
  921.017,1284.36 924.516,1284.76 928.015,1284.78 931.514,1284.42 935.013,1283.66 938.512,1282.38 942.01,1280.41 945.509,1277.39 949.008,1272.72 952.507,1265.19 
  956.006,1252.32 959.505,1228.59 963.004,1181.41 966.503,1090.05 970.001,996.797 973.5,1053.82 976.999,1152.88 980.498,1209.3 983.997,1238.07 987.496,1253.59 
  990.995,1262.51 994.494,1267.82 997.992,1270.96 1001.49,1272.61 1004.99,1273.12 1008.49,1272.56 1011.99,1270.86 1015.49,1267.67 1018.99,1262.32 1022.48,1253.43 
  1025.98,1238.22 1029.48,1210.83 1032.98,1159.4 1036.48,1071.11 1039.98,997.502 1043.48,1049.74 1046.98,1139.77 1050.48,1196.01 1053.97,1226.27 1057.47,1242.83 
  1060.97,1252.09 1064.47,1257.05 1067.97,1259.09 1071.47,1258.7 1074.97,1255.76 1078.47,1249.5 1081.97,1238.05 1085.46,1217.51 1088.96,1180.29 1092.46,1117.05 
  1095.96,1048.34 1099.46,1058.02 1102.96,1129.13 1106.46,1185.19 1109.96,1217.09 1113.46,1234.19 1116.95,1242.79 1120.45,1245.87 1123.95,1244.35 1127.45,1237.68 
  1130.95,1223.52 1134.45,1196.95 1137.95,1151.77 1141.45,1099.77 1144.95,1097.72 1148.44,1148.04 1151.94,1193.09 1155.44,1219.07 1158.94,1231.67 1162.44,1235.37 
  1165.94,1231.46 1169.44,1218.38 1172.94,1192.06 1176.43,1152.69 1179.93,1130.39 1183.43,1157.32 1186.93,1195.67 1190.43,1218.98 1193.93,1228.08 1197.43,1225.76 
  1200.93,1211.15 1204.43,1183.04 1207.92,1159.87 1211.42,1176.27 1214.92,1206.78 1218.42,1223.23 1221.92,1223.82 1225.42,1208.7 1228.92,1183.84 1232.42,1185.21 
  1235.92,1211.64 1239.41,1225 1242.91,1217.86 1246.41,1195.61 1249.91,1199.67 1253.41,1223.05 1256.91,1223.33 1260.41,1201.99 1263.91,1213.94 1267.41,1228.52 
  1270.9,1208.74 1274.4,1222.69 1277.9,1223.65 1281.4,1220.07 1284.9,1223.12 1288.4,1231.02 1291.9,1225.07 1295.4,1226.62 1298.9,1231.03 1302.39,1230.76 
  1305.89,1230.9 1309.39,1231.51 1312.89,1232.31 1316.39,1233.41 1319.89,1231.27 1323.39,1241.14 1326.89,1238.32 1330.39,1242 1333.88,1238.02 1337.38,1249.86 
  1340.88,1236.77 1344.38,1245.4 1347.88,1255.39 1351.38,1245.07 1354.88,1238.12 1358.38,1255.21 1361.88,1262.07 1365.37,1255.13 1368.87,1239.92 1372.37,1246.31 
  1375.87,1262.79 1379.37,1269.33 1382.87,1267.51 1386.37,1257.18 1389.87,1242.51 1393.36,1248.47 1396.86,1265.16 1400.36,1274.23 1403.86,1277.24 1407.36,1276.15 
  1410.86,1270.52 1414.36,1258.51 1417.86,1246.25 1421.36,1254.31 1424.85,1269.67 1428.35,1278.56 1431.85,1282.7 1435.35,1284.26 1438.85,1284.1 1442.35,1282.18 
  1445.85,1277.64 1449.35,1268.73 1452.85,1256.38 1456.34,1255.51 1459.84,1268.72 1463.34,1279.22 1466.84,1284.8 1470.34,1287.67 1473.84,1289.13 1477.34,1289.78 
  1480.84,1289.87 1484.34,1289.41 1487.83,1288.29 1491.33,1286.11 1494.83,1282.06 1498.33,1274.84 1501.83,1265.37 1505.33,1264.05 1508.83,1273.67 1512.33,1282.23 
  1515.83,1287.11 1519.32,1289.77 1522.82,1291.28 1526.32,1292.17 1529.82,1292.7 1533.32,1293 1536.82,1293.13 1540.32,1293.12 1543.82,1292.97 1547.32,1292.66 
  1550.81,1292.14 1554.31,1291.28 1557.81,1289.89 1561.31,1287.55 1564.81,1283.49 1568.31,1276.58 1571.81,1267.62 1575.31,1264.99 1578.81,1272.52 1582.3,1280.69 
  1585.8,1285.87 1589.3,1288.87 1592.8,1290.64 1596.3,1291.74 1599.8,1292.45 1603.3,1292.91 1606.8,1293.2 1610.3,1293.38 1613.79,1293.47 1617.29,1293.47 
  1620.79,1293.4 1624.29,1293.25 1627.79,1293 1631.29,1292.63 1634.79,1292.07 1638.29,1291.25 1641.78,1290.02 1645.28,1288.08 1648.78,1284.88 1652.28,1279.23 
  1655.78,1268.54 1659.28,1248.31 1662.78,1221.84 1666.28,1223.23 1669.78,1248.72 1673.27,1267.26 1676.77,1277.31 1680.27,1282.82 1683.77,1286.05 1687.27,1288.05 
  1690.77,1289.34 1694.27,1290.2 1697.77,1290.77 1701.27,1291.14 1704.76,1291.35 1708.26,1291.43 1711.76,1291.39 1715.26,1291.24 1718.76,1290.95 1722.26,1290.5 
  1725.76,1289.85 1729.26,1288.92 1732.76,1287.56 1736.25,1285.56 1739.75,1282.49 1743.25,1277.51 1746.75,1268.86 1750.25,1252.43 1753.75,1218.33 1757.25,1151.32 
  1760.75,1102.81 1764.25,1164.38 1767.74,1224.23 1771.24,1253.95 1774.74,1268.68 1778.24,1276.68 1781.74,1281.4 1785.24,1284.38 1788.74,1286.35 1792.24,1287.69 
  1795.74,1288.63 1799.23,1289.27 1802.73,1289.7 1806.23,1289.97 1809.73,1290.09 1813.23,1290.09 1816.73,1289.95 1820.23,1289.68 1823.73,1289.24 1827.23,1288.59 
  1830.72,1287.66 1834.22,1286.34 1837.72,1284.42 1841.22,1281.56 1844.72,1277.09 1848.22,1269.65 1851.72,1256.17 1855.22,1228.98 1858.72,1168.83 1862.21,1063.36 
  1865.71,1072.42 1869.21,1178.39 1872.71,1234.93 1876.21,1260.21 1879.71,1272.7 1883.21,1279.58 1886.71,1283.72 1890.2,1286.36 1893.7,1288.15 1897.2,1289.39 
  1900.7,1290.28 1904.2,1290.93 1907.7,1291.4 1911.2,1291.75 1914.7,1291.99 1918.2,1292.14 1921.69,1292.22 1925.19,1292.23 1928.69,1292.17 1932.19,1292.04 
  1935.69,1291.82 1939.19,1291.48 1942.69,1291 1946.19,1290.32 1949.69,1289.35 1953.18,1287.92 1956.68,1285.72 1960.18,1282.16 1963.68,1275.91 1967.18,1263.66 
  1970.68,1236.64 1974.18,1179.31 1977.68,1153.67 1981.18,1219.29 1984.67,1259.35 1988.17,1276.11 1991.67,1283.86 1995.17,1287.92 1998.67,1290.26 2002.17,1291.72 
  2005.67,1292.68 2009.17,1293.34 2012.67,1293.82 2016.16,1294.16 2019.66,1294.42 2023.16,1294.62 2026.66,1294.77 2030.16,1294.89 2033.66,1294.98 2037.16,1295.04 
  2040.66,1295.09 2044.16,1295.13 2047.65,1295.15 2051.15,1295.15 2054.65,1295.14 2058.15,1295.12 2061.65,1295.08 2065.15,1295.01 2068.65,1294.92 2072.15,1294.79 
  2075.65,1294.6 2079.14,1294.32 2082.64,1293.9 2086.14,1293.23 2089.64,1292.07 2093.14,1289.85 2096.64,1285.03 2100.14,1274.49 2103.64,1267.65 2107.14,1280.6 
  2110.63,1289.05 2114.13,1292.45 2117.63,1293.96 2121.13,1294.73 2124.63,1295.16 2128.13,1295.42 2131.63,1295.59 2135.13,1295.7 2138.62,1295.78 2142.12,1295.84 
  2145.62,1295.88 2149.12,1295.92 2152.62,1295.94 2156.12,1295.96 2159.62,1295.98 2163.12,1295.99 2166.62,1296 2170.11,1296.01 2173.61,1296.01 2177.11,1296.02 
  2180.61,1296.02 2184.11,1296.03 2187.61,1296.03 2191.11,1296.03 2194.61,1296.04 2198.11,1296.04 2201.6,1296.04 2205.1,1296.04 2208.6,1296.04 2212.1,1296.03 
  2215.6,1296.03 2219.1,1296.03 2222.6,1296.02 2226.1,1296.02 2229.6,1296.01 2233.09,1295.99 2236.59,1295.97 2240.09,1295.92 2243.59,1295.85 2247.09,1295.69 
  2250.59,1295.35 2254.09,1295.02 2257.59,1295.45 2261.09,1295.8 2264.58,1295.95 2268.08,1296.01 2271.58,1296.04 2275.08,1296.06 2278.58,1296.07 2282.08,1296.07 
  2285.58,1296.07 2289.08,1296.08 2292.58,1296.08 2296.07,1296.08 2299.57,1296.08 2303.07,1296.08 2306.57,1296.08 2310.07,1296.08 2313.57,1296.08 2317.07,1296.08 
  2320.57,1296.08 2324.07,1296.08 2327.56,1296.08 2331.06,1296.08 2334.56,1296.08 2338.06,1296.08 2341.56,1296.09 2345.06,1296.09 2348.56,1296.09 2352.06,1296.09 
  2355.56,1296.09 2359.05,1296.09 2362.55,1296.09 2366.05,1296.09 2369.55,1296.09 2373.05,1296.09 2376.55,1296.09 2380.05,1296.09 2383.55,1296.09 2387.04,1296.09 
  2390.54,1296.09 2394.04,1296.09 2397.54,1296.09 2401.04,1296.09 2404.54,1296.09 2408.04,1296.09 2411.54,1296.09 2415.04,1296.09 2418.53,1296.09 2422.03,1296.09 
  2425.53,1296.09 2429.03,1296.09 2432.53,1296.09 2436.03,1296.09 2439.53,1296.09 2443.03,1296.09 2446.53,1296.09 2450.02,1296.09 2453.52,1296.09 2457.02,1296.09 
  2460.52,1296.09 2464.02,1296.09 2467.52,1296.09 2471.02,1296.09 2474.52,1296.09 2478.02,1296.09 2481.51,1296.09 2485.01,1296.09 2488.51,1296.09 2492.01,1296.09 
  2495.51,1296.09 2499.01,1296.09 2502.51,1296.09 2506.01,1296.09 2509.51,1296.09 2513,1296.09 2516.5,1296.09 2520,1296.09 2523.5,1296.09 2527,1296.09 
  2530.5,1296.09 2534,1296.09 2537.5,1296.09 2541,1296.09 2544.49,1296.09 2547.99,1296.09 2551.49,1296.09 2554.99,1296.09 2558.49,1296.09 2561.99,1296.09 
  2565.49,1296.09 2568.99,1296.09 2572.49,1296.09 2575.98,1296.09 2579.48,1296.09 2582.98,1296.09 2586.48,1296.09 2589.98,1296.09 2593.48,1296.09 2596.98,1296.09 
  2600.48,1296.09 2603.97,1296.09 2607.47,1296.09 2610.97,1296.09 2614.47,1296.09 2617.97,1296.09 2621.47,1296.09 2624.97,1296.09 2628.47,1296.09 2631.97,1296.09 
  2635.46,1296.09 2638.96,1296.09 2642.46,1296.09 2645.96,1296.09 2649.46,1296.09 2652.96,1296.09 2656.46,1296.09 2659.96,1296.09 2663.46,1296.09 2666.95,1296.09 
  2670.45,1296.09 2673.95,1296.09 2677.45,1296.09 2680.95,1296.09 2684.45,1296.09 2687.95,1296.09 2691.45,1296.09 2694.95,1296.09 2698.44,1296.09 2701.94,1296.09 
  2705.44,1296.09 2708.94,1296.09 2712.44,1296.09 2715.94,1296.09 2719.44,1296.09 2722.94,1296.09 2726.44,1296.09 2729.93,1296.09 2733.43,1296.09 2736.93,1296.09 
  2740.43,1296.09 2743.93,1296.09 2747.43,1296.09 2750.93,1296.09 2754.43,1296.09 2757.93,1296.09 2761.42,1296.09 2764.92,1296.09 2768.42,1296.09 2771.92,1296.09 
  2775.42,1296.09 2778.92,1296.09 2782.42,1296.09 2785.92,1296.09 2789.42,1296.09 2792.91,1296.09 2796.41,1296.09 2799.91,1296.09 2803.41,1296.09 2806.91,1296.09 
  2810.41,1296.09 2813.91,1296.09 2817.41,1296.09 2820.91,1296.09 2824.4,1296.09 2827.9,1296.09 2831.4,1296.09 2834.9,1296.09 2838.4,1296.09 2841.9,1296.09 
  2845.4,1296.09 2848.9,1296.09 2852.39,1296.09 2855.89,1296.09 2859.39,1296.09 2862.89,1296.09 2866.39,1296.09 2869.89,1296.09 2873.39,1296.09 2876.89,1296.09 
  2880.39,1296.09 2883.88,1296.09 2887.38,1296.09 2890.88,1296.09 2894.38,1296.09 2897.88,1296.09 2901.38,1296.09 2904.88,1296.09 2908.38,1296.09 2911.88,1296.09 
  2915.37,1296.09 2918.87,1296.09 2922.37,1296.09 2925.87,1296.09 2929.37,1296.09 2932.87,1296.09 2936.37,1296.09 2939.87,1296.09 2943.37,1296.09 2946.86,1296.09 
  2950.36,1296.09 2953.86,1296.09 2957.36,1296.09 2960.86,1296.09 2964.36,1296.09 2967.86,1296.09 2971.36,1296.09 2974.86,1296.09 2978.35,1296.09 2981.85,1296.09 
  2985.35,1296.09 2988.85,1296.09 2992.35,1296.09 2995.85,1296.09 2999.35,1296.09 3002.85,1296.09 3006.35,1296.09 3009.84,1296.09 3013.34,1296.09 3016.84,1296.09 
  3020.34,1296.09 3023.84,1296.09 3027.34,1296.09 3030.84,1296.09 3034.34,1296.09 3037.84,1296.09 3041.33,1296.09 3044.83,1296.09 3048.33,1296.09 3051.83,1296.09 
  
  "/>
<polyline clip-path="url(#clip832)" style="stroke:#3da44d; stroke-linecap:round; stroke-linejoin:round; stroke-width:12; stroke-opacity:1; fill:none" points="
  -443.543,1296.09 -440.044,1296.09 -436.545,1296.09 -433.047,1296.09 -429.548,1296.09 -426.049,1296.09 -422.55,1296.09 -419.051,1296.09 -415.552,1296.09 -412.053,1296.09 
  -408.554,1296.09 -405.056,1296.09 -401.557,1296.09 -398.058,1296.09 -394.559,1296.09 -391.06,1296.09 -387.561,1296.09 -384.062,1296.09 -380.563,1296.09 -377.065,1296.09 
  -373.566,1296.09 -370.067,1296.09 -366.568,1296.09 -363.069,1296.09 -359.57,1296.09 -356.071,1296.09 -352.572,1296.09 -349.074,1296.09 -345.575,1296.09 -342.076,1296.09 
  -338.577,1296.09 -335.078,1296.09 -331.579,1296.09 -328.08,1296.09 -324.582,1296.09 -321.083,1296.09 -317.584,1296.09 -314.085,1296.09 -310.586,1296.09 -307.087,1296.09 
  -303.588,1296.09 -300.089,1296.09 -296.591,1296.09 -293.092,1296.09 -289.593,1296.09 -286.094,1296.09 -282.595,1296.09 -279.096,1296.09 -275.597,1296.09 -272.098,1296.09 
  -268.6,1296.09 -265.101,1296.09 -261.602,1296.09 -258.103,1296.09 -254.604,1296.09 -251.105,1296.09 -247.606,1296.09 -244.107,1296.09 -240.609,1296.09 -237.11,1296.09 
  -233.611,1296.09 -230.112,1296.09 -226.613,1296.09 -223.114,1296.09 -219.615,1296.09 -216.116,1296.09 -212.618,1296.09 -209.119,1296.09 -205.62,1296.09 -202.121,1296.09 
  -198.622,1296.09 -195.123,1296.09 -191.624,1296.09 -188.125,1296.09 -184.627,1296.09 -181.128,1296.09 -177.629,1296.09 -174.13,1296.09 -170.631,1296.09 -167.132,1296.09 
  -163.633,1296.09 -160.134,1296.09 -156.636,1296.09 -153.137,1296.09 -149.638,1296.09 -146.139,1296.09 -142.64,1296.09 -139.141,1296.09 -135.642,1296.09 -132.144,1296.09 
  -128.645,1296.09 -125.146,1296.09 -121.647,1296.09 -118.148,1296.09 -114.649,1296.09 -111.15,1296.09 -107.651,1296.09 -104.153,1296.09 -100.654,1296.09 -97.1548,1296.09 
  -93.6559,1296.09 -90.157,1296.09 -86.6582,1296.09 -83.1593,1296.09 -79.6604,1296.09 -76.1616,1296.09 -72.6627,1296.09 -69.1638,1296.09 -65.6649,1296.09 -62.1661,1296.09 
  -58.6672,1296.09 -55.1683,1296.09 -51.6694,1296.09 -48.1706,1296.09 -44.6717,1296.09 -41.1728,1296.09 -37.674,1296.09 -34.1751,1296.09 -30.6762,1296.09 -27.1773,1296.09 
  -23.6785,1296.09 -20.1796,1296.09 -16.6807,1296.09 -13.1818,1296.09 -9.68297,1296.09 -6.1841,1296.09 -2.68522,1296.09 0.813649,1296.09 4.31252,1296.09 7.81139,1296.09 
  11.3103,1296.09 14.8091,1296.09 18.308,1296.09 21.8069,1296.09 25.3058,1296.09 28.8046,1296.09 32.3035,1296.09 35.8024,1296.09 39.3012,1296.09 42.8001,1296.09 
  46.299,1296.09 49.7979,1296.09 53.2967,1296.09 56.7956,1296.09 60.2945,1296.09 63.7934,1296.09 67.2922,1296.09 70.7911,1296.09 74.29,1296.09 77.7888,1296.09 
  81.2877,1296.09 84.7866,1296.09 88.2855,1296.09 91.7843,1296.09 95.2832,1296.09 98.7821,1296.09 102.281,1296.09 105.78,1296.09 109.279,1296.09 112.778,1296.09 
  116.276,1296.09 119.775,1296.09 123.274,1296.09 126.773,1296.09 130.272,1296.09 133.771,1296.09 137.27,1296.09 140.769,1296.09 144.267,1296.09 147.766,1296.09 
  151.265,1296.09 154.764,1296.09 158.263,1296.09 161.762,1296.09 165.261,1296.09 168.76,1296.09 172.258,1296.09 175.757,1296.09 179.256,1296.09 182.755,1296.09 
  186.254,1296.09 189.753,1296.09 193.252,1296.09 196.751,1296.09 200.249,1296.09 203.748,1296.09 207.247,1296.09 210.746,1296.09 214.245,1296.09 217.744,1296.09 
  221.243,1296.09 224.742,1296.09 228.24,1296.09 231.739,1296.09 235.238,1296.09 238.737,1296.09 242.236,1296.09 245.735,1296.09 249.234,1296.09 252.732,1296.09 
  256.231,1296.09 259.73,1296.09 263.229,1296.09 266.728,1296.09 270.227,1296.09 273.726,1296.09 277.225,1296.09 280.723,1296.09 284.222,1296.09 287.721,1296.09 
  291.22,1296.09 294.719,1296.09 298.218,1296.09 301.717,1296.09 305.216,1296.09 308.714,1296.09 312.213,1296.09 315.712,1296.09 319.211,1296.09 322.71,1296.09 
  326.209,1296.09 329.708,1296.09 333.207,1296.09 336.705,1296.08 340.204,1296.08 343.703,1296.08 347.202,1296.08 350.701,1296.08 354.2,1296.08 357.699,1296.08 
  361.198,1296.08 364.696,1296.08 368.195,1296.08 371.694,1296.08 375.193,1296.08 378.692,1296.08 382.191,1296.08 385.69,1296.08 389.189,1296.08 392.687,1296.08 
  396.186,1296.08 399.685,1296.08 403.184,1296.08 406.683,1296.08 410.182,1296.08 413.681,1296.08 417.18,1296.08 420.678,1296.08 424.177,1296.08 427.676,1296.08 
  431.175,1296.08 434.674,1296.07 438.173,1296.07 441.672,1296.07 445.17,1296.07 448.669,1296.06 452.168,1296.06 455.667,1296.05 459.166,1296.05 462.665,1296.04 
  466.164,1296.02 469.663,1296.01 473.161,1295.98 476.66,1295.95 480.159,1295.9 483.658,1295.82 487.157,1295.71 490.656,1295.56 494.155,1295.37 497.654,1295.18 
  501.152,1295.1 504.651,1295.16 508.15,1295.29 511.649,1295.43 515.148,1295.55 518.647,1295.64 522.146,1295.71 525.645,1295.76 529.143,1295.8 532.642,1295.83 
  536.141,1295.85 539.64,1295.87 543.139,1295.88 546.638,1295.89 550.137,1295.9 553.636,1295.9 557.134,1295.91 560.633,1295.91 564.132,1295.91 567.631,1295.91 
  571.13,1295.91 574.629,1295.91 578.128,1295.9 581.627,1295.9 585.125,1295.89 588.624,1295.88 592.123,1295.87 595.622,1295.86 599.121,1295.85 602.62,1295.83 
  606.119,1295.82 609.618,1295.8 613.116,1295.77 616.615,1295.74 620.114,1295.71 623.613,1295.67 627.112,1295.62 630.611,1295.57 634.11,1295.5 637.608,1295.42 
  641.107,1295.32 644.606,1295.19 648.105,1295.03 651.604,1294.84 655.103,1294.58 658.602,1294.25 662.101,1293.81 665.599,1293.22 669.098,1292.4 672.597,1291.28 
  676.096,1289.72 679.595,1287.58 683.094,1284.81 686.593,1281.67 690.092,1279.03 693.59,1278.03 697.089,1279 700.588,1281.17 704.087,1283.57 707.586,1285.68 
  711.085,1287.37 714.584,1288.67 718.083,1289.66 721.581,1290.42 725.08,1291 728.579,1291.44 732.078,1291.79 735.577,1292.04 739.076,1292.24 742.575,1292.38 
  746.074,1292.47 749.572,1292.52 753.071,1292.53 756.57,1292.5 760.069,1292.44 763.568,1292.33 767.067,1292.19 770.566,1292 774.065,1291.75 777.563,1291.45 
  781.062,1291.06 784.561,1290.59 788.06,1290 791.559,1289.26 795.058,1288.33 798.557,1287.15 802.056,1285.63 805.554,1283.66 809.053,1281.07 812.552,1277.61 
  816.051,1272.97 819.55,1266.72 823.049,1258.45 826.548,1248.05 830.046,1236.41 833.545,1226.27 837.044,1221.5 840.543,1223.99 844.042,1231.76 847.541,1241.3 
  851.04,1250.18 854.539,1257.51 858.037,1263.26 861.536,1267.65 865.035,1270.99 868.534,1273.52 872.033,1275.4 875.532,1276.79 879.031,1277.78 882.53,1278.42 
  886.028,1278.77 889.527,1278.84 893.026,1278.64 896.525,1278.17 900.024,1277.38 903.523,1276.25 907.022,1274.69 910.521,1272.61 914.019,1269.85 917.518,1266.22 
  921.017,1261.41 924.516,1255 928.015,1246.43 931.514,1235 935.013,1220.02 938.512,1201.4 942.01,1180.8 945.509,1163.05 949.008,1155.04 952.507,1160.22 
  956.006,1175.11 959.505,1193.16 963.004,1209.85 966.503,1223.48 970.001,1233.98 973.5,1241.84 976.999,1247.59 980.498,1251.69 983.997,1254.46 987.496,1256.13 
  990.995,1256.81 994.494,1256.57 997.992,1255.35 1001.49,1253.07 1004.99,1249.5 1008.49,1244.32 1011.99,1237.02 1015.49,1226.92 1018.99,1213.14 1022.48,1194.84 
  1025.98,1172.02 1029.48,1147.28 1032.98,1127.66 1036.48,1122.2 1039.98,1133.57 1043.48,1155.04 1046.98,1177.91 1050.48,1197.37 1053.97,1212.25 1057.47,1222.97 
  1060.97,1230.27 1064.47,1234.82 1067.97,1237.03 1071.47,1237.09 1074.97,1234.98 1078.47,1230.39 1081.97,1222.77 1085.46,1211.25 1088.96,1194.83 1092.46,1173.09 
  1095.96,1148.23 1099.46,1128 1102.96,1123.48 1106.46,1137.75 1109.96,1161.65 1113.46,1184.86 1116.95,1202.86 1120.45,1215.17 1123.95,1222.56 1127.45,1225.78 
  1130.95,1225.12 1134.45,1220.38 1137.95,1210.83 1141.45,1195.44 1144.95,1174.14 1148.44,1151.39 1151.94,1139.29 1155.44,1148.01 1158.94,1170.63 1162.44,1193.37 
  1165.94,1209.68 1169.44,1218.88 1172.94,1221.66 1176.43,1218.19 1179.93,1207.81 1183.43,1189.98 1186.93,1168.67 1190.43,1158.51 1193.93,1171.09 1197.43,1194.05 
  1200.93,1211.95 1204.43,1220.52 1207.92,1219.75 1211.42,1209.31 1214.92,1190.32 1218.42,1175.74 1221.92,1185.43 1225.42,1207.28 1228.92,1220.8 1232.42,1221.12 
  1235.92,1208.01 1239.41,1190.56 1242.91,1196.93 1246.41,1217.41 1249.91,1224.18 1253.41,1212.33 1256.91,1199.65 1260.41,1216.41 1263.91,1225.65 1267.41,1211.56 
  1270.9,1215.13 1274.4,1226.74 1277.9,1213.83 1281.4,1227.41 1284.9,1218.52 1288.4,1227.57 1291.9,1228.15 1295.4,1228.58 1298.9,1228.98 1302.39,1230.08 
  1305.89,1231.1 1309.39,1232.24 1312.89,1233.81 1316.39,1235.15 1319.89,1236.73 1323.39,1237.2 1326.89,1239.93 1330.39,1238.97 1333.88,1243.78 1337.38,1241.05 
  1340.88,1243.51 1344.38,1248.74 1347.88,1245.76 1351.38,1243.87 1354.88,1250.51 1358.38,1254.77 1361.88,1252.37 1365.37,1247.79 1368.87,1249.85 1372.37,1256.89 
  1375.87,1261.4 1379.37,1261.37 1382.87,1257.66 1386.37,1253.56 1389.87,1254.4 1393.36,1260.21 1396.86,1266.01 1400.36,1269.32 1403.86,1269.97 1407.36,1268.29 
  1410.86,1264.87 1414.36,1261.41 1417.86,1260.85 1421.36,1264.33 1424.85,1269.49 1428.35,1273.89 1431.85,1276.79 1435.35,1278.27 1438.85,1278.55 1442.35,1277.76 
  1445.85,1275.99 1449.35,1273.48 1452.85,1270.95 1456.34,1269.74 1459.84,1270.9 1463.34,1273.99 1466.84,1277.6 1470.34,1280.73 1473.84,1283.08 1477.34,1284.69 
  1480.84,1285.71 1484.34,1286.25 1487.83,1286.4 1491.33,1286.19 1494.83,1285.62 1498.33,1284.7 1501.83,1283.43 1505.33,1281.9 1508.83,1280.35 1512.33,1279.22 
  1515.83,1278.99 1519.32,1279.86 1522.82,1281.54 1526.32,1283.52 1529.82,1285.39 1533.32,1286.97 1536.82,1288.21 1540.32,1289.16 1543.82,1289.87 1547.32,1290.38 
  1550.81,1290.73 1554.31,1290.95 1557.81,1291.06 1561.31,1291.07 1564.81,1290.97 1568.31,1290.77 1571.81,1290.46 1575.31,1290.02 1578.81,1289.42 1582.3,1288.64 
  1585.8,1287.63 1589.3,1286.35 1592.8,1284.78 1596.3,1282.91 1599.8,1280.82 1603.3,1278.74 1606.8,1277.03 1610.3,1276.1 1613.79,1276.17 1617.29,1277.16 
  1620.79,1278.72 1624.29,1280.49 1627.79,1282.19 1631.29,1283.69 1634.79,1284.95 1638.29,1285.98 1641.78,1286.78 1645.28,1287.41 1648.78,1287.87 1652.28,1288.2 
  1655.78,1288.4 1659.28,1288.5 1662.78,1288.48 1666.28,1288.36 1669.78,1288.13 1673.27,1287.77 1676.77,1287.27 1680.27,1286.61 1683.77,1285.74 1687.27,1284.62 
  1690.77,1283.17 1694.27,1281.3 1697.77,1278.87 1701.27,1275.68 1704.76,1271.49 1708.26,1266.02 1711.76,1258.97 1715.26,1250.33 1718.76,1240.74 1722.26,1232.1 
  1725.76,1227.26 1729.26,1228.24 1732.76,1234.28 1736.25,1242.74 1739.75,1251.24 1743.25,1258.61 1746.75,1264.57 1750.25,1269.23 1753.75,1272.84 1757.25,1275.63 
  1760.75,1277.79 1764.25,1279.45 1767.74,1280.73 1771.24,1281.71 1774.74,1282.43 1778.24,1282.94 1781.74,1283.26 1785.24,1283.42 1788.74,1283.42 1792.24,1283.25 
  1795.74,1282.92 1799.23,1282.4 1802.73,1281.67 1806.23,1280.69 1809.73,1279.41 1813.23,1277.73 1816.73,1275.56 1820.23,1272.71 1823.73,1268.96 1827.23,1263.95 
  1830.72,1257.17 1834.22,1247.91 1837.72,1235.3 1841.22,1218.6 1844.72,1198.39 1848.22,1178.96 1851.72,1169.35 1855.22,1176.27 1858.72,1195.45 1862.21,1217.14 
  1865.71,1235.55 1869.21,1249.46 1872.71,1259.57 1876.21,1266.88 1879.71,1272.22 1883.21,1276.18 1886.71,1279.16 1890.2,1281.44 1893.7,1283.21 1897.2,1284.6 
  1900.7,1285.7 1904.2,1286.57 1907.7,1287.26 1911.2,1287.8 1914.7,1288.23 1918.2,1288.55 1921.69,1288.78 1925.19,1288.93 1928.69,1289.01 1932.19,1289.01 
  1935.69,1288.92 1939.19,1288.76 1942.69,1288.5 1946.19,1288.14 1949.69,1287.64 1953.18,1286.98 1956.68,1286.12 1960.18,1284.97 1963.68,1283.44 1967.18,1281.38 
  1970.68,1278.54 1974.18,1274.55 1977.68,1268.82 1981.18,1260.54 1984.67,1248.91 1988.17,1234.71 1991.67,1223.81 1995.17,1225.9 1998.67,1240.33 2002.17,1256.55 
  2005.67,1268.82 2009.17,1277.02 2012.67,1282.36 2016.16,1285.91 2019.66,1288.32 2023.16,1290 2026.66,1291.22 2030.16,1292.11 2033.66,1292.79 2037.16,1293.31 
  2040.66,1293.71 2044.16,1294.03 2047.65,1294.29 2051.15,1294.5 2054.65,1294.67 2058.15,1294.81 2061.65,1294.93 2065.15,1295.02 2068.65,1295.1 2072.15,1295.17 
  2075.65,1295.23 2079.14,1295.28 2082.64,1295.31 2086.14,1295.35 2089.64,1295.37 2093.14,1295.39 2096.64,1295.4 2100.14,1295.41 2103.64,1295.41 2107.14,1295.4 
  2110.63,1295.39 2114.13,1295.37 2117.63,1295.34 2121.13,1295.29 2124.63,1295.23 2128.13,1295.15 2131.63,1295.05 2135.13,1294.9 2138.62,1294.69 2142.12,1294.39 
  2145.62,1293.93 2149.12,1293.23 2152.62,1292.13 2156.12,1290.53 2159.62,1289.02 2163.12,1289.37 2166.62,1291.43 2170.11,1293.26 2173.61,1294.37 2177.11,1295 
  2180.61,1295.37 2184.11,1295.59 2187.61,1295.73 2191.11,1295.82 2194.61,1295.89 2198.11,1295.93 2201.6,1295.97 2205.1,1295.99 2208.6,1296.01 2212.1,1296.02 
  2215.6,1296.03 2219.1,1296.04 2222.6,1296.05 2226.1,1296.06 2229.6,1296.06 2233.09,1296.06 2236.59,1296.07 2240.09,1296.07 2243.59,1296.07 2247.09,1296.07 
  2250.59,1296.08 2254.09,1296.08 2257.59,1296.08 2261.09,1296.08 2264.58,1296.08 2268.08,1296.08 2271.58,1296.08 2275.08,1296.08 2278.58,1296.08 2282.08,1296.08 
  2285.58,1296.08 2289.08,1296.08 2292.58,1296.08 2296.07,1296.08 2299.57,1296.08 2303.07,1296.08 2306.57,1296.08 2310.07,1296.08 2313.57,1296.08 2317.07,1296.08 
  2320.57,1296.08 2324.07,1296.08 2327.56,1296.08 2331.06,1296.08 2334.56,1296.08 2338.06,1296.08 2341.56,1296.08 2345.06,1296.08 2348.56,1296.08 2352.06,1296.08 
  2355.56,1296.08 2359.05,1296.09 2362.55,1296.09 2366.05,1296.09 2369.55,1296.09 2373.05,1296.09 2376.55,1296.09 2380.05,1296.09 2383.55,1296.09 2387.04,1296.09 
  2390.54,1296.09 2394.04,1296.09 2397.54,1296.09 2401.04,1296.09 2404.54,1296.09 2408.04,1296.09 2411.54,1296.09 2415.04,1296.09 2418.53,1296.09 2422.03,1296.09 
  2425.53,1296.09 2429.03,1296.09 2432.53,1296.09 2436.03,1296.09 2439.53,1296.09 2443.03,1296.09 2446.53,1296.09 2450.02,1296.09 2453.52,1296.09 2457.02,1296.09 
  2460.52,1296.09 2464.02,1296.09 2467.52,1296.09 2471.02,1296.09 2474.52,1296.09 2478.02,1296.09 2481.51,1296.09 2485.01,1296.09 2488.51,1296.09 2492.01,1296.09 
  2495.51,1296.09 2499.01,1296.09 2502.51,1296.09 2506.01,1296.09 2509.51,1296.09 2513,1296.09 2516.5,1296.09 2520,1296.09 2523.5,1296.09 2527,1296.09 
  2530.5,1296.09 2534,1296.09 2537.5,1296.09 2541,1296.09 2544.49,1296.09 2547.99,1296.09 2551.49,1296.09 2554.99,1296.09 2558.49,1296.09 2561.99,1296.09 
  2565.49,1296.09 2568.99,1296.09 2572.49,1296.09 2575.98,1296.09 2579.48,1296.09 2582.98,1296.09 2586.48,1296.09 2589.98,1296.09 2593.48,1296.09 2596.98,1296.09 
  2600.48,1296.09 2603.97,1296.09 2607.47,1296.09 2610.97,1296.09 2614.47,1296.09 2617.97,1296.09 2621.47,1296.09 2624.97,1296.09 2628.47,1296.09 2631.97,1296.09 
  2635.46,1296.09 2638.96,1296.09 2642.46,1296.09 2645.96,1296.09 2649.46,1296.09 2652.96,1296.09 2656.46,1296.09 2659.96,1296.09 2663.46,1296.09 2666.95,1296.09 
  2670.45,1296.09 2673.95,1296.09 2677.45,1296.09 2680.95,1296.09 2684.45,1296.09 2687.95,1296.09 2691.45,1296.09 2694.95,1296.09 2698.44,1296.09 2701.94,1296.09 
  2705.44,1296.09 2708.94,1296.09 2712.44,1296.09 2715.94,1296.09 2719.44,1296.09 2722.94,1296.09 2726.44,1296.09 2729.93,1296.09 2733.43,1296.09 2736.93,1296.09 
  2740.43,1296.09 2743.93,1296.09 2747.43,1296.09 2750.93,1296.09 2754.43,1296.09 2757.93,1296.09 2761.42,1296.09 2764.92,1296.09 2768.42,1296.09 2771.92,1296.09 
  2775.42,1296.09 2778.92,1296.09 2782.42,1296.09 2785.92,1296.09 2789.42,1296.09 2792.91,1296.09 2796.41,1296.09 2799.91,1296.09 2803.41,1296.09 2806.91,1296.09 
  2810.41,1296.09 2813.91,1296.09 2817.41,1296.09 2820.91,1296.09 2824.4,1296.09 2827.9,1296.09 2831.4,1296.09 2834.9,1296.09 2838.4,1296.09 2841.9,1296.09 
  2845.4,1296.09 2848.9,1296.09 2852.39,1296.09 2855.89,1296.09 2859.39,1296.09 2862.89,1296.09 2866.39,1296.09 2869.89,1296.09 2873.39,1296.09 2876.89,1296.09 
  2880.39,1296.09 2883.88,1296.09 2887.38,1296.09 2890.88,1296.09 2894.38,1296.09 2897.88,1296.09 2901.38,1296.09 2904.88,1296.09 2908.38,1296.09 2911.88,1296.09 
  2915.37,1296.09 2918.87,1296.09 2922.37,1296.09 2925.87,1296.09 2929.37,1296.09 2932.87,1296.09 2936.37,1296.09 2939.87,1296.09 2943.37,1296.09 2946.86,1296.09 
  2950.36,1296.09 2953.86,1296.09 2957.36,1296.09 2960.86,1296.09 2964.36,1296.09 2967.86,1296.09 2971.36,1296.09 2974.86,1296.09 2978.35,1296.09 2981.85,1296.09 
  2985.35,1296.09 2988.85,1296.09 2992.35,1296.09 2995.85,1296.09 2999.35,1296.09 3002.85,1296.09 3006.35,1296.09 3009.84,1296.09 3013.34,1296.09 3016.84,1296.09 
  3020.34,1296.09 3023.84,1296.09 3027.34,1296.09 3030.84,1296.09 3034.34,1296.09 3037.84,1296.09 3041.33,1296.09 3044.83,1296.09 3048.33,1296.09 3051.83,1296.09 
  
  "/>
<polyline clip-path="url(#clip832)" style="stroke:#000000; stroke-linecap:round; stroke-linejoin:round; stroke-width:6; stroke-opacity:1; fill:none" stroke-dasharray="24, 15" points="
  430.3,1296.05 432.05,1296.05 433.799,1296.05 435.549,1296.05 437.298,1296.04 439.047,1296.04 440.797,1296.04 442.546,1296.04 444.296,1296.04 446.045,1296.03 
  447.795,1296.03 449.544,1296.03 451.294,1296.03 453.043,1296.03 454.792,1296.02 456.542,1296.02 458.291,1296.02 460.041,1296.02 461.79,1296.01 463.54,1296.01 
  465.289,1296.01 467.038,1296 468.788,1296 470.537,1296 472.287,1295.99 474.036,1295.99 475.786,1295.99 477.535,1295.98 479.284,1295.98 481.034,1295.98 
  482.783,1295.97 484.533,1295.97 486.282,1295.96 488.032,1295.96 489.781,1295.95 491.531,1295.95 493.28,1295.94 495.029,1295.94 496.779,1295.93 498.528,1295.93 
  500.278,1295.92 502.027,1295.91 503.777,1295.91 505.526,1295.9 507.275,1295.89 509.025,1295.89 510.774,1295.88 512.524,1295.87 514.273,1295.87 516.023,1295.86 
  517.772,1295.85 519.522,1295.84 521.271,1295.83 523.02,1295.82 524.77,1295.81 526.519,1295.8 528.269,1295.79 530.018,1295.78 531.768,1295.77 533.517,1295.76 
  535.266,1295.75 537.016,1295.74 538.765,1295.73 540.515,1295.72 542.264,1295.7 544.014,1295.69 545.763,1295.68 547.513,1295.66 549.262,1295.65 551.011,1295.63 
  552.761,1295.62 554.51,1295.6 556.26,1295.59 558.009,1295.57 559.759,1295.55 561.508,1295.54 563.257,1295.52 565.007,1295.5 566.756,1295.48 568.506,1295.46 
  570.255,1295.44 572.005,1295.42 573.754,1295.4 575.503,1295.37 577.253,1295.35 579.002,1295.33 580.752,1295.3 582.501,1295.28 584.251,1295.25 586,1295.23 
  587.75,1295.2 589.499,1295.17 591.248,1295.14 592.998,1295.11 594.747,1295.08 596.497,1295.05 598.246,1295.02 599.996,1294.99 601.745,1294.95 603.494,1294.92 
  605.244,1294.88 606.993,1294.85 608.743,1294.81 610.492,1294.77 612.242,1294.73 613.991,1294.69 615.741,1294.65 617.49,1294.61 619.239,1294.56 620.989,1294.52 
  622.738,1294.47 624.488,1294.42 626.237,1294.37 627.987,1294.32 629.736,1294.27 631.485,1294.22 633.235,1294.17 634.984,1294.11 636.734,1294.05 638.483,1294 
  640.233,1293.94 641.982,1293.88 643.732,1293.81 645.481,1293.75 647.23,1293.68 648.98,1293.62 650.729,1293.55 652.479,1293.48 654.228,1293.41 655.978,1293.33 
  657.727,1293.26 659.476,1293.18 661.226,1293.1 662.975,1293.02 664.725,1292.94 666.474,1292.85 668.224,1292.77 669.973,1292.68 671.722,1292.59 673.472,1292.49 
  675.221,1292.4 676.971,1292.3 678.72,1292.2 680.47,1292.1 682.219,1292 683.969,1291.89 685.718,1291.78 687.467,1291.67 689.217,1291.56 690.966,1291.44 
  692.716,1291.33 694.465,1291.21 696.215,1291.08 697.964,1290.96 699.713,1290.83 701.463,1290.7 703.212,1290.57 704.962,1290.43 706.711,1290.29 708.461,1290.15 
  710.21,1290 711.96,1289.86 713.709,1289.71 715.458,1289.55 717.208,1289.4 718.957,1289.24 720.707,1289.07 722.456,1288.91 724.206,1288.74 725.955,1288.57 
  727.704,1288.39 729.454,1288.21 731.203,1288.03 732.953,1287.85 734.702,1287.66 736.452,1287.47 738.201,1287.27 739.951,1287.07 741.7,1286.87 743.449,1286.66 
  745.199,1286.45 746.948,1286.24 748.698,1286.02 750.447,1285.8 752.197,1285.57 753.946,1285.34 755.695,1285.11 757.445,1284.87 759.194,1284.63 760.944,1284.39 
  762.693,1284.14 764.443,1283.89 766.192,1283.63 767.941,1283.37 769.691,1283.1 771.44,1282.83 773.19,1282.56 774.939,1282.28 776.689,1282 778.438,1281.71 
  780.188,1281.42 781.937,1281.13 783.686,1280.83 785.436,1280.52 787.185,1280.21 788.935,1279.9 790.684,1279.58 792.434,1279.26 794.183,1278.93 795.932,1278.6 
  797.682,1278.26 799.431,1277.92 801.181,1277.58 802.93,1277.23 804.68,1276.87 806.429,1276.51 808.179,1276.15 809.928,1275.78 811.677,1275.41 813.427,1275.03 
  815.176,1274.64 816.926,1274.26 818.675,1273.86 820.425,1273.46 822.174,1273.06 823.923,1272.65 825.673,1272.24 827.422,1271.83 829.172,1271.4 830.921,1270.98 
  832.671,1270.54 834.42,1270.11 836.17,1269.67 837.919,1269.22 839.668,1268.77 841.418,1268.31 843.167,1267.85 844.917,1267.39 846.666,1266.92 848.416,1266.44 
  850.165,1265.96 851.914,1265.48 853.664,1264.99 855.413,1264.5 857.163,1264 858.912,1263.5 860.662,1262.99 862.411,1262.48 864.16,1261.96 865.91,1261.44 
  867.659,1260.92 869.409,1260.39 871.158,1259.85 872.908,1259.32 874.657,1258.77 876.407,1258.23 878.156,1257.68 879.905,1257.12 881.655,1256.56 883.404,1256 
  885.154,1255.43 886.903,1254.86 888.653,1254.29 890.402,1253.71 892.151,1253.13 893.901,1252.54 895.65,1251.96 897.4,1251.36 899.149,1250.77 900.899,1250.17 
  902.648,1249.57 904.398,1248.96 906.147,1248.35 907.896,1247.74 909.646,1247.12 911.395,1246.51 913.145,1245.89 914.894,1245.26 916.644,1244.64 918.393,1244.01 
  920.142,1243.38 921.892,1242.75 923.641,1242.11 925.391,1241.47 927.14,1240.84 928.89,1240.19 930.639,1239.55 932.389,1238.91 934.138,1238.26 935.887,1237.61 
  937.637,1236.97 939.386,1236.32 941.136,1235.66 942.885,1235.01 944.635,1234.36 946.384,1233.71 948.133,1233.05 949.883,1232.4 951.632,1231.74 953.382,1231.09 
  955.131,1230.43 956.881,1229.78 958.63,1229.12 960.379,1228.47 962.129,1227.81 963.878,1227.16 965.628,1226.51 967.377,1225.85 969.127,1225.2 970.876,1224.55 
  972.626,1223.91 974.375,1223.26 976.124,1222.61 977.874,1221.97 979.623,1221.33 981.373,1220.69 983.122,1220.05 984.872,1219.41 986.621,1218.78 988.37,1218.15 
  990.12,1217.52 991.869,1216.89 993.619,1216.27 995.368,1215.65 997.118,1215.04 998.867,1214.43 1000.62,1213.82 1002.37,1213.21 1004.12,1212.61 1005.86,1212.01 
  1007.61,1211.42 1009.36,1210.83 1011.11,1210.25 1012.86,1209.67 1014.61,1209.1 1016.36,1208.53 1018.11,1207.96 1019.86,1207.4 1021.61,1206.85 1023.36,1206.3 
  1025.11,1205.76 1026.86,1205.22 1028.61,1204.69 1030.36,1204.17 1032.11,1203.65 1033.86,1203.14 1035.61,1202.63 1037.35,1202.14 1039.1,1201.64 1040.85,1201.16 
  1042.6,1200.68 1044.35,1200.21 1046.1,1199.75 1047.85,1199.29 1049.6,1198.84 1051.35,1198.4 1053.1,1197.97 1054.85,1197.55 1056.6,1197.13 1058.35,1196.72 
  1060.1,1196.32 1061.85,1195.93 1063.6,1195.55 1065.35,1195.17 1067.1,1194.81 1068.84,1194.45 1070.59,1194.1 1072.34,1193.76 1074.09,1193.43 1075.84,1193.11 
  1077.59,1192.8 1079.34,1192.5 1081.09,1192.21 1082.84,1191.92 1084.59,1191.65 1086.34,1191.39 1088.09,1191.14 1089.84,1190.89 1091.59,1190.66 1093.34,1190.44 
  1095.09,1190.22 1096.84,1190.02 1098.58,1189.83 1100.33,1189.65 1102.08,1189.47 1103.83,1189.31 1105.58,1189.16 1107.33,1189.02 1109.08,1188.89 1110.83,1188.77 
  1112.58,1188.66 1114.33,1188.57 1116.08,1188.48 1117.83,1188.4 1119.58,1188.34 1121.33,1188.28 1123.08,1188.24 1124.83,1188.2 1126.58,1188.18 1128.33,1188.17 
  1130.07,1188.17 1131.82,1188.18 1133.57,1188.2 1135.32,1188.23 1137.07,1188.27 1138.82,1188.32 1140.57,1188.39 1142.32,1188.46 1144.07,1188.55 1145.82,1188.64 
  1147.57,1188.75 1149.32,1188.87 1151.07,1188.99 1152.82,1189.13 1154.57,1189.28 1156.32,1189.44 1158.07,1189.61 1159.82,1189.79 1161.56,1189.98 1163.31,1190.18 
  1165.06,1190.39 1166.81,1190.61 1168.56,1190.85 1170.31,1191.09 1172.06,1191.34 1173.81,1191.6 1175.56,1191.87 1177.31,1192.15 1179.06,1192.44 1180.81,1192.74 
  1182.56,1193.05 1184.31,1193.37 1186.06,1193.7 1187.81,1194.03 1189.56,1194.38 1191.31,1194.73 1193.05,1195.1 1194.8,1195.47 1196.55,1195.85 1198.3,1196.24 
  1200.05,1196.64 1201.8,1197.05 1203.55,1197.46 1205.3,1197.88 1207.05,1198.32 1208.8,1198.75 1210.55,1199.2 1212.3,1199.66 1214.05,1200.12 1215.8,1200.59 
  1217.55,1201.06 1219.3,1201.55 1221.05,1202.04 1222.79,1202.53 1224.54,1203.04 1226.29,1203.55 1228.04,1204.06 1229.79,1204.59 1231.54,1205.12 1233.29,1205.65 
  1235.04,1206.19 1236.79,1206.74 1238.54,1207.29 1240.29,1207.85 1242.04,1208.41 1243.79,1208.98 1245.54,1209.55 1247.29,1210.13 1249.04,1210.72 1250.79,1211.3 
  1252.54,1211.89 1254.28,1212.49 1256.03,1213.09 1257.78,1213.69 1259.53,1214.3 1261.28,1214.91 1263.03,1215.53 1264.78,1216.15 1266.53,1216.77 1268.28,1217.39 
  1270.03,1218.02 1271.78,1218.65 1273.53,1219.28 1275.28,1219.92 1277.03,1220.56 1278.78,1221.2 1280.53,1221.84 1282.28,1222.48 1284.03,1223.13 1285.77,1223.77 
  1287.52,1224.42 1289.27,1225.07 1291.02,1225.72 1292.77,1226.37 1294.52,1227.03 1296.27,1227.68 1298.02,1228.33 1299.77,1228.99 1301.52,1229.64 1303.27,1230.3 
  1305.02,1230.95 1306.77,1231.61 1308.52,1232.26 1310.27,1232.92 1312.02,1233.57 1313.77,1234.22 1315.52,1234.88 1317.26,1235.53 1319.01,1236.18 1320.76,1236.83 
  1322.51,1237.48 1324.26,1238.12 1326.01,1238.77 1327.76,1239.41 1329.51,1240.06 1331.26,1240.7 1333.01,1241.34 1334.76,1241.97 1336.51,1242.61 1338.26,1243.24 
  1340.01,1243.87 1341.76,1244.5 1343.51,1245.12 1345.26,1245.75 1347,1246.37 1348.75,1246.98 1350.5,1247.6 1352.25,1248.21 1354,1248.82 1355.75,1249.42 
  1357.5,1250.02 1359.25,1250.62 1361,1251.22 1362.75,1251.81 1364.5,1252.4 1366.25,1252.98 1368,1253.56 1369.75,1254.14 1371.5,1254.71 1373.25,1255.28 
  1375,1255.85 1376.75,1256.41 1378.49,1256.97 1380.24,1257.52 1381.99,1258.07 1383.74,1258.61 1385.49,1259.15 1387.24,1259.69 1388.99,1260.22 1390.74,1260.75 
  1392.49,1261.27 1394.24,1261.79 1395.99,1262.3 1397.74,1262.81 1399.49,1263.31 1401.24,1263.81 1402.99,1264.31 1404.74,1264.8 1406.49,1265.28 1408.24,1265.76 
  1409.98,1266.24 1411.73,1266.71 1413.48,1267.17 1415.23,1267.63 1416.98,1268.09 1418.73,1268.54 1420.48,1268.98 1422.23,1269.42 1423.98,1269.86 1425.73,1270.29 
  1427.48,1270.71 1429.23,1271.13 1430.98,1271.54 1432.73,1271.95 1434.48,1272.36 1436.23,1272.76 1437.98,1273.15 1439.73,1273.54 1441.47,1273.92 1443.22,1274.3 
  1444.97,1274.67 1446.72,1275.03 1448.47,1275.4 1450.22,1275.75 1451.97,1276.1 1453.72,1276.45 1455.47,1276.79 1457.22,1277.12 1458.97,1277.45 1460.72,1277.78 
  1462.47,1278.1 1464.22,1278.41 1465.97,1278.72 1467.72,1279.02 1469.47,1279.32 1471.21,1279.61 1472.96,1279.9 1474.71,1280.18 1476.46,1280.45 1478.21,1280.72 
  1479.96,1280.99 1481.71,1281.25 1483.46,1281.5 1485.21,1281.75 1486.96,1282 1488.71,1282.23 1490.46,1282.47 1492.21,1282.7 1493.96,1282.92 1495.71,1283.14 
  1497.46,1283.35 1499.21,1283.55 1500.96,1283.76 1502.7,1283.95 1504.45,1284.14 1506.2,1284.33 1507.95,1284.51 1509.7,1284.68 1511.45,1284.85 1513.2,1285.02 
  1514.95,1285.17 1516.7,1285.33 1518.45,1285.48 1520.2,1285.62 1521.95,1285.76 1523.7,1285.89 1525.45,1286.02 1527.2,1286.14 1528.95,1286.25 1530.7,1286.36 
  1532.45,1286.47 1534.19,1286.57 1535.94,1286.66 1537.69,1286.75 1539.44,1286.84 1541.19,1286.92 1542.94,1286.99 1544.69,1287.06 1546.44,1287.12 1548.19,1287.18 
  1549.94,1287.23 1551.69,1287.28 1553.44,1287.32 1555.19,1287.36 1556.94,1287.39 1558.69,1287.41 1560.44,1287.44 1562.19,1287.45 1563.94,1287.46 1565.68,1287.46 
  1567.43,1287.46 1569.18,1287.46 1570.93,1287.44 1572.68,1287.43 1574.43,1287.41 1576.18,1287.38 1577.93,1287.34 1579.68,1287.31 1581.43,1287.26 1583.18,1287.21 
  1584.93,1287.16 1586.68,1287.1 1588.43,1287.03 1590.18,1286.96 1591.93,1286.89 1593.68,1286.81 1595.42,1286.72 1597.17,1286.63 1598.92,1286.53 1600.67,1286.43 
  1602.42,1286.32 1604.17,1286.21 1605.92,1286.09 1607.67,1285.97 1609.42,1285.84 1611.17,1285.71 1612.92,1285.57 1614.67,1285.43 1616.42,1285.28 1618.17,1285.13 
  1619.92,1284.97 1621.67,1284.81 1623.42,1284.64 1625.17,1284.46 1626.91,1284.29 1628.66,1284.1 1630.41,1283.92 1632.16,1283.72 1633.91,1283.53 1635.66,1283.33 
  1637.41,1283.12 1639.16,1282.91 1640.91,1282.69 1642.66,1282.47 1644.41,1282.25 1646.16,1282.02 1647.91,1281.79 1649.66,1281.55 1651.41,1281.31 1653.16,1281.07 
  1654.91,1280.82 1656.66,1280.57 1658.4,1280.31 1660.15,1280.05 1661.9,1279.79 1663.65,1279.52 1665.4,1279.25 1667.15,1278.98 1668.9,1278.7 1670.65,1278.42 
  1672.4,1278.14 1674.15,1277.85 1675.9,1277.56 1677.65,1277.27 1679.4,1276.97 1681.15,1276.68 1682.9,1276.38 1684.65,1276.08 1686.4,1275.77 1688.15,1275.47 
  1689.89,1275.16 1691.64,1274.85 1693.39,1274.54 1695.14,1274.23 1696.89,1273.91 1698.64,1273.6 1700.39,1273.28 1702.14,1272.97 1703.89,1272.65 1705.64,1272.33 
  1707.39,1272.01 1709.14,1271.69 1710.89,1271.37 1712.64,1271.05 1714.39,1270.73 1716.14,1270.41 1717.89,1270.09 1719.63,1269.78 1721.38,1269.46 1723.13,1269.14 
  1724.88,1268.83 1726.63,1268.51 1728.38,1268.2 1730.13,1267.89 1731.88,1267.58 1733.63,1267.27 1735.38,1266.96 1737.13,1266.66 1738.88,1266.36 1740.63,1266.06 
  1742.38,1265.76 1744.13,1265.47 1745.88,1265.18 1747.63,1264.89 1749.38,1264.61 1751.12,1264.33 1752.87,1264.05 1754.62,1263.78 1756.37,1263.51 1758.12,1263.25 
  1759.87,1262.99 1761.62,1262.73 1763.37,1262.48 1765.12,1262.23 1766.87,1261.99 1768.62,1261.75 1770.37,1261.52 1772.12,1261.3 1773.87,1261.07 1775.62,1260.86 
  1777.37,1260.65 1779.12,1260.45 1780.87,1260.25 1782.61,1260.06 1784.36,1259.87 1786.11,1259.69 1787.86,1259.52 1789.61,1259.35 1791.36,1259.19 1793.11,1259.04 
  1794.86,1258.89 1796.61,1258.75 1798.36,1258.62 1800.11,1258.5 1801.86,1258.38 1803.61,1258.27 1805.36,1258.16 1807.11,1258.07 1808.86,1257.98 1810.61,1257.9 
  1812.36,1257.82 1814.1,1257.76 1815.85,1257.7 1817.6,1257.65 1819.35,1257.61 1821.1,1257.57 1822.85,1257.54 1824.6,1257.52 1826.35,1257.51 1828.1,1257.51 
  1829.85,1257.51 1831.6,1257.52 1833.35,1257.54 1835.1,1257.57 1836.85,1257.6 1838.6,1257.65 1840.35,1257.7 1842.1,1257.76 1843.84,1257.82 1845.59,1257.9 
  1847.34,1257.98 1849.09,1258.07 1850.84,1258.16 1852.59,1258.27 1854.34,1258.38 1856.09,1258.5 1857.84,1258.62 1859.59,1258.75 1861.34,1258.89 1863.09,1259.04 
  1864.84,1259.2 1866.59,1259.36 1868.34,1259.52 1870.09,1259.7 1871.84,1259.88 1873.59,1260.07 1875.33,1260.26 1877.08,1260.46 1878.83,1260.67 1880.58,1260.88 
  1882.33,1261.1 1884.08,1261.32 1885.83,1261.55 1887.58,1261.78 1889.33,1262.02 1891.08,1262.27 1892.83,1262.52 1894.58,1262.77 1896.33,1263.03 1898.08,1263.3 
  1899.83,1263.57 1901.58,1263.84 1903.33,1264.12 1905.08,1264.4 1906.82,1264.69 1908.57,1264.98 1910.32,1265.27 1912.07,1265.57 1913.82,1265.87 1915.57,1266.17 
  1917.32,1266.48 1919.07,1266.79 1920.82,1267.1 1922.57,1267.41 1924.32,1267.73 1926.07,1268.05 1927.82,1268.37 1929.57,1268.69 1931.32,1269.02 1933.07,1269.34 
  1934.82,1269.67 1936.56,1270 1938.31,1270.33 1940.06,1270.66 1941.81,1270.99 1943.56,1271.33 1945.31,1271.66 1947.06,1271.99 1948.81,1272.33 1950.56,1272.66 
  1952.31,1273 1954.06,1273.33 1955.81,1273.67 1957.56,1274 1959.31,1274.33 1961.06,1274.67 1962.81,1275 1964.56,1275.33 1966.31,1275.66 1968.05,1275.99 
  1969.8,1276.31 1971.55,1276.64 1973.3,1276.96 1975.05,1277.29 1976.8,1277.61 1978.55,1277.93 1980.3,1278.25 1982.05,1278.56 1983.8,1278.87 1985.55,1279.19 
  1987.3,1279.5 1989.05,1279.8 1990.8,1280.11 1992.55,1280.41 1994.3,1280.71 1996.05,1281.01 1997.8,1281.3 1999.54,1281.59 2001.29,1281.88 2003.04,1282.16 
  2004.79,1282.45 2006.54,1282.73 2008.29,1283 2010.04,1283.28 2011.79,1283.55 2013.54,1283.81 2015.29,1284.08 2017.04,1284.34 2018.79,1284.6 2020.54,1284.85 
  2022.29,1285.1 2024.04,1285.35 2025.79,1285.59 2027.54,1285.83 2029.29,1286.07 2031.03,1286.3 2032.78,1286.53 2034.53,1286.76 2036.28,1286.98 2038.03,1287.2 
  2039.78,1287.42 2041.53,1287.63 2043.28,1287.84 2045.03,1288.04 2046.78,1288.25 2048.53,1288.44 2050.28,1288.64 2052.03,1288.83 2053.78,1289.02 2055.53,1289.2 
  2057.28,1289.38 2059.03,1289.56 2060.77,1289.74 2062.52,1289.91 2064.27,1290.07 2066.02,1290.24 2067.77,1290.4 2069.52,1290.56 2071.27,1290.71 2073.02,1290.86 
  2074.77,1291.01 2076.52,1291.15 2078.27,1291.29 2080.02,1291.43 2081.77,1291.57 2083.52,1291.7 2085.27,1291.83 2087.02,1291.96 2088.77,1292.08 2090.52,1292.2 
  2092.26,1292.32 2094.01,1292.43 2095.76,1292.54 2097.51,1292.65 2099.26,1292.76 2101.01,1292.86 2102.76,1292.97 2104.51,1293.06 2106.26,1293.16 2108.01,1293.25 
  2109.76,1293.35 2111.51,1293.43 2113.26,1293.52 2115.01,1293.61 2116.76,1293.69 2118.51,1293.77 2120.26,1293.84 2122.01,1293.92 2123.75,1293.99 2125.5,1294.06 
  2127.25,1294.13 2129,1294.2 2130.75,1294.27 2132.5,1294.33 2134.25,1294.39 2136,1294.45 2137.75,1294.51 2139.5,1294.56 2141.25,1294.62 2143,1294.67 
  2144.75,1294.72 2146.5,1294.77 2148.25,1294.82 2150,1294.87 2151.75,1294.91 2153.5,1294.96 2155.24,1295 2156.99,1295.04 2158.74,1295.08 2160.49,1295.12 
  2162.24,1295.15 2163.99,1295.19 2165.74,1295.22 2167.49,1295.26 2169.24,1295.29 2170.99,1295.32 2172.74,1295.35 2174.49,1295.38 2176.24,1295.41 2177.99,1295.44 
  
  "/>
<path clip-path="url(#clip830)" d="
M1415.2 738.085 L2282.85 738.085 L2282.85 90.0846 L1415.2 90.0846  Z
  " fill="#ffffff" fill-rule="evenodd" fill-opacity="1"/>
<polyline clip-path="url(#clip830)" style="stroke:#000000; stroke-linecap:round; stroke-linejoin:round; stroke-width:4; stroke-opacity:1; fill:none" points="
  1415.2,738.085 2282.85,738.085 2282.85,90.0846 1415.2,90.0846 1415.2,738.085 
  "/>
<polyline clip-path="url(#clip830)" style="stroke:#009af9; stroke-linecap:round; stroke-linejoin:round; stroke-width:30; stroke-opacity:1; fill:none" points="
  1438.5,219.685 1578.32,219.685 
  "/>
<path clip-path="url(#clip830)" d="M1631.48 184.181 Q1622.45 184.181 1617.88 193.093 Q1613.37 201.947 1613.37 219.771 Q1613.37 237.538 1617.88 246.45 Q1622.45 255.304 1631.48 255.304 Q1640.57 255.304 1645.08 246.45 Q1649.65 237.538 1649.65 219.771 Q1649.65 201.947 1645.08 193.093 Q1640.57 184.181 1631.48 184.181 M1631.48 174.922 Q1646.01 174.922 1653.65 186.438 Q1661.34 197.897 1661.34 219.771 Q1661.34 241.588 1653.65 253.105 Q1646.01 264.563 1631.48 264.563 Q1616.96 264.563 1609.26 253.105 Q1601.62 241.588 1601.62 219.771 Q1601.62 197.897 1609.26 186.438 Q1616.96 174.922 1631.48 174.922 Z" fill="#000000" fill-rule="evenodd" fill-opacity="1" /><path clip-path="url(#clip830)" d="M1768.52 210.512 Q1772.51 203.336 1778.07 199.922 Q1783.62 196.508 1791.15 196.508 Q1801.27 196.508 1806.77 203.626 Q1812.27 210.686 1812.27 223.764 L1812.27 262.885 L1801.56 262.885 L1801.56 224.112 Q1801.56 214.795 1798.26 210.281 Q1794.97 205.767 1788.19 205.767 Q1779.92 205.767 1775.12 211.265 Q1770.31 216.762 1770.31 226.253 L1770.31 262.885 L1759.61 262.885 L1759.61 224.112 Q1759.61 214.737 1756.31 210.281 Q1753.01 205.767 1746.12 205.767 Q1737.96 205.767 1733.16 211.322 Q1728.36 216.82 1728.36 226.253 L1728.36 262.885 L1717.65 262.885 L1717.65 198.07 L1728.36 198.07 L1728.36 208.14 Q1732 202.179 1737.1 199.343 Q1742.19 196.508 1749.19 196.508 Q1756.25 196.508 1761.17 200.096 Q1766.15 203.684 1768.52 210.512 Z" fill="#000000" fill-rule="evenodd" fill-opacity="1" /><path clip-path="url(#clip830)" d="M1858.62 205.535 Q1850.06 205.535 1845.08 212.248 Q1840.1 218.903 1840.1 230.535 Q1840.1 242.167 1845.02 248.88 Q1850 255.535 1858.62 255.535 Q1867.13 255.535 1872.11 248.822 Q1877.08 242.109 1877.08 230.535 Q1877.08 219.019 1872.11 212.306 Q1867.13 205.535 1858.62 205.535 M1858.62 196.508 Q1872.51 196.508 1880.44 205.535 Q1888.37 214.563 1888.37 230.535 Q1888.37 246.45 1880.44 255.535 Q1872.51 264.563 1858.62 264.563 Q1844.68 264.563 1836.75 255.535 Q1828.88 246.45 1828.88 230.535 Q1828.88 214.563 1836.75 205.535 Q1844.68 196.508 1858.62 196.508 Z" fill="#000000" fill-rule="evenodd" fill-opacity="1" /><path clip-path="url(#clip830)" d="M1956.48 210.512 Q1960.47 203.336 1966.03 199.922 Q1971.58 196.508 1979.11 196.508 Q1989.23 196.508 1994.73 203.626 Q2000.23 210.686 2000.23 223.764 L2000.23 262.885 L1989.52 262.885 L1989.52 224.112 Q1989.52 214.795 1986.23 210.281 Q1982.93 205.767 1976.16 205.767 Q1967.88 205.767 1963.08 211.265 Q1958.27 216.762 1958.27 226.253 L1958.27 262.885 L1947.57 262.885 L1947.57 224.112 Q1947.57 214.737 1944.27 210.281 Q1940.97 205.767 1934.08 205.767 Q1925.93 205.767 1921.12 211.322 Q1916.32 216.82 1916.32 226.253 L1916.32 262.885 L1905.61 262.885 L1905.61 198.07 L1916.32 198.07 L1916.32 208.14 Q1919.96 202.179 1925.06 199.343 Q1930.15 196.508 1937.15 196.508 Q1944.21 196.508 1949.13 200.096 Q1954.11 203.684 1956.48 210.512 Z" fill="#000000" fill-rule="evenodd" fill-opacity="1" /><path clip-path="url(#clip830)" d="M2076.91 227.815 L2076.91 233.024 L2027.95 233.024 Q2028.64 244.019 2034.55 249.806 Q2040.51 255.535 2051.1 255.535 Q2057.23 255.535 2062.96 254.031 Q2068.75 252.526 2074.42 249.517 L2074.42 259.586 Q2068.69 262.017 2062.67 263.29 Q2056.65 264.563 2050.46 264.563 Q2034.95 264.563 2025.87 255.535 Q2016.84 246.507 2016.84 231.114 Q2016.84 215.2 2025.4 205.883 Q2034.03 196.508 2048.61 196.508 Q2061.69 196.508 2069.27 204.957 Q2076.91 213.348 2076.91 227.815 M2066.26 224.69 Q2066.14 215.952 2061.34 210.744 Q2056.6 205.535 2048.73 205.535 Q2039.81 205.535 2034.43 210.57 Q2029.11 215.605 2028.3 224.748 L2066.26 224.69 Z" fill="#000000" fill-rule="evenodd" fill-opacity="1" /><path clip-path="url(#clip830)" d="M2148.26 223.764 L2148.26 262.885 L2137.61 262.885 L2137.61 224.112 Q2137.61 214.91 2134.03 210.339 Q2130.44 205.767 2123.26 205.767 Q2114.64 205.767 2109.66 211.265 Q2104.69 216.762 2104.69 226.253 L2104.69 262.885 L2093.98 262.885 L2093.98 198.07 L2104.69 198.07 L2104.69 208.14 Q2108.51 202.295 2113.66 199.401 Q2118.86 196.508 2125.63 196.508 Q2136.8 196.508 2142.53 203.452 Q2148.26 210.339 2148.26 223.764 Z" fill="#000000" fill-rule="evenodd" fill-opacity="1" /><path clip-path="url(#clip830)" d="M2180.03 179.667 L2180.03 198.07 L2201.97 198.07 L2201.97 206.346 L2180.03 206.346 L2180.03 241.531 Q2180.03 249.459 2182.17 251.716 Q2184.37 253.973 2191.03 253.973 L2201.97 253.973 L2201.97 262.885 L2191.03 262.885 Q2178.7 262.885 2174.01 258.313 Q2169.33 253.683 2169.33 241.531 L2169.33 206.346 L2161.51 206.346 L2161.51 198.07 L2169.33 198.07 L2169.33 179.667 L2180.03 179.667 Z" fill="#000000" fill-rule="evenodd" fill-opacity="1" /><polyline clip-path="url(#clip830)" style="stroke:#e26f46; stroke-linecap:round; stroke-linejoin:round; stroke-width:30; stroke-opacity:1; fill:none" points="
  1438.5,349.285 1578.32,349.285 
  "/>
<path clip-path="url(#clip830)" d="M1640.68 345.899 Q1649.07 347.693 1653.76 353.364 Q1658.51 359.036 1658.51 367.369 Q1658.51 380.158 1649.71 387.161 Q1640.91 394.163 1624.71 394.163 Q1619.27 394.163 1613.48 393.063 Q1607.76 392.022 1601.62 389.88 L1601.62 378.596 Q1606.48 381.431 1612.27 382.878 Q1618.06 384.325 1624.36 384.325 Q1635.36 384.325 1641.09 379.985 Q1646.88 375.644 1646.88 367.369 Q1646.88 359.73 1641.49 355.448 Q1636.17 351.108 1626.62 351.108 L1616.55 351.108 L1616.55 341.501 L1627.08 341.501 Q1635.71 341.501 1640.28 338.087 Q1644.85 334.615 1644.85 328.133 Q1644.85 321.478 1640.1 317.948 Q1635.42 314.36 1626.62 314.36 Q1621.82 314.36 1616.32 315.402 Q1610.82 316.443 1604.23 318.642 L1604.23 308.226 Q1610.88 306.374 1616.67 305.448 Q1622.51 304.522 1627.66 304.522 Q1640.97 304.522 1648.73 310.598 Q1656.48 316.617 1656.48 326.918 Q1656.48 334.094 1652.37 339.071 Q1648.26 343.99 1640.68 345.899 Z" fill="#000000" fill-rule="evenodd" fill-opacity="1" /><path clip-path="url(#clip830)" d="M1767.3 340.112 Q1771.3 332.936 1776.85 329.522 Q1782.41 326.108 1789.93 326.108 Q1800.06 326.108 1805.56 333.226 Q1811.05 340.286 1811.05 353.364 L1811.05 392.485 L1800.35 392.485 L1800.35 353.712 Q1800.35 344.395 1797.05 339.881 Q1793.75 335.367 1786.98 335.367 Q1778.7 335.367 1773.9 340.865 Q1769.1 346.362 1769.1 355.853 L1769.1 392.485 L1758.39 392.485 L1758.39 353.712 Q1758.39 344.337 1755.09 339.881 Q1751.79 335.367 1744.91 335.367 Q1736.75 335.367 1731.94 340.922 Q1727.14 346.42 1727.14 355.853 L1727.14 392.485 L1716.44 392.485 L1716.44 327.67 L1727.14 327.67 L1727.14 337.74 Q1730.79 331.779 1735.88 328.943 Q1740.97 326.108 1747.97 326.108 Q1755.03 326.108 1759.95 329.696 Q1764.93 333.284 1767.3 340.112 Z" fill="#000000" fill-rule="evenodd" fill-opacity="1" /><path clip-path="url(#clip830)" d="M1857.41 335.135 Q1848.84 335.135 1843.87 341.848 Q1838.89 348.503 1838.89 360.135 Q1838.89 371.767 1843.81 378.48 Q1848.78 385.135 1857.41 385.135 Q1865.91 385.135 1870.89 378.422 Q1875.87 371.709 1875.87 360.135 Q1875.87 348.619 1870.89 341.906 Q1865.91 335.135 1857.41 335.135 M1857.41 326.108 Q1871.3 326.108 1879.22 335.135 Q1887.15 344.163 1887.15 360.135 Q1887.15 376.05 1879.22 385.135 Q1871.3 394.163 1857.41 394.163 Q1843.46 394.163 1835.53 385.135 Q1827.66 376.05 1827.66 360.135 Q1827.66 344.163 1835.53 335.135 Q1843.46 326.108 1857.41 326.108 Z" fill="#000000" fill-rule="evenodd" fill-opacity="1" /><path clip-path="url(#clip830)" d="M1955.27 340.112 Q1959.26 332.936 1964.81 329.522 Q1970.37 326.108 1977.89 326.108 Q1988.02 326.108 1993.52 333.226 Q1999.01 340.286 1999.01 353.364 L1999.01 392.485 L1988.31 392.485 L1988.31 353.712 Q1988.31 344.395 1985.01 339.881 Q1981.71 335.367 1974.94 335.367 Q1966.67 335.367 1961.86 340.865 Q1957.06 346.362 1957.06 355.853 L1957.06 392.485 L1946.35 392.485 L1946.35 353.712 Q1946.35 344.337 1943.05 339.881 Q1939.76 335.367 1932.87 335.367 Q1924.71 335.367 1919.91 340.922 Q1915.1 346.42 1915.1 355.853 L1915.1 392.485 L1904.4 392.485 L1904.4 327.67 L1915.1 327.67 L1915.1 337.74 Q1918.75 331.779 1923.84 328.943 Q1928.93 326.108 1935.94 326.108 Q1943 326.108 1947.92 329.696 Q1952.89 333.284 1955.27 340.112 Z" fill="#000000" fill-rule="evenodd" fill-opacity="1" /><path clip-path="url(#clip830)" d="M2075.69 357.415 L2075.69 362.624 L2026.73 362.624 Q2027.43 373.619 2033.33 379.406 Q2039.29 385.135 2049.88 385.135 Q2056.02 385.135 2061.75 383.631 Q2067.53 382.126 2073.2 379.117 L2073.2 389.186 Q2067.48 391.617 2061.46 392.89 Q2055.44 394.163 2049.25 394.163 Q2033.74 394.163 2024.65 385.135 Q2015.62 376.107 2015.62 360.714 Q2015.62 344.8 2024.19 335.483 Q2032.81 326.108 2047.39 326.108 Q2060.47 326.108 2068.05 334.557 Q2075.69 342.948 2075.69 357.415 M2065.04 354.29 Q2064.93 345.552 2060.13 340.344 Q2055.38 335.135 2047.51 335.135 Q2038.6 335.135 2033.22 340.17 Q2027.89 345.205 2027.08 354.348 L2065.04 354.29 Z" fill="#000000" fill-rule="evenodd" fill-opacity="1" /><path clip-path="url(#clip830)" d="M2147.05 353.364 L2147.05 392.485 L2136.4 392.485 L2136.4 353.712 Q2136.4 344.51 2132.81 339.939 Q2129.22 335.367 2122.05 335.367 Q2113.42 335.367 2108.45 340.865 Q2103.47 346.362 2103.47 355.853 L2103.47 392.485 L2092.76 392.485 L2092.76 327.67 L2103.47 327.67 L2103.47 337.74 Q2107.29 331.895 2112.44 329.001 Q2117.65 326.108 2124.42 326.108 Q2135.59 326.108 2141.32 333.052 Q2147.05 339.939 2147.05 353.364 Z" fill="#000000" fill-rule="evenodd" fill-opacity="1" /><path clip-path="url(#clip830)" d="M2178.82 309.267 L2178.82 327.67 L2200.75 327.67 L2200.75 335.946 L2178.82 335.946 L2178.82 371.131 Q2178.82 379.059 2180.96 381.316 Q2183.16 383.573 2189.81 383.573 L2200.75 383.573 L2200.75 392.485 L2189.81 392.485 Q2177.49 392.485 2172.8 387.913 Q2168.11 383.283 2168.11 371.131 L2168.11 335.946 L2160.3 335.946 L2160.3 327.67 L2168.11 327.67 L2168.11 309.267 L2178.82 309.267 Z" fill="#000000" fill-rule="evenodd" fill-opacity="1" /><path clip-path="url(#clip830)" d="M2256.07 329.58 L2256.07 339.649 Q2251.56 337.334 2246.7 336.177 Q2241.84 335.02 2236.63 335.02 Q2228.7 335.02 2224.71 337.45 Q2220.77 339.881 2220.77 344.742 Q2220.77 348.446 2223.61 350.587 Q2226.44 352.67 2235.01 354.58 L2238.65 355.39 Q2250 357.82 2254.74 362.276 Q2259.55 366.675 2259.55 374.603 Q2259.55 383.631 2252.37 388.897 Q2245.25 394.163 2232.75 394.163 Q2227.54 394.163 2221.87 393.121 Q2216.26 392.137 2210.01 390.112 L2210.01 379.117 Q2215.91 382.184 2221.64 383.746 Q2227.37 385.251 2232.98 385.251 Q2240.51 385.251 2244.56 382.705 Q2248.61 380.1 2248.61 375.413 Q2248.61 371.073 2245.66 368.758 Q2242.76 366.443 2232.87 364.302 L2229.16 363.434 Q2219.27 361.351 2214.87 357.068 Q2210.47 352.728 2210.47 345.205 Q2210.47 336.061 2216.95 331.084 Q2223.44 326.108 2235.36 326.108 Q2241.26 326.108 2246.47 326.976 Q2251.68 327.844 2256.07 329.58 Z" fill="#000000" fill-rule="evenodd" fill-opacity="1" /><polyline clip-path="url(#clip830)" style="stroke:#3da44d; stroke-linecap:round; stroke-linejoin:round; stroke-width:30; stroke-opacity:1; fill:none" points="
  1438.5,478.885 1578.32,478.885 
  "/>
<path clip-path="url(#clip830)" d="M1601.62 435.685 L1657.18 435.685 L1657.18 440.661 L1625.81 522.085 L1613.6 522.085 L1643.11 445.523 L1601.62 445.523 L1601.62 435.685 Z" fill="#000000" fill-rule="evenodd" fill-opacity="1" /><path clip-path="url(#clip830)" d="M1766.61 469.712 Q1770.6 462.536 1776.16 459.122 Q1781.71 455.708 1789.24 455.708 Q1799.36 455.708 1804.86 462.826 Q1810.36 469.886 1810.36 482.964 L1810.36 522.085 L1799.65 522.085 L1799.65 483.312 Q1799.65 473.995 1796.35 469.481 Q1793.06 464.967 1786.28 464.967 Q1778.01 464.967 1773.21 470.465 Q1768.4 475.962 1768.4 485.453 L1768.4 522.085 L1757.7 522.085 L1757.7 483.312 Q1757.7 473.937 1754.4 469.481 Q1751.1 464.967 1744.21 464.967 Q1736.05 464.967 1731.25 470.522 Q1726.45 476.02 1726.45 485.453 L1726.45 522.085 L1715.74 522.085 L1715.74 457.27 L1726.45 457.27 L1726.45 467.34 Q1730.09 461.379 1735.19 458.543 Q1740.28 455.708 1747.28 455.708 Q1754.34 455.708 1759.26 459.296 Q1764.24 462.884 1766.61 469.712 Z" fill="#000000" fill-rule="evenodd" fill-opacity="1" /><path clip-path="url(#clip830)" d="M1856.71 464.735 Q1848.15 464.735 1843.17 471.448 Q1838.19 478.103 1838.19 489.735 Q1838.19 501.367 1843.11 508.08 Q1848.09 514.735 1856.71 514.735 Q1865.22 514.735 1870.2 508.022 Q1875.17 501.309 1875.17 489.735 Q1875.17 478.219 1870.2 471.506 Q1865.22 464.735 1856.71 464.735 M1856.71 455.708 Q1870.6 455.708 1878.53 464.735 Q1886.46 473.763 1886.46 489.735 Q1886.46 505.65 1878.53 514.735 Q1870.6 523.763 1856.71 523.763 Q1842.77 523.763 1834.84 514.735 Q1826.97 505.65 1826.97 489.735 Q1826.97 473.763 1834.84 464.735 Q1842.77 455.708 1856.71 455.708 Z" fill="#000000" fill-rule="evenodd" fill-opacity="1" /><path clip-path="url(#clip830)" d="M1954.57 469.712 Q1958.56 462.536 1964.12 459.122 Q1969.67 455.708 1977.2 455.708 Q1987.33 455.708 1992.82 462.826 Q1998.32 469.886 1998.32 482.964 L1998.32 522.085 L1987.61 522.085 L1987.61 483.312 Q1987.61 473.995 1984.32 469.481 Q1981.02 464.967 1974.25 464.967 Q1965.97 464.967 1961.17 470.465 Q1956.36 475.962 1956.36 485.453 L1956.36 522.085 L1945.66 522.085 L1945.66 483.312 Q1945.66 473.937 1942.36 469.481 Q1939.06 464.967 1932.18 464.967 Q1924.02 464.967 1919.21 470.522 Q1914.41 476.02 1914.41 485.453 L1914.41 522.085 L1903.7 522.085 L1903.7 457.27 L1914.41 457.27 L1914.41 467.34 Q1918.05 461.379 1923.15 458.543 Q1928.24 455.708 1935.24 455.708 Q1942.3 455.708 1947.22 459.296 Q1952.2 462.884 1954.57 469.712 Z" fill="#000000" fill-rule="evenodd" fill-opacity="1" /><path clip-path="url(#clip830)" d="M2075 487.015 L2075 492.224 L2026.04 492.224 Q2026.73 503.219 2032.64 509.006 Q2038.6 514.735 2049.19 514.735 Q2055.32 514.735 2061.05 513.231 Q2066.84 511.726 2072.51 508.717 L2072.51 518.786 Q2066.78 521.217 2060.76 522.49 Q2054.74 523.763 2048.55 523.763 Q2033.04 523.763 2023.96 514.735 Q2014.93 505.707 2014.93 490.314 Q2014.93 474.4 2023.49 465.083 Q2032.12 455.708 2046.7 455.708 Q2059.78 455.708 2067.36 464.157 Q2075 472.548 2075 487.015 M2064.35 483.89 Q2064.23 475.152 2059.43 469.944 Q2054.69 464.735 2046.82 464.735 Q2037.9 464.735 2032.52 469.77 Q2027.2 474.805 2026.39 483.948 L2064.35 483.89 Z" fill="#000000" fill-rule="evenodd" fill-opacity="1" /><path clip-path="url(#clip830)" d="M2146.35 482.964 L2146.35 522.085 L2135.7 522.085 L2135.7 483.312 Q2135.7 474.11 2132.12 469.539 Q2128.53 464.967 2121.35 464.967 Q2112.73 464.967 2107.75 470.465 Q2102.78 475.962 2102.78 485.453 L2102.78 522.085 L2092.07 522.085 L2092.07 457.27 L2102.78 457.27 L2102.78 467.34 Q2106.6 461.495 2111.75 458.601 Q2116.95 455.708 2123.72 455.708 Q2134.89 455.708 2140.62 462.652 Q2146.35 469.539 2146.35 482.964 Z" fill="#000000" fill-rule="evenodd" fill-opacity="1" /><path clip-path="url(#clip830)" d="M2178.12 438.867 L2178.12 457.27 L2200.06 457.27 L2200.06 465.546 L2178.12 465.546 L2178.12 500.731 Q2178.12 508.659 2180.26 510.916 Q2182.46 513.173 2189.12 513.173 L2200.06 513.173 L2200.06 522.085 L2189.12 522.085 Q2176.79 522.085 2172.1 517.513 Q2167.42 512.883 2167.42 500.731 L2167.42 465.546 L2159.6 465.546 L2159.6 457.27 L2167.42 457.27 L2167.42 438.867 L2178.12 438.867 Z" fill="#000000" fill-rule="evenodd" fill-opacity="1" /><path clip-path="url(#clip830)" d="M2255.38 459.18 L2255.38 469.249 Q2250.87 466.934 2246 465.777 Q2241.14 464.62 2235.93 464.62 Q2228.01 464.62 2224.01 467.05 Q2220.08 469.481 2220.08 474.342 Q2220.08 478.046 2222.91 480.187 Q2225.75 482.27 2234.31 484.18 L2237.96 484.99 Q2249.3 487.42 2254.05 491.876 Q2258.85 496.275 2258.85 504.203 Q2258.85 513.231 2251.68 518.497 Q2244.56 523.763 2232.06 523.763 Q2226.85 523.763 2221.18 522.721 Q2215.56 521.737 2209.31 519.712 L2209.31 508.717 Q2215.22 511.784 2220.95 513.346 Q2226.68 514.851 2232.29 514.851 Q2239.81 514.851 2243.86 512.305 Q2247.91 509.7 2247.91 505.013 Q2247.91 500.673 2244.96 498.358 Q2242.07 496.043 2232.17 493.902 L2228.47 493.034 Q2218.57 490.951 2214.18 486.668 Q2209.78 482.328 2209.78 474.805 Q2209.78 465.661 2216.26 460.684 Q2222.74 455.708 2234.66 455.708 Q2240.56 455.708 2245.77 456.576 Q2250.98 457.444 2255.38 459.18 Z" fill="#000000" fill-rule="evenodd" fill-opacity="1" /><polyline clip-path="url(#clip830)" style="stroke:#000000; stroke-linecap:round; stroke-linejoin:round; stroke-width:15; stroke-opacity:1; fill:none" stroke-dasharray="60, 38" points="
  1438.5,608.485 1578.32,608.485 
  "/>
<path clip-path="url(#clip830)" d="M1661.69 616.615 L1661.69 621.824 L1612.73 621.824 Q1613.43 632.819 1619.33 638.606 Q1625.29 644.335 1635.88 644.335 Q1642.01 644.335 1647.74 642.831 Q1653.53 641.326 1659.2 638.317 L1659.2 648.386 Q1653.47 650.817 1647.45 652.09 Q1641.44 653.363 1635.24 653.363 Q1619.73 653.363 1610.65 644.335 Q1601.62 635.307 1601.62 619.914 Q1601.62 604 1610.19 594.683 Q1618.81 585.308 1633.39 585.308 Q1646.47 585.308 1654.05 593.757 Q1661.69 602.148 1661.69 616.615 M1651.04 613.49 Q1650.93 604.752 1646.12 599.544 Q1641.38 594.335 1633.51 594.335 Q1624.6 594.335 1619.21 599.37 Q1613.89 604.405 1613.08 613.548 L1651.04 613.49 Z" fill="#000000" fill-rule="evenodd" fill-opacity="1" /><path clip-path="url(#clip830)" d="M1730.96 586.87 L1707.52 618.409 L1732.18 651.685 L1719.62 651.685 L1700.75 626.222 L1681.89 651.685 L1669.33 651.685 L1694.5 617.773 L1671.47 586.87 L1684.03 586.87 L1701.22 609.96 L1718.4 586.87 L1730.96 586.87 Z" fill="#000000" fill-rule="evenodd" fill-opacity="1" /><path clip-path="url(#clip830)" d="M1776.68 619.104 Q1763.77 619.104 1758.8 622.055 Q1753.82 625.007 1753.82 632.125 Q1753.82 637.796 1757.52 641.152 Q1761.28 644.451 1767.71 644.451 Q1776.56 644.451 1781.89 638.201 Q1787.27 631.893 1787.27 621.476 L1787.27 619.104 L1776.68 619.104 M1797.92 614.706 L1797.92 651.685 L1787.27 651.685 L1787.27 641.847 Q1783.62 647.749 1778.18 650.585 Q1772.74 653.363 1764.87 653.363 Q1754.92 653.363 1749.02 647.807 Q1743.17 642.194 1743.17 632.819 Q1743.17 621.882 1750.46 616.326 Q1757.81 610.77 1772.34 610.77 L1787.27 610.77 L1787.27 609.729 Q1787.27 602.379 1782.41 598.386 Q1777.6 594.335 1768.87 594.335 Q1763.31 594.335 1758.04 595.666 Q1752.78 596.997 1747.92 599.659 L1747.92 589.822 Q1753.76 587.565 1759.26 586.465 Q1764.76 585.308 1769.97 585.308 Q1784.03 585.308 1790.97 592.599 Q1797.92 599.891 1797.92 614.706 Z" fill="#000000" fill-rule="evenodd" fill-opacity="1" /><path clip-path="url(#clip830)" d="M1866.49 589.359 L1866.49 599.312 Q1861.98 596.824 1857.41 595.609 Q1852.89 594.335 1848.26 594.335 Q1837.9 594.335 1832.18 600.933 Q1826.45 607.472 1826.45 619.335 Q1826.45 631.199 1832.18 637.796 Q1837.9 644.335 1848.26 644.335 Q1852.89 644.335 1857.41 643.12 Q1861.98 641.847 1866.49 639.358 L1866.49 649.196 Q1862.04 651.28 1857.23 652.321 Q1852.49 653.363 1847.11 653.363 Q1832.46 653.363 1823.84 644.162 Q1815.22 634.96 1815.22 619.335 Q1815.22 603.479 1823.9 594.393 Q1832.64 585.308 1847.8 585.308 Q1852.72 585.308 1857.41 586.349 Q1862.09 587.333 1866.49 589.359 Z" fill="#000000" fill-rule="evenodd" fill-opacity="1" /><path clip-path="url(#clip830)" d="M1895.54 568.467 L1895.54 586.87 L1917.48 586.87 L1917.48 595.146 L1895.54 595.146 L1895.54 630.331 Q1895.54 638.259 1897.68 640.516 Q1899.88 642.773 1906.54 642.773 L1917.48 642.773 L1917.48 651.685 L1906.54 651.685 Q1894.21 651.685 1889.52 647.113 Q1884.84 642.483 1884.84 630.331 L1884.84 595.146 L1877.02 595.146 L1877.02 586.87 L1884.84 586.87 L1884.84 568.467 L1895.54 568.467 Z" fill="#000000" fill-rule="evenodd" fill-opacity="1" /></svg>
