<?xml version="1.0" encoding="utf-8"?>
<svg xmlns="http://www.w3.org/2000/svg" xmlns:xlink="http://www.w3.org/1999/xlink" width="600" height="400" viewBox="0 0 2400 1600">
<defs>
  <clipPath id="clip410">
    <rect x="0" y="0" width="2400" height="1600"/>
  </clipPath>
</defs>
<path clip-path="url(#clip410)" d="
M0 1600 L2400 1600 L2400 0 L0 0  Z
  " fill="#ffffff" fill-rule="evenodd" fill-opacity="1"/>
<defs>
  <clipPath id="clip411">
    <rect x="480" y="0" width="1681" height="1600"/>
  </clipPath>
</defs>
<defs>
  <clipPath id="clip412">
    <rect x="156" y="47" width="2198" height="1440"/>
  </clipPath>
</defs>
<path clip-path="url(#clip410)" d="
M340.34 1332.46 L2352.76 1332.46 L2352.76 47.2441 L340.34 47.2441  Z
  " fill="#ffffff" fill-rule="evenodd" fill-opacity="1"/>
<defs>
  <clipPath id="clip413">
    <rect x="340" y="47" width="2013" height="1286"/>
  </clipPath>
</defs>
<polyline clip-path="url(#clip413)" style="stroke:#000000; stroke-linecap:round; stroke-linejoin:round; stroke-width:2; stroke-opacity:0.1; fill:none" points="
  2185.05,1332.46 2185.05,47.2441 
  "/>
<polyline clip-path="url(#clip413)" style="stroke:#000000; stroke-linecap:round; stroke-linejoin:round; stroke-width:2; stroke-opacity:0.1; fill:none" points="
  1346.55,1332.46 1346.55,47.2441 
  "/>
<polyline clip-path="url(#clip413)" style="stroke:#000000; stroke-linecap:round; stroke-linejoin:round; stroke-width:2; stroke-opacity:0.1; fill:none" points="
  508.041,1332.46 508.041,47.2441 
  "/>
<polyline clip-path="url(#clip410)" style="stroke:#000000; stroke-linecap:round; stroke-linejoin:round; stroke-width:4; stroke-opacity:1; fill:none" points="
  340.34,1332.46 2352.76,1332.46 
  "/>
<polyline clip-path="url(#clip410)" style="stroke:#000000; stroke-linecap:round; stroke-linejoin:round; stroke-width:4; stroke-opacity:1; fill:none" points="
  2185.05,1332.46 2185.05,1313.56 
  "/>
<polyline clip-path="url(#clip410)" style="stroke:#000000; stroke-linecap:round; stroke-linejoin:round; stroke-width:4; stroke-opacity:1; fill:none" points="
  1346.55,1332.46 1346.55,1313.56 
  "/>
<polyline clip-path="url(#clip410)" style="stroke:#000000; stroke-linecap:round; stroke-linejoin:round; stroke-width:4; stroke-opacity:1; fill:none" points="
  508.041,1332.46 508.041,1313.56 
  "/>
<path clip-path="url(#clip410)" d="M2166.83 1367.86 L2201.24 1367.86 L2201.24 1375.24 L2174.85 1375.24 L2174.85 1391.12 Q2176.76 1390.47 2178.67 1390.17 Q2180.58 1389.82 2182.49 1389.82 Q2193.34 1389.82 2199.68 1395.77 Q2206.02 1401.71 2206.02 1411.87 Q2206.02 1422.33 2199.51 1428.15 Q2193 1433.92 2181.15 1433.92 Q2177.07 1433.92 2172.82 1433.22 Q2168.61 1432.53 2164.09 1431.14 L2164.09 1422.33 Q2168 1424.46 2172.16 1425.5 Q2176.33 1426.54 2180.97 1426.54 Q2188.48 1426.54 2192.87 1422.59 Q2197.25 1418.64 2197.25 1411.87 Q2197.25 1405.1 2192.87 1401.15 Q2188.48 1397.2 2180.97 1397.2 Q2177.46 1397.2 2173.94 1397.98 Q2170.47 1398.76 2166.83 1400.41 L2166.83 1367.86 Z" fill="#000000" fill-rule="evenodd" fill-opacity="1" /><path clip-path="url(#clip410)" d="M1346.55 1373.63 Q1339.78 1373.63 1336.35 1380.32 Q1332.96 1386.96 1332.96 1400.32 Q1332.96 1413.65 1336.35 1420.33 Q1339.78 1426.97 1346.55 1426.97 Q1353.36 1426.97 1356.75 1420.33 Q1360.18 1413.65 1360.18 1400.32 Q1360.18 1386.96 1356.75 1380.32 Q1353.36 1373.63 1346.55 1373.63 M1346.55 1366.69 Q1357.44 1366.69 1363.17 1375.33 Q1368.94 1383.92 1368.94 1400.32 Q1368.94 1416.69 1363.17 1425.32 Q1357.44 1433.92 1346.55 1433.92 Q1335.65 1433.92 1329.88 1425.32 Q1324.15 1416.69 1324.15 1400.32 Q1324.15 1383.92 1329.88 1375.33 Q1335.65 1366.69 1346.55 1366.69 Z" fill="#000000" fill-rule="evenodd" fill-opacity="1" /><path clip-path="url(#clip410)" d="M451.119 1401.11 L506.761 1401.11 L506.761 1408.48 L451.119 1408.48 L451.119 1401.11 Z" fill="#000000" fill-rule="evenodd" fill-opacity="1" /><path clip-path="url(#clip410)" d="M525.771 1367.86 L560.19 1367.86 L560.19 1375.24 L533.801 1375.24 L533.801 1391.12 Q535.711 1390.47 537.62 1390.17 Q539.53 1389.82 541.44 1389.82 Q552.29 1389.82 558.627 1395.77 Q564.964 1401.71 564.964 1411.87 Q564.964 1422.33 558.454 1428.15 Q551.943 1433.92 540.094 1433.92 Q536.014 1433.92 531.761 1433.22 Q527.551 1432.53 523.037 1431.14 L523.037 1422.33 Q526.943 1424.46 531.11 1425.5 Q535.277 1426.54 539.921 1426.54 Q547.429 1426.54 551.813 1422.59 Q556.197 1418.64 556.197 1411.87 Q556.197 1405.1 551.813 1401.15 Q547.429 1397.2 539.921 1397.2 Q536.405 1397.2 532.889 1397.98 Q529.417 1398.76 525.771 1400.41 L525.771 1367.86 Z" fill="#000000" fill-rule="evenodd" fill-opacity="1" /><path clip-path="url(#clip410)" d="M1388.97 1506.65 Q1388.97 1513.46 1385.53 1526.64 Q1384.14 1532.35 1382.24 1537.54 Q1380.41 1542.67 1377.7 1547.64 Q1374.99 1552.62 1371.84 1556.21 Q1368.7 1559.72 1364.6 1561.92 Q1360.5 1564.11 1355.96 1564.11 Q1348.79 1564.11 1344.54 1559.87 Q1340.37 1555.55 1339.05 1548.16 Q1329.24 1564.11 1316.14 1564.11 Q1308.02 1564.11 1304.21 1558.33 Q1300.41 1552.47 1300.41 1542.67 Q1300.41 1534.39 1302.6 1525.83 Q1306.77 1509.58 1314.9 1498.24 Q1316 1496.92 1317.61 1496.92 Q1318.56 1496.92 1319 1497.21 Q1320.31 1498.02 1320.31 1499.33 Q1320.31 1500.29 1319.58 1501.24 Q1314.46 1508.34 1311.09 1514.41 Q1307.72 1520.49 1306.19 1526.64 Q1305.02 1531.91 1305.02 1536.37 Q1305.02 1543.91 1308.24 1548.59 Q1311.53 1553.28 1318.05 1553.28 Q1324.05 1553.28 1329.32 1549.55 Q1334.59 1545.74 1338.47 1539.37 Q1338.69 1532.42 1340.37 1525.83 Q1341.91 1518.8 1345.49 1518.8 Q1348.35 1518.8 1348.35 1522.68 Q1348.35 1524 1347.76 1526.64 Q1346.15 1533.59 1343.22 1539.81 Q1344.25 1545.89 1348.06 1549.62 Q1351.86 1553.28 1357.94 1553.28 Q1363.57 1553.28 1368.55 1549.18 Q1373.6 1545.08 1376.82 1539.08 Q1380.11 1533 1381.94 1525.83 Q1382.53 1523.42 1382.53 1520.34 Q1382.53 1512.14 1376.82 1507.09 Q1375.21 1505.48 1375.21 1503.36 Q1375.21 1500.87 1377.26 1498.6 Q1379.68 1496.19 1382.53 1496.19 Q1384.65 1496.19 1385.97 1497.5 Q1388.97 1500.14 1388.97 1506.65 Z" fill="#000000" fill-rule="evenodd" fill-opacity="1" /><polyline clip-path="url(#clip413)" style="stroke:#000000; stroke-linecap:round; stroke-linejoin:round; stroke-width:2; stroke-opacity:0.1; fill:none" points="
  340.34,312.003 2352.76,312.003 
  "/>
<polyline clip-path="url(#clip413)" style="stroke:#000000; stroke-linecap:round; stroke-linejoin:round; stroke-width:2; stroke-opacity:0.1; fill:none" points="
  340.34,1296.1 2352.76,1296.1 
  "/>
<polyline clip-path="url(#clip410)" style="stroke:#000000; stroke-linecap:round; stroke-linejoin:round; stroke-width:4; stroke-opacity:1; fill:none" points="
  340.34,1332.46 340.34,47.2441 
  "/>
<polyline clip-path="url(#clip410)" style="stroke:#000000; stroke-linecap:round; stroke-linejoin:round; stroke-width:4; stroke-opacity:1; fill:none" points="
  340.34,312.003 359.238,312.003 
  "/>
<polyline clip-path="url(#clip410)" style="stroke:#000000; stroke-linecap:round; stroke-linejoin:round; stroke-width:4; stroke-opacity:1; fill:none" points="
  340.34,1296.1 359.238,1296.1 
  "/>
<path clip-path="url(#clip410)" d="M198.351 285.375 Q191.58 285.375 188.152 292.059 Q184.766 298.7 184.766 312.068 Q184.766 325.392 188.152 332.076 Q191.58 338.717 198.351 338.717 Q205.165 338.717 208.551 332.076 Q211.98 325.392 211.98 312.068 Q211.98 298.7 208.551 292.059 Q205.165 285.375 198.351 285.375 M198.351 278.431 Q209.245 278.431 214.974 287.068 Q220.747 295.662 220.747 312.068 Q220.747 328.431 214.974 337.068 Q209.245 345.661 198.351 345.661 Q187.457 345.661 181.685 337.068 Q175.955 328.431 175.955 312.068 Q175.955 295.662 181.685 287.068 Q187.457 278.431 198.351 278.431 Z" fill="#000000" fill-rule="evenodd" fill-opacity="1" /><path clip-path="url(#clip410)" d="M236.155 333.379 L245.313 333.379 L245.313 344.403 L236.155 344.403 L236.155 333.379 Z" fill="#000000" fill-rule="evenodd" fill-opacity="1" /><path clip-path="url(#clip410)" d="M290.972 309.464 Q297.266 310.809 300.781 315.063 Q304.34 319.316 304.34 325.566 Q304.34 335.158 297.743 340.41 Q291.146 345.661 278.993 345.661 Q274.913 345.661 270.573 344.837 Q266.276 344.056 261.675 342.45 L261.675 333.986 Q265.321 336.113 269.662 337.198 Q274.002 338.283 278.733 338.283 Q286.979 338.283 291.276 335.028 Q295.616 331.773 295.616 325.566 Q295.616 319.837 291.58 316.625 Q287.587 313.37 280.425 313.37 L272.873 313.37 L272.873 306.165 L280.773 306.165 Q287.24 306.165 290.668 303.604 Q294.097 301 294.097 296.139 Q294.097 291.148 290.538 288.5 Q287.023 285.809 280.425 285.809 Q276.823 285.809 272.7 286.591 Q268.576 287.372 263.629 289.021 L263.629 281.209 Q268.62 279.82 272.96 279.125 Q277.344 278.431 281.207 278.431 Q291.189 278.431 297.005 282.988 Q302.821 287.502 302.821 295.228 Q302.821 300.61 299.739 304.342 Q296.658 308.031 290.972 309.464 Z" fill="#000000" fill-rule="evenodd" fill-opacity="1" /><path clip-path="url(#clip410)" d="M197.136 1269.47 Q190.365 1269.47 186.936 1276.15 Q183.551 1282.79 183.551 1296.16 Q183.551 1309.49 186.936 1316.17 Q190.365 1322.81 197.136 1322.81 Q203.95 1322.81 207.335 1316.17 Q210.764 1309.49 210.764 1296.16 Q210.764 1282.79 207.335 1276.15 Q203.95 1269.47 197.136 1269.47 M197.136 1262.53 Q208.03 1262.53 213.759 1271.16 Q219.532 1279.76 219.532 1296.16 Q219.532 1312.53 213.759 1321.16 Q208.03 1329.76 197.136 1329.76 Q186.242 1329.76 180.469 1321.16 Q174.74 1312.53 174.74 1296.16 Q174.74 1279.76 180.469 1271.16 Q186.242 1262.53 197.136 1262.53 Z" fill="#000000" fill-rule="evenodd" fill-opacity="1" /><path clip-path="url(#clip410)" d="M234.939 1317.47 L244.097 1317.47 L244.097 1328.5 L234.939 1328.5 L234.939 1317.47 Z" fill="#000000" fill-rule="evenodd" fill-opacity="1" /><path clip-path="url(#clip410)" d="M281.944 1269.47 Q275.174 1269.47 271.745 1276.15 Q268.359 1282.79 268.359 1296.16 Q268.359 1309.49 271.745 1316.17 Q275.174 1322.81 281.944 1322.81 Q288.759 1322.81 292.144 1316.17 Q295.573 1309.49 295.573 1296.16 Q295.573 1282.79 292.144 1276.15 Q288.759 1269.47 281.944 1269.47 M281.944 1262.53 Q292.838 1262.53 298.568 1271.16 Q304.34 1279.76 304.34 1296.16 Q304.34 1312.53 298.568 1321.16 Q292.838 1329.76 281.944 1329.76 Q271.05 1329.76 265.278 1321.16 Q259.549 1312.53 259.549 1296.16 Q259.549 1279.76 265.278 1271.16 Q271.05 1262.53 281.944 1262.53 Z" fill="#000000" fill-rule="evenodd" fill-opacity="1" /><path clip-path="url(#clip410)" d="M48.927 657.422 Q59.7599 657.422 69.934 662.985 Q80.1081 668.474 86.2565 677.111 Q92.4049 685.675 92.4049 694.312 Q92.4049 704.047 82.304 709.098 Q118.975 718.247 119.926 718.759 Q123.074 720.882 123.074 723.956 Q123.074 725.859 121.903 727.03 Q120.805 728.202 119.048 728.202 Q118.462 728.128 116.632 727.689 L57.7104 713.05 Q44.0229 709.683 34.288 699.509 Q24.4798 689.262 24.4798 678.282 Q24.4798 669.572 30.9942 663.497 Q37.5085 657.422 48.927 657.422 M42.4858 668.182 Q35.1663 668.182 31.5065 671.109 Q27.7736 674.037 27.7736 678.575 Q27.7736 682.747 31.1406 687.798 Q34.5075 692.775 41.9734 697.167 Q46.292 699.509 51.6352 701.193 Q56.9784 702.876 70.1536 706.17 Q75.4236 707.341 75.7164 707.341 Q76.302 707.341 77.6195 707.048 Q78.937 706.682 80.9865 705.804 Q82.9627 704.852 84.7194 703.535 Q86.4761 702.217 87.7936 699.802 Q89.0379 697.386 89.0379 694.459 Q89.0379 689.921 85.3782 685.09 Q81.6452 680.186 74.8381 676.599 Q69.3484 673.598 59.0279 670.89 Q48.6342 668.182 42.4858 668.182 Z" fill="#000000" fill-rule="evenodd" fill-opacity="1" /><polyline clip-path="url(#clip413)" style="stroke:#009af9; stroke-linecap:round; stroke-linejoin:round; stroke-width:12; stroke-opacity:1; fill:none" points="
  -330.465,1296.09 -327.108,1296.09 -323.75,1296.09 -320.393,1296.09 -317.036,1296.09 -313.678,1296.08 -310.321,1296.08 -306.963,1296.08 -303.606,1296.08 -300.249,1296.08 
  -296.891,1296.08 -293.534,1296.08 -290.176,1296.08 -286.819,1296.08 -283.462,1296.08 -280.104,1296.08 -276.747,1296.08 -273.39,1296.08 -270.032,1296.08 -266.675,1296.08 
  -263.317,1296.08 -259.96,1296.08 -256.603,1296.08 -253.245,1296.08 -249.888,1296.08 -246.531,1296.08 -243.173,1296.08 -239.816,1296.08 -236.458,1296.08 -233.101,1296.08 
  -229.744,1296.08 -226.386,1296.08 -223.029,1296.08 -219.671,1296.08 -216.314,1296.08 -212.957,1296.08 -209.599,1296.08 -206.242,1296.08 -202.885,1296.08 -199.527,1296.08 
  -196.17,1296.08 -192.812,1296.08 -189.455,1296.08 -186.098,1296.08 -182.74,1296.08 -179.383,1296.08 -176.025,1296.08 -172.668,1296.08 -169.311,1296.08 -165.953,1296.08 
  -162.596,1296.08 -159.239,1296.08 -155.881,1296.08 -152.524,1296.08 -149.166,1296.08 -145.809,1296.08 -142.452,1296.08 -139.094,1296.08 -135.737,1296.08 -132.379,1296.08 
  -129.022,1296.08 -125.665,1296.08 -122.307,1296.08 -118.95,1296.08 -115.593,1296.08 -112.235,1296.08 -108.878,1296.08 -105.52,1296.08 -102.163,1296.08 -98.8056,1296.08 
  -95.4482,1296.08 -92.0909,1296.08 -88.7335,1296.08 -85.3761,1296.08 -82.0187,1296.08 -78.6613,1296.08 -75.3039,1296.08 -71.9466,1296.08 -68.5892,1296.08 -65.2318,1296.08 
  -61.8744,1296.08 -58.517,1296.08 -55.1596,1296.08 -51.8023,1296.08 -48.4449,1296.08 -45.0875,1296.08 -41.7301,1296.08 -38.3727,1296.08 -35.0153,1296.08 -31.6579,1296.08 
  -28.3006,1296.08 -24.9432,1296.08 -21.5858,1296.08 -18.2284,1296.08 -14.871,1296.08 -11.5136,1296.08 -8.15626,1296.08 -4.79888,1296.08 -1.4415,1296.08 1.91589,1296.08 
  5.27327,1296.08 8.63065,1296.08 11.988,1296.08 15.3454,1296.08 18.7028,1296.08 22.0602,1296.08 25.4176,1296.08 28.775,1296.08 32.1323,1296.08 35.4897,1296.08 
  38.8471,1296.08 42.2045,1296.08 45.5619,1296.08 48.9193,1296.08 52.2766,1296.08 55.634,1296.07 58.9914,1296.07 62.3488,1296.07 65.7062,1296.07 69.0636,1296.07 
  72.4209,1296.07 75.7783,1296.07 79.1357,1296.07 82.4931,1296.07 85.8505,1296.07 89.2079,1296.07 92.5652,1296.07 95.9226,1296.07 99.28,1296.07 102.637,1296.07 
  105.995,1296.07 109.352,1296.07 112.71,1296.07 116.067,1296.07 119.424,1296.07 122.782,1296.07 126.139,1296.07 129.496,1296.07 132.854,1296.07 136.211,1296.07 
  139.569,1296.07 142.926,1296.07 146.283,1296.07 149.641,1296.07 152.998,1296.07 156.356,1296.07 159.713,1296.07 163.07,1296.07 166.428,1296.07 169.785,1296.07 
  173.142,1296.07 176.5,1296.07 179.857,1296.07 183.215,1296.07 186.572,1296.07 189.929,1296.07 193.287,1296.07 196.644,1296.07 200.002,1296.07 203.359,1296.07 
  206.716,1296.07 210.074,1296.07 213.431,1296.07 216.788,1296.07 220.146,1296.07 223.503,1296.06 226.861,1296.06 230.218,1296.06 233.575,1296.06 236.933,1296.06 
  240.29,1296.06 243.648,1296.06 247.005,1296.06 250.362,1296.06 253.72,1296.06 257.077,1296.06 260.434,1296.06 263.792,1296.06 267.149,1296.06 270.507,1296.06 
  273.864,1296.06 277.221,1296.06 280.579,1296.06 283.936,1296.06 287.293,1296.06 290.651,1296.06 294.008,1296.06 297.366,1296.05 300.723,1296.05 304.08,1296.05 
  307.438,1296.05 310.795,1296.05 314.153,1296.05 317.51,1296.05 320.867,1296.05 324.225,1296.05 327.582,1296.05 330.939,1296.04 334.297,1296.04 337.654,1296.04 
  341.012,1296.04 344.369,1296.04 347.726,1296.03 351.084,1296.03 354.441,1296.03 357.799,1296.02 361.156,1296.02 364.513,1296.01 367.871,1296 371.228,1296 
  374.585,1295.99 377.943,1295.98 381.3,1295.96 384.658,1295.94 388.015,1295.92 391.372,1295.9 394.73,1295.86 398.087,1295.82 401.445,1295.77 404.802,1295.71 
  408.159,1295.62 411.517,1295.52 414.874,1295.4 418.231,1295.25 421.589,1295.08 424.946,1294.92 428.304,1294.78 431.661,1294.68 435.018,1294.64 438.376,1294.66 
  441.733,1294.71 445.091,1294.79 448.448,1294.88 451.805,1294.96 455.163,1295.04 458.52,1295.11 461.877,1295.16 465.235,1295.21 468.592,1295.25 471.95,1295.29 
  475.307,1295.31 478.664,1295.33 482.022,1295.35 485.379,1295.36 488.737,1295.36 492.094,1295.36 495.451,1295.36 498.809,1295.35 502.166,1295.34 505.523,1295.33 
  508.881,1295.31 512.238,1295.28 515.596,1295.26 518.953,1295.22 522.31,1295.19 525.668,1295.14 529.025,1295.09 532.383,1295.03 535.74,1294.96 539.097,1294.88 
  542.455,1294.79 545.812,1294.69 549.169,1294.57 552.527,1294.43 555.884,1294.27 559.242,1294.08 562.599,1293.85 565.956,1293.58 569.314,1293.27 572.671,1292.89 
  576.028,1292.43 579.386,1291.87 582.743,1291.19 586.101,1290.36 589.458,1289.34 592.815,1288.07 596.173,1286.5 599.53,1284.56 602.888,1282.2 606.245,1279.39 
  609.602,1276.16 612.96,1272.68 616.317,1269.27 619.674,1266.4 623.032,1264.53 626.389,1263.9 629.747,1264.47 633.104,1265.92 636.461,1267.86 639.819,1269.96 
  643.176,1271.99 646.534,1273.85 649.891,1275.47 653.248,1276.85 656.606,1278 659.963,1278.94 663.32,1279.69 666.678,1280.27 670.035,1280.7 673.393,1280.99 
  676.75,1281.15 680.107,1281.18 683.465,1281.1 686.822,1280.9 690.18,1280.57 693.537,1280.11 696.894,1279.51 700.252,1278.76 703.609,1277.82 706.966,1276.69 
  710.324,1275.31 713.681,1273.66 717.039,1271.67 720.396,1269.27 723.753,1266.38 727.111,1262.88 730.468,1258.64 733.826,1253.46 737.183,1247.12 740.54,1239.35 
  743.898,1229.84 747.255,1218.26 750.612,1204.34 753.97,1188 757.327,1169.58 760.685,1150.17 764.042,1131.75 767.399,1116.99 770.757,1108.37 774.114,1107.11 
  777.472,1112.56 780.829,1122.73 784.186,1135.29 787.544,1148.33 790.901,1160.65 794.258,1171.62 797.616,1181.01 800.973,1188.82 804.331,1195.15 807.688,1200.14 
  811.045,1203.92 814.403,1206.59 817.76,1208.24 821.117,1208.92 824.475,1208.67 827.832,1207.46 831.19,1205.25 834.547,1201.98 837.904,1197.52 841.262,1191.7 
  844.619,1184.3 847.977,1175.02 851.334,1163.47 854.691,1149.15 858.049,1131.46 861.406,1109.65 864.763,1082.9 868.121,1050.37 871.478,1011.47 874.836,966.305 
  878.193,916.403 881.55,865.53 884.908,820.016 888.265,787.577 891.623,774.345 894.98,781.784 898.337,806.093 901.695,840.548 905.052,878.562 908.409,915.417 
  911.767,948.477 915.124,976.645 918.482,999.729 921.839,1017.97 925.196,1031.75 928.554,1041.46 931.911,1047.38 935.269,1049.72 938.626,1048.52 941.983,1043.69 
  945.341,1035 948.698,1022.01 952.055,1004.12 955.413,980.477 958.77,949.991 962.128,911.346 965.485,863.103 968.842,803.99 972.2,733.55 975.557,653.308 
  978.915,568.415 982.272,488.95 985.629,428.985 988.987,401.697 992.344,412.433 995.701,455.604 999.059,518.444 1002.42,587.684 1005.77,653.781 1009.13,711.571 
  1012.49,759.079 1015.85,796.095 1019.2,823.153 1022.56,840.939 1025.92,849.989 1029.28,850.542 1032.63,842.466 1035.99,825.214 1039.35,797.796 1042.7,758.785 
  1046.06,706.421 1049.42,638.951 1052.78,555.465 1056.13,457.555 1059.49,351.914 1062.85,252.791 1066.21,180.991 1069.56,155.929 1072.92,183.879 1076.28,253.588 
  1079.64,344.204 1082.99,436.576 1086.35,518.702 1089.71,585.213 1093.07,634.744 1096.42,667.669 1099.78,684.718 1103.14,686.281 1106.5,672.093 1109.85,641.15 
  1113.21,591.846 1116.57,522.527 1119.92,432.913 1123.28,326.962 1126.64,217.07 1130,126.574 1133.35,83.6181 1136.71,104.123 1140.07,178.818 1143.43,280.679 
  1146.78,383.088 1150.14,469.738 1153.5,533.879 1156.86,573.97 1160.21,590.195 1163.57,582.612 1166.93,550.528 1170.29,492.922 1173.64,410.356 1177,309.287 
  1180.36,208.281 1183.71,139.611 1187.07,134.188 1190.43,195.363 1193.79,294.807 1197.14,397.011 1200.5,479.01 1203.86,531.351 1207.22,551.558 1210.57,539.155 
  1213.93,494.197 1217.29,419.602 1220.65,328.034 1224,249.967 1227.36,226.368 1230.72,274.257 1234.08,366.132 1237.43,458.491 1240.79,523.085 1244.15,549.066 
  1247.51,534.208 1250.86,481.571 1254.22,405.746 1257.58,343.348 1260.93,340.424 1264.29,403.336 1267.65,487.795 1271.01,548.507 1274.36,565.006 1277.72,535.506 
  1281.08,476.469 1284.44,432.115 1287.79,449.822 1291.15,516.492 1294.51,574.632 1297.87,587.73 1301.22,555.451 1304.58,515.424 1307.94,524.216 1311.3,577.288 
  1314.65,613.22 1318.01,602.528 1321.37,576.93 1324.73,592.803 1328.08,631.021 1331.44,636.294 1334.8,625.367 1338.15,644.864 1341.51,661.398 1344.87,660.727 
  1348.23,678.128 1351.58,684.982 1354.94,687.591 1358.3,712.7 1361.66,720.586 1365.01,710.244 1368.37,727.186 1371.73,760.869 1375.09,768.553 1378.44,751.073 
  1381.8,748.657 1385.16,781.461 1388.52,817.997 1391.87,828.625 1395.23,812.542 1398.59,793.017 1401.94,800.739 1405.3,837.533 1408.66,876.45 1412.02,896.854 
  1415.37,894.177 1418.73,874.848 1422.09,855.193 1425.45,855.731 1428.8,882.633 1432.16,921.341 1435.52,954.351 1438.88,973.159 1442.23,976.389 1445.59,966.25 
  1448.95,948.177 1452.31,931.92 1455.66,929.223 1459.02,945.62 1462.38,975.335 1465.74,1007.42 1469.09,1033.93 1472.45,1051.64 1475.81,1060.18 1479.16,1060.29 
  1482.52,1053.27 1485.88,1041.27 1489.24,1027.95 1492.59,1018.65 1495.95,1018.66 1499.31,1030.07 1502.67,1050.15 1506.02,1073.6 1509.38,1095.79 1512.74,1114.14 
  1516.1,1127.79 1519.45,1136.79 1522.81,1141.51 1526.17,1142.39 1529.53,1139.86 1532.88,1134.45 1536.24,1126.93 1539.6,1118.5 1542.95,1110.96 1546.31,1106.4 
  1549.67,1106.64 1553.03,1112.32 1556.38,1122.58 1559.74,1135.54 1563.1,1149.2 1566.46,1162.02 1569.81,1173.16 1573.17,1182.26 1576.53,1189.3 1579.89,1194.37 
  1583.24,1197.63 1586.6,1199.22 1589.96,1199.23 1593.32,1197.74 1596.67,1194.79 1600.03,1190.42 1603.39,1184.69 1606.75,1177.73 1610.1,1169.79 1613.46,1161.3 
  1616.82,1152.92 1620.17,1145.48 1623.53,1139.89 1626.89,1136.9 1630.25,1136.83 1633.6,1139.54 1636.96,1144.45 1640.32,1150.73 1643.68,1157.58 1647.03,1164.32 
  1650.39,1170.47 1653.75,1175.74 1657.11,1179.94 1660.46,1183 1663.82,1184.88 1667.18,1185.56 1670.54,1184.99 1673.89,1183.14 1677.25,1179.92 1680.61,1175.25 
  1683.97,1168.97 1687.32,1160.91 1690.68,1150.87 1694.04,1138.65 1697.39,1124.04 1700.75,1106.95 1704.11,1087.44 1707.47,1065.92 1710.82,1043.22 1714.18,1020.78 
  1717.54,1000.53 1720.9,984.654 1724.25,974.984 1727.61,972.439 1730.97,976.721 1734.33,986.48 1737.68,999.828 1741.04,1014.87 1744.4,1030.06 1747.76,1044.3 
  1751.11,1056.93 1754.47,1067.6 1757.83,1076.15 1761.18,1082.53 1764.54,1086.75 1767.9,1088.84 1771.26,1088.77 1774.61,1086.51 1777.97,1081.96 1781.33,1074.98 
  1784.69,1065.36 1788.04,1052.82 1791.4,1037.04 1794.76,1017.65 1798.12,994.273 1801.47,966.631 1804.83,934.648 1808.19,898.696 1811.55,859.882 1814.9,820.376 
  1818.26,783.576 1821.62,753.851 1824.98,735.626 1828.33,731.974 1831.69,743.416 1835.05,767.712 1838.4,800.807 1841.76,838.248 1845.12,876.294 1848.48,912.372 
  1851.83,945.024 1855.19,973.628 1858.55,998.089 1861.91,1018.6 1865.26,1035.47 1868.62,1049.05 1871.98,1059.66 1875.34,1067.58 1878.69,1073 1882.05,1076.08 
  1885.41,1076.91 1888.77,1075.51 1892.12,1071.83 1895.48,1065.77 1898.84,1057.18 1902.2,1045.84 1905.55,1031.49 1908.91,1013.87 1912.27,992.747 1915.62,968.067 
  1918.98,940.083 1922.34,909.64 1925.7,878.489 1929.05,849.543 1932.41,826.813 1935.77,814.701 1939.13,816.601 1942.48,833.41 1945.84,862.964 1949.2,900.911 
  1952.56,942.376 1955.91,983.353 1959.27,1021.27 1962.63,1054.87 1965.99,1083.84 1969.34,1108.38 1972.7,1128.96 1976.06,1146.11 1979.41,1160.36 1982.77,1172.15 
  1986.13,1181.89 1989.49,1189.89 1992.84,1196.43 1996.2,1201.7 1999.56,1205.87 2002.92,1209.06 2006.27,1211.36 2009.63,1212.85 2012.99,1213.55 2016.35,1213.47 
  2019.7,1212.63 2023.06,1210.98 2026.42,1208.49 2029.78,1205.09 2033.13,1200.72 2036.49,1195.33 2039.85,1188.87 2043.21,1181.42 2046.56,1173.17 2049.92,1164.62 
  2053.28,1156.6 2056.63,1150.4 2059.99,1147.55 2063.35,1149.43 2066.71,1156.53 2070.06,1168.18 2073.42,1182.71 2076.78,1198.16 2080.14,1212.98 2083.49,1226.24 
  2086.85,1237.6 2090.21,1247.06 2093.57,1254.82 2096.92,1261.15 2100.28,1266.29 2103.64,1270.47 2107,1273.89 2110.35,1276.69 2113.71,1279 2117.07,1280.91 
  2120.42,1282.5 2123.78,1283.84 2127.14,1284.95 2130.5,1285.89 2133.85,1286.69 2137.21,1287.35 2140.57,1287.92 2143.93,1288.39 2147.28,1288.78 2150.64,1289.11 
  2154,1289.37 2157.36,1289.57 2160.71,1289.72 2164.07,1289.82 2167.43,1289.87 2170.79,1289.87 2174.14,1289.82 2177.5,1289.71 2180.86,1289.55 2184.22,1289.32 
  2187.57,1289.04 2190.93,1288.69 2194.29,1288.28 2197.64,1287.83 2201,1287.38 2204.36,1287 2207.72,1286.77 2211.07,1286.83 2214.43,1287.24 2217.79,1288.01 
  2221.15,1289.05 2224.5,1290.18 2227.86,1291.27 2231.22,1292.23 2234.58,1293.02 2237.93,1293.66 2241.29,1294.15 2244.65,1294.54 2248.01,1294.84 2251.36,1295.07 
  2254.72,1295.25 2258.08,1295.39 2261.44,1295.51 2264.79,1295.6 2268.15,1295.67 2271.51,1295.73 2274.86,1295.78 2278.22,1295.82 2281.58,1295.85 2284.94,1295.88 
  2288.29,1295.9 2291.65,1295.92 2295.01,1295.94 2298.37,1295.95 2301.72,1295.96 2305.08,1295.97 2308.44,1295.98 2311.8,1295.99 2315.15,1296 2318.51,1296 
  2321.87,1296.01 2325.23,1296.01 2328.58,1296.02 2331.94,1296.02 2335.3,1296.02 2338.65,1296.03 2342.01,1296.03 2345.37,1296.03 2348.73,1296.03 2352.08,1296.04 
  2355.44,1296.04 2358.8,1296.04 2362.16,1296.04 2365.51,1296.04 2368.87,1296.04 2372.23,1296.05 2375.59,1296.05 2378.94,1296.05 2382.3,1296.05 2385.66,1296.05 
  2389.02,1296.05 2392.37,1296.05 2395.73,1296.05 2399.09,1296.05 2402.45,1296.05 2405.8,1296.05 2409.16,1296.06 2412.52,1296.06 2415.87,1296.06 2419.23,1296.06 
  2422.59,1296.06 2425.95,1296.06 2429.3,1296.06 2432.66,1296.06 2436.02,1296.06 2439.38,1296.06 2442.73,1296.06 2446.09,1296.06 2449.45,1296.06 2452.81,1296.06 
  2456.16,1296.06 2459.52,1296.06 2462.88,1296.06 2466.24,1296.06 2469.59,1296.06 2472.95,1296.06 2476.31,1296.06 2479.67,1296.06 2483.02,1296.07 2486.38,1296.07 
  2489.74,1296.07 2493.09,1296.07 2496.45,1296.07 2499.81,1296.07 2503.17,1296.07 2506.52,1296.07 2509.88,1296.07 2513.24,1296.07 2516.6,1296.07 2519.95,1296.07 
  2523.31,1296.07 2526.67,1296.07 2530.03,1296.07 2533.38,1296.07 2536.74,1296.07 2540.1,1296.07 2543.46,1296.07 2546.81,1296.07 2550.17,1296.07 2553.53,1296.07 
  2556.88,1296.07 2560.24,1296.07 2563.6,1296.07 2566.96,1296.07 2570.31,1296.07 2573.67,1296.07 2577.03,1296.07 2580.39,1296.07 2583.74,1296.07 2587.1,1296.07 
  2590.46,1296.07 2593.82,1296.07 2597.17,1296.07 2600.53,1296.07 2603.89,1296.07 2607.25,1296.07 2610.6,1296.07 2613.96,1296.07 2617.32,1296.07 2620.68,1296.07 
  2624.03,1296.07 2627.39,1296.07 2630.75,1296.08 2634.1,1296.08 2637.46,1296.08 2640.82,1296.08 2644.18,1296.08 2647.53,1296.08 2650.89,1296.08 2654.25,1296.08 
  2657.61,1296.08 2660.96,1296.08 2664.32,1296.08 2667.68,1296.08 2671.04,1296.08 2674.39,1296.08 2677.75,1296.08 2681.11,1296.08 2684.47,1296.08 2687.82,1296.08 
  2691.18,1296.08 2694.54,1296.08 2697.89,1296.08 2701.25,1296.08 2704.61,1296.08 2707.97,1296.08 2711.32,1296.08 2714.68,1296.08 2718.04,1296.08 2721.4,1296.08 
  2724.75,1296.08 2728.11,1296.08 2731.47,1296.08 2734.83,1296.08 2738.18,1296.08 2741.54,1296.08 2744.9,1296.08 2748.26,1296.08 2751.61,1296.08 2754.97,1296.08 
  2758.33,1296.08 2761.69,1296.08 2765.04,1296.08 2768.4,1296.08 2771.76,1296.08 2775.11,1296.08 2778.47,1296.08 2781.83,1296.08 2785.19,1296.08 2788.54,1296.08 
  2791.9,1296.08 2795.26,1296.08 2798.62,1296.08 2801.97,1296.08 2805.33,1296.08 2808.69,1296.08 2812.05,1296.08 2815.4,1296.08 2818.76,1296.08 2822.12,1296.08 
  2825.48,1296.08 2828.83,1296.08 2832.19,1296.08 2835.55,1296.08 2838.91,1296.08 2842.26,1296.08 2845.62,1296.08 2848.98,1296.08 2852.33,1296.08 2855.69,1296.08 
  2859.05,1296.08 2862.41,1296.08 2865.76,1296.08 2869.12,1296.08 2872.48,1296.08 2875.84,1296.08 2879.19,1296.08 2882.55,1296.08 2885.91,1296.08 2889.27,1296.08 
  2892.62,1296.08 2895.98,1296.08 2899.34,1296.08 2902.7,1296.08 2906.05,1296.08 2909.41,1296.08 2912.77,1296.08 2916.12,1296.08 2919.48,1296.08 2922.84,1296.08 
  2926.2,1296.08 2929.55,1296.08 2932.91,1296.08 2936.27,1296.08 2939.63,1296.08 2942.98,1296.08 2946.34,1296.08 2949.7,1296.08 2953.06,1296.08 2956.41,1296.08 
  2959.77,1296.08 2963.13,1296.08 2966.49,1296.08 2969.84,1296.08 2973.2,1296.08 2976.56,1296.09 2979.92,1296.09 2983.27,1296.09 2986.63,1296.09 2989.99,1296.09 
  2993.34,1296.09 2996.7,1296.09 3000.06,1296.09 3003.42,1296.09 3006.77,1296.09 3010.13,1296.09 3013.49,1296.09 3016.85,1296.09 3020.2,1296.09 3023.56,1296.09 
  
  "/>
<polyline clip-path="url(#clip413)" style="stroke:#e26f46; stroke-linecap:round; stroke-linejoin:round; stroke-width:12; stroke-opacity:1; fill:none" points="
  -330.465,1296.09 -327.108,1296.09 -323.75,1296.09 -320.393,1296.09 -317.036,1296.09 -313.678,1296.08 -310.321,1296.08 -306.963,1296.08 -303.606,1296.08 -300.249,1296.08 
  -296.891,1296.08 -293.534,1296.08 -290.176,1296.08 -286.819,1296.08 -283.462,1296.08 -280.104,1296.08 -276.747,1296.08 -273.39,1296.08 -270.032,1296.08 -266.675,1296.08 
  -263.317,1296.08 -259.96,1296.08 -256.603,1296.08 -253.245,1296.08 -249.888,1296.08 -246.531,1296.08 -243.173,1296.08 -239.816,1296.08 -236.458,1296.08 -233.101,1296.08 
  -229.744,1296.08 -226.386,1296.08 -223.029,1296.08 -219.671,1296.08 -216.314,1296.08 -212.957,1296.08 -209.599,1296.08 -206.242,1296.08 -202.885,1296.08 -199.527,1296.08 
  -196.17,1296.08 -192.812,1296.08 -189.455,1296.08 -186.098,1296.08 -182.74,1296.08 -179.383,1296.08 -176.025,1296.08 -172.668,1296.08 -169.311,1296.08 -165.953,1296.08 
  -162.596,1296.08 -159.239,1296.08 -155.881,1296.08 -152.524,1296.08 -149.166,1296.08 -145.809,1296.08 -142.452,1296.08 -139.094,1296.08 -135.737,1296.08 -132.379,1296.08 
  -129.022,1296.08 -125.665,1296.08 -122.307,1296.08 -118.95,1296.08 -115.593,1296.08 -112.235,1296.08 -108.878,1296.08 -105.52,1296.08 -102.163,1296.08 -98.8056,1296.08 
  -95.4482,1296.08 -92.0909,1296.08 -88.7335,1296.08 -85.3761,1296.08 -82.0187,1296.08 -78.6613,1296.08 -75.3039,1296.08 -71.9466,1296.08 -68.5892,1296.08 -65.2318,1296.08 
  -61.8744,1296.08 -58.517,1296.08 -55.1596,1296.08 -51.8023,1296.08 -48.4449,1296.08 -45.0875,1296.08 -41.7301,1296.08 -38.3727,1296.08 -35.0153,1296.08 -31.6579,1296.08 
  -28.3006,1296.08 -24.9432,1296.08 -21.5858,1296.08 -18.2284,1296.08 -14.871,1296.08 -11.5136,1296.08 -8.15626,1296.08 -4.79888,1296.08 -1.4415,1296.08 1.91589,1296.08 
  5.27327,1296.08 8.63065,1296.08 11.988,1296.08 15.3454,1296.08 18.7028,1296.08 22.0602,1296.08 25.4176,1296.08 28.775,1296.08 32.1323,1296.08 35.4897,1296.08 
  38.8471,1296.08 42.2045,1296.08 45.5619,1296.08 48.9193,1296.08 52.2766,1296.08 55.634,1296.07 58.9914,1296.07 62.3488,1296.07 65.7062,1296.07 69.0636,1296.07 
  72.4209,1296.07 75.7783,1296.07 79.1357,1296.07 82.4931,1296.07 85.8505,1296.07 89.2079,1296.07 92.5652,1296.07 95.9226,1296.07 99.28,1296.07 102.637,1296.07 
  105.995,1296.07 109.352,1296.07 112.71,1296.07 116.067,1296.07 119.424,1296.07 122.782,1296.07 126.139,1296.07 129.496,1296.07 132.854,1296.07 136.211,1296.07 
  139.569,1296.07 142.926,1296.07 146.283,1296.07 149.641,1296.07 152.998,1296.07 156.356,1296.07 159.713,1296.07 163.07,1296.07 166.428,1296.07 169.785,1296.07 
  173.142,1296.07 176.5,1296.07 179.857,1296.07 183.215,1296.07 186.572,1296.07 189.929,1296.07 193.287,1296.07 196.644,1296.07 200.002,1296.07 203.359,1296.07 
  206.716,1296.06 210.074,1296.06 213.431,1296.06 216.788,1296.06 220.146,1296.06 223.503,1296.06 226.861,1296.06 230.218,1296.06 233.575,1296.06 236.933,1296.06 
  240.29,1296.06 243.648,1296.06 247.005,1296.06 250.362,1296.06 253.72,1296.06 257.077,1296.06 260.434,1296.06 263.792,1296.06 267.149,1296.05 270.507,1296.05 
  273.864,1296.05 277.221,1296.05 280.579,1296.05 283.936,1296.05 287.293,1296.05 290.651,1296.05 294.008,1296.04 297.366,1296.04 300.723,1296.04 304.08,1296.04 
  307.438,1296.04 310.795,1296.04 314.153,1296.03 317.51,1296.03 320.867,1296.03 324.225,1296.02 327.582,1296.02 330.939,1296.02 334.297,1296.01 337.654,1296.01 
  341.012,1296 344.369,1296 347.726,1295.99 351.084,1295.99 354.441,1295.98 357.799,1295.98 361.156,1295.97 364.513,1295.96 367.871,1295.95 371.228,1295.94 
  374.585,1295.93 377.943,1295.92 381.3,1295.91 384.658,1295.9 388.015,1295.89 391.372,1295.88 394.73,1295.86 398.087,1295.85 401.445,1295.83 404.802,1295.82 
  408.159,1295.8 411.517,1295.78 414.874,1295.76 418.231,1295.74 421.589,1295.72 424.946,1295.69 428.304,1295.67 431.661,1295.64 435.018,1295.61 438.376,1295.58 
  441.733,1295.55 445.091,1295.51 448.448,1295.48 451.805,1295.44 455.163,1295.4 458.52,1295.35 461.877,1295.3 465.235,1295.25 468.592,1295.2 471.95,1295.14 
  475.307,1295.08 478.664,1295.02 482.022,1294.95 485.379,1294.87 488.737,1294.79 492.094,1294.71 495.451,1294.62 498.809,1294.52 502.166,1294.42 505.523,1294.31 
  508.881,1294.19 512.238,1294.07 515.596,1293.94 518.953,1293.8 522.31,1293.66 525.668,1293.5 529.025,1293.34 532.383,1293.16 535.74,1292.98 539.097,1292.79 
  542.455,1292.58 545.812,1292.37 549.169,1292.15 552.527,1291.91 555.884,1291.67 559.242,1291.41 562.599,1291.14 565.956,1290.86 569.314,1290.57 572.671,1290.26 
  576.028,1289.94 579.386,1289.6 582.743,1289.25 586.101,1288.88 589.458,1288.5 592.815,1288.09 596.173,1287.67 599.53,1287.23 602.888,1286.77 606.245,1286.28 
  609.602,1285.77 612.96,1285.24 616.317,1284.68 619.674,1284.09 623.032,1283.47 626.389,1282.82 629.747,1282.14 633.104,1281.42 636.461,1280.67 639.819,1279.87 
  643.176,1279.04 646.534,1278.17 649.891,1277.25 653.248,1276.29 656.606,1275.29 659.963,1274.24 663.32,1273.13 666.678,1271.98 670.035,1270.78 673.393,1269.53 
  676.75,1268.22 680.107,1266.86 683.465,1265.44 686.822,1263.96 690.18,1262.43 693.537,1260.84 696.894,1259.19 700.252,1257.47 703.609,1255.69 706.966,1253.85 
  710.324,1251.94 713.681,1249.97 717.039,1247.92 720.396,1245.8 723.753,1243.61 727.111,1241.34 730.468,1239 733.826,1236.57 737.183,1234.06 740.54,1231.47 
  743.898,1228.79 747.255,1226.03 750.612,1223.17 753.97,1220.22 757.327,1217.18 760.685,1214.04 764.042,1210.8 767.399,1207.46 770.757,1204.03 774.114,1200.49 
  777.472,1196.85 780.829,1193.11 784.186,1189.26 787.544,1185.3 790.901,1181.23 794.258,1177.06 797.616,1172.77 800.973,1168.37 804.331,1163.85 807.688,1159.22 
  811.045,1154.47 814.403,1149.6 817.76,1144.6 821.117,1139.48 824.475,1134.24 827.832,1128.87 831.19,1123.37 834.547,1117.74 837.904,1111.98 841.262,1106.09 
  844.619,1100.07 847.977,1093.91 851.334,1087.63 854.691,1081.22 858.049,1074.67 861.406,1068 864.763,1061.2 868.121,1054.27 871.478,1047.21 874.836,1040.02 
  878.193,1032.7 881.55,1025.26 884.908,1017.7 888.265,1010 891.623,1002.19 894.98,994.25 898.337,986.19 901.695,978.011 905.052,969.715 908.409,961.304 
  911.767,952.781 915.124,944.149 918.482,935.412 921.839,926.574 925.196,917.638 928.554,908.608 931.911,899.489 935.269,890.284 938.626,880.997 941.983,871.632 
  945.341,862.194 948.698,852.685 952.055,843.111 955.413,833.475 958.77,823.783 962.128,814.039 965.485,804.249 968.842,794.418 972.2,784.553 975.557,774.66 
  978.915,764.745 982.272,754.816 985.629,744.878 988.987,734.938 992.344,725.002 995.701,715.077 999.059,705.168 1002.42,695.282 1005.77,685.424 1009.13,675.601 
  1012.49,665.818 1015.85,656.083 1019.2,646.404 1022.56,636.786 1025.92,627.238 1029.28,617.767 1032.63,608.382 1035.99,599.088 1039.35,589.894 1042.7,580.805 
  1046.06,571.827 1049.42,562.967 1052.78,554.232 1056.13,545.626 1059.49,537.156 1062.85,528.831 1066.21,520.655 1069.56,512.638 1072.92,504.786 1076.28,497.106 
  1079.64,489.603 1082.99,482.285 1086.35,475.155 1089.71,468.219 1093.07,461.482 1096.42,454.95 1099.78,448.627 1103.14,442.52 1106.5,436.636 1109.85,430.978 
  1113.21,425.554 1116.57,420.368 1119.92,415.423 1123.28,410.723 1126.64,406.271 1130,402.071 1133.35,398.127 1136.71,394.444 1140.07,391.025 1143.43,387.875 
  1146.78,384.997 1150.14,382.393 1153.5,380.065 1156.86,378.013 1160.21,376.241 1163.57,374.749 1166.93,373.542 1170.29,372.622 1173.64,371.99 1177,371.646 
  1180.36,371.589 1183.71,371.82 1187.07,372.338 1190.43,373.146 1193.79,374.242 1197.14,375.629 1200.5,377.303 1203.86,379.262 1207.22,381.504 1210.57,384.028 
  1213.93,386.834 1217.29,389.92 1220.65,393.282 1224,396.917 1227.36,400.821 1230.72,404.991 1234.08,409.424 1237.43,414.117 1240.79,419.065 1244.15,424.262 
  1247.51,429.702 1250.86,435.381 1254.22,441.297 1257.58,447.44 1260.93,453.803 1264.29,460.381 1267.65,467.168 1271.01,474.158 1274.36,481.342 1277.72,488.712 
  1281.08,496.262 1284.44,503.986 1287.79,511.875 1291.15,519.92 1294.51,528.118 1297.87,536.463 1301.22,544.945 1304.58,553.561 1307.94,562.308 1311.3,571.18 
  1314.65,580.171 1318.01,589.28 1321.37,598.497 1324.73,607.813 1328.08,617.22 1331.44,626.703 1334.8,636.253 1338.15,645.863 1341.51,655.534 1344.87,665.266 
  1348.23,675.046 1351.58,684.856 1354.94,694.695 1358.3,704.567 1361.66,714.466 1365.01,724.377 1368.37,734.29 1371.73,744.192 1375.09,754.078 1378.44,763.949 
  1381.8,773.799 1385.16,783.629 1388.52,793.436 1391.87,803.215 1395.23,812.96 1398.59,822.667 1401.94,832.327 1405.3,841.932 1408.66,851.474 1412.02,860.948 
  1415.37,870.345 1418.73,879.658 1422.09,888.881 1425.45,898.01 1428.8,907.039 1432.16,915.961 1435.52,924.774 1438.88,933.474 1442.23,942.06 1445.59,950.526 
  1448.95,958.869 1452.31,967.087 1455.66,975.179 1459.02,983.145 1462.38,990.979 1465.74,998.681 1469.09,1006.25 1472.45,1013.68 1475.81,1020.98 1479.16,1028.14 
  1482.52,1035.16 1485.88,1042.03 1489.24,1048.76 1492.59,1055.35 1495.95,1061.8 1499.31,1068.09 1502.67,1074.24 1506.02,1080.24 1509.38,1086.08 1512.74,1091.77 
  1516.1,1097.3 1519.45,1102.67 1522.81,1107.89 1526.17,1112.94 1529.53,1117.82 1532.88,1122.54 1536.24,1127.08 1539.6,1131.45 1542.95,1135.65 1546.31,1139.67 
  1549.67,1143.51 1553.03,1147.17 1556.38,1150.64 1559.74,1153.93 1563.1,1157.02 1566.46,1159.92 1569.81,1162.63 1573.17,1165.13 1576.53,1167.43 1579.89,1169.53 
  1583.24,1171.43 1586.6,1173.12 1589.96,1174.6 1593.32,1175.88 1596.67,1176.94 1600.03,1177.78 1603.39,1178.41 1606.75,1178.82 1610.1,1179.01 1613.46,1178.98 
  1616.82,1178.73 1620.17,1178.26 1623.53,1177.57 1626.89,1176.66 1630.25,1175.53 1633.6,1174.18 1636.96,1172.62 1640.32,1170.84 1643.68,1168.85 1647.03,1166.65 
  1650.39,1164.24 1653.75,1161.63 1657.11,1158.81 1660.46,1155.79 1663.82,1152.57 1667.18,1149.16 1670.54,1145.57 1673.89,1141.79 1677.25,1137.84 1680.61,1133.72 
  1683.97,1129.44 1687.32,1125 1690.68,1120.42 1694.04,1115.7 1697.39,1110.85 1700.75,1105.88 1704.11,1100.79 1707.47,1095.6 1710.82,1090.31 1714.18,1084.94 
  1717.54,1079.48 1720.9,1073.97 1724.25,1068.39 1727.61,1062.77 1730.97,1057.12 1734.33,1051.44 1737.68,1045.76 1741.04,1040.08 1744.4,1034.41 1747.76,1028.77 
  1751.11,1023.17 1754.47,1017.62 1757.83,1012.13 1761.18,1006.71 1764.54,1001.39 1767.9,996.153 1771.26,991.029 1774.61,986.025 1777.97,981.15 1781.33,976.418 
  1784.69,971.837 1788.04,967.419 1791.4,963.176 1794.76,959.116 1798.12,955.25 1801.47,951.588 1804.83,948.139 1808.19,944.911 1811.55,941.912 1814.9,939.15 
  1818.26,936.631 1821.62,934.361 1824.98,932.346 1828.33,930.59 1831.69,929.099 1835.05,927.874 1838.4,926.92 1841.76,926.24 1845.12,925.834 1848.48,925.706 
  1851.83,925.856 1855.19,926.285 1858.55,926.992 1861.91,927.978 1865.26,929.241 1868.62,930.778 1871.98,932.589 1875.34,934.668 1878.69,937.012 1882.05,939.616 
  1885.41,942.475 1888.77,945.583 1892.12,948.933 1895.48,952.519 1898.84,956.332 1902.2,960.364 1905.55,964.608 1908.91,969.055 1912.27,973.695 1915.62,978.52 
  1918.98,983.52 1922.34,988.685 1925.7,994.007 1929.05,999.474 1932.41,1005.08 1935.77,1010.8 1939.13,1016.65 1942.48,1022.59 1945.84,1028.63 1949.2,1034.75 
  1952.56,1040.94 1955.91,1047.19 1959.27,1053.49 1962.63,1059.82 1965.99,1066.18 1969.34,1072.56 1972.7,1078.93 1976.06,1085.31 1979.41,1091.67 1982.77,1098 
  1986.13,1104.3 1989.49,1110.55 1992.84,1116.75 1996.2,1122.89 1999.56,1128.96 2002.92,1134.95 2006.27,1140.87 2009.63,1146.69 2012.99,1152.41 2016.35,1158.04 
  2019.7,1163.56 2023.06,1168.96 2026.42,1174.25 2029.78,1179.42 2033.13,1184.46 2036.49,1189.37 2039.85,1194.15 2043.21,1198.8 2046.56,1203.31 2049.92,1207.68 
  2053.28,1211.92 2056.63,1216.01 2059.99,1219.96 2063.35,1223.77 2066.71,1227.45 2070.06,1230.98 2073.42,1234.37 2076.78,1237.63 2080.14,1240.76 2083.49,1243.75 
  2086.85,1246.61 2090.21,1249.35 2093.57,1251.96 2096.92,1254.45 2100.28,1256.83 2103.64,1259.09 2107,1261.24 2110.35,1263.28 2113.71,1265.22 2117.07,1267.06 
  2120.42,1268.81 2123.78,1270.46 2127.14,1272.03 2130.5,1273.51 2133.85,1274.91 2137.21,1276.24 2140.57,1277.49 2143.93,1278.68 2147.28,1279.79 2150.64,1280.85 
  2154,1281.85 2157.36,1282.79 2160.71,1283.68 2164.07,1284.52 2167.43,1285.31 2170.79,1286.06 2174.14,1286.77 2177.5,1287.43 2180.86,1288.06 2184.22,1288.65 
  2187.57,1289.21 2190.93,1289.73 2194.29,1290.23 2197.64,1290.69 2201,1291.13 2204.36,1291.53 2207.72,1291.92 2211.07,1292.27 2214.43,1292.6 2217.79,1292.91 
  2221.15,1293.2 2224.5,1293.46 2227.86,1293.7 2231.22,1293.93 2234.58,1294.13 2237.93,1294.32 2241.29,1294.49 2244.65,1294.65 2248.01,1294.79 2251.36,1294.92 
  2254.72,1295.04 2258.08,1295.14 2261.44,1295.24 2264.79,1295.32 2268.15,1295.4 2271.51,1295.47 2274.86,1295.53 2278.22,1295.58 2281.58,1295.63 2284.94,1295.68 
  2288.29,1295.72 2291.65,1295.75 2295.01,1295.78 2298.37,1295.81 2301.72,1295.84 2305.08,1295.86 2308.44,1295.88 2311.8,1295.9 2315.15,1295.91 2318.51,1295.93 
  2321.87,1295.94 2325.23,1295.95 2328.58,1295.96 2331.94,1295.97 2335.3,1295.98 2338.65,1295.99 2342.01,1295.99 2345.37,1296 2348.73,1296 2352.08,1296.01 
  2355.44,1296.01 2358.8,1296.02 2362.16,1296.02 2365.51,1296.02 2368.87,1296.03 2372.23,1296.03 2375.59,1296.03 2378.94,1296.04 2382.3,1296.04 2385.66,1296.04 
  2389.02,1296.04 2392.37,1296.04 2395.73,1296.04 2399.09,1296.05 2402.45,1296.05 2405.8,1296.05 2409.16,1296.05 2412.52,1296.05 2415.87,1296.05 2419.23,1296.05 
  2422.59,1296.05 2425.95,1296.05 2429.3,1296.06 2432.66,1296.06 2436.02,1296.06 2439.38,1296.06 2442.73,1296.06 2446.09,1296.06 2449.45,1296.06 2452.81,1296.06 
  2456.16,1296.06 2459.52,1296.06 2462.88,1296.06 2466.24,1296.06 2469.59,1296.06 2472.95,1296.06 2476.31,1296.06 2479.67,1296.06 2483.02,1296.06 2486.38,1296.06 
  2489.74,1296.07 2493.09,1296.07 2496.45,1296.07 2499.81,1296.07 2503.17,1296.07 2506.52,1296.07 2509.88,1296.07 2513.24,1296.07 2516.6,1296.07 2519.95,1296.07 
  2523.31,1296.07 2526.67,1296.07 2530.03,1296.07 2533.38,1296.07 2536.74,1296.07 2540.1,1296.07 2543.46,1296.07 2546.81,1296.07 2550.17,1296.07 2553.53,1296.07 
  2556.88,1296.07 2560.24,1296.07 2563.6,1296.07 2566.96,1296.07 2570.31,1296.07 2573.67,1296.07 2577.03,1296.07 2580.39,1296.07 2583.74,1296.07 2587.1,1296.07 
  2590.46,1296.07 2593.82,1296.07 2597.17,1296.07 2600.53,1296.07 2603.89,1296.07 2607.25,1296.07 2610.6,1296.07 2613.96,1296.07 2617.32,1296.07 2620.68,1296.07 
  2624.03,1296.07 2627.39,1296.07 2630.75,1296.08 2634.1,1296.08 2637.46,1296.08 2640.82,1296.08 2644.18,1296.08 2647.53,1296.08 2650.89,1296.08 2654.25,1296.08 
  2657.61,1296.08 2660.96,1296.08 2664.32,1296.08 2667.68,1296.08 2671.04,1296.08 2674.39,1296.08 2677.75,1296.08 2681.11,1296.08 2684.47,1296.08 2687.82,1296.08 
  2691.18,1296.08 2694.54,1296.08 2697.89,1296.08 2701.25,1296.08 2704.61,1296.08 2707.97,1296.08 2711.32,1296.08 2714.68,1296.08 2718.04,1296.08 2721.4,1296.08 
  2724.75,1296.08 2728.11,1296.08 2731.47,1296.08 2734.83,1296.08 2738.18,1296.08 2741.54,1296.08 2744.9,1296.08 2748.26,1296.08 2751.61,1296.08 2754.97,1296.08 
  2758.33,1296.08 2761.69,1296.08 2765.04,1296.08 2768.4,1296.08 2771.76,1296.08 2775.11,1296.08 2778.47,1296.08 2781.83,1296.08 2785.19,1296.08 2788.54,1296.08 
  2791.9,1296.08 2795.26,1296.08 2798.62,1296.08 2801.97,1296.08 2805.33,1296.08 2808.69,1296.08 2812.05,1296.08 2815.4,1296.08 2818.76,1296.08 2822.12,1296.08 
  2825.48,1296.08 2828.83,1296.08 2832.19,1296.08 2835.55,1296.08 2838.91,1296.08 2842.26,1296.08 2845.62,1296.08 2848.98,1296.08 2852.33,1296.08 2855.69,1296.08 
  2859.05,1296.08 2862.41,1296.08 2865.76,1296.08 2869.12,1296.08 2872.48,1296.08 2875.84,1296.08 2879.19,1296.08 2882.55,1296.08 2885.91,1296.08 2889.27,1296.08 
  2892.62,1296.08 2895.98,1296.08 2899.34,1296.08 2902.7,1296.08 2906.05,1296.08 2909.41,1296.08 2912.77,1296.08 2916.12,1296.08 2919.48,1296.08 2922.84,1296.08 
  2926.2,1296.08 2929.55,1296.08 2932.91,1296.08 2936.27,1296.08 2939.63,1296.08 2942.98,1296.08 2946.34,1296.08 2949.7,1296.08 2953.06,1296.08 2956.41,1296.08 
  2959.77,1296.08 2963.13,1296.08 2966.49,1296.08 2969.84,1296.08 2973.2,1296.08 2976.56,1296.09 2979.92,1296.09 2983.27,1296.09 2986.63,1296.09 2989.99,1296.09 
  2993.34,1296.09 2996.7,1296.09 3000.06,1296.09 3003.42,1296.09 3006.77,1296.09 3010.13,1296.09 3013.49,1296.09 3016.85,1296.09 3020.2,1296.09 3023.56,1296.09 
  
  "/>
<polyline clip-path="url(#clip413)" style="stroke:#000000; stroke-linecap:round; stroke-linejoin:round; stroke-width:6; stroke-opacity:1; fill:none" stroke-dasharray="24, 15" points="
  508.041,1294.31 509.72,1294.25 511.399,1294.2 513.078,1294.14 514.756,1294.07 516.435,1294.01 518.114,1293.95 519.792,1293.88 521.471,1293.81 523.15,1293.74 
  524.828,1293.66 526.507,1293.59 528.186,1293.51 529.864,1293.43 531.543,1293.35 533.222,1293.27 534.901,1293.18 536.579,1293.09 538.258,1293 539.937,1292.91 
  541.615,1292.81 543.294,1292.71 544.973,1292.61 546.651,1292.5 548.33,1292.4 550.009,1292.29 551.687,1292.17 553.366,1292.06 555.045,1291.94 556.724,1291.82 
  558.402,1291.69 560.081,1291.56 561.76,1291.43 563.438,1291.29 565.117,1291.15 566.796,1291.01 568.474,1290.86 570.153,1290.71 571.832,1290.56 573.51,1290.4 
  575.189,1290.23 576.868,1290.07 578.547,1289.89 580.225,1289.72 581.904,1289.54 583.583,1289.35 585.261,1289.16 586.94,1288.97 588.619,1288.77 590.297,1288.57 
  591.976,1288.36 593.655,1288.14 595.333,1287.92 597.012,1287.7 598.691,1287.47 600.37,1287.23 602.048,1286.99 603.727,1286.74 605.406,1286.49 607.084,1286.23 
  608.763,1285.96 610.442,1285.69 612.12,1285.41 613.799,1285.12 615.478,1284.83 617.156,1284.53 618.835,1284.22 620.514,1283.91 622.193,1283.59 623.871,1283.26 
  625.55,1282.93 627.229,1282.58 628.907,1282.23 630.586,1281.87 632.265,1281.5 633.943,1281.13 635.622,1280.74 637.301,1280.35 638.979,1279.95 640.658,1279.54 
  642.337,1279.11 644.016,1278.69 645.694,1278.25 647.373,1277.8 649.052,1277.34 650.73,1276.87 652.409,1276.39 654.088,1275.9 655.766,1275.4 657.445,1274.89 
  659.124,1274.37 660.802,1273.84 662.481,1273.3 664.16,1272.74 665.839,1272.18 667.517,1271.6 669.196,1271.01 670.875,1270.41 672.553,1269.79 674.232,1269.16 
  675.911,1268.52 677.589,1267.87 679.268,1267.2 680.947,1266.52 682.625,1265.83 684.304,1265.12 685.983,1264.4 687.661,1263.66 689.34,1262.91 691.019,1262.15 
  692.698,1261.37 694.376,1260.58 696.055,1259.77 697.734,1258.94 699.412,1258.1 701.091,1257.24 702.77,1256.37 704.448,1255.48 706.127,1254.57 707.806,1253.64 
  709.484,1252.7 711.163,1251.75 712.842,1250.77 714.521,1249.78 716.199,1248.76 717.878,1247.73 719.557,1246.68 721.235,1245.62 722.914,1244.53 724.593,1243.42 
  726.271,1242.3 727.95,1241.15 729.629,1239.99 731.307,1238.8 732.986,1237.6 734.665,1236.37 736.344,1235.12 738.022,1233.85 739.701,1232.56 741.38,1231.25 
  743.058,1229.92 744.737,1228.56 746.416,1227.18 748.094,1225.78 749.773,1224.36 751.452,1222.91 753.13,1221.44 754.809,1219.94 756.488,1218.43 758.167,1216.89 
  759.845,1215.32 761.524,1213.73 763.203,1212.11 764.881,1210.47 766.56,1208.81 768.239,1207.12 769.917,1205.4 771.596,1203.66 773.275,1201.89 774.953,1200.09 
  776.632,1198.27 778.311,1196.42 779.99,1194.55 781.668,1192.65 783.347,1190.72 785.026,1188.76 786.704,1186.77 788.383,1184.76 790.062,1182.72 791.74,1180.65 
  793.419,1178.55 795.098,1176.42 796.776,1174.27 798.455,1172.08 800.134,1169.87 801.813,1167.62 803.491,1165.35 805.17,1163.05 806.849,1160.71 808.527,1158.35 
  810.206,1155.96 811.885,1153.53 813.563,1151.08 815.242,1148.59 816.921,1146.07 818.599,1143.53 820.278,1140.95 821.957,1138.34 823.636,1135.7 825.314,1133.02 
  826.993,1130.32 828.672,1127.58 830.35,1124.82 832.029,1122.02 833.708,1119.19 835.386,1116.32 837.065,1113.43 838.744,1110.5 840.422,1107.54 842.101,1104.55 
  843.78,1101.52 845.459,1098.47 847.137,1095.38 848.816,1092.26 850.495,1089.1 852.173,1085.92 853.852,1082.7 855.531,1079.45 857.209,1076.17 858.888,1072.85 
  860.567,1069.51 862.245,1066.13 863.924,1062.72 865.603,1059.27 867.282,1055.8 868.96,1052.29 870.639,1048.75 872.318,1045.18 873.996,1041.58 875.675,1037.94 
  877.354,1034.28 879.032,1030.58 880.711,1026.85 882.39,1023.1 884.068,1019.31 885.747,1015.49 887.426,1011.64 889.105,1007.75 890.783,1003.84 892.462,999.903 
  894.141,995.932 895.819,991.933 897.498,987.904 899.177,983.846 900.855,979.759 902.534,975.644 904.213,971.501 905.891,967.33 907.57,963.132 909.249,958.906 
  910.928,954.653 912.606,950.374 914.285,946.069 915.964,941.738 917.642,937.381 919.321,932.999 921,928.592 922.678,924.161 924.357,919.706 926.036,915.228 
  927.714,910.726 929.393,906.202 931.072,901.655 932.75,897.087 934.429,892.497 936.108,887.887 937.787,883.256 939.465,878.605 941.144,873.935 942.823,869.247 
  944.501,864.539 946.18,859.815 947.859,855.072 949.537,850.314 951.216,845.539 952.895,840.749 954.573,835.943 956.252,831.124 957.931,826.291 959.61,821.444 
  961.288,816.586 962.967,811.715 964.646,806.833 966.324,801.941 968.003,797.039 969.682,792.128 971.36,787.208 973.039,782.28 974.718,777.345 976.396,772.404 
  978.075,767.458 979.754,762.506 981.433,757.55 983.111,752.59 984.79,747.628 986.469,742.664 988.147,737.699 989.826,732.733 991.505,727.768 993.183,722.803 
  994.862,717.841 996.541,712.881 998.219,707.925 999.898,702.973 1001.58,698.026 1003.26,693.085 1004.93,688.151 1006.61,683.225 1008.29,678.306 1009.97,673.398 
  1011.65,668.499 1013.33,663.611 1015.01,658.736 1016.69,653.872 1018.36,649.023 1020.04,644.188 1021.72,639.368 1023.4,634.564 1025.08,629.777 1026.76,625.009 
  1028.44,620.259 1030.11,615.528 1031.79,610.818 1033.47,606.13 1035.15,601.464 1036.83,596.821 1038.51,592.202 1040.19,587.608 1041.87,583.04 1043.54,578.499 
  1045.22,573.985 1046.9,569.5 1048.58,565.044 1050.26,560.618 1051.94,556.224 1053.62,551.861 1055.3,547.532 1056.97,543.236 1058.65,538.975 1060.33,534.749 
  1062.01,530.56 1063.69,526.407 1065.37,522.293 1067.05,518.218 1068.72,514.182 1070.4,510.188 1072.08,506.234 1073.76,502.323 1075.44,498.455 1077.12,494.63 
  1078.8,490.851 1080.48,487.117 1082.15,483.429 1083.83,479.788 1085.51,476.196 1087.19,472.651 1088.87,469.157 1090.55,465.712 1092.23,462.319 1093.9,458.977 
  1095.58,455.687 1097.26,452.451 1098.94,449.268 1100.62,446.14 1102.3,443.067 1103.98,440.05 1105.66,437.09 1107.33,434.187 1109.01,431.341 1110.69,428.555 
  1112.37,425.827 1114.05,423.159 1115.73,420.552 1117.41,418.005 1119.09,415.52 1120.76,413.098 1122.44,410.737 1124.12,408.44 1125.8,406.207 1127.48,404.038 
  1129.16,401.933 1130.84,399.894 1132.51,397.921 1134.19,396.013 1135.87,394.172 1137.55,392.398 1139.23,390.692 1140.91,389.053 1142.59,387.483 1144.27,385.981 
  1145.94,384.547 1147.62,383.183 1149.3,381.889 1150.98,380.664 1152.66,379.51 1154.34,378.426 1156.02,377.412 1157.7,376.47 1159.37,375.598 1161.05,374.798 
  1162.73,374.069 1164.41,373.412 1166.09,372.827 1167.77,372.314 1169.45,371.873 1171.12,371.504 1172.8,371.207 1174.48,370.982 1176.16,370.83 1177.84,370.751 
  1179.52,370.743 1181.2,370.808 1182.88,370.946 1184.55,371.156 1186.23,371.438 1187.91,371.793 1189.59,372.22 1191.27,372.719 1192.95,373.29 1194.63,373.932 
  1196.31,374.647 1197.98,375.433 1199.66,376.29 1201.34,377.218 1203.02,378.217 1204.7,379.287 1206.38,380.428 1208.06,381.638 1209.73,382.919 1211.41,384.269 
  1213.09,385.688 1214.77,387.177 1216.45,388.733 1218.13,390.358 1219.81,392.051 1221.49,393.812 1223.16,395.639 1224.84,397.534 1226.52,399.494 1228.2,401.52 
  1229.88,403.611 1231.56,405.768 1233.24,407.988 1234.92,410.272 1236.59,412.62 1238.27,415.03 1239.95,417.503 1241.63,420.037 1243.31,422.632 1244.99,425.288 
  1246.67,428.004 1248.34,430.778 1250.02,433.612 1251.7,436.503 1253.38,439.452 1255.06,442.458 1256.74,445.52 1258.42,448.637 1260.1,451.808 1261.77,455.034 
  1263.45,458.313 1265.13,461.644 1266.81,465.027 1268.49,468.462 1270.17,471.946 1271.85,475.48 1273.52,479.063 1275.2,482.694 1276.88,486.372 1278.56,490.097 
  1280.24,493.867 1281.92,497.682 1283.6,501.542 1285.28,505.444 1286.95,509.389 1288.63,513.375 1290.31,517.402 1291.99,521.469 1293.67,525.575 1295.35,529.719 
  1297.03,533.901 1298.71,538.119 1300.38,542.373 1302.06,546.661 1303.74,550.984 1305.42,555.339 1307.1,559.726 1308.78,564.145 1310.46,568.594 1312.13,573.073 
  1313.81,577.58 1315.49,582.115 1317.17,586.677 1318.85,591.265 1320.53,595.878 1322.21,600.515 1323.89,605.175 1325.56,609.858 1327.24,614.562 1328.92,619.287 
  1330.6,624.032 1332.28,628.795 1333.96,633.576 1335.64,638.375 1337.32,643.19 1338.99,648.02 1340.67,652.864 1342.35,657.723 1344.03,662.594 1345.71,667.476 
  1347.39,672.37 1349.07,677.274 1350.74,682.187 1352.42,687.109 1354.1,692.038 1355.78,696.974 1357.46,701.916 1359.14,706.863 1360.82,711.814 1362.5,716.768 
  1364.17,721.726 1365.85,726.685 1367.53,731.645 1369.21,736.605 1370.89,741.564 1372.57,746.522 1374.25,751.478 1375.93,756.432 1377.6,761.381 1379.28,766.326 
  1380.96,771.265 1382.64,776.199 1384.32,781.126 1386,786.046 1387.68,790.957 1389.35,795.859 1391.03,800.752 1392.71,805.635 1394.39,810.506 1396.07,815.366 
  1397.75,820.214 1399.43,825.048 1401.11,829.869 1402.78,834.675 1404.46,839.467 1406.14,844.243 1407.82,849.002 1409.5,853.745 1411.18,858.47 1412.86,863.177 
  1414.54,867.865 1416.21,872.534 1417.89,877.184 1419.57,881.812 1421.25,886.42 1422.93,891.006 1424.61,895.57 1426.29,900.112 1427.96,904.63 1429.64,909.125 
  1431.32,913.595 1433,918.041 1434.68,922.461 1436.36,926.856 1438.04,931.224 1439.72,935.566 1441.39,939.881 1443.07,944.168 1444.75,948.427 1446.43,952.658 
  1448.11,956.86 1449.79,961.032 1451.47,965.174 1453.14,969.287 1454.82,973.369 1456.5,977.42 1458.18,981.439 1459.86,985.427 1461.54,989.382 1463.22,993.305 
  1464.9,997.195 1466.57,1001.05 1468.25,1004.88 1469.93,1008.66 1471.61,1012.42 1473.29,1016.14 1474.97,1019.83 1476.65,1023.48 1478.33,1027.09 1480,1030.67 
  1481.68,1034.21 1483.36,1037.72 1485.04,1041.19 1486.72,1044.62 1488.4,1048.01 1490.08,1051.37 1491.75,1054.69 1493.43,1057.97 1495.11,1061.21 1496.79,1064.41 
  1498.47,1067.57 1500.15,1070.7 1501.83,1073.78 1503.51,1076.83 1505.18,1079.83 1506.86,1082.8 1508.54,1085.72 1510.22,1088.6 1511.9,1091.44 1513.58,1094.24 
  1515.26,1097 1516.94,1099.72 1518.61,1102.39 1520.29,1105.02 1521.97,1107.61 1523.65,1110.16 1525.33,1112.66 1527.01,1115.12 1528.69,1117.54 1530.36,1119.91 
  1532.04,1122.24 1533.72,1124.52 1535.4,1126.76 1537.08,1128.96 1538.76,1131.11 1540.44,1133.21 1542.12,1135.27 1543.79,1137.28 1545.47,1139.25 1547.15,1141.17 
  1548.83,1143.05 1550.51,1144.88 1552.19,1146.66 1553.87,1148.4 1555.55,1150.09 1557.22,1151.73 1558.9,1153.32 1560.58,1154.87 1562.26,1156.36 1563.94,1157.81 
  1565.62,1159.22 1567.3,1160.57 1568.97,1161.87 1570.65,1163.13 1572.33,1164.33 1574.01,1165.49 1575.69,1166.6 1577.37,1167.65 1579.05,1168.66 1580.73,1169.62 
  1582.4,1170.53 1584.08,1171.38 1585.76,1172.19 1587.44,1172.94 1589.12,1173.65 1590.8,1174.3 1592.48,1174.9 1594.16,1175.45 1595.83,1175.95 1597.51,1176.4 
  1599.19,1176.79 1600.87,1177.14 1602.55,1177.43 1604.23,1177.67 1605.91,1177.85 1607.58,1177.99 1609.26,1178.07 1610.94,1178.1 1612.62,1178.08 1614.3,1178 
  1615.98,1177.88 1617.66,1177.69 1619.34,1177.46 1621.01,1177.18 1622.69,1176.84 1624.37,1176.45 1626.05,1176 1627.73,1175.51 1629.41,1174.96 1631.09,1174.36 
  1632.76,1173.7 1634.44,1173 1636.12,1172.24 1637.8,1171.43 1639.48,1170.57 1641.16,1169.65 1642.84,1168.69 1644.52,1167.67 1646.19,1166.61 1647.87,1165.49 
  1649.55,1164.32 1651.23,1163.1 1652.91,1161.83 1654.59,1160.52 1656.27,1159.15 1657.95,1157.73 1659.62,1156.27 1661.3,1154.76 1662.98,1153.2 1664.66,1151.59 
  1666.34,1149.93 1668.02,1148.23 1669.7,1146.49 1671.37,1144.7 1673.05,1142.86 1674.73,1140.98 1676.41,1139.06 1678.09,1137.1 1679.77,1135.09 1681.45,1133.04 
  1683.13,1130.95 1684.8,1128.82 1686.48,1126.66 1688.16,1124.45 1689.84,1122.21 1691.52,1119.93 1693.2,1117.61 1694.88,1115.26 1696.56,1112.88 1698.23,1110.46 
  1699.91,1108.02 1701.59,1105.54 1703.27,1103.03 1704.95,1100.49 1706.63,1097.93 1708.31,1095.34 1709.98,1092.72 1711.66,1090.08 1713.34,1087.42 1715.02,1084.73 
  1716.7,1082.02 1718.38,1079.3 1720.06,1076.56 1721.74,1073.79 1723.41,1071.02 1725.09,1068.23 1726.77,1065.43 1728.45,1062.61 1730.13,1059.79 1731.81,1056.96 
  1733.49,1054.12 1735.17,1051.27 1736.84,1048.42 1738.52,1045.57 1740.2,1042.71 1741.88,1039.86 1743.56,1037.01 1745.24,1034.16 1746.92,1031.31 1748.59,1028.47 
  1750.27,1025.64 1751.95,1022.82 1753.63,1020.01 1755.31,1017.21 1756.99,1014.43 1758.67,1011.66 1760.35,1008.91 1762.02,1006.17 1763.7,1003.46 1765.38,1000.77 
  1767.06,998.101 1768.74,995.458 1770.42,992.841 1772.1,990.252 1773.78,987.693 1775.45,985.165 1777.13,982.669 1778.81,980.207 1780.49,977.781 1782.17,975.392 
  1783.85,973.041 1785.53,970.73 1787.2,968.461 1788.88,966.234 1790.56,964.051 1792.24,961.914 1793.92,959.824 1795.6,957.781 1797.28,955.789 1798.96,953.847 
  1800.63,951.956 1802.31,950.12 1803.99,948.337 1805.67,946.61 1807.35,944.94 1809.03,943.327 1810.71,941.773 1812.39,940.279 1814.06,938.846 1815.74,937.475 
  1817.42,936.166 1819.1,934.921 1820.78,933.74 1822.46,932.625 1824.14,931.576 1825.81,930.593 1827.49,929.678 1829.17,928.831 1830.85,928.053 1832.53,927.344 
  1834.21,926.705 1835.89,926.136 1837.57,925.638 1839.24,925.211 1840.92,924.855 1842.6,924.571 1844.28,924.359 1845.96,924.22 1847.64,924.152 1849.32,924.157 
  1850.99,924.235 1852.67,924.385 1854.35,924.608 1856.03,924.903 1857.71,925.271 1859.39,925.711 1861.07,926.223 1862.75,926.807 1864.42,927.462 1866.1,928.189 
  1867.78,928.986 1869.46,929.853 1871.14,930.791 1872.82,931.798 1874.5,932.874 1876.18,934.018 1877.85,935.23 1879.53,936.509 1881.21,937.854 1882.89,939.265 
  1884.57,940.74 1886.25,942.28 1887.93,943.882 1889.6,945.547 1891.28,947.273 1892.96,949.059 1894.64,950.905 1896.32,952.809 1898,954.77 1899.68,956.787 
  1901.36,958.86 1903.03,960.986 1904.71,963.165 1906.39,965.396 1908.07,967.677 1909.75,970.008 1911.43,972.386 1913.11,974.81 1914.79,977.28 1916.46,979.794 
  1918.14,982.351 1919.82,984.949 1921.5,987.587 1923.18,990.264 1924.86,992.977 1926.54,995.727 1928.21,998.511 1929.89,1001.33 1931.57,1004.18 1933.25,1007.06 
  1934.93,1009.96 1936.61,1012.9 1938.29,1015.86 1939.97,1018.84 1941.64,1021.85 1943.32,1024.88 1945,1027.93 1946.68,1031 1948.36,1034.08 1950.04,1037.18 
  1951.72,1040.3 1953.4,1043.43 1955.07,1046.57 1956.75,1049.72 1958.43,1052.88 1960.11,1056.04 1961.79,1059.22 1963.47,1062.39 1965.15,1065.57 1966.82,1068.76 
  1968.5,1071.94 1970.18,1075.13 1971.86,1078.31 1973.54,1081.49 1975.22,1084.66 1976.9,1087.83 1978.58,1090.99 1980.25,1094.15 1981.93,1097.3 1983.61,1100.43 
  1985.29,1103.56 1986.97,1106.67 1988.65,1109.77 1990.33,1112.86 1992.01,1115.93 1993.68,1118.99 1995.36,1122.03 1997.04,1125.05 1998.72,1128.05 2000.4,1131.03 
  2002.08,1133.99 2003.76,1136.93 2005.43,1139.85 2007.11,1142.75 2008.79,1145.62 2010.47,1148.47 2012.15,1151.29 2013.83,1154.09 2015.51,1156.86 2017.19,1159.6 
  2018.86,1162.32 2020.54,1165.01 2022.22,1167.67 2023.9,1170.3 2025.58,1172.91 2027.26,1175.48 2028.94,1178.02 2030.61,1180.53 2032.29,1183.02 2033.97,1185.47 
  2035.65,1187.89 2037.33,1190.27 2039.01,1192.63 2040.69,1194.95 2042.37,1197.24 2044.04,1199.5 2045.72,1201.73 2047.4,1203.92 2049.08,1206.08 2050.76,1208.21 
  2052.44,1210.3 2054.12,1212.36 2055.8,1214.39 2057.47,1216.38 2059.15,1218.35 2060.83,1220.27 2062.51,1222.17 2064.19,1224.03 2065.87,1225.86 2067.55,1227.66 
  2069.22,1229.42 2070.9,1231.15 2072.58,1232.85 2074.26,1234.52 2075.94,1236.16 2077.62,1237.76 2079.3,1239.33 2080.98,1240.87 2082.65,1242.38 2084.33,1243.86 
  2086.01,1245.31 2087.69,1246.73 2089.37,1248.12 2091.05,1249.47 2092.73,1250.8 2094.41,1252.1 2096.08,1253.37 2097.76,1254.62 2099.44,1255.83 2101.12,1257.02 
  2102.8,1258.18 2104.48,1259.31 2106.16,1260.42 2107.83,1261.5 2109.51,1262.55 2111.19,1263.58 2112.87,1264.58 2114.55,1265.56 2116.23,1266.51 2117.91,1267.44 
  2119.59,1268.35 2121.26,1269.23 2122.94,1270.09 2124.62,1270.93 2126.3,1271.74 2127.98,1272.54 2129.66,1273.31 2131.34,1274.06 2133.02,1274.79 2134.69,1275.5 
  2136.37,1276.19 2138.05,1276.87 2139.73,1277.52 2141.41,1278.15 2143.09,1278.77 2144.77,1279.37 2146.44,1279.95 2148.12,1280.51 2149.8,1281.06 2151.48,1281.59 
  2153.16,1282.1 2154.84,1282.6 2156.52,1283.09 2158.2,1283.56 2159.87,1284.01 2161.55,1284.45 2163.23,1284.88 2164.91,1285.29 2166.59,1285.69 2168.27,1286.08 
  2169.95,1286.45 2171.63,1286.82 2173.3,1287.17 2174.98,1287.51 2176.66,1287.84 2178.34,1288.15 2180.02,1288.46 2181.7,1288.75 2183.38,1289.04 2185.05,1289.32 
  
  "/>
<path clip-path="url(#clip410)" d="
M1636.11 608.485 L2285.68 608.485 L2285.68 90.0846 L1636.11 90.0846  Z
  " fill="#ffffff" fill-rule="evenodd" fill-opacity="1"/>
<polyline clip-path="url(#clip410)" style="stroke:#000000; stroke-linecap:round; stroke-linejoin:round; stroke-width:4; stroke-opacity:1; fill:none" points="
  1636.11,608.485 2285.68,608.485 2285.68,90.0846 1636.11,90.0846 1636.11,608.485 
  "/>
<polyline clip-path="url(#clip410)" style="stroke:#009af9; stroke-linecap:round; stroke-linejoin:round; stroke-width:30; stroke-opacity:1; fill:none" points="
  1658.47,219.685 1792.64,219.685 
  "/>
<path clip-path="url(#clip410)" d="M1869.28 223.764 L1869.28 262.885 L1858.63 262.885 L1858.63 224.112 Q1858.63 214.91 1855.04 210.339 Q1851.45 205.767 1844.28 205.767 Q1835.66 205.767 1830.68 211.265 Q1825.7 216.762 1825.7 226.253 L1825.7 262.885 L1815 262.885 L1815 198.07 L1825.7 198.07 L1825.7 208.14 Q1829.52 202.295 1834.67 199.401 Q1839.88 196.508 1846.65 196.508 Q1857.82 196.508 1863.55 203.452 Q1869.28 210.339 1869.28 223.764 Z" fill="#000000" fill-rule="evenodd" fill-opacity="1" /><path clip-path="url(#clip410)" d="M1915.63 205.535 Q1907.07 205.535 1902.09 212.248 Q1897.11 218.903 1897.11 230.535 Q1897.11 242.167 1902.03 248.88 Q1907.01 255.535 1915.63 255.535 Q1924.14 255.535 1929.12 248.822 Q1934.09 242.109 1934.09 230.535 Q1934.09 219.019 1929.12 212.306 Q1924.14 205.535 1915.63 205.535 M1915.63 196.508 Q1929.52 196.508 1937.45 205.535 Q1945.38 214.563 1945.38 230.535 Q1945.38 246.45 1937.45 255.535 Q1929.52 264.563 1915.63 264.563 Q1901.69 264.563 1893.76 255.535 Q1885.89 246.45 1885.89 230.535 Q1885.89 214.563 1893.76 205.535 Q1901.69 196.508 1915.63 196.508 Z" fill="#000000" fill-rule="evenodd" fill-opacity="1" /><path clip-path="url(#clip410)" d="M2016.9 223.764 L2016.9 262.885 L2006.26 262.885 L2006.26 224.112 Q2006.26 214.91 2002.67 210.339 Q1999.08 205.767 1991.9 205.767 Q1983.28 205.767 1978.31 211.265 Q1973.33 216.762 1973.33 226.253 L1973.33 262.885 L1962.62 262.885 L1962.62 198.07 L1973.33 198.07 L1973.33 208.14 Q1977.15 202.295 1982.3 199.401 Q1987.51 196.508 1994.28 196.508 Q2005.45 196.508 2011.18 203.452 Q2016.9 210.339 2016.9 223.764 Z" fill="#000000" fill-rule="evenodd" fill-opacity="1" /><path clip-path="url(#clip410)" d="M2032.76 225.674 L2063.95 225.674 L2063.95 235.165 L2032.76 235.165 L2032.76 225.674 Z" fill="#000000" fill-rule="evenodd" fill-opacity="1" /><path clip-path="url(#clip410)" d="M2108.22 205.535 Q2099.66 205.535 2094.68 212.248 Q2089.71 218.903 2089.71 230.535 Q2089.71 242.167 2094.62 248.88 Q2099.6 255.535 2108.22 255.535 Q2116.73 255.535 2121.71 248.822 Q2126.68 242.109 2126.68 230.535 Q2126.68 219.019 2121.71 212.306 Q2116.73 205.535 2108.22 205.535 M2108.22 196.508 Q2122.11 196.508 2130.04 205.535 Q2137.97 214.563 2137.97 230.535 Q2137.97 246.45 2130.04 255.535 Q2122.11 264.563 2108.22 264.563 Q2094.28 264.563 2086.35 255.535 Q2078.48 246.45 2078.48 230.535 Q2078.48 214.563 2086.35 205.535 Q2094.28 196.508 2108.22 196.508 Z" fill="#000000" fill-rule="evenodd" fill-opacity="1" /><path clip-path="url(#clip410)" d="M2165.92 253.162 L2165.92 287.537 L2155.21 287.537 L2155.21 198.07 L2165.92 198.07 L2165.92 207.908 Q2169.28 202.121 2174.37 199.343 Q2179.52 196.508 2186.64 196.508 Q2198.44 196.508 2205.79 205.883 Q2213.2 215.258 2213.2 230.535 Q2213.2 245.813 2205.79 255.188 Q2198.44 264.563 2186.64 264.563 Q2179.52 264.563 2174.37 261.785 Q2169.28 258.949 2165.92 253.162 M2202.15 230.535 Q2202.15 218.788 2197.29 212.133 Q2192.48 205.42 2184.03 205.42 Q2175.58 205.42 2170.72 212.133 Q2165.92 218.788 2165.92 230.535 Q2165.92 242.283 2170.72 248.996 Q2175.58 255.651 2184.03 255.651 Q2192.48 255.651 2197.29 248.996 Q2202.15 242.283 2202.15 230.535 Z" fill="#000000" fill-rule="evenodd" fill-opacity="1" /><path clip-path="url(#clip410)" d="M2241.38 179.667 L2241.38 198.07 L2263.32 198.07 L2263.32 206.346 L2241.38 206.346 L2241.38 241.531 Q2241.38 249.459 2243.52 251.716 Q2245.72 253.973 2252.38 253.973 L2263.32 253.973 L2263.32 262.885 L2252.38 262.885 Q2240.05 262.885 2235.36 258.313 Q2230.68 253.683 2230.68 241.531 L2230.68 206.346 L2222.86 206.346 L2222.86 198.07 L2230.68 198.07 L2230.68 179.667 L2241.38 179.667 Z" fill="#000000" fill-rule="evenodd" fill-opacity="1" /><polyline clip-path="url(#clip410)" style="stroke:#e26f46; stroke-linecap:round; stroke-linejoin:round; stroke-width:30; stroke-opacity:1; fill:none" points="
  1658.47,349.285 1792.64,349.285 
  "/>
<path clip-path="url(#clip410)" d="M1844.74 335.135 Q1836.18 335.135 1831.2 341.848 Q1826.22 348.503 1826.22 360.135 Q1826.22 371.767 1831.14 378.48 Q1836.12 385.135 1844.74 385.135 Q1853.25 385.135 1858.22 378.422 Q1863.2 371.709 1863.2 360.135 Q1863.2 348.619 1858.22 341.906 Q1853.25 335.135 1844.74 335.135 M1844.74 326.108 Q1858.63 326.108 1866.56 335.135 Q1874.49 344.163 1874.49 360.135 Q1874.49 376.05 1866.56 385.135 Q1858.63 394.163 1844.74 394.163 Q1830.79 394.163 1822.87 385.135 Q1815 376.05 1815 360.135 Q1815 344.163 1822.87 335.135 Q1830.79 326.108 1844.74 326.108 Z" fill="#000000" fill-rule="evenodd" fill-opacity="1" /><path clip-path="url(#clip410)" d="M1902.44 382.762 L1902.44 417.137 L1891.73 417.137 L1891.73 327.67 L1902.44 327.67 L1902.44 337.508 Q1905.79 331.721 1910.89 328.943 Q1916.04 326.108 1923.15 326.108 Q1934.96 326.108 1942.31 335.483 Q1949.72 344.858 1949.72 360.135 Q1949.72 375.413 1942.31 384.788 Q1934.96 394.163 1923.15 394.163 Q1916.04 394.163 1910.89 391.385 Q1905.79 388.549 1902.44 382.762 M1938.66 360.135 Q1938.66 348.388 1933.8 341.733 Q1929 335.02 1920.55 335.02 Q1912.1 335.02 1907.24 341.733 Q1902.44 348.388 1902.44 360.135 Q1902.44 371.883 1907.24 378.596 Q1912.1 385.251 1920.55 385.251 Q1929 385.251 1933.8 378.596 Q1938.66 371.883 1938.66 360.135 Z" fill="#000000" fill-rule="evenodd" fill-opacity="1" /><path clip-path="url(#clip410)" d="M1977.9 309.267 L1977.9 327.67 L1999.83 327.67 L1999.83 335.946 L1977.9 335.946 L1977.9 371.131 Q1977.9 379.059 1980.04 381.316 Q1982.24 383.573 1988.9 383.573 L1999.83 383.573 L1999.83 392.485 L1988.9 392.485 Q1976.57 392.485 1971.88 387.913 Q1967.19 383.283 1967.19 371.131 L1967.19 335.946 L1959.38 335.946 L1959.38 327.67 L1967.19 327.67 L1967.19 309.267 L1977.9 309.267 Z" fill="#000000" fill-rule="evenodd" fill-opacity="1" /><polyline clip-path="url(#clip410)" style="stroke:#000000; stroke-linecap:round; stroke-linejoin:round; stroke-width:15; stroke-opacity:1; fill:none" stroke-dasharray="60, 38" points="
  1658.47,478.885 1792.64,478.885 
  "/>
<path clip-path="url(#clip410)" d="M1875.06 487.015 L1875.06 492.224 L1826.11 492.224 Q1826.8 503.219 1832.7 509.006 Q1838.66 514.735 1849.25 514.735 Q1855.39 514.735 1861.12 513.231 Q1866.91 511.726 1872.58 508.717 L1872.58 518.786 Q1866.85 521.217 1860.83 522.49 Q1854.81 523.763 1848.62 523.763 Q1833.11 523.763 1824.02 514.735 Q1815 505.707 1815 490.314 Q1815 474.4 1823.56 465.083 Q1832.18 455.708 1846.77 455.708 Q1859.85 455.708 1867.43 464.157 Q1875.06 472.548 1875.06 487.015 M1864.42 483.89 Q1864.3 475.152 1859.5 469.944 Q1854.75 464.735 1846.88 464.735 Q1837.97 464.735 1832.59 469.77 Q1827.26 474.805 1826.45 483.948 L1864.42 483.89 Z" fill="#000000" fill-rule="evenodd" fill-opacity="1" /><path clip-path="url(#clip410)" d="M1944.34 457.27 L1920.9 488.809 L1945.55 522.085 L1932.99 522.085 L1914.13 496.622 L1895.26 522.085 L1882.7 522.085 L1907.88 488.173 L1884.85 457.27 L1897.4 457.27 L1914.59 480.36 L1931.78 457.27 L1944.34 457.27 Z" fill="#000000" fill-rule="evenodd" fill-opacity="1" /><path clip-path="url(#clip410)" d="M1990.05 489.504 Q1977.15 489.504 1972.17 492.455 Q1967.19 495.407 1967.19 502.525 Q1967.19 508.196 1970.9 511.552 Q1974.66 514.851 1981.08 514.851 Q1989.94 514.851 1995.26 508.601 Q2000.64 502.293 2000.64 491.876 L2000.64 489.504 L1990.05 489.504 M2011.29 485.106 L2011.29 522.085 L2000.64 522.085 L2000.64 512.247 Q1997 518.149 1991.56 520.985 Q1986.12 523.763 1978.25 523.763 Q1968.29 523.763 1962.39 518.207 Q1956.55 512.594 1956.55 503.219 Q1956.55 492.282 1963.84 486.726 Q1971.19 481.17 1985.71 481.17 L2000.64 481.17 L2000.64 480.129 Q2000.64 472.779 1995.78 468.786 Q1990.98 464.735 1982.24 464.735 Q1976.68 464.735 1971.42 466.066 Q1966.15 467.397 1961.29 470.059 L1961.29 460.222 Q1967.14 457.965 1972.63 456.865 Q1978.13 455.708 1983.34 455.708 Q1997.4 455.708 2004.35 462.999 Q2011.29 470.291 2011.29 485.106 Z" fill="#000000" fill-rule="evenodd" fill-opacity="1" /><path clip-path="url(#clip410)" d="M2079.87 459.759 L2079.87 469.712 Q2075.35 467.224 2070.78 466.009 Q2066.27 464.735 2061.64 464.735 Q2051.28 464.735 2045.55 471.333 Q2039.82 477.872 2039.82 489.735 Q2039.82 501.599 2045.55 508.196 Q2051.28 514.735 2061.64 514.735 Q2066.27 514.735 2070.78 513.52 Q2075.35 512.247 2079.87 509.758 L2079.87 519.596 Q2075.41 521.68 2070.61 522.721 Q2065.86 523.763 2060.48 523.763 Q2045.84 523.763 2037.22 514.562 Q2028.59 505.36 2028.59 489.735 Q2028.59 473.879 2037.27 464.793 Q2046.01 455.708 2061.18 455.708 Q2066.09 455.708 2070.78 456.749 Q2075.47 457.733 2079.87 459.759 Z" fill="#000000" fill-rule="evenodd" fill-opacity="1" /><path clip-path="url(#clip410)" d="M2108.92 438.867 L2108.92 457.27 L2130.85 457.27 L2130.85 465.546 L2108.92 465.546 L2108.92 500.731 Q2108.92 508.659 2111.06 510.916 Q2113.26 513.173 2119.91 513.173 L2130.85 513.173 L2130.85 522.085 L2119.91 522.085 Q2107.59 522.085 2102.9 517.513 Q2098.21 512.883 2098.21 500.731 L2098.21 465.546 L2090.4 465.546 L2090.4 457.27 L2098.21 457.27 L2098.21 438.867 L2108.92 438.867 Z" fill="#000000" fill-rule="evenodd" fill-opacity="1" /></svg>
