<?xml version="1.0" encoding="utf-8"?>
<svg xmlns="http://www.w3.org/2000/svg" xmlns:xlink="http://www.w3.org/1999/xlink" width="600" height="400" viewBox="0 0 2400 1600">
<defs>
  <clipPath id="clip300">
    <rect x="0" y="0" width="2400" height="1600"/>
  </clipPath>
</defs>
<path clip-path="url(#clip300)" d="
M0 1600 L2400 1600 L2400 0 L0 0  Z
  " fill="#ffffff" fill-rule="evenodd" fill-opacity="1"/>
<defs>
  <clipPath id="clip301">
    <rect x="480" y="0" width="1681" height="1600"/>
  </clipPath>
</defs>
<defs>
  <clipPath id="clip302">
    <rect x="156" y="47" width="2197" height="1440"/>
  </clipPath>
</defs>
<path clip-path="url(#clip300)" d="
M340.34 1332.46 L2352.76 1332.46 L2352.76 47.2441 L340.34 47.2441  Z
  " fill="#ffffff" fill-rule="evenodd" fill-opacity="1"/>
<defs>
  <clipPath id="clip303">
    <rect x="340" y="47" width="2013" height="1286"/>
  </clipPath>
</defs>
<polyline clip-path="url(#clip303)" style="stroke:#000000; stroke-linecap:round; stroke-linejoin:round; stroke-width:2; stroke-opacity:0.1; fill:none" points="
  2185.05,1332.46 2185.05,47.2441 
  "/>
<polyline clip-path="url(#clip303)" style="stroke:#000000; stroke-linecap:round; stroke-linejoin:round; stroke-width:2; stroke-opacity:0.1; fill:none" points="
  1346.55,1332.46 1346.55,47.2441 
  "/>
<polyline clip-path="url(#clip303)" style="stroke:#000000; stroke-linecap:round; stroke-linejoin:round; stroke-width:2; stroke-opacity:0.1; fill:none" points="
  508.041,1332.46 508.041,47.2441 
  "/>
<polyline clip-path="url(#clip300)" style="stroke:#000000; stroke-linecap:round; stroke-linejoin:round; stroke-width:4; stroke-opacity:1; fill:none" points="
  340.34,1332.46 2352.76,1332.46 
  "/>
<polyline clip-path="url(#clip300)" style="stroke:#000000; stroke-linecap:round; stroke-linejoin:round; stroke-width:4; stroke-opacity:1; fill:none" points="
  2185.05,1332.46 2185.05,1313.56 
  "/>
<polyline clip-path="url(#clip300)" style="stroke:#000000; stroke-linecap:round; stroke-linejoin:round; stroke-width:4; stroke-opacity:1; fill:none" points="
  1346.55,1332.46 1346.55,1313.56 
  "/>
<polyline clip-path="url(#clip300)" style="stroke:#000000; stroke-linecap:round; stroke-linejoin:round; stroke-width:4; stroke-opacity:1; fill:none" points="
  508.041,1332.46 508.041,1313.56 
  "/>
<path clip-path="url(#clip300)" d="M2166.83 1367.86 L2201.24 1367.86 L2201.24 1375.24 L2174.85 1375.24 L2174.85 1391.12 Q2176.76 1390.47 2178.67 1390.17 Q2180.58 1389.82 2182.49 1389.82 Q2193.34 1389.82 2199.68 1395.77 Q2206.02 1401.71 2206.02 1411.87 Q2206.02 1422.33 2199.51 1428.15 Q2193 1433.92 2181.15 1433.92 Q2177.07 1433.92 2172.82 1433.22 Q2168.61 1432.53 2164.09 1431.14 L2164.09 1422.33 Q2168 1424.46 2172.16 1425.5 Q2176.33 1426.54 2180.97 1426.54 Q2188.48 1426.54 2192.87 1422.59 Q2197.25 1418.64 2197.25 1411.87 Q2197.25 1405.1 2192.87 1401.15 Q2188.48 1397.2 2180.97 1397.2 Q2177.46 1397.2 2173.94 1397.98 Q2170.47 1398.76 2166.83 1400.41 L2166.83 1367.86 Z" fill="#000000" fill-rule="evenodd" fill-opacity="1" /><path clip-path="url(#clip300)" d="M1346.55 1373.63 Q1339.78 1373.63 1336.35 1380.32 Q1332.96 1386.96 1332.96 1400.32 Q1332.96 1413.65 1336.35 1420.33 Q1339.78 1426.97 1346.55 1426.97 Q1353.36 1426.97 1356.75 1420.33 Q1360.18 1413.65 1360.18 1400.32 Q1360.18 1386.96 1356.75 1380.32 Q1353.36 1373.63 1346.55 1373.63 M1346.55 1366.69 Q1357.44 1366.69 1363.17 1375.33 Q1368.94 1383.92 1368.94 1400.32 Q1368.94 1416.69 1363.17 1425.32 Q1357.44 1433.92 1346.55 1433.92 Q1335.65 1433.92 1329.88 1425.32 Q1324.15 1416.69 1324.15 1400.32 Q1324.15 1383.92 1329.88 1375.33 Q1335.65 1366.69 1346.55 1366.69 Z" fill="#000000" fill-rule="evenodd" fill-opacity="1" /><path clip-path="url(#clip300)" d="M451.119 1401.11 L506.761 1401.11 L506.761 1408.48 L451.119 1408.48 L451.119 1401.11 Z" fill="#000000" fill-rule="evenodd" fill-opacity="1" /><path clip-path="url(#clip300)" d="M525.771 1367.86 L560.19 1367.86 L560.19 1375.24 L533.801 1375.24 L533.801 1391.12 Q535.711 1390.47 537.62 1390.17 Q539.53 1389.82 541.44 1389.82 Q552.29 1389.82 558.627 1395.77 Q564.964 1401.71 564.964 1411.87 Q564.964 1422.33 558.454 1428.15 Q551.943 1433.92 540.094 1433.92 Q536.014 1433.92 531.761 1433.22 Q527.551 1432.53 523.037 1431.14 L523.037 1422.33 Q526.943 1424.46 531.11 1425.5 Q535.277 1426.54 539.921 1426.54 Q547.429 1426.54 551.813 1422.59 Q556.197 1418.64 556.197 1411.87 Q556.197 1405.1 551.813 1401.15 Q547.429 1397.2 539.921 1397.2 Q536.405 1397.2 532.889 1397.98 Q529.417 1398.76 525.771 1400.41 L525.771 1367.86 Z" fill="#000000" fill-rule="evenodd" fill-opacity="1" /><path clip-path="url(#clip300)" d="M1388.97 1506.65 Q1388.97 1513.46 1385.53 1526.64 Q1384.14 1532.35 1382.24 1537.54 Q1380.41 1542.67 1377.7 1547.64 Q1374.99 1552.62 1371.84 1556.21 Q1368.7 1559.72 1364.6 1561.92 Q1360.5 1564.11 1355.96 1564.11 Q1348.79 1564.11 1344.54 1559.87 Q1340.37 1555.55 1339.05 1548.16 Q1329.24 1564.11 1316.14 1564.11 Q1308.02 1564.11 1304.21 1558.33 Q1300.41 1552.47 1300.41 1542.67 Q1300.41 1534.39 1302.6 1525.83 Q1306.77 1509.58 1314.9 1498.24 Q1316 1496.92 1317.61 1496.92 Q1318.56 1496.92 1319 1497.21 Q1320.31 1498.02 1320.31 1499.33 Q1320.31 1500.29 1319.58 1501.24 Q1314.46 1508.34 1311.09 1514.41 Q1307.72 1520.49 1306.19 1526.64 Q1305.02 1531.91 1305.02 1536.37 Q1305.02 1543.91 1308.24 1548.59 Q1311.53 1553.28 1318.05 1553.28 Q1324.05 1553.28 1329.32 1549.55 Q1334.59 1545.74 1338.47 1539.37 Q1338.69 1532.42 1340.37 1525.83 Q1341.91 1518.8 1345.49 1518.8 Q1348.35 1518.8 1348.35 1522.68 Q1348.35 1524 1347.76 1526.64 Q1346.15 1533.59 1343.22 1539.81 Q1344.25 1545.89 1348.06 1549.62 Q1351.86 1553.28 1357.94 1553.28 Q1363.57 1553.28 1368.55 1549.18 Q1373.6 1545.08 1376.82 1539.08 Q1380.11 1533 1381.94 1525.83 Q1382.53 1523.42 1382.53 1520.34 Q1382.53 1512.14 1376.82 1507.09 Q1375.21 1505.48 1375.21 1503.36 Q1375.21 1500.87 1377.26 1498.6 Q1379.68 1496.19 1382.53 1496.19 Q1384.65 1496.19 1385.97 1497.5 Q1388.97 1500.14 1388.97 1506.65 Z" fill="#000000" fill-rule="evenodd" fill-opacity="1" /><polyline clip-path="url(#clip303)" style="stroke:#000000; stroke-linecap:round; stroke-linejoin:round; stroke-width:2; stroke-opacity:0.1; fill:none" points="
  340.34,870.095 2352.76,870.095 
  "/>
<polyline clip-path="url(#clip303)" style="stroke:#000000; stroke-linecap:round; stroke-linejoin:round; stroke-width:2; stroke-opacity:0.1; fill:none" points="
  340.34,1296.09 2352.76,1296.09 
  "/>
<polyline clip-path="url(#clip300)" style="stroke:#000000; stroke-linecap:round; stroke-linejoin:round; stroke-width:4; stroke-opacity:1; fill:none" points="
  340.34,1332.46 340.34,47.2441 
  "/>
<polyline clip-path="url(#clip300)" style="stroke:#000000; stroke-linecap:round; stroke-linejoin:round; stroke-width:4; stroke-opacity:1; fill:none" points="
  340.34,870.095 359.238,870.095 
  "/>
<polyline clip-path="url(#clip300)" style="stroke:#000000; stroke-linecap:round; stroke-linejoin:round; stroke-width:4; stroke-opacity:1; fill:none" points="
  340.34,1296.09 359.238,1296.09 
  "/>
<path clip-path="url(#clip300)" d="M198.351 843.468 Q191.58 843.468 188.152 850.152 Q184.766 856.792 184.766 870.16 Q184.766 883.485 188.152 890.169 Q191.58 896.809 198.351 896.809 Q205.165 896.809 208.551 890.169 Q211.98 883.485 211.98 870.16 Q211.98 856.792 208.551 850.152 Q205.165 843.468 198.351 843.468 M198.351 836.523 Q209.245 836.523 214.974 845.16 Q220.747 853.754 220.747 870.16 Q220.747 886.523 214.974 895.16 Q209.245 903.754 198.351 903.754 Q187.457 903.754 181.685 895.16 Q175.955 886.523 175.955 870.16 Q175.955 853.754 181.685 845.16 Q187.457 836.523 198.351 836.523 Z" fill="#000000" fill-rule="evenodd" fill-opacity="1" /><path clip-path="url(#clip300)" d="M236.155 891.471 L245.313 891.471 L245.313 902.495 L236.155 902.495 L236.155 891.471 Z" fill="#000000" fill-rule="evenodd" fill-opacity="1" /><path clip-path="url(#clip300)" d="M290.972 867.556 Q297.266 868.902 300.781 873.155 Q304.34 877.409 304.34 883.659 Q304.34 893.25 297.743 898.502 Q291.146 903.754 278.993 903.754 Q274.913 903.754 270.573 902.929 Q266.276 902.148 261.675 900.542 L261.675 892.079 Q265.321 894.205 269.662 895.29 Q274.002 896.375 278.733 896.375 Q286.979 896.375 291.276 893.12 Q295.616 889.865 295.616 883.659 Q295.616 877.929 291.58 874.718 Q287.587 871.462 280.425 871.462 L272.873 871.462 L272.873 864.258 L280.773 864.258 Q287.24 864.258 290.668 861.697 Q294.097 859.093 294.097 854.232 Q294.097 849.24 290.538 846.593 Q287.023 843.902 280.425 843.902 Q276.823 843.902 272.7 844.683 Q268.576 845.464 263.629 847.114 L263.629 839.301 Q268.62 837.912 272.96 837.218 Q277.344 836.523 281.207 836.523 Q291.189 836.523 297.005 841.081 Q302.821 845.594 302.821 853.32 Q302.821 858.702 299.739 862.435 Q296.658 866.124 290.972 867.556 Z" fill="#000000" fill-rule="evenodd" fill-opacity="1" /><path clip-path="url(#clip300)" d="M197.136 1269.46 Q190.365 1269.46 186.936 1276.15 Q183.551 1282.79 183.551 1296.16 Q183.551 1309.48 186.936 1316.16 Q190.365 1322.81 197.136 1322.81 Q203.95 1322.81 207.335 1316.16 Q210.764 1309.48 210.764 1296.16 Q210.764 1282.79 207.335 1276.15 Q203.95 1269.46 197.136 1269.46 M197.136 1262.52 Q208.03 1262.52 213.759 1271.16 Q219.532 1279.75 219.532 1296.16 Q219.532 1312.52 213.759 1321.16 Q208.03 1329.75 197.136 1329.75 Q186.242 1329.75 180.469 1321.16 Q174.74 1312.52 174.74 1296.16 Q174.74 1279.75 180.469 1271.16 Q186.242 1262.52 197.136 1262.52 Z" fill="#000000" fill-rule="evenodd" fill-opacity="1" /><path clip-path="url(#clip300)" d="M234.939 1317.47 L244.097 1317.47 L244.097 1328.49 L234.939 1328.49 L234.939 1317.47 Z" fill="#000000" fill-rule="evenodd" fill-opacity="1" /><path clip-path="url(#clip300)" d="M281.944 1269.46 Q275.174 1269.46 271.745 1276.15 Q268.359 1282.79 268.359 1296.16 Q268.359 1309.48 271.745 1316.16 Q275.174 1322.81 281.944 1322.81 Q288.759 1322.81 292.144 1316.16 Q295.573 1309.48 295.573 1296.16 Q295.573 1282.79 292.144 1276.15 Q288.759 1269.46 281.944 1269.46 M281.944 1262.52 Q292.838 1262.52 298.568 1271.16 Q304.34 1279.75 304.34 1296.16 Q304.34 1312.52 298.568 1321.16 Q292.838 1329.75 281.944 1329.75 Q271.05 1329.75 265.278 1321.16 Q259.549 1312.52 259.549 1296.16 Q259.549 1279.75 265.278 1271.16 Q271.05 1262.52 281.944 1262.52 Z" fill="#000000" fill-rule="evenodd" fill-opacity="1" /><path clip-path="url(#clip300)" d="M48.927 657.422 Q59.7599 657.422 69.934 662.985 Q80.1081 668.474 86.2565 677.111 Q92.4049 685.675 92.4049 694.312 Q92.4049 704.047 82.304 709.098 Q118.975 718.247 119.926 718.759 Q123.074 720.882 123.074 723.956 Q123.074 725.859 121.903 727.03 Q120.805 728.202 119.048 728.202 Q118.462 728.128 116.632 727.689 L57.7104 713.05 Q44.0229 709.683 34.288 699.509 Q24.4798 689.262 24.4798 678.282 Q24.4798 669.572 30.9942 663.497 Q37.5085 657.422 48.927 657.422 M42.4858 668.182 Q35.1663 668.182 31.5065 671.109 Q27.7736 674.037 27.7736 678.575 Q27.7736 682.747 31.1406 687.798 Q34.5075 692.775 41.9734 697.167 Q46.292 699.509 51.6352 701.193 Q56.9784 702.876 70.1536 706.17 Q75.4236 707.341 75.7164 707.341 Q76.302 707.341 77.6195 707.048 Q78.937 706.682 80.9865 705.804 Q82.9627 704.852 84.7194 703.535 Q86.4761 702.217 87.7936 699.802 Q89.0379 697.386 89.0379 694.459 Q89.0379 689.921 85.3782 685.09 Q81.6452 680.186 74.8381 676.599 Q69.3484 673.598 59.0279 670.89 Q48.6342 668.182 42.4858 668.182 Z" fill="#000000" fill-rule="evenodd" fill-opacity="1" /><polyline clip-path="url(#clip303)" style="stroke:#009af9; stroke-linecap:round; stroke-linejoin:round; stroke-width:12; stroke-opacity:1; fill:none" points="
  -330.465,1296.09 -327.108,1296.09 -323.75,1296.09 -320.393,1296.09 -317.036,1296.09 -313.678,1296.09 -310.321,1296.09 -306.963,1296.09 -303.606,1296.09 -300.249,1296.09 
  -296.891,1296.09 -293.534,1296.09 -290.176,1296.09 -286.819,1296.09 -283.462,1296.09 -280.104,1296.09 -276.747,1296.09 -273.39,1296.09 -270.032,1296.09 -266.675,1296.09 
  -263.317,1296.09 -259.96,1296.09 -256.603,1296.09 -253.245,1296.09 -249.888,1296.09 -246.531,1296.09 -243.173,1296.09 -239.816,1296.09 -236.458,1296.09 -233.101,1296.09 
  -229.744,1296.09 -226.386,1296.08 -223.029,1296.08 -219.671,1296.08 -216.314,1296.08 -212.957,1296.08 -209.599,1296.08 -206.242,1296.08 -202.885,1296.08 -199.527,1296.08 
  -196.17,1296.08 -192.812,1296.08 -189.455,1296.08 -186.098,1296.08 -182.74,1296.08 -179.383,1296.08 -176.025,1296.08 -172.668,1296.08 -169.311,1296.08 -165.953,1296.08 
  -162.596,1296.08 -159.239,1296.08 -155.881,1296.08 -152.524,1296.08 -149.166,1296.08 -145.809,1296.08 -142.452,1296.08 -139.094,1296.08 -135.737,1296.08 -132.379,1296.08 
  -129.022,1296.08 -125.665,1296.08 -122.307,1296.08 -118.95,1296.08 -115.593,1296.08 -112.235,1296.08 -108.878,1296.08 -105.52,1296.08 -102.163,1296.08 -98.8056,1296.08 
  -95.4482,1296.08 -92.0909,1296.08 -88.7335,1296.08 -85.3761,1296.08 -82.0187,1296.08 -78.6613,1296.08 -75.3039,1296.08 -71.9466,1296.08 -68.5892,1296.08 -65.2318,1296.08 
  -61.8744,1296.08 -58.517,1296.08 -55.1596,1296.08 -51.8023,1296.08 -48.4449,1296.08 -45.0875,1296.08 -41.7301,1296.08 -38.3727,1296.08 -35.0153,1296.08 -31.6579,1296.08 
  -28.3006,1296.08 -24.9432,1296.08 -21.5858,1296.08 -18.2284,1296.08 -14.871,1296.08 -11.5136,1296.08 -8.15626,1296.08 -4.79888,1296.08 -1.4415,1296.08 1.91589,1296.08 
  5.27327,1296.08 8.63065,1296.08 11.988,1296.08 15.3454,1296.08 18.7028,1296.08 22.0602,1296.08 25.4176,1296.08 28.775,1296.08 32.1323,1296.08 35.4897,1296.08 
  38.8471,1296.08 42.2045,1296.08 45.5619,1296.08 48.9193,1296.08 52.2766,1296.08 55.634,1296.08 58.9914,1296.08 62.3488,1296.08 65.7062,1296.08 69.0636,1296.08 
  72.4209,1296.08 75.7783,1296.08 79.1357,1296.08 82.4931,1296.08 85.8505,1296.08 89.2079,1296.08 92.5652,1296.08 95.9226,1296.08 99.28,1296.08 102.637,1296.08 
  105.995,1296.08 109.352,1296.08 112.71,1296.08 116.067,1296.08 119.424,1296.08 122.782,1296.08 126.139,1296.08 129.496,1296.08 132.854,1296.08 136.211,1296.08 
  139.569,1296.08 142.926,1296.08 146.283,1296.08 149.641,1296.08 152.998,1296.08 156.356,1296.08 159.713,1296.08 163.07,1296.08 166.428,1296.08 169.785,1296.08 
  173.142,1296.08 176.5,1296.08 179.857,1296.08 183.215,1296.08 186.572,1296.08 189.929,1296.08 193.287,1296.08 196.644,1296.08 200.002,1296.08 203.359,1296.08 
  206.716,1296.08 210.074,1296.08 213.431,1296.08 216.788,1296.08 220.146,1296.08 223.503,1296.08 226.861,1296.08 230.218,1296.08 233.575,1296.08 236.933,1296.08 
  240.29,1296.08 243.648,1296.08 247.005,1296.08 250.362,1296.08 253.72,1296.08 257.077,1296.08 260.434,1296.08 263.792,1296.08 267.149,1296.08 270.507,1296.08 
  273.864,1296.07 277.221,1296.07 280.579,1296.07 283.936,1296.07 287.293,1296.07 290.651,1296.07 294.008,1296.07 297.366,1296.07 300.723,1296.07 304.08,1296.07 
  307.438,1296.07 310.795,1296.07 314.153,1296.07 317.51,1296.07 320.867,1296.07 324.225,1296.07 327.582,1296.07 330.939,1296.07 334.297,1296.07 337.654,1296.07 
  341.012,1296.07 344.369,1296.07 347.726,1296.07 351.084,1296.07 354.441,1296.07 357.799,1296.07 361.156,1296.07 364.513,1296.07 367.871,1296.07 371.228,1296.07 
  374.585,1296.07 377.943,1296.07 381.3,1296.07 384.658,1296.07 388.015,1296.07 391.372,1296.07 394.73,1296.07 398.087,1296.07 401.445,1296.07 404.802,1296.07 
  408.159,1296.07 411.517,1296.07 414.874,1296.07 418.231,1296.07 421.589,1296.07 424.946,1296.07 428.304,1296.06 431.661,1296.06 435.018,1296.06 438.376,1296.06 
  441.733,1296.06 445.091,1296.06 448.448,1296.06 451.805,1296.06 455.163,1296.06 458.52,1296.06 461.877,1296.06 465.235,1296.06 468.592,1296.06 471.95,1296.06 
  475.307,1296.06 478.664,1296.06 482.022,1296.06 485.379,1296.06 488.737,1296.06 492.094,1296.05 495.451,1296.05 498.809,1296.05 502.166,1296.05 505.523,1296.05 
  508.881,1296.05 512.238,1296.05 515.596,1296.04 518.953,1296.04 522.31,1296.04 525.668,1296.03 529.025,1296.03 532.383,1296.02 535.74,1296.01 539.097,1296 
  542.455,1295.98 545.812,1295.96 549.169,1295.93 552.527,1295.87 555.884,1295.79 559.242,1295.65 562.599,1295.41 565.956,1294.96 569.314,1294.17 572.671,1293.18 
  576.028,1292.93 579.386,1293.6 582.743,1294.31 586.101,1294.79 589.458,1295.08 592.815,1295.27 596.173,1295.39 599.53,1295.47 602.888,1295.53 606.245,1295.56 
  609.602,1295.59 612.96,1295.6 616.317,1295.61 619.674,1295.61 623.032,1295.61 626.389,1295.6 629.747,1295.58 633.104,1295.56 636.461,1295.53 639.819,1295.49 
  643.176,1295.45 646.534,1295.39 649.891,1295.33 653.248,1295.24 656.606,1295.14 659.963,1295.01 663.32,1294.85 666.678,1294.65 670.035,1294.38 673.393,1294.03 
  676.75,1293.56 680.107,1292.91 683.465,1292 686.822,1290.66 690.18,1288.62 693.537,1285.37 696.894,1279.95 700.252,1270.48 703.609,1254.04 706.966,1230.3 
  710.324,1214.87 713.681,1225.21 717.039,1245.02 720.396,1260.07 723.753,1269.59 727.111,1275.55 730.468,1279.39 733.826,1281.94 737.183,1283.67 740.54,1284.86 
  743.898,1285.67 747.255,1286.2 750.612,1286.5 753.97,1286.61 757.327,1286.55 760.685,1286.32 764.042,1285.92 767.399,1285.33 770.757,1284.51 774.114,1283.41 
  777.472,1281.96 780.829,1280.05 784.186,1277.5 787.544,1274.07 790.901,1269.36 794.258,1262.71 797.616,1253.04 800.973,1238.45 804.331,1215.45 807.688,1177.56 
  811.045,1113.37 814.403,1009.39 817.76,884.519 821.117,845.125 824.475,932.05 827.832,1039.38 831.19,1115.17 834.547,1162.75 837.904,1192.66 841.262,1212.02 
  844.619,1224.9 847.977,1233.63 851.334,1239.55 854.691,1243.44 858.049,1245.79 861.406,1246.86 864.763,1246.79 868.121,1245.59 871.478,1243.18 874.836,1239.38 
  878.193,1233.85 881.55,1226.03 884.908,1215.05 888.265,1199.48 891.623,1176.96 894.98,1143.4 898.337,1091.54 901.695,1008.28 905.052,871.252 908.409,654.432 
  911.767,389.869 915.124,282.75 918.482,455.61 921.839,700.221 925.196,880.207 928.554,994.002 931.911,1065.12 935.269,1110.63 938.626,1140.51 941.983,1160.39 
  945.341,1173.5 948.698,1181.71 952.055,1186.07 955.413,1187.11 958.77,1184.97 962.128,1179.39 965.485,1169.74 968.842,1154.78 972.2,1132.38 975.557,1098.86 
  978.915,1047.85 982.272,968.025 985.629,839.767 988.987,634.681 992.344,345.36 995.701,103.781 999.059,164.168 1002.42,448.008 1005.77,708.227 1009.13,880.835 
  1012.49,987.947 1015.85,1054.94 1019.2,1097.74 1022.56,1125.36 1025.92,1142.87 1029.28,1153.1 1032.63,1157.5 1035.99,1156.64 1039.35,1150.31 1042.7,1137.49 
  1046.06,1115.98 1049.42,1081.73 1052.78,1027.51 1056.13,940.697 1059.49,802.106 1062.85,599.39 1066.21,396.53 1069.56,383.448 1072.92,582.799 1076.28,799.456 
  1079.64,949.121 1082.99,1041.65 1086.35,1098.37 1089.71,1133.49 1093.07,1155.05 1096.42,1167.42 1099.78,1172.79 1103.14,1172 1106.5,1164.71 1109.85,1149.34 
  1113.21,1122.47 1116.57,1077.8 1119.92,1005.24 1123.28,896.118 1126.64,775.77 1130,747.13 1133.35,853.714 1136.71,986.278 1140.07,1080.31 1143.43,1137.81 
  1146.78,1172.01 1150.14,1192.03 1153.5,1202.89 1156.86,1207.01 1160.21,1205.17 1163.57,1196.73 1166.93,1179.47 1170.29,1149.13 1173.64,1100.63 1177,1039.72 
  1180.36,1010.37 1183.71,1053.86 1187.07,1123.89 1190.43,1176.06 1193.79,1207.46 1197.14,1225.15 1200.5,1234.24 1203.86,1237.28 1207.22,1235.02 1210.57,1226.71 
  1213.93,1210.29 1217.29,1184.37 1220.65,1158.6 1224,1161.4 1227.36,1193.49 1230.72,1224.25 1234.08,1243.33 1237.43,1253.38 1240.79,1257.44 1244.15,1256.82 
  1247.51,1251.42 1250.86,1240.56 1254.22,1227.37 1257.58,1225.72 1260.93,1240.68 1264.29,1256.41 1267.65,1265.73 1271.01,1269.64 1274.36,1269.43 1277.72,1265.39 
  1281.08,1258.7 1284.44,1256.21 1287.79,1263.26 1291.15,1271.62 1294.51,1276.05 1297.87,1276.68 1301.22,1274.17 1304.58,1270.82 1307.94,1272.23 1311.3,1277.15 
  1314.65,1280 1318.01,1279.69 1321.37,1277.6 1324.73,1277.89 1328.08,1280.59 1331.44,1281.45 1334.8,1280.29 1338.15,1280.48 1341.51,1281.6 1344.87,1281.08 
  1348.23,1281.15 1351.58,1281.57 1354.94,1280.39 1358.3,1280.46 1361.66,1281.5 1365.01,1280.34 1368.37,1277.73 1371.73,1277.98 1375.09,1279.98 1378.44,1279.85 
  1381.8,1276.54 1385.16,1271.82 1388.52,1271.51 1391.87,1275.01 1395.23,1276.97 1398.59,1275.66 1401.94,1270.43 1405.3,1261.76 1408.66,1256.52 1412.02,1260.74 
  1415.37,1267.03 1418.73,1270.12 1422.09,1269.38 1425.45,1264.32 1428.8,1253.45 1432.16,1236.91 1435.52,1225.49 1438.88,1231.86 1442.23,1245.04 1445.59,1254.17 
  1448.95,1258.01 1452.31,1257.25 1455.66,1251.6 1459.02,1239.23 1462.38,1216.75 1465.74,1183.68 1469.09,1158.61 1472.45,1168.29 1475.81,1196.13 1479.16,1218.51 
  1482.52,1231.55 1485.88,1237.4 1489.24,1237.67 1492.59,1232.57 1495.95,1220.74 1499.31,1198.76 1502.67,1160.45 1506.02,1100.05 1509.38,1033.57 1512.74,1019.24 
  1516.1,1068.8 1519.45,1126.24 1522.81,1166.08 1526.17,1189.86 1529.53,1202.74 1532.88,1208.04 1536.24,1207.23 1539.6,1200.33 1542.95,1185.88 1546.31,1160.44 
  1549.67,1117.33 1553.03,1045.19 1556.38,932.071 1559.74,798.828 1563.1,749.646 1566.46,836.96 1569.81,958.403 1573.17,1048.39 1576.53,1105.13 1579.89,1139.56 
  1583.24,1159.86 1586.6,1170.71 1589.96,1174.51 1593.32,1172.14 1596.67,1163.34 1600.03,1146.64 1603.39,1118.81 1606.75,1073.82 1610.1,1000.68 1613.46,881.01 
  1616.82,694.275 1620.17,466.671 1623.53,363.99 1626.89,503.902 1630.25,722.329 1633.6,889.2 1636.96,995.866 1640.32,1062.2 1643.68,1103.85 1647.03,1130.13 
  1650.39,1146.26 1653.75,1155.11 1657.11,1158.17 1660.46,1155.96 1663.82,1148.24 1667.18,1133.95 1670.54,1110.89 1673.89,1075.04 1677.25,1019.25 1680.61,930.741 
  1683.97,787.856 1687.32,562.743 1690.68,267.537 1694.04,83.6181 1697.39,226.467 1700.75,525.898 1704.11,767.974 1707.47,923.396 1710.82,1019.64 1714.18,1080.41 
  1717.54,1119.92 1720.9,1146.17 1724.25,1163.74 1727.61,1175.26 1730.97,1182.28 1734.33,1185.64 1737.68,1185.73 1741.04,1182.55 1744.4,1175.71 1747.76,1164.37 
  1751.11,1146.96 1754.47,1120.82 1757.83,1081.25 1761.18,1020.03 1764.54,922.764 1767.9,767.061 1771.26,537.235 1774.61,307.857 1777.97,306.801 1781.33,548.709 
  1784.69,796.284 1788.04,961.602 1791.4,1062.36 1794.76,1124.42 1798.12,1164.05 1801.47,1190.33 1804.83,1208.32 1808.19,1220.93 1811.55,1229.89 1814.9,1236.25 
  1818.26,1240.68 1821.62,1243.58 1824.98,1245.18 1828.33,1245.62 1831.69,1244.9 1835.05,1242.92 1838.4,1239.46 1841.76,1234.1 1845.12,1226.17 1848.48,1214.49 
  1851.83,1197.09 1855.19,1170.5 1858.55,1128.6 1861.91,1061.6 1865.26,960.823 1868.62,853.262 1871.98,844.265 1875.34,957.517 1878.69,1076.96 1882.05,1155.27 
  1885.41,1201.71 1888.77,1229.6 1892.12,1247.07 1895.48,1258.49 1898.84,1266.26 1902.2,1271.71 1905.55,1275.66 1908.91,1278.56 1912.27,1280.74 1915.62,1282.39 
  1918.98,1283.64 1922.34,1284.58 1925.7,1285.26 1929.05,1285.74 1932.41,1286.03 1935.77,1286.14 1939.13,1286.08 1942.48,1285.82 1945.84,1285.35 1949.2,1284.6 
  1952.56,1283.48 1955.91,1281.86 1959.27,1279.49 1962.63,1275.96 1965.99,1270.54 1969.34,1261.98 1972.7,1248.35 1976.06,1228.78 1979.41,1212.39 1982.77,1220.04 
  1986.13,1244.58 1989.49,1264.51 1992.84,1276.41 1996.2,1283.21 1999.56,1287.23 2002.92,1289.72 2006.27,1291.34 2009.63,1292.44 2012.99,1293.2 2016.35,1293.75 
  2019.7,1294.16 2023.06,1294.47 2026.42,1294.71 2029.78,1294.89 2033.13,1295.04 2036.49,1295.16 2039.85,1295.25 2043.21,1295.33 2046.56,1295.39 2049.92,1295.44 
  2053.28,1295.48 2056.63,1295.51 2059.99,1295.54 2063.35,1295.56 2066.71,1295.57 2070.06,1295.58 2073.42,1295.58 2076.78,1295.57 2080.14,1295.56 2083.49,1295.54 
  2086.85,1295.5 2090.21,1295.45 2093.57,1295.37 2096.92,1295.25 2100.28,1295.08 2103.64,1294.81 2107,1294.38 2110.35,1293.71 2113.71,1292.92 2117.07,1292.79 
  2120.42,1293.7 2123.78,1294.65 2127.14,1295.23 2130.5,1295.55 2133.85,1295.73 2137.21,1295.83 2140.57,1295.9 2143.93,1295.94 2147.28,1295.97 2150.64,1295.99 
  2154,1296 2157.36,1296.01 2160.71,1296.02 2164.07,1296.03 2167.43,1296.03 2170.79,1296.04 2174.14,1296.04 2177.5,1296.04 2180.86,1296.05 2184.22,1296.05 
  2187.57,1296.05 2190.93,1296.05 2194.29,1296.05 2197.64,1296.05 2201,1296.05 2204.36,1296.06 2207.72,1296.06 2211.07,1296.06 2214.43,1296.06 2217.79,1296.06 
  2221.15,1296.06 2224.5,1296.06 2227.86,1296.06 2231.22,1296.06 2234.58,1296.06 2237.93,1296.06 2241.29,1296.06 2244.65,1296.06 2248.01,1296.06 2251.36,1296.06 
  2254.72,1296.06 2258.08,1296.06 2261.44,1296.06 2264.79,1296.06 2268.15,1296.07 2271.51,1296.07 2274.86,1296.07 2278.22,1296.07 2281.58,1296.07 2284.94,1296.07 
  2288.29,1296.07 2291.65,1296.07 2295.01,1296.07 2298.37,1296.07 2301.72,1296.07 2305.08,1296.07 2308.44,1296.07 2311.8,1296.07 2315.15,1296.07 2318.51,1296.07 
  2321.87,1296.07 2325.23,1296.07 2328.58,1296.07 2331.94,1296.07 2335.3,1296.07 2338.65,1296.07 2342.01,1296.07 2345.37,1296.07 2348.73,1296.07 2352.08,1296.07 
  2355.44,1296.07 2358.8,1296.07 2362.16,1296.07 2365.51,1296.07 2368.87,1296.07 2372.23,1296.07 2375.59,1296.07 2378.94,1296.07 2382.3,1296.07 2385.66,1296.07 
  2389.02,1296.07 2392.37,1296.07 2395.73,1296.07 2399.09,1296.07 2402.45,1296.07 2405.8,1296.07 2409.16,1296.07 2412.52,1296.07 2415.87,1296.07 2419.23,1296.07 
  2422.59,1296.08 2425.95,1296.08 2429.3,1296.08 2432.66,1296.08 2436.02,1296.08 2439.38,1296.08 2442.73,1296.08 2446.09,1296.08 2449.45,1296.08 2452.81,1296.08 
  2456.16,1296.08 2459.52,1296.08 2462.88,1296.08 2466.24,1296.08 2469.59,1296.08 2472.95,1296.08 2476.31,1296.08 2479.67,1296.08 2483.02,1296.08 2486.38,1296.08 
  2489.74,1296.08 2493.09,1296.08 2496.45,1296.08 2499.81,1296.08 2503.17,1296.08 2506.52,1296.08 2509.88,1296.08 2513.24,1296.08 2516.6,1296.08 2519.95,1296.08 
  2523.31,1296.08 2526.67,1296.08 2530.03,1296.08 2533.38,1296.08 2536.74,1296.08 2540.1,1296.08 2543.46,1296.08 2546.81,1296.08 2550.17,1296.08 2553.53,1296.08 
  2556.88,1296.08 2560.24,1296.08 2563.6,1296.08 2566.96,1296.08 2570.31,1296.08 2573.67,1296.08 2577.03,1296.08 2580.39,1296.08 2583.74,1296.08 2587.1,1296.08 
  2590.46,1296.08 2593.82,1296.08 2597.17,1296.08 2600.53,1296.08 2603.89,1296.08 2607.25,1296.08 2610.6,1296.08 2613.96,1296.08 2617.32,1296.08 2620.68,1296.08 
  2624.03,1296.08 2627.39,1296.08 2630.75,1296.08 2634.1,1296.08 2637.46,1296.08 2640.82,1296.08 2644.18,1296.08 2647.53,1296.08 2650.89,1296.08 2654.25,1296.08 
  2657.61,1296.08 2660.96,1296.08 2664.32,1296.08 2667.68,1296.08 2671.04,1296.08 2674.39,1296.08 2677.75,1296.08 2681.11,1296.08 2684.47,1296.08 2687.82,1296.08 
  2691.18,1296.08 2694.54,1296.08 2697.89,1296.08 2701.25,1296.08 2704.61,1296.08 2707.97,1296.08 2711.32,1296.08 2714.68,1296.08 2718.04,1296.08 2721.4,1296.08 
  2724.75,1296.08 2728.11,1296.08 2731.47,1296.08 2734.83,1296.08 2738.18,1296.08 2741.54,1296.08 2744.9,1296.08 2748.26,1296.08 2751.61,1296.08 2754.97,1296.08 
  2758.33,1296.08 2761.69,1296.08 2765.04,1296.08 2768.4,1296.08 2771.76,1296.08 2775.11,1296.08 2778.47,1296.08 2781.83,1296.08 2785.19,1296.08 2788.54,1296.08 
  2791.9,1296.08 2795.26,1296.08 2798.62,1296.08 2801.97,1296.08 2805.33,1296.08 2808.69,1296.08 2812.05,1296.08 2815.4,1296.08 2818.76,1296.08 2822.12,1296.08 
  2825.48,1296.08 2828.83,1296.08 2832.19,1296.08 2835.55,1296.08 2838.91,1296.08 2842.26,1296.08 2845.62,1296.08 2848.98,1296.08 2852.33,1296.08 2855.69,1296.08 
  2859.05,1296.08 2862.41,1296.08 2865.76,1296.08 2869.12,1296.08 2872.48,1296.08 2875.84,1296.08 2879.19,1296.08 2882.55,1296.08 2885.91,1296.08 2889.27,1296.08 
  2892.62,1296.08 2895.98,1296.08 2899.34,1296.08 2902.7,1296.08 2906.05,1296.08 2909.41,1296.08 2912.77,1296.08 2916.12,1296.08 2919.48,1296.08 2922.84,1296.09 
  2926.2,1296.09 2929.55,1296.09 2932.91,1296.09 2936.27,1296.09 2939.63,1296.09 2942.98,1296.09 2946.34,1296.09 2949.7,1296.09 2953.06,1296.09 2956.41,1296.09 
  2959.77,1296.09 2963.13,1296.09 2966.49,1296.09 2969.84,1296.09 2973.2,1296.09 2976.56,1296.09 2979.92,1296.09 2983.27,1296.09 2986.63,1296.09 2989.99,1296.09 
  2993.34,1296.09 2996.7,1296.09 3000.06,1296.09 3003.42,1296.09 3006.77,1296.09 3010.13,1296.09 3013.49,1296.09 3016.85,1296.09 3020.2,1296.09 3023.56,1296.09 
  
  "/>
<polyline clip-path="url(#clip303)" style="stroke:#e26f46; stroke-linecap:round; stroke-linejoin:round; stroke-width:12; stroke-opacity:1; fill:none" points="
  -330.465,1296.09 -327.108,1296.09 -323.75,1296.09 -320.393,1296.09 -317.036,1296.09 -313.678,1296.09 -310.321,1296.09 -306.963,1296.09 -303.606,1296.09 -300.249,1296.09 
  -296.891,1296.09 -293.534,1296.09 -290.176,1296.09 -286.819,1296.09 -283.462,1296.09 -280.104,1296.09 -276.747,1296.09 -273.39,1296.09 -270.032,1296.09 -266.675,1296.09 
  -263.317,1296.09 -259.96,1296.09 -256.603,1296.09 -253.245,1296.09 -249.888,1296.09 -246.531,1296.09 -243.173,1296.09 -239.816,1296.09 -236.458,1296.09 -233.101,1296.09 
  -229.744,1296.09 -226.386,1296.08 -223.029,1296.08 -219.671,1296.08 -216.314,1296.08 -212.957,1296.08 -209.599,1296.08 -206.242,1296.08 -202.885,1296.08 -199.527,1296.08 
  -196.17,1296.08 -192.812,1296.08 -189.455,1296.08 -186.098,1296.08 -182.74,1296.08 -179.383,1296.08 -176.025,1296.08 -172.668,1296.08 -169.311,1296.08 -165.953,1296.08 
  -162.596,1296.08 -159.239,1296.08 -155.881,1296.08 -152.524,1296.08 -149.166,1296.08 -145.809,1296.08 -142.452,1296.08 -139.094,1296.08 -135.737,1296.08 -132.379,1296.08 
  -129.022,1296.08 -125.665,1296.08 -122.307,1296.08 -118.95,1296.08 -115.593,1296.08 -112.235,1296.08 -108.878,1296.08 -105.52,1296.08 -102.163,1296.08 -98.8056,1296.08 
  -95.4482,1296.08 -92.0909,1296.08 -88.7335,1296.08 -85.3761,1296.08 -82.0187,1296.08 -78.6613,1296.08 -75.3039,1296.08 -71.9466,1296.08 -68.5892,1296.08 -65.2318,1296.08 
  -61.8744,1296.08 -58.517,1296.08 -55.1596,1296.08 -51.8023,1296.08 -48.4449,1296.08 -45.0875,1296.08 -41.7301,1296.08 -38.3727,1296.08 -35.0153,1296.08 -31.6579,1296.08 
  -28.3006,1296.08 -24.9432,1296.08 -21.5858,1296.08 -18.2284,1296.08 -14.871,1296.08 -11.5136,1296.08 -8.15626,1296.08 -4.79888,1296.08 -1.4415,1296.08 1.91589,1296.08 
  5.27327,1296.08 8.63065,1296.08 11.988,1296.08 15.3454,1296.08 18.7028,1296.08 22.0602,1296.08 25.4176,1296.08 28.775,1296.08 32.1323,1296.08 35.4897,1296.08 
  38.8471,1296.08 42.2045,1296.08 45.5619,1296.08 48.9193,1296.08 52.2766,1296.08 55.634,1296.08 58.9914,1296.08 62.3488,1296.08 65.7062,1296.08 69.0636,1296.08 
  72.4209,1296.08 75.7783,1296.08 79.1357,1296.08 82.4931,1296.08 85.8505,1296.08 89.2079,1296.08 92.5652,1296.08 95.9226,1296.08 99.28,1296.08 102.637,1296.08 
  105.995,1296.08 109.352,1296.08 112.71,1296.08 116.067,1296.08 119.424,1296.08 122.782,1296.08 126.139,1296.08 129.496,1296.08 132.854,1296.08 136.211,1296.08 
  139.569,1296.08 142.926,1296.08 146.283,1296.08 149.641,1296.08 152.998,1296.08 156.356,1296.08 159.713,1296.08 163.07,1296.08 166.428,1296.08 169.785,1296.08 
  173.142,1296.08 176.5,1296.08 179.857,1296.08 183.215,1296.08 186.572,1296.08 189.929,1296.08 193.287,1296.08 196.644,1296.08 200.002,1296.08 203.359,1296.08 
  206.716,1296.08 210.074,1296.08 213.431,1296.08 216.788,1296.08 220.146,1296.08 223.503,1296.08 226.861,1296.08 230.218,1296.08 233.575,1296.08 236.933,1296.08 
  240.29,1296.08 243.648,1296.08 247.005,1296.08 250.362,1296.08 253.72,1296.08 257.077,1296.08 260.434,1296.08 263.792,1296.08 267.149,1296.08 270.507,1296.08 
  273.864,1296.07 277.221,1296.07 280.579,1296.07 283.936,1296.07 287.293,1296.07 290.651,1296.07 294.008,1296.07 297.366,1296.07 300.723,1296.07 304.08,1296.07 
  307.438,1296.07 310.795,1296.07 314.153,1296.07 317.51,1296.07 320.867,1296.07 324.225,1296.07 327.582,1296.07 330.939,1296.07 334.297,1296.07 337.654,1296.07 
  341.012,1296.07 344.369,1296.07 347.726,1296.07 351.084,1296.07 354.441,1296.07 357.799,1296.07 361.156,1296.07 364.513,1296.07 367.871,1296.07 371.228,1296.07 
  374.585,1296.07 377.943,1296.07 381.3,1296.07 384.658,1296.07 388.015,1296.07 391.372,1296.07 394.73,1296.07 398.087,1296.07 401.445,1296.07 404.802,1296.07 
  408.159,1296.07 411.517,1296.07 414.874,1296.07 418.231,1296.07 421.589,1296.06 424.946,1296.06 428.304,1296.06 431.661,1296.06 435.018,1296.06 438.376,1296.06 
  441.733,1296.06 445.091,1296.06 448.448,1296.06 451.805,1296.06 455.163,1296.06 458.52,1296.06 461.877,1296.06 465.235,1296.06 468.592,1296.06 471.95,1296.05 
  475.307,1296.05 478.664,1296.05 482.022,1296.05 485.379,1296.05 488.737,1296.05 492.094,1296.04 495.451,1296.04 498.809,1296.04 502.166,1296.03 505.523,1296.03 
  508.881,1296.02 512.238,1296.01 515.596,1296.01 518.953,1296 522.31,1295.98 525.668,1295.97 529.025,1295.95 532.383,1295.93 535.74,1295.91 539.097,1295.88 
  542.455,1295.85 545.812,1295.82 549.169,1295.78 552.527,1295.74 555.884,1295.69 559.242,1295.65 562.599,1295.6 565.956,1295.55 569.314,1295.5 572.671,1295.45 
  576.028,1295.4 579.386,1295.35 582.743,1295.3 586.101,1295.25 589.458,1295.2 592.815,1295.14 596.173,1295.08 599.53,1295.02 602.888,1294.95 606.245,1294.87 
  609.602,1294.79 612.96,1294.69 616.317,1294.59 619.674,1294.47 623.032,1294.34 626.389,1294.19 629.747,1294.03 633.104,1293.84 636.461,1293.64 639.819,1293.41 
  643.176,1293.15 646.534,1292.86 649.891,1292.54 653.248,1292.19 656.606,1291.8 659.963,1291.37 663.32,1290.9 666.678,1290.38 670.035,1289.82 673.393,1289.22 
  676.75,1288.57 680.107,1287.87 683.465,1287.12 686.822,1286.33 690.18,1285.49 693.537,1284.6 696.894,1283.67 700.252,1282.68 703.609,1281.65 706.966,1280.56 
  710.324,1279.42 713.681,1278.22 717.039,1276.95 720.396,1275.62 723.753,1274.22 727.111,1272.73 730.468,1271.17 733.826,1269.52 737.183,1267.79 740.54,1265.95 
  743.898,1264.02 747.255,1261.98 750.612,1259.84 753.97,1257.59 757.327,1255.23 760.685,1252.75 764.042,1250.16 767.399,1247.45 770.757,1244.62 774.114,1241.66 
  777.472,1238.58 780.829,1235.37 784.186,1232.03 787.544,1228.55 790.901,1224.93 794.258,1221.17 797.616,1217.26 800.973,1213.2 804.331,1208.99 807.688,1204.63 
  811.045,1200.12 814.403,1195.45 817.76,1190.63 821.117,1185.66 824.475,1180.55 827.832,1175.29 831.19,1169.89 834.547,1164.35 837.904,1158.69 841.262,1152.89 
  844.619,1146.98 847.977,1140.94 851.334,1134.8 854.691,1128.55 858.049,1122.19 861.406,1115.74 864.763,1109.2 868.121,1102.57 871.478,1095.87 874.836,1089.11 
  878.193,1082.29 881.55,1075.43 884.908,1068.53 888.265,1061.62 891.623,1054.69 894.98,1047.78 898.337,1040.87 901.695,1034 905.052,1027.17 908.409,1020.39 
  911.767,1013.67 915.124,1007.03 918.482,1000.47 921.839,994.006 925.196,987.651 928.554,981.417 931.911,975.316 935.269,969.364 938.626,963.573 941.983,957.956 
  945.341,952.526 948.698,947.296 952.055,942.276 955.413,937.476 958.77,932.905 962.128,928.572 965.485,924.483 968.842,920.646 972.2,917.068 975.557,913.758 
  978.915,910.722 982.272,907.969 985.629,905.506 988.987,903.34 992.344,901.476 995.701,899.92 999.059,898.673 1002.42,897.738 1005.77,897.115 1009.13,896.803 
  1012.49,896.801 1015.85,897.108 1019.2,897.722 1022.56,898.643 1025.92,899.871 1029.28,901.403 1032.63,903.238 1035.99,905.373 1039.35,907.803 1042.7,910.521 
  1046.06,913.52 1049.42,916.791 1052.78,920.326 1056.13,924.115 1059.49,928.152 1062.85,932.428 1066.21,936.936 1069.56,941.669 1072.92,946.618 1076.28,951.774 
  1079.64,957.125 1082.99,962.659 1086.35,968.362 1089.71,974.222 1093.07,980.227 1096.42,986.366 1099.78,992.63 1103.14,999.009 1106.5,1005.49 1109.85,1012.07 
  1113.21,1018.73 1116.57,1025.45 1119.92,1032.23 1123.28,1039.04 1126.64,1045.89 1130,1052.75 1133.35,1059.63 1136.71,1066.5 1140.07,1073.37 1143.43,1080.21 
  1146.78,1087.03 1150.14,1093.79 1153.5,1100.5 1156.86,1107.15 1160.21,1113.73 1163.57,1120.23 1166.93,1126.64 1170.29,1132.96 1173.64,1139.18 1177,1145.29 
  1180.36,1151.27 1183.71,1157.13 1187.07,1162.87 1190.43,1168.48 1193.79,1173.95 1197.14,1179.28 1200.5,1184.45 1203.86,1189.48 1207.22,1194.36 1210.57,1199.08 
  1213.93,1203.66 1217.29,1208.07 1220.65,1212.33 1224,1216.43 1227.36,1220.37 1230.72,1224.16 1234.08,1227.79 1237.43,1231.28 1240.79,1234.61 1244.15,1237.79 
  1247.51,1240.84 1250.86,1243.75 1254.22,1246.52 1257.58,1249.16 1260.93,1251.67 1264.29,1254.06 1267.65,1256.34 1271.01,1258.5 1274.36,1260.56 1277.72,1262.51 
  1281.08,1264.37 1284.44,1266.12 1287.79,1267.78 1291.15,1269.35 1294.51,1270.82 1297.87,1272.19 1301.22,1273.47 1304.58,1274.64 1307.94,1275.7 1311.3,1276.66 
  1314.65,1277.51 1318.01,1278.26 1321.37,1278.91 1324.73,1279.47 1328.08,1279.96 1331.44,1280.37 1334.8,1280.72 1338.15,1280.98 1341.51,1281.15 1344.87,1281.22 
  1348.23,1281.22 1351.58,1281.15 1354.94,1280.98 1358.3,1280.72 1361.66,1280.37 1365.01,1279.96 1368.37,1279.47 1371.73,1278.91 1375.09,1278.26 1378.44,1277.51 
  1381.8,1276.66 1385.16,1275.7 1388.52,1274.64 1391.87,1273.46 1395.23,1272.19 1398.59,1270.82 1401.94,1269.35 1405.3,1267.78 1408.66,1266.12 1412.02,1264.37 
  1415.37,1262.51 1418.73,1260.56 1422.09,1258.51 1425.45,1256.34 1428.8,1254.07 1432.16,1251.67 1435.52,1249.16 1438.88,1246.53 1442.23,1243.75 1445.59,1240.85 
  1448.95,1237.8 1452.31,1234.62 1455.66,1231.29 1459.02,1227.8 1462.38,1224.17 1465.74,1220.38 1469.09,1216.44 1472.45,1212.34 1475.81,1208.08 1479.16,1203.66 
  1482.52,1199.09 1485.88,1194.36 1489.24,1189.48 1492.59,1184.46 1495.95,1179.28 1499.31,1173.95 1502.67,1168.47 1506.02,1162.87 1509.38,1157.13 1512.74,1151.26 
  1516.1,1145.28 1519.45,1139.17 1522.81,1132.95 1526.17,1126.63 1529.53,1120.21 1532.88,1113.71 1536.24,1107.13 1539.6,1100.48 1542.95,1093.77 1546.31,1087 
  1549.67,1080.19 1553.03,1073.34 1556.38,1066.48 1559.74,1059.6 1563.1,1052.73 1566.46,1045.86 1569.81,1039.02 1573.17,1032.2 1576.53,1025.43 1579.89,1018.7 
  1583.24,1012.05 1586.6,1005.47 1589.96,998.989 1593.32,992.612 1596.67,986.35 1600.03,980.212 1603.39,974.209 1606.75,968.351 1610.1,962.649 1613.46,957.118 
  1616.82,951.769 1620.17,946.615 1623.53,941.668 1626.89,936.937 1630.25,932.431 1633.6,928.157 1636.96,924.123 1640.32,920.335 1643.68,916.802 1647.03,913.533 
  1650.39,910.536 1653.75,907.819 1657.11,905.391 1660.46,903.258 1663.82,901.424 1667.18,899.893 1670.54,898.666 1673.89,897.746 1677.25,897.132 1680.61,896.825 
  1683.97,896.827 1687.32,897.139 1690.68,897.762 1694.04,898.697 1697.39,899.943 1700.75,901.498 1704.11,903.361 1707.47,905.526 1710.82,907.988 1714.18,910.74 
  1717.54,913.773 1720.9,917.082 1724.25,920.657 1727.61,924.492 1730.97,928.579 1734.33,932.911 1737.68,937.48 1741.04,942.278 1744.4,947.296 1747.76,952.524 
  1751.11,957.952 1754.47,963.567 1757.83,969.356 1761.18,975.307 1764.54,981.405 1767.9,987.638 1771.26,993.992 1774.61,1000.45 1777.97,1007.01 1781.33,1013.65 
  1784.69,1020.37 1788.04,1027.15 1791.4,1033.98 1794.76,1040.85 1798.12,1047.75 1801.47,1054.67 1804.83,1061.6 1808.19,1068.51 1811.55,1075.41 1814.9,1082.27 
  1818.26,1089.09 1821.62,1095.86 1824.98,1102.56 1828.33,1109.18 1831.69,1115.73 1835.05,1122.18 1838.4,1128.54 1841.76,1134.79 1845.12,1140.94 1848.48,1146.97 
  1851.83,1152.89 1855.19,1158.68 1858.55,1164.35 1861.91,1169.89 1865.26,1175.29 1868.62,1180.56 1871.98,1185.67 1875.34,1190.64 1878.69,1195.46 1882.05,1200.13 
  1885.41,1204.65 1888.77,1209.01 1892.12,1213.22 1895.48,1217.27 1898.84,1221.18 1902.2,1224.95 1905.55,1228.57 1908.91,1232.05 1912.27,1235.39 1915.62,1238.6 
  1918.98,1241.68 1922.34,1244.64 1925.7,1247.47 1929.05,1250.18 1932.41,1252.77 1935.77,1255.24 1939.13,1257.6 1942.48,1259.85 1945.84,1261.99 1949.2,1264.03 
  1952.56,1265.96 1955.91,1267.79 1959.27,1269.53 1962.63,1271.17 1965.99,1272.73 1969.34,1274.21 1972.7,1275.61 1976.06,1276.94 1979.41,1278.21 1982.77,1279.41 
  1986.13,1280.55 1989.49,1281.64 1992.84,1282.67 1996.2,1283.66 1999.56,1284.59 2002.92,1285.48 2006.27,1286.32 2009.63,1287.11 2012.99,1287.86 2016.35,1288.56 
  2019.7,1289.21 2023.06,1289.81 2026.42,1290.37 2029.78,1290.89 2033.13,1291.36 2036.49,1291.79 2039.85,1292.19 2043.21,1292.54 2046.56,1292.86 2049.92,1293.15 
  2053.28,1293.41 2056.63,1293.64 2059.99,1293.85 2063.35,1294.03 2066.71,1294.2 2070.06,1294.34 2073.42,1294.48 2076.78,1294.59 2080.14,1294.7 2083.49,1294.79 
  2086.85,1294.88 2090.21,1294.96 2093.57,1295.03 2096.92,1295.09 2100.28,1295.15 2103.64,1295.2 2107,1295.26 2110.35,1295.31 2113.71,1295.36 2117.07,1295.41 
  2120.42,1295.45 2123.78,1295.5 2127.14,1295.55 2130.5,1295.6 2133.85,1295.65 2137.21,1295.69 2140.57,1295.74 2143.93,1295.78 2147.28,1295.82 2150.64,1295.85 
  2154,1295.88 2157.36,1295.91 2160.71,1295.93 2164.07,1295.95 2167.43,1295.97 2170.79,1295.98 2174.14,1295.99 2177.5,1296 2180.86,1296.01 2184.22,1296.02 
  2187.57,1296.03 2190.93,1296.03 2194.29,1296.04 2197.64,1296.04 2201,1296.04 2204.36,1296.05 2207.72,1296.05 2211.07,1296.05 2214.43,1296.05 2217.79,1296.05 
  2221.15,1296.05 2224.5,1296.06 2227.86,1296.06 2231.22,1296.06 2234.58,1296.06 2237.93,1296.06 2241.29,1296.06 2244.65,1296.06 2248.01,1296.06 2251.36,1296.06 
  2254.72,1296.06 2258.08,1296.06 2261.44,1296.06 2264.79,1296.06 2268.15,1296.06 2271.51,1296.06 2274.86,1296.07 2278.22,1296.07 2281.58,1296.07 2284.94,1296.07 
  2288.29,1296.07 2291.65,1296.07 2295.01,1296.07 2298.37,1296.07 2301.72,1296.07 2305.08,1296.07 2308.44,1296.07 2311.8,1296.07 2315.15,1296.07 2318.51,1296.07 
  2321.87,1296.07 2325.23,1296.07 2328.58,1296.07 2331.94,1296.07 2335.3,1296.07 2338.65,1296.07 2342.01,1296.07 2345.37,1296.07 2348.73,1296.07 2352.08,1296.07 
  2355.44,1296.07 2358.8,1296.07 2362.16,1296.07 2365.51,1296.07 2368.87,1296.07 2372.23,1296.07 2375.59,1296.07 2378.94,1296.07 2382.3,1296.07 2385.66,1296.07 
  2389.02,1296.07 2392.37,1296.07 2395.73,1296.07 2399.09,1296.07 2402.45,1296.07 2405.8,1296.07 2409.16,1296.07 2412.52,1296.07 2415.87,1296.07 2419.23,1296.07 
  2422.59,1296.08 2425.95,1296.08 2429.3,1296.08 2432.66,1296.08 2436.02,1296.08 2439.38,1296.08 2442.73,1296.08 2446.09,1296.08 2449.45,1296.08 2452.81,1296.08 
  2456.16,1296.08 2459.52,1296.08 2462.88,1296.08 2466.24,1296.08 2469.59,1296.08 2472.95,1296.08 2476.31,1296.08 2479.67,1296.08 2483.02,1296.08 2486.38,1296.08 
  2489.74,1296.08 2493.09,1296.08 2496.45,1296.08 2499.81,1296.08 2503.17,1296.08 2506.52,1296.08 2509.88,1296.08 2513.24,1296.08 2516.6,1296.08 2519.95,1296.08 
  2523.31,1296.08 2526.67,1296.08 2530.03,1296.08 2533.38,1296.08 2536.74,1296.08 2540.1,1296.08 2543.46,1296.08 2546.81,1296.08 2550.17,1296.08 2553.53,1296.08 
  2556.88,1296.08 2560.24,1296.08 2563.6,1296.08 2566.96,1296.08 2570.31,1296.08 2573.67,1296.08 2577.03,1296.08 2580.39,1296.08 2583.74,1296.08 2587.1,1296.08 
  2590.46,1296.08 2593.82,1296.08 2597.17,1296.08 2600.53,1296.08 2603.89,1296.08 2607.25,1296.08 2610.6,1296.08 2613.96,1296.08 2617.32,1296.08 2620.68,1296.08 
  2624.03,1296.08 2627.39,1296.08 2630.75,1296.08 2634.1,1296.08 2637.46,1296.08 2640.82,1296.08 2644.18,1296.08 2647.53,1296.08 2650.89,1296.08 2654.25,1296.08 
  2657.61,1296.08 2660.96,1296.08 2664.32,1296.08 2667.68,1296.08 2671.04,1296.08 2674.39,1296.08 2677.75,1296.08 2681.11,1296.08 2684.47,1296.08 2687.82,1296.08 
  2691.18,1296.08 2694.54,1296.08 2697.89,1296.08 2701.25,1296.08 2704.61,1296.08 2707.97,1296.08 2711.32,1296.08 2714.68,1296.08 2718.04,1296.08 2721.4,1296.08 
  2724.75,1296.08 2728.11,1296.08 2731.47,1296.08 2734.83,1296.08 2738.18,1296.08 2741.54,1296.08 2744.9,1296.08 2748.26,1296.08 2751.61,1296.08 2754.97,1296.08 
  2758.33,1296.08 2761.69,1296.08 2765.04,1296.08 2768.4,1296.08 2771.76,1296.08 2775.11,1296.08 2778.47,1296.08 2781.83,1296.08 2785.19,1296.08 2788.54,1296.08 
  2791.9,1296.08 2795.26,1296.08 2798.62,1296.08 2801.97,1296.08 2805.33,1296.08 2808.69,1296.08 2812.05,1296.08 2815.4,1296.08 2818.76,1296.08 2822.12,1296.08 
  2825.48,1296.08 2828.83,1296.08 2832.19,1296.08 2835.55,1296.08 2838.91,1296.08 2842.26,1296.08 2845.62,1296.08 2848.98,1296.08 2852.33,1296.08 2855.69,1296.08 
  2859.05,1296.08 2862.41,1296.08 2865.76,1296.08 2869.12,1296.08 2872.48,1296.08 2875.84,1296.08 2879.19,1296.08 2882.55,1296.08 2885.91,1296.08 2889.27,1296.08 
  2892.62,1296.08 2895.98,1296.08 2899.34,1296.08 2902.7,1296.08 2906.05,1296.08 2909.41,1296.08 2912.77,1296.08 2916.12,1296.08 2919.48,1296.08 2922.84,1296.09 
  2926.2,1296.09 2929.55,1296.09 2932.91,1296.09 2936.27,1296.09 2939.63,1296.09 2942.98,1296.09 2946.34,1296.09 2949.7,1296.09 2953.06,1296.09 2956.41,1296.09 
  2959.77,1296.09 2963.13,1296.09 2966.49,1296.09 2969.84,1296.09 2973.2,1296.09 2976.56,1296.09 2979.92,1296.09 2983.27,1296.09 2986.63,1296.09 2989.99,1296.09 
  2993.34,1296.09 2996.7,1296.09 3000.06,1296.09 3003.42,1296.09 3006.77,1296.09 3010.13,1296.09 3013.49,1296.09 3016.85,1296.09 3020.2,1296.09 3023.56,1296.09 
  
  "/>
<polyline clip-path="url(#clip303)" style="stroke:#000000; stroke-linecap:round; stroke-linejoin:round; stroke-width:6; stroke-opacity:1; fill:none" stroke-dasharray="24, 15" points="
  508.041,1296.04 509.72,1296.04 511.399,1296.04 513.078,1296.03 514.756,1296.03 516.435,1296.02 518.114,1296.02 519.792,1296.02 521.471,1296.01 523.15,1296.01 
  524.828,1296 526.507,1296 528.186,1295.99 529.864,1295.98 531.543,1295.98 533.222,1295.97 534.901,1295.97 536.579,1295.96 538.258,1295.95 539.937,1295.94 
  541.615,1295.93 543.294,1295.92 544.973,1295.91 546.651,1295.9 548.33,1295.89 550.009,1295.88 551.687,1295.87 553.366,1295.86 555.045,1295.85 556.724,1295.83 
  558.402,1295.82 560.081,1295.8 561.76,1295.79 563.438,1295.77 565.117,1295.75 566.796,1295.73 568.474,1295.71 570.153,1295.69 571.832,1295.67 573.51,1295.65 
  575.189,1295.63 576.868,1295.6 578.547,1295.57 580.225,1295.55 581.904,1295.52 583.583,1295.49 585.261,1295.46 586.94,1295.42 588.619,1295.39 590.297,1295.35 
  591.976,1295.32 593.655,1295.28 595.333,1295.23 597.012,1295.19 598.691,1295.15 600.37,1295.1 602.048,1295.05 603.727,1295 605.406,1294.94 607.084,1294.88 
  608.763,1294.83 610.442,1294.76 612.12,1294.7 613.799,1294.63 615.478,1294.56 617.156,1294.49 618.835,1294.41 620.514,1294.33 622.193,1294.24 623.871,1294.16 
  625.55,1294.06 627.229,1293.97 628.907,1293.87 630.586,1293.77 632.265,1293.66 633.943,1293.55 635.622,1293.43 637.301,1293.31 638.979,1293.18 640.658,1293.05 
  642.337,1292.91 644.016,1292.77 645.694,1292.62 647.373,1292.47 649.052,1292.31 650.73,1292.14 652.409,1291.97 654.088,1291.79 655.766,1291.6 657.445,1291.41 
  659.124,1291.2 660.802,1290.99 662.481,1290.78 664.16,1290.55 665.839,1290.32 667.517,1290.08 669.196,1289.82 670.875,1289.56 672.553,1289.29 674.232,1289.01 
  675.911,1288.72 677.589,1288.42 679.268,1288.11 680.947,1287.79 682.625,1287.46 684.304,1287.12 685.983,1286.76 687.661,1286.39 689.34,1286.01 691.019,1285.62 
  692.698,1285.21 694.376,1284.79 696.055,1284.35 697.734,1283.91 699.412,1283.44 701.091,1282.96 702.77,1282.47 704.448,1281.96 706.127,1281.44 707.806,1280.89 
  709.484,1280.34 711.163,1279.76 712.842,1279.17 714.521,1278.55 716.199,1277.92 717.878,1277.27 719.557,1276.61 721.235,1275.92 722.914,1275.21 724.593,1274.48 
  726.271,1273.73 727.95,1272.96 729.629,1272.17 731.307,1271.35 732.986,1270.51 734.665,1269.65 736.344,1268.77 738.022,1267.86 739.701,1266.93 741.38,1265.97 
  743.058,1264.99 744.737,1263.98 746.416,1262.94 748.094,1261.88 749.773,1260.79 751.452,1259.68 753.13,1258.54 754.809,1257.37 756.488,1256.17 758.167,1254.94 
  759.845,1253.68 761.524,1252.39 763.203,1251.08 764.881,1249.73 766.56,1248.35 768.239,1246.94 769.917,1245.5 771.596,1244.03 773.275,1242.52 774.953,1240.98 
  776.632,1239.41 778.311,1237.81 779.99,1236.17 781.668,1234.5 783.347,1232.8 785.026,1231.06 786.704,1229.29 788.383,1227.48 790.062,1225.64 791.74,1223.76 
  793.419,1221.85 795.098,1219.9 796.776,1217.92 798.455,1215.9 800.134,1213.85 801.813,1211.76 803.491,1209.63 805.17,1207.47 806.849,1205.28 808.527,1203.04 
  810.206,1200.77 811.885,1198.47 813.563,1196.13 815.242,1193.75 816.921,1191.34 818.599,1188.9 820.278,1186.41 821.957,1183.9 823.636,1181.35 825.314,1178.76 
  826.993,1176.14 828.672,1173.49 830.35,1170.8 832.029,1168.08 833.708,1165.33 835.386,1162.54 837.065,1159.72 838.744,1156.87 840.422,1153.99 842.101,1151.08 
  843.78,1148.14 845.459,1145.17 847.137,1142.17 848.816,1139.14 850.495,1136.09 852.173,1133 853.852,1129.9 855.531,1126.76 857.209,1123.6 858.888,1120.42 
  860.567,1117.22 862.245,1113.99 863.924,1110.75 865.603,1107.48 867.282,1104.19 868.96,1100.89 870.639,1097.57 872.318,1094.23 873.996,1090.87 875.675,1087.51 
  877.354,1084.13 879.032,1080.74 880.711,1077.34 882.39,1073.93 884.068,1070.51 885.747,1067.08 887.426,1063.65 889.105,1060.22 890.783,1056.78 892.462,1053.34 
  894.141,1049.9 895.819,1046.46 897.498,1043.03 899.177,1039.6 900.855,1036.17 902.534,1032.75 904.213,1029.34 905.891,1025.94 907.57,1022.55 909.249,1019.18 
  910.928,1015.82 912.606,1012.47 914.285,1009.14 915.964,1005.84 917.642,1002.55 919.321,999.284 921,996.043 922.678,992.827 924.357,989.638 926.036,986.477 
  927.714,983.347 929.393,980.248 931.072,977.182 932.75,974.151 934.429,971.157 936.108,968.2 937.787,965.283 939.465,962.406 941.144,959.573 942.823,956.783 
  944.501,954.038 946.18,951.34 947.859,948.691 949.537,946.092 951.216,943.543 952.895,941.048 954.573,938.606 956.252,936.22 957.931,933.89 959.61,931.618 
  961.288,929.406 962.967,927.253 964.646,925.163 966.324,923.136 968.003,921.172 969.682,919.274 971.36,917.442 973.039,915.678 974.718,913.982 976.396,912.355 
  978.075,910.798 979.754,909.313 981.433,907.9 983.111,906.559 984.79,905.293 986.469,904.1 988.147,902.983 989.826,901.942 991.505,900.977 993.183,900.089 
  994.862,899.279 996.541,898.547 998.219,897.893 999.898,897.318 1001.58,896.822 1003.26,896.406 1004.93,896.069 1006.61,895.813 1008.29,895.636 1009.97,895.54 
  1011.65,895.524 1013.33,895.588 1015.01,895.733 1016.69,895.957 1018.36,896.262 1020.04,896.646 1021.72,897.11 1023.4,897.653 1025.08,898.276 1026.76,898.977 
  1028.44,899.756 1030.11,900.613 1031.79,901.547 1033.47,902.558 1035.15,903.644 1036.83,904.807 1038.51,906.044 1040.19,907.355 1041.87,908.739 1043.54,910.195 
  1045.22,911.723 1046.9,913.322 1048.58,914.991 1050.26,916.728 1051.94,918.533 1053.62,920.405 1055.3,922.342 1056.97,924.344 1058.65,926.41 1060.33,928.537 
  1062.01,930.725 1063.69,932.974 1065.37,935.28 1067.05,937.644 1068.72,940.064 1070.4,942.538 1072.08,945.065 1073.76,947.645 1075.44,950.274 1077.12,952.952 
  1078.8,955.678 1080.48,958.45 1082.15,961.267 1083.83,964.126 1085.51,967.027 1087.19,969.968 1088.87,972.948 1090.55,975.964 1092.23,979.016 1093.9,982.101 
  1095.58,985.219 1097.26,988.368 1098.94,991.545 1100.62,994.751 1102.3,997.982 1103.98,1001.24 1105.66,1004.52 1107.33,1007.82 1109.01,1011.14 1110.69,1014.47 
  1112.37,1017.83 1114.05,1021.2 1115.73,1024.58 1117.41,1027.98 1119.09,1031.38 1120.76,1034.8 1122.44,1038.22 1124.12,1041.65 1125.8,1045.08 1127.48,1048.52 
  1129.16,1051.96 1130.84,1055.39 1132.51,1058.83 1134.19,1062.27 1135.87,1065.7 1137.55,1069.13 1139.23,1072.55 1140.91,1075.96 1142.59,1079.37 1144.27,1082.76 
  1145.94,1086.14 1147.62,1089.51 1149.3,1092.87 1150.98,1096.21 1152.66,1099.54 1154.34,1102.85 1156.02,1106.14 1157.7,1109.42 1159.37,1112.67 1161.05,1115.91 
  1162.73,1119.12 1164.41,1122.31 1166.09,1125.47 1167.77,1128.61 1169.45,1131.73 1171.12,1134.82 1172.8,1137.88 1174.48,1140.92 1176.16,1143.93 1177.84,1146.91 
  1179.52,1149.86 1181.2,1152.78 1182.88,1155.67 1184.55,1158.52 1186.23,1161.35 1187.91,1164.15 1189.59,1166.91 1191.27,1169.64 1192.95,1172.34 1194.63,1175 
  1196.31,1177.63 1197.98,1180.22 1199.66,1182.78 1201.34,1185.3 1203.02,1187.79 1204.7,1190.25 1206.38,1192.66 1208.06,1195.05 1209.73,1197.39 1211.41,1199.7 
  1213.09,1201.98 1214.77,1204.22 1216.45,1206.42 1218.13,1208.58 1219.81,1210.71 1221.49,1212.8 1223.16,1214.86 1224.84,1216.88 1226.52,1218.86 1228.2,1220.81 
  1229.88,1222.72 1231.56,1224.6 1233.24,1226.44 1234.92,1228.24 1236.59,1230.01 1238.27,1231.74 1239.95,1233.44 1241.63,1235.1 1243.31,1236.73 1244.99,1238.33 
  1246.67,1239.88 1248.34,1241.41 1250.02,1242.9 1251.7,1244.36 1253.38,1245.78 1255.06,1247.18 1256.74,1248.53 1258.42,1249.86 1260.1,1251.15 1261.77,1252.42 
  1263.45,1253.65 1265.13,1254.85 1266.81,1256.02 1268.49,1257.15 1270.17,1258.26 1271.85,1259.34 1273.52,1260.39 1275.2,1261.41 1276.88,1262.39 1278.56,1263.36 
  1280.24,1264.29 1281.92,1265.19 1283.6,1266.07 1285.28,1266.92 1286.95,1267.74 1288.63,1268.54 1290.31,1269.3 1291.99,1270.05 1293.67,1270.76 1295.35,1271.45 
  1297.03,1272.12 1298.71,1272.76 1300.38,1273.37 1302.06,1273.97 1303.74,1274.53 1305.42,1275.08 1307.1,1275.59 1308.78,1276.09 1310.46,1276.56 1312.13,1277.01 
  1313.81,1277.44 1315.49,1277.84 1317.17,1278.22 1318.85,1278.58 1320.53,1278.92 1322.21,1279.23 1323.89,1279.53 1325.56,1279.8 1327.24,1280.05 1328.92,1280.28 
  1330.6,1280.48 1332.28,1280.67 1333.96,1280.84 1335.64,1280.98 1337.32,1281.11 1338.99,1281.21 1340.67,1281.29 1342.35,1281.35 1344.03,1281.39 1345.71,1281.42 
  1347.39,1281.42 1349.07,1281.39 1350.74,1281.35 1352.42,1281.29 1354.1,1281.21 1355.78,1281.11 1357.46,1280.98 1359.14,1280.84 1360.82,1280.67 1362.5,1280.48 
  1364.17,1280.28 1365.85,1280.05 1367.53,1279.8 1369.21,1279.53 1370.89,1279.23 1372.57,1278.92 1374.25,1278.58 1375.93,1278.22 1377.6,1277.84 1379.28,1277.44 
  1380.96,1277.01 1382.64,1276.56 1384.32,1276.09 1386,1275.59 1387.68,1275.08 1389.35,1274.53 1391.03,1273.97 1392.71,1273.37 1394.39,1272.76 1396.07,1272.12 
  1397.75,1271.45 1399.43,1270.76 1401.11,1270.05 1402.78,1269.3 1404.46,1268.54 1406.14,1267.74 1407.82,1266.92 1409.5,1266.07 1411.18,1265.19 1412.86,1264.29 
  1414.54,1263.36 1416.21,1262.39 1417.89,1261.41 1419.57,1260.39 1421.25,1259.34 1422.93,1258.26 1424.61,1257.15 1426.29,1256.02 1427.96,1254.85 1429.64,1253.65 
  1431.32,1252.42 1433,1251.15 1434.68,1249.86 1436.36,1248.53 1438.04,1247.18 1439.72,1245.78 1441.39,1244.36 1443.07,1242.9 1444.75,1241.41 1446.43,1239.88 
  1448.11,1238.33 1449.79,1236.73 1451.47,1235.1 1453.14,1233.44 1454.82,1231.74 1456.5,1230.01 1458.18,1228.24 1459.86,1226.44 1461.54,1224.6 1463.22,1222.72 
  1464.9,1220.81 1466.57,1218.86 1468.25,1216.88 1469.93,1214.86 1471.61,1212.8 1473.29,1210.71 1474.97,1208.58 1476.65,1206.42 1478.33,1204.22 1480,1201.98 
  1481.68,1199.7 1483.36,1197.39 1485.04,1195.05 1486.72,1192.66 1488.4,1190.25 1490.08,1187.79 1491.75,1185.3 1493.43,1182.78 1495.11,1180.22 1496.79,1177.63 
  1498.47,1175 1500.15,1172.34 1501.83,1169.64 1503.51,1166.91 1505.18,1164.15 1506.86,1161.35 1508.54,1158.52 1510.22,1155.67 1511.9,1152.78 1513.58,1149.86 
  1515.26,1146.91 1516.94,1143.93 1518.61,1140.92 1520.29,1137.88 1521.97,1134.82 1523.65,1131.73 1525.33,1128.61 1527.01,1125.47 1528.69,1122.31 1530.36,1119.12 
  1532.04,1115.91 1533.72,1112.67 1535.4,1109.42 1537.08,1106.14 1538.76,1102.85 1540.44,1099.54 1542.12,1096.21 1543.79,1092.87 1545.47,1089.51 1547.15,1086.14 
  1548.83,1082.76 1550.51,1079.37 1552.19,1075.96 1553.87,1072.55 1555.55,1069.13 1557.22,1065.7 1558.9,1062.27 1560.58,1058.83 1562.26,1055.39 1563.94,1051.96 
  1565.62,1048.52 1567.3,1045.08 1568.97,1041.65 1570.65,1038.22 1572.33,1034.8 1574.01,1031.38 1575.69,1027.98 1577.37,1024.58 1579.05,1021.2 1580.73,1017.83 
  1582.4,1014.47 1584.08,1011.14 1585.76,1007.82 1587.44,1004.52 1589.12,1001.24 1590.8,997.982 1592.48,994.751 1594.16,991.545 1595.83,988.368 1597.51,985.219 
  1599.19,982.101 1600.87,979.016 1602.55,975.964 1604.23,972.948 1605.91,969.968 1607.58,967.027 1609.26,964.126 1610.94,961.267 1612.62,958.45 1614.3,955.678 
  1615.98,952.952 1617.66,950.274 1619.34,947.645 1621.01,945.065 1622.69,942.538 1624.37,940.064 1626.05,937.644 1627.73,935.28 1629.41,932.974 1631.09,930.725 
  1632.76,928.537 1634.44,926.41 1636.12,924.344 1637.8,922.342 1639.48,920.405 1641.16,918.533 1642.84,916.728 1644.52,914.991 1646.19,913.322 1647.87,911.723 
  1649.55,910.195 1651.23,908.739 1652.91,907.355 1654.59,906.044 1656.27,904.807 1657.95,903.644 1659.62,902.558 1661.3,901.547 1662.98,900.613 1664.66,899.756 
  1666.34,898.977 1668.02,898.276 1669.7,897.653 1671.37,897.11 1673.05,896.646 1674.73,896.262 1676.41,895.957 1678.09,895.733 1679.77,895.588 1681.45,895.524 
  1683.13,895.54 1684.8,895.636 1686.48,895.813 1688.16,896.069 1689.84,896.406 1691.52,896.822 1693.2,897.318 1694.88,897.893 1696.56,898.547 1698.23,899.279 
  1699.91,900.089 1701.59,900.977 1703.27,901.942 1704.95,902.983 1706.63,904.1 1708.31,905.293 1709.98,906.559 1711.66,907.9 1713.34,909.313 1715.02,910.798 
  1716.7,912.355 1718.38,913.982 1720.06,915.678 1721.74,917.442 1723.41,919.274 1725.09,921.172 1726.77,923.136 1728.45,925.163 1730.13,927.253 1731.81,929.406 
  1733.49,931.618 1735.17,933.89 1736.84,936.22 1738.52,938.606 1740.2,941.048 1741.88,943.543 1743.56,946.092 1745.24,948.691 1746.92,951.34 1748.59,954.038 
  1750.27,956.783 1751.95,959.573 1753.63,962.406 1755.31,965.283 1756.99,968.2 1758.67,971.157 1760.35,974.151 1762.02,977.182 1763.7,980.248 1765.38,983.347 
  1767.06,986.477 1768.74,989.638 1770.42,992.827 1772.1,996.043 1773.78,999.284 1775.45,1002.55 1777.13,1005.84 1778.81,1009.14 1780.49,1012.47 1782.17,1015.82 
  1783.85,1019.18 1785.53,1022.55 1787.2,1025.94 1788.88,1029.34 1790.56,1032.75 1792.24,1036.17 1793.92,1039.6 1795.6,1043.03 1797.28,1046.46 1798.96,1049.9 
  1800.63,1053.34 1802.31,1056.78 1803.99,1060.22 1805.67,1063.65 1807.35,1067.08 1809.03,1070.51 1810.71,1073.93 1812.39,1077.34 1814.06,1080.74 1815.74,1084.13 
  1817.42,1087.51 1819.1,1090.87 1820.78,1094.23 1822.46,1097.57 1824.14,1100.89 1825.81,1104.19 1827.49,1107.48 1829.17,1110.75 1830.85,1113.99 1832.53,1117.22 
  1834.21,1120.42 1835.89,1123.6 1837.57,1126.76 1839.24,1129.9 1840.92,1133 1842.6,1136.09 1844.28,1139.14 1845.96,1142.17 1847.64,1145.17 1849.32,1148.14 
  1850.99,1151.08 1852.67,1153.99 1854.35,1156.87 1856.03,1159.72 1857.71,1162.54 1859.39,1165.33 1861.07,1168.08 1862.75,1170.8 1864.42,1173.49 1866.1,1176.14 
  1867.78,1178.76 1869.46,1181.35 1871.14,1183.9 1872.82,1186.41 1874.5,1188.9 1876.18,1191.34 1877.85,1193.75 1879.53,1196.13 1881.21,1198.47 1882.89,1200.77 
  1884.57,1203.04 1886.25,1205.28 1887.93,1207.47 1889.6,1209.63 1891.28,1211.76 1892.96,1213.85 1894.64,1215.9 1896.32,1217.92 1898,1219.9 1899.68,1221.85 
  1901.36,1223.76 1903.03,1225.64 1904.71,1227.48 1906.39,1229.29 1908.07,1231.06 1909.75,1232.8 1911.43,1234.5 1913.11,1236.17 1914.79,1237.81 1916.46,1239.41 
  1918.14,1240.98 1919.82,1242.52 1921.5,1244.03 1923.18,1245.5 1924.86,1246.94 1926.54,1248.35 1928.21,1249.73 1929.89,1251.08 1931.57,1252.39 1933.25,1253.68 
  1934.93,1254.94 1936.61,1256.17 1938.29,1257.37 1939.97,1258.54 1941.64,1259.68 1943.32,1260.79 1945,1261.88 1946.68,1262.94 1948.36,1263.98 1950.04,1264.99 
  1951.72,1265.97 1953.4,1266.93 1955.07,1267.86 1956.75,1268.77 1958.43,1269.65 1960.11,1270.51 1961.79,1271.35 1963.47,1272.17 1965.15,1272.96 1966.82,1273.73 
  1968.5,1274.48 1970.18,1275.21 1971.86,1275.92 1973.54,1276.61 1975.22,1277.27 1976.9,1277.92 1978.58,1278.55 1980.25,1279.17 1981.93,1279.76 1983.61,1280.34 
  1985.29,1280.89 1986.97,1281.44 1988.65,1281.96 1990.33,1282.47 1992.01,1282.96 1993.68,1283.44 1995.36,1283.91 1997.04,1284.35 1998.72,1284.79 2000.4,1285.21 
  2002.08,1285.62 2003.76,1286.01 2005.43,1286.39 2007.11,1286.76 2008.79,1287.12 2010.47,1287.46 2012.15,1287.79 2013.83,1288.11 2015.51,1288.42 2017.19,1288.72 
  2018.86,1289.01 2020.54,1289.29 2022.22,1289.56 2023.9,1289.82 2025.58,1290.08 2027.26,1290.32 2028.94,1290.55 2030.61,1290.78 2032.29,1290.99 2033.97,1291.2 
  2035.65,1291.41 2037.33,1291.6 2039.01,1291.79 2040.69,1291.97 2042.37,1292.14 2044.04,1292.31 2045.72,1292.47 2047.4,1292.62 2049.08,1292.77 2050.76,1292.91 
  2052.44,1293.05 2054.12,1293.18 2055.8,1293.31 2057.47,1293.43 2059.15,1293.55 2060.83,1293.66 2062.51,1293.77 2064.19,1293.87 2065.87,1293.97 2067.55,1294.06 
  2069.22,1294.16 2070.9,1294.24 2072.58,1294.33 2074.26,1294.41 2075.94,1294.49 2077.62,1294.56 2079.3,1294.63 2080.98,1294.7 2082.65,1294.76 2084.33,1294.83 
  2086.01,1294.88 2087.69,1294.94 2089.37,1295 2091.05,1295.05 2092.73,1295.1 2094.41,1295.15 2096.08,1295.19 2097.76,1295.23 2099.44,1295.28 2101.12,1295.32 
  2102.8,1295.35 2104.48,1295.39 2106.16,1295.42 2107.83,1295.46 2109.51,1295.49 2111.19,1295.52 2112.87,1295.55 2114.55,1295.57 2116.23,1295.6 2117.91,1295.63 
  2119.59,1295.65 2121.26,1295.67 2122.94,1295.69 2124.62,1295.71 2126.3,1295.73 2127.98,1295.75 2129.66,1295.77 2131.34,1295.79 2133.02,1295.8 2134.69,1295.82 
  2136.37,1295.83 2138.05,1295.85 2139.73,1295.86 2141.41,1295.87 2143.09,1295.88 2144.77,1295.89 2146.44,1295.9 2148.12,1295.91 2149.8,1295.92 2151.48,1295.93 
  2153.16,1295.94 2154.84,1295.95 2156.52,1295.96 2158.2,1295.97 2159.87,1295.97 2161.55,1295.98 2163.23,1295.98 2164.91,1295.99 2166.59,1296 2168.27,1296 
  2169.95,1296.01 2171.63,1296.01 2173.3,1296.02 2174.98,1296.02 2176.66,1296.02 2178.34,1296.03 2180.02,1296.03 2181.7,1296.04 2183.38,1296.04 2185.05,1296.04 
  
  "/>
<path clip-path="url(#clip300)" d="
M1636.11 608.485 L2285.68 608.485 L2285.68 90.0846 L1636.11 90.0846  Z
  " fill="#ffffff" fill-rule="evenodd" fill-opacity="1"/>
<polyline clip-path="url(#clip300)" style="stroke:#000000; stroke-linecap:round; stroke-linejoin:round; stroke-width:4; stroke-opacity:1; fill:none" points="
  1636.11,608.485 2285.68,608.485 2285.68,90.0846 1636.11,90.0846 1636.11,608.485 
  "/>
<polyline clip-path="url(#clip300)" style="stroke:#009af9; stroke-linecap:round; stroke-linejoin:round; stroke-width:30; stroke-opacity:1; fill:none" points="
  1658.47,219.685 1792.64,219.685 
  "/>
<path clip-path="url(#clip300)" d="M1869.28 223.764 L1869.28 262.885 L1858.63 262.885 L1858.63 224.112 Q1858.63 214.91 1855.04 210.339 Q1851.45 205.767 1844.28 205.767 Q1835.66 205.767 1830.68 211.265 Q1825.7 216.762 1825.7 226.253 L1825.7 262.885 L1815 262.885 L1815 198.07 L1825.7 198.07 L1825.7 208.14 Q1829.52 202.295 1834.67 199.401 Q1839.88 196.508 1846.65 196.508 Q1857.82 196.508 1863.55 203.452 Q1869.28 210.339 1869.28 223.764 Z" fill="#000000" fill-rule="evenodd" fill-opacity="1" /><path clip-path="url(#clip300)" d="M1915.63 205.535 Q1907.07 205.535 1902.09 212.248 Q1897.11 218.903 1897.11 230.535 Q1897.11 242.167 1902.03 248.88 Q1907.01 255.535 1915.63 255.535 Q1924.14 255.535 1929.12 248.822 Q1934.09 242.109 1934.09 230.535 Q1934.09 219.019 1929.12 212.306 Q1924.14 205.535 1915.63 205.535 M1915.63 196.508 Q1929.52 196.508 1937.45 205.535 Q1945.38 214.563 1945.38 230.535 Q1945.38 246.45 1937.45 255.535 Q1929.52 264.563 1915.63 264.563 Q1901.69 264.563 1893.76 255.535 Q1885.89 246.45 1885.89 230.535 Q1885.89 214.563 1893.76 205.535 Q1901.69 196.508 1915.63 196.508 Z" fill="#000000" fill-rule="evenodd" fill-opacity="1" /><path clip-path="url(#clip300)" d="M2016.9 223.764 L2016.9 262.885 L2006.26 262.885 L2006.26 224.112 Q2006.26 214.91 2002.67 210.339 Q1999.08 205.767 1991.9 205.767 Q1983.28 205.767 1978.31 211.265 Q1973.33 216.762 1973.33 226.253 L1973.33 262.885 L1962.62 262.885 L1962.62 198.07 L1973.33 198.07 L1973.33 208.14 Q1977.15 202.295 1982.3 199.401 Q1987.51 196.508 1994.28 196.508 Q2005.45 196.508 2011.18 203.452 Q2016.9 210.339 2016.9 223.764 Z" fill="#000000" fill-rule="evenodd" fill-opacity="1" /><path clip-path="url(#clip300)" d="M2032.76 225.674 L2063.95 225.674 L2063.95 235.165 L2032.76 235.165 L2032.76 225.674 Z" fill="#000000" fill-rule="evenodd" fill-opacity="1" /><path clip-path="url(#clip300)" d="M2108.22 205.535 Q2099.66 205.535 2094.68 212.248 Q2089.71 218.903 2089.71 230.535 Q2089.71 242.167 2094.62 248.88 Q2099.6 255.535 2108.22 255.535 Q2116.73 255.535 2121.71 248.822 Q2126.68 242.109 2126.68 230.535 Q2126.68 219.019 2121.71 212.306 Q2116.73 205.535 2108.22 205.535 M2108.22 196.508 Q2122.11 196.508 2130.04 205.535 Q2137.97 214.563 2137.97 230.535 Q2137.97 246.45 2130.04 255.535 Q2122.11 264.563 2108.22 264.563 Q2094.28 264.563 2086.35 255.535 Q2078.48 246.45 2078.48 230.535 Q2078.48 214.563 2086.35 205.535 Q2094.28 196.508 2108.22 196.508 Z" fill="#000000" fill-rule="evenodd" fill-opacity="1" /><path clip-path="url(#clip300)" d="M2165.92 253.162 L2165.92 287.537 L2155.21 287.537 L2155.21 198.07 L2165.92 198.07 L2165.92 207.908 Q2169.28 202.121 2174.37 199.343 Q2179.52 196.508 2186.64 196.508 Q2198.44 196.508 2205.79 205.883 Q2213.2 215.258 2213.2 230.535 Q2213.2 245.813 2205.79 255.188 Q2198.44 264.563 2186.64 264.563 Q2179.52 264.563 2174.37 261.785 Q2169.28 258.949 2165.92 253.162 M2202.15 230.535 Q2202.15 218.788 2197.29 212.133 Q2192.48 205.42 2184.03 205.42 Q2175.58 205.42 2170.72 212.133 Q2165.92 218.788 2165.92 230.535 Q2165.92 242.283 2170.72 248.996 Q2175.58 255.651 2184.03 255.651 Q2192.48 255.651 2197.29 248.996 Q2202.15 242.283 2202.15 230.535 Z" fill="#000000" fill-rule="evenodd" fill-opacity="1" /><path clip-path="url(#clip300)" d="M2241.38 179.667 L2241.38 198.07 L2263.32 198.07 L2263.32 206.346 L2241.38 206.346 L2241.38 241.531 Q2241.38 249.459 2243.52 251.716 Q2245.72 253.973 2252.38 253.973 L2263.32 253.973 L2263.32 262.885 L2252.38 262.885 Q2240.05 262.885 2235.36 258.313 Q2230.68 253.683 2230.68 241.531 L2230.68 206.346 L2222.86 206.346 L2222.86 198.07 L2230.68 198.07 L2230.68 179.667 L2241.38 179.667 Z" fill="#000000" fill-rule="evenodd" fill-opacity="1" /><polyline clip-path="url(#clip300)" style="stroke:#e26f46; stroke-linecap:round; stroke-linejoin:round; stroke-width:30; stroke-opacity:1; fill:none" points="
  1658.47,349.285 1792.64,349.285 
  "/>
<path clip-path="url(#clip300)" d="M1844.74 335.135 Q1836.18 335.135 1831.2 341.848 Q1826.22 348.503 1826.22 360.135 Q1826.22 371.767 1831.14 378.48 Q1836.12 385.135 1844.74 385.135 Q1853.25 385.135 1858.22 378.422 Q1863.2 371.709 1863.2 360.135 Q1863.2 348.619 1858.22 341.906 Q1853.25 335.135 1844.74 335.135 M1844.74 326.108 Q1858.63 326.108 1866.56 335.135 Q1874.49 344.163 1874.49 360.135 Q1874.49 376.05 1866.56 385.135 Q1858.63 394.163 1844.74 394.163 Q1830.79 394.163 1822.87 385.135 Q1815 376.05 1815 360.135 Q1815 344.163 1822.87 335.135 Q1830.79 326.108 1844.74 326.108 Z" fill="#000000" fill-rule="evenodd" fill-opacity="1" /><path clip-path="url(#clip300)" d="M1902.44 382.762 L1902.44 417.137 L1891.73 417.137 L1891.73 327.67 L1902.44 327.67 L1902.44 337.508 Q1905.79 331.721 1910.89 328.943 Q1916.04 326.108 1923.15 326.108 Q1934.96 326.108 1942.31 335.483 Q1949.72 344.858 1949.72 360.135 Q1949.72 375.413 1942.31 384.788 Q1934.96 394.163 1923.15 394.163 Q1916.04 394.163 1910.89 391.385 Q1905.79 388.549 1902.44 382.762 M1938.66 360.135 Q1938.66 348.388 1933.8 341.733 Q1929 335.02 1920.55 335.02 Q1912.1 335.02 1907.24 341.733 Q1902.44 348.388 1902.44 360.135 Q1902.44 371.883 1907.24 378.596 Q1912.1 385.251 1920.55 385.251 Q1929 385.251 1933.8 378.596 Q1938.66 371.883 1938.66 360.135 Z" fill="#000000" fill-rule="evenodd" fill-opacity="1" /><path clip-path="url(#clip300)" d="M1977.9 309.267 L1977.9 327.67 L1999.83 327.67 L1999.83 335.946 L1977.9 335.946 L1977.9 371.131 Q1977.9 379.059 1980.04 381.316 Q1982.24 383.573 1988.9 383.573 L1999.83 383.573 L1999.83 392.485 L1988.9 392.485 Q1976.57 392.485 1971.88 387.913 Q1967.19 383.283 1967.19 371.131 L1967.19 335.946 L1959.38 335.946 L1959.38 327.67 L1967.19 327.67 L1967.19 309.267 L1977.9 309.267 Z" fill="#000000" fill-rule="evenodd" fill-opacity="1" /><polyline clip-path="url(#clip300)" style="stroke:#000000; stroke-linecap:round; stroke-linejoin:round; stroke-width:15; stroke-opacity:1; fill:none" stroke-dasharray="60, 38" points="
  1658.47,478.885 1792.64,478.885 
  "/>
<path clip-path="url(#clip300)" d="M1875.06 487.015 L1875.06 492.224 L1826.11 492.224 Q1826.8 503.219 1832.7 509.006 Q1838.66 514.735 1849.25 514.735 Q1855.39 514.735 1861.12 513.231 Q1866.91 511.726 1872.58 508.717 L1872.58 518.786 Q1866.85 521.217 1860.83 522.49 Q1854.81 523.763 1848.62 523.763 Q1833.11 523.763 1824.02 514.735 Q1815 505.707 1815 490.314 Q1815 474.4 1823.56 465.083 Q1832.18 455.708 1846.77 455.708 Q1859.85 455.708 1867.43 464.157 Q1875.06 472.548 1875.06 487.015 M1864.42 483.89 Q1864.3 475.152 1859.5 469.944 Q1854.75 464.735 1846.88 464.735 Q1837.97 464.735 1832.59 469.77 Q1827.26 474.805 1826.45 483.948 L1864.42 483.89 Z" fill="#000000" fill-rule="evenodd" fill-opacity="1" /><path clip-path="url(#clip300)" d="M1944.34 457.27 L1920.9 488.809 L1945.55 522.085 L1932.99 522.085 L1914.13 496.622 L1895.26 522.085 L1882.7 522.085 L1907.88 488.173 L1884.85 457.27 L1897.4 457.27 L1914.59 480.36 L1931.78 457.27 L1944.34 457.27 Z" fill="#000000" fill-rule="evenodd" fill-opacity="1" /><path clip-path="url(#clip300)" d="M1990.05 489.504 Q1977.15 489.504 1972.17 492.455 Q1967.19 495.407 1967.19 502.525 Q1967.19 508.196 1970.9 511.552 Q1974.66 514.851 1981.08 514.851 Q1989.94 514.851 1995.26 508.601 Q2000.64 502.293 2000.64 491.876 L2000.64 489.504 L1990.05 489.504 M2011.29 485.106 L2011.29 522.085 L2000.64 522.085 L2000.64 512.247 Q1997 518.149 1991.56 520.985 Q1986.12 523.763 1978.25 523.763 Q1968.29 523.763 1962.39 518.207 Q1956.55 512.594 1956.55 503.219 Q1956.55 492.282 1963.84 486.726 Q1971.19 481.17 1985.71 481.17 L2000.64 481.17 L2000.64 480.129 Q2000.64 472.779 1995.78 468.786 Q1990.98 464.735 1982.24 464.735 Q1976.68 464.735 1971.42 466.066 Q1966.15 467.397 1961.29 470.059 L1961.29 460.222 Q1967.14 457.965 1972.63 456.865 Q1978.13 455.708 1983.34 455.708 Q1997.4 455.708 2004.35 462.999 Q2011.29 470.291 2011.29 485.106 Z" fill="#000000" fill-rule="evenodd" fill-opacity="1" /><path clip-path="url(#clip300)" d="M2079.87 459.759 L2079.87 469.712 Q2075.35 467.224 2070.78 466.009 Q2066.27 464.735 2061.64 464.735 Q2051.28 464.735 2045.55 471.333 Q2039.82 477.872 2039.82 489.735 Q2039.82 501.599 2045.55 508.196 Q2051.28 514.735 2061.64 514.735 Q2066.27 514.735 2070.78 513.52 Q2075.35 512.247 2079.87 509.758 L2079.87 519.596 Q2075.41 521.68 2070.61 522.721 Q2065.86 523.763 2060.48 523.763 Q2045.84 523.763 2037.22 514.562 Q2028.59 505.36 2028.59 489.735 Q2028.59 473.879 2037.27 464.793 Q2046.01 455.708 2061.18 455.708 Q2066.09 455.708 2070.78 456.749 Q2075.47 457.733 2079.87 459.759 Z" fill="#000000" fill-rule="evenodd" fill-opacity="1" /><path clip-path="url(#clip300)" d="M2108.92 438.867 L2108.92 457.27 L2130.85 457.27 L2130.85 465.546 L2108.92 465.546 L2108.92 500.731 Q2108.92 508.659 2111.06 510.916 Q2113.26 513.173 2119.91 513.173 L2130.85 513.173 L2130.85 522.085 L2119.91 522.085 Q2107.59 522.085 2102.9 517.513 Q2098.21 512.883 2098.21 500.731 L2098.21 465.546 L2090.4 465.546 L2090.4 457.27 L2098.21 457.27 L2098.21 438.867 L2108.92 438.867 Z" fill="#000000" fill-rule="evenodd" fill-opacity="1" /></svg>
