<?xml version="1.0" encoding="utf-8"?>
<svg xmlns="http://www.w3.org/2000/svg" xmlns:xlink="http://www.w3.org/1999/xlink" width="600" height="400" viewBox="0 0 2400 1600">
<defs>
  <clipPath id="clip380">
    <rect x="0" y="0" width="2400" height="1600"/>
  </clipPath>
</defs>
<path clip-path="url(#clip380)" d="
M0 1600 L2400 1600 L2400 0 L0 0  Z
  " fill="#ffffff" fill-rule="evenodd" fill-opacity="1"/>
<defs>
  <clipPath id="clip381">
    <rect x="480" y="0" width="1681" height="1600"/>
  </clipPath>
</defs>
<defs>
  <clipPath id="clip382">
    <rect x="340" y="47" width="2013" height="1286"/>
  </clipPath>
</defs>
<path clip-path="url(#clip380)" d="
M340.34 1332.46 L2352.76 1332.46 L2352.76 47.2441 L340.34 47.2441  Z
  " fill="#ffffff" fill-rule="evenodd" fill-opacity="1"/>
<polyline clip-path="url(#clip382)" style="stroke:#000000; stroke-linecap:round; stroke-linejoin:round; stroke-width:2; stroke-opacity:0.1; fill:none" points="
  2185.05,1332.46 2185.05,47.2441 
  "/>
<polyline clip-path="url(#clip382)" style="stroke:#000000; stroke-linecap:round; stroke-linejoin:round; stroke-width:2; stroke-opacity:0.1; fill:none" points="
  1346.55,1332.46 1346.55,47.2441 
  "/>
<polyline clip-path="url(#clip382)" style="stroke:#000000; stroke-linecap:round; stroke-linejoin:round; stroke-width:2; stroke-opacity:0.1; fill:none" points="
  508.041,1332.46 508.041,47.2441 
  "/>
<polyline clip-path="url(#clip380)" style="stroke:#000000; stroke-linecap:round; stroke-linejoin:round; stroke-width:4; stroke-opacity:1; fill:none" points="
  340.34,1332.46 2352.76,1332.46 
  "/>
<polyline clip-path="url(#clip380)" style="stroke:#000000; stroke-linecap:round; stroke-linejoin:round; stroke-width:4; stroke-opacity:1; fill:none" points="
  2185.05,1332.46 2185.05,1313.56 
  "/>
<polyline clip-path="url(#clip380)" style="stroke:#000000; stroke-linecap:round; stroke-linejoin:round; stroke-width:4; stroke-opacity:1; fill:none" points="
  1346.55,1332.46 1346.55,1313.56 
  "/>
<polyline clip-path="url(#clip380)" style="stroke:#000000; stroke-linecap:round; stroke-linejoin:round; stroke-width:4; stroke-opacity:1; fill:none" points="
  508.041,1332.46 508.041,1313.56 
  "/>
<path clip-path="url(#clip380)" d="M2166.83 1367.86 L2201.24 1367.86 L2201.24 1375.24 L2174.85 1375.24 L2174.85 1391.12 Q2176.76 1390.47 2178.67 1390.17 Q2180.58 1389.82 2182.49 1389.82 Q2193.34 1389.82 2199.68 1395.77 Q2206.02 1401.71 2206.02 1411.87 Q2206.02 1422.33 2199.51 1428.15 Q2193 1433.92 2181.15 1433.92 Q2177.07 1433.92 2172.82 1433.22 Q2168.61 1432.53 2164.09 1431.14 L2164.09 1422.33 Q2168 1424.46 2172.16 1425.5 Q2176.33 1426.54 2180.97 1426.54 Q2188.48 1426.54 2192.87 1422.59 Q2197.25 1418.64 2197.25 1411.87 Q2197.25 1405.1 2192.87 1401.15 Q2188.48 1397.2 2180.97 1397.2 Q2177.46 1397.2 2173.94 1397.98 Q2170.47 1398.76 2166.83 1400.41 L2166.83 1367.86 Z" fill="#000000" fill-rule="evenodd" fill-opacity="1" /><path clip-path="url(#clip380)" d="M1346.55 1373.63 Q1339.78 1373.63 1336.35 1380.32 Q1332.96 1386.96 1332.96 1400.32 Q1332.96 1413.65 1336.35 1420.33 Q1339.78 1426.97 1346.55 1426.97 Q1353.36 1426.97 1356.75 1420.33 Q1360.18 1413.65 1360.18 1400.32 Q1360.18 1386.96 1356.75 1380.32 Q1353.36 1373.63 1346.55 1373.63 M1346.55 1366.69 Q1357.44 1366.69 1363.17 1375.33 Q1368.94 1383.92 1368.94 1400.32 Q1368.94 1416.69 1363.17 1425.32 Q1357.44 1433.92 1346.55 1433.92 Q1335.65 1433.92 1329.88 1425.32 Q1324.15 1416.69 1324.15 1400.32 Q1324.15 1383.92 1329.88 1375.33 Q1335.65 1366.69 1346.55 1366.69 Z" fill="#000000" fill-rule="evenodd" fill-opacity="1" /><path clip-path="url(#clip380)" d="M451.119 1401.11 L506.761 1401.11 L506.761 1408.48 L451.119 1408.48 L451.119 1401.11 Z" fill="#000000" fill-rule="evenodd" fill-opacity="1" /><path clip-path="url(#clip380)" d="M525.771 1367.86 L560.19 1367.86 L560.19 1375.24 L533.801 1375.24 L533.801 1391.12 Q535.711 1390.47 537.62 1390.17 Q539.53 1389.82 541.44 1389.82 Q552.29 1389.82 558.627 1395.77 Q564.964 1401.71 564.964 1411.87 Q564.964 1422.33 558.454 1428.15 Q551.943 1433.92 540.094 1433.92 Q536.014 1433.92 531.761 1433.22 Q527.551 1432.53 523.037 1431.14 L523.037 1422.33 Q526.943 1424.46 531.11 1425.5 Q535.277 1426.54 539.921 1426.54 Q547.429 1426.54 551.813 1422.59 Q556.197 1418.64 556.197 1411.87 Q556.197 1405.1 551.813 1401.15 Q547.429 1397.2 539.921 1397.2 Q536.405 1397.2 532.889 1397.98 Q529.417 1398.76 525.771 1400.41 L525.771 1367.86 Z" fill="#000000" fill-rule="evenodd" fill-opacity="1" /><path clip-path="url(#clip380)" d="M1388.97 1506.65 Q1388.97 1513.46 1385.53 1526.64 Q1384.14 1532.35 1382.24 1537.54 Q1380.41 1542.67 1377.7 1547.64 Q1374.99 1552.62 1371.84 1556.21 Q1368.7 1559.72 1364.6 1561.92 Q1360.5 1564.11 1355.96 1564.11 Q1348.79 1564.11 1344.54 1559.87 Q1340.37 1555.55 1339.05 1548.16 Q1329.24 1564.11 1316.14 1564.11 Q1308.02 1564.11 1304.21 1558.33 Q1300.41 1552.47 1300.41 1542.67 Q1300.41 1534.39 1302.6 1525.83 Q1306.77 1509.58 1314.9 1498.24 Q1316 1496.92 1317.61 1496.92 Q1318.56 1496.92 1319 1497.21 Q1320.31 1498.02 1320.31 1499.33 Q1320.31 1500.29 1319.58 1501.24 Q1314.46 1508.34 1311.09 1514.41 Q1307.72 1520.49 1306.19 1526.64 Q1305.02 1531.91 1305.02 1536.37 Q1305.02 1543.91 1308.24 1548.59 Q1311.53 1553.28 1318.05 1553.28 Q1324.05 1553.28 1329.32 1549.55 Q1334.59 1545.74 1338.47 1539.37 Q1338.69 1532.42 1340.37 1525.83 Q1341.91 1518.8 1345.49 1518.8 Q1348.35 1518.8 1348.35 1522.68 Q1348.35 1524 1347.76 1526.64 Q1346.15 1533.59 1343.22 1539.81 Q1344.25 1545.89 1348.06 1549.62 Q1351.86 1553.28 1357.94 1553.28 Q1363.57 1553.28 1368.55 1549.18 Q1373.6 1545.08 1376.82 1539.08 Q1380.11 1533 1381.94 1525.83 Q1382.53 1523.42 1382.53 1520.34 Q1382.53 1512.14 1376.82 1507.09 Q1375.21 1505.48 1375.21 1503.36 Q1375.21 1500.87 1377.26 1498.6 Q1379.68 1496.19 1382.53 1496.19 Q1384.65 1496.19 1385.97 1497.5 Q1388.97 1500.14 1388.97 1506.65 Z" fill="#000000" fill-rule="evenodd" fill-opacity="1" /><polyline clip-path="url(#clip382)" style="stroke:#000000; stroke-linecap:round; stroke-linejoin:round; stroke-width:2; stroke-opacity:0.1; fill:none" points="
  340.34,48.2078 2352.76,48.2078 
  "/>
<polyline clip-path="url(#clip382)" style="stroke:#000000; stroke-linecap:round; stroke-linejoin:round; stroke-width:2; stroke-opacity:0.1; fill:none" points="
  340.34,1296.1 2352.76,1296.1 
  "/>
<polyline clip-path="url(#clip380)" style="stroke:#000000; stroke-linecap:round; stroke-linejoin:round; stroke-width:4; stroke-opacity:1; fill:none" points="
  340.34,1332.46 340.34,47.2441 
  "/>
<polyline clip-path="url(#clip380)" style="stroke:#000000; stroke-linecap:round; stroke-linejoin:round; stroke-width:4; stroke-opacity:1; fill:none" points="
  340.34,48.2078 359.238,48.2078 
  "/>
<polyline clip-path="url(#clip380)" style="stroke:#000000; stroke-linecap:round; stroke-linejoin:round; stroke-width:4; stroke-opacity:1; fill:none" points="
  340.34,1296.1 359.238,1296.1 
  "/>
<path clip-path="url(#clip380)" d="M198.351 21.5803 Q191.58 21.5803 188.152 28.2643 Q184.766 34.9049 184.766 48.2729 Q184.766 61.5975 188.152 68.2815 Q191.58 74.9221 198.351 74.9221 Q205.165 74.9221 208.551 68.2815 Q211.98 61.5975 211.98 48.2729 Q211.98 34.9049 208.551 28.2643 Q205.165 21.5803 198.351 21.5803 M198.351 14.6359 Q209.245 14.6359 214.974 23.273 Q220.747 31.8667 220.747 48.2729 Q220.747 64.6357 214.974 73.2728 Q209.245 81.8665 198.351 81.8665 Q187.457 81.8665 181.685 73.2728 Q175.955 64.6357 175.955 48.2729 Q175.955 31.8667 181.685 23.273 Q187.457 14.6359 198.351 14.6359 Z" fill="#000000" fill-rule="evenodd" fill-opacity="1" /><path clip-path="url(#clip380)" d="M236.155 69.5836 L245.313 69.5836 L245.313 80.6078 L236.155 80.6078 L236.155 69.5836 Z" fill="#000000" fill-rule="evenodd" fill-opacity="1" /><path clip-path="url(#clip380)" d="M290.972 45.6688 Q297.266 47.0142 300.781 51.2677 Q304.34 55.5211 304.34 61.7711 Q304.34 71.3631 297.743 76.6148 Q291.146 81.8665 278.993 81.8665 Q274.913 81.8665 270.573 81.0418 Q266.276 80.2606 261.675 78.6547 L261.675 70.1912 Q265.321 72.3179 269.662 73.403 Q274.002 74.488 278.733 74.488 Q286.979 74.488 291.276 71.2329 Q295.616 67.9777 295.616 61.7711 Q295.616 56.042 291.58 52.8302 Q287.587 49.575 280.425 49.575 L272.873 49.575 L272.873 42.3702 L280.773 42.3702 Q287.24 42.3702 290.668 39.8094 Q294.097 37.2053 294.097 32.3442 Q294.097 27.3529 290.538 24.7053 Q287.023 22.0144 280.425 22.0144 Q276.823 22.0144 272.7 22.7956 Q268.576 23.5769 263.629 25.2262 L263.629 17.4137 Q268.62 16.0248 272.96 15.3304 Q277.344 14.6359 281.207 14.6359 Q291.189 14.6359 297.005 19.1932 Q302.821 23.7071 302.821 31.4327 Q302.821 36.8146 299.739 40.5473 Q296.658 44.2365 290.972 45.6688 Z" fill="#000000" fill-rule="evenodd" fill-opacity="1" /><path clip-path="url(#clip380)" d="M197.136 1269.47 Q190.365 1269.47 186.936 1276.16 Q183.551 1282.8 183.551 1296.17 Q183.551 1309.49 186.936 1316.17 Q190.365 1322.81 197.136 1322.81 Q203.95 1322.81 207.335 1316.17 Q210.764 1309.49 210.764 1296.17 Q210.764 1282.8 207.335 1276.16 Q203.95 1269.47 197.136 1269.47 M197.136 1262.53 Q208.03 1262.53 213.759 1271.17 Q219.532 1279.76 219.532 1296.17 Q219.532 1312.53 213.759 1321.17 Q208.03 1329.76 197.136 1329.76 Q186.242 1329.76 180.469 1321.17 Q174.74 1312.53 174.74 1296.17 Q174.74 1279.76 180.469 1271.17 Q186.242 1262.53 197.136 1262.53 Z" fill="#000000" fill-rule="evenodd" fill-opacity="1" /><path clip-path="url(#clip380)" d="M234.939 1317.48 L244.097 1317.48 L244.097 1328.5 L234.939 1328.5 L234.939 1317.48 Z" fill="#000000" fill-rule="evenodd" fill-opacity="1" /><path clip-path="url(#clip380)" d="M281.944 1269.47 Q275.174 1269.47 271.745 1276.16 Q268.359 1282.8 268.359 1296.17 Q268.359 1309.49 271.745 1316.17 Q275.174 1322.81 281.944 1322.81 Q288.759 1322.81 292.144 1316.17 Q295.573 1309.49 295.573 1296.17 Q295.573 1282.8 292.144 1276.16 Q288.759 1269.47 281.944 1269.47 M281.944 1262.53 Q292.838 1262.53 298.568 1271.17 Q304.34 1279.76 304.34 1296.17 Q304.34 1312.53 298.568 1321.17 Q292.838 1329.76 281.944 1329.76 Q271.05 1329.76 265.278 1321.17 Q259.549 1312.53 259.549 1296.17 Q259.549 1279.76 265.278 1271.17 Q271.05 1262.53 281.944 1262.53 Z" fill="#000000" fill-rule="evenodd" fill-opacity="1" /><path clip-path="url(#clip380)" d="M48.927 657.422 Q59.7599 657.422 69.934 662.985 Q80.1081 668.474 86.2565 677.111 Q92.4049 685.675 92.4049 694.312 Q92.4049 704.047 82.304 709.098 Q118.975 718.247 119.926 718.759 Q123.074 720.882 123.074 723.956 Q123.074 725.859 121.903 727.03 Q120.805 728.202 119.048 728.202 Q118.462 728.128 116.632 727.689 L57.7104 713.05 Q44.0229 709.683 34.288 699.509 Q24.4798 689.262 24.4798 678.282 Q24.4798 669.572 30.9942 663.497 Q37.5085 657.422 48.927 657.422 M42.4858 668.182 Q35.1663 668.182 31.5065 671.109 Q27.7736 674.037 27.7736 678.575 Q27.7736 682.747 31.1406 687.798 Q34.5075 692.775 41.9734 697.167 Q46.292 699.509 51.6352 701.193 Q56.9784 702.876 70.1536 706.17 Q75.4236 707.341 75.7164 707.341 Q76.302 707.341 77.6195 707.048 Q78.937 706.682 80.9865 705.804 Q82.9627 704.852 84.7194 703.535 Q86.4761 702.217 87.7936 699.802 Q89.0379 697.386 89.0379 694.459 Q89.0379 689.921 85.3782 685.09 Q81.6452 680.186 74.8381 676.599 Q69.3484 673.598 59.0279 670.89 Q48.6342 668.182 42.4858 668.182 Z" fill="#000000" fill-rule="evenodd" fill-opacity="1" /><polyline clip-path="url(#clip382)" style="stroke:#009af9; stroke-linecap:round; stroke-linejoin:round; stroke-width:12; stroke-opacity:1; fill:none" points="
  -330.465,1296.09 -327.108,1296.09 -323.75,1296.08 -320.393,1296.08 -317.036,1296.08 -313.678,1296.08 -310.321,1296.08 -306.963,1296.08 -303.606,1296.08 -300.249,1296.08 
  -296.891,1296.08 -293.534,1296.08 -290.176,1296.08 -286.819,1296.08 -283.462,1296.08 -280.104,1296.08 -276.747,1296.08 -273.39,1296.08 -270.032,1296.08 -266.675,1296.08 
  -263.317,1296.08 -259.96,1296.08 -256.603,1296.08 -253.245,1296.08 -249.888,1296.08 -246.531,1296.08 -243.173,1296.08 -239.816,1296.08 -236.458,1296.08 -233.101,1296.08 
  -229.744,1296.08 -226.386,1296.08 -223.029,1296.08 -219.671,1296.08 -216.314,1296.08 -212.957,1296.08 -209.599,1296.08 -206.242,1296.08 -202.885,1296.08 -199.527,1296.08 
  -196.17,1296.08 -192.812,1296.08 -189.455,1296.08 -186.098,1296.08 -182.74,1296.08 -179.383,1296.08 -176.025,1296.08 -172.668,1296.08 -169.311,1296.08 -165.953,1296.08 
  -162.596,1296.08 -159.239,1296.08 -155.881,1296.08 -152.524,1296.08 -149.166,1296.08 -145.809,1296.08 -142.452,1296.08 -139.094,1296.08 -135.737,1296.08 -132.379,1296.08 
  -129.022,1296.08 -125.665,1296.08 -122.307,1296.08 -118.95,1296.08 -115.593,1296.08 -112.235,1296.08 -108.878,1296.08 -105.52,1296.08 -102.163,1296.08 -98.8056,1296.08 
  -95.4482,1296.08 -92.0909,1296.08 -88.7335,1296.08 -85.3761,1296.08 -82.0187,1296.08 -78.6613,1296.08 -75.3039,1296.08 -71.9466,1296.08 -68.5892,1296.08 -65.2318,1296.08 
  -61.8744,1296.08 -58.517,1296.08 -55.1596,1296.08 -51.8023,1296.08 -48.4449,1296.08 -45.0875,1296.08 -41.7301,1296.08 -38.3727,1296.08 -35.0153,1296.08 -31.6579,1296.08 
  -28.3006,1296.08 -24.9432,1296.08 -21.5858,1296.08 -18.2284,1296.08 -14.871,1296.08 -11.5136,1296.08 -8.15626,1296.08 -4.79888,1296.08 -1.4415,1296.07 1.91589,1296.07 
  5.27327,1296.07 8.63065,1296.07 11.988,1296.07 15.3454,1296.07 18.7028,1296.07 22.0602,1296.07 25.4176,1296.07 28.775,1296.07 32.1323,1296.07 35.4897,1296.07 
  38.8471,1296.07 42.2045,1296.07 45.5619,1296.07 48.9193,1296.07 52.2766,1296.07 55.634,1296.07 58.9914,1296.07 62.3488,1296.07 65.7062,1296.07 69.0636,1296.07 
  72.4209,1296.07 75.7783,1296.07 79.1357,1296.07 82.4931,1296.07 85.8505,1296.07 89.2079,1296.07 92.5652,1296.07 95.9226,1296.07 99.28,1296.07 102.637,1296.07 
  105.995,1296.07 109.352,1296.07 112.71,1296.07 116.067,1296.07 119.424,1296.07 122.782,1296.07 126.139,1296.07 129.496,1296.07 132.854,1296.07 136.211,1296.07 
  139.569,1296.07 142.926,1296.07 146.283,1296.07 149.641,1296.07 152.998,1296.07 156.356,1296.06 159.713,1296.06 163.07,1296.06 166.428,1296.06 169.785,1296.06 
  173.142,1296.06 176.5,1296.06 179.857,1296.06 183.215,1296.06 186.572,1296.06 189.929,1296.06 193.287,1296.06 196.644,1296.06 200.002,1296.06 203.359,1296.06 
  206.716,1296.06 210.074,1296.06 213.431,1296.06 216.788,1296.06 220.146,1296.06 223.503,1296.06 226.861,1296.06 230.218,1296.06 233.575,1296.06 236.933,1296.05 
  240.29,1296.05 243.648,1296.05 247.005,1296.05 250.362,1296.05 253.72,1296.05 257.077,1296.05 260.434,1296.05 263.792,1296.05 267.149,1296.05 270.507,1296.05 
  273.864,1296.04 277.221,1296.04 280.579,1296.04 283.936,1296.04 287.293,1296.04 290.651,1296.04 294.008,1296.04 297.366,1296.03 300.723,1296.03 304.08,1296.03 
  307.438,1296.03 310.795,1296.02 314.153,1296.02 317.51,1296.02 320.867,1296.01 324.225,1296.01 327.582,1296.01 330.939,1296 334.297,1296 337.654,1295.99 
  341.012,1295.99 344.369,1295.98 347.726,1295.98 351.084,1295.97 354.441,1295.96 357.799,1295.95 361.156,1295.94 364.513,1295.93 367.871,1295.92 371.228,1295.91 
  374.585,1295.9 377.943,1295.88 381.3,1295.87 384.658,1295.85 388.015,1295.84 391.372,1295.82 394.73,1295.8 398.087,1295.78 401.445,1295.76 404.802,1295.73 
  408.159,1295.71 411.517,1295.68 414.874,1295.65 418.231,1295.62 421.589,1295.59 424.946,1295.56 428.304,1295.52 431.661,1295.48 435.018,1295.44 438.376,1295.4 
  441.733,1295.36 445.091,1295.31 448.448,1295.26 451.805,1295.21 455.163,1295.15 458.52,1295.1 461.877,1295.04 465.235,1294.97 468.592,1294.91 471.95,1294.83 
  475.307,1294.76 478.664,1294.68 482.022,1294.6 485.379,1294.51 488.737,1294.41 492.094,1294.31 495.451,1294.21 498.809,1294.1 502.166,1293.98 505.523,1293.85 
  508.881,1293.72 512.238,1293.57 515.596,1293.42 518.953,1293.26 522.31,1293.09 525.668,1292.91 529.025,1292.72 532.383,1292.52 535.74,1292.3 539.097,1292.07 
  542.455,1291.83 545.812,1291.58 549.169,1291.3 552.527,1291.02 555.884,1290.71 559.242,1290.39 562.599,1290.05 565.956,1289.69 569.314,1289.32 572.671,1288.92 
  576.028,1288.5 579.386,1288.05 582.743,1287.59 586.101,1287.1 589.458,1286.59 592.815,1286.04 596.173,1285.48 599.53,1284.88 602.888,1284.26 606.245,1283.6 
  609.602,1282.91 612.96,1282.19 616.317,1281.44 619.674,1280.65 623.032,1279.83 626.389,1278.97 629.747,1278.07 633.104,1277.12 636.461,1276.14 639.819,1275.11 
  643.176,1274.04 646.534,1272.92 649.891,1271.75 653.248,1270.54 656.606,1269.27 659.963,1267.94 663.32,1266.57 666.678,1265.13 670.035,1263.63 673.393,1262.08 
  676.75,1260.46 680.107,1258.77 683.465,1257.02 686.822,1255.2 690.18,1253.3 693.537,1251.33 696.894,1249.28 700.252,1247.16 703.609,1244.95 706.966,1242.66 
  710.324,1240.28 713.681,1237.81 717.039,1235.25 720.396,1232.6 723.753,1229.84 727.111,1226.99 730.468,1224.04 733.826,1220.98 737.183,1217.82 740.54,1214.55 
  743.898,1211.16 747.255,1207.66 750.612,1204.04 753.97,1200.31 757.327,1196.45 760.685,1192.48 764.042,1188.37 767.399,1184.14 770.757,1179.78 774.114,1175.29 
  777.472,1170.66 780.829,1165.9 784.186,1161 787.544,1155.96 790.901,1150.78 794.258,1145.45 797.616,1139.98 800.973,1134.36 804.331,1128.59 807.688,1122.67 
  811.045,1116.59 814.403,1110.36 817.76,1103.97 821.117,1097.43 824.475,1090.73 827.832,1083.86 831.19,1076.84 834.547,1069.66 837.904,1062.31 841.262,1054.8 
  844.619,1047.13 847.977,1039.3 851.334,1031.31 854.691,1023.15 858.049,1014.84 861.406,1006.36 864.763,997.72 868.121,988.919 871.478,979.958 874.836,970.838 
  878.193,961.558 881.55,952.121 884.908,942.527 888.265,932.778 891.623,922.876 894.98,912.823 898.337,902.621 901.695,892.274 905.052,881.783 908.409,871.153 
  911.767,860.386 915.124,849.486 918.482,838.457 921.839,827.302 925.196,816.026 928.554,804.632 931.911,793.124 935.269,781.506 938.626,769.783 941.983,757.96 
  945.341,746.042 948.698,734.033 952.055,721.94 955.413,709.768 958.77,697.524 962.128,685.214 965.485,672.844 968.842,660.423 972.2,647.957 975.557,635.453 
  978.915,622.919 982.272,610.361 985.629,597.787 988.987,585.205 992.344,572.622 995.701,560.044 999.059,547.481 1002.42,534.941 1005.77,522.431 1009.13,509.96 
  1012.49,497.538 1015.85,485.174 1019.2,472.876 1022.56,460.654 1025.92,448.517 1029.28,436.474 1032.63,424.533 1035.99,412.704 1039.35,400.994 1042.7,389.412 
  1046.06,377.967 1049.42,366.668 1052.78,355.525 1056.13,344.546 1059.49,333.74 1062.85,323.118 1066.21,312.688 1069.56,302.459 1072.92,292.439 1076.28,282.637 
  1079.64,273.059 1082.99,263.714 1086.35,254.609 1089.71,245.752 1093.07,237.152 1096.42,228.816 1099.78,220.752 1103.14,212.968 1106.5,205.471 1109.85,198.266 
  1113.21,191.361 1116.57,184.759 1119.92,178.468 1123.28,172.492 1126.64,166.838 1130,161.511 1133.35,156.517 1136.71,151.86 1140.07,147.545 1143.43,143.575 
  1146.78,139.953 1150.14,136.682 1153.5,133.764 1156.86,131.205 1160.21,129.006 1163.57,127.169 1166.93,125.698 1170.29,124.591 1173.64,123.85 1177,123.476 
  1180.36,123.467 1183.71,123.827 1187.07,124.553 1190.43,125.647 1193.79,127.106 1197.14,128.928 1200.5,131.111 1203.86,133.654 1207.22,136.554 1210.57,139.81 
  1213.93,143.417 1217.29,147.372 1220.65,151.671 1224,156.309 1227.36,161.283 1230.72,166.589 1234.08,172.221 1237.43,178.172 1240.79,184.438 1244.15,191.013 
  1247.51,197.892 1250.86,205.067 1254.22,212.532 1257.58,220.279 1260.93,228.304 1264.29,236.598 1267.65,245.154 1271.01,253.964 1274.36,263.022 1277.72,272.32 
  1281.08,281.851 1284.44,291.608 1287.79,301.582 1291.15,311.766 1294.51,322.154 1297.87,332.736 1301.22,343.506 1304.58,354.454 1307.94,365.572 1311.3,376.849 
  1314.65,388.276 1318.01,399.842 1321.37,411.533 1324.73,423.338 1328.08,435.252 1331.44,447.258 1334.8,459.363 1338.15,471.554 1341.51,483.832 1344.87,496.174 
  1348.23,508.565 1351.58,521.005 1354.94,533.489 1358.3,546.018 1361.66,558.561 1365.01,571.12 1368.37,583.67 1371.73,596.22 1375.09,608.761 1378.44,621.287 
  1381.8,633.803 1385.16,646.295 1388.52,658.754 1391.87,671.177 1395.23,683.55 1398.59,695.859 1401.94,708.101 1405.3,720.266 1408.66,732.34 1412.02,744.316 
  1415.37,756.191 1418.73,767.957 1422.09,779.603 1425.45,791.126 1428.8,802.525 1432.16,813.794 1435.52,824.927 1438.88,835.917 1442.23,846.767 1445.59,857.475 
  1448.95,868.034 1452.31,878.441 1455.66,888.693 1459.02,898.79 1462.38,908.732 1465.74,918.515 1469.09,928.133 1472.45,937.584 1475.81,946.867 1479.16,955.983 
  1482.52,964.929 1485.88,973.701 1489.24,982.295 1492.59,990.706 1495.95,998.935 1499.31,1006.98 1502.67,1014.84 1506.02,1022.51 1509.38,1029.99 1512.74,1037.27 
  1516.1,1044.34 1519.45,1051.22 1522.81,1057.88 1526.17,1064.34 1529.53,1070.59 1532.88,1076.63 1536.24,1082.44 1539.6,1088.03 1542.95,1093.39 1546.31,1098.52 
  1549.67,1103.41 1553.03,1108.07 1556.38,1112.49 1559.74,1116.67 1563.1,1120.6 1566.46,1124.29 1569.81,1127.71 1573.17,1130.88 1576.53,1133.79 1579.89,1136.43 
  1583.24,1138.81 1586.6,1140.92 1589.96,1142.76 1593.32,1144.33 1596.67,1145.63 1600.03,1146.65 1603.39,1147.4 1606.75,1147.87 1610.1,1148.06 1613.46,1147.97 
  1616.82,1147.59 1620.17,1146.94 1623.53,1146 1626.89,1144.78 1630.25,1143.28 1633.6,1141.5 1636.96,1139.46 1640.32,1137.14 1643.68,1134.55 1647.03,1131.7 
  1650.39,1128.59 1653.75,1125.23 1657.11,1121.6 1660.46,1117.73 1663.82,1113.61 1667.18,1109.26 1670.54,1104.67 1673.89,1099.85 1677.25,1094.82 1680.61,1089.57 
  1683.97,1084.13 1687.32,1078.49 1690.68,1072.67 1694.04,1066.68 1697.39,1060.53 1700.75,1054.23 1704.11,1047.79 1707.47,1041.23 1710.82,1034.54 1714.18,1027.76 
  1717.54,1020.88 1720.9,1013.91 1724.25,1006.88 1727.61,999.8 1730.97,992.675 1734.33,985.523 1737.68,978.36 1741.04,971.201 1744.4,964.061 1747.76,956.955 
  1751.11,949.899 1754.47,942.908 1757.83,935.997 1761.18,929.18 1764.54,922.472 1767.9,915.886 1771.26,909.437 1774.61,903.137 1777.97,897.001 1781.33,891.041 
  1784.69,885.271 1788.04,879.704 1791.4,874.353 1794.76,869.23 1798.12,864.349 1801.47,859.722 1804.83,855.359 1808.19,851.273 1811.55,847.474 1814.9,843.971 
  1818.26,840.774 1821.62,837.89 1824.98,835.326 1828.33,833.089 1831.69,831.183 1835.05,829.614 1838.4,828.385 1841.76,827.499 1845.12,826.96 1848.48,826.768 
  1851.83,826.926 1855.19,827.434 1858.55,828.293 1861.91,829.502 1865.26,831.061 1868.62,832.967 1871.98,835.218 1875.34,837.81 1878.69,840.739 1882.05,843.999 
  1885.41,847.584 1888.77,851.487 1892.12,855.7 1895.48,860.214 1898.84,865.019 1902.2,870.106 1905.55,875.463 1908.91,881.08 1912.27,886.944 1915.62,893.045 
  1918.98,899.371 1922.34,905.908 1925.7,912.645 1929.05,919.569 1932.41,926.668 1935.77,933.927 1939.13,941.335 1942.48,948.878 1945.84,956.542 1949.2,964.313 
  1952.56,972.177 1955.91,980.121 1959.27,988.129 1962.63,996.187 1965.99,1004.28 1969.34,1012.4 1972.7,1020.52 1976.06,1028.64 1979.41,1036.74 1982.77,1044.8 
  1986.13,1052.82 1989.49,1060.79 1992.84,1068.69 1996.2,1076.5 1999.56,1084.23 2002.92,1091.87 2006.27,1099.39 2009.63,1106.8 2012.99,1114.08 2016.35,1121.23 
  2019.7,1128.25 2023.06,1135.12 2026.42,1141.84 2029.78,1148.41 2033.13,1154.82 2036.49,1161.06 2039.85,1167.13 2043.21,1173.03 2046.56,1178.76 2049.92,1184.3 
  2053.28,1189.67 2056.63,1194.86 2059.99,1199.86 2063.35,1204.69 2066.71,1209.33 2070.06,1213.79 2073.42,1218.08 2076.78,1222.19 2080.14,1226.12 2083.49,1229.89 
  2086.85,1233.49 2090.21,1236.92 2093.57,1240.2 2096.92,1243.32 2100.28,1246.3 2103.64,1249.13 2107,1251.82 2110.35,1254.38 2113.71,1256.81 2117.07,1259.12 
  2120.42,1261.3 2123.78,1263.38 2127.14,1265.35 2130.5,1267.22 2133.85,1268.99 2137.21,1270.67 2140.57,1272.26 2143.93,1273.77 2147.28,1275.2 2150.64,1276.55 
  2154,1277.83 2157.36,1279.04 2160.71,1280.19 2164.07,1281.28 2167.43,1282.3 2170.79,1283.27 2174.14,1284.19 2177.5,1285.06 2180.86,1285.88 2184.22,1286.65 
  2187.57,1287.37 2190.93,1288.06 2194.29,1288.7 2197.64,1289.3 2201,1289.86 2204.36,1290.38 2207.72,1290.87 2211.07,1291.32 2214.43,1291.75 2217.79,1292.14 
  2221.15,1292.5 2224.5,1292.83 2227.86,1293.13 2231.22,1293.41 2234.58,1293.67 2237.93,1293.9 2241.29,1294.11 2244.65,1294.31 2248.01,1294.48 2251.36,1294.64 
  2254.72,1294.78 2258.08,1294.91 2261.44,1295.03 2264.79,1295.13 2268.15,1295.23 2271.51,1295.31 2274.86,1295.39 2278.22,1295.45 2281.58,1295.51 2284.94,1295.57 
  2288.29,1295.62 2291.65,1295.66 2295.01,1295.7 2298.37,1295.73 2301.72,1295.77 2305.08,1295.79 2308.44,1295.82 2311.8,1295.84 2315.15,1295.86 2318.51,1295.88 
  2321.87,1295.9 2325.23,1295.91 2328.58,1295.92 2331.94,1295.94 2335.3,1295.95 2338.65,1295.96 2342.01,1295.96 2345.37,1295.97 2348.73,1295.98 2352.08,1295.99 
  2355.44,1295.99 2358.8,1296 2362.16,1296 2365.51,1296.01 2368.87,1296.01 2372.23,1296.01 2375.59,1296.02 2378.94,1296.02 2382.3,1296.02 2385.66,1296.03 
  2389.02,1296.03 2392.37,1296.03 2395.73,1296.03 2399.09,1296.03 2402.45,1296.04 2405.8,1296.04 2409.16,1296.04 2412.52,1296.04 2415.87,1296.04 2419.23,1296.04 
  2422.59,1296.04 2425.95,1296.05 2429.3,1296.05 2432.66,1296.05 2436.02,1296.05 2439.38,1296.05 2442.73,1296.05 2446.09,1296.05 2449.45,1296.05 2452.81,1296.05 
  2456.16,1296.05 2459.52,1296.05 2462.88,1296.06 2466.24,1296.06 2469.59,1296.06 2472.95,1296.06 2476.31,1296.06 2479.67,1296.06 2483.02,1296.06 2486.38,1296.06 
  2489.74,1296.06 2493.09,1296.06 2496.45,1296.06 2499.81,1296.06 2503.17,1296.06 2506.52,1296.06 2509.88,1296.06 2513.24,1296.06 2516.6,1296.06 2519.95,1296.06 
  2523.31,1296.06 2526.67,1296.06 2530.03,1296.06 2533.38,1296.06 2536.74,1296.06 2540.1,1296.07 2543.46,1296.07 2546.81,1296.07 2550.17,1296.07 2553.53,1296.07 
  2556.88,1296.07 2560.24,1296.07 2563.6,1296.07 2566.96,1296.07 2570.31,1296.07 2573.67,1296.07 2577.03,1296.07 2580.39,1296.07 2583.74,1296.07 2587.1,1296.07 
  2590.46,1296.07 2593.82,1296.07 2597.17,1296.07 2600.53,1296.07 2603.89,1296.07 2607.25,1296.07 2610.6,1296.07 2613.96,1296.07 2617.32,1296.07 2620.68,1296.07 
  2624.03,1296.07 2627.39,1296.07 2630.75,1296.07 2634.1,1296.07 2637.46,1296.07 2640.82,1296.07 2644.18,1296.07 2647.53,1296.07 2650.89,1296.07 2654.25,1296.07 
  2657.61,1296.07 2660.96,1296.07 2664.32,1296.07 2667.68,1296.07 2671.04,1296.07 2674.39,1296.07 2677.75,1296.07 2681.11,1296.07 2684.47,1296.08 2687.82,1296.08 
  2691.18,1296.08 2694.54,1296.08 2697.89,1296.08 2701.25,1296.08 2704.61,1296.08 2707.97,1296.08 2711.32,1296.08 2714.68,1296.08 2718.04,1296.08 2721.4,1296.08 
  2724.75,1296.08 2728.11,1296.08 2731.47,1296.08 2734.83,1296.08 2738.18,1296.08 2741.54,1296.08 2744.9,1296.08 2748.26,1296.08 2751.61,1296.08 2754.97,1296.08 
  2758.33,1296.08 2761.69,1296.08 2765.04,1296.08 2768.4,1296.08 2771.76,1296.08 2775.11,1296.08 2778.47,1296.08 2781.83,1296.08 2785.19,1296.08 2788.54,1296.08 
  2791.9,1296.08 2795.26,1296.08 2798.62,1296.08 2801.97,1296.08 2805.33,1296.08 2808.69,1296.08 2812.05,1296.08 2815.4,1296.08 2818.76,1296.08 2822.12,1296.08 
  2825.48,1296.08 2828.83,1296.08 2832.19,1296.08 2835.55,1296.08 2838.91,1296.08 2842.26,1296.08 2845.62,1296.08 2848.98,1296.08 2852.33,1296.08 2855.69,1296.08 
  2859.05,1296.08 2862.41,1296.08 2865.76,1296.08 2869.12,1296.08 2872.48,1296.08 2875.84,1296.08 2879.19,1296.08 2882.55,1296.08 2885.91,1296.08 2889.27,1296.08 
  2892.62,1296.08 2895.98,1296.08 2899.34,1296.08 2902.7,1296.08 2906.05,1296.08 2909.41,1296.08 2912.77,1296.08 2916.12,1296.08 2919.48,1296.08 2922.84,1296.08 
  2926.2,1296.08 2929.55,1296.08 2932.91,1296.08 2936.27,1296.08 2939.63,1296.08 2942.98,1296.08 2946.34,1296.08 2949.7,1296.08 2953.06,1296.08 2956.41,1296.08 
  2959.77,1296.08 2963.13,1296.08 2966.49,1296.08 2969.84,1296.08 2973.2,1296.08 2976.56,1296.08 2979.92,1296.08 2983.27,1296.08 2986.63,1296.09 2989.99,1296.09 
  2993.34,1296.09 2996.7,1296.09 3000.06,1296.09 3003.42,1296.09 3006.77,1296.09 3010.13,1296.09 3013.49,1296.09 3016.85,1296.09 3020.2,1296.09 3023.56,1296.09 
  
  "/>
<polyline clip-path="url(#clip382)" style="stroke:#e26f46; stroke-linecap:round; stroke-linejoin:round; stroke-width:12; stroke-opacity:1; fill:none" points="
  -330.465,1231.35 -327.108,1231.34 -323.75,1231.33 -320.393,1231.31 -317.036,1231.3 -313.678,1231.29 -310.321,1231.27 -306.963,1231.26 -303.606,1231.24 -300.249,1231.23 
  -296.891,1231.22 -293.534,1231.2 -290.176,1231.19 -286.819,1231.17 -283.462,1231.16 -280.104,1231.14 -276.747,1231.12 -273.39,1231.11 -270.032,1231.09 -266.675,1231.08 
  -263.317,1231.06 -259.96,1231.05 -256.603,1231.03 -253.245,1231.01 -249.888,1231 -246.531,1230.98 -243.173,1230.96 -239.816,1230.95 -236.458,1230.93 -233.101,1230.91 
  -229.744,1230.89 -226.386,1230.87 -223.029,1230.86 -219.671,1230.84 -216.314,1230.82 -212.957,1230.8 -209.599,1230.78 -206.242,1230.76 -202.885,1230.75 -199.527,1230.73 
  -196.17,1230.71 -192.812,1230.69 -189.455,1230.67 -186.098,1230.65 -182.74,1230.63 -179.383,1230.61 -176.025,1230.59 -172.668,1230.56 -169.311,1230.54 -165.953,1230.52 
  -162.596,1230.5 -159.239,1230.48 -155.881,1230.46 -152.524,1230.44 -149.166,1230.41 -145.809,1230.39 -142.452,1230.37 -139.094,1230.34 -135.737,1230.32 -132.379,1230.3 
  -129.022,1230.27 -125.665,1230.25 -122.307,1230.23 -118.95,1230.2 -115.593,1230.18 -112.235,1230.15 -108.878,1230.13 -105.52,1230.1 -102.163,1230.08 -98.8056,1230.05 
  -95.4482,1230.02 -92.0909,1230 -88.7335,1229.97 -85.3761,1229.94 -82.0187,1229.92 -78.6613,1229.89 -75.3039,1229.86 -71.9466,1229.83 -68.5892,1229.8 -65.2318,1229.77 
  -61.8744,1229.75 -58.517,1229.72 -55.1596,1229.69 -51.8023,1229.66 -48.4449,1229.63 -45.0875,1229.6 -41.7301,1229.56 -38.3727,1229.53 -35.0153,1229.5 -31.6579,1229.47 
  -28.3006,1229.44 -24.9432,1229.4 -21.5858,1229.37 -18.2284,1229.34 -14.871,1229.3 -11.5136,1229.27 -8.15626,1229.24 -4.79888,1229.2 -1.4415,1229.17 1.91589,1229.13 
  5.27327,1229.09 8.63065,1229.06 11.988,1229.02 15.3454,1228.98 18.7028,1228.95 22.0602,1228.91 25.4176,1228.87 28.775,1228.83 32.1323,1228.79 35.4897,1228.75 
  38.8471,1228.71 42.2045,1228.67 45.5619,1228.63 48.9193,1228.59 52.2766,1228.55 55.634,1228.51 58.9914,1228.46 62.3488,1228.42 65.7062,1228.38 69.0636,1228.33 
  72.4209,1228.29 75.7783,1228.24 79.1357,1228.2 82.4931,1228.15 85.8505,1228.1 89.2079,1228.06 92.5652,1228.01 95.9226,1227.96 99.28,1227.91 102.637,1227.86 
  105.995,1227.81 109.352,1227.76 112.71,1227.71 116.067,1227.66 119.424,1227.61 122.782,1227.55 126.139,1227.5 129.496,1227.45 132.854,1227.39 136.211,1227.34 
  139.569,1227.28 142.926,1227.22 146.283,1227.17 149.641,1227.11 152.998,1227.05 156.356,1226.99 159.713,1226.93 163.07,1226.87 166.428,1226.81 169.785,1226.74 
  173.142,1226.68 176.5,1226.62 179.857,1226.55 183.215,1226.49 186.572,1226.42 189.929,1226.35 193.287,1226.29 196.644,1226.22 200.002,1226.15 203.359,1226.08 
  206.716,1226.01 210.074,1225.93 213.431,1225.86 216.788,1225.79 220.146,1225.71 223.503,1225.64 226.861,1225.56 230.218,1225.48 233.575,1225.4 236.933,1225.32 
  240.29,1225.24 243.648,1225.16 247.005,1225.08 250.362,1225 253.72,1224.91 257.077,1224.82 260.434,1224.74 263.792,1224.65 267.149,1224.56 270.507,1224.47 
  273.864,1224.38 277.221,1224.29 280.579,1224.19 283.936,1224.1 287.293,1224 290.651,1223.9 294.008,1223.8 297.366,1223.7 300.723,1223.6 304.08,1223.5 
  307.438,1223.39 310.795,1223.29 314.153,1223.18 317.51,1223.07 320.867,1222.96 324.225,1222.85 327.582,1222.74 330.939,1222.62 334.297,1222.5 337.654,1222.39 
  341.012,1222.27 344.369,1222.15 347.726,1222.02 351.084,1221.9 354.441,1221.77 357.799,1221.64 361.156,1221.51 364.513,1221.38 367.871,1221.25 371.228,1221.11 
  374.585,1220.97 377.943,1220.83 381.3,1220.69 384.658,1220.55 388.015,1220.4 391.372,1220.26 394.73,1220.11 398.087,1219.95 401.445,1219.8 404.802,1219.64 
  408.159,1219.48 411.517,1219.32 414.874,1219.16 418.231,1218.99 421.589,1218.82 424.946,1218.65 428.304,1218.48 431.661,1218.3 435.018,1218.12 438.376,1217.94 
  441.733,1217.75 445.091,1217.57 448.448,1217.37 451.805,1217.18 455.163,1216.98 458.52,1216.78 461.877,1216.58 465.235,1216.37 468.592,1216.16 471.95,1215.95 
  475.307,1215.73 478.664,1215.51 482.022,1215.29 485.379,1215.06 488.737,1214.83 492.094,1214.6 495.451,1214.36 498.809,1214.12 502.166,1213.87 505.523,1213.62 
  508.881,1213.36 512.238,1213.1 515.596,1212.84 518.953,1212.57 522.31,1212.3 525.668,1212.02 529.025,1211.74 532.383,1211.45 535.74,1211.16 539.097,1210.86 
  542.455,1210.56 545.812,1210.25 549.169,1209.94 552.527,1209.62 555.884,1209.29 559.242,1208.96 562.599,1208.62 565.956,1208.28 569.314,1207.93 572.671,1207.57 
  576.028,1207.21 579.386,1206.84 582.743,1206.46 586.101,1206.08 589.458,1205.69 592.815,1205.29 596.173,1204.88 599.53,1204.47 602.888,1204.05 606.245,1203.62 
  609.602,1203.18 612.96,1202.73 616.317,1202.27 619.674,1201.81 623.032,1201.33 626.389,1200.85 629.747,1200.35 633.104,1199.85 636.461,1199.33 639.819,1198.8 
  643.176,1198.27 646.534,1197.72 649.891,1197.16 653.248,1196.59 656.606,1196 659.963,1195.4 663.32,1194.79 666.678,1194.17 670.035,1193.53 673.393,1192.88 
  676.75,1192.22 680.107,1191.54 683.465,1190.84 686.822,1190.13 690.18,1189.4 693.537,1188.65 696.894,1187.89 700.252,1187.11 703.609,1186.31 706.966,1185.49 
  710.324,1184.65 713.681,1183.8 717.039,1182.92 720.396,1182.02 723.753,1181.1 727.111,1180.15 730.468,1179.18 733.826,1178.19 737.183,1177.17 740.54,1176.12 
  743.898,1175.05 747.255,1173.95 750.612,1172.82 753.97,1171.66 757.327,1170.48 760.685,1169.25 764.042,1168 767.399,1166.71 770.757,1165.39 774.114,1164.03 
  777.472,1162.63 780.829,1161.19 784.186,1159.71 787.544,1158.19 790.901,1156.62 794.258,1155.01 797.616,1153.35 800.973,1151.64 804.331,1149.88 807.688,1148.07 
  811.045,1146.2 814.403,1144.28 817.76,1142.29 821.117,1140.25 824.475,1138.14 827.832,1135.96 831.19,1133.71 834.547,1131.39 837.904,1128.99 841.262,1126.51 
  844.619,1123.96 847.977,1121.31 851.334,1118.58 854.691,1115.75 858.049,1112.83 861.406,1109.8 864.763,1106.67 868.121,1103.42 871.478,1100.06 874.836,1096.58 
  878.193,1092.98 881.55,1089.24 884.908,1085.36 888.265,1081.34 891.623,1077.17 894.98,1072.84 898.337,1068.35 901.695,1063.68 905.052,1058.84 908.409,1053.8 
  911.767,1048.57 915.124,1043.14 918.482,1037.48 921.839,1031.6 925.196,1025.49 928.554,1019.13 931.911,1012.51 935.269,1005.63 938.626,998.462 941.983,991.004 
  945.341,983.241 948.698,975.16 952.055,966.748 955.413,957.992 958.77,948.879 962.128,939.396 965.485,929.528 968.842,919.263 972.2,908.588 975.557,897.49 
  978.915,885.958 982.272,873.98 985.629,861.547 988.987,848.651 992.344,835.283 995.701,821.439 999.059,807.116 1002.42,792.314 1005.77,777.035 1009.13,761.285 
  1012.49,745.074 1015.85,728.415 1019.2,711.326 1022.56,693.83 1025.92,675.953 1029.28,657.729 1032.63,639.195 1035.99,620.392 1039.35,601.368 1042.7,582.175 
  1046.06,562.867 1049.42,543.502 1052.78,524.142 1056.13,504.848 1059.49,485.681 1062.85,466.704 1066.21,447.973 1069.56,429.544 1072.92,411.466 1076.28,393.783 
  1079.64,376.531 1082.99,359.74 1086.35,343.428 1089.71,327.609 1093.07,312.288 1096.42,297.46 1099.78,283.116 1103.14,269.242 1106.5,255.818 1109.85,242.825 
  1113.21,230.24 1116.57,218.046 1119.92,206.227 1123.28,194.773 1126.64,183.684 1130,172.965 1133.35,162.634 1136.71,152.717 1140.07,143.251 1143.43,134.282 
  1146.78,125.865 1150.14,118.06 1153.5,110.928 1156.86,104.531 1160.21,98.9263 1163.57,94.1618 1166.93,90.2732 1170.29,87.281 1173.64,85.1877 1177,83.9778 
  1180.36,83.6181 1183.71,84.0604 1187.07,85.2454 1190.43,87.1081 1193.79,89.5841 1197.14,92.6156 1200.5,96.1576 1203.86,100.182 1207.22,104.681 1210.57,109.662 
  1213.93,115.152 1217.29,121.179 1220.65,127.775 1224,134.952 1227.36,142.701 1230.72,150.98 1234.08,159.712 1237.43,168.789 1240.79,178.083 1244.15,187.462 
  1247.51,196.812 1250.86,206.051 1254.22,215.146 1257.58,224.108 1260.93,232.983 1264.29,241.829 1267.65,250.685 1271.01,259.551 1274.36,268.387 1277.72,277.135 
  1281.08,285.759 1284.44,294.302 1287.79,302.904 1291.15,311.783 1294.51,321.162 1297.87,331.174 1301.22,341.81 1304.58,352.948 1307.94,364.453 1311.3,376.255 
  1314.65,388.302 1318.01,400.431 1321.37,412.348 1324.73,423.874 1328.08,435.231 1331.44,446.904 1334.8,459.082 1338.15,471.539 1341.51,484.044 1344.87,496.165 
  1348.23,508.412 1351.58,521.176 1354.94,533.66 1358.3,545.973 1361.66,558.169 1365.01,570.631 1368.37,583.617 1371.73,596.812 1375.09,609.731 1378.44,622.189 
  1381.8,634.3 1385.16,646.219 1388.52,658.005 1391.87,669.686 1395.23,681.363 1398.59,693.223 1401.94,705.45 1405.3,718.132 1408.66,731.212 1412.02,744.53 
  1415.37,757.889 1418.73,771.128 1422.09,784.157 1425.45,796.944 1428.8,809.494 1432.16,821.806 1435.52,833.854 1438.88,845.577 1442.23,856.891 1445.59,867.7 
  1448.95,877.919 1452.31,887.488 1455.66,896.381 1459.02,904.604 1462.38,912.197 1465.74,919.221 1469.09,925.75 1472.45,931.865 1475.81,937.641 1479.16,943.144 
  1482.52,948.425 1485.88,953.519 1489.24,958.446 1492.59,963.214 1495.95,967.816 1499.31,972.242 1502.67,976.477 1506.02,980.505 1509.38,984.314 1512.74,987.896 
  1516.1,991.248 1519.45,994.376 1522.81,997.292 1526.17,1000.01 1529.53,1002.57 1532.88,1004.98 1536.24,1007.29 1539.6,1009.54 1542.95,1011.76 1546.31,1013.99 
  1549.67,1016.29 1553.03,1018.68 1556.38,1021.2 1559.74,1023.88 1563.1,1026.77 1566.46,1029.86 1569.81,1033.19 1573.17,1036.75 1576.53,1040.55 1579.89,1044.6 
  1583.24,1048.87 1586.6,1053.35 1589.96,1058.02 1593.32,1062.85 1596.67,1067.83 1600.03,1072.91 1603.39,1078.08 1606.75,1083.3 1610.1,1088.55 1613.46,1093.79 
  1616.82,1099 1620.17,1104.17 1623.53,1109.25 1626.89,1114.25 1630.25,1119.15 1633.6,1123.93 1636.96,1128.57 1640.32,1133.08 1643.68,1137.45 1647.03,1141.67 
  1650.39,1145.74 1653.75,1149.66 1657.11,1153.43 1660.46,1157.04 1663.82,1160.51 1667.18,1163.84 1670.54,1167.02 1673.89,1170.06 1677.25,1172.97 1680.61,1175.74 
  1683.97,1178.39 1687.32,1180.92 1690.68,1183.34 1694.04,1185.64 1697.39,1187.83 1700.75,1189.92 1704.11,1191.92 1707.47,1193.82 1710.82,1195.63 1714.18,1197.35 
  1717.54,1198.99 1720.9,1200.56 1724.25,1202.05 1727.61,1203.46 1730.97,1204.82 1734.33,1206.11 1737.68,1207.33 1741.04,1208.5 1744.4,1209.61 1747.76,1210.67 
  1751.11,1211.68 1754.47,1212.65 1757.83,1213.56 1761.18,1214.44 1764.54,1215.27 1767.9,1216.06 1771.26,1216.82 1774.61,1217.54 1777.97,1218.22 1781.33,1218.88 
  1784.69,1219.5 1788.04,1220.09 1791.4,1220.65 1794.76,1221.19 1798.12,1221.7 1801.47,1222.19 1804.83,1222.65 1808.19,1223.09 1811.55,1223.51 1814.9,1223.91 
  1818.26,1224.29 1821.62,1224.65 1824.98,1225 1828.33,1225.32 1831.69,1225.63 1835.05,1225.93 1838.4,1226.21 1841.76,1226.47 1845.12,1226.72 1848.48,1226.96 
  1851.83,1227.19 1855.19,1227.4 1858.55,1227.61 1861.91,1227.8 1865.26,1227.98 1868.62,1228.15 1871.98,1228.31 1875.34,1228.47 1878.69,1228.61 1882.05,1228.75 
  1885.41,1228.87 1888.77,1228.99 1892.12,1229.11 1895.48,1229.21 1898.84,1229.31 1902.2,1229.4 1905.55,1229.49 1908.91,1229.57 1912.27,1229.64 1915.62,1229.71 
  1918.98,1229.78 1922.34,1229.84 1925.7,1229.89 1929.05,1229.94 1932.41,1229.98 1935.77,1230.03 1939.13,1230.06 1942.48,1230.1 1945.84,1230.13 1949.2,1230.15 
  1952.56,1230.17 1955.91,1230.19 1959.27,1230.21 1962.63,1230.22 1965.99,1230.24 1969.34,1230.24 1972.7,1230.25 1976.06,1230.25 1979.41,1230.25 1982.77,1230.25 
  1986.13,1230.25 1989.49,1230.24 1992.84,1230.24 1996.2,1230.23 1999.56,1230.22 2002.92,1230.21 2006.27,1230.19 2009.63,1230.18 2012.99,1230.16 2016.35,1230.14 
  2019.7,1230.12 2023.06,1230.1 2026.42,1230.08 2029.78,1230.06 2033.13,1230.03 2036.49,1230.01 2039.85,1229.98 2043.21,1229.96 2046.56,1229.93 2049.92,1229.9 
  2053.28,1229.87 2056.63,1229.84 2059.99,1229.81 2063.35,1229.78 2066.71,1229.75 2070.06,1229.72 2073.42,1229.69 2076.78,1229.66 2080.14,1229.63 2083.49,1229.59 
  2086.85,1229.56 2090.21,1229.53 2093.57,1229.49 2096.92,1229.46 2100.28,1229.42 2103.64,1229.39 2107,1229.35 2110.35,1229.32 2113.71,1229.28 2117.07,1229.25 
  2120.42,1229.21 2123.78,1229.18 2127.14,1229.14 2130.5,1229.11 2133.85,1229.07 2137.21,1229.04 2140.57,1229 2143.93,1228.97 2147.28,1228.93 2150.64,1228.9 
  2154,1228.86 2157.36,1228.83 2160.71,1228.79 2164.07,1228.76 2167.43,1228.72 2170.79,1228.69 2174.14,1228.66 2177.5,1228.62 2180.86,1228.59 2184.22,1228.55 
  2187.57,1228.52 2190.93,1228.49 2194.29,1228.46 2197.64,1228.42 2201,1228.39 2204.36,1228.36 2207.72,1228.33 2211.07,1228.29 2214.43,1228.26 2217.79,1228.23 
  2221.15,1228.2 2224.5,1228.17 2227.86,1228.14 2231.22,1228.11 2234.58,1228.08 2237.93,1228.05 2241.29,1228.02 2244.65,1227.99 2248.01,1227.96 2251.36,1227.93 
  2254.72,1227.9 2258.08,1227.87 2261.44,1227.85 2264.79,1227.82 2268.15,1227.79 2271.51,1227.76 2274.86,1227.74 2278.22,1227.71 2281.58,1227.68 2284.94,1227.66 
  2288.29,1227.63 2291.65,1227.61 2295.01,1227.58 2298.37,1227.56 2301.72,1227.53 2305.08,1227.51 2308.44,1227.48 2311.8,1227.46 2315.15,1227.44 2318.51,1227.41 
  2321.87,1227.39 2325.23,1227.37 2328.58,1227.35 2331.94,1227.32 2335.3,1227.3 2338.65,1227.28 2342.01,1227.26 2345.37,1227.24 2348.73,1227.22 2352.08,1227.2 
  2355.44,1227.18 2358.8,1227.16 2362.16,1227.14 2365.51,1227.12 2368.87,1227.1 2372.23,1227.08 2375.59,1227.06 2378.94,1227.04 2382.3,1227.03 2385.66,1227.01 
  2389.02,1226.99 2392.37,1226.97 2395.73,1226.96 2399.09,1226.94 2402.45,1226.92 2405.8,1226.91 2409.16,1226.89 2412.52,1226.88 2415.87,1226.86 2419.23,1226.85 
  2422.59,1226.83 2425.95,1226.82 2429.3,1226.8 2432.66,1226.79 2436.02,1226.77 2439.38,1226.76 2442.73,1226.75 2446.09,1226.73 2449.45,1226.72 2452.81,1226.71 
  2456.16,1226.69 2459.52,1226.68 2462.88,1226.67 2466.24,1226.66 2469.59,1226.64 2472.95,1226.63 2476.31,1226.62 2479.67,1226.61 2483.02,1226.6 2486.38,1226.59 
  2489.74,1226.58 2493.09,1226.57 2496.45,1226.56 2499.81,1226.55 2503.17,1226.54 2506.52,1226.53 2509.88,1226.52 2513.24,1226.51 2516.6,1226.5 2519.95,1226.49 
  2523.31,1226.48 2526.67,1226.47 2530.03,1226.46 2533.38,1226.46 2536.74,1226.45 2540.1,1226.44 2543.46,1226.43 2546.81,1226.42 2550.17,1226.42 2553.53,1226.41 
  2556.88,1226.4 2560.24,1226.39 2563.6,1226.39 2566.96,1226.38 2570.31,1226.37 2573.67,1226.37 2577.03,1226.36 2580.39,1226.36 2583.74,1226.35 2587.1,1226.34 
  2590.46,1226.34 2593.82,1226.33 2597.17,1226.33 2600.53,1226.32 2603.89,1226.32 2607.25,1226.31 2610.6,1226.31 2613.96,1226.3 2617.32,1226.3 2620.68,1226.29 
  2624.03,1226.29 2627.39,1226.29 2630.75,1226.28 2634.1,1226.28 2637.46,1226.27 2640.82,1226.27 2644.18,1226.27 2647.53,1226.26 2650.89,1226.26 2654.25,1226.26 
  2657.61,1226.25 2660.96,1226.25 2664.32,1226.25 2667.68,1226.24 2671.04,1226.24 2674.39,1226.24 2677.75,1226.24 2681.11,1226.23 2684.47,1226.23 2687.82,1226.23 
  2691.18,1226.23 2694.54,1226.23 2697.89,1226.22 2701.25,1226.22 2704.61,1226.22 2707.97,1226.22 2711.32,1226.22 2714.68,1226.22 2718.04,1226.21 2721.4,1226.21 
  2724.75,1226.21 2728.11,1226.21 2731.47,1226.21 2734.83,1226.21 2738.18,1226.21 2741.54,1226.21 2744.9,1226.21 2748.26,1226.21 2751.61,1226.21 2754.97,1226.21 
  2758.33,1226.21 2761.69,1226.21 2765.04,1226.21 2768.4,1226.21 2771.76,1226.21 2775.11,1226.21 2778.47,1226.21 2781.83,1226.21 2785.19,1226.21 2788.54,1226.21 
  2791.9,1226.21 2795.26,1226.21 2798.62,1226.21 2801.97,1226.21 2805.33,1226.21 2808.69,1226.21 2812.05,1226.21 2815.4,1226.21 2818.76,1226.21 2822.12,1226.21 
  2825.48,1226.21 2828.83,1226.22 2832.19,1226.22 2835.55,1226.22 2838.91,1226.22 2842.26,1226.22 2845.62,1226.22 2848.98,1226.22 2852.33,1226.22 2855.69,1226.23 
  2859.05,1226.23 2862.41,1226.23 2865.76,1226.23 2869.12,1226.23 2872.48,1226.23 2875.84,1226.24 2879.19,1226.24 2882.55,1226.24 2885.91,1226.24 2889.27,1226.24 
  2892.62,1226.25 2895.98,1226.25 2899.34,1226.25 2902.7,1226.25 2906.05,1226.25 2909.41,1226.26 2912.77,1226.26 2916.12,1226.26 2919.48,1226.26 2922.84,1226.27 
  2926.2,1226.27 2929.55,1226.27 2932.91,1226.27 2936.27,1226.28 2939.63,1226.28 2942.98,1226.28 2946.34,1226.28 2949.7,1226.29 2953.06,1226.29 2956.41,1226.29 
  2959.77,1226.29 2963.13,1226.3 2966.49,1226.3 2969.84,1226.3 2973.2,1226.31 2976.56,1226.31 2979.92,1226.31 2983.27,1226.32 2986.63,1226.32 2989.99,1226.32 
  2993.34,1226.32 2996.7,1226.33 3000.06,1226.33 3003.42,1226.33 3006.77,1226.34 3010.13,1226.34 3013.49,1226.34 3016.85,1226.35 3020.2,1226.35 3023.56,1226.35 
  
  "/>
<polyline clip-path="url(#clip382)" style="stroke:#000000; stroke-linecap:round; stroke-linejoin:round; stroke-width:6; stroke-opacity:1; fill:none" stroke-dasharray="24, 15" points="
  508.041,1293.84 509.72,1293.76 511.399,1293.69 513.078,1293.61 514.756,1293.53 516.435,1293.45 518.114,1293.37 519.792,1293.29 521.471,1293.2 523.15,1293.11 
  524.828,1293.02 526.507,1292.92 528.186,1292.82 529.864,1292.72 531.543,1292.62 533.222,1292.51 534.901,1292.4 536.579,1292.29 538.258,1292.17 539.937,1292.05 
  541.615,1291.93 543.294,1291.81 544.973,1291.68 546.651,1291.54 548.33,1291.41 550.009,1291.27 551.687,1291.12 553.366,1290.98 555.045,1290.83 556.724,1290.67 
  558.402,1290.51 560.081,1290.35 561.76,1290.18 563.438,1290.01 565.117,1289.83 566.796,1289.65 568.474,1289.46 570.153,1289.27 571.832,1289.07 573.51,1288.87 
  575.189,1288.66 576.868,1288.45 578.547,1288.24 580.225,1288.01 581.904,1287.78 583.583,1287.55 585.261,1287.31 586.94,1287.06 588.619,1286.81 590.297,1286.55 
  591.976,1286.29 593.655,1286.01 595.333,1285.74 597.012,1285.45 598.691,1285.16 600.37,1284.86 602.048,1284.55 603.727,1284.24 605.406,1283.91 607.084,1283.58 
  608.763,1283.25 610.442,1282.9 612.12,1282.55 613.799,1282.18 615.478,1281.81 617.156,1281.43 618.835,1281.04 620.514,1280.65 622.193,1280.24 623.871,1279.82 
  625.55,1279.4 627.229,1278.96 628.907,1278.52 630.586,1278.06 632.265,1277.59 633.943,1277.12 635.622,1276.63 637.301,1276.13 638.979,1275.62 640.658,1275.1 
  642.337,1274.57 644.016,1274.02 645.694,1273.46 647.373,1272.9 649.052,1272.31 650.73,1271.72 652.409,1271.11 654.088,1270.49 655.766,1269.86 657.445,1269.21 
  659.124,1268.55 660.802,1267.88 662.481,1267.19 664.16,1266.48 665.839,1265.77 667.517,1265.03 669.196,1264.28 670.875,1263.52 672.553,1262.74 674.232,1261.95 
  675.911,1261.13 677.589,1260.31 679.268,1259.46 680.947,1258.6 682.625,1257.72 684.304,1256.82 685.983,1255.91 687.661,1254.97 689.34,1254.02 691.019,1253.05 
  692.698,1252.06 694.376,1251.06 696.055,1250.03 697.734,1248.98 699.412,1247.91 701.091,1246.83 702.77,1245.72 704.448,1244.59 706.127,1243.44 707.806,1242.27 
  709.484,1241.07 711.163,1239.86 712.842,1238.62 714.521,1237.36 716.199,1236.08 717.878,1234.77 719.557,1233.44 721.235,1232.09 722.914,1230.71 724.593,1229.31 
  726.271,1227.88 727.95,1226.43 729.629,1224.95 731.307,1223.45 732.986,1221.92 734.665,1220.36 736.344,1218.78 738.022,1217.17 739.701,1215.53 741.38,1213.87 
  743.058,1212.18 744.737,1210.46 746.416,1208.71 748.094,1206.93 749.773,1205.13 751.452,1203.29 753.13,1201.43 754.809,1199.53 756.488,1197.61 758.167,1195.65 
  759.845,1193.67 761.524,1191.65 763.203,1189.6 764.881,1187.52 766.56,1185.41 768.239,1183.27 769.917,1181.09 771.596,1178.88 773.275,1176.64 774.953,1174.36 
  776.632,1172.05 778.311,1169.71 779.99,1167.33 781.668,1164.92 783.347,1162.47 785.026,1159.99 786.704,1157.47 788.383,1154.92 790.062,1152.33 791.74,1149.71 
  793.419,1147.04 795.098,1144.35 796.776,1141.61 798.455,1138.84 800.134,1136.03 801.813,1133.19 803.491,1130.31 805.17,1127.38 806.849,1124.43 808.527,1121.43 
  810.206,1118.39 811.885,1115.32 813.563,1112.2 815.242,1109.05 816.921,1105.86 818.599,1102.63 820.278,1099.36 821.957,1096.05 823.636,1092.7 825.314,1089.31 
  826.993,1085.88 828.672,1082.42 830.35,1078.91 832.029,1075.36 833.708,1071.77 835.386,1068.13 837.065,1064.46 838.744,1060.75 840.422,1057 842.101,1053.2 
  843.78,1049.37 845.459,1045.49 847.137,1041.58 848.816,1037.62 850.495,1033.62 852.173,1029.58 853.852,1025.5 855.531,1021.38 857.209,1017.22 858.888,1013.01 
  860.567,1008.77 862.245,1004.48 863.924,1000.16 865.603,995.792 867.282,991.385 868.96,986.938 870.639,982.45 872.318,977.922 873.996,973.354 875.675,968.746 
  877.354,964.098 879.032,959.411 880.711,954.684 882.39,949.917 884.068,945.112 885.747,940.268 887.426,935.385 889.105,930.464 890.783,925.505 892.462,920.508 
  894.141,915.473 895.819,910.401 897.498,905.292 899.177,900.146 900.855,894.964 902.534,889.746 904.213,884.492 905.891,879.203 907.57,873.879 909.249,868.521 
  910.928,863.128 912.606,857.702 914.285,852.243 915.964,846.751 917.642,841.226 919.321,835.669 921,830.082 922.678,824.463 924.357,818.814 926.036,813.135 
  927.714,807.426 929.393,801.689 931.072,795.924 932.75,790.131 934.429,784.311 936.108,778.465 937.787,772.592 939.465,766.695 941.144,760.773 942.823,754.827 
  944.501,748.858 946.18,742.867 947.859,736.854 949.537,730.819 951.216,724.765 952.895,718.69 954.573,712.597 956.252,706.485 957.931,700.357 959.61,694.211 
  961.288,688.05 962.967,681.874 964.646,675.683 966.324,669.48 968.003,663.263 969.682,657.036 971.36,650.797 973.039,644.549 974.718,638.291 976.396,632.025 
  978.075,625.753 979.754,619.473 981.433,613.189 983.111,606.9 984.79,600.608 986.469,594.313 988.147,588.017 989.826,581.72 991.505,575.423 993.183,569.128 
  994.862,562.835 996.541,556.546 998.219,550.261 999.898,543.982 1001.58,537.709 1003.26,531.444 1004.93,525.187 1006.61,518.94 1008.29,512.703 1009.97,506.479 
  1011.65,500.267 1013.33,494.069 1015.01,487.886 1016.69,481.72 1018.36,475.57 1020.04,469.439 1021.72,463.327 1023.4,457.235 1025.08,451.166 1026.76,445.119 
  1028.44,439.095 1030.11,433.097 1031.79,427.124 1033.47,421.179 1035.15,415.262 1036.83,409.375 1038.51,403.518 1040.19,397.692 1041.87,391.9 1043.54,386.141 
  1045.22,380.417 1046.9,374.73 1048.58,369.08 1050.26,363.468 1051.94,357.895 1053.62,352.363 1055.3,346.873 1056.97,341.426 1058.65,336.022 1060.33,330.664 
  1062.01,325.351 1063.69,320.086 1065.37,314.869 1067.05,309.701 1068.72,304.584 1070.4,299.518 1072.08,294.505 1073.76,289.545 1075.44,284.64 1077.12,279.791 
  1078.8,274.998 1080.48,270.263 1082.15,265.587 1083.83,260.97 1085.51,256.414 1087.19,251.92 1088.87,247.489 1090.55,243.121 1092.23,238.818 1093.9,234.58 
  1095.58,230.408 1097.26,226.304 1098.94,222.269 1100.62,218.302 1102.3,214.405 1103.98,210.58 1105.66,206.826 1107.33,203.145 1109.01,199.537 1110.69,196.003 
  1112.37,192.544 1114.05,189.161 1115.73,185.855 1117.41,182.626 1119.09,179.475 1120.76,176.402 1122.44,173.409 1124.12,170.497 1125.8,167.665 1127.48,164.914 
  1129.16,162.245 1130.84,159.66 1132.51,157.157 1134.19,154.738 1135.87,152.404 1137.55,150.154 1139.23,147.99 1140.91,145.912 1142.59,143.921 1144.27,142.016 
  1145.94,140.199 1147.62,138.469 1149.3,136.828 1150.98,135.275 1152.66,133.811 1154.34,132.436 1156.02,131.151 1157.7,129.956 1159.37,128.851 1161.05,127.836 
  1162.73,126.912 1164.41,126.079 1166.09,125.337 1167.77,124.686 1169.45,124.126 1171.12,123.658 1172.8,123.282 1174.48,122.997 1176.16,122.805 1177.84,122.704 
  1179.52,122.694 1181.2,122.777 1182.88,122.952 1184.55,123.218 1186.23,123.576 1187.91,124.025 1189.59,124.567 1191.27,125.199 1192.95,125.923 1194.63,126.738 
  1196.31,127.644 1197.98,128.641 1199.66,129.728 1201.34,130.905 1203.02,132.172 1204.7,133.529 1206.38,134.975 1208.06,136.51 1209.73,138.134 1211.41,139.846 
  1213.09,141.645 1214.77,143.533 1216.45,145.507 1218.13,147.568 1219.81,149.714 1221.49,151.947 1223.16,154.264 1224.84,156.666 1226.52,159.152 1228.2,161.721 
  1229.88,164.373 1231.56,167.107 1233.24,169.923 1234.92,172.82 1236.59,175.797 1238.27,178.853 1239.95,181.988 1241.63,185.202 1243.31,188.493 1244.99,191.86 
  1246.67,195.304 1248.34,198.823 1250.02,202.416 1251.7,206.082 1253.38,209.822 1255.06,213.633 1256.74,217.515 1258.42,221.468 1260.1,225.49 1261.77,229.58 
  1263.45,233.738 1265.13,237.962 1266.81,242.252 1268.49,246.607 1270.17,251.026 1271.85,255.507 1273.52,260.051 1275.2,264.655 1276.88,269.319 1278.56,274.042 
  1280.24,278.823 1281.92,283.661 1283.6,288.555 1285.28,293.503 1286.95,298.505 1288.63,303.56 1290.31,308.667 1291.99,313.824 1293.67,319.031 1295.35,324.286 
  1297.03,329.588 1298.71,334.937 1300.38,340.331 1302.06,345.769 1303.74,351.25 1305.42,356.773 1307.1,362.337 1308.78,367.94 1310.46,373.582 1312.13,379.261 
  1313.81,384.976 1315.49,390.727 1317.17,396.512 1318.85,402.329 1320.53,408.179 1322.21,414.059 1323.89,419.968 1325.56,425.906 1327.24,431.872 1328.92,437.863 
  1330.6,443.879 1332.28,449.92 1333.96,455.983 1335.64,462.068 1337.32,468.173 1338.99,474.298 1340.67,480.441 1342.35,486.602 1344.03,492.779 1345.71,498.97 
  1347.39,505.176 1349.07,511.394 1350.74,517.624 1352.42,523.865 1354.1,530.116 1355.78,536.375 1357.46,542.641 1359.14,548.914 1360.82,555.193 1362.5,561.476 
  1364.17,567.762 1365.85,574.05 1367.53,580.339 1369.21,586.629 1370.89,592.918 1372.57,599.206 1374.25,605.49 1375.93,611.771 1377.6,618.047 1379.28,624.317 
  1380.96,630.581 1382.64,636.837 1384.32,643.085 1386,649.323 1387.68,655.551 1389.35,661.768 1391.03,667.972 1392.71,674.164 1394.39,680.341 1396.07,686.504 
  1397.75,692.651 1399.43,698.781 1401.11,704.894 1402.78,710.989 1404.46,717.065 1406.14,723.121 1407.82,729.156 1409.5,735.17 1411.18,741.162 1412.86,747.131 
  1414.54,753.076 1416.21,758.996 1417.89,764.892 1419.57,770.761 1421.25,776.604 1422.93,782.42 1424.61,788.208 1426.29,793.966 1427.96,799.696 1429.64,805.395 
  1431.32,811.064 1433,816.701 1434.68,822.307 1436.36,827.879 1438.04,833.419 1439.72,838.925 1441.39,844.396 1443.07,849.832 1444.75,855.233 1446.43,860.598 
  1448.11,865.926 1449.79,871.217 1451.47,876.47 1453.14,881.685 1454.82,886.861 1456.5,891.997 1458.18,897.094 1459.86,902.151 1461.54,907.167 1463.22,912.141 
  1464.9,917.074 1466.57,921.965 1468.25,926.813 1469.93,931.618 1471.61,936.38 1473.29,941.097 1474.97,945.771 1476.65,950.399 1478.33,954.983 1480,959.521 
  1481.68,964.012 1483.36,968.458 1485.04,972.857 1486.72,977.208 1488.4,981.512 1490.08,985.769 1491.75,989.977 1493.43,994.136 1495.11,998.247 1496.79,1002.31 
  1498.47,1006.32 1500.15,1010.28 1501.83,1014.19 1503.51,1018.05 1505.18,1021.86 1506.86,1025.62 1508.54,1029.33 1510.22,1032.98 1511.9,1036.59 1513.58,1040.14 
  1515.26,1043.64 1516.94,1047.08 1518.61,1050.47 1520.29,1053.81 1521.97,1057.09 1523.65,1060.32 1525.33,1063.49 1527.01,1066.61 1528.69,1069.68 1530.36,1072.68 
  1532.04,1075.64 1533.72,1078.53 1535.4,1081.37 1537.08,1084.16 1538.76,1086.88 1540.44,1089.55 1542.12,1092.16 1543.79,1094.72 1545.47,1097.21 1547.15,1099.65 
  1548.83,1102.03 1550.51,1104.35 1552.19,1106.61 1553.87,1108.81 1555.55,1110.95 1557.22,1113.03 1558.9,1115.05 1560.58,1117.01 1562.26,1118.91 1563.94,1120.75 
  1565.62,1122.53 1567.3,1124.24 1568.97,1125.9 1570.65,1127.49 1572.33,1129.02 1574.01,1130.48 1575.69,1131.89 1577.37,1133.23 1579.05,1134.5 1580.73,1135.72 
  1582.4,1136.87 1584.08,1137.95 1585.76,1138.98 1587.44,1139.93 1589.12,1140.83 1590.8,1141.65 1592.48,1142.42 1594.16,1143.12 1595.83,1143.75 1597.51,1144.31 
  1599.19,1144.82 1600.87,1145.25 1602.55,1145.62 1604.23,1145.92 1605.91,1146.16 1607.58,1146.33 1609.26,1146.44 1610.94,1146.47 1612.62,1146.45 1614.3,1146.35 
  1615.98,1146.19 1617.66,1145.96 1619.34,1145.66 1621.01,1145.3 1622.69,1144.87 1624.37,1144.38 1626.05,1143.81 1627.73,1143.18 1629.41,1142.49 1631.09,1141.72 
  1632.76,1140.9 1634.44,1140 1636.12,1139.04 1637.8,1138.01 1639.48,1136.92 1641.16,1135.76 1642.84,1134.54 1644.52,1133.25 1646.19,1131.9 1647.87,1130.48 
  1649.55,1129 1651.23,1127.45 1652.91,1125.85 1654.59,1124.17 1656.27,1122.44 1657.95,1120.65 1659.62,1118.79 1661.3,1116.87 1662.98,1114.89 1664.66,1112.85 
  1666.34,1110.76 1668.02,1108.6 1669.7,1106.39 1671.37,1104.12 1673.05,1101.79 1674.73,1099.41 1676.41,1096.97 1678.09,1094.48 1679.77,1091.93 1681.45,1089.34 
  1683.13,1086.69 1684.8,1083.99 1686.48,1081.24 1688.16,1078.44 1689.84,1075.6 1691.52,1072.71 1693.2,1069.77 1694.88,1066.79 1696.56,1063.77 1698.23,1060.71 
  1699.91,1057.6 1701.59,1054.46 1703.27,1051.28 1704.95,1048.06 1706.63,1044.81 1708.31,1041.52 1709.98,1038.21 1711.66,1034.86 1713.34,1031.48 1715.02,1028.07 
  1716.7,1024.64 1718.38,1021.19 1720.06,1017.71 1721.74,1014.21 1723.41,1010.69 1725.09,1007.15 1726.77,1003.6 1728.45,1000.03 1730.13,996.446 1731.81,992.854 
  1733.49,989.253 1735.17,985.644 1736.84,982.03 1738.52,978.412 1740.2,974.793 1741.88,971.174 1743.56,967.556 1745.24,963.943 1746.92,960.336 1748.59,956.736 
  1750.27,953.147 1751.95,949.569 1753.63,946.005 1755.31,942.456 1756.99,938.925 1758.67,935.414 1760.35,931.925 1762.02,928.459 1763.7,925.018 1765.38,921.606 
  1767.06,918.223 1768.74,914.871 1770.42,911.553 1772.1,908.27 1773.78,905.025 1775.45,901.819 1777.13,898.654 1778.81,895.532 1780.49,892.456 1782.17,889.426 
  1783.85,886.445 1785.53,883.515 1787.2,880.637 1788.88,877.813 1790.56,875.046 1792.24,872.335 1793.92,869.685 1795.6,867.095 1797.28,864.568 1798.96,862.105 
  1800.63,859.709 1802.31,857.379 1803.99,855.119 1805.67,852.929 1807.35,850.811 1809.03,848.766 1810.71,846.795 1812.39,844.901 1814.06,843.084 1815.74,841.345 
  1817.42,839.685 1819.1,838.107 1820.78,836.61 1822.46,835.195 1824.14,833.865 1825.81,832.619 1827.49,831.459 1829.17,830.385 1830.85,829.398 1832.53,828.499 
  1834.21,827.688 1835.89,826.967 1837.57,826.335 1839.24,825.794 1840.92,825.343 1842.6,824.982 1844.28,824.714 1845.96,824.537 1847.64,824.451 1849.32,824.458 
  1850.99,824.556 1852.67,824.747 1854.35,825.029 1856.03,825.404 1857.71,825.87 1859.39,826.428 1861.07,827.077 1862.75,827.817 1864.42,828.648 1866.1,829.569 
  1867.78,830.58 1869.46,831.681 1871.14,832.87 1872.82,834.147 1874.5,835.511 1876.18,836.962 1877.85,838.498 1879.53,840.12 1881.21,841.826 1882.89,843.615 
  1884.57,845.486 1886.25,847.438 1887.93,849.47 1889.6,851.581 1891.28,853.77 1892.96,856.035 1894.64,858.375 1896.32,860.789 1898,863.276 1899.68,865.835 
  1901.36,868.463 1903.03,871.159 1904.71,873.922 1906.39,876.751 1908.07,879.644 1909.75,882.598 1911.43,885.614 1913.11,888.689 1914.79,891.821 1916.46,895.009 
  1918.14,898.251 1919.82,901.545 1921.5,904.89 1923.18,908.285 1924.86,911.726 1926.54,915.212 1928.21,918.743 1929.89,922.315 1931.57,925.927 1933.25,929.577 
  1934.93,933.264 1936.61,936.985 1938.29,940.739 1939.97,944.524 1941.64,948.338 1943.32,952.179 1945,956.046 1946.68,959.937 1948.36,963.849 1950.04,967.782 
  1951.72,971.732 1953.4,975.699 1955.07,979.681 1956.75,983.676 1958.43,987.682 1960.11,991.697 1961.79,995.721 1963.47,999.75 1965.15,1003.78 1966.82,1007.82 
  1968.5,1011.86 1970.18,1015.89 1971.86,1019.93 1973.54,1023.96 1975.22,1027.99 1976.9,1032.01 1978.58,1036.02 1980.25,1040.02 1981.93,1044.01 1983.61,1047.99 
  1985.29,1051.95 1986.97,1055.9 1988.65,1059.83 1990.33,1063.74 1992.01,1067.64 1993.68,1071.51 1995.36,1075.37 1997.04,1079.2 1998.72,1083 2000.4,1086.79 
  2002.08,1090.54 2003.76,1094.27 2005.43,1097.97 2007.11,1101.64 2008.79,1105.28 2010.47,1108.9 2012.15,1112.48 2013.83,1116.02 2015.51,1119.54 2017.19,1123.02 
  2018.86,1126.46 2020.54,1129.87 2022.22,1133.25 2023.9,1136.58 2025.58,1139.89 2027.26,1143.15 2028.94,1146.37 2030.61,1149.56 2032.29,1152.71 2033.97,1155.81 
  2035.65,1158.88 2037.33,1161.91 2039.01,1164.9 2040.69,1167.84 2042.37,1170.75 2044.04,1173.61 2045.72,1176.43 2047.4,1179.21 2049.08,1181.95 2050.76,1184.65 
  2052.44,1187.31 2054.12,1189.92 2055.8,1192.49 2057.47,1195.02 2059.15,1197.51 2060.83,1199.95 2062.51,1202.36 2064.19,1204.72 2065.87,1207.04 2067.55,1209.32 
  2069.22,1211.55 2070.9,1213.75 2072.58,1215.9 2074.26,1218.02 2075.94,1220.09 2077.62,1222.12 2079.3,1224.12 2080.98,1226.07 2082.65,1227.99 2084.33,1229.86 
  2086.01,1231.7 2087.69,1233.5 2089.37,1235.26 2091.05,1236.98 2092.73,1238.66 2094.41,1240.31 2096.08,1241.93 2097.76,1243.5 2099.44,1245.04 2101.12,1246.55 
  2102.8,1248.02 2104.48,1249.45 2106.16,1250.86 2107.83,1252.22 2109.51,1253.56 2111.19,1254.86 2112.87,1256.14 2114.55,1257.38 2116.23,1258.59 2117.91,1259.76 
  2119.59,1260.91 2121.26,1262.03 2122.94,1263.12 2124.62,1264.18 2126.3,1265.22 2127.98,1266.22 2129.66,1267.2 2131.34,1268.16 2133.02,1269.08 2134.69,1269.98 
  2136.37,1270.86 2138.05,1271.71 2139.73,1272.54 2141.41,1273.34 2143.09,1274.13 2144.77,1274.88 2146.44,1275.62 2148.12,1276.34 2149.8,1277.03 2151.48,1277.7 
  2153.16,1278.36 2154.84,1278.99 2156.52,1279.6 2158.2,1280.2 2159.87,1280.77 2161.55,1281.33 2163.23,1281.87 2164.91,1282.4 2166.59,1282.91 2168.27,1283.4 
  2169.95,1283.87 2171.63,1284.33 2173.3,1284.78 2174.98,1285.21 2176.66,1285.62 2178.34,1286.03 2180.02,1286.41 2181.7,1286.79 2183.38,1287.15 2185.05,1287.5 
  
  "/>
<path clip-path="url(#clip380)" d="
M1481.08 608.485 L2285.68 608.485 L2285.68 90.0846 L1481.08 90.0846  Z
  " fill="#ffffff" fill-rule="evenodd" fill-opacity="1"/>
<polyline clip-path="url(#clip380)" style="stroke:#000000; stroke-linecap:round; stroke-linejoin:round; stroke-width:4; stroke-opacity:1; fill:none" points="
  1481.08,608.485 2285.68,608.485 2285.68,90.0846 1481.08,90.0846 1481.08,608.485 
  "/>
<polyline clip-path="url(#clip380)" style="stroke:#009af9; stroke-linecap:round; stroke-linejoin:round; stroke-width:30; stroke-opacity:1; fill:none" points="
  1503.44,219.685 1637.6,219.685 
  "/>
<path clip-path="url(#clip380)" d="M1689.71 205.535 Q1681.14 205.535 1676.17 212.248 Q1671.19 218.903 1671.19 230.535 Q1671.19 242.167 1676.11 248.88 Q1681.08 255.535 1689.71 255.535 Q1698.21 255.535 1703.19 248.822 Q1708.17 242.109 1708.17 230.535 Q1708.17 219.019 1703.19 212.306 Q1698.21 205.535 1689.71 205.535 M1689.71 196.508 Q1703.6 196.508 1711.52 205.535 Q1719.45 214.563 1719.45 230.535 Q1719.45 246.45 1711.52 255.535 Q1703.6 264.563 1689.71 264.563 Q1675.76 264.563 1667.83 255.535 Q1659.96 246.45 1659.96 230.535 Q1659.96 214.563 1667.83 205.535 Q1675.76 196.508 1689.71 196.508 Z" fill="#000000" fill-rule="evenodd" fill-opacity="1" /><path clip-path="url(#clip380)" d="M1747.4 253.162 L1747.4 287.537 L1736.7 287.537 L1736.7 198.07 L1747.4 198.07 L1747.4 207.908 Q1750.76 202.121 1755.85 199.343 Q1761 196.508 1768.12 196.508 Q1779.93 196.508 1787.28 205.883 Q1794.68 215.258 1794.68 230.535 Q1794.68 245.813 1787.28 255.188 Q1779.93 264.563 1768.12 264.563 Q1761 264.563 1755.85 261.785 Q1750.76 258.949 1747.4 253.162 M1783.63 230.535 Q1783.63 218.788 1778.77 212.133 Q1773.97 205.42 1765.52 205.42 Q1757.07 205.42 1752.21 212.133 Q1747.4 218.788 1747.4 230.535 Q1747.4 242.283 1752.21 248.996 Q1757.07 255.651 1765.52 255.651 Q1773.97 255.651 1778.77 248.996 Q1783.63 242.283 1783.63 230.535 Z" fill="#000000" fill-rule="evenodd" fill-opacity="1" /><path clip-path="url(#clip380)" d="M1822.87 179.667 L1822.87 198.07 L1844.8 198.07 L1844.8 206.346 L1822.87 206.346 L1822.87 241.531 Q1822.87 249.459 1825.01 251.716 Q1827.21 253.973 1833.86 253.973 L1844.8 253.973 L1844.8 262.885 L1833.86 262.885 Q1821.54 262.885 1816.85 258.313 Q1812.16 253.683 1812.16 241.531 L1812.16 206.346 L1804.35 206.346 L1804.35 198.07 L1812.16 198.07 L1812.16 179.667 L1822.87 179.667 Z" fill="#000000" fill-rule="evenodd" fill-opacity="1" /><path clip-path="url(#clip380)" d="M1900.01 253.047 L1919.1 253.047 L1919.1 187.133 L1898.33 191.299 L1898.33 180.651 L1918.99 176.485 L1930.68 176.485 L1930.68 253.047 L1949.78 253.047 L1949.78 262.885 L1900.01 262.885 L1900.01 253.047 Z" fill="#000000" fill-rule="evenodd" fill-opacity="1" /><path clip-path="url(#clip380)" d="M1983.46 253.047 L2024.25 253.047 L2024.25 262.885 L1969.39 262.885 L1969.39 253.047 Q1976.05 246.16 1987.51 234.586 Q1999.02 222.954 2001.97 219.598 Q2007.59 213.29 2009.79 208.95 Q2012.04 204.552 2012.04 200.327 Q2012.04 193.441 2007.18 189.1 Q2002.38 184.76 1994.62 184.76 Q1989.13 184.76 1982.99 186.67 Q1976.92 188.579 1969.97 192.457 L1969.97 180.651 Q1977.03 177.816 1983.17 176.369 Q1989.3 174.922 1994.39 174.922 Q2007.82 174.922 2015.8 181.635 Q2023.79 188.348 2023.79 199.575 Q2023.79 204.899 2021.77 209.702 Q2019.8 214.447 2014.53 220.929 Q2013.09 222.607 2005.33 230.651 Q1997.58 238.637 1983.46 253.047 Z" fill="#000000" fill-rule="evenodd" fill-opacity="1" /><path clip-path="url(#clip380)" d="M2073.79 221.855 Q2065.46 221.855 2060.65 226.311 Q2055.91 230.767 2055.91 238.579 Q2055.91 246.392 2060.65 250.848 Q2065.46 255.304 2073.79 255.304 Q2082.12 255.304 2086.93 250.848 Q2091.73 246.334 2091.73 238.579 Q2091.73 230.767 2086.93 226.311 Q2082.18 221.855 2073.79 221.855 M2062.1 216.878 Q2054.58 215.026 2050.35 209.876 Q2046.19 204.725 2046.19 197.318 Q2046.19 186.959 2053.54 180.941 Q2060.94 174.922 2073.79 174.922 Q2086.7 174.922 2094.05 180.941 Q2101.39 186.959 2101.39 197.318 Q2101.39 204.725 2097.17 209.876 Q2093 215.026 2085.54 216.878 Q2093.99 218.846 2098.67 224.575 Q2103.42 230.304 2103.42 238.579 Q2103.42 251.137 2095.72 257.85 Q2088.08 264.563 2073.79 264.563 Q2059.5 264.563 2051.8 257.85 Q2044.16 251.137 2044.16 238.579 Q2044.16 230.304 2048.91 224.575 Q2053.65 218.846 2062.1 216.878 M2057.82 198.417 Q2057.82 205.13 2061.99 208.892 Q2066.21 212.653 2073.79 212.653 Q2081.31 212.653 2085.54 208.892 Q2089.82 205.13 2089.82 198.417 Q2089.82 191.704 2085.54 187.943 Q2081.31 184.181 2073.79 184.181 Q2066.21 184.181 2061.99 187.943 Q2057.82 191.704 2057.82 198.417 Z" fill="#000000" fill-rule="evenodd" fill-opacity="1" /><path clip-path="url(#clip380)" d="M2169.22 230.535 Q2169.22 218.788 2164.36 212.133 Q2159.55 205.42 2151.11 205.42 Q2142.66 205.42 2137.8 212.133 Q2132.99 218.788 2132.99 230.535 Q2132.99 242.283 2137.8 248.996 Q2142.66 255.651 2151.11 255.651 Q2159.55 255.651 2164.36 248.996 Q2169.22 242.283 2169.22 230.535 M2132.99 207.908 Q2136.35 202.121 2141.44 199.343 Q2146.59 196.508 2153.71 196.508 Q2165.51 196.508 2172.86 205.883 Q2180.27 215.258 2180.27 230.535 Q2180.27 245.813 2172.86 255.188 Q2165.51 264.563 2153.71 264.563 Q2146.59 264.563 2141.44 261.785 Q2136.35 258.949 2132.99 253.162 L2132.99 262.885 L2122.29 262.885 L2122.29 172.839 L2132.99 172.839 L2132.99 207.908 Z" fill="#000000" fill-rule="evenodd" fill-opacity="1" /><path clip-path="url(#clip380)" d="M2197.92 198.07 L2208.57 198.07 L2208.57 262.885 L2197.92 262.885 L2197.92 198.07 M2197.92 172.839 L2208.57 172.839 L2208.57 186.323 L2197.92 186.323 L2197.92 172.839 Z" fill="#000000" fill-rule="evenodd" fill-opacity="1" /><path clip-path="url(#clip380)" d="M2241.38 179.667 L2241.38 198.07 L2263.32 198.07 L2263.32 206.346 L2241.38 206.346 L2241.38 241.531 Q2241.38 249.459 2243.52 251.716 Q2245.72 253.973 2252.38 253.973 L2263.32 253.973 L2263.32 262.885 L2252.38 262.885 Q2240.05 262.885 2235.36 258.313 Q2230.68 253.683 2230.68 241.531 L2230.68 206.346 L2222.86 206.346 L2222.86 198.07 L2230.68 198.07 L2230.68 179.667 L2241.38 179.667 Z" fill="#000000" fill-rule="evenodd" fill-opacity="1" /><polyline clip-path="url(#clip380)" style="stroke:#e26f46; stroke-linecap:round; stroke-linejoin:round; stroke-width:30; stroke-opacity:1; fill:none" points="
  1503.44,349.285 1637.6,349.285 
  "/>
<path clip-path="url(#clip380)" d="M1689.71 335.135 Q1681.14 335.135 1676.17 341.848 Q1671.19 348.503 1671.19 360.135 Q1671.19 371.767 1676.11 378.48 Q1681.08 385.135 1689.71 385.135 Q1698.21 385.135 1703.19 378.422 Q1708.17 371.709 1708.17 360.135 Q1708.17 348.619 1703.19 341.906 Q1698.21 335.135 1689.71 335.135 M1689.71 326.108 Q1703.6 326.108 1711.52 335.135 Q1719.45 344.163 1719.45 360.135 Q1719.45 376.05 1711.52 385.135 Q1703.6 394.163 1689.71 394.163 Q1675.76 394.163 1667.83 385.135 Q1659.96 376.05 1659.96 360.135 Q1659.96 344.163 1667.83 335.135 Q1675.76 326.108 1689.71 326.108 Z" fill="#000000" fill-rule="evenodd" fill-opacity="1" /><path clip-path="url(#clip380)" d="M1747.4 382.762 L1747.4 417.137 L1736.7 417.137 L1736.7 327.67 L1747.4 327.67 L1747.4 337.508 Q1750.76 331.721 1755.85 328.943 Q1761 326.108 1768.12 326.108 Q1779.93 326.108 1787.28 335.483 Q1794.68 344.858 1794.68 360.135 Q1794.68 375.413 1787.28 384.788 Q1779.93 394.163 1768.12 394.163 Q1761 394.163 1755.85 391.385 Q1750.76 388.549 1747.4 382.762 M1783.63 360.135 Q1783.63 348.388 1778.77 341.733 Q1773.97 335.02 1765.52 335.02 Q1757.07 335.02 1752.21 341.733 Q1747.4 348.388 1747.4 360.135 Q1747.4 371.883 1752.21 378.596 Q1757.07 385.251 1765.52 385.251 Q1773.97 385.251 1778.77 378.596 Q1783.63 371.883 1783.63 360.135 Z" fill="#000000" fill-rule="evenodd" fill-opacity="1" /><path clip-path="url(#clip380)" d="M1822.87 309.267 L1822.87 327.67 L1844.8 327.67 L1844.8 335.946 L1822.87 335.946 L1822.87 371.131 Q1822.87 379.059 1825.01 381.316 Q1827.21 383.573 1833.86 383.573 L1844.8 383.573 L1844.8 392.485 L1833.86 392.485 Q1821.54 392.485 1816.85 387.913 Q1812.16 383.283 1812.16 371.131 L1812.16 335.946 L1804.35 335.946 L1804.35 327.67 L1812.16 327.67 L1812.16 309.267 L1822.87 309.267 Z" fill="#000000" fill-rule="evenodd" fill-opacity="1" /><path clip-path="url(#clip380)" d="M1924.43 344.626 Q1916.56 344.626 1911.93 350.008 Q1907.36 355.39 1907.36 364.765 Q1907.36 374.082 1911.93 379.522 Q1916.56 384.904 1924.43 384.904 Q1932.3 384.904 1936.87 379.522 Q1941.5 374.082 1941.5 364.765 Q1941.5 355.39 1936.87 350.008 Q1932.3 344.626 1924.43 344.626 M1947.63 307.994 L1947.63 318.642 Q1943.24 316.559 1938.72 315.46 Q1934.27 314.36 1929.87 314.36 Q1918.29 314.36 1912.16 322.172 Q1906.08 329.985 1905.22 345.783 Q1908.63 340.749 1913.78 338.087 Q1918.93 335.367 1925.12 335.367 Q1938.14 335.367 1945.67 343.295 Q1953.25 351.165 1953.25 364.765 Q1953.25 378.075 1945.38 386.119 Q1937.51 394.163 1924.43 394.163 Q1909.44 394.163 1901.51 382.705 Q1893.58 371.188 1893.58 349.371 Q1893.58 328.885 1903.31 316.733 Q1913.03 304.522 1929.4 304.522 Q1933.8 304.522 1938.26 305.39 Q1942.77 306.258 1947.63 307.994 Z" fill="#000000" fill-rule="evenodd" fill-opacity="1" /><path clip-path="url(#clip380)" d="M2005.5 316.27 L1975.99 362.392 L2005.5 362.392 L2005.5 316.27 M2002.44 306.085 L2017.14 306.085 L2017.14 362.392 L2029.46 362.392 L2029.46 372.114 L2017.14 372.114 L2017.14 392.485 L2005.5 392.485 L2005.5 372.114 L1966.5 372.114 L1966.5 360.83 L2002.44 306.085 Z" fill="#000000" fill-rule="evenodd" fill-opacity="1" /><path clip-path="url(#clip380)" d="M2093.81 360.135 Q2093.81 348.388 2088.95 341.733 Q2084.15 335.02 2075.7 335.02 Q2067.25 335.02 2062.39 341.733 Q2057.59 348.388 2057.59 360.135 Q2057.59 371.883 2062.39 378.596 Q2067.25 385.251 2075.7 385.251 Q2084.15 385.251 2088.95 378.596 Q2093.81 371.883 2093.81 360.135 M2057.59 337.508 Q2060.94 331.721 2066.04 328.943 Q2071.19 326.108 2078.3 326.108 Q2090.11 326.108 2097.46 335.483 Q2104.87 344.858 2104.87 360.135 Q2104.87 375.413 2097.46 384.788 Q2090.11 394.163 2078.3 394.163 Q2071.19 394.163 2066.04 391.385 Q2060.94 388.549 2057.59 382.762 L2057.59 392.485 L2046.88 392.485 L2046.88 302.439 L2057.59 302.439 L2057.59 337.508 Z" fill="#000000" fill-rule="evenodd" fill-opacity="1" /><path clip-path="url(#clip380)" d="M2122.52 327.67 L2133.17 327.67 L2133.17 392.485 L2122.52 392.485 L2122.52 327.67 M2122.52 302.439 L2133.17 302.439 L2133.17 315.923 L2122.52 315.923 L2122.52 302.439 Z" fill="#000000" fill-rule="evenodd" fill-opacity="1" /><path clip-path="url(#clip380)" d="M2165.98 309.267 L2165.98 327.67 L2187.91 327.67 L2187.91 335.946 L2165.98 335.946 L2165.98 371.131 Q2165.98 379.059 2168.12 381.316 Q2170.32 383.573 2176.97 383.573 L2187.91 383.573 L2187.91 392.485 L2176.97 392.485 Q2164.65 392.485 2159.96 387.913 Q2155.27 383.283 2155.27 371.131 L2155.27 335.946 L2147.46 335.946 L2147.46 327.67 L2155.27 327.67 L2155.27 309.267 L2165.98 309.267 Z" fill="#000000" fill-rule="evenodd" fill-opacity="1" /><polyline clip-path="url(#clip380)" style="stroke:#000000; stroke-linecap:round; stroke-linejoin:round; stroke-width:15; stroke-opacity:1; fill:none" stroke-dasharray="60, 38" points="
  1503.44,478.885 1637.6,478.885 
  "/>
<path clip-path="url(#clip380)" d="M1720.03 487.015 L1720.03 492.224 L1671.07 492.224 Q1671.77 503.219 1677.67 509.006 Q1683.63 514.735 1694.22 514.735 Q1700.36 514.735 1706.08 513.231 Q1711.87 511.726 1717.54 508.717 L1717.54 518.786 Q1711.81 521.217 1705.8 522.49 Q1699.78 523.763 1693.58 523.763 Q1678.08 523.763 1668.99 514.735 Q1659.96 505.707 1659.96 490.314 Q1659.96 474.4 1668.53 465.083 Q1677.15 455.708 1691.73 455.708 Q1704.81 455.708 1712.39 464.157 Q1720.03 472.548 1720.03 487.015 M1709.38 483.89 Q1709.27 475.152 1704.46 469.944 Q1699.72 464.735 1691.85 464.735 Q1682.94 464.735 1677.55 469.77 Q1672.23 474.805 1671.42 483.948 L1709.38 483.89 Z" fill="#000000" fill-rule="evenodd" fill-opacity="1" /><path clip-path="url(#clip380)" d="M1789.3 457.27 L1765.86 488.809 L1790.52 522.085 L1777.96 522.085 L1759.09 496.622 L1740.23 522.085 L1727.67 522.085 L1752.84 488.173 L1729.81 457.27 L1742.37 457.27 L1759.56 480.36 L1776.74 457.27 L1789.3 457.27 Z" fill="#000000" fill-rule="evenodd" fill-opacity="1" /><path clip-path="url(#clip380)" d="M1835.02 489.504 Q1822.11 489.504 1817.14 492.455 Q1812.16 495.407 1812.16 502.525 Q1812.16 508.196 1815.86 511.552 Q1819.63 514.851 1826.05 514.851 Q1834.9 514.851 1840.23 508.601 Q1845.61 502.293 1845.61 491.876 L1845.61 489.504 L1835.02 489.504 M1856.26 485.106 L1856.26 522.085 L1845.61 522.085 L1845.61 512.247 Q1841.96 518.149 1836.52 520.985 Q1831.08 523.763 1823.21 523.763 Q1813.26 523.763 1807.36 518.207 Q1801.51 512.594 1801.51 503.219 Q1801.51 492.282 1808.8 486.726 Q1816.15 481.17 1830.68 481.17 L1845.61 481.17 L1845.61 480.129 Q1845.61 472.779 1840.75 468.786 Q1835.94 464.735 1827.21 464.735 Q1821.65 464.735 1816.38 466.066 Q1811.12 467.397 1806.26 470.059 L1806.26 460.222 Q1812.1 457.965 1817.6 456.865 Q1823.1 455.708 1828.31 455.708 Q1842.37 455.708 1849.31 462.999 Q1856.26 470.291 1856.26 485.106 Z" fill="#000000" fill-rule="evenodd" fill-opacity="1" /><path clip-path="url(#clip380)" d="M1924.83 459.759 L1924.83 469.712 Q1920.32 467.224 1915.75 466.009 Q1911.23 464.735 1906.6 464.735 Q1896.25 464.735 1890.52 471.333 Q1884.79 477.872 1884.79 489.735 Q1884.79 501.599 1890.52 508.196 Q1896.25 514.735 1906.6 514.735 Q1911.23 514.735 1915.75 513.52 Q1920.32 512.247 1924.83 509.758 L1924.83 519.596 Q1920.38 521.68 1915.57 522.721 Q1910.83 523.763 1905.45 523.763 Q1890.81 523.763 1882.18 514.562 Q1873.56 505.36 1873.56 489.735 Q1873.56 473.879 1882.24 464.793 Q1890.98 455.708 1906.14 455.708 Q1911.06 455.708 1915.75 456.749 Q1920.44 457.733 1924.83 459.759 Z" fill="#000000" fill-rule="evenodd" fill-opacity="1" /><path clip-path="url(#clip380)" d="M1953.88 438.867 L1953.88 457.27 L1975.82 457.27 L1975.82 465.546 L1953.88 465.546 L1953.88 500.731 Q1953.88 508.659 1956.03 510.916 Q1958.22 513.173 1964.88 513.173 L1975.82 513.173 L1975.82 522.085 L1964.88 522.085 Q1952.55 522.085 1947.87 517.513 Q1943.18 512.883 1943.18 500.731 L1943.18 465.546 L1935.37 465.546 L1935.37 457.27 L1943.18 457.27 L1943.18 438.867 L1953.88 438.867 Z" fill="#000000" fill-rule="evenodd" fill-opacity="1" /></svg>
