<?xml version="1.0" encoding="utf-8"?>
<svg xmlns="http://www.w3.org/2000/svg" xmlns:xlink="http://www.w3.org/1999/xlink" width="600" height="400" viewBox="0 0 2400 1600">
<defs>
  <clipPath id="clip370">
    <rect x="0" y="0" width="2400" height="1600"/>
  </clipPath>
</defs>
<path clip-path="url(#clip370)" d="M0 1600 L2400 1600 L2400 0 L0 0  Z" fill="#ffffff" fill-rule="evenodd" fill-opacity="1"/>
<defs>
  <clipPath id="clip371">
    <rect x="480" y="0" width="1681" height="1600"/>
  </clipPath>
</defs>
<defs>
  <clipPath id="clip372">
    <rect x="156" y="47" width="2197" height="1440"/>
  </clipPath>
</defs>
<path clip-path="url(#clip370)" d="M340.34 1332.46 L2352.76 1332.46 L2352.76 47.2441 L340.34 47.2441  Z" fill="#ffffff" fill-rule="evenodd" fill-opacity="1"/>
<defs>
  <clipPath id="clip373">
    <rect x="340" y="47" width="2013" height="1286"/>
  </clipPath>
</defs>
<polyline clip-path="url(#clip373)" style="stroke:#000000; stroke-linecap:round; stroke-linejoin:round; stroke-width:2; stroke-opacity:0.1; fill:none" points="2185.05,1332.46 2185.05,47.2441 "/>
<polyline clip-path="url(#clip373)" style="stroke:#000000; stroke-linecap:round; stroke-linejoin:round; stroke-width:2; stroke-opacity:0.1; fill:none" points="1346.55,1332.46 1346.55,47.2441 "/>
<polyline clip-path="url(#clip373)" style="stroke:#000000; stroke-linecap:round; stroke-linejoin:round; stroke-width:2; stroke-opacity:0.1; fill:none" points="508.041,1332.46 508.041,47.2441 "/>
<polyline clip-path="url(#clip370)" style="stroke:#000000; stroke-linecap:round; stroke-linejoin:round; stroke-width:4; stroke-opacity:1; fill:none" points="340.34,1332.46 2352.76,1332.46 "/>
<polyline clip-path="url(#clip370)" style="stroke:#000000; stroke-linecap:round; stroke-linejoin:round; stroke-width:4; stroke-opacity:1; fill:none" points="2185.05,1332.46 2185.05,1313.56 "/>
<polyline clip-path="url(#clip370)" style="stroke:#000000; stroke-linecap:round; stroke-linejoin:round; stroke-width:4; stroke-opacity:1; fill:none" points="1346.55,1332.46 1346.55,1313.56 "/>
<polyline clip-path="url(#clip370)" style="stroke:#000000; stroke-linecap:round; stroke-linejoin:round; stroke-width:4; stroke-opacity:1; fill:none" points="508.041,1332.46 508.041,1313.56 "/>
<path clip-path="url(#clip370)" d="M2166.83 1367.86 L2201.24 1367.86 L2201.24 1375.24 L2174.85 1375.24 L2174.85 1391.12 Q2176.76 1390.47 2178.67 1390.17 Q2180.58 1389.82 2182.49 1389.82 Q2193.34 1389.82 2199.68 1395.77 Q2206.02 1401.71 2206.02 1411.87 Q2206.02 1422.33 2199.51 1428.15 Q2193 1433.92 2181.15 1433.92 Q2177.07 1433.92 2172.82 1433.22 Q2168.61 1432.53 2164.09 1431.14 L2164.09 1422.33 Q2168 1424.46 2172.16 1425.5 Q2176.33 1426.54 2180.97 1426.54 Q2188.48 1426.54 2192.87 1422.59 Q2197.25 1418.64 2197.25 1411.87 Q2197.25 1405.1 2192.87 1401.15 Q2188.48 1397.2 2180.97 1397.2 Q2177.46 1397.2 2173.94 1397.98 Q2170.47 1398.76 2166.83 1400.41 L2166.83 1367.86 Z" fill="#000000" fill-rule="nonzero" fill-opacity="1" /><path clip-path="url(#clip370)" d="M1346.55 1373.63 Q1339.78 1373.63 1336.35 1380.32 Q1332.96 1386.96 1332.96 1400.32 Q1332.96 1413.65 1336.35 1420.33 Q1339.78 1426.97 1346.55 1426.97 Q1353.36 1426.97 1356.75 1420.33 Q1360.18 1413.65 1360.18 1400.32 Q1360.18 1386.96 1356.75 1380.32 Q1353.36 1373.63 1346.55 1373.63 M1346.55 1366.69 Q1357.44 1366.69 1363.17 1375.33 Q1368.94 1383.92 1368.94 1400.32 Q1368.94 1416.69 1363.17 1425.32 Q1357.44 1433.92 1346.55 1433.92 Q1335.65 1433.92 1329.88 1425.32 Q1324.15 1416.69 1324.15 1400.32 Q1324.15 1383.92 1329.88 1375.33 Q1335.65 1366.69 1346.55 1366.69 Z" fill="#000000" fill-rule="nonzero" fill-opacity="1" /><path clip-path="url(#clip370)" d="M451.119 1401.11 L506.761 1401.11 L506.761 1408.48 L451.119 1408.48 L451.119 1401.11 Z" fill="#000000" fill-rule="nonzero" fill-opacity="1" /><path clip-path="url(#clip370)" d="M525.771 1367.86 L560.19 1367.86 L560.19 1375.24 L533.801 1375.24 L533.801 1391.12 Q535.711 1390.47 537.62 1390.17 Q539.53 1389.82 541.44 1389.82 Q552.29 1389.82 558.627 1395.77 Q564.964 1401.71 564.964 1411.87 Q564.964 1422.33 558.454 1428.15 Q551.943 1433.92 540.094 1433.92 Q536.014 1433.92 531.761 1433.22 Q527.551 1432.53 523.037 1431.14 L523.037 1422.33 Q526.943 1424.46 531.11 1425.5 Q535.277 1426.54 539.921 1426.54 Q547.429 1426.54 551.813 1422.59 Q556.197 1418.64 556.197 1411.87 Q556.197 1405.1 551.813 1401.15 Q547.429 1397.2 539.921 1397.2 Q536.405 1397.2 532.889 1397.98 Q529.417 1398.76 525.771 1400.41 L525.771 1367.86 Z" fill="#000000" fill-rule="nonzero" fill-opacity="1" /><path clip-path="url(#clip370)" d="M1388.97 1506.65 Q1388.97 1513.46 1385.53 1526.64 Q1384.14 1532.35 1382.24 1537.54 Q1380.41 1542.67 1377.7 1547.64 Q1374.99 1552.62 1371.84 1556.21 Q1368.7 1559.72 1364.6 1561.92 Q1360.5 1564.11 1355.96 1564.11 Q1348.79 1564.11 1344.54 1559.87 Q1340.37 1555.55 1339.05 1548.16 Q1329.24 1564.11 1316.14 1564.11 Q1308.02 1564.11 1304.21 1558.33 Q1300.41 1552.47 1300.41 1542.67 Q1300.41 1534.39 1302.6 1525.83 Q1306.77 1509.58 1314.9 1498.24 Q1316 1496.92 1317.61 1496.92 Q1318.56 1496.92 1319 1497.21 Q1320.31 1498.02 1320.31 1499.33 Q1320.31 1500.29 1319.58 1501.24 Q1314.46 1508.34 1311.09 1514.41 Q1307.72 1520.49 1306.19 1526.64 Q1305.02 1531.91 1305.02 1536.37 Q1305.02 1543.91 1308.24 1548.59 Q1311.53 1553.28 1318.05 1553.28 Q1324.05 1553.28 1329.32 1549.55 Q1334.59 1545.74 1338.47 1539.37 Q1338.69 1532.42 1340.37 1525.83 Q1341.91 1518.8 1345.49 1518.8 Q1348.35 1518.8 1348.35 1522.68 Q1348.35 1524 1347.76 1526.64 Q1346.15 1533.59 1343.22 1539.81 Q1344.25 1545.89 1348.06 1549.62 Q1351.86 1553.28 1357.94 1553.28 Q1363.57 1553.28 1368.55 1549.18 Q1373.6 1545.08 1376.82 1539.08 Q1380.11 1533 1381.94 1525.83 Q1382.53 1523.42 1382.53 1520.34 Q1382.53 1512.14 1376.82 1507.09 Q1375.21 1505.48 1375.21 1503.36 Q1375.21 1500.87 1377.26 1498.6 Q1379.68 1496.19 1382.53 1496.19 Q1384.65 1496.19 1385.97 1497.5 Q1388.97 1500.14 1388.97 1506.65 Z" fill="#000000" fill-rule="nonzero" fill-opacity="1" /><polyline clip-path="url(#clip373)" style="stroke:#000000; stroke-linecap:round; stroke-linejoin:round; stroke-width:2; stroke-opacity:0.1; fill:none" points="340.34,948.86 2352.76,948.86 "/>
<polyline clip-path="url(#clip373)" style="stroke:#000000; stroke-linecap:round; stroke-linejoin:round; stroke-width:2; stroke-opacity:0.1; fill:none" points="340.34,1296.09 2352.76,1296.09 "/>
<polyline clip-path="url(#clip370)" style="stroke:#000000; stroke-linecap:round; stroke-linejoin:round; stroke-width:4; stroke-opacity:1; fill:none" points="340.34,1332.46 340.34,47.2441 "/>
<polyline clip-path="url(#clip370)" style="stroke:#000000; stroke-linecap:round; stroke-linejoin:round; stroke-width:4; stroke-opacity:1; fill:none" points="340.34,948.86 359.238,948.86 "/>
<polyline clip-path="url(#clip370)" style="stroke:#000000; stroke-linecap:round; stroke-linejoin:round; stroke-width:4; stroke-opacity:1; fill:none" points="340.34,1296.09 359.238,1296.09 "/>
<path clip-path="url(#clip370)" d="M198.351 922.232 Q191.58 922.232 188.152 928.916 Q184.766 935.557 184.766 948.925 Q184.766 962.249 188.152 968.933 Q191.58 975.574 198.351 975.574 Q205.165 975.574 208.551 968.933 Q211.98 962.249 211.98 948.925 Q211.98 935.557 208.551 928.916 Q205.165 922.232 198.351 922.232 M198.351 915.288 Q209.245 915.288 214.974 923.925 Q220.747 932.519 220.747 948.925 Q220.747 965.288 214.974 973.925 Q209.245 982.518 198.351 982.518 Q187.457 982.518 181.685 973.925 Q175.955 965.288 175.955 948.925 Q175.955 932.519 181.685 923.925 Q187.457 915.288 198.351 915.288 Z" fill="#000000" fill-rule="nonzero" fill-opacity="1" /><path clip-path="url(#clip370)" d="M236.155 970.236 L245.313 970.236 L245.313 981.26 L236.155 981.26 L236.155 970.236 Z" fill="#000000" fill-rule="nonzero" fill-opacity="1" /><path clip-path="url(#clip370)" d="M290.972 946.321 Q297.266 947.666 300.781 951.92 Q304.34 956.173 304.34 962.423 Q304.34 972.015 297.743 977.267 Q291.146 982.518 278.993 982.518 Q274.913 982.518 270.573 981.694 Q266.276 980.913 261.675 979.307 L261.675 970.843 Q265.321 972.97 269.662 974.055 Q274.002 975.14 278.733 975.14 Q286.979 975.14 291.276 971.885 Q295.616 968.63 295.616 962.423 Q295.616 956.694 291.58 953.482 Q287.587 950.227 280.425 950.227 L272.873 950.227 L272.873 943.022 L280.773 943.022 Q287.24 943.022 290.668 940.461 Q294.097 937.857 294.097 932.996 Q294.097 928.005 290.538 925.357 Q287.023 922.666 280.425 922.666 Q276.823 922.666 272.7 923.448 Q268.576 924.229 263.629 925.878 L263.629 918.066 Q268.62 916.677 272.96 915.982 Q277.344 915.288 281.207 915.288 Q291.189 915.288 297.005 919.845 Q302.821 924.359 302.821 932.085 Q302.821 937.467 299.739 941.199 Q296.658 944.888 290.972 946.321 Z" fill="#000000" fill-rule="nonzero" fill-opacity="1" /><path clip-path="url(#clip370)" d="M197.136 1269.46 Q190.365 1269.46 186.936 1276.14 Q183.551 1282.78 183.551 1296.15 Q183.551 1309.48 186.936 1316.16 Q190.365 1322.8 197.136 1322.8 Q203.95 1322.8 207.335 1316.16 Q210.764 1309.48 210.764 1296.15 Q210.764 1282.78 207.335 1276.14 Q203.95 1269.46 197.136 1269.46 M197.136 1262.51 Q208.03 1262.51 213.759 1271.15 Q219.532 1279.74 219.532 1296.15 Q219.532 1312.51 213.759 1321.15 Q208.03 1329.74 197.136 1329.74 Q186.242 1329.74 180.469 1321.15 Q174.74 1312.51 174.74 1296.15 Q174.74 1279.74 180.469 1271.15 Q186.242 1262.51 197.136 1262.51 Z" fill="#000000" fill-rule="nonzero" fill-opacity="1" /><path clip-path="url(#clip370)" d="M234.939 1317.46 L244.097 1317.46 L244.097 1328.49 L234.939 1328.49 L234.939 1317.46 Z" fill="#000000" fill-rule="nonzero" fill-opacity="1" /><path clip-path="url(#clip370)" d="M281.944 1269.46 Q275.174 1269.46 271.745 1276.14 Q268.359 1282.78 268.359 1296.15 Q268.359 1309.48 271.745 1316.16 Q275.174 1322.8 281.944 1322.8 Q288.759 1322.8 292.144 1316.16 Q295.573 1309.48 295.573 1296.15 Q295.573 1282.78 292.144 1276.14 Q288.759 1269.46 281.944 1269.46 M281.944 1262.51 Q292.838 1262.51 298.568 1271.15 Q304.34 1279.74 304.34 1296.15 Q304.34 1312.51 298.568 1321.15 Q292.838 1329.74 281.944 1329.74 Q271.05 1329.74 265.278 1321.15 Q259.549 1312.51 259.549 1296.15 Q259.549 1279.74 265.278 1271.15 Q271.05 1262.51 281.944 1262.51 Z" fill="#000000" fill-rule="nonzero" fill-opacity="1" /><path clip-path="url(#clip370)" d="M48.927 657.422 Q59.7599 657.422 69.934 662.985 Q80.1081 668.474 86.2565 677.111 Q92.4049 685.675 92.4049 694.312 Q92.4049 704.047 82.304 709.098 Q118.975 718.247 119.926 718.759 Q123.074 720.882 123.074 723.956 Q123.074 725.859 121.903 727.03 Q120.805 728.202 119.048 728.202 Q118.462 728.128 116.632 727.689 L57.7104 713.05 Q44.0229 709.683 34.288 699.509 Q24.4798 689.262 24.4798 678.282 Q24.4798 669.572 30.9942 663.497 Q37.5085 657.422 48.927 657.422 M42.4858 668.182 Q35.1663 668.182 31.5065 671.109 Q27.7736 674.037 27.7736 678.575 Q27.7736 682.747 31.1406 687.798 Q34.5075 692.775 41.9734 697.167 Q46.292 699.509 51.6352 701.193 Q56.9784 702.876 70.1536 706.17 Q75.4236 707.341 75.7164 707.341 Q76.302 707.341 77.6195 707.048 Q78.937 706.682 80.9865 705.804 Q82.9627 704.852 84.7194 703.535 Q86.4761 702.217 87.7936 699.802 Q89.0379 697.386 89.0379 694.459 Q89.0379 689.921 85.3782 685.09 Q81.6452 680.186 74.8381 676.599 Q69.3484 673.598 59.0279 670.89 Q48.6342 668.182 42.4858 668.182 Z" fill="#000000" fill-rule="nonzero" fill-opacity="1" /><polyline clip-path="url(#clip373)" style="stroke:#009af9; stroke-linecap:round; stroke-linejoin:round; stroke-width:12; stroke-opacity:1; fill:none" points="-330.465,1296.08 -327.108,1296.08 -323.75,1296.08 -320.393,1296.08 -317.036,1296.08 -313.678,1296.08 -310.321,1296.08 -306.963,1296.08 -303.606,1296.08 -300.249,1296.08 -296.891,1296.08 -293.534,1296.08 -290.176,1296.08 -286.819,1296.08 -283.462,1296.08 -280.104,1296.08 -276.747,1296.08 -273.39,1296.08 -270.032,1296.08 -266.675,1296.08 -263.317,1296.08 -259.96,1296.08 -256.603,1296.08 -253.245,1296.08 -249.888,1296.08 -246.531,1296.08 -243.173,1296.08 -239.816,1296.08 -236.458,1296.08 -233.101,1296.08 -229.744,1296.08 -226.386,1296.08 -223.029,1296.08 -219.671,1296.08 -216.314,1296.08 -212.957,1296.08 -209.599,1296.08 -206.242,1296.08 -202.885,1296.08 -199.527,1296.08 -196.17,1296.08 -192.812,1296.08 -189.455,1296.08 -186.098,1296.08 -182.74,1296.08 -179.383,1296.08 -176.025,1296.08 -172.668,1296.08 -169.311,1296.08 -165.953,1296.08 -162.596,1296.08 -159.239,1296.08 -155.881,1296.08 -152.524,1296.08 -149.166,1296.08 -145.809,1296.08 -142.452,1296.08 -139.094,1296.08 -135.737,1296.08 -132.379,1296.08 -129.022,1296.08 -125.665,1296.08 -122.307,1296.08 -118.95,1296.08 -115.593,1296.08 -112.235,1296.08 -108.878,1296.08 -105.52,1296.08 -102.163,1296.08 -98.8056,1296.08 -95.4482,1296.08 -92.0909,1296.08 -88.7335,1296.08 -85.3761,1296.08 -82.0187,1296.08 -78.6613,1296.08 -75.3039,1296.08 -71.9466,1296.08 -68.5892,1296.08 -65.2318,1296.08 -61.8744,1296.08 -58.517,1296.08 -55.1596,1296.08 -51.8023,1296.08 -48.4449,1296.08 -45.0875,1296.08 -41.7301,1296.08 -38.3727,1296.08 -35.0153,1296.08 -31.6579,1296.08 -28.3006,1296.08 -24.9432,1296.08 -21.5858,1296.08 -18.2284,1296.08 -14.871,1296.08 -11.5136,1296.08 -8.15626,1296.08 -4.79888,1296.08 -1.4415,1296.08 1.91589,1296.08 5.27327,1296.08 8.63065,1296.08 11.988,1296.08 15.3454,1296.08 18.7028,1296.08 22.0602,1296.08 25.4176,1296.08 28.775,1296.08 32.1323,1296.08 35.4897,1296.08 38.8471,1296.08 42.2045,1296.08 45.5619,1296.08 48.9193,1296.08 52.2766,1296.08 55.634,1296.08 58.9914,1296.08 62.3488,1296.08 65.7062,1296.08 69.0636,1296.08 72.4209,1296.08 75.7783,1296.08 79.1357,1296.08 82.4931,1296.07 85.8505,1296.07 89.2079,1296.07 92.5652,1296.07 95.9226,1296.07 99.28,1296.07 102.637,1296.07 105.995,1296.07 109.352,1296.07 112.71,1296.07 116.067,1296.07 119.424,1296.07 122.782,1296.07 126.139,1296.07 129.496,1296.07 132.854,1296.07 136.211,1296.07 139.569,1296.07 142.926,1296.07 146.283,1296.07 149.641,1296.07 152.998,1296.07 156.356,1296.07 159.713,1296.07 163.07,1296.07 166.428,1296.07 169.785,1296.07 173.142,1296.07 176.5,1296.07 179.857,1296.07 183.215,1296.07 186.572,1296.07 189.929,1296.07 193.287,1296.07 196.644,1296.07 200.002,1296.07 203.359,1296.07 206.716,1296.07 210.074,1296.07 213.431,1296.07 216.788,1296.07 220.146,1296.07 223.503,1296.07 226.861,1296.07 230.218,1296.07 233.575,1296.07 236.933,1296.07 240.29,1296.07 243.648,1296.07 247.005,1296.07 250.362,1296.07 253.72,1296.07 257.077,1296.07 260.434,1296.07 263.792,1296.07 267.149,1296.07 270.507,1296.07 273.864,1296.07 277.221,1296.07 280.579,1296.07 283.936,1296.06 287.293,1296.06 290.651,1296.06 294.008,1296.06 297.366,1296.06 300.723,1296.06 304.08,1296.06 307.438,1296.06 310.795,1296.06 314.153,1296.06 317.51,1296.06 320.867,1296.06 324.225,1296.06 327.582,1296.06 330.939,1296.06 334.297,1296.06 337.654,1296.06 341.012,1296.06 344.369,1296.06 347.726,1296.06 351.084,1296.05 354.441,1296.05 357.799,1296.05 361.156,1296.05 364.513,1296.05 367.871,1296.05 371.228,1296.05 374.585,1296.05 377.943,1296.04 381.3,1296.04 384.658,1296.04 388.015,1296.04 391.372,1296.03 394.73,1296.03 398.087,1296.03 401.445,1296.02 404.802,1296.02 408.159,1296.01 411.517,1296 414.874,1295.99 418.231,1295.98 421.589,1295.96 424.946,1295.94 428.304,1295.92 431.661,1295.89 435.018,1295.84 438.376,1295.78 441.733,1295.7 445.091,1295.58 448.448,1295.41 451.805,1295.14 455.163,1294.72 458.52,1293.98 461.877,1292.66 465.235,1290.12 468.592,1285.54 471.95,1280.39 475.307,1280.85 478.664,1285.29 482.022,1288.82 485.379,1290.94 488.737,1292.21 492.094,1292.99 495.451,1293.51 498.809,1293.86 502.166,1294.1 505.523,1294.27 508.881,1294.4 512.238,1294.48 515.596,1294.54 518.953,1294.57 522.31,1294.59 525.668,1294.58 529.025,1294.56 532.383,1294.53 535.74,1294.47 539.097,1294.4 542.455,1294.31 545.812,1294.2 549.169,1294.06 552.527,1293.9 555.884,1293.69 559.242,1293.45 562.599,1293.14 565.956,1292.77 569.314,1292.31 572.671,1291.72 576.028,1290.98 579.386,1290.02 582.743,1288.76 586.101,1287.07 589.458,1284.73 592.815,1281.42 596.173,1276.55 599.53,1269.09 602.888,1257.09 606.245,1236.72 609.602,1200.58 612.96,1137.56 616.317,1053.77 619.674,1024.28 623.032,1083.62 626.389,1152.16 629.747,1197.49 633.104,1224.84 636.461,1241.71 639.819,1252.56 643.176,1259.84 646.534,1264.88 649.891,1268.45 653.248,1271.01 656.606,1272.84 659.963,1274.12 663.32,1274.96 666.678,1275.44 670.035,1275.6 673.393,1275.46 676.75,1275.02 680.107,1274.27 683.465,1273.18 686.822,1271.7 690.18,1269.74 693.537,1267.19 696.894,1263.88 700.252,1259.56 703.609,1253.89 706.966,1246.3 710.324,1235.96 713.681,1221.47 717.039,1200.55 720.396,1169.17 723.753,1120 727.111,1039.42 730.468,903.516 733.826,685.097 737.183,430.937 740.54,374.346 743.898,578.288 747.255,805.999 750.612,960.355 753.97,1055.28 757.327,1114.39 760.685,1152.59 764.042,1178.24 767.399,1196 770.757,1208.57 774.114,1217.57 777.472,1224 780.829,1228.49 784.186,1231.43 787.544,1233.08 790.901,1233.56 794.258,1232.93 797.616,1231.13 800.973,1228.05 804.331,1223.47 807.688,1217.02 811.045,1208.14 814.403,1195.95 817.76,1179.07 821.117,1155.3 824.475,1120.93 827.832,1069.61 831.19,990.147 834.547,863.218 837.904,661.031 841.262,377.269 844.619,144.251 847.977,210.324 851.334,491.751 854.691,746.89 858.049,915.787 861.406,1021.03 864.763,1087.62 868.121,1131.2 871.478,1160.68 874.836,1181.16 878.193,1195.63 881.55,1205.91 884.908,1213.12 888.265,1217.96 891.623,1220.86 894.98,1222.04 898.337,1221.59 901.695,1219.43 905.052,1215.36 908.409,1208.93 911.767,1199.43 915.124,1185.71 918.482,1165.82 921.839,1136.57 925.196,1092.52 928.554,1024.73 931.911,920.436 935.269,773.002 938.626,626.261 941.983,606.7 945.341,744.453 948.698,909.753 952.055,1030.5 955.413,1107.73 958.77,1156.51 962.128,1188.04 965.485,1209.05 968.842,1223.4 972.2,1233.37 975.557,1240.32 978.915,1245.08 982.272,1248.14 985.629,1249.8 988.987,1250.17 992.344,1249.27 995.701,1246.94 999.059,1242.86 1002.42,1236.46 1005.77,1226.77 1009.13,1212.15 1012.49,1190.02 1015.85,1156.8 1019.2,1110.35 1022.56,1060.83 1025.92,1043.85 1029.28,1081.97 1032.63,1141.24 1035.99,1189.15 1039.35,1220.87 1042.7,1241.01 1046.06,1253.93 1049.42,1262.41 1052.78,1268.1 1056.13,1271.95 1059.49,1274.54 1062.85,1276.18 1066.21,1277.08 1069.56,1277.31 1072.92,1276.88 1076.28,1275.69 1079.64,1273.55 1082.99,1270.1 1086.35,1264.77 1089.71,1256.82 1093.07,1245.9 1096.42,1234.4 1099.78,1230.21 1103.14,1239.15 1106.5,1254.17 1109.85,1266.87 1113.21,1275.45 1116.57,1280.92 1119.92,1284.4 1123.28,1286.65 1126.64,1288.11 1130,1289.04 1133.35,1289.6 1136.71,1289.85 1140.07,1289.82 1143.43,1289.5 1146.78,1288.83 1150.14,1287.69 1153.5,1285.97 1156.86,1283.69 1160.21,1281.58 1163.57,1281.36 1166.93,1283.76 1170.29,1287.06 1173.64,1289.7 1177,1291.46 1180.36,1292.57 1183.71,1293.26 1187.07,1293.69 1190.43,1293.94 1193.79,1294.06 1197.14,1294.07 1200.5,1293.97 1203.86,1293.74 1207.22,1293.39 1210.57,1292.95 1213.93,1292.65 1217.29,1292.81 1220.65,1293.42 1224,1294.09 1227.36,1294.59 1230.72,1294.92 1234.08,1295.12 1237.43,1295.24 1240.79,1295.29 1244.15,1295.31 1247.51,1295.29 1250.86,1295.24 1254.22,1295.19 1257.58,1295.14 1260.93,1295.15 1264.29,1295.2 1267.65,1295.27 1271.01,1295.32 1274.36,1295.33 1277.72,1295.3 1281.08,1295.22 1284.44,1295.05 1287.79,1294.72 1291.15,1294.02 1294.51,1292.36 1297.87,1287.94 1301.22,1278.88 1304.58,1272.58 1307.94,1268.09 1311.3,1253.18 1314.65,1212.27 1318.01,1168.71 1321.37,1161.12 1324.73,1116.27 1328.08,1015.53 1331.44,992.438 1334.8,960.058 1338.15,866.613 1341.51,870.521 1344.87,835.28 1348.23,843.251 1351.58,861.63 1354.94,873.205 1358.3,964.976 1361.66,976.152 1365.01,1026.25 1368.37,1123.62 1371.73,1151.58 1375.09,1163.39 1378.44,1220.44 1381.8,1255.17 1385.16,1265.86 1388.52,1269.43 1391.87,1279.62 1395.23,1289.03 1398.59,1292.71 1401.94,1294.09 1405.3,1294.69 1408.66,1294.98 1412.02,1295.13 1415.37,1295.19 1418.73,1295.21 1422.09,1295.2 1425.45,1295.18 1428.8,1295.19 1432.16,1295.24 1435.52,1295.3 1438.88,1295.36 1442.23,1295.4 1445.59,1295.41 1448.95,1295.38 1452.31,1295.32 1455.66,1295.2 1459.02,1294.99 1462.38,1294.63 1465.74,1294.08 1469.09,1293.37 1472.45,1292.86 1475.81,1292.94 1479.16,1293.4 1482.52,1293.85 1485.88,1294.17 1489.24,1294.34 1492.59,1294.41 1495.95,1294.38 1499.31,1294.24 1502.67,1293.98 1506.02,1293.54 1509.38,1292.82 1512.74,1291.62 1516.1,1289.63 1519.45,1286.56 1522.81,1283 1526.17,1281.41 1529.53,1283.03 1532.88,1285.75 1536.24,1287.94 1539.6,1289.39 1542.95,1290.28 1546.31,1290.76 1549.67,1290.95 1553.03,1290.89 1556.38,1290.59 1559.74,1290 1563.1,1289.04 1566.46,1287.54 1569.81,1285.18 1573.17,1281.41 1576.53,1275.23 1579.89,1265.07 1583.24,1249.77 1586.6,1233.76 1589.96,1230.26 1593.32,1241.29 1596.67,1254.77 1600.03,1264.77 1603.39,1271.27 1606.75,1275.39 1610.1,1277.95 1613.46,1279.46 1616.82,1280.21 1620.17,1280.34 1623.53,1279.9 1626.89,1278.86 1630.25,1277.11 1633.6,1274.43 1636.96,1270.44 1640.32,1264.47 1643.68,1255.36 1647.03,1241.03 1650.39,1217.74 1653.75,1179.37 1657.11,1120.36 1660.46,1055.07 1663.82,1037.82 1667.18,1083.91 1670.54,1141.54 1673.89,1183.76 1677.25,1210.99 1680.61,1228.33 1683.97,1239.52 1687.32,1246.82 1690.68,1251.54 1694.04,1254.42 1697.39,1255.87 1700.75,1256.14 1704.11,1255.28 1707.47,1253.25 1710.82,1249.86 1714.18,1244.79 1717.54,1237.45 1720.9,1226.88 1724.25,1211.48 1727.61,1188.5 1730.97,1153.01 1734.33,1096.14 1737.68,1002.5 1741.04,852.508 1744.4,659.739 1747.76,559.853 1751.11,668.149 1754.47,847.943 1757.83,985.048 1761.18,1072.38 1764.54,1127.01 1767.9,1162.06 1771.26,1185.26 1774.61,1201.01 1777.97,1211.83 1781.33,1219.23 1784.69,1224.1 1788.04,1226.99 1791.4,1228.21 1794.76,1227.9 1798.12,1226.07 1801.47,1222.56 1804.83,1217.1 1808.19,1209.19 1811.55,1197.99 1814.9,1182.22 1818.26,1159.69 1821.62,1126.79 1824.98,1077.14 1828.33,999.232 1831.69,872.282 1835.05,663.39 1838.4,354.674 1841.76,83.6181 1845.12,155.989 1848.48,474.452 1851.83,750.104 1855.19,925.334 1858.55,1031.64 1861.91,1097.83 1865.26,1140.75 1868.62,1169.68 1871.98,1189.82 1875.34,1204.17 1878.69,1214.56 1882.05,1222.11 1885.41,1227.54 1888.77,1231.31 1892.12,1233.72 1895.48,1234.94 1898.84,1235.06 1902.2,1234.08 1905.55,1231.92 1908.91,1228.4 1912.27,1223.23 1915.62,1215.94 1918.98,1205.77 1922.34,1191.55 1925.7,1171.31 1929.05,1141.73 1932.41,1096.94 1935.77,1026.25 1939.13,910.366 1942.48,720.704 1945.84,457.966 1949.2,297.735 1952.56,461.543 1955.91,742.891 1959.27,944.416 1962.63,1063.95 1965.99,1134.54 1969.34,1177.99 1972.7,1206.04 1976.06,1224.95 1979.41,1238.17 1982.77,1247.69 1986.13,1254.72 1989.49,1260.01 1992.84,1264.04 1996.2,1267.14 1999.56,1269.52 2002.92,1271.34 2006.27,1272.71 2009.63,1273.69 2012.99,1274.33 2016.35,1274.65 2019.7,1274.67 2023.06,1274.37 2026.42,1273.73 2029.78,1272.68 2033.13,1271.15 2036.49,1268.98 2039.85,1265.97 2043.21,1261.77 2046.56,1255.83 2049.92,1247.18 2053.28,1234.17 2056.63,1213.73 2059.99,1180.3 2063.35,1125.36 2066.71,1048.41 2070.06,1003.18 2073.42,1059.23 2076.78,1146.6 2080.14,1205.46 2083.49,1238.79 2086.85,1257.8 2090.21,1269.19 2093.57,1276.38 2096.92,1281.14 2100.28,1284.41 2103.64,1286.74 2107,1288.44 2110.35,1289.72 2113.71,1290.7 2117.07,1291.46 2120.42,1292.06 2123.78,1292.53 2127.14,1292.92 2130.5,1293.24 2133.85,1293.49 2137.21,1293.7 2140.57,1293.88 2143.93,1294.02 2147.28,1294.13 2150.64,1294.23 2154,1294.3 2157.36,1294.35 2160.71,1294.38 2164.07,1294.4 2167.43,1294.4 2170.79,1294.38 2174.14,1294.33 2177.5,1294.26 2180.86,1294.15 2184.22,1294 2187.57,1293.79 2190.93,1293.49 2194.29,1293.06 2197.64,1292.43 2201,1291.46 2204.36,1289.91 2207.72,1287.34 2211.07,1283.3 2214.43,1279.08 2217.79,1280.01 2221.15,1285.6 2224.5,1290.05 2227.86,1292.53 2231.22,1293.86 2234.58,1294.62 2237.93,1295.06 2241.29,1295.35 2244.65,1295.53 2248.01,1295.66 2251.36,1295.75 2254.72,1295.82 2258.08,1295.86 2261.44,1295.9 2264.79,1295.93 2268.15,1295.95 2271.51,1295.97 2274.86,1295.98 2278.22,1295.99 2281.58,1296 2284.94,1296.01 2288.29,1296.02 2291.65,1296.02 2295.01,1296.03 2298.37,1296.03 2301.72,1296.03 2305.08,1296.04 2308.44,1296.04 2311.8,1296.04 2315.15,1296.04 2318.51,1296.05 2321.87,1296.05 2325.23,1296.05 2328.58,1296.05 2331.94,1296.05 2335.3,1296.05 2338.65,1296.05 2342.01,1296.05 2345.37,1296.05 2348.73,1296.06 2352.08,1296.06 2355.44,1296.06 2358.8,1296.06 2362.16,1296.06 2365.51,1296.06 2368.87,1296.06 2372.23,1296.06 2375.59,1296.06 2378.94,1296.06 2382.3,1296.06 2385.66,1296.06 2389.02,1296.06 2392.37,1296.06 2395.73,1296.06 2399.09,1296.06 2402.45,1296.06 2405.8,1296.06 2409.16,1296.06 2412.52,1296.07 2415.87,1296.07 2419.23,1296.07 2422.59,1296.07 2425.95,1296.07 2429.3,1296.07 2432.66,1296.07 2436.02,1296.07 2439.38,1296.07 2442.73,1296.07 2446.09,1296.07 2449.45,1296.07 2452.81,1296.07 2456.16,1296.07 2459.52,1296.07 2462.88,1296.07 2466.24,1296.07 2469.59,1296.07 2472.95,1296.07 2476.31,1296.07 2479.67,1296.07 2483.02,1296.07 2486.38,1296.07 2489.74,1296.07 2493.09,1296.07 2496.45,1296.07 2499.81,1296.07 2503.17,1296.07 2506.52,1296.07 2509.88,1296.07 2513.24,1296.07 2516.6,1296.07 2519.95,1296.07 2523.31,1296.07 2526.67,1296.07 2530.03,1296.07 2533.38,1296.07 2536.74,1296.07 2540.1,1296.07 2543.46,1296.07 2546.81,1296.07 2550.17,1296.07 2553.53,1296.07 2556.88,1296.07 2560.24,1296.07 2563.6,1296.07 2566.96,1296.07 2570.31,1296.07 2573.67,1296.07 2577.03,1296.07 2580.39,1296.07 2583.74,1296.07 2587.1,1296.07 2590.46,1296.07 2593.82,1296.07 2597.17,1296.07 2600.53,1296.07 2603.89,1296.07 2607.25,1296.07 2610.6,1296.07 2613.96,1296.08 2617.32,1296.08 2620.68,1296.08 2624.03,1296.08 2627.39,1296.08 2630.75,1296.08 2634.1,1296.08 2637.46,1296.08 2640.82,1296.08 2644.18,1296.08 2647.53,1296.08 2650.89,1296.08 2654.25,1296.08 2657.61,1296.08 2660.96,1296.08 2664.32,1296.08 2667.68,1296.08 2671.04,1296.08 2674.39,1296.08 2677.75,1296.08 2681.11,1296.08 2684.47,1296.08 2687.82,1296.08 2691.18,1296.08 2694.54,1296.08 2697.89,1296.08 2701.25,1296.08 2704.61,1296.08 2707.97,1296.08 2711.32,1296.08 2714.68,1296.08 2718.04,1296.08 2721.4,1296.08 2724.75,1296.08 2728.11,1296.08 2731.47,1296.08 2734.83,1296.08 2738.18,1296.08 2741.54,1296.08 2744.9,1296.08 2748.26,1296.08 2751.61,1296.08 2754.97,1296.08 2758.33,1296.08 2761.69,1296.08 2765.04,1296.08 2768.4,1296.08 2771.76,1296.08 2775.11,1296.08 2778.47,1296.08 2781.83,1296.08 2785.19,1296.08 2788.54,1296.08 2791.9,1296.08 2795.26,1296.08 2798.62,1296.08 2801.97,1296.08 2805.33,1296.08 2808.69,1296.08 2812.05,1296.08 2815.4,1296.08 2818.76,1296.08 2822.12,1296.08 2825.48,1296.08 2828.83,1296.08 2832.19,1296.08 2835.55,1296.08 2838.91,1296.08 2842.26,1296.08 2845.62,1296.08 2848.98,1296.08 2852.33,1296.08 2855.69,1296.08 2859.05,1296.08 2862.41,1296.08 2865.76,1296.08 2869.12,1296.08 2872.48,1296.08 2875.84,1296.08 2879.19,1296.08 2882.55,1296.08 2885.91,1296.08 2889.27,1296.08 2892.62,1296.08 2895.98,1296.08 2899.34,1296.08 2902.7,1296.08 2906.05,1296.08 2909.41,1296.08 2912.77,1296.08 2916.12,1296.08 2919.48,1296.08 2922.84,1296.08 2926.2,1296.08 2929.55,1296.08 2932.91,1296.08 2936.27,1296.08 2939.63,1296.08 2942.98,1296.08 2946.34,1296.08 2949.7,1296.08 2953.06,1296.08 2956.41,1296.08 2959.77,1296.08 2963.13,1296.08 2966.49,1296.08 2969.84,1296.08 2973.2,1296.08 2976.56,1296.08 2979.92,1296.08 2983.27,1296.08 2986.63,1296.08 2989.99,1296.08 2993.34,1296.08 2996.7,1296.08 3000.06,1296.08 3003.42,1296.08 3006.77,1296.08 3010.13,1296.08 3013.49,1296.08 3016.85,1296.08 3020.2,1296.08 3023.56,1296.08 "/>
<polyline clip-path="url(#clip373)" style="stroke:#e26f46; stroke-linecap:round; stroke-linejoin:round; stroke-width:12; stroke-opacity:1; fill:none" points="-330.465,1296.08 -327.108,1296.08 -323.75,1296.08 -320.393,1296.08 -317.036,1296.08 -313.678,1296.08 -310.321,1296.08 -306.963,1296.08 -303.606,1296.08 -300.249,1296.08 -296.891,1296.08 -293.534,1296.08 -290.176,1296.08 -286.819,1296.08 -283.462,1296.08 -280.104,1296.08 -276.747,1296.08 -273.39,1296.08 -270.032,1296.08 -266.675,1296.08 -263.317,1296.08 -259.96,1296.08 -256.603,1296.08 -253.245,1296.08 -249.888,1296.08 -246.531,1296.08 -243.173,1296.08 -239.816,1296.08 -236.458,1296.08 -233.101,1296.08 -229.744,1296.08 -226.386,1296.08 -223.029,1296.08 -219.671,1296.08 -216.314,1296.08 -212.957,1296.08 -209.599,1296.08 -206.242,1296.08 -202.885,1296.08 -199.527,1296.08 -196.17,1296.08 -192.812,1296.08 -189.455,1296.08 -186.098,1296.08 -182.74,1296.08 -179.383,1296.08 -176.025,1296.08 -172.668,1296.08 -169.311,1296.08 -165.953,1296.08 -162.596,1296.08 -159.239,1296.08 -155.881,1296.08 -152.524,1296.08 -149.166,1296.08 -145.809,1296.08 -142.452,1296.08 -139.094,1296.08 -135.737,1296.08 -132.379,1296.08 -129.022,1296.08 -125.665,1296.08 -122.307,1296.08 -118.95,1296.08 -115.593,1296.08 -112.235,1296.08 -108.878,1296.08 -105.52,1296.08 -102.163,1296.08 -98.8056,1296.08 -95.4482,1296.08 -92.0909,1296.08 -88.7335,1296.08 -85.3761,1296.08 -82.0187,1296.08 -78.6613,1296.08 -75.3039,1296.08 -71.9466,1296.08 -68.5892,1296.08 -65.2318,1296.08 -61.8744,1296.08 -58.517,1296.08 -55.1596,1296.08 -51.8023,1296.08 -48.4449,1296.08 -45.0875,1296.08 -41.7301,1296.08 -38.3727,1296.08 -35.0153,1296.08 -31.6579,1296.08 -28.3006,1296.08 -24.9432,1296.08 -21.5858,1296.08 -18.2284,1296.08 -14.871,1296.08 -11.5136,1296.08 -8.15626,1296.08 -4.79888,1296.08 -1.4415,1296.08 1.91589,1296.08 5.27327,1296.08 8.63065,1296.08 11.988,1296.08 15.3454,1296.08 18.7028,1296.08 22.0602,1296.08 25.4176,1296.08 28.775,1296.08 32.1323,1296.08 35.4897,1296.08 38.8471,1296.08 42.2045,1296.08 45.5619,1296.08 48.9193,1296.08 52.2766,1296.08 55.634,1296.08 58.9914,1296.08 62.3488,1296.08 65.7062,1296.08 69.0636,1296.08 72.4209,1296.08 75.7783,1296.08 79.1357,1296.07 82.4931,1296.07 85.8505,1296.07 89.2079,1296.07 92.5652,1296.07 95.9226,1296.07 99.28,1296.07 102.637,1296.07 105.995,1296.07 109.352,1296.07 112.71,1296.07 116.067,1296.07 119.424,1296.07 122.782,1296.07 126.139,1296.07 129.496,1296.07 132.854,1296.07 136.211,1296.07 139.569,1296.07 142.926,1296.07 146.283,1296.07 149.641,1296.07 152.998,1296.07 156.356,1296.07 159.713,1296.07 163.07,1296.07 166.428,1296.07 169.785,1296.07 173.142,1296.07 176.5,1296.07 179.857,1296.07 183.215,1296.07 186.572,1296.07 189.929,1296.07 193.287,1296.07 196.644,1296.07 200.002,1296.07 203.359,1296.07 206.716,1296.07 210.074,1296.07 213.431,1296.07 216.788,1296.07 220.146,1296.07 223.503,1296.07 226.861,1296.07 230.218,1296.07 233.575,1296.07 236.933,1296.07 240.29,1296.07 243.648,1296.07 247.005,1296.07 250.362,1296.07 253.72,1296.07 257.077,1296.07 260.434,1296.07 263.792,1296.07 267.149,1296.07 270.507,1296.06 273.864,1296.06 277.221,1296.06 280.579,1296.06 283.936,1296.06 287.293,1296.06 290.651,1296.06 294.008,1296.06 297.366,1296.06 300.723,1296.06 304.08,1296.06 307.438,1296.06 310.795,1296.06 314.153,1296.06 317.51,1296.06 320.867,1296.06 324.225,1296.06 327.582,1296.05 330.939,1296.05 334.297,1296.05 337.654,1296.05 341.012,1296.05 344.369,1296.05 347.726,1296.05 351.084,1296.04 354.441,1296.04 357.799,1296.04 361.156,1296.04 364.513,1296.03 367.871,1296.03 371.228,1296.03 374.585,1296.02 377.943,1296.02 381.3,1296.01 384.658,1296 388.015,1296 391.372,1295.99 394.73,1295.98 398.087,1295.97 401.445,1295.95 404.802,1295.93 408.159,1295.91 411.517,1295.89 414.874,1295.86 418.231,1295.83 421.589,1295.78 424.946,1295.73 428.304,1295.67 431.661,1295.6 435.018,1295.5 438.376,1295.39 441.733,1295.25 445.091,1295.08 448.448,1294.88 451.805,1294.63 455.163,1294.34 458.52,1294 461.877,1293.61 465.235,1293.19 468.592,1292.74 471.95,1292.31 475.307,1291.9 478.664,1291.54 482.022,1291.25 485.379,1291.03 488.737,1290.87 492.094,1290.76 495.451,1290.68 498.809,1290.63 502.166,1290.59 505.523,1290.54 508.881,1290.48 512.238,1290.4 515.596,1290.3 518.953,1290.17 522.31,1290.01 525.668,1289.82 529.025,1289.58 532.383,1289.31 535.74,1288.98 539.097,1288.6 542.455,1288.16 545.812,1287.66 549.169,1287.08 552.527,1286.42 555.884,1285.66 559.242,1284.79 562.599,1283.81 565.956,1282.69 569.314,1281.42 572.671,1279.99 576.028,1278.36 579.386,1276.54 582.743,1274.5 586.101,1272.22 589.458,1269.71 592.815,1266.96 596.173,1263.97 599.53,1260.77 602.888,1257.39 606.245,1253.85 609.602,1250.23 612.96,1246.57 616.317,1242.94 619.674,1239.39 623.032,1235.97 626.389,1232.72 629.747,1229.64 633.104,1226.75 636.461,1224.03 639.819,1221.44 643.176,1218.96 646.534,1216.54 649.891,1214.14 653.248,1211.72 656.606,1209.23 659.963,1206.64 663.32,1203.92 666.678,1201.04 670.035,1197.97 673.393,1194.71 676.75,1191.23 680.107,1187.54 683.465,1183.63 686.822,1179.5 690.18,1175.17 693.537,1170.64 696.894,1165.94 700.252,1161.08 703.609,1156.1 706.966,1151 710.324,1145.82 713.681,1140.58 717.039,1135.29 720.396,1129.98 723.753,1124.65 727.111,1119.31 730.468,1113.97 733.826,1108.62 737.183,1103.25 740.54,1097.88 743.898,1092.47 747.255,1087.05 750.612,1081.59 753.97,1076.12 757.327,1070.63 760.685,1065.14 764.042,1059.67 767.399,1054.25 770.757,1048.93 774.114,1043.72 777.472,1038.69 780.829,1033.87 784.186,1029.3 787.544,1025.02 790.901,1021.08 794.258,1017.48 797.616,1014.25 800.973,1011.39 804.331,1008.9 807.688,1006.76 811.045,1004.95 814.403,1003.46 817.76,1002.24 821.117,1001.28 824.475,1000.55 827.832,1000.03 831.19,999.709 834.547,999.573 837.904,999.622 841.262,999.861 844.619,1000.3 847.977,1000.95 851.334,1001.82 854.691,1002.92 858.049,1004.27 861.406,1005.87 864.763,1007.71 868.121,1009.79 871.478,1012.08 874.836,1014.57 878.193,1017.23 881.55,1020.03 884.908,1022.93 888.265,1025.9 891.623,1028.93 894.98,1032 898.337,1035.08 901.695,1038.19 905.052,1041.33 908.409,1044.51 911.767,1047.75 915.124,1051.09 918.482,1054.55 921.839,1058.16 925.196,1061.95 928.554,1065.93 931.911,1070.11 935.269,1074.5 938.626,1079.08 941.983,1083.84 945.341,1088.74 948.698,1093.77 952.055,1098.88 955.413,1104.05 958.77,1109.26 962.128,1114.48 965.485,1119.72 968.842,1124.97 972.2,1130.24 975.557,1135.53 978.915,1140.87 982.272,1146.25 985.629,1151.68 988.987,1157.15 992.344,1162.64 995.701,1168.12 999.059,1173.56 1002.42,1178.91 1005.77,1184.13 1009.13,1189.18 1012.49,1194.01 1015.85,1198.61 1019.2,1202.97 1022.56,1207.07 1025.92,1210.93 1029.28,1214.57 1032.63,1218.01 1035.99,1221.29 1039.35,1224.44 1042.7,1227.47 1046.06,1230.42 1049.42,1233.3 1052.78,1236.1 1056.13,1238.82 1059.49,1241.45 1062.85,1243.97 1066.21,1246.37 1069.56,1248.65 1072.92,1250.81 1076.28,1252.85 1079.64,1254.81 1082.99,1256.72 1086.35,1258.61 1089.71,1260.52 1093.07,1262.48 1096.42,1264.5 1099.78,1266.56 1103.14,1268.63 1106.5,1270.68 1109.85,1272.65 1113.21,1274.51 1116.57,1276.24 1119.92,1277.82 1123.28,1279.26 1126.64,1280.57 1130,1281.78 1133.35,1282.91 1136.71,1283.98 1140.07,1285 1143.43,1285.95 1146.78,1286.84 1150.14,1287.63 1153.5,1288.31 1156.86,1288.87 1160.21,1289.3 1163.57,1289.6 1166.93,1289.8 1170.29,1289.9 1173.64,1289.95 1177,1290 1180.36,1290.1 1183.71,1290.31 1187.07,1290.64 1190.43,1291.06 1193.79,1291.51 1197.14,1291.93 1200.5,1292.31 1203.86,1292.68 1207.22,1293.07 1210.57,1293.51 1213.93,1293.96 1217.29,1294.4 1220.65,1294.75 1224,1295.01 1227.36,1295.19 1230.72,1295.29 1234.08,1295.34 1237.43,1295.33 1240.79,1295.27 1244.15,1295.13 1247.51,1294.92 1250.86,1294.71 1254.22,1294.75 1257.58,1295.01 1260.93,1295.24 1264.29,1295.38 1267.65,1295.44 1271.01,1295.45 1274.36,1295.41 1277.72,1295.32 1281.08,1295.16 1284.44,1294.88 1287.79,1294.38 1291.15,1293.44 1294.51,1291.69 1297.87,1288.48 1301.22,1283.06 1304.58,1274.62 1307.94,1262.12 1311.3,1244.13 1314.65,1219.32 1318.01,1186.75 1321.37,1146.01 1324.73,1097.96 1328.08,1044.68 1331.44,989.567 1334.8,936.909 1338.15,891.479 1341.51,857.942 1344.87,840.121 1348.23,840.111 1351.58,857.941 1354.94,891.492 1358.3,936.906 1361.66,989.551 1365.01,1044.68 1368.37,1097.98 1371.73,1146.03 1375.09,1186.75 1378.44,1219.31 1381.8,1244.1 1385.16,1262.09 1388.52,1274.64 1391.87,1283.09 1395.23,1288.5 1398.59,1291.7 1401.94,1293.45 1405.3,1294.38 1408.66,1294.88 1412.02,1295.16 1415.37,1295.31 1418.73,1295.39 1422.09,1295.42 1425.45,1295.39 1428.8,1295.31 1432.16,1295.13 1435.52,1294.9 1438.88,1294.79 1442.23,1294.93 1445.59,1295.15 1448.95,1295.31 1452.31,1295.4 1455.66,1295.42 1459.02,1295.4 1462.38,1295.33 1465.74,1295.19 1469.09,1294.97 1472.45,1294.64 1475.81,1294.21 1479.16,1293.7 1482.52,1293.19 1485.88,1292.75 1489.24,1292.37 1492.59,1292.01 1495.95,1291.64 1499.31,1291.26 1502.67,1290.89 1506.02,1290.61 1509.38,1290.46 1512.74,1290.43 1516.1,1290.46 1519.45,1290.5 1522.81,1290.48 1526.17,1290.36 1529.53,1290.13 1532.88,1289.77 1536.24,1289.26 1539.6,1288.62 1542.95,1287.84 1546.31,1286.94 1549.67,1285.94 1553.03,1284.86 1556.38,1283.72 1559.74,1282.54 1563.1,1281.3 1566.46,1280 1569.81,1278.6 1573.17,1277.09 1576.53,1275.46 1579.89,1273.72 1583.24,1271.87 1586.6,1269.96 1589.96,1268.02 1593.32,1266.1 1596.67,1264.23 1600.03,1262.42 1603.39,1260.67 1606.75,1258.94 1610.1,1257.2 1613.46,1255.42 1616.82,1253.55 1620.17,1251.57 1623.53,1249.45 1626.89,1247.19 1630.25,1244.8 1633.6,1242.27 1636.96,1239.63 1640.32,1236.89 1643.68,1234.06 1647.03,1231.14 1650.39,1228.12 1653.75,1224.99 1657.11,1221.73 1660.46,1218.31 1663.82,1214.71 1667.18,1210.89 1670.54,1206.84 1673.89,1202.55 1677.25,1198.01 1680.61,1193.24 1683.97,1188.27 1687.32,1183.11 1690.68,1177.82 1694.04,1172.43 1697.39,1167 1700.75,1161.57 1704.11,1156.15 1707.47,1150.78 1710.82,1145.46 1714.18,1140.2 1717.54,1134.98 1720.9,1129.79 1724.25,1124.63 1727.61,1119.48 1730.97,1114.33 1734.33,1109.2 1737.68,1104.1 1741.04,1099.04 1744.4,1094.05 1747.76,1089.16 1751.11,1084.4 1754.47,1079.79 1757.83,1075.36 1761.18,1071.11 1764.54,1067.04 1767.9,1063.16 1771.26,1059.43 1774.61,1055.84 1777.97,1052.36 1781.33,1048.97 1784.69,1045.63 1788.04,1042.32 1791.4,1039.03 1794.76,1035.74 1798.12,1032.47 1801.47,1029.22 1804.83,1026.01 1808.19,1022.86 1811.55,1019.81 1814.9,1016.88 1818.26,1014.11 1821.62,1011.52 1824.98,1009.15 1828.33,1007.01 1831.69,1005.12 1835.05,1003.47 1838.4,1002.08 1841.76,1000.94 1845.12,1000.02 1848.48,999.334 1851.83,998.854 1855.19,998.577 1858.55,998.496 1861.91,998.613 1865.26,998.936 1868.62,999.476 1871.98,1000.25 1875.34,1001.29 1878.69,1002.61 1882.05,1004.25 1885.41,1006.22 1888.77,1008.55 1892.12,1011.25 1895.48,1014.33 1898.84,1017.78 1902.2,1021.58 1905.55,1025.72 1908.91,1030.16 1912.27,1034.86 1915.62,1039.78 1918.98,1044.89 1922.34,1050.12 1925.7,1055.46 1929.05,1060.85 1932.41,1066.27 1935.77,1071.7 1939.13,1077.12 1942.48,1082.51 1945.84,1087.88 1949.2,1093.23 1952.56,1098.56 1955.91,1103.87 1959.27,1109.17 1962.63,1114.46 1965.99,1119.75 1969.34,1125.04 1972.7,1130.31 1976.06,1135.56 1979.41,1140.78 1982.77,1145.94 1986.13,1151.03 1989.49,1156.02 1992.84,1160.89 1996.2,1165.62 1999.56,1170.19 2002.92,1174.58 2006.27,1178.77 2009.63,1182.75 2012.99,1186.53 2016.35,1190.1 2019.7,1193.46 2023.06,1196.63 2026.42,1199.63 2029.78,1202.47 2033.13,1205.18 2036.49,1207.79 2039.85,1210.35 2043.21,1212.88 2046.56,1215.43 2049.92,1218.04 2053.28,1220.76 2056.63,1223.61 2059.99,1226.62 2063.35,1229.81 2066.71,1233.18 2070.06,1236.7 2073.42,1240.35 2076.78,1244.08 2080.14,1247.83 2083.49,1251.55 2086.85,1255.18 2090.21,1258.67 2093.57,1261.98 2096.92,1265.07 2100.28,1267.93 2103.64,1270.55 2107,1272.92 2110.35,1275.07 2113.71,1276.99 2117.07,1278.7 2120.42,1280.22 2123.78,1281.57 2127.14,1282.76 2130.5,1283.81 2133.85,1284.74 2137.21,1285.55 2140.57,1286.27 2143.93,1286.89 2147.28,1287.44 2150.64,1287.91 2154,1288.33 2157.36,1288.68 2160.71,1288.99 2164.07,1289.25 2167.43,1289.46 2170.79,1289.65 2174.14,1289.79 2177.5,1289.91 2180.86,1290.01 2184.22,1290.09 2187.57,1290.16 2190.93,1290.22 2194.29,1290.3 2197.64,1290.39 2201,1290.52 2204.36,1290.71 2207.72,1290.95 2211.07,1291.26 2214.43,1291.63 2217.79,1292.05 2221.15,1292.51 2224.5,1292.96 2227.86,1293.4 2231.22,1293.81 2234.58,1294.17 2237.93,1294.48 2241.29,1294.75 2244.65,1294.97 2248.01,1295.15 2251.36,1295.31 2254.72,1295.43 2258.08,1295.53 2261.44,1295.62 2264.79,1295.69 2268.15,1295.75 2271.51,1295.79 2274.86,1295.83 2278.22,1295.86 2281.58,1295.89 2284.94,1295.91 2288.29,1295.93 2291.65,1295.95 2295.01,1295.96 2298.37,1295.98 2301.72,1295.99 2305.08,1296 2308.44,1296 2311.8,1296.01 2315.15,1296.02 2318.51,1296.02 2321.87,1296.03 2325.23,1296.03 2328.58,1296.03 2331.94,1296.04 2335.3,1296.04 2338.65,1296.04 2342.01,1296.04 2345.37,1296.05 2348.73,1296.05 2352.08,1296.05 2355.44,1296.05 2358.8,1296.05 2362.16,1296.05 2365.51,1296.05 2368.87,1296.05 2372.23,1296.06 2375.59,1296.06 2378.94,1296.06 2382.3,1296.06 2385.66,1296.06 2389.02,1296.06 2392.37,1296.06 2395.73,1296.06 2399.09,1296.06 2402.45,1296.06 2405.8,1296.06 2409.16,1296.06 2412.52,1296.06 2415.87,1296.06 2419.23,1296.06 2422.59,1296.06 2425.95,1296.07 2429.3,1296.07 2432.66,1296.07 2436.02,1296.07 2439.38,1296.07 2442.73,1296.07 2446.09,1296.07 2449.45,1296.07 2452.81,1296.07 2456.16,1296.07 2459.52,1296.07 2462.88,1296.07 2466.24,1296.07 2469.59,1296.07 2472.95,1296.07 2476.31,1296.07 2479.67,1296.07 2483.02,1296.07 2486.38,1296.07 2489.74,1296.07 2493.09,1296.07 2496.45,1296.07 2499.81,1296.07 2503.17,1296.07 2506.52,1296.07 2509.88,1296.07 2513.24,1296.07 2516.6,1296.07 2519.95,1296.07 2523.31,1296.07 2526.67,1296.07 2530.03,1296.07 2533.38,1296.07 2536.74,1296.07 2540.1,1296.07 2543.46,1296.07 2546.81,1296.07 2550.17,1296.07 2553.53,1296.07 2556.88,1296.07 2560.24,1296.07 2563.6,1296.07 2566.96,1296.07 2570.31,1296.07 2573.67,1296.07 2577.03,1296.07 2580.39,1296.07 2583.74,1296.07 2587.1,1296.07 2590.46,1296.07 2593.82,1296.07 2597.17,1296.07 2600.53,1296.07 2603.89,1296.07 2607.25,1296.07 2610.6,1296.07 2613.96,1296.07 2617.32,1296.08 2620.68,1296.08 2624.03,1296.08 2627.39,1296.08 2630.75,1296.08 2634.1,1296.08 2637.46,1296.08 2640.82,1296.08 2644.18,1296.08 2647.53,1296.08 2650.89,1296.08 2654.25,1296.08 2657.61,1296.08 2660.96,1296.08 2664.32,1296.08 2667.68,1296.08 2671.04,1296.08 2674.39,1296.08 2677.75,1296.08 2681.11,1296.08 2684.47,1296.08 2687.82,1296.08 2691.18,1296.08 2694.54,1296.08 2697.89,1296.08 2701.25,1296.08 2704.61,1296.08 2707.97,1296.08 2711.32,1296.08 2714.68,1296.08 2718.04,1296.08 2721.4,1296.08 2724.75,1296.08 2728.11,1296.08 2731.47,1296.08 2734.83,1296.08 2738.18,1296.08 2741.54,1296.08 2744.9,1296.08 2748.26,1296.08 2751.61,1296.08 2754.97,1296.08 2758.33,1296.08 2761.69,1296.08 2765.04,1296.08 2768.4,1296.08 2771.76,1296.08 2775.11,1296.08 2778.47,1296.08 2781.83,1296.08 2785.19,1296.08 2788.54,1296.08 2791.9,1296.08 2795.26,1296.08 2798.62,1296.08 2801.97,1296.08 2805.33,1296.08 2808.69,1296.08 2812.05,1296.08 2815.4,1296.08 2818.76,1296.08 2822.12,1296.08 2825.48,1296.08 2828.83,1296.08 2832.19,1296.08 2835.55,1296.08 2838.91,1296.08 2842.26,1296.08 2845.62,1296.08 2848.98,1296.08 2852.33,1296.08 2855.69,1296.08 2859.05,1296.08 2862.41,1296.08 2865.76,1296.08 2869.12,1296.08 2872.48,1296.08 2875.84,1296.08 2879.19,1296.08 2882.55,1296.08 2885.91,1296.08 2889.27,1296.08 2892.62,1296.08 2895.98,1296.08 2899.34,1296.08 2902.7,1296.08 2906.05,1296.08 2909.41,1296.08 2912.77,1296.08 2916.12,1296.08 2919.48,1296.08 2922.84,1296.08 2926.2,1296.08 2929.55,1296.08 2932.91,1296.08 2936.27,1296.08 2939.63,1296.08 2942.98,1296.08 2946.34,1296.08 2949.7,1296.08 2953.06,1296.08 2956.41,1296.08 2959.77,1296.08 2963.13,1296.08 2966.49,1296.08 2969.84,1296.08 2973.2,1296.08 2976.56,1296.08 2979.92,1296.08 2983.27,1296.08 2986.63,1296.08 2989.99,1296.08 2993.34,1296.08 2996.7,1296.08 3000.06,1296.08 3003.42,1296.08 3006.77,1296.08 3010.13,1296.08 3013.49,1296.08 3016.85,1296.08 3020.2,1296.08 3023.56,1296.08 "/>
<polyline clip-path="url(#clip373)" style="stroke:#000000; stroke-linecap:round; stroke-linejoin:round; stroke-width:6; stroke-opacity:1; fill:none" stroke-dasharray="24, 15" points="-330.465,1296.09 -327.108,1296.09 -323.75,1296.09 -320.393,1296.09 -317.036,1296.09 -313.678,1296.09 -310.321,1296.09 -306.963,1296.09 -303.606,1296.09 -300.249,1296.09 -296.891,1296.09 -293.534,1296.09 -290.176,1296.09 -286.819,1296.09 -283.462,1296.09 -280.104,1296.09 -276.747,1296.09 -273.39,1296.09 -270.032,1296.09 -266.675,1296.09 -263.317,1296.09 -259.96,1296.09 -256.603,1296.09 -253.245,1296.09 -249.888,1296.09 -246.531,1296.09 -243.173,1296.09 -239.816,1296.09 -236.458,1296.09 -233.101,1296.09 -229.744,1296.09 -226.386,1296.09 -223.029,1296.09 -219.671,1296.09 -216.314,1296.09 -212.957,1296.09 -209.599,1296.09 -206.242,1296.09 -202.885,1296.09 -199.527,1296.09 -196.17,1296.09 -192.812,1296.09 -189.455,1296.09 -186.098,1296.09 -182.74,1296.09 -179.383,1296.09 -176.025,1296.09 -172.668,1296.09 -169.311,1296.09 -165.953,1296.09 -162.596,1296.09 -159.239,1296.09 -155.881,1296.09 -152.524,1296.09 -149.166,1296.09 -145.809,1296.09 -142.452,1296.09 -139.094,1296.09 -135.737,1296.09 -132.379,1296.09 -129.022,1296.09 -125.665,1296.09 -122.307,1296.09 -118.95,1296.09 -115.593,1296.09 -112.235,1296.09 -108.878,1296.09 -105.52,1296.09 -102.163,1296.09 -98.8056,1296.09 -95.4482,1296.09 -92.0909,1296.09 -88.7335,1296.09 -85.3761,1296.09 -82.0187,1296.09 -78.6613,1296.09 -75.3039,1296.09 -71.9466,1296.09 -68.5892,1296.09 -65.2318,1296.09 -61.8744,1296.09 -58.517,1296.09 -55.1596,1296.09 -51.8023,1296.09 -48.4449,1296.09 -45.0875,1296.09 -41.7301,1296.09 -38.3727,1296.09 -35.0153,1296.09 -31.6579,1296.09 -28.3006,1296.09 -24.9432,1296.09 -21.5858,1296.09 -18.2284,1296.09 -14.871,1296.09 -11.5136,1296.09 -8.15626,1296.09 -4.79888,1296.09 -1.4415,1296.09 1.91589,1296.09 5.27327,1296.09 8.63065,1296.09 11.988,1296.09 15.3454,1296.09 18.7028,1296.09 22.0602,1296.09 25.4176,1296.09 28.775,1296.09 32.1323,1296.09 35.4897,1296.09 38.8471,1296.09 42.2045,1296.09 45.5619,1296.09 48.9193,1296.09 52.2766,1296.09 55.634,1296.09 58.9914,1296.09 62.3488,1296.09 65.7062,1296.09 69.0636,1296.09 72.4209,1296.09 75.7783,1296.09 79.1357,1296.09 82.4931,1296.09 85.8505,1296.09 89.2079,1296.09 92.5652,1296.09 95.9226,1296.09 99.28,1296.09 102.637,1296.09 105.995,1296.09 109.352,1296.09 112.71,1296.09 116.067,1296.09 119.424,1296.09 122.782,1296.09 126.139,1296.09 129.496,1296.09 132.854,1296.09 136.211,1296.09 139.569,1296.09 142.926,1296.09 146.283,1296.09 149.641,1296.09 152.998,1296.09 156.356,1296.09 159.713,1296.09 163.07,1296.09 166.428,1296.09 169.785,1296.09 173.142,1296.09 176.5,1296.09 179.857,1296.09 183.215,1296.09 186.572,1296.09 189.929,1296.09 193.287,1296.09 196.644,1296.09 200.002,1296.09 203.359,1296.09 206.716,1296.09 210.074,1296.09 213.431,1296.09 216.788,1296.09 220.146,1296.09 223.503,1296.09 226.861,1296.09 230.218,1296.09 233.575,1296.09 236.933,1296.09 240.29,1296.09 243.648,1296.09 247.005,1296.09 250.362,1296.08 253.72,1296.08 257.077,1296.08 260.434,1296.08 263.792,1296.08 267.149,1296.08 270.507,1296.08 273.864,1296.08 277.221,1296.08 280.579,1296.08 283.936,1296.08 287.293,1296.08 290.651,1296.08 294.008,1296.08 297.366,1296.08 300.723,1296.08 304.08,1296.08 307.438,1296.08 310.795,1296.08 314.153,1296.07 317.51,1296.07 320.867,1296.07 324.225,1296.07 327.582,1296.07 330.939,1296.06 334.297,1296.06 337.654,1296.06 341.012,1296.05 344.369,1296.05 347.726,1296.05 351.084,1296.04 354.441,1296.04 357.799,1296.03 361.156,1296.02 364.513,1296.01 367.871,1296 371.228,1295.99 374.585,1295.98 377.943,1295.97 381.3,1295.96 384.658,1295.94 388.015,1295.93 391.372,1295.91 394.73,1295.89 398.087,1295.86 401.445,1295.84 404.802,1295.81 408.159,1295.78 411.517,1295.74 414.874,1295.71 418.231,1295.67 421.589,1295.62 424.946,1295.57 428.304,1295.51 431.661,1295.45 435.018,1295.39 438.376,1295.31 441.733,1295.24 445.091,1295.15 448.448,1295.05 451.805,1294.95 455.163,1294.84 458.52,1294.71 461.877,1294.58 465.235,1294.43 468.592,1294.27 471.95,1294.1 475.307,1293.91 478.664,1293.71 482.022,1293.49 485.379,1293.25 488.737,1293 492.094,1292.72 495.451,1292.42 498.809,1292.1 502.166,1291.75 505.523,1291.37 508.881,1290.97 512.238,1290.54 515.596,1290.08 518.953,1289.58 522.31,1289.05 525.668,1288.48 529.025,1287.87 532.383,1287.22 535.74,1286.52 539.097,1285.78 542.455,1284.99 545.812,1284.16 549.169,1283.26 552.527,1282.32 555.884,1281.31 559.242,1280.25 562.599,1279.12 565.956,1277.92 569.314,1276.66 572.671,1275.33 576.028,1273.92 579.386,1272.44 582.743,1270.88 586.101,1269.23 589.458,1267.51 592.815,1265.7 596.173,1263.8 599.53,1261.81 602.888,1259.72 606.245,1257.54 609.602,1255.27 612.96,1252.89 616.317,1250.41 619.674,1247.84 623.032,1245.15 626.389,1242.37 629.747,1239.47 633.104,1236.47 636.461,1233.36 639.819,1230.14 643.176,1226.82 646.534,1223.38 649.891,1219.84 653.248,1216.19 656.606,1212.44 659.963,1208.58 663.32,1204.62 666.678,1200.55 670.035,1196.39 673.393,1192.13 676.75,1187.78 680.107,1183.33 683.465,1178.8 686.822,1174.19 690.18,1169.5 693.537,1164.74 696.894,1159.91 700.252,1155.02 703.609,1150.07 706.966,1145.07 710.324,1140.03 713.681,1134.95 717.039,1129.84 720.396,1124.72 723.753,1119.57 727.111,1114.42 730.468,1109.28 733.826,1104.14 737.183,1099.03 740.54,1093.94 743.898,1088.9 747.255,1083.9 750.612,1078.95 753.97,1074.08 757.327,1069.28 760.685,1064.56 764.042,1059.95 767.399,1055.43 770.757,1051.03 774.114,1046.76 777.472,1042.61 780.829,1038.61 784.186,1034.76 787.544,1031.07 790.901,1027.54 794.258,1024.19 797.616,1021.03 800.973,1018.06 804.331,1015.28 807.688,1012.71 811.045,1010.34 814.403,1008.2 817.76,1006.27 821.117,1004.57 824.475,1003.1 827.832,1001.86 831.19,1000.86 834.547,1000.1 837.904,999.581 841.262,999.302 844.619,999.265 847.977,999.472 851.334,999.92 854.691,1000.61 858.049,1001.54 861.406,1002.7 864.763,1004.11 868.121,1005.74 871.478,1007.6 874.836,1009.68 878.193,1011.97 881.55,1014.48 884.908,1017.2 888.265,1020.12 891.623,1023.23 894.98,1026.52 898.337,1029.99 901.695,1033.63 905.052,1037.44 908.409,1041.4 911.767,1045.5 915.124,1049.74 918.482,1054.1 921.839,1058.58 925.196,1063.17 928.554,1067.86 931.911,1072.63 935.269,1077.48 938.626,1082.41 941.983,1087.39 945.341,1092.42 948.698,1097.5 952.055,1102.61 955.413,1107.74 958.77,1112.88 962.128,1118.03 965.485,1123.17 968.842,1128.31 972.2,1133.42 975.557,1138.51 978.915,1143.56 982.272,1148.58 985.629,1153.54 988.987,1158.45 992.344,1163.3 995.701,1168.08 999.059,1172.79 1002.42,1177.43 1005.77,1181.98 1009.13,1186.45 1012.49,1190.83 1015.85,1195.12 1019.2,1199.31 1022.56,1203.41 1025.92,1207.4 1029.28,1211.29 1032.63,1215.08 1035.99,1218.76 1039.35,1222.33 1042.7,1225.8 1046.06,1229.16 1049.42,1232.41 1052.78,1235.55 1056.13,1238.58 1059.49,1241.51 1062.85,1244.33 1066.21,1247.04 1069.56,1249.65 1072.92,1252.16 1076.28,1254.56 1079.64,1256.87 1082.99,1259.08 1086.35,1261.19 1089.71,1263.21 1093.07,1265.14 1096.42,1266.97 1099.78,1268.73 1103.14,1270.39 1106.5,1271.98 1109.85,1273.48 1113.21,1274.91 1116.57,1276.27 1119.92,1277.55 1123.28,1278.77 1126.64,1279.91 1130,1281 1133.35,1282.02 1136.71,1282.99 1140.07,1283.89 1143.43,1284.75 1146.78,1285.55 1150.14,1286.31 1153.5,1287.01 1156.86,1287.68 1160.21,1288.3 1163.57,1288.88 1166.93,1289.42 1170.29,1289.93 1173.64,1290.4 1177,1290.85 1180.36,1291.26 1183.71,1291.64 1187.07,1291.99 1190.43,1292.32 1193.79,1292.63 1197.14,1292.91 1200.5,1293.18 1203.86,1293.42 1207.22,1293.65 1210.57,1293.85 1213.93,1294.05 1217.29,1294.22 1220.65,1294.39 1224,1294.54 1227.36,1294.67 1230.72,1294.8 1234.08,1294.92 1237.43,1295.02 1240.79,1295.12 1244.15,1295.21 1247.51,1295.29 1250.86,1295.37 1254.22,1295.43 1257.58,1295.5 1260.93,1295.55 1264.29,1295.6 1267.65,1295.64 1271.01,1295.68 1274.36,1295.69 1277.72,1295.67 1281.08,1295.57 1284.44,1295.34 1287.79,1294.86 1291.15,1293.9 1294.51,1292.15 1297.87,1289.08 1301.22,1283.96 1304.58,1275.79 1307.94,1263.35 1311.3,1245.29 1314.65,1220.31 1318.01,1187.45 1321.37,1146.43 1324.73,1098 1328.08,1044.17 1331.44,988.293 1334.8,934.788 1338.15,888.637 1341.51,854.638 1344.87,836.588 1348.23,836.588 1351.58,854.638 1354.94,888.637 1358.3,934.788 1361.66,988.293 1365.01,1044.17 1368.37,1098 1371.73,1146.43 1375.09,1187.45 1378.44,1220.31 1381.8,1245.29 1385.16,1263.35 1388.52,1275.79 1391.87,1283.96 1395.23,1289.08 1398.59,1292.15 1401.94,1293.9 1405.3,1294.86 1408.66,1295.34 1412.02,1295.57 1415.37,1295.67 1418.73,1295.69 1422.09,1295.68 1425.45,1295.64 1428.8,1295.6 1432.16,1295.55 1435.52,1295.5 1438.88,1295.43 1442.23,1295.37 1445.59,1295.29 1448.95,1295.21 1452.31,1295.12 1455.66,1295.02 1459.02,1294.92 1462.38,1294.8 1465.74,1294.67 1469.09,1294.54 1472.45,1294.39 1475.81,1294.22 1479.16,1294.05 1482.52,1293.85 1485.88,1293.65 1489.24,1293.42 1492.59,1293.18 1495.95,1292.91 1499.31,1292.63 1502.67,1292.32 1506.02,1291.99 1509.38,1291.64 1512.74,1291.26 1516.1,1290.85 1519.45,1290.4 1522.81,1289.93 1526.17,1289.42 1529.53,1288.88 1532.88,1288.3 1536.24,1287.68 1539.6,1287.01 1542.95,1286.31 1546.31,1285.55 1549.67,1284.75 1553.03,1283.89 1556.38,1282.99 1559.74,1282.02 1563.1,1281 1566.46,1279.91 1569.81,1278.77 1573.17,1277.55 1576.53,1276.27 1579.89,1274.91 1583.24,1273.48 1586.6,1271.98 1589.96,1270.39 1593.32,1268.73 1596.67,1266.97 1600.03,1265.14 1603.39,1263.21 1606.75,1261.19 1610.1,1259.08 1613.46,1256.87 1616.82,1254.56 1620.17,1252.16 1623.53,1249.65 1626.89,1247.04 1630.25,1244.33 1633.6,1241.51 1636.96,1238.58 1640.32,1235.55 1643.68,1232.41 1647.03,1229.16 1650.39,1225.8 1653.75,1222.33 1657.11,1218.76 1660.46,1215.08 1663.82,1211.29 1667.18,1207.4 1670.54,1203.41 1673.89,1199.31 1677.25,1195.12 1680.61,1190.83 1683.97,1186.45 1687.32,1181.98 1690.68,1177.43 1694.04,1172.79 1697.39,1168.08 1700.75,1163.3 1704.11,1158.45 1707.47,1153.54 1710.82,1148.58 1714.18,1143.56 1717.54,1138.51 1720.9,1133.42 1724.25,1128.31 1727.61,1123.17 1730.97,1118.03 1734.33,1112.88 1737.68,1107.74 1741.04,1102.61 1744.4,1097.5 1747.76,1092.42 1751.11,1087.39 1754.47,1082.41 1757.83,1077.48 1761.18,1072.63 1764.54,1067.86 1767.9,1063.17 1771.26,1058.58 1774.61,1054.1 1777.97,1049.74 1781.33,1045.5 1784.69,1041.4 1788.04,1037.44 1791.4,1033.63 1794.76,1029.99 1798.12,1026.52 1801.47,1023.23 1804.83,1020.12 1808.19,1017.2 1811.55,1014.48 1814.9,1011.97 1818.26,1009.68 1821.62,1007.6 1824.98,1005.74 1828.33,1004.11 1831.69,1002.7 1835.05,1001.54 1838.4,1000.61 1841.76,999.92 1845.12,999.472 1848.48,999.265 1851.83,999.302 1855.19,999.581 1858.55,1000.1 1861.91,1000.86 1865.26,1001.86 1868.62,1003.1 1871.98,1004.57 1875.34,1006.27 1878.69,1008.2 1882.05,1010.34 1885.41,1012.71 1888.77,1015.28 1892.12,1018.06 1895.48,1021.03 1898.84,1024.19 1902.2,1027.54 1905.55,1031.07 1908.91,1034.76 1912.27,1038.61 1915.62,1042.61 1918.98,1046.76 1922.34,1051.03 1925.7,1055.43 1929.05,1059.95 1932.41,1064.56 1935.77,1069.28 1939.13,1074.08 1942.48,1078.95 1945.84,1083.9 1949.2,1088.9 1952.56,1093.94 1955.91,1099.03 1959.27,1104.14 1962.63,1109.28 1965.99,1114.42 1969.34,1119.57 1972.7,1124.72 1976.06,1129.84 1979.41,1134.95 1982.77,1140.03 1986.13,1145.07 1989.49,1150.07 1992.84,1155.02 1996.2,1159.91 1999.56,1164.74 2002.92,1169.5 2006.27,1174.19 2009.63,1178.8 2012.99,1183.33 2016.35,1187.78 2019.7,1192.13 2023.06,1196.39 2026.42,1200.55 2029.78,1204.62 2033.13,1208.58 2036.49,1212.44 2039.85,1216.19 2043.21,1219.84 2046.56,1223.38 2049.92,1226.82 2053.28,1230.14 2056.63,1233.36 2059.99,1236.47 2063.35,1239.47 2066.71,1242.37 2070.06,1245.15 2073.42,1247.84 2076.78,1250.41 2080.14,1252.89 2083.49,1255.27 2086.85,1257.54 2090.21,1259.72 2093.57,1261.81 2096.92,1263.8 2100.28,1265.7 2103.64,1267.51 2107,1269.23 2110.35,1270.88 2113.71,1272.44 2117.07,1273.92 2120.42,1275.33 2123.78,1276.66 2127.14,1277.92 2130.5,1279.12 2133.85,1280.25 2137.21,1281.31 2140.57,1282.32 2143.93,1283.26 2147.28,1284.16 2150.64,1284.99 2154,1285.78 2157.36,1286.52 2160.71,1287.22 2164.07,1287.87 2167.43,1288.48 2170.79,1289.05 2174.14,1289.58 2177.5,1290.08 2180.86,1290.54 2184.22,1290.97 2187.57,1291.37 2190.93,1291.75 2194.29,1292.1 2197.64,1292.42 2201,1292.72 2204.36,1293 2207.72,1293.25 2211.07,1293.49 2214.43,1293.71 2217.79,1293.91 2221.15,1294.1 2224.5,1294.27 2227.86,1294.43 2231.22,1294.58 2234.58,1294.71 2237.93,1294.84 2241.29,1294.95 2244.65,1295.05 2248.01,1295.15 2251.36,1295.24 2254.72,1295.31 2258.08,1295.39 2261.44,1295.45 2264.79,1295.51 2268.15,1295.57 2271.51,1295.62 2274.86,1295.67 2278.22,1295.71 2281.58,1295.74 2284.94,1295.78 2288.29,1295.81 2291.65,1295.84 2295.01,1295.86 2298.37,1295.89 2301.72,1295.91 2305.08,1295.93 2308.44,1295.94 2311.8,1295.96 2315.15,1295.97 2318.51,1295.98 2321.87,1295.99 2325.23,1296 2328.58,1296.01 2331.94,1296.02 2335.3,1296.03 2338.65,1296.04 2342.01,1296.04 2345.37,1296.05 2348.73,1296.05 2352.08,1296.05 2355.44,1296.06 2358.8,1296.06 2362.16,1296.06 2365.51,1296.07 2368.87,1296.07 2372.23,1296.07 2375.59,1296.07 2378.94,1296.07 2382.3,1296.08 2385.66,1296.08 2389.02,1296.08 2392.37,1296.08 2395.73,1296.08 2399.09,1296.08 2402.45,1296.08 2405.8,1296.08 2409.16,1296.08 2412.52,1296.08 2415.87,1296.08 2419.23,1296.08 2422.59,1296.08 2425.95,1296.08 2429.3,1296.08 2432.66,1296.08 2436.02,1296.08 2439.38,1296.08 2442.73,1296.08 2446.09,1296.09 2449.45,1296.09 2452.81,1296.09 2456.16,1296.09 2459.52,1296.09 2462.88,1296.09 2466.24,1296.09 2469.59,1296.09 2472.95,1296.09 2476.31,1296.09 2479.67,1296.09 2483.02,1296.09 2486.38,1296.09 2489.74,1296.09 2493.09,1296.09 2496.45,1296.09 2499.81,1296.09 2503.17,1296.09 2506.52,1296.09 2509.88,1296.09 2513.24,1296.09 2516.6,1296.09 2519.95,1296.09 2523.31,1296.09 2526.67,1296.09 2530.03,1296.09 2533.38,1296.09 2536.74,1296.09 2540.1,1296.09 2543.46,1296.09 2546.81,1296.09 2550.17,1296.09 2553.53,1296.09 2556.88,1296.09 2560.24,1296.09 2563.6,1296.09 2566.96,1296.09 2570.31,1296.09 2573.67,1296.09 2577.03,1296.09 2580.39,1296.09 2583.74,1296.09 2587.1,1296.09 2590.46,1296.09 2593.82,1296.09 2597.17,1296.09 2600.53,1296.09 2603.89,1296.09 2607.25,1296.09 2610.6,1296.09 2613.96,1296.09 2617.32,1296.09 2620.68,1296.09 2624.03,1296.09 2627.39,1296.09 2630.75,1296.09 2634.1,1296.09 2637.46,1296.09 2640.82,1296.09 2644.18,1296.09 2647.53,1296.09 2650.89,1296.09 2654.25,1296.09 2657.61,1296.09 2660.96,1296.09 2664.32,1296.09 2667.68,1296.09 2671.04,1296.09 2674.39,1296.09 2677.75,1296.09 2681.11,1296.09 2684.47,1296.09 2687.82,1296.09 2691.18,1296.09 2694.54,1296.09 2697.89,1296.09 2701.25,1296.09 2704.61,1296.09 2707.97,1296.09 2711.32,1296.09 2714.68,1296.09 2718.04,1296.09 2721.4,1296.09 2724.75,1296.09 2728.11,1296.09 2731.47,1296.09 2734.83,1296.09 2738.18,1296.09 2741.54,1296.09 2744.9,1296.09 2748.26,1296.09 2751.61,1296.09 2754.97,1296.09 2758.33,1296.09 2761.69,1296.09 2765.04,1296.09 2768.4,1296.09 2771.76,1296.09 2775.11,1296.09 2778.47,1296.09 2781.83,1296.09 2785.19,1296.09 2788.54,1296.09 2791.9,1296.09 2795.26,1296.09 2798.62,1296.09 2801.97,1296.09 2805.33,1296.09 2808.69,1296.09 2812.05,1296.09 2815.4,1296.09 2818.76,1296.09 2822.12,1296.09 2825.48,1296.09 2828.83,1296.09 2832.19,1296.09 2835.55,1296.09 2838.91,1296.09 2842.26,1296.09 2845.62,1296.09 2848.98,1296.09 2852.33,1296.09 2855.69,1296.09 2859.05,1296.09 2862.41,1296.09 2865.76,1296.09 2869.12,1296.09 2872.48,1296.09 2875.84,1296.09 2879.19,1296.09 2882.55,1296.09 2885.91,1296.09 2889.27,1296.09 2892.62,1296.09 2895.98,1296.09 2899.34,1296.09 2902.7,1296.09 2906.05,1296.09 2909.41,1296.09 2912.77,1296.09 2916.12,1296.09 2919.48,1296.09 2922.84,1296.09 2926.2,1296.09 2929.55,1296.09 2932.91,1296.09 2936.27,1296.09 2939.63,1296.09 2942.98,1296.09 2946.34,1296.09 2949.7,1296.09 2953.06,1296.09 2956.41,1296.09 2959.77,1296.09 2963.13,1296.09 2966.49,1296.09 2969.84,1296.09 2973.2,1296.09 2976.56,1296.09 2979.92,1296.09 2983.27,1296.09 2986.63,1296.09 2989.99,1296.09 2993.34,1296.09 2996.7,1296.09 3000.06,1296.09 3003.42,1296.09 3006.77,1296.09 3010.13,1296.09 3013.49,1296.09 3016.85,1296.09 3020.2,1296.09 3023.56,1296.09 "/>
<path clip-path="url(#clip370)" d="M1636.11 608.485 L2285.68 608.485 L2285.68 90.0846 L1636.11 90.0846  Z" fill="#ffffff" fill-rule="evenodd" fill-opacity="1"/>
<polyline clip-path="url(#clip370)" style="stroke:#000000; stroke-linecap:round; stroke-linejoin:round; stroke-width:4; stroke-opacity:1; fill:none" points="1636.11,608.485 2285.68,608.485 2285.68,90.0846 1636.11,90.0846 1636.11,608.485 "/>
<polyline clip-path="url(#clip370)" style="stroke:#009af9; stroke-linecap:round; stroke-linejoin:round; stroke-width:30; stroke-opacity:1; fill:none" points="1658.47,219.685 1792.64,219.685 "/>
<path clip-path="url(#clip370)" d="M1869.28 223.764 L1869.28 262.885 L1858.63 262.885 L1858.63 224.112 Q1858.63 214.91 1855.04 210.339 Q1851.45 205.767 1844.28 205.767 Q1835.66 205.767 1830.68 211.265 Q1825.7 216.762 1825.7 226.253 L1825.7 262.885 L1815 262.885 L1815 198.07 L1825.7 198.07 L1825.7 208.14 Q1829.52 202.295 1834.67 199.401 Q1839.88 196.508 1846.65 196.508 Q1857.82 196.508 1863.55 203.452 Q1869.28 210.339 1869.28 223.764 Z" fill="#000000" fill-rule="nonzero" fill-opacity="1" /><path clip-path="url(#clip370)" d="M1915.63 205.535 Q1907.07 205.535 1902.09 212.248 Q1897.11 218.903 1897.11 230.535 Q1897.11 242.167 1902.03 248.88 Q1907.01 255.535 1915.63 255.535 Q1924.14 255.535 1929.12 248.822 Q1934.09 242.109 1934.09 230.535 Q1934.09 219.019 1929.12 212.306 Q1924.14 205.535 1915.63 205.535 M1915.63 196.508 Q1929.52 196.508 1937.45 205.535 Q1945.38 214.563 1945.38 230.535 Q1945.38 246.45 1937.45 255.535 Q1929.52 264.563 1915.63 264.563 Q1901.69 264.563 1893.76 255.535 Q1885.89 246.45 1885.89 230.535 Q1885.89 214.563 1893.76 205.535 Q1901.69 196.508 1915.63 196.508 Z" fill="#000000" fill-rule="nonzero" fill-opacity="1" /><path clip-path="url(#clip370)" d="M2016.9 223.764 L2016.9 262.885 L2006.26 262.885 L2006.26 224.112 Q2006.26 214.91 2002.67 210.339 Q1999.08 205.767 1991.9 205.767 Q1983.28 205.767 1978.31 211.265 Q1973.33 216.762 1973.33 226.253 L1973.33 262.885 L1962.62 262.885 L1962.62 198.07 L1973.33 198.07 L1973.33 208.14 Q1977.15 202.295 1982.3 199.401 Q1987.51 196.508 1994.28 196.508 Q2005.45 196.508 2011.18 203.452 Q2016.9 210.339 2016.9 223.764 Z" fill="#000000" fill-rule="nonzero" fill-opacity="1" /><path clip-path="url(#clip370)" d="M2032.76 225.674 L2063.95 225.674 L2063.95 235.165 L2032.76 235.165 L2032.76 225.674 Z" fill="#000000" fill-rule="nonzero" fill-opacity="1" /><path clip-path="url(#clip370)" d="M2108.22 205.535 Q2099.66 205.535 2094.68 212.248 Q2089.71 218.903 2089.71 230.535 Q2089.71 242.167 2094.62 248.88 Q2099.6 255.535 2108.22 255.535 Q2116.73 255.535 2121.71 248.822 Q2126.68 242.109 2126.68 230.535 Q2126.68 219.019 2121.71 212.306 Q2116.73 205.535 2108.22 205.535 M2108.22 196.508 Q2122.11 196.508 2130.04 205.535 Q2137.97 214.563 2137.97 230.535 Q2137.97 246.45 2130.04 255.535 Q2122.11 264.563 2108.22 264.563 Q2094.28 264.563 2086.35 255.535 Q2078.48 246.45 2078.48 230.535 Q2078.48 214.563 2086.35 205.535 Q2094.28 196.508 2108.22 196.508 Z" fill="#000000" fill-rule="nonzero" fill-opacity="1" /><path clip-path="url(#clip370)" d="M2165.92 253.162 L2165.92 287.537 L2155.21 287.537 L2155.21 198.07 L2165.92 198.07 L2165.92 207.908 Q2169.28 202.121 2174.37 199.343 Q2179.52 196.508 2186.64 196.508 Q2198.44 196.508 2205.79 205.883 Q2213.2 215.258 2213.2 230.535 Q2213.2 245.813 2205.79 255.188 Q2198.44 264.563 2186.64 264.563 Q2179.52 264.563 2174.37 261.785 Q2169.28 258.949 2165.92 253.162 M2202.15 230.535 Q2202.15 218.788 2197.29 212.133 Q2192.48 205.42 2184.03 205.42 Q2175.58 205.42 2170.72 212.133 Q2165.92 218.788 2165.92 230.535 Q2165.92 242.283 2170.72 248.996 Q2175.58 255.651 2184.03 255.651 Q2192.48 255.651 2197.29 248.996 Q2202.15 242.283 2202.15 230.535 Z" fill="#000000" fill-rule="nonzero" fill-opacity="1" /><path clip-path="url(#clip370)" d="M2241.38 179.667 L2241.38 198.07 L2263.32 198.07 L2263.32 206.346 L2241.38 206.346 L2241.38 241.531 Q2241.38 249.459 2243.52 251.716 Q2245.72 253.973 2252.38 253.973 L2263.32 253.973 L2263.32 262.885 L2252.38 262.885 Q2240.05 262.885 2235.36 258.313 Q2230.68 253.683 2230.68 241.531 L2230.68 206.346 L2222.86 206.346 L2222.86 198.07 L2230.68 198.07 L2230.68 179.667 L2241.38 179.667 Z" fill="#000000" fill-rule="nonzero" fill-opacity="1" /><polyline clip-path="url(#clip370)" style="stroke:#e26f46; stroke-linecap:round; stroke-linejoin:round; stroke-width:30; stroke-opacity:1; fill:none" points="1658.47,349.285 1792.64,349.285 "/>
<path clip-path="url(#clip370)" d="M1844.74 335.135 Q1836.18 335.135 1831.2 341.848 Q1826.22 348.503 1826.22 360.135 Q1826.22 371.767 1831.14 378.48 Q1836.12 385.135 1844.74 385.135 Q1853.25 385.135 1858.22 378.422 Q1863.2 371.709 1863.2 360.135 Q1863.2 348.619 1858.22 341.906 Q1853.25 335.135 1844.74 335.135 M1844.74 326.108 Q1858.63 326.108 1866.56 335.135 Q1874.49 344.163 1874.49 360.135 Q1874.49 376.05 1866.56 385.135 Q1858.63 394.163 1844.74 394.163 Q1830.79 394.163 1822.87 385.135 Q1815 376.05 1815 360.135 Q1815 344.163 1822.87 335.135 Q1830.79 326.108 1844.74 326.108 Z" fill="#000000" fill-rule="nonzero" fill-opacity="1" /><path clip-path="url(#clip370)" d="M1902.44 382.762 L1902.44 417.137 L1891.73 417.137 L1891.73 327.67 L1902.44 327.67 L1902.44 337.508 Q1905.79 331.721 1910.89 328.943 Q1916.04 326.108 1923.15 326.108 Q1934.96 326.108 1942.31 335.483 Q1949.72 344.858 1949.72 360.135 Q1949.72 375.413 1942.31 384.788 Q1934.96 394.163 1923.15 394.163 Q1916.04 394.163 1910.89 391.385 Q1905.79 388.549 1902.44 382.762 M1938.66 360.135 Q1938.66 348.388 1933.8 341.733 Q1929 335.02 1920.55 335.02 Q1912.1 335.02 1907.24 341.733 Q1902.44 348.388 1902.44 360.135 Q1902.44 371.883 1907.24 378.596 Q1912.1 385.251 1920.55 385.251 Q1929 385.251 1933.8 378.596 Q1938.66 371.883 1938.66 360.135 Z" fill="#000000" fill-rule="nonzero" fill-opacity="1" /><path clip-path="url(#clip370)" d="M1977.9 309.267 L1977.9 327.67 L1999.83 327.67 L1999.83 335.946 L1977.9 335.946 L1977.9 371.131 Q1977.9 379.059 1980.04 381.316 Q1982.24 383.573 1988.9 383.573 L1999.83 383.573 L1999.83 392.485 L1988.9 392.485 Q1976.57 392.485 1971.88 387.913 Q1967.19 383.283 1967.19 371.131 L1967.19 335.946 L1959.38 335.946 L1959.38 327.67 L1967.19 327.67 L1967.19 309.267 L1977.9 309.267 Z" fill="#000000" fill-rule="nonzero" fill-opacity="1" /><polyline clip-path="url(#clip370)" style="stroke:#000000; stroke-linecap:round; stroke-linejoin:round; stroke-width:15; stroke-opacity:1; fill:none" stroke-dasharray="60, 38" points="1658.47,478.885 1792.64,478.885 "/>
<path clip-path="url(#clip370)" d="M1875.06 487.015 L1875.06 492.224 L1826.11 492.224 Q1826.8 503.219 1832.7 509.006 Q1838.66 514.735 1849.25 514.735 Q1855.39 514.735 1861.12 513.231 Q1866.91 511.726 1872.58 508.717 L1872.58 518.786 Q1866.85 521.217 1860.83 522.49 Q1854.81 523.763 1848.62 523.763 Q1833.11 523.763 1824.02 514.735 Q1815 505.707 1815 490.314 Q1815 474.4 1823.56 465.083 Q1832.18 455.708 1846.77 455.708 Q1859.85 455.708 1867.43 464.157 Q1875.06 472.548 1875.06 487.015 M1864.42 483.89 Q1864.3 475.152 1859.5 469.944 Q1854.75 464.735 1846.88 464.735 Q1837.97 464.735 1832.59 469.77 Q1827.26 474.805 1826.45 483.948 L1864.42 483.89 Z" fill="#000000" fill-rule="nonzero" fill-opacity="1" /><path clip-path="url(#clip370)" d="M1944.34 457.27 L1920.9 488.809 L1945.55 522.085 L1932.99 522.085 L1914.13 496.622 L1895.26 522.085 L1882.7 522.085 L1907.88 488.173 L1884.85 457.27 L1897.4 457.27 L1914.59 480.36 L1931.78 457.27 L1944.34 457.27 Z" fill="#000000" fill-rule="nonzero" fill-opacity="1" /><path clip-path="url(#clip370)" d="M1990.05 489.504 Q1977.15 489.504 1972.17 492.455 Q1967.19 495.407 1967.19 502.525 Q1967.19 508.196 1970.9 511.552 Q1974.66 514.851 1981.08 514.851 Q1989.94 514.851 1995.26 508.601 Q2000.64 502.293 2000.64 491.876 L2000.64 489.504 L1990.05 489.504 M2011.29 485.106 L2011.29 522.085 L2000.64 522.085 L2000.64 512.247 Q1997 518.149 1991.56 520.985 Q1986.12 523.763 1978.25 523.763 Q1968.29 523.763 1962.39 518.207 Q1956.55 512.594 1956.55 503.219 Q1956.55 492.282 1963.84 486.726 Q1971.19 481.17 1985.71 481.17 L2000.64 481.17 L2000.64 480.129 Q2000.64 472.779 1995.78 468.786 Q1990.98 464.735 1982.24 464.735 Q1976.68 464.735 1971.42 466.066 Q1966.15 467.397 1961.29 470.059 L1961.29 460.222 Q1967.14 457.965 1972.63 456.865 Q1978.13 455.708 1983.34 455.708 Q1997.4 455.708 2004.35 462.999 Q2011.29 470.291 2011.29 485.106 Z" fill="#000000" fill-rule="nonzero" fill-opacity="1" /><path clip-path="url(#clip370)" d="M2079.87 459.759 L2079.87 469.712 Q2075.35 467.224 2070.78 466.009 Q2066.27 464.735 2061.64 464.735 Q2051.28 464.735 2045.55 471.333 Q2039.82 477.872 2039.82 489.735 Q2039.82 501.599 2045.55 508.196 Q2051.28 514.735 2061.64 514.735 Q2066.27 514.735 2070.78 513.52 Q2075.35 512.247 2079.87 509.758 L2079.87 519.596 Q2075.41 521.68 2070.61 522.721 Q2065.86 523.763 2060.48 523.763 Q2045.84 523.763 2037.22 514.562 Q2028.59 505.36 2028.59 489.735 Q2028.59 473.879 2037.27 464.793 Q2046.01 455.708 2061.18 455.708 Q2066.09 455.708 2070.78 456.749 Q2075.47 457.733 2079.87 459.759 Z" fill="#000000" fill-rule="nonzero" fill-opacity="1" /><path clip-path="url(#clip370)" d="M2108.92 438.867 L2108.92 457.27 L2130.85 457.27 L2130.85 465.546 L2108.92 465.546 L2108.92 500.731 Q2108.92 508.659 2111.06 510.916 Q2113.26 513.173 2119.91 513.173 L2130.85 513.173 L2130.85 522.085 L2119.91 522.085 Q2107.59 522.085 2102.9 517.513 Q2098.21 512.883 2098.21 500.731 L2098.21 465.546 L2090.4 465.546 L2090.4 457.27 L2098.21 457.27 L2098.21 438.867 L2108.92 438.867 Z" fill="#000000" fill-rule="nonzero" fill-opacity="1" /></svg>
