<?xml version="1.0" encoding="utf-8"?>
<svg xmlns="http://www.w3.org/2000/svg" xmlns:xlink="http://www.w3.org/1999/xlink" width="600" height="400" viewBox="0 0 2400 1600">
<defs>
  <clipPath id="clip060">
    <rect x="0" y="0" width="2400" height="1600"/>
  </clipPath>
</defs>
<path clip-path="url(#clip060)" d="M0 1600 L2400 1600 L2400 0 L0 0  Z" fill="#ffffff" fill-rule="evenodd" fill-opacity="1"/>
<defs>
  <clipPath id="clip061">
    <rect x="480" y="0" width="1681" height="1600"/>
  </clipPath>
</defs>
<defs>
  <clipPath id="clip062">
    <rect x="340" y="47" width="2013" height="1286"/>
  </clipPath>
</defs>
<path clip-path="url(#clip060)" d="M340.34 1332.46 L2352.76 1332.46 L2352.76 47.2441 L340.34 47.2441  Z" fill="#ffffff" fill-rule="evenodd" fill-opacity="1"/>
<polyline clip-path="url(#clip062)" style="stroke:#000000; stroke-linecap:round; stroke-linejoin:round; stroke-width:2; stroke-opacity:0.1; fill:none" points="2185.05,1332.46 2185.05,47.2441 "/>
<polyline clip-path="url(#clip062)" style="stroke:#000000; stroke-linecap:round; stroke-linejoin:round; stroke-width:2; stroke-opacity:0.1; fill:none" points="1346.55,1332.46 1346.55,47.2441 "/>
<polyline clip-path="url(#clip062)" style="stroke:#000000; stroke-linecap:round; stroke-linejoin:round; stroke-width:2; stroke-opacity:0.1; fill:none" points="508.041,1332.46 508.041,47.2441 "/>
<polyline clip-path="url(#clip060)" style="stroke:#000000; stroke-linecap:round; stroke-linejoin:round; stroke-width:4; stroke-opacity:1; fill:none" points="340.34,1332.46 2352.76,1332.46 "/>
<polyline clip-path="url(#clip060)" style="stroke:#000000; stroke-linecap:round; stroke-linejoin:round; stroke-width:4; stroke-opacity:1; fill:none" points="2185.05,1332.46 2185.05,1313.56 "/>
<polyline clip-path="url(#clip060)" style="stroke:#000000; stroke-linecap:round; stroke-linejoin:round; stroke-width:4; stroke-opacity:1; fill:none" points="1346.55,1332.46 1346.55,1313.56 "/>
<polyline clip-path="url(#clip060)" style="stroke:#000000; stroke-linecap:round; stroke-linejoin:round; stroke-width:4; stroke-opacity:1; fill:none" points="508.041,1332.46 508.041,1313.56 "/>
<path clip-path="url(#clip060)" d="M2166.83 1367.86 L2201.24 1367.86 L2201.24 1375.24 L2174.85 1375.24 L2174.85 1391.12 Q2176.76 1390.47 2178.67 1390.17 Q2180.58 1389.82 2182.49 1389.82 Q2193.34 1389.82 2199.68 1395.77 Q2206.02 1401.71 2206.02 1411.87 Q2206.02 1422.33 2199.51 1428.15 Q2193 1433.92 2181.15 1433.92 Q2177.07 1433.92 2172.82 1433.22 Q2168.61 1432.53 2164.09 1431.14 L2164.09 1422.33 Q2168 1424.46 2172.16 1425.5 Q2176.33 1426.54 2180.97 1426.54 Q2188.48 1426.54 2192.87 1422.59 Q2197.25 1418.64 2197.25 1411.87 Q2197.25 1405.1 2192.87 1401.15 Q2188.48 1397.2 2180.97 1397.2 Q2177.46 1397.2 2173.94 1397.98 Q2170.47 1398.76 2166.83 1400.41 L2166.83 1367.86 Z" fill="#000000" fill-rule="evenodd" fill-opacity="1" /><path clip-path="url(#clip060)" d="M1346.55 1373.63 Q1339.78 1373.63 1336.35 1380.32 Q1332.96 1386.96 1332.96 1400.32 Q1332.96 1413.65 1336.35 1420.33 Q1339.78 1426.97 1346.55 1426.97 Q1353.36 1426.97 1356.75 1420.33 Q1360.18 1413.65 1360.18 1400.32 Q1360.18 1386.96 1356.75 1380.32 Q1353.36 1373.63 1346.55 1373.63 M1346.55 1366.69 Q1357.44 1366.69 1363.17 1375.33 Q1368.94 1383.92 1368.94 1400.32 Q1368.94 1416.69 1363.17 1425.32 Q1357.44 1433.92 1346.55 1433.92 Q1335.65 1433.92 1329.88 1425.32 Q1324.15 1416.69 1324.15 1400.32 Q1324.15 1383.92 1329.88 1375.33 Q1335.65 1366.69 1346.55 1366.69 Z" fill="#000000" fill-rule="evenodd" fill-opacity="1" /><path clip-path="url(#clip060)" d="M451.119 1401.11 L506.761 1401.11 L506.761 1408.48 L451.119 1408.48 L451.119 1401.11 Z" fill="#000000" fill-rule="evenodd" fill-opacity="1" /><path clip-path="url(#clip060)" d="M525.771 1367.86 L560.19 1367.86 L560.19 1375.24 L533.801 1375.24 L533.801 1391.12 Q535.711 1390.47 537.62 1390.17 Q539.53 1389.82 541.44 1389.82 Q552.29 1389.82 558.627 1395.77 Q564.964 1401.71 564.964 1411.87 Q564.964 1422.33 558.454 1428.15 Q551.943 1433.92 540.094 1433.92 Q536.014 1433.92 531.761 1433.22 Q527.551 1432.53 523.037 1431.14 L523.037 1422.33 Q526.943 1424.46 531.11 1425.5 Q535.277 1426.54 539.921 1426.54 Q547.429 1426.54 551.813 1422.59 Q556.197 1418.64 556.197 1411.87 Q556.197 1405.1 551.813 1401.15 Q547.429 1397.2 539.921 1397.2 Q536.405 1397.2 532.889 1397.98 Q529.417 1398.76 525.771 1400.41 L525.771 1367.86 Z" fill="#000000" fill-rule="evenodd" fill-opacity="1" /><path clip-path="url(#clip060)" d="M1388.97 1506.65 Q1388.97 1513.46 1385.53 1526.64 Q1384.14 1532.35 1382.24 1537.54 Q1380.41 1542.67 1377.7 1547.64 Q1374.99 1552.62 1371.84 1556.21 Q1368.7 1559.72 1364.6 1561.92 Q1360.5 1564.11 1355.96 1564.11 Q1348.79 1564.11 1344.54 1559.87 Q1340.37 1555.55 1339.05 1548.16 Q1329.24 1564.11 1316.14 1564.11 Q1308.02 1564.11 1304.21 1558.33 Q1300.41 1552.47 1300.41 1542.67 Q1300.41 1534.39 1302.6 1525.83 Q1306.77 1509.58 1314.9 1498.24 Q1316 1496.92 1317.61 1496.92 Q1318.56 1496.92 1319 1497.21 Q1320.31 1498.02 1320.31 1499.33 Q1320.31 1500.29 1319.58 1501.24 Q1314.46 1508.34 1311.09 1514.41 Q1307.72 1520.49 1306.19 1526.64 Q1305.02 1531.91 1305.02 1536.37 Q1305.02 1543.91 1308.24 1548.59 Q1311.53 1553.28 1318.05 1553.28 Q1324.05 1553.28 1329.32 1549.55 Q1334.59 1545.74 1338.47 1539.37 Q1338.69 1532.42 1340.37 1525.83 Q1341.91 1518.8 1345.49 1518.8 Q1348.35 1518.8 1348.35 1522.68 Q1348.35 1524 1347.76 1526.64 Q1346.15 1533.59 1343.22 1539.81 Q1344.25 1545.89 1348.06 1549.62 Q1351.86 1553.28 1357.94 1553.28 Q1363.57 1553.28 1368.55 1549.18 Q1373.6 1545.08 1376.82 1539.08 Q1380.11 1533 1381.94 1525.83 Q1382.53 1523.42 1382.53 1520.34 Q1382.53 1512.14 1376.82 1507.09 Q1375.21 1505.48 1375.21 1503.36 Q1375.21 1500.87 1377.26 1498.6 Q1379.68 1496.19 1382.53 1496.19 Q1384.65 1496.19 1385.97 1497.5 Q1388.97 1500.14 1388.97 1506.65 Z" fill="#000000" fill-rule="evenodd" fill-opacity="1" /><polyline clip-path="url(#clip062)" style="stroke:#000000; stroke-linecap:round; stroke-linejoin:round; stroke-width:2; stroke-opacity:0.1; fill:none" points="340.34,156.375 2352.76,156.375 "/>
<polyline clip-path="url(#clip062)" style="stroke:#000000; stroke-linecap:round; stroke-linejoin:round; stroke-width:2; stroke-opacity:0.1; fill:none" points="340.34,1296.1 2352.76,1296.1 "/>
<polyline clip-path="url(#clip060)" style="stroke:#000000; stroke-linecap:round; stroke-linejoin:round; stroke-width:4; stroke-opacity:1; fill:none" points="340.34,1332.46 340.34,47.2441 "/>
<polyline clip-path="url(#clip060)" style="stroke:#000000; stroke-linecap:round; stroke-linejoin:round; stroke-width:4; stroke-opacity:1; fill:none" points="340.34,156.375 359.238,156.375 "/>
<polyline clip-path="url(#clip060)" style="stroke:#000000; stroke-linecap:round; stroke-linejoin:round; stroke-width:4; stroke-opacity:1; fill:none" points="340.34,1296.1 359.238,1296.1 "/>
<path clip-path="url(#clip060)" d="M198.351 129.748 Q191.58 129.748 188.152 136.432 Q184.766 143.072 184.766 156.44 Q184.766 169.765 188.152 176.449 Q191.58 183.09 198.351 183.09 Q205.165 183.09 208.551 176.449 Q211.98 169.765 211.98 156.44 Q211.98 143.072 208.551 136.432 Q205.165 129.748 198.351 129.748 M198.351 122.803 Q209.245 122.803 214.974 131.441 Q220.747 140.034 220.747 156.44 Q220.747 172.803 214.974 181.44 Q209.245 190.034 198.351 190.034 Q187.457 190.034 181.685 181.44 Q175.955 172.803 175.955 156.44 Q175.955 140.034 181.685 131.441 Q187.457 122.803 198.351 122.803 Z" fill="#000000" fill-rule="evenodd" fill-opacity="1" /><path clip-path="url(#clip060)" d="M236.155 177.751 L245.313 177.751 L245.313 188.775 L236.155 188.775 L236.155 177.751 Z" fill="#000000" fill-rule="evenodd" fill-opacity="1" /><path clip-path="url(#clip060)" d="M290.972 153.836 Q297.266 155.182 300.781 159.435 Q304.34 163.689 304.34 169.939 Q304.34 179.531 297.743 184.782 Q291.146 190.034 278.993 190.034 Q274.913 190.034 270.573 189.209 Q266.276 188.428 261.675 186.822 L261.675 178.359 Q265.321 180.485 269.662 181.571 Q274.002 182.656 278.733 182.656 Q286.979 182.656 291.276 179.4 Q295.616 176.145 295.616 169.939 Q295.616 164.209 291.58 160.998 Q287.587 157.743 280.425 157.743 L272.873 157.743 L272.873 150.538 L280.773 150.538 Q287.24 150.538 290.668 147.977 Q294.097 145.373 294.097 140.512 Q294.097 135.52 290.538 132.873 Q287.023 130.182 280.425 130.182 Q276.823 130.182 272.7 130.963 Q268.576 131.744 263.629 133.394 L263.629 125.581 Q268.62 124.192 272.96 123.498 Q277.344 122.803 281.207 122.803 Q291.189 122.803 297.005 127.361 Q302.821 131.875 302.821 139.6 Q302.821 144.982 299.739 148.715 Q296.658 152.404 290.972 153.836 Z" fill="#000000" fill-rule="evenodd" fill-opacity="1" /><path clip-path="url(#clip060)" d="M197.136 1269.47 Q190.365 1269.47 186.936 1276.16 Q183.551 1282.8 183.551 1296.16 Q183.551 1309.49 186.936 1316.17 Q190.365 1322.81 197.136 1322.81 Q203.95 1322.81 207.335 1316.17 Q210.764 1309.49 210.764 1296.16 Q210.764 1282.8 207.335 1276.16 Q203.95 1269.47 197.136 1269.47 M197.136 1262.53 Q208.03 1262.53 213.759 1271.16 Q219.532 1279.76 219.532 1296.16 Q219.532 1312.53 213.759 1321.16 Q208.03 1329.76 197.136 1329.76 Q186.242 1329.76 180.469 1321.16 Q174.74 1312.53 174.74 1296.16 Q174.74 1279.76 180.469 1271.16 Q186.242 1262.53 197.136 1262.53 Z" fill="#000000" fill-rule="evenodd" fill-opacity="1" /><path clip-path="url(#clip060)" d="M234.939 1317.47 L244.097 1317.47 L244.097 1328.5 L234.939 1328.5 L234.939 1317.47 Z" fill="#000000" fill-rule="evenodd" fill-opacity="1" /><path clip-path="url(#clip060)" d="M281.944 1269.47 Q275.174 1269.47 271.745 1276.16 Q268.359 1282.8 268.359 1296.16 Q268.359 1309.49 271.745 1316.17 Q275.174 1322.81 281.944 1322.81 Q288.759 1322.81 292.144 1316.17 Q295.573 1309.49 295.573 1296.16 Q295.573 1282.8 292.144 1276.16 Q288.759 1269.47 281.944 1269.47 M281.944 1262.53 Q292.838 1262.53 298.568 1271.16 Q304.34 1279.76 304.34 1296.16 Q304.34 1312.53 298.568 1321.16 Q292.838 1329.76 281.944 1329.76 Q271.05 1329.76 265.278 1321.16 Q259.549 1312.53 259.549 1296.16 Q259.549 1279.76 265.278 1271.16 Q271.05 1262.53 281.944 1262.53 Z" fill="#000000" fill-rule="evenodd" fill-opacity="1" /><path clip-path="url(#clip060)" d="M48.927 657.422 Q59.7599 657.422 69.934 662.985 Q80.1081 668.474 86.2565 677.111 Q92.4049 685.675 92.4049 694.312 Q92.4049 704.047 82.304 709.098 Q118.975 718.247 119.926 718.759 Q123.074 720.882 123.074 723.956 Q123.074 725.859 121.903 727.03 Q120.805 728.202 119.048 728.202 Q118.462 728.128 116.632 727.689 L57.7104 713.05 Q44.0229 709.683 34.288 699.509 Q24.4798 689.262 24.4798 678.282 Q24.4798 669.572 30.9942 663.497 Q37.5085 657.422 48.927 657.422 M42.4858 668.182 Q35.1663 668.182 31.5065 671.109 Q27.7736 674.037 27.7736 678.575 Q27.7736 682.747 31.1406 687.798 Q34.5075 692.775 41.9734 697.167 Q46.292 699.509 51.6352 701.193 Q56.9784 702.876 70.1536 706.17 Q75.4236 707.341 75.7164 707.341 Q76.302 707.341 77.6195 707.048 Q78.937 706.682 80.9865 705.804 Q82.9627 704.852 84.7194 703.535 Q86.4761 702.217 87.7936 699.802 Q89.0379 697.386 89.0379 694.459 Q89.0379 689.921 85.3782 685.09 Q81.6452 680.186 74.8381 676.599 Q69.3484 673.598 59.0279 670.89 Q48.6342 668.182 42.4858 668.182 Z" fill="#000000" fill-rule="evenodd" fill-opacity="1" /><polyline clip-path="url(#clip062)" style="stroke:#009af9; stroke-linecap:round; stroke-linejoin:round; stroke-width:12; stroke-opacity:1; fill:none" points="-330.465,1296.09 -327.108,1296.09 -323.75,1296.09 -320.393,1296.09 -317.036,1296.08 -313.678,1296.08 -310.321,1296.08 -306.963,1296.08 -303.606,1296.08 -300.249,1296.08 -296.891,1296.08 -293.534,1296.08 -290.176,1296.08 -286.819,1296.08 -283.462,1296.08 -280.104,1296.08 -276.747,1296.08 -273.39,1296.08 -270.032,1296.08 -266.675,1296.08 -263.317,1296.08 -259.96,1296.08 -256.603,1296.08 -253.245,1296.08 -249.888,1296.08 -246.531,1296.08 -243.173,1296.08 -239.816,1296.08 -236.458,1296.08 -233.101,1296.08 -229.744,1296.08 -226.386,1296.08 -223.029,1296.08 -219.671,1296.08 -216.314,1296.08 -212.957,1296.08 -209.599,1296.08 -206.242,1296.08 -202.885,1296.08 -199.527,1296.08 -196.17,1296.08 -192.812,1296.08 -189.455,1296.08 -186.098,1296.08 -182.74,1296.08 -179.383,1296.08 -176.025,1296.08 -172.668,1296.08 -169.311,1296.08 -165.953,1296.08 -162.596,1296.08 -159.239,1296.08 -155.881,1296.08 -152.524,1296.08 -149.166,1296.08 -145.809,1296.08 -142.452,1296.08 -139.094,1296.08 -135.737,1296.08 -132.379,1296.08 -129.022,1296.08 -125.665,1296.08 -122.307,1296.08 -118.95,1296.08 -115.593,1296.08 -112.235,1296.08 -108.878,1296.08 -105.52,1296.08 -102.163,1296.08 -98.8056,1296.08 -95.4482,1296.08 -92.0909,1296.08 -88.7335,1296.08 -85.3761,1296.08 -82.0187,1296.08 -78.6613,1296.08 -75.3039,1296.08 -71.9466,1296.08 -68.5892,1296.08 -65.2318,1296.08 -61.8744,1296.08 -58.517,1296.08 -55.1596,1296.08 -51.8023,1296.08 -48.4449,1296.08 -45.0875,1296.08 -41.7301,1296.08 -38.3727,1296.08 -35.0153,1296.08 -31.6579,1296.08 -28.3006,1296.08 -24.9432,1296.08 -21.5858,1296.08 -18.2284,1296.08 -14.871,1296.08 -11.5136,1296.08 -8.15626,1296.08 -4.79888,1296.08 -1.4415,1296.08 1.91589,1296.08 5.27327,1296.08 8.63065,1296.08 11.988,1296.08 15.3454,1296.08 18.7028,1296.08 22.0602,1296.08 25.4176,1296.08 28.775,1296.07 32.1323,1296.07 35.4897,1296.07 38.8471,1296.07 42.2045,1296.07 45.5619,1296.07 48.9193,1296.07 52.2766,1296.07 55.634,1296.07 58.9914,1296.07 62.3488,1296.07 65.7062,1296.07 69.0636,1296.07 72.4209,1296.07 75.7783,1296.07 79.1357,1296.07 82.4931,1296.07 85.8505,1296.07 89.2079,1296.07 92.5652,1296.07 95.9226,1296.07 99.28,1296.07 102.637,1296.07 105.995,1296.07 109.352,1296.07 112.71,1296.07 116.067,1296.07 119.424,1296.07 122.782,1296.07 126.139,1296.07 129.496,1296.07 132.854,1296.07 136.211,1296.07 139.569,1296.07 142.926,1296.07 146.283,1296.07 149.641,1296.07 152.998,1296.07 156.356,1296.07 159.713,1296.07 163.07,1296.07 166.428,1296.07 169.785,1296.07 173.142,1296.07 176.5,1296.07 179.857,1296.07 183.215,1296.07 186.572,1296.07 189.929,1296.07 193.287,1296.07 196.644,1296.07 200.002,1296.07 203.359,1296.06 206.716,1296.06 210.074,1296.06 213.431,1296.06 216.788,1296.06 220.146,1296.06 223.503,1296.06 226.861,1296.06 230.218,1296.06 233.575,1296.06 236.933,1296.06 240.29,1296.06 243.648,1296.06 247.005,1296.06 250.362,1296.06 253.72,1296.06 257.077,1296.06 260.434,1296.06 263.792,1296.06 267.149,1296.06 270.507,1296.06 273.864,1296.06 277.221,1296.06 280.579,1296.06 283.936,1296.06 287.293,1296.06 290.651,1296.06 294.008,1296.06 297.366,1296.06 300.723,1296.06 304.08,1296.05 307.438,1296.05 310.795,1296.05 314.153,1296.05 317.51,1296.05 320.867,1296.05 324.225,1296.05 327.582,1296.05 330.939,1296.05 334.297,1296.05 337.654,1296.05 341.012,1296.05 344.369,1296.05 347.726,1296.05 351.084,1296.05 354.441,1296.05 357.799,1296.04 361.156,1296.04 364.513,1296.04 367.871,1296.04 371.228,1296.04 374.585,1296.04 377.943,1296.04 381.3,1296.04 384.658,1296.03 388.015,1296.03 391.372,1296.03 394.73,1296.03 398.087,1296.02 401.445,1296.02 404.802,1296.02 408.159,1296.01 411.517,1296.01 414.874,1296 418.231,1295.99 421.589,1295.99 424.946,1295.98 428.304,1295.97 431.661,1295.96 435.018,1295.95 438.376,1295.94 441.733,1295.93 445.091,1295.92 448.448,1295.9 451.805,1295.89 455.163,1295.87 458.52,1295.86 461.877,1295.85 465.235,1295.83 468.592,1295.82 471.95,1295.8 475.307,1295.79 478.664,1295.77 482.022,1295.76 485.379,1295.74 488.737,1295.73 492.094,1295.71 495.451,1295.7 498.809,1295.68 502.166,1295.66 505.523,1295.64 508.881,1295.61 512.238,1295.59 515.596,1295.56 518.953,1295.54 522.31,1295.5 525.668,1295.47 529.025,1295.43 532.383,1295.39 535.74,1295.35 539.097,1295.3 542.455,1295.24 545.812,1295.18 549.169,1295.12 552.527,1295.04 555.884,1294.96 559.242,1294.87 562.599,1294.77 565.956,1294.67 569.314,1294.55 572.671,1294.42 576.028,1294.28 579.386,1294.12 582.743,1293.95 586.101,1293.77 589.458,1293.57 592.815,1293.35 596.173,1293.12 599.53,1292.87 602.888,1292.61 606.245,1292.32 609.602,1292.02 612.96,1291.71 616.317,1291.37 619.674,1291.02 623.032,1290.66 626.389,1290.28 629.747,1289.88 633.104,1289.46 636.461,1289.03 639.819,1288.59 643.176,1288.12 646.534,1287.64 649.891,1287.13 653.248,1286.61 656.606,1286.06 659.963,1285.48 663.32,1284.87 666.678,1284.24 670.035,1283.56 673.393,1282.85 676.75,1282.11 680.107,1281.31 683.465,1280.47 686.822,1279.58 690.18,1278.64 693.537,1277.64 696.894,1276.59 700.252,1275.47 703.609,1274.29 706.966,1273.04 710.324,1271.72 713.681,1270.33 717.039,1268.86 720.396,1267.32 723.753,1265.7 727.111,1264 730.468,1262.22 733.826,1260.35 737.183,1258.39 740.54,1256.35 743.898,1254.21 747.255,1251.97 750.612,1249.63 753.97,1247.2 757.327,1244.65 760.685,1241.99 764.042,1239.22 767.399,1236.33 770.757,1233.32 774.114,1230.18 777.472,1226.9 780.829,1223.5 784.186,1219.95 787.544,1216.26 790.901,1212.42 794.258,1208.44 797.616,1204.3 800.973,1200.01 804.331,1195.57 807.688,1190.96 811.045,1186.19 814.403,1181.26 817.76,1176.16 821.117,1170.89 824.475,1165.46 827.832,1159.84 831.19,1154.05 834.547,1148.08 837.904,1141.93 841.262,1135.58 844.619,1129.04 847.977,1122.31 851.334,1115.38 854.691,1108.24 858.049,1100.9 861.406,1093.36 864.763,1085.6 868.121,1077.63 871.478,1069.46 874.836,1061.07 878.193,1052.47 881.55,1043.66 884.908,1034.64 888.265,1025.41 891.623,1015.96 894.98,1006.31 898.337,996.44 901.695,986.36 905.052,976.066 908.409,965.56 911.767,954.84 915.124,943.908 918.482,932.765 921.839,921.413 925.196,909.854 928.554,898.093 931.911,886.132 935.269,873.978 938.626,861.634 941.983,849.108 945.341,836.404 948.698,823.527 952.055,810.484 955.413,797.279 958.77,783.919 962.128,770.407 965.485,756.751 968.842,742.956 972.2,729.03 975.557,714.98 978.915,700.815 982.272,686.545 985.629,672.18 988.987,657.732 992.344,643.211 995.701,628.629 999.059,613.997 1002.42,599.326 1005.77,584.627 1009.13,569.91 1012.49,555.184 1015.85,540.462 1019.2,525.753 1022.56,511.071 1025.92,496.428 1029.28,481.837 1032.63,467.314 1035.99,452.873 1039.35,438.529 1042.7,424.295 1046.06,410.185 1049.42,396.211 1052.78,382.386 1056.13,368.722 1059.49,355.23 1062.85,341.923 1066.21,328.815 1069.56,315.921 1072.92,303.254 1076.28,290.83 1079.64,278.663 1082.99,266.766 1086.35,255.151 1089.71,243.828 1093.07,232.809 1096.42,222.103 1099.78,211.721 1103.14,201.675 1106.5,191.979 1109.85,182.643 1113.21,173.681 1116.57,165.103 1119.92,156.917 1123.28,149.131 1126.64,141.751 1130,134.785 1133.35,128.24 1136.71,122.126 1140.07,116.453 1143.43,111.227 1146.78,106.457 1150.14,102.145 1153.5,98.2947 1156.86,94.9087 1160.21,91.9907 1163.57,89.5459 1166.93,87.5799 1170.29,86.097 1173.64,85.0989 1177,84.5847 1180.36,84.5526 1183.71,85.002 1187.07,85.9339 1190.43,87.3503 1193.79,89.2518 1197.14,91.6357 1200.5,94.4967 1203.86,97.8293 1207.22,101.63 1210.57,105.897 1213.93,110.628 1217.29,115.819 1220.65,121.459 1224,127.539 1227.36,134.054 1230.72,140.999 1234.08,148.368 1237.43,156.149 1240.79,164.331 1244.15,172.903 1247.51,181.858 1250.86,191.189 1254.22,200.88 1257.58,210.918 1260.93,221.291 1264.29,231.991 1267.65,243.007 1271.01,254.319 1274.36,265.916 1277.72,277.789 1281.08,289.926 1284.44,302.309 1287.79,314.925 1291.15,327.769 1294.51,340.825 1297.87,354.079 1301.22,367.522 1304.58,381.146 1307.94,394.933 1311.3,408.874 1314.65,422.96 1318.01,437.168 1321.37,451.486 1324.73,465.899 1328.08,480.381 1331.44,494.927 1334.8,509.517 1338.15,524.155 1341.51,538.829 1344.87,553.529 1348.23,568.225 1351.58,582.907 1354.94,597.581 1358.3,612.235 1361.66,626.85 1365.01,641.403 1368.37,655.883 1371.73,670.28 1375.09,684.596 1378.44,698.823 1381.8,712.959 1385.16,727.001 1388.52,740.935 1391.87,754.753 1395.23,768.447 1398.59,782 1401.94,795.402 1405.3,808.644 1408.66,821.716 1412.02,834.605 1415.37,847.305 1418.73,859.812 1422.09,872.116 1425.45,884.212 1428.8,896.095 1432.16,907.766 1435.52,919.219 1438.88,930.45 1442.23,941.458 1445.59,952.243 1448.95,962.806 1452.31,973.144 1455.66,983.254 1459.02,993.136 1462.38,1002.79 1465.74,1012.23 1469.09,1021.44 1472.45,1030.42 1475.81,1039.17 1479.16,1047.69 1482.52,1055.99 1485.88,1064.07 1489.24,1071.93 1492.59,1079.55 1495.95,1086.95 1499.31,1094.12 1502.67,1101.07 1506.02,1107.8 1509.38,1114.3 1512.74,1120.57 1516.1,1126.61 1519.45,1132.42 1522.81,1138 1526.17,1143.36 1529.53,1148.48 1532.88,1153.37 1536.24,1158.04 1539.6,1162.47 1542.95,1166.66 1546.31,1170.62 1549.67,1174.33 1553.03,1177.81 1556.38,1181.05 1559.74,1184.04 1563.1,1186.8 1566.46,1189.32 1569.81,1191.59 1573.17,1193.61 1576.53,1195.39 1579.89,1196.92 1583.24,1198.19 1586.6,1199.21 1589.96,1199.97 1593.32,1200.49 1596.67,1200.75 1600.03,1200.76 1603.39,1200.51 1606.75,1200.02 1610.1,1199.27 1613.46,1198.28 1616.82,1197.03 1620.17,1195.53 1623.53,1193.77 1626.89,1191.77 1630.25,1189.51 1633.6,1187 1636.96,1184.24 1640.32,1181.25 1643.68,1178.01 1647.03,1174.53 1650.39,1170.83 1653.75,1166.9 1657.11,1162.75 1660.46,1158.38 1663.82,1153.81 1667.18,1149.02 1670.54,1144.04 1673.89,1138.86 1677.25,1133.49 1680.61,1127.94 1683.97,1122.2 1687.32,1116.31 1690.68,1110.25 1694.04,1104.04 1697.39,1097.7 1700.75,1091.22 1704.11,1084.63 1707.47,1077.94 1710.82,1071.15 1714.18,1064.28 1717.54,1057.34 1720.9,1050.34 1724.25,1043.29 1727.61,1036.21 1730.97,1029.1 1734.33,1021.97 1737.68,1014.85 1741.04,1007.74 1744.4,1000.65 1747.76,993.608 1751.11,986.619 1754.47,979.701 1757.83,972.868 1761.18,966.134 1764.54,959.514 1767.9,953.023 1771.26,946.672 1774.61,940.475 1777.97,934.444 1781.33,928.591 1784.69,922.928 1788.04,917.464 1791.4,912.213 1794.76,907.184 1798.12,902.388 1801.47,897.836 1804.83,893.54 1808.19,889.51 1811.55,885.756 1814.9,882.287 1818.26,879.113 1821.62,876.241 1824.98,873.68 1828.33,871.435 1831.69,869.511 1835.05,867.913 1838.4,866.645 1841.76,865.707 1845.12,865.102 1848.48,864.831 1851.83,864.893 1855.19,865.29 1858.55,866.019 1861.91,867.08 1865.26,868.473 1868.62,870.193 1871.98,872.24 1875.34,874.61 1878.69,877.3 1882.05,880.304 1885.41,883.617 1888.77,887.233 1892.12,891.144 1895.48,895.341 1898.84,899.817 1902.2,904.56 1905.55,909.56 1908.91,914.806 1912.27,920.285 1915.62,925.986 1918.98,931.897 1922.34,938.005 1925.7,944.297 1929.05,950.762 1932.41,957.387 1935.77,964.16 1939.13,971.069 1942.48,978.1 1945.84,985.242 1949.2,992.482 1952.56,999.807 1955.91,1007.2 1959.27,1014.66 1962.63,1022.16 1965.99,1029.7 1969.34,1037.25 1972.7,1044.81 1976.06,1052.35 1979.41,1059.88 1982.77,1067.38 1986.13,1074.82 1989.49,1082.21 1992.84,1089.53 1996.2,1096.77 1999.56,1103.93 2002.92,1110.98 2006.27,1117.93 2009.63,1124.76 2012.99,1131.47 2016.35,1138.06 2019.7,1144.52 2023.06,1150.83 2026.42,1157.01 2029.78,1163.03 2033.13,1168.91 2036.49,1174.63 2039.85,1180.2 2043.21,1185.6 2046.56,1190.84 2049.92,1195.91 2053.28,1200.81 2056.63,1205.55 2059.99,1210.11 2063.35,1214.5 2066.71,1218.73 2070.06,1222.78 2073.42,1226.67 2076.78,1230.39 2080.14,1233.95 2083.49,1237.34 2086.85,1240.59 2090.21,1243.68 2093.57,1246.63 2096.92,1249.43 2100.28,1252.1 2103.64,1254.63 2107,1257.04 2110.35,1259.33 2113.71,1261.5 2117.07,1263.57 2120.42,1265.53 2123.78,1267.39 2127.14,1269.15 2130.5,1270.82 2133.85,1272.41 2137.21,1273.92 2140.57,1275.35 2143.93,1276.7 2147.28,1277.98 2150.64,1279.2 2154,1280.35 2157.36,1281.44 2160.71,1282.46 2164.07,1283.44 2167.43,1284.35 2170.79,1285.22 2174.14,1286.03 2177.5,1286.79 2180.86,1287.51 2184.22,1288.18 2187.57,1288.81 2190.93,1289.4 2194.29,1289.95 2197.64,1290.46 2201,1290.93 2204.36,1291.37 2207.72,1291.78 2211.07,1292.16 2214.43,1292.5 2217.79,1292.83 2221.15,1293.12 2224.5,1293.39 2227.86,1293.64 2231.22,1293.87 2234.58,1294.08 2237.93,1294.27 2241.29,1294.44 2244.65,1294.6 2248.01,1294.74 2251.36,1294.87 2254.72,1294.99 2258.08,1295.09 2261.44,1295.19 2264.79,1295.28 2268.15,1295.35 2271.51,1295.42 2274.86,1295.49 2278.22,1295.55 2281.58,1295.6 2284.94,1295.64 2288.29,1295.68 2291.65,1295.72 2295.01,1295.75 2298.37,1295.78 2301.72,1295.81 2305.08,1295.84 2308.44,1295.86 2311.8,1295.88 2315.15,1295.89 2318.51,1295.91 2321.87,1295.92 2325.23,1295.94 2328.58,1295.95 2331.94,1295.96 2335.3,1295.97 2338.65,1295.98 2342.01,1295.98 2345.37,1295.99 2348.73,1296 2352.08,1296 2355.44,1296.01 2358.8,1296.01 2362.16,1296.01 2365.51,1296.02 2368.87,1296.02 2372.23,1296.02 2375.59,1296.03 2378.94,1296.03 2382.3,1296.03 2385.66,1296.03 2389.02,1296.04 2392.37,1296.04 2395.73,1296.04 2399.09,1296.04 2402.45,1296.04 2405.8,1296.04 2409.16,1296.05 2412.52,1296.05 2415.87,1296.05 2419.23,1296.05 2422.59,1296.05 2425.95,1296.05 2429.3,1296.05 2432.66,1296.05 2436.02,1296.05 2439.38,1296.05 2442.73,1296.06 2446.09,1296.06 2449.45,1296.06 2452.81,1296.06 2456.16,1296.06 2459.52,1296.06 2462.88,1296.06 2466.24,1296.06 2469.59,1296.06 2472.95,1296.06 2476.31,1296.06 2479.67,1296.06 2483.02,1296.06 2486.38,1296.06 2489.74,1296.06 2493.09,1296.06 2496.45,1296.06 2499.81,1296.06 2503.17,1296.06 2506.52,1296.06 2509.88,1296.06 2513.24,1296.07 2516.6,1296.07 2519.95,1296.07 2523.31,1296.07 2526.67,1296.07 2530.03,1296.07 2533.38,1296.07 2536.74,1296.07 2540.1,1296.07 2543.46,1296.07 2546.81,1296.07 2550.17,1296.07 2553.53,1296.07 2556.88,1296.07 2560.24,1296.07 2563.6,1296.07 2566.96,1296.07 2570.31,1296.07 2573.67,1296.07 2577.03,1296.07 2580.39,1296.07 2583.74,1296.07 2587.1,1296.07 2590.46,1296.07 2593.82,1296.07 2597.17,1296.07 2600.53,1296.07 2603.89,1296.07 2607.25,1296.07 2610.6,1296.07 2613.96,1296.07 2617.32,1296.07 2620.68,1296.07 2624.03,1296.07 2627.39,1296.07 2630.75,1296.07 2634.1,1296.07 2637.46,1296.07 2640.82,1296.07 2644.18,1296.07 2647.53,1296.07 2650.89,1296.07 2654.25,1296.07 2657.61,1296.07 2660.96,1296.08 2664.32,1296.08 2667.68,1296.08 2671.04,1296.08 2674.39,1296.08 2677.75,1296.08 2681.11,1296.08 2684.47,1296.08 2687.82,1296.08 2691.18,1296.08 2694.54,1296.08 2697.89,1296.08 2701.25,1296.08 2704.61,1296.08 2707.97,1296.08 2711.32,1296.08 2714.68,1296.08 2718.04,1296.08 2721.4,1296.08 2724.75,1296.08 2728.11,1296.08 2731.47,1296.08 2734.83,1296.08 2738.18,1296.08 2741.54,1296.08 2744.9,1296.08 2748.26,1296.08 2751.61,1296.08 2754.97,1296.08 2758.33,1296.08 2761.69,1296.08 2765.04,1296.08 2768.4,1296.08 2771.76,1296.08 2775.11,1296.08 2778.47,1296.08 2781.83,1296.08 2785.19,1296.08 2788.54,1296.08 2791.9,1296.08 2795.26,1296.08 2798.62,1296.08 2801.97,1296.08 2805.33,1296.08 2808.69,1296.08 2812.05,1296.08 2815.4,1296.08 2818.76,1296.08 2822.12,1296.08 2825.48,1296.08 2828.83,1296.08 2832.19,1296.08 2835.55,1296.08 2838.91,1296.08 2842.26,1296.08 2845.62,1296.08 2848.98,1296.08 2852.33,1296.08 2855.69,1296.08 2859.05,1296.08 2862.41,1296.08 2865.76,1296.08 2869.12,1296.08 2872.48,1296.08 2875.84,1296.08 2879.19,1296.08 2882.55,1296.08 2885.91,1296.08 2889.27,1296.08 2892.62,1296.08 2895.98,1296.08 2899.34,1296.08 2902.7,1296.08 2906.05,1296.08 2909.41,1296.08 2912.77,1296.08 2916.12,1296.08 2919.48,1296.08 2922.84,1296.08 2926.2,1296.08 2929.55,1296.08 2932.91,1296.08 2936.27,1296.08 2939.63,1296.08 2942.98,1296.08 2946.34,1296.08 2949.7,1296.08 2953.06,1296.08 2956.41,1296.08 2959.77,1296.08 2963.13,1296.08 2966.49,1296.08 2969.84,1296.08 2973.2,1296.08 2976.56,1296.08 2979.92,1296.08 2983.27,1296.09 2986.63,1296.09 2989.99,1296.09 2993.34,1296.09 2996.7,1296.09 3000.06,1296.09 3003.42,1296.09 3006.77,1296.09 3010.13,1296.09 3013.49,1296.09 3016.85,1296.09 3020.2,1296.09 3023.56,1296.09 "/>
<polyline clip-path="url(#clip062)" style="stroke:#e26f46; stroke-linecap:round; stroke-linejoin:round; stroke-width:12; stroke-opacity:1; fill:none" points="-330.465,1284.81 -327.108,1284.81 -323.75,1284.8 -320.393,1284.79 -317.036,1284.79 -313.678,1284.78 -310.321,1284.77 -306.963,1284.76 -303.606,1284.76 -300.249,1284.75 -296.891,1284.74 -293.534,1284.73 -290.176,1284.73 -286.819,1284.72 -283.462,1284.71 -280.104,1284.7 -276.747,1284.7 -273.39,1284.69 -270.032,1284.68 -266.675,1284.67 -263.317,1284.67 -259.96,1284.66 -256.603,1284.65 -253.245,1284.64 -249.888,1284.63 -246.531,1284.62 -243.173,1284.62 -239.816,1284.61 -236.458,1284.6 -233.101,1284.59 -229.744,1284.58 -226.386,1284.57 -223.029,1284.56 -219.671,1284.55 -216.314,1284.54 -212.957,1284.54 -209.599,1284.53 -206.242,1284.52 -202.885,1284.51 -199.527,1284.5 -196.17,1284.49 -192.812,1284.48 -189.455,1284.47 -186.098,1284.46 -182.74,1284.45 -179.383,1284.44 -176.025,1284.43 -172.668,1284.42 -169.311,1284.41 -165.953,1284.4 -162.596,1284.39 -159.239,1284.38 -155.881,1284.37 -152.524,1284.35 -149.166,1284.34 -145.809,1284.33 -142.452,1284.32 -139.094,1284.31 -135.737,1284.3 -132.379,1284.29 -129.022,1284.27 -125.665,1284.26 -122.307,1284.25 -118.95,1284.24 -115.593,1284.23 -112.235,1284.21 -108.878,1284.2 -105.52,1284.19 -102.163,1284.18 -98.8056,1284.16 -95.4482,1284.15 -92.0909,1284.14 -88.7335,1284.13 -85.3761,1284.11 -82.0187,1284.1 -78.6613,1284.09 -75.3039,1284.07 -71.9466,1284.06 -68.5892,1284.04 -65.2318,1284.03 -61.8744,1284.02 -58.517,1284 -55.1596,1283.99 -51.8023,1283.97 -48.4449,1283.96 -45.0875,1283.94 -41.7301,1283.93 -38.3727,1283.91 -35.0153,1283.9 -31.6579,1283.88 -28.3006,1283.87 -24.9432,1283.85 -21.5858,1283.83 -18.2284,1283.82 -14.871,1283.8 -11.5136,1283.79 -8.15626,1283.77 -4.79888,1283.75 -1.4415,1283.73 1.91589,1283.72 5.27327,1283.7 8.63065,1283.68 11.988,1283.66 15.3454,1283.65 18.7028,1283.63 22.0602,1283.61 25.4176,1283.59 28.775,1283.57 32.1323,1283.55 35.4897,1283.53 38.8471,1283.51 42.2045,1283.5 45.5619,1283.48 48.9193,1283.46 52.2766,1283.43 55.634,1283.41 58.9914,1283.39 62.3488,1283.37 65.7062,1283.35 69.0636,1283.33 72.4209,1283.31 75.7783,1283.29 79.1357,1283.26 82.4931,1283.24 85.8505,1283.22 89.2079,1283.2 92.5652,1283.17 95.9226,1283.15 99.28,1283.13 102.637,1283.1 105.995,1283.08 109.352,1283.05 112.71,1283.03 116.067,1283 119.424,1282.98 122.782,1282.95 126.139,1282.93 129.496,1282.9 132.854,1282.87 136.211,1282.85 139.569,1282.82 142.926,1282.79 146.283,1282.76 149.641,1282.73 152.998,1282.71 156.356,1282.68 159.713,1282.65 163.07,1282.62 166.428,1282.59 169.785,1282.56 173.142,1282.53 176.5,1282.5 179.857,1282.46 183.215,1282.43 186.572,1282.4 189.929,1282.37 193.287,1282.33 196.644,1282.3 200.002,1282.27 203.359,1282.23 206.716,1282.2 210.074,1282.16 213.431,1282.13 216.788,1282.09 220.146,1282.05 223.503,1282.02 226.861,1281.98 230.218,1281.94 233.575,1281.9 236.933,1281.86 240.29,1281.82 243.648,1281.78 247.005,1281.74 250.362,1281.7 253.72,1281.66 257.077,1281.61 260.434,1281.57 263.792,1281.53 267.149,1281.48 270.507,1281.44 273.864,1281.39 277.221,1281.35 280.579,1281.3 283.936,1281.25 287.293,1281.2 290.651,1281.16 294.008,1281.11 297.366,1281.06 300.723,1281 304.08,1280.95 307.438,1280.9 310.795,1280.85 314.153,1280.79 317.51,1280.74 320.867,1280.68 324.225,1280.63 327.582,1280.57 330.939,1280.51 334.297,1280.45 337.654,1280.39 341.012,1280.33 344.369,1280.27 347.726,1280.21 351.084,1280.14 354.441,1280.08 357.799,1280.01 361.156,1279.95 364.513,1279.88 367.871,1279.81 371.228,1279.74 374.585,1279.67 377.943,1279.6 381.3,1279.52 384.658,1279.45 388.015,1279.37 391.372,1279.3 394.73,1279.22 398.087,1279.14 401.445,1279.06 404.802,1278.98 408.159,1278.89 411.517,1278.81 414.874,1278.72 418.231,1278.63 421.589,1278.55 424.946,1278.45 428.304,1278.36 431.661,1278.27 435.018,1278.17 438.376,1278.07 441.733,1277.98 445.091,1277.87 448.448,1277.77 451.805,1277.67 455.163,1277.56 458.52,1277.45 461.877,1277.34 465.235,1277.23 468.592,1277.11 471.95,1277 475.307,1276.88 478.664,1276.76 482.022,1276.63 485.379,1276.51 488.737,1276.38 492.094,1276.25 495.451,1276.12 498.809,1275.98 502.166,1275.84 505.523,1275.7 508.881,1275.55 512.238,1275.41 515.596,1275.26 518.953,1275.1 522.31,1274.95 525.668,1274.79 529.025,1274.62 532.383,1274.46 535.74,1274.29 539.097,1274.11 542.455,1273.94 545.812,1273.75 549.169,1273.57 552.527,1273.38 555.884,1273.18 559.242,1272.99 562.599,1272.78 565.956,1272.58 569.314,1272.36 572.671,1272.15 576.028,1271.93 579.386,1271.7 582.743,1271.47 586.101,1271.23 589.458,1270.98 592.815,1270.74 596.173,1270.48 599.53,1270.22 602.888,1269.95 606.245,1269.67 609.602,1269.39 612.96,1269.1 616.317,1268.81 619.674,1268.5 623.032,1268.19 626.389,1267.87 629.747,1267.54 633.104,1267.2 636.461,1266.86 639.819,1266.5 643.176,1266.13 646.534,1265.76 649.891,1265.37 653.248,1264.97 656.606,1264.56 659.963,1264.14 663.32,1263.71 666.678,1263.26 670.035,1262.81 673.393,1262.33 676.75,1261.85 680.107,1261.35 683.465,1260.83 686.822,1260.3 690.18,1259.75 693.537,1259.18 696.894,1258.6 700.252,1257.99 703.609,1257.37 706.966,1256.73 710.324,1256.06 713.681,1255.37 717.039,1254.66 720.396,1253.93 723.753,1253.17 727.111,1252.38 730.468,1251.57 733.826,1250.73 737.183,1249.85 740.54,1248.95 743.898,1248.01 747.255,1247.04 750.612,1246.03 753.97,1244.98 757.327,1243.89 760.685,1242.76 764.042,1241.58 767.399,1240.36 770.757,1239.09 774.114,1237.77 777.472,1236.39 780.829,1234.96 784.186,1233.47 787.544,1231.91 790.901,1230.29 794.258,1228.59 797.616,1226.83 800.973,1224.98 804.331,1223.05 807.688,1221.04 811.045,1218.93 814.403,1216.73 817.76,1214.42 821.117,1212.01 824.475,1209.48 827.832,1206.82 831.19,1204.04 834.547,1201.12 837.904,1198.06 841.262,1194.85 844.619,1191.47 847.977,1187.92 851.334,1184.19 854.691,1180.26 858.049,1176.13 861.406,1171.79 864.763,1167.21 868.121,1162.39 871.478,1157.31 874.836,1151.95 878.193,1146.3 881.55,1140.35 884.908,1134.07 888.265,1127.45 891.623,1120.46 894.98,1113.09 898.337,1105.32 901.695,1097.12 905.052,1088.48 908.409,1079.36 911.767,1069.76 915.124,1059.64 918.482,1048.99 921.839,1037.79 925.196,1026.02 928.554,1013.65 931.911,1000.68 935.269,987.094 938.626,972.88 941.983,958.034 945.341,942.555 948.698,926.447 952.055,909.72 955.413,892.392 958.77,874.485 962.128,856.029 965.485,837.063 968.842,817.631 972.2,797.784 975.557,777.582 978.915,757.088 982.272,736.37 985.629,715.501 988.987,694.552 992.344,673.598 995.701,652.71 999.059,631.955 1002.42,611.394 1005.77,591.084 1009.13,571.069 1012.49,551.389 1015.85,532.07 1019.2,513.131 1022.56,494.578 1025.92,476.412 1029.28,458.624 1032.63,441.2 1035.99,424.119 1039.35,407.361 1042.7,390.901 1046.06,374.72 1049.42,358.799 1052.78,343.125 1056.13,327.691 1059.49,312.498 1062.85,297.557 1066.21,282.886 1069.56,268.514 1072.92,254.478 1076.28,240.821 1079.64,227.595 1082.99,214.854 1086.35,202.653 1089.71,191.047 1093.07,180.083 1096.42,169.806 1099.78,160.245 1103.14,151.421 1106.5,143.338 1109.85,135.987 1113.21,129.344 1116.57,123.372 1119.92,118.023 1123.28,113.244 1126.64,108.976 1130,105.162 1133.35,101.749 1136.71,98.6939 1140.07,95.9663 1143.43,93.5492 1146.78,91.4413 1150.14,89.6553 1153.5,88.216 1156.86,87.1562 1160.21,86.5108 1163.57,86.3109 1166.93,86.5772 1170.29,87.315 1173.64,88.5096 1177,90.1255 1180.36,92.1079 1183.71,94.3882 1187.07,96.8917 1190.43,99.5479 1193.79,102.301 1197.14,105.119 1200.5,108 1203.86,110.976 1207.22,114.105 1210.57,117.464 1213.93,121.131 1217.29,125.175 1220.65,129.636 1224,134.523 1227.36,139.814 1230.72,145.471 1234.08,151.463 1237.43,157.788 1240.79,164.487 1244.15,171.651 1247.51,179.395 1250.86,187.832 1254.22,197.029 1257.58,206.977 1260.93,217.598 1264.29,228.765 1267.65,240.361 1271.01,252.318 1274.36,264.619 1277.72,277.268 1281.08,290.217 1284.44,303.33 1287.79,316.416 1291.15,329.323 1294.51,342.046 1297.87,354.743 1301.22,367.632 1304.58,380.843 1307.94,394.38 1311.3,408.234 1314.65,422.468 1318.01,437.088 1321.37,451.836 1324.73,466.326 1328.08,480.515 1331.44,494.777 1334.8,509.327 1338.15,524.089 1341.51,538.999 1344.87,553.5 1348.23,568.145 1351.58,583.058 1354.94,597.637 1358.3,612.071 1361.66,626.558 1365.01,641.382 1368.37,656.273 1371.73,670.768 1375.09,684.82 1378.44,698.66 1381.8,712.446 1385.16,726.239 1388.52,740.137 1391.87,754.251 1395.23,768.559 1398.59,782.855 1401.94,796.861 1405.3,810.379 1408.66,823.364 1412.02,835.879 1415.37,848.004 1418.73,859.782 1422.09,871.216 1425.45,882.312 1428.8,893.124 1432.16,903.762 1435.52,914.376 1438.88,925.103 1442.23,936.037 1445.59,947.198 1448.95,958.544 1452.31,969.995 1455.66,981.462 1459.02,992.873 1462.38,1004.19 1465.74,1015.4 1469.09,1026.5 1472.45,1037.51 1475.81,1048.4 1479.16,1059.14 1482.52,1069.66 1485.88,1079.88 1489.24,1089.71 1492.59,1099.06 1495.95,1107.83 1499.31,1115.96 1502.67,1123.42 1506.02,1130.18 1509.38,1136.23 1512.74,1141.59 1516.1,1146.29 1519.45,1150.34 1522.81,1153.79 1526.17,1156.67 1529.53,1159.03 1532.88,1160.9 1536.24,1162.31 1539.6,1163.31 1542.95,1163.92 1546.31,1164.16 1549.67,1164.07 1553.03,1163.68 1556.38,1162.98 1559.74,1162.02 1563.1,1160.81 1566.46,1159.35 1569.81,1157.67 1573.17,1155.77 1576.53,1153.67 1579.89,1151.38 1583.24,1148.91 1586.6,1146.26 1589.96,1143.45 1593.32,1140.48 1596.67,1137.36 1600.03,1134.1 1603.39,1130.7 1606.75,1127.18 1610.1,1123.54 1613.46,1119.79 1616.82,1115.94 1620.17,1112 1623.53,1107.99 1626.89,1103.91 1630.25,1099.78 1633.6,1095.6 1636.96,1091.4 1640.32,1087.18 1643.68,1082.97 1647.03,1078.78 1650.39,1074.62 1653.75,1070.51 1657.11,1066.47 1660.46,1062.52 1663.82,1058.66 1667.18,1054.93 1670.54,1051.32 1673.89,1047.87 1677.25,1044.57 1680.61,1041.45 1683.97,1038.51 1687.32,1035.77 1690.68,1033.24 1694.04,1030.92 1697.39,1028.82 1700.75,1026.94 1704.11,1025.29 1707.47,1023.86 1710.82,1022.67 1714.18,1021.7 1717.54,1020.96 1720.9,1020.44 1724.25,1020.13 1727.61,1020.04 1730.97,1020.15 1734.33,1020.46 1737.68,1020.95 1741.04,1021.63 1744.4,1022.48 1747.76,1023.5 1751.11,1024.67 1754.47,1025.99 1757.83,1027.45 1761.18,1029.04 1764.54,1030.74 1767.9,1032.56 1771.26,1034.49 1774.61,1036.51 1777.97,1038.62 1781.33,1040.8 1784.69,1043.07 1788.04,1045.4 1791.4,1047.79 1794.76,1050.24 1798.12,1052.73 1801.47,1055.27 1804.83,1057.85 1808.19,1060.46 1811.55,1063.1 1814.9,1065.76 1818.26,1068.45 1821.62,1071.14 1824.98,1073.86 1828.33,1076.58 1831.69,1079.3 1835.05,1082.03 1838.4,1084.76 1841.76,1087.49 1845.12,1090.21 1848.48,1092.92 1851.83,1095.62 1855.19,1098.31 1858.55,1100.98 1861.91,1103.64 1865.26,1106.29 1868.62,1108.91 1871.98,1111.51 1875.34,1114.09 1878.69,1116.64 1882.05,1119.18 1885.41,1121.68 1888.77,1124.16 1892.12,1126.61 1895.48,1129.04 1898.84,1131.43 1902.2,1133.8 1905.55,1136.13 1908.91,1138.44 1912.27,1140.71 1915.62,1142.95 1918.98,1145.16 1922.34,1147.34 1925.7,1149.49 1929.05,1151.6 1932.41,1153.68 1935.77,1155.73 1939.13,1157.75 1942.48,1159.74 1945.84,1161.69 1949.2,1163.61 1952.56,1165.5 1955.91,1167.36 1959.27,1169.18 1962.63,1170.97 1965.99,1172.74 1969.34,1174.47 1972.7,1176.17 1976.06,1177.84 1979.41,1179.48 1982.77,1181.09 1986.13,1182.68 1989.49,1184.23 1992.84,1185.75 1996.2,1187.25 1999.56,1188.72 2002.92,1190.16 2006.27,1191.58 2009.63,1192.97 2012.99,1194.33 2016.35,1195.66 2019.7,1196.98 2023.06,1198.26 2026.42,1199.53 2029.78,1200.76 2033.13,1201.98 2036.49,1203.17 2039.85,1204.34 2043.21,1205.49 2046.56,1206.61 2049.92,1207.72 2053.28,1208.8 2056.63,1209.86 2059.99,1210.9 2063.35,1211.93 2066.71,1212.93 2070.06,1213.91 2073.42,1214.88 2076.78,1215.83 2080.14,1216.76 2083.49,1217.67 2086.85,1218.56 2090.21,1219.44 2093.57,1220.3 2096.92,1221.15 2100.28,1221.98 2103.64,1222.79 2107,1223.59 2110.35,1224.37 2113.71,1225.14 2117.07,1225.9 2120.42,1226.64 2123.78,1227.37 2127.14,1228.08 2130.5,1228.78 2133.85,1229.47 2137.21,1230.15 2140.57,1230.81 2143.93,1231.47 2147.28,1232.11 2150.64,1232.73 2154,1233.35 2157.36,1233.96 2160.71,1234.56 2164.07,1235.14 2167.43,1235.72 2170.79,1236.28 2174.14,1236.84 2177.5,1237.38 2180.86,1237.92 2184.22,1238.45 2187.57,1238.97 2190.93,1239.48 2194.29,1239.98 2197.64,1240.47 2201,1240.95 2204.36,1241.43 2207.72,1241.9 2211.07,1242.36 2214.43,1242.81 2217.79,1243.26 2221.15,1243.69 2224.5,1244.12 2227.86,1244.55 2231.22,1244.96 2234.58,1245.37 2237.93,1245.78 2241.29,1246.17 2244.65,1246.56 2248.01,1246.95 2251.36,1247.33 2254.72,1247.7 2258.08,1248.07 2261.44,1248.43 2264.79,1248.78 2268.15,1249.13 2271.51,1249.48 2274.86,1249.81 2278.22,1250.15 2281.58,1250.48 2284.94,1250.8 2288.29,1251.12 2291.65,1251.43 2295.01,1251.74 2298.37,1252.05 2301.72,1252.35 2305.08,1252.64 2308.44,1252.93 2311.8,1253.22 2315.15,1253.5 2318.51,1253.78 2321.87,1254.06 2325.23,1254.33 2328.58,1254.6 2331.94,1254.86 2335.3,1255.12 2338.65,1255.38 2342.01,1255.63 2345.37,1255.88 2348.73,1256.12 2352.08,1256.36 2355.44,1256.6 2358.8,1256.84 2362.16,1257.07 2365.51,1257.3 2368.87,1257.52 2372.23,1257.75 2375.59,1257.97 2378.94,1258.18 2382.3,1258.4 2385.66,1258.61 2389.02,1258.82 2392.37,1259.02 2395.73,1259.23 2399.09,1259.43 2402.45,1259.62 2405.8,1259.82 2409.16,1260.01 2412.52,1260.2 2415.87,1260.39 2419.23,1260.57 2422.59,1260.76 2425.95,1260.94 2429.3,1261.12 2432.66,1261.29 2436.02,1261.47 2439.38,1261.64 2442.73,1261.81 2446.09,1261.98 2449.45,1262.14 2452.81,1262.31 2456.16,1262.47 2459.52,1262.63 2462.88,1262.78 2466.24,1262.94 2469.59,1263.09 2472.95,1263.25 2476.31,1263.4 2479.67,1263.55 2483.02,1263.69 2486.38,1263.84 2489.74,1263.98 2493.09,1264.12 2496.45,1264.26 2499.81,1264.4 2503.17,1264.54 2506.52,1264.67 2509.88,1264.81 2513.24,1264.94 2516.6,1265.07 2519.95,1265.2 2523.31,1265.33 2526.67,1265.46 2530.03,1265.58 2533.38,1265.71 2536.74,1265.83 2540.1,1265.95 2543.46,1266.07 2546.81,1266.19 2550.17,1266.3 2553.53,1266.42 2556.88,1266.53 2560.24,1266.65 2563.6,1266.76 2566.96,1266.87 2570.31,1266.98 2573.67,1267.09 2577.03,1267.2 2580.39,1267.3 2583.74,1267.41 2587.1,1267.51 2590.46,1267.62 2593.82,1267.72 2597.17,1267.82 2600.53,1267.92 2603.89,1268.02 2607.25,1268.12 2610.6,1268.22 2613.96,1268.31 2617.32,1268.41 2620.68,1268.5 2624.03,1268.59 2627.39,1268.69 2630.75,1268.78 2634.1,1268.87 2637.46,1268.96 2640.82,1269.05 2644.18,1269.13 2647.53,1269.22 2650.89,1269.31 2654.25,1269.39 2657.61,1269.48 2660.96,1269.56 2664.32,1269.65 2667.68,1269.73 2671.04,1269.81 2674.39,1269.89 2677.75,1269.97 2681.11,1270.05 2684.47,1270.13 2687.82,1270.2 2691.18,1270.28 2694.54,1270.36 2697.89,1270.43 2701.25,1270.51 2704.61,1270.58 2707.97,1270.66 2711.32,1270.73 2714.68,1270.8 2718.04,1270.87 2721.4,1270.94 2724.75,1271.01 2728.11,1271.08 2731.47,1271.15 2734.83,1271.22 2738.18,1271.29 2741.54,1271.36 2744.9,1271.42 2748.26,1271.49 2751.61,1271.56 2754.97,1271.62 2758.33,1271.68 2761.69,1271.75 2765.04,1271.81 2768.4,1271.87 2771.76,1271.94 2775.11,1272 2778.47,1272.06 2781.83,1272.12 2785.19,1272.18 2788.54,1272.24 2791.9,1272.3 2795.26,1272.36 2798.62,1272.42 2801.97,1272.47 2805.33,1272.53 2808.69,1272.59 2812.05,1272.64 2815.4,1272.7 2818.76,1272.76 2822.12,1272.81 2825.48,1272.86 2828.83,1272.92 2832.19,1272.97 2835.55,1273.03 2838.91,1273.08 2842.26,1273.13 2845.62,1273.18 2848.98,1273.23 2852.33,1273.29 2855.69,1273.34 2859.05,1273.39 2862.41,1273.44 2865.76,1273.49 2869.12,1273.54 2872.48,1273.58 2875.84,1273.63 2879.19,1273.68 2882.55,1273.73 2885.91,1273.78 2889.27,1273.82 2892.62,1273.87 2895.98,1273.92 2899.34,1273.96 2902.7,1274.01 2906.05,1274.05 2909.41,1274.1 2912.77,1274.14 2916.12,1274.19 2919.48,1274.23 2922.84,1274.27 2926.2,1274.32 2929.55,1274.36 2932.91,1274.4 2936.27,1274.44 2939.63,1274.49 2942.98,1274.53 2946.34,1274.57 2949.7,1274.61 2953.06,1274.65 2956.41,1274.69 2959.77,1274.73 2963.13,1274.77 2966.49,1274.81 2969.84,1274.85 2973.2,1274.89 2976.56,1274.93 2979.92,1274.97 2983.27,1275.01 2986.63,1275.04 2989.99,1275.08 2993.34,1275.12 2996.7,1275.16 3000.06,1275.19 3003.42,1275.23 3006.77,1275.27 3010.13,1275.3 3013.49,1275.34 3016.85,1275.37 3020.2,1275.41 3023.56,1275.44 "/>
<polyline clip-path="url(#clip062)" style="stroke:#000000; stroke-linecap:round; stroke-linejoin:round; stroke-width:6; stroke-opacity:1; fill:none" stroke-dasharray="24, 15" points="508.041,1295.69 509.72,1295.68 511.399,1295.66 513.078,1295.64 514.756,1295.62 516.435,1295.6 518.114,1295.58 519.792,1295.56 521.471,1295.54 523.15,1295.52 524.828,1295.5 526.507,1295.47 528.186,1295.45 529.864,1295.42 531.543,1295.39 533.222,1295.37 534.901,1295.34 536.579,1295.31 538.258,1295.28 539.937,1295.24 541.615,1295.21 543.294,1295.18 544.973,1295.14 546.651,1295.1 548.33,1295.07 550.009,1295.03 551.687,1294.99 553.366,1294.94 555.045,1294.9 556.724,1294.85 558.402,1294.81 560.081,1294.76 561.76,1294.71 563.438,1294.66 565.117,1294.6 566.796,1294.55 568.474,1294.49 570.153,1294.43 571.832,1294.37 573.51,1294.3 575.189,1294.24 576.868,1294.17 578.547,1294.1 580.225,1294.03 581.904,1293.95 583.583,1293.87 585.261,1293.79 586.94,1293.71 588.619,1293.62 590.297,1293.53 591.976,1293.44 593.655,1293.35 595.333,1293.25 597.012,1293.15 598.691,1293.04 600.37,1292.94 602.048,1292.83 603.727,1292.71 605.406,1292.59 607.084,1292.47 608.763,1292.35 610.442,1292.22 612.12,1292.08 613.799,1291.94 615.478,1291.8 617.156,1291.66 618.835,1291.5 620.514,1291.35 622.193,1291.19 623.871,1291.02 625.55,1290.85 627.229,1290.68 628.907,1290.49 630.586,1290.31 632.265,1290.12 633.943,1289.92 635.622,1289.71 637.301,1289.5 638.979,1289.29 640.658,1289.06 642.337,1288.83 644.016,1288.6 645.694,1288.36 647.373,1288.11 649.052,1287.85 650.73,1287.58 652.409,1287.31 654.088,1287.03 655.766,1286.74 657.445,1286.45 659.124,1286.14 660.802,1285.83 662.481,1285.51 664.16,1285.18 665.839,1284.84 667.517,1284.49 669.196,1284.13 670.875,1283.76 672.553,1283.38 674.232,1282.99 675.911,1282.59 677.589,1282.18 679.268,1281.76 680.947,1281.32 682.625,1280.88 684.304,1280.42 685.983,1279.95 687.661,1279.47 689.34,1278.98 691.019,1278.47 692.698,1277.95 694.376,1277.42 696.055,1276.87 697.734,1276.31 699.412,1275.73 701.091,1275.14 702.77,1274.54 704.448,1273.92 706.127,1273.28 707.806,1272.63 709.484,1271.96 711.163,1271.28 712.842,1270.57 714.521,1269.86 716.199,1269.12 717.878,1268.37 719.557,1267.59 721.235,1266.8 722.914,1265.99 724.593,1265.16 726.271,1264.32 727.95,1263.45 729.629,1262.56 731.307,1261.65 732.986,1260.72 734.665,1259.76 736.344,1258.79 738.022,1257.79 739.701,1256.77 741.38,1255.73 743.058,1254.67 744.737,1253.58 746.416,1252.46 748.094,1251.32 749.773,1250.16 751.452,1248.97 753.13,1247.76 754.809,1246.51 756.488,1245.24 758.167,1243.95 759.845,1242.63 761.524,1241.27 763.203,1239.89 764.881,1238.49 766.56,1237.05 768.239,1235.58 769.917,1234.08 771.596,1232.55 773.275,1230.99 774.953,1229.4 776.632,1227.77 778.311,1226.12 779.99,1224.43 781.668,1222.7 783.347,1220.95 785.026,1219.16 786.704,1217.33 788.383,1215.47 790.062,1213.57 791.74,1211.64 793.419,1209.67 795.098,1207.66 796.776,1205.62 798.455,1203.53 800.134,1201.41 801.813,1199.25 803.491,1197.05 805.17,1194.81 806.849,1192.54 808.527,1190.22 810.206,1187.85 811.885,1185.45 813.563,1183.01 815.242,1180.52 816.921,1177.99 818.599,1175.42 820.278,1172.8 821.957,1170.14 823.636,1167.43 825.314,1164.68 826.993,1161.89 828.672,1159.04 830.35,1156.16 832.029,1153.22 833.708,1150.24 835.386,1147.21 837.065,1144.14 838.744,1141.01 840.422,1137.84 842.101,1134.62 843.78,1131.35 845.459,1128.03 847.137,1124.66 848.816,1121.24 850.495,1117.77 852.173,1114.25 853.852,1110.68 855.531,1107.06 857.209,1103.38 858.888,1099.66 860.567,1095.88 862.245,1092.05 863.924,1088.17 865.603,1084.23 867.282,1080.24 868.96,1076.2 870.639,1072.11 872.318,1067.96 873.996,1063.76 875.675,1059.5 877.354,1055.2 879.032,1050.83 880.711,1046.42 882.39,1041.95 884.068,1037.42 885.747,1032.84 887.426,1028.21 889.105,1023.53 890.783,1018.78 892.462,1013.99 894.141,1009.14 895.819,1004.24 897.498,999.278 899.177,994.266 900.855,989.2 902.534,984.081 904.213,978.908 905.891,973.682 907.57,968.402 909.249,963.07 910.928,957.684 912.606,952.246 914.285,946.755 915.964,941.213 917.642,935.618 919.321,929.972 921,924.275 922.678,918.527 924.357,912.728 926.036,906.88 927.714,900.982 929.393,895.035 931.072,889.039 932.75,882.994 934.429,876.902 936.108,870.763 937.787,864.577 939.465,858.345 941.144,852.067 942.823,845.745 944.501,839.378 946.18,832.968 947.859,826.515 949.537,820.019 951.216,813.483 952.895,806.905 954.573,800.287 956.252,793.631 957.931,786.935 959.61,780.203 961.288,773.434 962.967,766.629 964.646,759.789 966.324,752.915 968.003,746.008 969.682,739.069 971.36,732.099 973.039,725.099 974.718,718.071 976.396,711.014 978.075,703.931 979.754,696.821 981.433,689.688 983.111,682.53 984.79,675.351 986.469,668.15 988.147,660.93 989.826,653.691 991.505,646.434 993.183,639.162 994.862,631.874 996.541,624.573 998.219,617.26 999.898,609.936 1001.58,602.602 1003.26,595.26 1004.93,587.912 1006.61,580.558 1008.29,573.2 1009.97,565.839 1011.65,558.478 1013.33,551.117 1015.01,543.758 1016.69,536.402 1018.36,529.052 1020.04,521.708 1021.72,514.371 1023.4,507.045 1025.08,499.729 1026.76,492.427 1028.44,485.138 1030.11,477.866 1031.79,470.611 1033.47,463.375 1035.15,456.159 1036.83,448.967 1038.51,441.798 1040.19,434.655 1041.87,427.539 1043.54,420.452 1045.22,413.396 1046.9,406.372 1048.58,399.382 1050.26,392.427 1051.94,385.51 1053.62,378.632 1055.3,371.795 1056.97,365 1058.65,358.249 1060.33,351.543 1062.01,344.885 1063.69,338.276 1065.37,331.718 1067.05,325.212 1068.72,318.761 1070.4,312.365 1072.08,306.026 1073.76,299.746 1075.44,293.527 1077.12,287.37 1078.8,281.277 1080.48,275.25 1082.15,269.29 1083.83,263.398 1085.51,257.577 1087.19,251.827 1088.87,246.151 1090.55,240.55 1092.23,235.025 1093.9,229.578 1095.58,224.21 1097.26,218.924 1098.94,213.72 1100.62,208.599 1102.3,203.564 1103.98,198.616 1105.66,193.756 1107.33,188.985 1109.01,184.305 1110.69,179.717 1112.37,175.222 1114.05,170.822 1115.73,166.518 1117.41,162.311 1119.09,158.202 1120.76,154.193 1122.44,150.285 1124.12,146.478 1125.8,142.775 1127.48,139.175 1129.16,135.68 1130.84,132.292 1132.51,129.01 1134.19,125.837 1135.87,122.772 1137.55,119.818 1139.23,116.974 1140.91,114.241 1142.59,111.621 1144.27,109.114 1145.94,106.721 1147.62,104.443 1149.3,102.28 1150.98,100.233 1152.66,98.3018 1154.34,96.4881 1156.02,94.7921 1157.7,93.2142 1159.37,91.7549 1161.05,90.4147 1162.73,89.1939 1164.41,88.0929 1166.09,87.112 1167.77,86.2516 1169.45,85.5119 1171.12,84.8931 1172.8,84.3954 1174.48,84.019 1176.16,83.7639 1177.84,83.6303 1179.52,83.6181 1181.2,83.7275 1182.88,83.9582 1184.55,84.3104 1186.23,84.7839 1187.91,85.3784 1189.59,86.094 1191.27,86.9303 1192.95,87.887 1194.63,88.964 1196.31,90.1609 1197.98,91.4773 1199.66,92.9128 1201.34,94.467 1203.02,96.1394 1204.7,97.9296 1206.38,99.837 1208.06,101.861 1209.73,104.001 1211.41,106.256 1213.09,108.627 1214.77,111.111 1216.45,113.708 1218.13,116.418 1219.81,119.24 1221.49,122.172 1223.16,125.215 1224.84,128.367 1226.52,131.627 1228.2,134.994 1229.88,138.467 1231.56,142.046 1233.24,145.729 1234.92,149.515 1236.59,153.403 1238.27,157.392 1239.95,161.481 1241.63,165.668 1243.31,169.953 1244.99,174.334 1246.67,178.809 1248.34,183.379 1250.02,188.041 1251.7,192.793 1253.38,197.636 1255.06,202.567 1256.74,207.584 1258.42,212.688 1260.1,217.875 1261.77,223.145 1263.45,228.496 1265.13,233.927 1266.81,239.436 1268.49,245.022 1270.17,250.684 1271.85,256.419 1273.52,262.225 1275.2,268.103 1276.88,274.05 1278.56,280.064 1280.24,286.143 1281.92,292.287 1283.6,298.494 1285.28,304.761 1286.95,311.088 1288.63,317.472 1290.31,323.913 1291.99,330.407 1293.67,336.955 1295.35,343.553 1297.03,350.201 1298.71,356.897 1300.38,363.638 1302.06,370.424 1303.74,377.253 1305.42,384.122 1307.1,391.031 1308.78,397.977 1310.46,404.96 1312.13,411.976 1313.81,419.025 1315.49,426.105 1317.17,433.214 1318.85,440.351 1320.53,447.514 1322.21,454.701 1323.89,461.911 1325.56,469.141 1327.24,476.391 1328.92,483.659 1330.6,490.943 1332.28,498.242 1333.96,505.553 1335.64,512.876 1337.32,520.208 1338.99,527.549 1340.67,534.896 1342.35,542.248 1344.03,549.604 1345.71,556.963 1347.39,564.321 1349.07,571.679 1350.74,579.034 1352.42,586.386 1354.1,593.732 1355.78,601.072 1357.46,608.404 1359.14,615.726 1360.82,623.037 1362.5,630.336 1364.17,637.622 1365.85,644.892 1367.53,652.147 1369.21,659.384 1370.89,666.602 1372.57,673.8 1374.25,680.977 1375.93,688.132 1377.6,695.263 1379.28,702.369 1380.96,709.45 1382.64,716.503 1384.32,723.528 1386,730.524 1387.68,737.49 1389.35,744.424 1391.03,751.326 1392.71,758.194 1394.39,765.029 1396.07,771.827 1397.75,778.59 1399.43,785.315 1401.11,792.002 1402.78,798.65 1404.46,805.258 1406.14,811.826 1407.82,818.352 1409.5,824.836 1411.18,831.276 1412.86,837.673 1414.54,844.025 1416.21,850.332 1417.89,856.593 1419.57,862.807 1421.25,868.974 1422.93,875.093 1424.61,881.163 1426.29,887.185 1427.96,893.156 1429.64,899.077 1431.32,904.948 1433,910.767 1434.68,916.534 1436.36,922.248 1438.04,927.91 1439.72,933.519 1441.39,939.074 1443.07,944.575 1444.75,950.022 1446.43,955.413 1448.11,960.75 1449.79,966.031 1451.47,971.256 1453.14,976.425 1454.82,981.537 1456.5,986.593 1458.18,991.591 1459.86,996.532 1461.54,1001.42 1463.22,1006.24 1464.9,1011.01 1466.57,1015.72 1468.25,1020.37 1469.93,1024.96 1471.61,1029.5 1473.29,1033.97 1474.97,1038.39 1476.65,1042.75 1478.33,1047.05 1480,1051.28 1481.68,1055.46 1483.36,1059.58 1485.04,1063.64 1486.72,1067.64 1488.4,1071.58 1490.08,1075.47 1491.75,1079.29 1493.43,1083.05 1495.11,1086.75 1496.79,1090.39 1498.47,1093.97 1500.15,1097.49 1501.83,1100.95 1503.51,1104.35 1505.18,1107.69 1506.86,1110.97 1508.54,1114.2 1510.22,1117.36 1511.9,1120.46 1513.58,1123.5 1515.26,1126.48 1516.94,1129.4 1518.61,1132.26 1520.29,1135.06 1521.97,1137.8 1523.65,1140.48 1525.33,1143.1 1527.01,1145.66 1528.69,1148.16 1530.36,1150.6 1532.04,1152.98 1533.72,1155.31 1535.4,1157.57 1537.08,1159.77 1538.76,1161.91 1540.44,1163.99 1542.12,1166.01 1543.79,1167.98 1545.47,1169.88 1547.15,1171.72 1548.83,1173.51 1550.51,1175.23 1552.19,1176.89 1553.87,1178.5 1555.55,1180.04 1557.22,1181.53 1558.9,1182.95 1560.58,1184.32 1562.26,1185.63 1563.94,1186.87 1565.62,1188.06 1567.3,1189.19 1568.97,1190.25 1570.65,1191.26 1572.33,1192.21 1574.01,1193.09 1575.69,1193.92 1577.37,1194.69 1579.05,1195.4 1580.73,1196.05 1582.4,1196.63 1584.08,1197.16 1585.76,1197.63 1587.44,1198.04 1589.12,1198.39 1590.8,1198.68 1592.48,1198.91 1594.16,1199.07 1595.83,1199.18 1597.51,1199.23 1599.19,1199.22 1600.87,1199.15 1602.55,1199.02 1604.23,1198.82 1605.91,1198.57 1607.58,1198.26 1609.26,1197.89 1610.94,1197.46 1612.62,1196.96 1614.3,1196.41 1615.98,1195.8 1617.66,1195.13 1619.34,1194.4 1621.01,1193.61 1622.69,1192.76 1624.37,1191.85 1626.05,1190.88 1627.73,1189.86 1629.41,1188.77 1631.09,1187.62 1632.76,1186.42 1634.44,1185.16 1636.12,1183.84 1637.8,1182.46 1639.48,1181.02 1641.16,1179.53 1642.84,1177.97 1644.52,1176.37 1646.19,1174.7 1647.87,1172.98 1649.55,1171.2 1651.23,1169.37 1652.91,1167.48 1654.59,1165.53 1656.27,1163.54 1657.95,1161.48 1659.62,1159.38 1661.3,1157.22 1662.98,1155 1664.66,1152.74 1666.34,1150.43 1668.02,1148.06 1669.7,1145.64 1671.37,1143.18 1673.05,1140.66 1674.73,1138.1 1676.41,1135.49 1678.09,1132.83 1679.77,1130.13 1681.45,1127.38 1683.13,1124.58 1684.8,1121.75 1686.48,1118.87 1688.16,1115.95 1689.84,1112.99 1691.52,1109.99 1693.2,1106.95 1694.88,1103.87 1696.56,1100.76 1698.23,1097.61 1699.91,1094.43 1701.59,1091.21 1703.27,1087.96 1704.95,1084.69 1706.63,1081.38 1708.31,1078.04 1709.98,1074.68 1711.66,1071.29 1713.34,1067.88 1715.02,1064.45 1716.7,1060.99 1718.38,1057.52 1720.06,1054.02 1721.74,1050.51 1723.41,1046.99 1725.09,1043.45 1726.77,1039.9 1728.45,1036.33 1730.13,1032.76 1731.81,1029.18 1733.49,1025.6 1735.17,1022.01 1736.84,1018.42 1738.52,1014.83 1740.2,1011.24 1741.88,1007.65 1743.56,1004.07 1745.24,1000.5 1746.92,996.929 1748.59,993.372 1750.27,989.827 1751.95,986.295 1753.63,982.779 1755.31,979.28 1756.99,975.8 1758.67,972.341 1760.35,968.905 1762.02,965.493 1763.7,962.108 1765.38,958.752 1767.06,955.425 1768.74,952.131 1770.42,948.87 1772.1,945.645 1773.78,942.457 1775.45,939.309 1777.13,936.201 1778.81,933.137 1780.49,930.117 1782.17,927.143 1783.85,924.217 1785.53,921.341 1787.2,918.517 1788.88,915.745 1790.56,913.028 1792.24,910.368 1793.92,907.765 1795.6,905.222 1797.28,902.74 1798.96,900.32 1800.63,897.964 1802.31,895.674 1803.99,893.451 1805.67,891.295 1807.35,889.209 1809.03,887.194 1810.71,885.251 1812.39,883.382 1814.06,881.586 1815.74,879.866 1817.42,878.223 1819.1,876.658 1820.78,875.171 1822.46,873.764 1824.14,872.437 1825.81,871.192 1827.49,870.029 1829.17,868.949 1830.85,867.952 1832.53,867.04 1834.21,866.213 1835.89,865.471 1837.57,864.815 1839.24,864.245 1840.92,863.762 1842.6,863.366 1844.28,863.058 1845.96,862.837 1847.64,862.704 1849.32,862.658 1850.99,862.701 1852.67,862.832 1854.35,863.05 1856.03,863.357 1857.71,863.75 1859.39,864.232 1861.07,864.8 1862.75,865.455 1864.42,866.197 1866.1,867.025 1867.78,867.938 1869.46,868.936 1871.14,870.019 1872.82,871.185 1874.5,872.435 1876.18,873.766 1877.85,875.18 1879.53,876.674 1881.21,878.248 1882.89,879.901 1884.57,881.632 1886.25,883.439 1887.93,885.323 1889.6,887.281 1891.28,889.313 1892.96,891.418 1894.64,893.593 1896.32,895.839 1898,898.153 1899.68,900.535 1901.36,902.983 1903.03,905.495 1904.71,908.07 1906.39,910.707 1908.07,913.404 1909.75,916.16 1911.43,918.973 1913.11,921.842 1914.79,924.765 1916.46,927.74 1918.14,930.765 1919.82,933.84 1921.5,936.963 1923.18,940.131 1924.86,943.343 1926.54,946.598 1928.21,949.894 1929.89,953.228 1931.57,956.6 1933.25,960.007 1934.93,963.448 1936.61,966.921 1938.29,970.424 1939.97,973.956 1941.64,977.514 1943.32,981.098 1945,984.705 1946.68,988.334 1948.36,991.982 1950.04,995.649 1951.72,999.332 1953.4,1003.03 1955.07,1006.74 1956.75,1010.46 1958.43,1014.19 1960.11,1017.93 1961.79,1021.68 1963.47,1025.43 1965.15,1029.19 1966.82,1032.94 1968.5,1036.7 1970.18,1040.46 1971.86,1044.21 1973.54,1047.96 1975.22,1051.7 1976.9,1055.43 1978.58,1059.16 1980.25,1062.88 1981.93,1066.58 1983.61,1070.27 1985.29,1073.95 1986.97,1077.61 1988.65,1081.26 1990.33,1084.89 1992.01,1088.5 1993.68,1092.09 1995.36,1095.66 1997.04,1099.21 1998.72,1102.73 2000.4,1106.23 2002.08,1109.7 2003.76,1113.15 2005.43,1116.57 2007.11,1119.96 2008.79,1123.33 2010.47,1126.66 2012.15,1129.97 2013.83,1133.24 2015.51,1136.48 2017.19,1139.69 2018.86,1142.87 2020.54,1146.01 2022.22,1149.11 2023.9,1152.19 2025.58,1155.22 2027.26,1158.23 2028.94,1161.19 2030.61,1164.12 2032.29,1167.01 2033.97,1169.86 2035.65,1172.68 2037.33,1175.45 2039.01,1178.19 2040.69,1180.89 2042.37,1183.56 2044.04,1186.18 2045.72,1188.76 2047.4,1191.31 2049.08,1193.81 2050.76,1196.28 2052.44,1198.7 2054.12,1201.09 2055.8,1203.43 2057.47,1205.74 2059.15,1208.01 2060.83,1210.24 2062.51,1212.43 2064.19,1214.58 2065.87,1216.69 2067.55,1218.76 2069.22,1220.79 2070.9,1222.79 2072.58,1224.75 2074.26,1226.66 2075.94,1228.55 2077.62,1230.39 2079.3,1232.2 2080.98,1233.96 2082.65,1235.7 2084.33,1237.39 2086.01,1239.05 2087.69,1240.68 2089.37,1242.27 2091.05,1243.82 2092.73,1245.34 2094.41,1246.83 2096.08,1248.28 2097.76,1249.7 2099.44,1251.09 2101.12,1252.44 2102.8,1253.76 2104.48,1255.05 2106.16,1256.31 2107.83,1257.54 2109.51,1258.73 2111.19,1259.9 2112.87,1261.04 2114.55,1262.15 2116.23,1263.23 2117.91,1264.29 2119.59,1265.31 2121.26,1266.31 2122.94,1267.28 2124.62,1268.23 2126.3,1269.15 2127.98,1270.05 2129.66,1270.92 2131.34,1271.76 2133.02,1272.59 2134.69,1273.39 2136.37,1274.16 2138.05,1274.92 2139.73,1275.65 2141.41,1276.36 2143.09,1277.06 2144.77,1277.73 2146.44,1278.38 2148.12,1279.01 2149.8,1279.62 2151.48,1280.21 2153.16,1280.79 2154.84,1281.35 2156.52,1281.89 2158.2,1282.41 2159.87,1282.91 2161.55,1283.4 2163.23,1283.88 2164.91,1284.34 2166.59,1284.78 2168.27,1285.21 2169.95,1285.63 2171.63,1286.03 2173.3,1286.42 2174.98,1286.79 2176.66,1287.16 2178.34,1287.51 2180.02,1287.84 2181.7,1288.17 2183.38,1288.49 2185.05,1288.79 "/>
<path clip-path="url(#clip060)" d="M1481.08 608.485 L2285.68 608.485 L2285.68 90.0846 L1481.08 90.0846  Z" fill="#ffffff" fill-rule="evenodd" fill-opacity="1"/>
<polyline clip-path="url(#clip060)" style="stroke:#000000; stroke-linecap:round; stroke-linejoin:round; stroke-width:4; stroke-opacity:1; fill:none" points="1481.08,608.485 2285.68,608.485 2285.68,90.0846 1481.08,90.0846 1481.08,608.485 "/>
<polyline clip-path="url(#clip060)" style="stroke:#009af9; stroke-linecap:round; stroke-linejoin:round; stroke-width:30; stroke-opacity:1; fill:none" points="1503.44,219.685 1637.6,219.685 "/>
<path clip-path="url(#clip060)" d="M1689.71 205.535 Q1681.14 205.535 1676.17 212.248 Q1671.19 218.903 1671.19 230.535 Q1671.19 242.167 1676.11 248.88 Q1681.08 255.535 1689.71 255.535 Q1698.21 255.535 1703.19 248.822 Q1708.17 242.109 1708.17 230.535 Q1708.17 219.019 1703.19 212.306 Q1698.21 205.535 1689.71 205.535 M1689.71 196.508 Q1703.6 196.508 1711.52 205.535 Q1719.45 214.563 1719.45 230.535 Q1719.45 246.45 1711.52 255.535 Q1703.6 264.563 1689.71 264.563 Q1675.76 264.563 1667.83 255.535 Q1659.96 246.45 1659.96 230.535 Q1659.96 214.563 1667.83 205.535 Q1675.76 196.508 1689.71 196.508 Z" fill="#000000" fill-rule="evenodd" fill-opacity="1" /><path clip-path="url(#clip060)" d="M1747.4 253.162 L1747.4 287.537 L1736.7 287.537 L1736.7 198.07 L1747.4 198.07 L1747.4 207.908 Q1750.76 202.121 1755.85 199.343 Q1761 196.508 1768.12 196.508 Q1779.93 196.508 1787.28 205.883 Q1794.68 215.258 1794.68 230.535 Q1794.68 245.813 1787.28 255.188 Q1779.93 264.563 1768.12 264.563 Q1761 264.563 1755.85 261.785 Q1750.76 258.949 1747.4 253.162 M1783.63 230.535 Q1783.63 218.788 1778.77 212.133 Q1773.97 205.42 1765.52 205.42 Q1757.07 205.42 1752.21 212.133 Q1747.4 218.788 1747.4 230.535 Q1747.4 242.283 1752.21 248.996 Q1757.07 255.651 1765.52 255.651 Q1773.97 255.651 1778.77 248.996 Q1783.63 242.283 1783.63 230.535 Z" fill="#000000" fill-rule="evenodd" fill-opacity="1" /><path clip-path="url(#clip060)" d="M1822.87 179.667 L1822.87 198.07 L1844.8 198.07 L1844.8 206.346 L1822.87 206.346 L1822.87 241.531 Q1822.87 249.459 1825.01 251.716 Q1827.21 253.973 1833.86 253.973 L1844.8 253.973 L1844.8 262.885 L1833.86 262.885 Q1821.54 262.885 1816.85 258.313 Q1812.16 253.683 1812.16 241.531 L1812.16 206.346 L1804.35 206.346 L1804.35 198.07 L1812.16 198.07 L1812.16 179.667 L1822.87 179.667 Z" fill="#000000" fill-rule="evenodd" fill-opacity="1" /><path clip-path="url(#clip060)" d="M1900.01 253.047 L1919.1 253.047 L1919.1 187.133 L1898.33 191.299 L1898.33 180.651 L1918.99 176.485 L1930.68 176.485 L1930.68 253.047 L1949.78 253.047 L1949.78 262.885 L1900.01 262.885 L1900.01 253.047 Z" fill="#000000" fill-rule="evenodd" fill-opacity="1" /><path clip-path="url(#clip060)" d="M1983.46 253.047 L2024.25 253.047 L2024.25 262.885 L1969.39 262.885 L1969.39 253.047 Q1976.05 246.16 1987.51 234.586 Q1999.02 222.954 2001.97 219.598 Q2007.59 213.29 2009.79 208.95 Q2012.04 204.552 2012.04 200.327 Q2012.04 193.441 2007.18 189.1 Q2002.38 184.76 1994.62 184.76 Q1989.13 184.76 1982.99 186.67 Q1976.92 188.579 1969.97 192.457 L1969.97 180.651 Q1977.03 177.816 1983.17 176.369 Q1989.3 174.922 1994.39 174.922 Q2007.82 174.922 2015.8 181.635 Q2023.79 188.348 2023.79 199.575 Q2023.79 204.899 2021.77 209.702 Q2019.8 214.447 2014.53 220.929 Q2013.09 222.607 2005.33 230.651 Q1997.58 238.637 1983.46 253.047 Z" fill="#000000" fill-rule="evenodd" fill-opacity="1" /><path clip-path="url(#clip060)" d="M2073.79 221.855 Q2065.46 221.855 2060.65 226.311 Q2055.91 230.767 2055.91 238.579 Q2055.91 246.392 2060.65 250.848 Q2065.46 255.304 2073.79 255.304 Q2082.12 255.304 2086.93 250.848 Q2091.73 246.334 2091.73 238.579 Q2091.73 230.767 2086.93 226.311 Q2082.18 221.855 2073.79 221.855 M2062.1 216.878 Q2054.58 215.026 2050.35 209.876 Q2046.19 204.725 2046.19 197.318 Q2046.19 186.959 2053.54 180.941 Q2060.94 174.922 2073.79 174.922 Q2086.7 174.922 2094.05 180.941 Q2101.39 186.959 2101.39 197.318 Q2101.39 204.725 2097.17 209.876 Q2093 215.026 2085.54 216.878 Q2093.99 218.846 2098.67 224.575 Q2103.42 230.304 2103.42 238.579 Q2103.42 251.137 2095.72 257.85 Q2088.08 264.563 2073.79 264.563 Q2059.5 264.563 2051.8 257.85 Q2044.16 251.137 2044.16 238.579 Q2044.16 230.304 2048.91 224.575 Q2053.65 218.846 2062.1 216.878 M2057.82 198.417 Q2057.82 205.13 2061.99 208.892 Q2066.21 212.653 2073.79 212.653 Q2081.31 212.653 2085.54 208.892 Q2089.82 205.13 2089.82 198.417 Q2089.82 191.704 2085.54 187.943 Q2081.31 184.181 2073.79 184.181 Q2066.21 184.181 2061.99 187.943 Q2057.82 191.704 2057.82 198.417 Z" fill="#000000" fill-rule="evenodd" fill-opacity="1" /><path clip-path="url(#clip060)" d="M2169.22 230.535 Q2169.22 218.788 2164.36 212.133 Q2159.55 205.42 2151.11 205.42 Q2142.66 205.42 2137.8 212.133 Q2132.99 218.788 2132.99 230.535 Q2132.99 242.283 2137.8 248.996 Q2142.66 255.651 2151.11 255.651 Q2159.55 255.651 2164.36 248.996 Q2169.22 242.283 2169.22 230.535 M2132.99 207.908 Q2136.35 202.121 2141.44 199.343 Q2146.59 196.508 2153.71 196.508 Q2165.51 196.508 2172.86 205.883 Q2180.27 215.258 2180.27 230.535 Q2180.27 245.813 2172.86 255.188 Q2165.51 264.563 2153.71 264.563 Q2146.59 264.563 2141.44 261.785 Q2136.35 258.949 2132.99 253.162 L2132.99 262.885 L2122.29 262.885 L2122.29 172.839 L2132.99 172.839 L2132.99 207.908 Z" fill="#000000" fill-rule="evenodd" fill-opacity="1" /><path clip-path="url(#clip060)" d="M2197.92 198.07 L2208.57 198.07 L2208.57 262.885 L2197.92 262.885 L2197.92 198.07 M2197.92 172.839 L2208.57 172.839 L2208.57 186.323 L2197.92 186.323 L2197.92 172.839 Z" fill="#000000" fill-rule="evenodd" fill-opacity="1" /><path clip-path="url(#clip060)" d="M2241.38 179.667 L2241.38 198.07 L2263.32 198.07 L2263.32 206.346 L2241.38 206.346 L2241.38 241.531 Q2241.38 249.459 2243.52 251.716 Q2245.72 253.973 2252.38 253.973 L2263.32 253.973 L2263.32 262.885 L2252.38 262.885 Q2240.05 262.885 2235.36 258.313 Q2230.68 253.683 2230.68 241.531 L2230.68 206.346 L2222.86 206.346 L2222.86 198.07 L2230.68 198.07 L2230.68 179.667 L2241.38 179.667 Z" fill="#000000" fill-rule="evenodd" fill-opacity="1" /><polyline clip-path="url(#clip060)" style="stroke:#e26f46; stroke-linecap:round; stroke-linejoin:round; stroke-width:30; stroke-opacity:1; fill:none" points="1503.44,349.285 1637.6,349.285 "/>
<path clip-path="url(#clip060)" d="M1689.71 335.135 Q1681.14 335.135 1676.17 341.848 Q1671.19 348.503 1671.19 360.135 Q1671.19 371.767 1676.11 378.48 Q1681.08 385.135 1689.71 385.135 Q1698.21 385.135 1703.19 378.422 Q1708.17 371.709 1708.17 360.135 Q1708.17 348.619 1703.19 341.906 Q1698.21 335.135 1689.71 335.135 M1689.71 326.108 Q1703.6 326.108 1711.52 335.135 Q1719.45 344.163 1719.45 360.135 Q1719.45 376.05 1711.52 385.135 Q1703.6 394.163 1689.71 394.163 Q1675.76 394.163 1667.83 385.135 Q1659.96 376.05 1659.96 360.135 Q1659.96 344.163 1667.83 335.135 Q1675.76 326.108 1689.71 326.108 Z" fill="#000000" fill-rule="evenodd" fill-opacity="1" /><path clip-path="url(#clip060)" d="M1747.4 382.762 L1747.4 417.137 L1736.7 417.137 L1736.7 327.67 L1747.4 327.67 L1747.4 337.508 Q1750.76 331.721 1755.85 328.943 Q1761 326.108 1768.12 326.108 Q1779.93 326.108 1787.28 335.483 Q1794.68 344.858 1794.68 360.135 Q1794.68 375.413 1787.28 384.788 Q1779.93 394.163 1768.12 394.163 Q1761 394.163 1755.85 391.385 Q1750.76 388.549 1747.4 382.762 M1783.63 360.135 Q1783.63 348.388 1778.77 341.733 Q1773.97 335.02 1765.52 335.02 Q1757.07 335.02 1752.21 341.733 Q1747.4 348.388 1747.4 360.135 Q1747.4 371.883 1752.21 378.596 Q1757.07 385.251 1765.52 385.251 Q1773.97 385.251 1778.77 378.596 Q1783.63 371.883 1783.63 360.135 Z" fill="#000000" fill-rule="evenodd" fill-opacity="1" /><path clip-path="url(#clip060)" d="M1822.87 309.267 L1822.87 327.67 L1844.8 327.67 L1844.8 335.946 L1822.87 335.946 L1822.87 371.131 Q1822.87 379.059 1825.01 381.316 Q1827.21 383.573 1833.86 383.573 L1844.8 383.573 L1844.8 392.485 L1833.86 392.485 Q1821.54 392.485 1816.85 387.913 Q1812.16 383.283 1812.16 371.131 L1812.16 335.946 L1804.35 335.946 L1804.35 327.67 L1812.16 327.67 L1812.16 309.267 L1822.87 309.267 Z" fill="#000000" fill-rule="evenodd" fill-opacity="1" /><path clip-path="url(#clip060)" d="M1924.43 344.626 Q1916.56 344.626 1911.93 350.008 Q1907.36 355.39 1907.36 364.765 Q1907.36 374.082 1911.93 379.522 Q1916.56 384.904 1924.43 384.904 Q1932.3 384.904 1936.87 379.522 Q1941.5 374.082 1941.5 364.765 Q1941.5 355.39 1936.87 350.008 Q1932.3 344.626 1924.43 344.626 M1947.63 307.994 L1947.63 318.642 Q1943.24 316.559 1938.72 315.46 Q1934.27 314.36 1929.87 314.36 Q1918.29 314.36 1912.16 322.172 Q1906.08 329.985 1905.22 345.783 Q1908.63 340.749 1913.78 338.087 Q1918.93 335.367 1925.12 335.367 Q1938.14 335.367 1945.67 343.295 Q1953.25 351.165 1953.25 364.765 Q1953.25 378.075 1945.38 386.119 Q1937.51 394.163 1924.43 394.163 Q1909.44 394.163 1901.51 382.705 Q1893.58 371.188 1893.58 349.371 Q1893.58 328.885 1903.31 316.733 Q1913.03 304.522 1929.4 304.522 Q1933.8 304.522 1938.26 305.39 Q1942.77 306.258 1947.63 307.994 Z" fill="#000000" fill-rule="evenodd" fill-opacity="1" /><path clip-path="url(#clip060)" d="M2005.5 316.27 L1975.99 362.392 L2005.5 362.392 L2005.5 316.27 M2002.44 306.085 L2017.14 306.085 L2017.14 362.392 L2029.46 362.392 L2029.46 372.114 L2017.14 372.114 L2017.14 392.485 L2005.5 392.485 L2005.5 372.114 L1966.5 372.114 L1966.5 360.83 L2002.44 306.085 Z" fill="#000000" fill-rule="evenodd" fill-opacity="1" /><path clip-path="url(#clip060)" d="M2093.81 360.135 Q2093.81 348.388 2088.95 341.733 Q2084.15 335.02 2075.7 335.02 Q2067.25 335.02 2062.39 341.733 Q2057.59 348.388 2057.59 360.135 Q2057.59 371.883 2062.39 378.596 Q2067.25 385.251 2075.7 385.251 Q2084.15 385.251 2088.95 378.596 Q2093.81 371.883 2093.81 360.135 M2057.59 337.508 Q2060.94 331.721 2066.04 328.943 Q2071.19 326.108 2078.3 326.108 Q2090.11 326.108 2097.46 335.483 Q2104.87 344.858 2104.87 360.135 Q2104.87 375.413 2097.46 384.788 Q2090.11 394.163 2078.3 394.163 Q2071.19 394.163 2066.04 391.385 Q2060.94 388.549 2057.59 382.762 L2057.59 392.485 L2046.88 392.485 L2046.88 302.439 L2057.59 302.439 L2057.59 337.508 Z" fill="#000000" fill-rule="evenodd" fill-opacity="1" /><path clip-path="url(#clip060)" d="M2122.52 327.67 L2133.17 327.67 L2133.17 392.485 L2122.52 392.485 L2122.52 327.67 M2122.52 302.439 L2133.17 302.439 L2133.17 315.923 L2122.52 315.923 L2122.52 302.439 Z" fill="#000000" fill-rule="evenodd" fill-opacity="1" /><path clip-path="url(#clip060)" d="M2165.98 309.267 L2165.98 327.67 L2187.91 327.67 L2187.91 335.946 L2165.98 335.946 L2165.98 371.131 Q2165.98 379.059 2168.12 381.316 Q2170.32 383.573 2176.97 383.573 L2187.91 383.573 L2187.91 392.485 L2176.97 392.485 Q2164.65 392.485 2159.96 387.913 Q2155.27 383.283 2155.27 371.131 L2155.27 335.946 L2147.46 335.946 L2147.46 327.67 L2155.27 327.67 L2155.27 309.267 L2165.98 309.267 Z" fill="#000000" fill-rule="evenodd" fill-opacity="1" /><polyline clip-path="url(#clip060)" style="stroke:#000000; stroke-linecap:round; stroke-linejoin:round; stroke-width:15; stroke-opacity:1; fill:none" stroke-dasharray="60, 38" points="1503.44,478.885 1637.6,478.885 "/>
<path clip-path="url(#clip060)" d="M1720.03 487.015 L1720.03 492.224 L1671.07 492.224 Q1671.77 503.219 1677.67 509.006 Q1683.63 514.735 1694.22 514.735 Q1700.36 514.735 1706.08 513.231 Q1711.87 511.726 1717.54 508.717 L1717.54 518.786 Q1711.81 521.217 1705.8 522.49 Q1699.78 523.763 1693.58 523.763 Q1678.08 523.763 1668.99 514.735 Q1659.96 505.707 1659.96 490.314 Q1659.96 474.4 1668.53 465.083 Q1677.15 455.708 1691.73 455.708 Q1704.81 455.708 1712.39 464.157 Q1720.03 472.548 1720.03 487.015 M1709.38 483.89 Q1709.27 475.152 1704.46 469.944 Q1699.72 464.735 1691.85 464.735 Q1682.94 464.735 1677.55 469.77 Q1672.23 474.805 1671.42 483.948 L1709.38 483.89 Z" fill="#000000" fill-rule="evenodd" fill-opacity="1" /><path clip-path="url(#clip060)" d="M1789.3 457.27 L1765.86 488.809 L1790.52 522.085 L1777.96 522.085 L1759.09 496.622 L1740.23 522.085 L1727.67 522.085 L1752.84 488.173 L1729.81 457.27 L1742.37 457.27 L1759.56 480.36 L1776.74 457.27 L1789.3 457.27 Z" fill="#000000" fill-rule="evenodd" fill-opacity="1" /><path clip-path="url(#clip060)" d="M1835.02 489.504 Q1822.11 489.504 1817.14 492.455 Q1812.16 495.407 1812.16 502.525 Q1812.16 508.196 1815.86 511.552 Q1819.63 514.851 1826.05 514.851 Q1834.9 514.851 1840.23 508.601 Q1845.61 502.293 1845.61 491.876 L1845.61 489.504 L1835.02 489.504 M1856.26 485.106 L1856.26 522.085 L1845.61 522.085 L1845.61 512.247 Q1841.96 518.149 1836.52 520.985 Q1831.08 523.763 1823.21 523.763 Q1813.26 523.763 1807.36 518.207 Q1801.51 512.594 1801.51 503.219 Q1801.51 492.282 1808.8 486.726 Q1816.15 481.17 1830.68 481.17 L1845.61 481.17 L1845.61 480.129 Q1845.61 472.779 1840.75 468.786 Q1835.94 464.735 1827.21 464.735 Q1821.65 464.735 1816.38 466.066 Q1811.12 467.397 1806.26 470.059 L1806.26 460.222 Q1812.1 457.965 1817.6 456.865 Q1823.1 455.708 1828.31 455.708 Q1842.37 455.708 1849.31 462.999 Q1856.26 470.291 1856.26 485.106 Z" fill="#000000" fill-rule="evenodd" fill-opacity="1" /><path clip-path="url(#clip060)" d="M1924.83 459.759 L1924.83 469.712 Q1920.32 467.224 1915.75 466.009 Q1911.23 464.735 1906.6 464.735 Q1896.25 464.735 1890.52 471.333 Q1884.79 477.872 1884.79 489.735 Q1884.79 501.599 1890.52 508.196 Q1896.25 514.735 1906.6 514.735 Q1911.23 514.735 1915.75 513.52 Q1920.32 512.247 1924.83 509.758 L1924.83 519.596 Q1920.38 521.68 1915.57 522.721 Q1910.83 523.763 1905.45 523.763 Q1890.81 523.763 1882.18 514.562 Q1873.56 505.36 1873.56 489.735 Q1873.56 473.879 1882.24 464.793 Q1890.98 455.708 1906.14 455.708 Q1911.06 455.708 1915.75 456.749 Q1920.44 457.733 1924.83 459.759 Z" fill="#000000" fill-rule="evenodd" fill-opacity="1" /><path clip-path="url(#clip060)" d="M1953.88 438.867 L1953.88 457.27 L1975.82 457.27 L1975.82 465.546 L1953.88 465.546 L1953.88 500.731 Q1953.88 508.659 1956.03 510.916 Q1958.22 513.173 1964.88 513.173 L1975.82 513.173 L1975.82 522.085 L1964.88 522.085 Q1952.55 522.085 1947.87 517.513 Q1943.18 512.883 1943.18 500.731 L1943.18 465.546 L1935.37 465.546 L1935.37 457.27 L1943.18 457.27 L1943.18 438.867 L1953.88 438.867 Z" fill="#000000" fill-rule="evenodd" fill-opacity="1" /></svg>
