<?xml version="1.0" encoding="utf-8"?>
<svg xmlns="http://www.w3.org/2000/svg" xmlns:xlink="http://www.w3.org/1999/xlink" width="600" height="400" viewBox="0 0 2400 1600">
<defs>
  <clipPath id="clip950">
    <rect x="0" y="0" width="2400" height="1600"/>
  </clipPath>
</defs>
<path clip-path="url(#clip950)" d="
M0 1600 L2400 1600 L2400 0 L0 0  Z
  " fill="#ffffff" fill-rule="evenodd" fill-opacity="1"/>
<defs>
  <clipPath id="clip951">
    <rect x="480" y="0" width="1681" height="1600"/>
  </clipPath>
</defs>
<defs>
  <clipPath id="clip952">
    <rect x="340" y="47" width="2013" height="1286"/>
  </clipPath>
</defs>
<path clip-path="url(#clip950)" d="
M340.34 1332.46 L2352.76 1332.46 L2352.76 47.2441 L340.34 47.2441  Z
  " fill="#ffffff" fill-rule="evenodd" fill-opacity="1"/>
<polyline clip-path="url(#clip952)" style="stroke:#000000; stroke-linecap:round; stroke-linejoin:round; stroke-width:2; stroke-opacity:0.1; fill:none" points="
  2185.05,1332.46 2185.05,47.2441 
  "/>
<polyline clip-path="url(#clip952)" style="stroke:#000000; stroke-linecap:round; stroke-linejoin:round; stroke-width:2; stroke-opacity:0.1; fill:none" points="
  1346.55,1332.46 1346.55,47.2441 
  "/>
<polyline clip-path="url(#clip952)" style="stroke:#000000; stroke-linecap:round; stroke-linejoin:round; stroke-width:2; stroke-opacity:0.1; fill:none" points="
  508.041,1332.46 508.041,47.2441 
  "/>
<polyline clip-path="url(#clip950)" style="stroke:#000000; stroke-linecap:round; stroke-linejoin:round; stroke-width:4; stroke-opacity:1; fill:none" points="
  340.34,1332.46 2352.76,1332.46 
  "/>
<polyline clip-path="url(#clip950)" style="stroke:#000000; stroke-linecap:round; stroke-linejoin:round; stroke-width:4; stroke-opacity:1; fill:none" points="
  2185.05,1332.46 2185.05,1313.56 
  "/>
<polyline clip-path="url(#clip950)" style="stroke:#000000; stroke-linecap:round; stroke-linejoin:round; stroke-width:4; stroke-opacity:1; fill:none" points="
  1346.55,1332.46 1346.55,1313.56 
  "/>
<polyline clip-path="url(#clip950)" style="stroke:#000000; stroke-linecap:round; stroke-linejoin:round; stroke-width:4; stroke-opacity:1; fill:none" points="
  508.041,1332.46 508.041,1313.56 
  "/>
<path clip-path="url(#clip950)" d="M2166.83 1367.86 L2201.24 1367.86 L2201.24 1375.24 L2174.85 1375.24 L2174.85 1391.12 Q2176.76 1390.47 2178.67 1390.17 Q2180.58 1389.82 2182.49 1389.82 Q2193.34 1389.82 2199.68 1395.77 Q2206.02 1401.71 2206.02 1411.87 Q2206.02 1422.33 2199.51 1428.15 Q2193 1433.92 2181.15 1433.92 Q2177.07 1433.92 2172.82 1433.22 Q2168.61 1432.53 2164.09 1431.14 L2164.09 1422.33 Q2168 1424.46 2172.16 1425.5 Q2176.33 1426.54 2180.97 1426.54 Q2188.48 1426.54 2192.87 1422.59 Q2197.25 1418.64 2197.25 1411.87 Q2197.25 1405.1 2192.87 1401.15 Q2188.48 1397.2 2180.97 1397.2 Q2177.46 1397.2 2173.94 1397.98 Q2170.47 1398.76 2166.83 1400.41 L2166.83 1367.86 Z" fill="#000000" fill-rule="evenodd" fill-opacity="1" /><path clip-path="url(#clip950)" d="M1346.55 1373.63 Q1339.78 1373.63 1336.35 1380.32 Q1332.96 1386.96 1332.96 1400.32 Q1332.96 1413.65 1336.35 1420.33 Q1339.78 1426.97 1346.55 1426.97 Q1353.36 1426.97 1356.75 1420.33 Q1360.18 1413.65 1360.18 1400.32 Q1360.18 1386.96 1356.75 1380.32 Q1353.36 1373.63 1346.55 1373.63 M1346.55 1366.69 Q1357.44 1366.69 1363.17 1375.33 Q1368.94 1383.92 1368.94 1400.32 Q1368.94 1416.69 1363.17 1425.32 Q1357.44 1433.92 1346.55 1433.92 Q1335.65 1433.92 1329.88 1425.32 Q1324.15 1416.69 1324.15 1400.32 Q1324.15 1383.92 1329.88 1375.33 Q1335.65 1366.69 1346.55 1366.69 Z" fill="#000000" fill-rule="evenodd" fill-opacity="1" /><path clip-path="url(#clip950)" d="M451.119 1401.11 L506.761 1401.11 L506.761 1408.48 L451.119 1408.48 L451.119 1401.11 Z" fill="#000000" fill-rule="evenodd" fill-opacity="1" /><path clip-path="url(#clip950)" d="M525.771 1367.86 L560.19 1367.86 L560.19 1375.24 L533.801 1375.24 L533.801 1391.12 Q535.711 1390.47 537.62 1390.17 Q539.53 1389.82 541.44 1389.82 Q552.29 1389.82 558.627 1395.77 Q564.964 1401.71 564.964 1411.87 Q564.964 1422.33 558.454 1428.15 Q551.943 1433.92 540.094 1433.92 Q536.014 1433.92 531.761 1433.22 Q527.551 1432.53 523.037 1431.14 L523.037 1422.33 Q526.943 1424.46 531.11 1425.5 Q535.277 1426.54 539.921 1426.54 Q547.429 1426.54 551.813 1422.59 Q556.197 1418.64 556.197 1411.87 Q556.197 1405.1 551.813 1401.15 Q547.429 1397.2 539.921 1397.2 Q536.405 1397.2 532.889 1397.98 Q529.417 1398.76 525.771 1400.41 L525.771 1367.86 Z" fill="#000000" fill-rule="evenodd" fill-opacity="1" /><path clip-path="url(#clip950)" d="M1388.97 1506.65 Q1388.97 1513.46 1385.53 1526.64 Q1384.14 1532.35 1382.24 1537.54 Q1380.41 1542.67 1377.7 1547.64 Q1374.99 1552.62 1371.84 1556.21 Q1368.7 1559.72 1364.6 1561.92 Q1360.5 1564.11 1355.96 1564.11 Q1348.79 1564.11 1344.54 1559.87 Q1340.37 1555.55 1339.05 1548.16 Q1329.24 1564.11 1316.14 1564.11 Q1308.02 1564.11 1304.21 1558.33 Q1300.41 1552.47 1300.41 1542.67 Q1300.41 1534.39 1302.6 1525.83 Q1306.77 1509.58 1314.9 1498.24 Q1316 1496.92 1317.61 1496.92 Q1318.56 1496.92 1319 1497.21 Q1320.31 1498.02 1320.31 1499.33 Q1320.31 1500.29 1319.58 1501.24 Q1314.46 1508.34 1311.09 1514.41 Q1307.72 1520.49 1306.19 1526.64 Q1305.02 1531.91 1305.02 1536.37 Q1305.02 1543.91 1308.24 1548.59 Q1311.53 1553.28 1318.05 1553.28 Q1324.05 1553.28 1329.32 1549.55 Q1334.59 1545.74 1338.47 1539.37 Q1338.69 1532.42 1340.37 1525.83 Q1341.91 1518.8 1345.49 1518.8 Q1348.35 1518.8 1348.35 1522.68 Q1348.35 1524 1347.76 1526.64 Q1346.15 1533.59 1343.22 1539.81 Q1344.25 1545.89 1348.06 1549.62 Q1351.86 1553.28 1357.94 1553.28 Q1363.57 1553.28 1368.55 1549.18 Q1373.6 1545.08 1376.82 1539.08 Q1380.11 1533 1381.94 1525.83 Q1382.53 1523.42 1382.53 1520.34 Q1382.53 1512.14 1376.82 1507.09 Q1375.21 1505.48 1375.21 1503.36 Q1375.21 1500.87 1377.26 1498.6 Q1379.68 1496.19 1382.53 1496.19 Q1384.65 1496.19 1385.97 1497.5 Q1388.97 1500.14 1388.97 1506.65 Z" fill="#000000" fill-rule="evenodd" fill-opacity="1" /><polyline clip-path="url(#clip952)" style="stroke:#000000; stroke-linecap:round; stroke-linejoin:round; stroke-width:2; stroke-opacity:0.1; fill:none" points="
  340.34,588.756 2352.76,588.756 
  "/>
<polyline clip-path="url(#clip952)" style="stroke:#000000; stroke-linecap:round; stroke-linejoin:round; stroke-width:2; stroke-opacity:0.1; fill:none" points="
  340.34,1296.09 2352.76,1296.09 
  "/>
<polyline clip-path="url(#clip950)" style="stroke:#000000; stroke-linecap:round; stroke-linejoin:round; stroke-width:4; stroke-opacity:1; fill:none" points="
  340.34,1332.46 340.34,47.2441 
  "/>
<polyline clip-path="url(#clip950)" style="stroke:#000000; stroke-linecap:round; stroke-linejoin:round; stroke-width:4; stroke-opacity:1; fill:none" points="
  340.34,588.756 359.238,588.756 
  "/>
<polyline clip-path="url(#clip950)" style="stroke:#000000; stroke-linecap:round; stroke-linejoin:round; stroke-width:4; stroke-opacity:1; fill:none" points="
  340.34,1296.09 359.238,1296.09 
  "/>
<path clip-path="url(#clip950)" d="M198.351 562.128 Q191.58 562.128 188.152 568.812 Q184.766 575.453 184.766 588.821 Q184.766 602.145 188.152 608.829 Q191.58 615.47 198.351 615.47 Q205.165 615.47 208.551 608.829 Q211.98 602.145 211.98 588.821 Q211.98 575.453 208.551 568.812 Q205.165 562.128 198.351 562.128 M198.351 555.184 Q209.245 555.184 214.974 563.821 Q220.747 572.415 220.747 588.821 Q220.747 605.184 214.974 613.821 Q209.245 622.414 198.351 622.414 Q187.457 622.414 181.685 613.821 Q175.955 605.184 175.955 588.821 Q175.955 572.415 181.685 563.821 Q187.457 555.184 198.351 555.184 Z" fill="#000000" fill-rule="evenodd" fill-opacity="1" /><path clip-path="url(#clip950)" d="M236.155 610.131 L245.313 610.131 L245.313 621.156 L236.155 621.156 L236.155 610.131 Z" fill="#000000" fill-rule="evenodd" fill-opacity="1" /><path clip-path="url(#clip950)" d="M290.972 586.217 Q297.266 587.562 300.781 591.816 Q304.34 596.069 304.34 602.319 Q304.34 611.911 297.743 617.163 Q291.146 622.414 278.993 622.414 Q274.913 622.414 270.573 621.59 Q266.276 620.808 261.675 619.203 L261.675 610.739 Q265.321 612.866 269.662 613.951 Q274.002 615.036 278.733 615.036 Q286.979 615.036 291.276 611.781 Q295.616 608.526 295.616 602.319 Q295.616 596.59 291.58 593.378 Q287.587 590.123 280.425 590.123 L272.873 590.123 L272.873 582.918 L280.773 582.918 Q287.24 582.918 290.668 580.357 Q294.097 577.753 294.097 572.892 Q294.097 567.901 290.538 565.253 Q287.023 562.562 280.425 562.562 Q276.823 562.562 272.7 563.344 Q268.576 564.125 263.629 565.774 L263.629 557.962 Q268.62 556.573 272.96 555.878 Q277.344 555.184 281.207 555.184 Q291.189 555.184 297.005 559.741 Q302.821 564.255 302.821 571.981 Q302.821 577.363 299.739 581.095 Q296.658 584.784 290.972 586.217 Z" fill="#000000" fill-rule="evenodd" fill-opacity="1" /><path clip-path="url(#clip950)" d="M197.136 1269.46 Q190.365 1269.46 186.936 1276.14 Q183.551 1282.78 183.551 1296.15 Q183.551 1309.48 186.936 1316.16 Q190.365 1322.8 197.136 1322.8 Q203.95 1322.8 207.335 1316.16 Q210.764 1309.48 210.764 1296.15 Q210.764 1282.78 207.335 1276.14 Q203.95 1269.46 197.136 1269.46 M197.136 1262.51 Q208.03 1262.51 213.759 1271.15 Q219.532 1279.75 219.532 1296.15 Q219.532 1312.51 213.759 1321.15 Q208.03 1329.75 197.136 1329.75 Q186.242 1329.75 180.469 1321.15 Q174.74 1312.51 174.74 1296.15 Q174.74 1279.75 180.469 1271.15 Q186.242 1262.51 197.136 1262.51 Z" fill="#000000" fill-rule="evenodd" fill-opacity="1" /><path clip-path="url(#clip950)" d="M234.939 1317.46 L244.097 1317.46 L244.097 1328.49 L234.939 1328.49 L234.939 1317.46 Z" fill="#000000" fill-rule="evenodd" fill-opacity="1" /><path clip-path="url(#clip950)" d="M281.944 1269.46 Q275.174 1269.46 271.745 1276.14 Q268.359 1282.78 268.359 1296.15 Q268.359 1309.48 271.745 1316.16 Q275.174 1322.8 281.944 1322.8 Q288.759 1322.8 292.144 1316.16 Q295.573 1309.48 295.573 1296.15 Q295.573 1282.78 292.144 1276.14 Q288.759 1269.46 281.944 1269.46 M281.944 1262.51 Q292.838 1262.51 298.568 1271.15 Q304.34 1279.75 304.34 1296.15 Q304.34 1312.51 298.568 1321.15 Q292.838 1329.75 281.944 1329.75 Q271.05 1329.75 265.278 1321.15 Q259.549 1312.51 259.549 1296.15 Q259.549 1279.75 265.278 1271.15 Q271.05 1262.51 281.944 1262.51 Z" fill="#000000" fill-rule="evenodd" fill-opacity="1" /><path clip-path="url(#clip950)" d="M48.927 657.422 Q59.7599 657.422 69.934 662.985 Q80.1081 668.474 86.2565 677.111 Q92.4049 685.675 92.4049 694.312 Q92.4049 704.047 82.304 709.098 Q118.975 718.247 119.926 718.759 Q123.074 720.882 123.074 723.956 Q123.074 725.859 121.903 727.03 Q120.805 728.202 119.048 728.202 Q118.462 728.128 116.632 727.689 L57.7104 713.05 Q44.0229 709.683 34.288 699.509 Q24.4798 689.262 24.4798 678.282 Q24.4798 669.572 30.9942 663.497 Q37.5085 657.422 48.927 657.422 M42.4858 668.182 Q35.1663 668.182 31.5065 671.109 Q27.7736 674.037 27.7736 678.575 Q27.7736 682.747 31.1406 687.798 Q34.5075 692.775 41.9734 697.167 Q46.292 699.509 51.6352 701.193 Q56.9784 702.876 70.1536 706.17 Q75.4236 707.341 75.7164 707.341 Q76.302 707.341 77.6195 707.048 Q78.937 706.682 80.9865 705.804 Q82.9627 704.852 84.7194 703.535 Q86.4761 702.217 87.7936 699.802 Q89.0379 697.386 89.0379 694.459 Q89.0379 689.921 85.3782 685.09 Q81.6452 680.186 74.8381 676.599 Q69.3484 673.598 59.0279 670.89 Q48.6342 668.182 42.4858 668.182 Z" fill="#000000" fill-rule="evenodd" fill-opacity="1" /><polyline clip-path="url(#clip952)" style="stroke:#009af9; stroke-linecap:round; stroke-linejoin:round; stroke-width:12; stroke-opacity:1; fill:none" points="
  -330.465,1296.09 -327.108,1296.09 -323.75,1296.09 -320.393,1296.09 -317.036,1296.09 -313.678,1296.09 -310.321,1296.09 -306.963,1296.09 -303.606,1296.09 -300.249,1296.09 
  -296.891,1296.09 -293.534,1296.09 -290.176,1296.09 -286.819,1296.09 -283.462,1296.09 -280.104,1296.09 -276.747,1296.09 -273.39,1296.09 -270.032,1296.09 -266.675,1296.09 
  -263.317,1296.09 -259.96,1296.09 -256.603,1296.09 -253.245,1296.09 -249.888,1296.09 -246.531,1296.09 -243.173,1296.09 -239.816,1296.09 -236.458,1296.09 -233.101,1296.09 
  -229.744,1296.09 -226.386,1296.09 -223.029,1296.09 -219.671,1296.09 -216.314,1296.09 -212.957,1296.09 -209.599,1296.09 -206.242,1296.09 -202.885,1296.09 -199.527,1296.09 
  -196.17,1296.09 -192.812,1296.09 -189.455,1296.09 -186.098,1296.09 -182.74,1296.09 -179.383,1296.09 -176.025,1296.09 -172.668,1296.09 -169.311,1296.09 -165.953,1296.09 
  -162.596,1296.09 -159.239,1296.09 -155.881,1296.09 -152.524,1296.09 -149.166,1296.09 -145.809,1296.09 -142.452,1296.09 -139.094,1296.09 -135.737,1296.09 -132.379,1296.09 
  -129.022,1296.09 -125.665,1296.09 -122.307,1296.09 -118.95,1296.09 -115.593,1296.09 -112.235,1296.09 -108.878,1296.09 -105.52,1296.09 -102.163,1296.09 -98.8056,1296.09 
  -95.4482,1296.09 -92.0909,1296.09 -88.7335,1296.09 -85.3761,1296.09 -82.0187,1296.09 -78.6613,1296.09 -75.3039,1296.09 -71.9466,1296.09 -68.5892,1296.09 -65.2318,1296.09 
  -61.8744,1296.09 -58.517,1296.09 -55.1596,1296.09 -51.8023,1296.09 -48.4449,1296.09 -45.0875,1296.09 -41.7301,1296.09 -38.3727,1296.09 -35.0153,1296.09 -31.6579,1296.09 
  -28.3006,1296.09 -24.9432,1296.09 -21.5858,1296.09 -18.2284,1296.09 -14.871,1296.09 -11.5136,1296.09 -8.15626,1296.09 -4.79888,1296.09 -1.4415,1296.09 1.91589,1296.09 
  5.27327,1296.09 8.63065,1296.09 11.988,1296.09 15.3454,1296.09 18.7028,1296.09 22.0602,1296.09 25.4176,1296.09 28.775,1296.09 32.1323,1296.09 35.4897,1296.09 
  38.8471,1296.09 42.2045,1296.09 45.5619,1296.09 48.9193,1296.09 52.2766,1296.09 55.634,1296.09 58.9914,1296.09 62.3488,1296.09 65.7062,1296.09 69.0636,1296.09 
  72.4209,1296.09 75.7783,1296.08 79.1357,1296.08 82.4931,1296.08 85.8505,1296.08 89.2079,1296.08 92.5652,1296.08 95.9226,1296.08 99.28,1296.08 102.637,1296.08 
  105.995,1296.08 109.352,1296.08 112.71,1296.08 116.067,1296.08 119.424,1296.08 122.782,1296.08 126.139,1296.08 129.496,1296.08 132.854,1296.08 136.211,1296.08 
  139.569,1296.08 142.926,1296.08 146.283,1296.08 149.641,1296.08 152.998,1296.08 156.356,1296.08 159.713,1296.08 163.07,1296.08 166.428,1296.08 169.785,1296.08 
  173.142,1296.08 176.5,1296.08 179.857,1296.08 183.215,1296.08 186.572,1296.08 189.929,1296.08 193.287,1296.08 196.644,1296.08 200.002,1296.08 203.359,1296.08 
  206.716,1296.08 210.074,1296.08 213.431,1296.08 216.788,1296.08 220.146,1296.08 223.503,1296.08 226.861,1296.08 230.218,1296.08 233.575,1296.08 236.933,1296.08 
  240.29,1296.08 243.648,1296.08 247.005,1296.08 250.362,1296.08 253.72,1296.08 257.077,1296.08 260.434,1296.08 263.792,1296.08 267.149,1296.08 270.507,1296.08 
  273.864,1296.08 277.221,1296.08 280.579,1296.08 283.936,1296.08 287.293,1296.08 290.651,1296.08 294.008,1296.08 297.366,1296.08 300.723,1296.08 304.08,1296.08 
  307.438,1296.08 310.795,1296.08 314.153,1296.08 317.51,1296.08 320.867,1296.08 324.225,1296.08 327.582,1296.08 330.939,1296.08 334.297,1296.08 337.654,1296.08 
  341.012,1296.08 344.369,1296.08 347.726,1296.08 351.084,1296.08 354.441,1296.08 357.799,1296.08 361.156,1296.08 364.513,1296.08 367.871,1296.08 371.228,1296.08 
  374.585,1296.08 377.943,1296.08 381.3,1296.08 384.658,1296.08 388.015,1296.08 391.372,1296.08 394.73,1296.08 398.087,1296.08 401.445,1296.08 404.802,1296.08 
  408.159,1296.08 411.517,1296.08 414.874,1296.08 418.231,1296.08 421.589,1296.08 424.946,1296.08 428.304,1296.08 431.661,1296.08 435.018,1296.08 438.376,1296.08 
  441.733,1296.08 445.091,1296.08 448.448,1296.08 451.805,1296.08 455.163,1296.07 458.52,1296.07 461.877,1296.07 465.235,1296.07 468.592,1296.07 471.95,1296.07 
  475.307,1296.07 478.664,1296.06 482.022,1296.06 485.379,1296.06 488.737,1296.06 492.094,1296.05 495.451,1296.05 498.809,1296.04 502.166,1296.04 505.523,1296.03 
  508.881,1296.02 512.238,1296.01 515.596,1296 518.953,1295.98 522.31,1295.96 525.668,1295.94 529.025,1295.91 532.383,1295.87 535.74,1295.82 539.097,1295.75 
  542.455,1295.66 545.812,1295.53 549.169,1295.36 552.527,1295.12 555.884,1294.76 559.242,1294.25 562.599,1293.49 565.956,1292.41 569.314,1291.07 572.671,1289.8 
  576.028,1289.22 579.386,1289.6 582.743,1290.52 586.101,1291.5 589.458,1292.33 592.815,1292.96 596.173,1293.44 599.53,1293.8 602.888,1294.07 606.245,1294.27 
  609.602,1294.43 612.96,1294.55 616.317,1294.65 619.674,1294.72 623.032,1294.77 626.389,1294.81 629.747,1294.84 633.104,1294.86 636.461,1294.87 639.819,1294.86 
  643.176,1294.85 646.534,1294.84 649.891,1294.81 653.248,1294.77 656.606,1294.73 659.963,1294.68 663.32,1294.61 666.678,1294.53 670.035,1294.44 673.393,1294.34 
  676.75,1294.21 680.107,1294.07 683.465,1293.9 686.822,1293.7 690.18,1293.47 693.537,1293.19 696.894,1292.86 700.252,1292.47 703.609,1292 706.966,1291.42 
  710.324,1290.72 713.681,1289.85 717.039,1288.76 720.396,1287.37 723.753,1285.6 727.111,1283.28 730.468,1280.21 733.826,1276.07 737.183,1270.41 740.54,1262.57 
  743.898,1251.68 747.255,1236.77 750.612,1217.45 753.97,1195.59 757.327,1177.18 760.685,1170.17 764.042,1176.95 767.399,1192.07 770.757,1208.8 774.114,1223.51 
  777.472,1235.28 780.829,1244.36 784.186,1251.29 787.544,1256.57 790.901,1260.62 794.258,1263.72 797.616,1266.1 800.973,1267.91 804.331,1269.25 807.688,1270.22 
  811.045,1270.85 814.403,1271.19 817.76,1271.27 821.117,1271.08 824.475,1270.64 827.832,1269.92 831.19,1268.92 834.547,1267.58 837.904,1265.88 841.262,1263.74 
  844.619,1261.07 847.977,1257.76 851.334,1253.64 854.691,1248.48 858.049,1242 861.406,1233.77 864.763,1223.2 868.121,1209.46 871.478,1191.38 874.836,1167.29 
  878.193,1134.91 881.55,1091.34 884.908,1033.68 888.265,961.14 891.623,880.017 894.98,809.302 898.337,776.012 901.695,793.359 905.052,847.594 908.409,914.067 
  911.767,975.981 915.124,1027.12 918.482,1067.17 921.839,1097.85 925.196,1121.13 928.554,1138.71 931.911,1151.88 935.269,1161.57 938.626,1168.44 941.983,1172.94 
  945.341,1175.36 948.698,1175.86 952.055,1174.47 955.413,1171.13 958.77,1165.66 962.128,1157.74 965.485,1146.89 968.842,1132.38 972.2,1113.19 975.557,1087.85 
  978.915,1054.29 982.272,1009.61 985.629,949.847 988.987,870.13 992.344,765.723 995.701,635.861 999.059,492.21 1002.42,368.479 1005.77,312.604 1009.13,348.763 
  1012.49,452.538 1015.85,578.414 1019.2,694.759 1022.56,789.812 1025.92,863.053 1029.28,917.829 1032.63,957.938 1035.99,986.518 1039.35,1005.86 1042.7,1017.48 
  1046.06,1022.26 1049.42,1020.53 1052.78,1012.07 1056.13,996.129 1059.49,971.246 1062.85,935.105 1066.21,884.251 1069.56,813.837 1072.92,717.744 1076.28,590.14 
  1079.64,431.006 1082.99,258.501 1086.35,121.709 1089.71,83.6181 1093.07,162.925 1096.42,312.649 1099.78,472.053 1103.14,607.753 1106.5,711.538 1109.85,786.251 
  1113.21,837.188 1116.57,868.882 1119.92,884.296 1123.28,884.76 1126.64,869.995 1130,838.005 1133.35,784.85 1136.71,704.539 1140.07,590.057 1143.43,438.457 
  1146.78,265.166 1150.14,124.054 1153.5,92.5565 1156.86,192.077 1160.21,358.699 1163.57,520.524 1166.93,646.024 1170.29,731.858 1173.64,783.418 1177,805.831 
  1180.36,801.259 1183.71,768.233 1187.07,701.618 1190.43,594.295 1193.79,445.827 1197.14,287.139 1200.5,202.815 1203.86,263.626 1207.22,421.342 1210.57,579.845 
  1213.93,693.616 1217.29,757.781 1220.65,777.139 1224,752.964 1227.36,680.58 1230.72,556.23 1234.08,407.685 1237.43,336.791 1240.79,424.512 1244.15,584.645 
  1247.51,709.453 1250.86,769.169 1254.22,763.846 1257.58,691.035 1260.93,558.6 1264.29,456.95 1267.65,524.516 1271.01,676.87 1274.36,771.171 1277.72,773.353 
  1281.08,681.985 1284.44,560.297 1287.79,604.69 1291.15,747.481 1294.51,794.705 1297.87,712.061 1301.22,623.674 1304.58,740.545 1307.94,804.935 1311.3,706.682 
  1314.65,731.606 1318.01,812.587 1321.37,722.546 1324.73,817.203 1328.08,755.228 1331.44,818.361 1334.8,822.409 1338.15,825.398 1341.51,828.179 1344.87,835.86 
  1348.23,842.96 1351.58,850.918 1354.94,861.864 1358.3,871.217 1361.66,882.226 1365.01,885.496 1368.37,904.511 1371.73,897.822 1375.09,931.391 1378.44,912.346 
  1381.8,929.509 1385.16,965.973 1388.52,945.144 1391.87,931.991 1395.23,978.292 1398.59,1008.01 1401.94,991.269 1405.3,959.336 1408.66,973.696 1412.02,1022.82 
  1415.37,1054.25 1418.73,1054.04 1422.09,1028.18 1425.45,999.541 1428.8,1005.41 1432.16,1045.9 1435.52,1086.38 1438.88,1109.42 1442.23,1113.97 1445.59,1102.26 
  1448.95,1078.42 1452.31,1054.28 1455.66,1050.39 1459.02,1074.66 1462.38,1110.63 1465.74,1141.35 1469.09,1161.55 1472.45,1171.87 1475.81,1173.81 1479.16,1168.29 
  1482.52,1155.96 1485.88,1138.46 1489.24,1120.82 1492.59,1112.35 1495.95,1120.44 1499.31,1142.01 1502.67,1167.21 1506.02,1189.04 1509.38,1205.39 1512.74,1216.63 
  1516.1,1223.74 1519.45,1227.53 1522.81,1228.55 1526.17,1227.06 1529.53,1223.11 1532.88,1216.67 1536.24,1207.83 1539.6,1197.18 1542.95,1186.37 1546.31,1178.47 
  1549.67,1176.88 1553.03,1182.95 1556.38,1194.69 1559.74,1208.5 1563.1,1221.54 1566.46,1232.51 1569.81,1241.18 1573.17,1247.8 1576.53,1252.72 1579.89,1256.28 
  1583.24,1258.75 1586.6,1260.3 1589.96,1261.06 1593.32,1261.09 1596.67,1260.43 1600.03,1259.04 1603.39,1256.86 1606.75,1253.77 1610.1,1249.61 1613.46,1244.15 
  1616.82,1237.12 1620.17,1228.24 1623.53,1217.26 1626.89,1204.2 1630.25,1189.66 1633.6,1175.15 1636.96,1163.22 1640.32,1156.71 1643.68,1157.23 1647.03,1164.12 
  1650.39,1175.02 1653.75,1187.33 1657.11,1199.2 1660.46,1209.68 1663.82,1218.46 1667.18,1225.59 1670.54,1231.23 1673.89,1235.57 1677.25,1238.81 1680.61,1241.09 
  1683.97,1242.52 1687.32,1243.16 1690.68,1243.06 1694.04,1242.21 1697.39,1240.58 1700.75,1238.09 1704.11,1234.63 1707.47,1230 1710.82,1223.96 1714.18,1216.15 
  1717.54,1206.06 1720.9,1193 1724.25,1176.01 1727.61,1153.79 1730.97,1124.61 1734.33,1086.41 1737.68,1037.31 1741.04,977.05 1744.4,910.197 1747.76,849.901 
  1751.11,816.215 1754.47,823.022 1757.83,865.135 1761.18,924.098 1764.54,983.386 1767.9,1034.78 1771.26,1076.31 1774.61,1108.84 1777.97,1134.02 1781.33,1153.48 
  1784.69,1168.51 1788.04,1180.12 1791.4,1189.04 1794.76,1195.83 1798.12,1200.87 1801.47,1204.42 1804.83,1206.69 1808.19,1207.77 1811.55,1207.74 1814.9,1206.58 
  1818.26,1204.25 1821.62,1200.64 1824.98,1195.56 1828.33,1188.74 1831.69,1179.78 1835.05,1168.12 1838.4,1152.96 1841.76,1133.12 1845.12,1106.95 1848.48,1071.99 
  1851.83,1024.71 1855.19,960.192 1858.55,872.265 1861.91,755.806 1865.26,614.852 1868.62,479.431 1871.98,412.397 1875.34,460.681 1878.69,594.373 1882.05,745.62 
  1885.41,873.961 1888.77,970.962 1892.12,1041.45 1895.48,1092.43 1898.84,1129.66 1902.2,1157.26 1905.55,1178.06 1908.91,1193.98 1912.27,1206.32 1915.62,1215.99 
  1918.98,1223.64 1922.34,1229.71 1925.7,1234.53 1929.05,1238.34 1932.41,1241.3 1935.77,1243.55 1939.13,1245.18 1942.48,1246.23 1945.84,1246.74 1949.2,1246.72 
  1952.56,1246.15 1955.91,1245.01 1959.27,1243.22 1962.63,1240.67 1965.99,1237.21 1969.34,1232.62 1972.7,1226.57 1976.06,1218.57 1979.41,1207.93 1982.77,1193.55 
  1986.13,1173.76 1989.49,1145.92 1992.84,1106 1996.2,1048.25 1999.56,967.169 2002.92,868.12 2006.27,792.144 2009.63,806.702 2012.99,907.324 2016.35,1020.39 
  2019.7,1106 2023.06,1163.13 2026.42,1200.41 2029.78,1225.1 2033.13,1241.9 2036.49,1253.67 2039.85,1262.14 2043.21,1268.39 2046.56,1273.1 2049.92,1276.71 
  2053.28,1279.53 2056.63,1281.77 2059.99,1283.56 2063.35,1285.01 2066.71,1286.2 2070.06,1287.18 2073.42,1287.99 2076.78,1288.67 2080.14,1289.24 2083.49,1289.71 
  2086.85,1290.11 2090.21,1290.44 2093.57,1290.71 2096.92,1290.93 2100.28,1291.1 2103.64,1291.23 2107,1291.31 2110.35,1291.36 2113.71,1291.36 2117.07,1291.31 
  2120.42,1291.22 2123.78,1291.07 2127.14,1290.85 2130.5,1290.55 2133.85,1290.14 2137.21,1289.58 2140.57,1288.83 2143.93,1287.8 2147.28,1286.34 2150.64,1284.24 
  2154,1281.09 2157.36,1276.2 2160.71,1268.51 2164.07,1257.32 2167.43,1246.8 2170.79,1249.25 2174.14,1263.65 2177.5,1276.41 2180.86,1284.14 2184.22,1288.52 
  2187.57,1291.06 2190.93,1292.61 2194.29,1293.6 2197.64,1294.25 2201,1294.7 2204.36,1295.02 2207.72,1295.25 2211.07,1295.42 2214.43,1295.55 2217.79,1295.65 
  2221.15,1295.73 2224.5,1295.79 2227.86,1295.84 2231.22,1295.88 2234.58,1295.91 2237.93,1295.93 2241.29,1295.96 2244.65,1295.97 2248.01,1295.99 2251.36,1296 
  2254.72,1296.01 2258.08,1296.02 2261.44,1296.03 2264.79,1296.03 2268.15,1296.04 2271.51,1296.04 2274.86,1296.05 2278.22,1296.05 2281.58,1296.06 2284.94,1296.06 
  2288.29,1296.06 2291.65,1296.06 2295.01,1296.07 2298.37,1296.07 2301.72,1296.07 2305.08,1296.07 2308.44,1296.07 2311.8,1296.07 2315.15,1296.07 2318.51,1296.07 
  2321.87,1296.08 2325.23,1296.08 2328.58,1296.08 2331.94,1296.08 2335.3,1296.08 2338.65,1296.08 2342.01,1296.08 2345.37,1296.08 2348.73,1296.08 2352.08,1296.08 
  2355.44,1296.08 2358.8,1296.08 2362.16,1296.08 2365.51,1296.08 2368.87,1296.08 2372.23,1296.08 2375.59,1296.08 2378.94,1296.08 2382.3,1296.08 2385.66,1296.08 
  2389.02,1296.08 2392.37,1296.08 2395.73,1296.08 2399.09,1296.08 2402.45,1296.08 2405.8,1296.08 2409.16,1296.08 2412.52,1296.08 2415.87,1296.08 2419.23,1296.08 
  2422.59,1296.08 2425.95,1296.08 2429.3,1296.08 2432.66,1296.08 2436.02,1296.08 2439.38,1296.08 2442.73,1296.08 2446.09,1296.08 2449.45,1296.08 2452.81,1296.08 
  2456.16,1296.08 2459.52,1296.08 2462.88,1296.08 2466.24,1296.08 2469.59,1296.08 2472.95,1296.08 2476.31,1296.08 2479.67,1296.08 2483.02,1296.08 2486.38,1296.08 
  2489.74,1296.08 2493.09,1296.08 2496.45,1296.08 2499.81,1296.08 2503.17,1296.08 2506.52,1296.08 2509.88,1296.08 2513.24,1296.08 2516.6,1296.08 2519.95,1296.08 
  2523.31,1296.08 2526.67,1296.08 2530.03,1296.08 2533.38,1296.08 2536.74,1296.08 2540.1,1296.08 2543.46,1296.08 2546.81,1296.08 2550.17,1296.08 2553.53,1296.08 
  2556.88,1296.08 2560.24,1296.08 2563.6,1296.08 2566.96,1296.08 2570.31,1296.08 2573.67,1296.08 2577.03,1296.08 2580.39,1296.08 2583.74,1296.08 2587.1,1296.08 
  2590.46,1296.08 2593.82,1296.08 2597.17,1296.08 2600.53,1296.08 2603.89,1296.08 2607.25,1296.08 2610.6,1296.08 2613.96,1296.08 2617.32,1296.08 2620.68,1296.08 
  2624.03,1296.08 2627.39,1296.09 2630.75,1296.09 2634.1,1296.09 2637.46,1296.09 2640.82,1296.09 2644.18,1296.09 2647.53,1296.09 2650.89,1296.09 2654.25,1296.09 
  2657.61,1296.09 2660.96,1296.09 2664.32,1296.09 2667.68,1296.09 2671.04,1296.09 2674.39,1296.09 2677.75,1296.09 2681.11,1296.09 2684.47,1296.09 2687.82,1296.09 
  2691.18,1296.09 2694.54,1296.09 2697.89,1296.09 2701.25,1296.09 2704.61,1296.09 2707.97,1296.09 2711.32,1296.09 2714.68,1296.09 2718.04,1296.09 2721.4,1296.09 
  2724.75,1296.09 2728.11,1296.09 2731.47,1296.09 2734.83,1296.09 2738.18,1296.09 2741.54,1296.09 2744.9,1296.09 2748.26,1296.09 2751.61,1296.09 2754.97,1296.09 
  2758.33,1296.09 2761.69,1296.09 2765.04,1296.09 2768.4,1296.09 2771.76,1296.09 2775.11,1296.09 2778.47,1296.09 2781.83,1296.09 2785.19,1296.09 2788.54,1296.09 
  2791.9,1296.09 2795.26,1296.09 2798.62,1296.09 2801.97,1296.09 2805.33,1296.09 2808.69,1296.09 2812.05,1296.09 2815.4,1296.09 2818.76,1296.09 2822.12,1296.09 
  2825.48,1296.09 2828.83,1296.09 2832.19,1296.09 2835.55,1296.09 2838.91,1296.09 2842.26,1296.09 2845.62,1296.09 2848.98,1296.09 2852.33,1296.09 2855.69,1296.09 
  2859.05,1296.09 2862.41,1296.09 2865.76,1296.09 2869.12,1296.09 2872.48,1296.09 2875.84,1296.09 2879.19,1296.09 2882.55,1296.09 2885.91,1296.09 2889.27,1296.09 
  2892.62,1296.09 2895.98,1296.09 2899.34,1296.09 2902.7,1296.09 2906.05,1296.09 2909.41,1296.09 2912.77,1296.09 2916.12,1296.09 2919.48,1296.09 2922.84,1296.09 
  2926.2,1296.09 2929.55,1296.09 2932.91,1296.09 2936.27,1296.09 2939.63,1296.09 2942.98,1296.09 2946.34,1296.09 2949.7,1296.09 2953.06,1296.09 2956.41,1296.09 
  2959.77,1296.09 2963.13,1296.09 2966.49,1296.09 2969.84,1296.09 2973.2,1296.09 2976.56,1296.09 2979.92,1296.09 2983.27,1296.09 2986.63,1296.09 2989.99,1296.09 
  2993.34,1296.09 2996.7,1296.09 3000.06,1296.09 3003.42,1296.09 3006.77,1296.09 3010.13,1296.09 3013.49,1296.09 3016.85,1296.09 3020.2,1296.09 3023.56,1296.09 
  
  "/>
<polyline clip-path="url(#clip952)" style="stroke:#e26f46; stroke-linecap:round; stroke-linejoin:round; stroke-width:4; stroke-opacity:1; fill:none" points="
  -330.465,1296.09 -327.108,1296.09 -323.75,1296.09 -320.393,1296.09 -317.036,1296.09 -313.678,1296.09 -310.321,1296.09 -306.963,1296.09 -303.606,1296.09 -300.249,1296.09 
  -296.891,1296.09 -293.534,1296.09 -290.176,1296.09 -286.819,1296.09 -283.462,1296.09 -280.104,1296.09 -276.747,1296.09 -273.39,1296.09 -270.032,1296.09 -266.675,1296.09 
  -263.317,1296.09 -259.96,1296.09 -256.603,1296.09 -253.245,1296.09 -249.888,1296.09 -246.531,1296.09 -243.173,1296.09 -239.816,1296.09 -236.458,1296.09 -233.101,1296.09 
  -229.744,1296.09 -226.386,1296.09 -223.029,1296.09 -219.671,1296.09 -216.314,1296.09 -212.957,1296.09 -209.599,1296.09 -206.242,1296.09 -202.885,1296.09 -199.527,1296.09 
  -196.17,1296.09 -192.812,1296.09 -189.455,1296.09 -186.098,1296.09 -182.74,1296.09 -179.383,1296.09 -176.025,1296.09 -172.668,1296.09 -169.311,1296.09 -165.953,1296.09 
  -162.596,1296.09 -159.239,1296.09 -155.881,1296.09 -152.524,1296.09 -149.166,1296.09 -145.809,1296.09 -142.452,1296.09 -139.094,1296.09 -135.737,1296.09 -132.379,1296.09 
  -129.022,1296.09 -125.665,1296.09 -122.307,1296.09 -118.95,1296.09 -115.593,1296.09 -112.235,1296.09 -108.878,1296.09 -105.52,1296.09 -102.163,1296.09 -98.8056,1296.09 
  -95.4482,1296.09 -92.0909,1296.09 -88.7335,1296.09 -85.3761,1296.09 -82.0187,1296.09 -78.6613,1296.09 -75.3039,1296.09 -71.9466,1296.09 -68.5892,1296.09 -65.2318,1296.09 
  -61.8744,1296.09 -58.517,1296.09 -55.1596,1296.09 -51.8023,1296.09 -48.4449,1296.09 -45.0875,1296.09 -41.7301,1296.09 -38.3727,1296.09 -35.0153,1296.09 -31.6579,1296.09 
  -28.3006,1296.09 -24.9432,1296.09 -21.5858,1296.09 -18.2284,1296.09 -14.871,1296.09 -11.5136,1296.09 -8.15626,1296.09 -4.79888,1296.09 -1.4415,1296.09 1.91589,1296.09 
  5.27327,1296.09 8.63065,1296.09 11.988,1296.09 15.3454,1296.09 18.7028,1296.09 22.0602,1296.09 25.4176,1296.09 28.775,1296.09 32.1323,1296.09 35.4897,1296.09 
  38.8471,1296.09 42.2045,1296.09 45.5619,1296.09 48.9193,1296.09 52.2766,1296.09 55.634,1296.09 58.9914,1296.09 62.3488,1296.09 65.7062,1296.09 69.0636,1296.09 
  72.4209,1296.09 75.7783,1296.08 79.1357,1296.08 82.4931,1296.08 85.8505,1296.08 89.2079,1296.08 92.5652,1296.08 95.9226,1296.08 99.28,1296.08 102.637,1296.08 
  105.995,1296.08 109.352,1296.08 112.71,1296.08 116.067,1296.08 119.424,1296.08 122.782,1296.08 126.139,1296.08 129.496,1296.08 132.854,1296.08 136.211,1296.08 
  139.569,1296.08 142.926,1296.08 146.283,1296.08 149.641,1296.08 152.998,1296.08 156.356,1296.08 159.713,1296.08 163.07,1296.08 166.428,1296.08 169.785,1296.08 
  173.142,1296.08 176.5,1296.08 179.857,1296.08 183.215,1296.08 186.572,1296.08 189.929,1296.08 193.287,1296.08 196.644,1296.08 200.002,1296.08 203.359,1296.08 
  206.716,1296.08 210.074,1296.08 213.431,1296.08 216.788,1296.08 220.146,1296.08 223.503,1296.08 226.861,1296.08 230.218,1296.08 233.575,1296.08 236.933,1296.08 
  240.29,1296.08 243.648,1296.08 247.005,1296.08 250.362,1296.08 253.72,1296.08 257.077,1296.08 260.434,1296.08 263.792,1296.08 267.149,1296.08 270.507,1296.08 
  273.864,1296.08 277.221,1296.08 280.579,1296.08 283.936,1296.08 287.293,1296.08 290.651,1296.08 294.008,1296.08 297.366,1296.08 300.723,1296.08 304.08,1296.08 
  307.438,1296.08 310.795,1296.08 314.153,1296.08 317.51,1296.08 320.867,1296.08 324.225,1296.08 327.582,1296.08 330.939,1296.08 334.297,1296.08 337.654,1296.08 
  341.012,1296.08 344.369,1296.08 347.726,1296.08 351.084,1296.08 354.441,1296.08 357.799,1296.08 361.156,1296.08 364.513,1296.08 367.871,1296.08 371.228,1296.08 
  374.585,1296.08 377.943,1296.08 381.3,1296.08 384.658,1296.08 388.015,1296.08 391.372,1296.08 394.73,1296.08 398.087,1296.08 401.445,1296.08 404.802,1296.08 
  408.159,1296.08 411.517,1296.08 414.874,1296.08 418.231,1296.08 421.589,1296.08 424.946,1296.08 428.304,1296.08 431.661,1296.08 435.018,1296.07 438.376,1296.07 
  441.733,1296.07 445.091,1296.07 448.448,1296.07 451.805,1296.07 455.163,1296.07 458.52,1296.07 461.877,1296.06 465.235,1296.06 468.592,1296.06 471.95,1296.06 
  475.307,1296.05 478.664,1296.05 482.022,1296.04 485.379,1296.04 488.737,1296.03 492.094,1296.03 495.451,1296.02 498.809,1296.01 502.166,1296 505.523,1295.98 
  508.881,1295.97 512.238,1295.95 515.596,1295.93 518.953,1295.9 522.31,1295.87 525.668,1295.83 529.025,1295.78 532.383,1295.73 535.74,1295.66 539.097,1295.57 
  542.455,1295.47 545.812,1295.35 549.169,1295.19 552.527,1295.01 555.884,1294.8 559.242,1294.55 562.599,1294.27 565.956,1293.97 569.314,1293.67 572.671,1293.37 
  576.028,1293.11 579.386,1292.9 582.743,1292.76 586.101,1292.67 589.458,1292.64 592.815,1292.65 596.173,1292.68 599.53,1292.73 602.888,1292.79 606.245,1292.85 
  609.602,1292.9 612.96,1292.94 616.317,1292.98 619.674,1293 623.032,1293 626.389,1292.99 629.747,1292.97 633.104,1292.94 636.461,1292.89 639.819,1292.82 
  643.176,1292.74 646.534,1292.64 649.891,1292.53 653.248,1292.39 656.606,1292.24 659.963,1292.06 663.32,1291.86 666.678,1291.63 670.035,1291.38 673.393,1291.1 
  676.75,1290.78 680.107,1290.42 683.465,1290.02 686.822,1289.57 690.18,1289.07 693.537,1288.52 696.894,1287.9 700.252,1287.22 703.609,1286.45 706.966,1285.61 
  710.324,1284.67 713.681,1283.64 717.039,1282.51 720.396,1281.26 723.753,1279.9 727.111,1278.43 730.468,1276.83 733.826,1275.12 737.183,1273.29 740.54,1271.35 
  743.898,1269.32 747.255,1267.19 750.612,1264.99 753.97,1262.73 757.327,1260.42 760.685,1258.09 764.042,1255.75 767.399,1253.4 770.757,1251.06 774.114,1248.73 
  777.472,1246.42 780.829,1244.12 784.186,1241.83 787.544,1239.54 790.901,1237.25 794.258,1234.93 797.616,1232.59 800.973,1230.21 804.331,1227.78 807.688,1225.28 
  811.045,1222.71 814.403,1220.07 817.76,1217.33 821.117,1214.5 824.475,1211.57 827.832,1208.55 831.19,1205.41 834.547,1202.18 837.904,1198.83 841.262,1195.39 
  844.619,1191.83 847.977,1188.17 851.334,1184.41 854.691,1180.54 858.049,1176.55 861.406,1172.46 864.763,1168.24 868.121,1163.91 871.478,1159.43 874.836,1154.82 
  878.193,1150.06 881.55,1145.13 884.908,1140.04 888.265,1134.75 891.623,1129.28 894.98,1123.6 898.337,1117.71 901.695,1111.6 905.052,1105.27 908.409,1098.71 
  911.767,1091.93 915.124,1084.93 918.482,1077.72 921.839,1070.3 925.196,1062.68 928.554,1054.88 931.911,1046.91 935.269,1038.78 938.626,1030.5 941.983,1022.09 
  945.341,1013.55 948.698,1004.91 952.055,996.154 955.413,987.302 958.77,978.355 962.128,969.318 965.485,960.195 968.842,950.989 972.2,941.707 975.557,932.355 
  978.915,922.944 982.272,913.485 985.629,903.993 988.987,894.484 992.344,884.976 995.701,875.489 999.059,866.04 1002.42,856.647 1005.77,847.325 1009.13,838.085 
  1012.49,828.938 1015.85,819.886 1019.2,810.934 1022.56,802.08 1025.92,793.322 1029.28,784.659 1032.63,776.089 1035.99,767.612 1039.35,759.23 1042.7,750.948 
  1046.06,742.773 1049.42,734.714 1052.78,726.779 1056.13,718.975 1059.49,711.307 1062.85,703.778 1066.21,696.386 1069.56,689.125 1072.92,681.988 1076.28,674.964 
  1079.64,668.046 1082.99,661.225 1086.35,654.498 1089.71,647.865 1093.07,641.332 1096.42,634.907 1099.78,628.603 1103.14,622.429 1106.5,616.398 1109.85,610.516 
  1113.21,604.787 1116.57,599.213 1119.92,593.795 1123.28,588.535 1126.64,583.438 1130,578.517 1133.35,573.792 1136.71,569.285 1140.07,565.025 1143.43,561.037 
  1146.78,557.346 1150.14,553.967 1153.5,550.911 1156.86,548.186 1160.21,545.8 1163.57,543.763 1166.93,542.093 1170.29,540.814 1173.64,539.948 1177,539.513 
  1180.36,539.517 1183.71,539.954 1187.07,540.806 1190.43,542.054 1193.79,543.682 1197.14,545.681 1200.5,548.044 1203.86,550.764 1207.22,553.816 1210.57,557.159 
  1213.93,560.741 1217.29,564.514 1220.65,568.449 1224,572.536 1227.36,576.768 1230.72,581.134 1234.08,585.605 1237.43,590.157 1240.79,594.797 1244.15,599.575 
  1247.51,604.56 1250.86,609.803 1254.22,615.326 1257.58,621.155 1260.93,627.354 1264.29,633.99 1267.65,641.064 1271.01,648.481 1274.36,656.134 1277.72,663.958 
  1281.08,671.858 1284.44,679.667 1287.79,687.31 1291.15,694.925 1294.51,702.687 1297.87,710.707 1301.22,719.176 1304.58,728.036 1307.94,736.849 1311.3,745.435 
  1314.65,753.847 1318.01,762.602 1321.37,771.821 1324.73,780.764 1328.08,789.465 1331.44,798.505 1334.8,807.611 1338.15,816.233 1341.51,825.141 1344.87,834.194 
  1348.23,842.758 1351.58,851.671 1354.94,860.6 1358.3,869.832 1361.66,880.006 1365.01,889.997 1368.37,898.886 1371.73,907.317 1375.09,916.549 1378.44,925.72 
  1381.8,934.366 1385.16,942.585 1388.52,951.144 1391.87,960.047 1395.23,968.906 1398.59,977.603 1401.94,985.829 1405.3,993.583 1408.66,1001.22 1412.02,1008.89 
  1415.37,1016.58 1418.73,1024.38 1422.09,1032.38 1425.45,1040.44 1428.8,1048.36 1432.16,1056.05 1435.52,1063.54 1438.88,1070.8 1442.23,1077.76 1445.59,1084.33 
  1448.95,1090.56 1452.31,1096.55 1455.66,1102.39 1459.02,1108.1 1462.38,1113.66 1465.74,1119.07 1469.09,1124.36 1472.45,1129.63 1475.81,1134.91 1479.16,1140.23 
  1482.52,1145.54 1485.88,1150.79 1489.24,1155.93 1492.59,1160.99 1495.95,1165.98 1499.31,1170.91 1502.67,1175.78 1506.02,1180.56 1509.38,1185.19 1512.74,1189.63 
  1516.1,1193.83 1519.45,1197.79 1522.81,1201.52 1526.17,1205.04 1529.53,1208.36 1532.88,1211.5 1536.24,1214.45 1539.6,1217.19 1542.95,1219.72 1546.31,1222 
  1549.67,1224.03 1553.03,1225.8 1556.38,1227.33 1559.74,1228.61 1563.1,1229.69 1566.46,1230.58 1569.81,1231.31 1573.17,1231.91 1576.53,1232.39 1579.89,1232.77 
  1583.24,1233.06 1586.6,1233.25 1589.96,1233.33 1593.32,1233.31 1596.67,1233.17 1600.03,1232.91 1603.39,1232.52 1606.75,1231.99 1610.1,1231.33 1613.46,1230.54 
  1616.82,1229.63 1620.17,1228.6 1623.53,1227.48 1626.89,1226.26 1630.25,1224.95 1633.6,1223.58 1636.96,1222.13 1640.32,1220.62 1643.68,1219.03 1647.03,1217.37 
  1650.39,1215.63 1653.75,1213.8 1657.11,1211.85 1660.46,1209.79 1663.82,1207.6 1667.18,1205.27 1670.54,1202.78 1673.89,1200.12 1677.25,1197.3 1680.61,1194.32 
  1683.97,1191.16 1687.32,1187.84 1690.68,1184.37 1694.04,1180.74 1697.39,1176.99 1700.75,1173.11 1704.11,1169.13 1707.47,1165.05 1710.82,1160.89 1714.18,1156.66 
  1717.54,1152.38 1720.9,1148.04 1724.25,1143.65 1727.61,1139.23 1730.97,1134.76 1734.33,1130.25 1737.68,1125.71 1741.04,1121.13 1744.4,1116.52 1747.76,1111.88 
  1751.11,1107.23 1754.47,1102.57 1757.83,1097.91 1761.18,1093.28 1764.54,1088.68 1767.9,1084.14 1771.26,1079.68 1774.61,1075.33 1777.97,1071.09 1781.33,1066.99 
  1784.69,1063.04 1788.04,1059.27 1791.4,1055.68 1794.76,1052.28 1798.12,1049.07 1801.47,1046.06 1804.83,1043.25 1808.19,1040.64 1811.55,1038.22 1814.9,1036 
  1818.26,1033.98 1821.62,1032.15 1824.98,1030.51 1828.33,1029.07 1831.69,1027.83 1835.05,1026.8 1838.4,1025.99 1841.76,1025.39 1845.12,1025.02 1848.48,1024.89 
  1851.83,1025 1855.19,1025.36 1858.55,1025.97 1861.91,1026.83 1865.26,1027.95 1868.62,1029.31 1871.98,1030.91 1875.34,1032.74 1878.69,1034.79 1882.05,1037.05 
  1885.41,1039.5 1888.77,1042.13 1892.12,1044.92 1895.48,1047.87 1898.84,1050.96 1902.2,1054.17 1905.55,1057.5 1908.91,1060.94 1912.27,1064.48 1915.62,1068.13 
  1918.98,1071.86 1922.34,1075.69 1925.7,1079.61 1929.05,1083.62 1932.41,1087.71 1935.77,1091.89 1939.13,1096.16 1942.48,1100.5 1945.84,1104.91 1949.2,1109.39 
  1952.56,1113.93 1955.91,1118.52 1959.27,1123.14 1962.63,1127.79 1965.99,1132.45 1969.34,1137.12 1972.7,1141.77 1976.06,1146.4 1979.41,1150.99 1982.77,1155.54 
  1986.13,1160.03 1989.49,1164.45 1992.84,1168.81 1996.2,1173.09 1999.56,1177.3 2002.92,1181.43 2006.27,1185.49 2009.63,1189.47 2012.99,1193.37 2016.35,1197.21 
  2019.7,1200.98 2023.06,1204.69 2026.42,1208.34 2029.78,1211.94 2033.13,1215.47 2036.49,1218.96 2039.85,1222.39 2043.21,1225.77 2046.56,1229.09 2049.92,1232.34 
  2053.28,1235.53 2056.63,1238.64 2059.99,1241.67 2063.35,1244.62 2066.71,1247.47 2070.06,1250.22 2073.42,1252.87 2076.78,1255.4 2080.14,1257.82 2083.49,1260.12 
  2086.85,1262.3 2090.21,1264.36 2093.57,1266.3 2096.92,1268.13 2100.28,1269.85 2103.64,1271.45 2107,1272.95 2110.35,1274.35 2113.71,1275.66 2117.07,1276.87 
  2120.42,1278.01 2123.78,1279.07 2127.14,1280.05 2130.5,1280.97 2133.85,1281.83 2137.21,1282.64 2140.57,1283.4 2143.93,1284.11 2147.28,1284.78 2150.64,1285.43 
  2154,1286.04 2157.36,1286.62 2160.71,1287.18 2164.07,1287.72 2167.43,1288.25 2170.79,1288.76 2174.14,1289.25 2177.5,1289.73 2180.86,1290.2 2184.22,1290.65 
  2187.57,1291.09 2190.93,1291.51 2194.29,1291.92 2197.64,1292.3 2201,1292.66 2204.36,1293 2207.72,1293.31 2211.07,1293.61 2214.43,1293.87 2217.79,1294.12 
  2221.15,1294.34 2224.5,1294.54 2227.86,1294.72 2231.22,1294.88 2234.58,1295.02 2237.93,1295.14 2241.29,1295.26 2244.65,1295.35 2248.01,1295.44 2251.36,1295.52 
  2254.72,1295.58 2258.08,1295.64 2261.44,1295.69 2264.79,1295.74 2268.15,1295.78 2271.51,1295.81 2274.86,1295.84 2278.22,1295.87 2281.58,1295.89 2284.94,1295.91 
  2288.29,1295.93 2291.65,1295.95 2295.01,1295.96 2298.37,1295.97 2301.72,1295.99 2305.08,1296 2308.44,1296 2311.8,1296.01 2315.15,1296.02 2318.51,1296.03 
  2321.87,1296.03 2325.23,1296.04 2328.58,1296.04 2331.94,1296.04 2335.3,1296.05 2338.65,1296.05 2342.01,1296.05 2345.37,1296.06 2348.73,1296.06 2352.08,1296.06 
  2355.44,1296.06 2358.8,1296.06 2362.16,1296.07 2365.51,1296.07 2368.87,1296.07 2372.23,1296.07 2375.59,1296.07 2378.94,1296.07 2382.3,1296.07 2385.66,1296.07 
  2389.02,1296.07 2392.37,1296.08 2395.73,1296.08 2399.09,1296.08 2402.45,1296.08 2405.8,1296.08 2409.16,1296.08 2412.52,1296.08 2415.87,1296.08 2419.23,1296.08 
  2422.59,1296.08 2425.95,1296.08 2429.3,1296.08 2432.66,1296.08 2436.02,1296.08 2439.38,1296.08 2442.73,1296.08 2446.09,1296.08 2449.45,1296.08 2452.81,1296.08 
  2456.16,1296.08 2459.52,1296.08 2462.88,1296.08 2466.24,1296.08 2469.59,1296.08 2472.95,1296.08 2476.31,1296.08 2479.67,1296.08 2483.02,1296.08 2486.38,1296.08 
  2489.74,1296.08 2493.09,1296.08 2496.45,1296.08 2499.81,1296.08 2503.17,1296.08 2506.52,1296.08 2509.88,1296.08 2513.24,1296.08 2516.6,1296.08 2519.95,1296.08 
  2523.31,1296.08 2526.67,1296.08 2530.03,1296.08 2533.38,1296.08 2536.74,1296.08 2540.1,1296.08 2543.46,1296.08 2546.81,1296.08 2550.17,1296.08 2553.53,1296.08 
  2556.88,1296.08 2560.24,1296.08 2563.6,1296.08 2566.96,1296.08 2570.31,1296.08 2573.67,1296.08 2577.03,1296.08 2580.39,1296.08 2583.74,1296.08 2587.1,1296.08 
  2590.46,1296.08 2593.82,1296.08 2597.17,1296.08 2600.53,1296.08 2603.89,1296.08 2607.25,1296.08 2610.6,1296.08 2613.96,1296.08 2617.32,1296.08 2620.68,1296.08 
  2624.03,1296.08 2627.39,1296.08 2630.75,1296.08 2634.1,1296.08 2637.46,1296.08 2640.82,1296.08 2644.18,1296.08 2647.53,1296.09 2650.89,1296.09 2654.25,1296.09 
  2657.61,1296.09 2660.96,1296.09 2664.32,1296.09 2667.68,1296.09 2671.04,1296.09 2674.39,1296.09 2677.75,1296.09 2681.11,1296.09 2684.47,1296.09 2687.82,1296.09 
  2691.18,1296.09 2694.54,1296.09 2697.89,1296.09 2701.25,1296.09 2704.61,1296.09 2707.97,1296.09 2711.32,1296.09 2714.68,1296.09 2718.04,1296.09 2721.4,1296.09 
  2724.75,1296.09 2728.11,1296.09 2731.47,1296.09 2734.83,1296.09 2738.18,1296.09 2741.54,1296.09 2744.9,1296.09 2748.26,1296.09 2751.61,1296.09 2754.97,1296.09 
  2758.33,1296.09 2761.69,1296.09 2765.04,1296.09 2768.4,1296.09 2771.76,1296.09 2775.11,1296.09 2778.47,1296.09 2781.83,1296.09 2785.19,1296.09 2788.54,1296.09 
  2791.9,1296.09 2795.26,1296.09 2798.62,1296.09 2801.97,1296.09 2805.33,1296.09 2808.69,1296.09 2812.05,1296.09 2815.4,1296.09 2818.76,1296.09 2822.12,1296.09 
  2825.48,1296.09 2828.83,1296.09 2832.19,1296.09 2835.55,1296.09 2838.91,1296.09 2842.26,1296.09 2845.62,1296.09 2848.98,1296.09 2852.33,1296.09 2855.69,1296.09 
  2859.05,1296.09 2862.41,1296.09 2865.76,1296.09 2869.12,1296.09 2872.48,1296.09 2875.84,1296.09 2879.19,1296.09 2882.55,1296.09 2885.91,1296.09 2889.27,1296.09 
  2892.62,1296.09 2895.98,1296.09 2899.34,1296.09 2902.7,1296.09 2906.05,1296.09 2909.41,1296.09 2912.77,1296.09 2916.12,1296.09 2919.48,1296.09 2922.84,1296.09 
  2926.2,1296.09 2929.55,1296.09 2932.91,1296.09 2936.27,1296.09 2939.63,1296.09 2942.98,1296.09 2946.34,1296.09 2949.7,1296.09 2953.06,1296.09 2956.41,1296.09 
  2959.77,1296.09 2963.13,1296.09 2966.49,1296.09 2969.84,1296.09 2973.2,1296.09 2976.56,1296.09 2979.92,1296.09 2983.27,1296.09 2986.63,1296.09 2989.99,1296.09 
  2993.34,1296.09 2996.7,1296.09 3000.06,1296.09 3003.42,1296.09 3006.77,1296.09 3010.13,1296.09 3013.49,1296.09 3016.85,1296.09 3020.2,1296.09 3023.56,1296.09 
  
  "/>
<polyline clip-path="url(#clip952)" style="stroke:#000000; stroke-linecap:round; stroke-linejoin:round; stroke-width:6; stroke-opacity:1; fill:none" stroke-dasharray="24, 15" points="
  508.041,1295.83 509.72,1295.82 511.399,1295.81 513.078,1295.8 514.756,1295.79 516.435,1295.78 518.114,1295.77 519.792,1295.75 521.471,1295.74 523.15,1295.73 
  524.828,1295.71 526.507,1295.7 528.186,1295.68 529.864,1295.67 531.543,1295.65 533.222,1295.63 534.901,1295.61 536.579,1295.6 538.258,1295.58 539.937,1295.56 
  541.615,1295.54 543.294,1295.51 544.973,1295.49 546.651,1295.47 548.33,1295.45 550.009,1295.42 551.687,1295.4 553.366,1295.37 555.045,1295.34 556.724,1295.31 
  558.402,1295.28 560.081,1295.25 561.76,1295.22 563.438,1295.19 565.117,1295.16 566.796,1295.12 568.474,1295.09 570.153,1295.05 571.832,1295.01 573.51,1294.97 
  575.189,1294.93 576.868,1294.89 578.547,1294.84 580.225,1294.8 581.904,1294.75 583.583,1294.7 585.261,1294.65 586.94,1294.6 588.619,1294.55 590.297,1294.49 
  591.976,1294.44 593.655,1294.38 595.333,1294.32 597.012,1294.26 598.691,1294.19 600.37,1294.12 602.048,1294.06 603.727,1293.98 605.406,1293.91 607.084,1293.84 
  608.763,1293.76 610.442,1293.68 612.12,1293.59 613.799,1293.51 615.478,1293.42 617.156,1293.33 618.835,1293.24 620.514,1293.14 622.193,1293.04 623.871,1292.94 
  625.55,1292.83 627.229,1292.72 628.907,1292.61 630.586,1292.49 632.265,1292.37 633.943,1292.25 635.622,1292.12 637.301,1291.99 638.979,1291.86 640.658,1291.72 
  642.337,1291.58 644.016,1291.43 645.694,1291.28 647.373,1291.13 649.052,1290.97 650.73,1290.8 652.409,1290.63 654.088,1290.46 655.766,1290.28 657.445,1290.1 
  659.124,1289.91 660.802,1289.71 662.481,1289.51 664.16,1289.31 665.839,1289.1 667.517,1288.88 669.196,1288.66 670.875,1288.43 672.553,1288.19 674.232,1287.95 
  675.911,1287.7 677.589,1287.45 679.268,1287.19 680.947,1286.92 682.625,1286.64 684.304,1286.36 685.983,1286.07 687.661,1285.77 689.34,1285.46 691.019,1285.15 
  692.698,1284.82 694.376,1284.49 696.055,1284.15 697.734,1283.8 699.412,1283.45 701.091,1283.08 702.77,1282.7 704.448,1282.32 706.127,1281.93 707.806,1281.52 
  709.484,1281.11 711.163,1280.68 712.842,1280.25 714.521,1279.8 716.199,1279.34 717.878,1278.88 719.557,1278.4 721.235,1277.91 722.914,1277.4 724.593,1276.89 
  726.271,1276.36 727.95,1275.82 729.629,1275.27 731.307,1274.71 732.986,1274.13 734.665,1273.54 736.344,1272.93 738.022,1272.31 739.701,1271.68 741.38,1271.03 
  743.058,1270.37 744.737,1269.7 746.416,1269.01 748.094,1268.3 749.773,1267.58 751.452,1266.84 753.13,1266.08 754.809,1265.31 756.488,1264.53 758.167,1263.72 
  759.845,1262.9 761.524,1262.06 763.203,1261.2 764.881,1260.33 766.56,1259.44 768.239,1258.53 769.917,1257.6 771.596,1256.65 773.275,1255.68 774.953,1254.69 
  776.632,1253.68 778.311,1252.65 779.99,1251.61 781.668,1250.54 783.347,1249.45 785.026,1248.33 786.704,1247.2 788.383,1246.05 790.062,1244.87 791.74,1243.67 
  793.419,1242.45 795.098,1241.2 796.776,1239.93 798.455,1238.64 800.134,1237.32 801.813,1235.98 803.491,1234.62 805.17,1233.23 806.849,1231.81 808.527,1230.37 
  810.206,1228.91 811.885,1227.42 813.563,1225.9 815.242,1224.36 816.921,1222.79 818.599,1221.19 820.278,1219.57 821.957,1217.91 823.636,1216.23 825.314,1214.53 
  826.993,1212.79 828.672,1211.03 830.35,1209.24 832.029,1207.42 833.708,1205.57 835.386,1203.69 837.065,1201.78 838.744,1199.84 840.422,1197.87 842.101,1195.87 
  843.78,1193.84 845.459,1191.78 847.137,1189.69 848.816,1187.57 850.495,1185.41 852.173,1183.23 853.852,1181.01 855.531,1178.76 857.209,1176.48 858.888,1174.17 
  860.567,1171.83 862.245,1169.45 863.924,1167.04 865.603,1164.6 867.282,1162.12 868.96,1159.61 870.639,1157.07 872.318,1154.5 873.996,1151.89 875.675,1149.25 
  877.354,1146.58 879.032,1143.87 880.711,1141.13 882.39,1138.36 884.068,1135.55 885.747,1132.71 887.426,1129.83 889.105,1126.92 890.783,1123.98 892.462,1121 
  894.141,1117.99 895.819,1114.95 897.498,1111.87 899.177,1108.76 900.855,1105.62 902.534,1102.44 904.213,1099.23 905.891,1095.99 907.57,1092.71 909.249,1089.4 
  910.928,1086.06 912.606,1082.69 914.285,1079.28 915.964,1075.84 917.642,1072.37 919.321,1068.86 921,1065.33 922.678,1061.76 924.357,1058.16 926.036,1054.53 
  927.714,1050.87 929.393,1047.18 931.072,1043.46 932.75,1039.71 934.429,1035.93 936.108,1032.12 937.787,1028.28 939.465,1024.41 941.144,1020.51 942.823,1016.59 
  944.501,1012.64 946.18,1008.66 947.859,1004.66 949.537,1000.62 951.216,996.567 952.895,992.485 954.573,988.378 956.252,984.247 957.931,980.091 959.61,975.913 
  961.288,971.712 962.967,967.489 964.646,963.244 966.324,958.978 968.003,954.691 969.682,950.385 971.36,946.059 973.039,941.715 974.718,937.353 976.396,932.973 
  978.075,928.577 979.754,924.165 981.433,919.738 983.111,915.296 984.79,910.84 986.469,906.371 988.147,901.89 989.826,897.398 991.505,892.894 993.183,888.381 
  994.862,883.858 996.541,879.327 998.219,874.788 999.898,870.243 1001.58,865.691 1003.26,861.135 1004.93,856.574 1006.61,852.01 1008.29,847.444 1009.97,842.876 
  1011.65,838.307 1013.33,833.739 1015.01,829.172 1016.69,824.607 1018.36,820.045 1020.04,815.487 1021.72,810.934 1023.4,806.387 1025.08,801.847 1026.76,797.315 
  1028.44,792.791 1030.11,788.278 1031.79,783.775 1033.47,779.284 1035.15,774.807 1036.83,770.343 1038.51,765.893 1040.19,761.46 1041.87,757.044 1043.54,752.646 
  1045.22,748.267 1046.9,743.907 1048.58,739.569 1050.26,735.253 1051.94,730.96 1053.62,726.692 1055.3,722.448 1056.97,718.231 1058.65,714.042 1060.33,709.88 
  1062.01,705.748 1063.69,701.646 1065.37,697.576 1067.05,693.539 1068.72,689.535 1070.4,685.565 1072.08,681.631 1073.76,677.734 1075.44,673.874 1077.12,670.053 
  1078.8,666.272 1080.48,662.531 1082.15,658.832 1083.83,655.176 1085.51,651.563 1087.19,647.995 1088.87,644.472 1090.55,640.996 1092.23,637.567 1093.9,634.186 
  1095.58,630.855 1097.26,627.574 1098.94,624.345 1100.62,621.167 1102.3,618.042 1103.98,614.971 1105.66,611.955 1107.33,608.994 1109.01,606.089 1110.69,603.242 
  1112.37,600.452 1114.05,597.721 1115.73,595.05 1117.41,592.439 1119.09,589.889 1120.76,587.401 1122.44,584.976 1124.12,582.613 1125.8,580.315 1127.48,578.081 
  1129.16,575.912 1130.84,573.809 1132.51,571.773 1134.19,569.803 1135.87,567.901 1137.55,566.067 1139.23,564.302 1140.91,562.607 1142.59,560.981 1144.27,559.425 
  1145.94,557.94 1147.62,556.526 1149.3,555.183 1150.98,553.913 1152.66,552.714 1154.34,551.589 1156.02,550.536 1157.7,549.557 1159.37,548.651 1161.05,547.819 
  1162.73,547.062 1164.41,546.379 1166.09,545.77 1167.77,545.236 1169.45,544.777 1171.12,544.393 1172.8,544.084 1174.48,543.85 1176.16,543.692 1177.84,543.609 
  1179.52,543.601 1181.2,543.669 1182.88,543.812 1184.55,544.031 1186.23,544.325 1187.91,544.694 1189.59,545.138 1191.27,545.657 1192.95,546.251 1194.63,546.919 
  1196.31,547.662 1197.98,548.479 1199.66,549.37 1201.34,550.334 1203.02,551.372 1204.7,552.483 1206.38,553.667 1208.06,554.923 1209.73,556.251 1211.41,557.651 
  1213.09,559.122 1214.77,560.664 1216.45,562.276 1218.13,563.958 1219.81,565.709 1221.49,567.529 1223.16,569.417 1224.84,571.373 1226.52,573.396 1228.2,575.486 
  1229.88,577.642 1231.56,579.863 1233.24,582.148 1234.92,584.498 1236.59,586.911 1238.27,589.387 1239.95,591.924 1241.63,594.523 1243.31,597.182 1244.99,599.901 
  1246.67,602.679 1248.34,605.514 1250.02,608.408 1251.7,611.357 1253.38,614.363 1255.06,617.423 1256.74,620.537 1258.42,623.704 1260.1,626.923 1261.77,630.194 
  1263.45,633.515 1265.13,636.886 1266.81,640.305 1268.49,643.772 1270.17,647.285 1271.85,650.844 1273.52,654.448 1275.2,658.096 1276.88,661.786 1278.56,665.519 
  1280.24,669.292 1281.92,673.105 1283.6,676.957 1285.28,680.846 1286.95,684.773 1288.63,688.735 1290.31,692.732 1291.99,696.763 1293.67,700.826 1295.35,704.921 
  1297.03,709.047 1298.71,713.203 1300.38,717.386 1302.06,721.598 1303.74,725.836 1305.42,730.099 1307.1,734.387 1308.78,738.698 1310.46,743.031 1312.13,747.386 
  1313.81,751.76 1315.49,756.154 1317.17,760.567 1318.85,764.996 1320.53,769.441 1322.21,773.901 1323.89,778.376 1325.56,782.863 1327.24,787.363 1328.92,791.873 
  1330.6,796.394 1332.28,800.923 1333.96,805.461 1335.64,810.005 1337.32,814.556 1338.99,819.112 1340.67,823.672 1342.35,828.235 1344.03,832.8 1345.71,837.367 
  1347.39,841.933 1349.07,846.5 1350.74,851.065 1352.42,855.627 1354.1,860.187 1355.78,864.742 1357.46,869.292 1359.14,873.836 1360.82,878.373 1362.5,882.903 
  1364.17,887.425 1365.85,891.937 1367.53,896.439 1369.21,900.931 1370.89,905.411 1372.57,909.878 1374.25,914.332 1375.93,918.772 1377.6,923.198 1379.28,927.608 
  1380.96,932.003 1382.64,936.38 1384.32,940.74 1386,945.082 1387.68,949.405 1389.35,953.708 1391.03,957.992 1392.71,962.254 1394.39,966.496 1396.07,970.715 
  1397.75,974.912 1399.43,979.086 1401.11,983.236 1402.78,987.362 1404.46,991.463 1406.14,995.539 1407.82,999.589 1409.5,1003.61 1411.18,1007.61 1412.86,1011.58 
  1414.54,1015.52 1416.21,1019.44 1417.89,1023.32 1419.57,1027.18 1421.25,1031.01 1422.93,1034.8 1424.61,1038.57 1426.29,1042.31 1427.96,1046.01 1429.64,1049.69 
  1431.32,1053.33 1433,1056.94 1434.68,1060.52 1436.36,1064.07 1438.04,1067.58 1439.72,1071.06 1441.39,1074.51 1443.07,1077.93 1444.75,1081.31 1446.43,1084.65 
  1448.11,1087.96 1449.79,1091.24 1451.47,1094.48 1453.14,1097.69 1454.82,1100.86 1456.5,1104 1458.18,1107.1 1459.86,1110.17 1461.54,1113.2 1463.22,1116.2 
  1464.9,1119.16 1466.57,1122.08 1468.25,1124.97 1469.93,1127.82 1471.61,1130.63 1473.29,1133.41 1474.97,1136.15 1476.65,1138.85 1478.33,1141.52 1480,1144.15 
  1481.68,1146.74 1483.36,1149.3 1485.04,1151.82 1486.72,1154.3 1488.4,1156.75 1490.08,1159.16 1491.75,1161.53 1493.43,1163.86 1495.11,1166.16 1496.79,1168.42 
  1498.47,1170.64 1500.15,1172.83 1501.83,1174.98 1503.51,1177.09 1505.18,1179.16 1506.86,1181.2 1508.54,1183.19 1510.22,1185.16 1511.9,1187.08 1513.58,1188.97 
  1515.26,1190.82 1516.94,1192.63 1518.61,1194.4 1520.29,1196.14 1521.97,1197.84 1523.65,1199.51 1525.33,1201.13 1527.01,1202.72 1528.69,1204.27 1530.36,1205.79 
  1532.04,1207.27 1533.72,1208.71 1535.4,1210.11 1537.08,1211.48 1538.76,1212.81 1540.44,1214.1 1542.12,1215.35 1543.79,1216.57 1545.47,1217.75 1547.15,1218.9 
  1548.83,1220 1550.51,1221.07 1552.19,1222.11 1553.87,1223.1 1555.55,1224.06 1557.22,1224.98 1558.9,1225.87 1560.58,1226.71 1562.26,1227.53 1563.94,1228.3 
  1565.62,1229.03 1567.3,1229.73 1568.97,1230.4 1570.65,1231.02 1572.33,1231.61 1574.01,1232.16 1575.69,1232.67 1577.37,1233.15 1579.05,1233.59 1580.73,1233.99 
  1582.4,1234.36 1584.08,1234.69 1585.76,1234.98 1587.44,1235.23 1589.12,1235.45 1590.8,1235.62 1592.48,1235.77 1594.16,1235.87 1595.83,1235.94 1597.51,1235.97 
  1599.19,1235.96 1600.87,1235.92 1602.55,1235.83 1604.23,1235.72 1605.91,1235.56 1607.58,1235.37 1609.26,1235.14 1610.94,1234.87 1612.62,1234.56 1614.3,1234.22 
  1615.98,1233.84 1617.66,1233.42 1619.34,1232.97 1621.01,1232.48 1622.69,1231.95 1624.37,1231.39 1626.05,1230.79 1627.73,1230.15 1629.41,1229.48 1631.09,1228.77 
  1632.76,1228.02 1634.44,1227.23 1636.12,1226.41 1637.8,1225.56 1639.48,1224.67 1641.16,1223.74 1642.84,1222.78 1644.52,1221.78 1646.19,1220.74 1647.87,1219.68 
  1649.55,1218.57 1651.23,1217.43 1652.91,1216.26 1654.59,1215.06 1656.27,1213.82 1657.95,1212.54 1659.62,1211.23 1661.3,1209.89 1662.98,1208.52 1664.66,1207.12 
  1666.34,1205.68 1668.02,1204.21 1669.7,1202.71 1671.37,1201.18 1673.05,1199.62 1674.73,1198.03 1676.41,1196.41 1678.09,1194.76 1679.77,1193.08 1681.45,1191.38 
  1683.13,1189.64 1684.8,1187.88 1686.48,1186.09 1688.16,1184.28 1689.84,1182.44 1691.52,1180.58 1693.2,1178.7 1694.88,1176.79 1696.56,1174.86 1698.23,1172.9 
  1699.91,1170.93 1701.59,1168.93 1703.27,1166.91 1704.95,1164.88 1706.63,1162.83 1708.31,1160.76 1709.98,1158.67 1711.66,1156.57 1713.34,1154.45 1715.02,1152.32 
  1716.7,1150.17 1718.38,1148.02 1720.06,1145.85 1721.74,1143.67 1723.41,1141.48 1725.09,1139.29 1726.77,1137.08 1728.45,1134.87 1730.13,1132.66 1731.81,1130.43 
  1733.49,1128.21 1735.17,1125.98 1736.84,1123.76 1738.52,1121.53 1740.2,1119.3 1741.88,1117.07 1743.56,1114.85 1745.24,1112.63 1746.92,1110.42 1748.59,1108.21 
  1750.27,1106.01 1751.95,1103.82 1753.63,1101.63 1755.31,1099.46 1756.99,1097.3 1758.67,1095.16 1760.35,1093.02 1762.02,1090.91 1763.7,1088.81 1765.38,1086.72 
  1767.06,1084.66 1768.74,1082.61 1770.42,1080.59 1772.1,1078.59 1773.78,1076.61 1775.45,1074.66 1777.13,1072.73 1778.81,1070.83 1780.49,1068.95 1782.17,1067.11 
  1783.85,1065.29 1785.53,1063.51 1787.2,1061.75 1788.88,1060.03 1790.56,1058.35 1792.24,1056.7 1793.92,1055.08 1795.6,1053.5 1797.28,1051.96 1798.96,1050.46 
  1800.63,1049 1802.31,1047.58 1803.99,1046.2 1805.67,1044.86 1807.35,1043.56 1809.03,1042.31 1810.71,1041.11 1812.39,1039.95 1814.06,1038.83 1815.74,1037.77 
  1817.42,1036.75 1819.1,1035.77 1820.78,1034.85 1822.46,1033.98 1824.14,1033.16 1825.81,1032.38 1827.49,1031.66 1829.17,1030.99 1830.85,1030.37 1832.53,1029.81 
  1834.21,1029.29 1835.89,1028.83 1837.57,1028.42 1839.24,1028.07 1840.92,1027.77 1842.6,1027.53 1844.28,1027.33 1845.96,1027.2 1847.64,1027.11 1849.32,1027.09 
  1850.99,1027.11 1852.67,1027.19 1854.35,1027.33 1856.03,1027.52 1857.71,1027.76 1859.39,1028.06 1861.07,1028.42 1862.75,1028.82 1864.42,1029.28 1866.1,1029.8 
  1867.78,1030.36 1869.46,1030.98 1871.14,1031.65 1872.82,1032.38 1874.5,1033.15 1876.18,1033.98 1877.85,1034.86 1879.53,1035.78 1881.21,1036.76 1882.89,1037.79 
  1884.57,1038.86 1886.25,1039.98 1887.93,1041.15 1889.6,1042.37 1891.28,1043.63 1892.96,1044.93 1894.64,1046.29 1896.32,1047.68 1898,1049.12 1899.68,1050.59 
  1901.36,1052.11 1903.03,1053.67 1904.71,1055.27 1906.39,1056.91 1908.07,1058.58 1909.75,1060.29 1911.43,1062.04 1913.11,1063.82 1914.79,1065.63 1916.46,1067.48 
  1918.14,1069.35 1919.82,1071.26 1921.5,1073.2 1923.18,1075.17 1924.86,1077.16 1926.54,1079.18 1928.21,1081.23 1929.89,1083.3 1931.57,1085.39 1933.25,1087.5 
  1934.93,1089.64 1936.61,1091.79 1938.29,1093.97 1939.97,1096.16 1941.64,1098.37 1943.32,1100.59 1945,1102.83 1946.68,1105.08 1948.36,1107.35 1950.04,1109.62 
  1951.72,1111.91 1953.4,1114.2 1955.07,1116.51 1956.75,1118.82 1958.43,1121.13 1960.11,1123.45 1961.79,1125.78 1963.47,1128.11 1965.15,1130.44 1966.82,1132.77 
  1968.5,1135.1 1970.18,1137.43 1971.86,1139.76 1973.54,1142.09 1975.22,1144.41 1976.9,1146.73 1978.58,1149.04 1980.25,1151.34 1981.93,1153.64 1983.61,1155.94 
  1985.29,1158.22 1986.97,1160.49 1988.65,1162.75 1990.33,1165.01 1992.01,1167.25 1993.68,1169.48 1995.36,1171.69 1997.04,1173.89 1998.72,1176.08 2000.4,1178.25 
  2002.08,1180.41 2003.76,1182.55 2005.43,1184.67 2007.11,1186.77 2008.79,1188.86 2010.47,1190.93 2012.15,1192.98 2013.83,1195.01 2015.51,1197.03 2017.19,1199.02 
  2018.86,1200.99 2020.54,1202.94 2022.22,1204.87 2023.9,1206.77 2025.58,1208.66 2027.26,1210.52 2028.94,1212.36 2030.61,1214.18 2032.29,1215.97 2033.97,1217.74 
  2035.65,1219.49 2037.33,1221.21 2039.01,1222.91 2040.69,1224.59 2042.37,1226.24 2044.04,1227.87 2045.72,1229.47 2047.4,1231.05 2049.08,1232.6 2050.76,1234.13 
  2052.44,1235.64 2054.12,1237.12 2055.8,1238.58 2057.47,1240.01 2059.15,1241.42 2060.83,1242.8 2062.51,1244.16 2064.19,1245.49 2065.87,1246.8 2067.55,1248.09 
  2069.22,1249.35 2070.9,1250.59 2072.58,1251.8 2074.26,1252.99 2075.94,1254.16 2077.62,1255.31 2079.3,1256.43 2080.98,1257.52 2082.65,1258.6 2084.33,1259.65 
  2086.01,1260.68 2087.69,1261.69 2089.37,1262.68 2091.05,1263.64 2092.73,1264.59 2094.41,1265.51 2096.08,1266.41 2097.76,1267.29 2099.44,1268.15 2101.12,1268.99 
  2102.8,1269.81 2104.48,1270.61 2106.16,1271.39 2107.83,1272.15 2109.51,1272.9 2111.19,1273.62 2112.87,1274.33 2114.55,1275.02 2116.23,1275.69 2117.91,1276.34 
  2119.59,1276.98 2121.26,1277.6 2122.94,1278.2 2124.62,1278.79 2126.3,1279.36 2127.98,1279.92 2129.66,1280.46 2131.34,1280.98 2133.02,1281.49 2134.69,1281.99 
  2136.37,1282.47 2138.05,1282.94 2139.73,1283.4 2141.41,1283.84 2143.09,1284.27 2144.77,1284.68 2146.44,1285.09 2148.12,1285.48 2149.8,1285.86 2151.48,1286.23 
  2153.16,1286.58 2154.84,1286.93 2156.52,1287.27 2158.2,1287.59 2159.87,1287.9 2161.55,1288.21 2163.23,1288.5 2164.91,1288.79 2166.59,1289.06 2168.27,1289.33 
  2169.95,1289.59 2171.63,1289.84 2173.3,1290.08 2174.98,1290.31 2176.66,1290.54 2178.34,1290.75 2180.02,1290.96 2181.7,1291.17 2183.38,1291.36 2185.05,1291.55 
  
  "/>
<path clip-path="url(#clip950)" d="
M1427.2 608.485 L2285.68 608.485 L2285.68 90.0846 L1427.2 90.0846  Z
  " fill="#ffffff" fill-rule="evenodd" fill-opacity="1"/>
<polyline clip-path="url(#clip950)" style="stroke:#000000; stroke-linecap:round; stroke-linejoin:round; stroke-width:4; stroke-opacity:1; fill:none" points="
  1427.2,608.485 2285.68,608.485 2285.68,90.0846 1427.2,90.0846 1427.2,608.485 
  "/>
<polyline clip-path="url(#clip950)" style="stroke:#009af9; stroke-linecap:round; stroke-linejoin:round; stroke-width:30; stroke-opacity:1; fill:none" points="
  1449.56,219.685 1583.72,219.685 
  "/>
<path clip-path="url(#clip950)" d="M1606.08 176.485 L1661.64 176.485 L1661.64 181.461 L1630.27 262.885 L1618.06 262.885 L1647.58 186.323 L1606.08 186.323 L1606.08 176.485 Z" fill="#000000" fill-rule="evenodd" fill-opacity="1" /><path clip-path="url(#clip950)" d="M1771.07 210.512 Q1775.07 203.336 1780.62 199.922 Q1786.18 196.508 1793.7 196.508 Q1803.83 196.508 1809.32 203.626 Q1814.82 210.686 1814.82 223.764 L1814.82 262.885 L1804.12 262.885 L1804.12 224.112 Q1804.12 214.795 1800.82 210.281 Q1797.52 205.767 1790.75 205.767 Q1782.47 205.767 1777.67 211.265 Q1772.87 216.762 1772.87 226.253 L1772.87 262.885 L1762.16 262.885 L1762.16 224.112 Q1762.16 214.737 1758.86 210.281 Q1755.56 205.767 1748.68 205.767 Q1740.52 205.767 1735.71 211.322 Q1730.91 216.82 1730.91 226.253 L1730.91 262.885 L1720.2 262.885 L1720.2 198.07 L1730.91 198.07 L1730.91 208.14 Q1734.56 202.179 1739.65 199.343 Q1744.74 196.508 1751.74 196.508 Q1758.8 196.508 1763.72 200.096 Q1768.7 203.684 1771.07 210.512 Z" fill="#000000" fill-rule="evenodd" fill-opacity="1" /><path clip-path="url(#clip950)" d="M1861.18 205.535 Q1852.61 205.535 1847.63 212.248 Q1842.66 218.903 1842.66 230.535 Q1842.66 242.167 1847.58 248.88 Q1852.55 255.535 1861.18 255.535 Q1869.68 255.535 1874.66 248.822 Q1879.64 242.109 1879.64 230.535 Q1879.64 219.019 1874.66 212.306 Q1869.68 205.535 1861.18 205.535 M1861.18 196.508 Q1875.06 196.508 1882.99 205.535 Q1890.92 214.563 1890.92 230.535 Q1890.92 246.45 1882.99 255.535 Q1875.06 264.563 1861.18 264.563 Q1847.23 264.563 1839.3 255.535 Q1831.43 246.45 1831.43 230.535 Q1831.43 214.563 1839.3 205.535 Q1847.23 196.508 1861.18 196.508 Z" fill="#000000" fill-rule="evenodd" fill-opacity="1" /><path clip-path="url(#clip950)" d="M1959.03 210.512 Q1963.03 203.336 1968.58 199.922 Q1974.14 196.508 1981.66 196.508 Q1991.79 196.508 1997.29 203.626 Q2002.78 210.686 2002.78 223.764 L2002.78 262.885 L1992.08 262.885 L1992.08 224.112 Q1992.08 214.795 1988.78 210.281 Q1985.48 205.767 1978.71 205.767 Q1970.43 205.767 1965.63 211.265 Q1960.83 216.762 1960.83 226.253 L1960.83 262.885 L1950.12 262.885 L1950.12 224.112 Q1950.12 214.737 1946.82 210.281 Q1943.53 205.767 1936.64 205.767 Q1928.48 205.767 1923.68 211.322 Q1918.87 216.82 1918.87 226.253 L1918.87 262.885 L1908.17 262.885 L1908.17 198.07 L1918.87 198.07 L1918.87 208.14 Q1922.52 202.179 1927.61 199.343 Q1932.7 196.508 1939.71 196.508 Q1946.77 196.508 1951.68 200.096 Q1956.66 203.684 1959.03 210.512 Z" fill="#000000" fill-rule="evenodd" fill-opacity="1" /><path clip-path="url(#clip950)" d="M2079.46 227.815 L2079.46 233.024 L2030.5 233.024 Q2031.2 244.019 2037.1 249.806 Q2043.06 255.535 2053.65 255.535 Q2059.79 255.535 2065.52 254.031 Q2071.3 252.526 2076.97 249.517 L2076.97 259.586 Q2071.24 262.017 2065.23 263.29 Q2059.21 264.563 2053.02 264.563 Q2037.51 264.563 2028.42 255.535 Q2019.39 246.507 2019.39 231.114 Q2019.39 215.2 2027.96 205.883 Q2036.58 196.508 2051.16 196.508 Q2064.24 196.508 2071.82 204.957 Q2079.46 213.348 2079.46 227.815 M2068.81 224.69 Q2068.7 215.952 2063.89 210.744 Q2059.15 205.535 2051.28 205.535 Q2042.37 205.535 2036.99 210.57 Q2031.66 215.605 2030.85 224.748 L2068.81 224.69 Z" fill="#000000" fill-rule="evenodd" fill-opacity="1" /><path clip-path="url(#clip950)" d="M2150.82 223.764 L2150.82 262.885 L2140.17 262.885 L2140.17 224.112 Q2140.17 214.91 2136.58 210.339 Q2132.99 205.767 2125.82 205.767 Q2117.19 205.767 2112.22 211.265 Q2107.24 216.762 2107.24 226.253 L2107.24 262.885 L2096.53 262.885 L2096.53 198.07 L2107.24 198.07 L2107.24 208.14 Q2111.06 202.295 2116.21 199.401 Q2121.42 196.508 2128.19 196.508 Q2139.36 196.508 2145.09 203.452 Q2150.82 210.339 2150.82 223.764 Z" fill="#000000" fill-rule="evenodd" fill-opacity="1" /><path clip-path="url(#clip950)" d="M2182.59 179.667 L2182.59 198.07 L2204.52 198.07 L2204.52 206.346 L2182.59 206.346 L2182.59 241.531 Q2182.59 249.459 2184.73 251.716 Q2186.93 253.973 2193.58 253.973 L2204.52 253.973 L2204.52 262.885 L2193.58 262.885 Q2181.26 262.885 2176.57 258.313 Q2171.88 253.683 2171.88 241.531 L2171.88 206.346 L2164.07 206.346 L2164.07 198.07 L2171.88 198.07 L2171.88 179.667 L2182.59 179.667 Z" fill="#000000" fill-rule="evenodd" fill-opacity="1" /><path clip-path="url(#clip950)" d="M2259.84 199.98 L2259.84 210.049 Q2255.33 207.734 2250.47 206.577 Q2245.61 205.42 2240.4 205.42 Q2232.47 205.42 2228.48 207.85 Q2224.54 210.281 2224.54 215.142 Q2224.54 218.846 2227.38 220.987 Q2230.21 223.07 2238.78 224.98 L2242.42 225.79 Q2253.77 228.22 2258.51 232.676 Q2263.32 237.075 2263.32 245.003 Q2263.32 254.031 2256.14 259.297 Q2249.02 264.563 2236.52 264.563 Q2231.31 264.563 2225.64 263.521 Q2220.03 262.537 2213.78 260.512 L2213.78 249.517 Q2219.68 252.584 2225.41 254.146 Q2231.14 255.651 2236.75 255.651 Q2244.28 255.651 2248.33 253.105 Q2252.38 250.5 2252.38 245.813 Q2252.38 241.473 2249.43 239.158 Q2246.53 236.843 2236.64 234.702 L2232.93 233.834 Q2223.04 231.751 2218.64 227.468 Q2214.24 223.128 2214.24 215.605 Q2214.24 206.461 2220.72 201.484 Q2227.2 196.508 2239.13 196.508 Q2245.03 196.508 2250.24 197.376 Q2255.44 198.244 2259.84 199.98 Z" fill="#000000" fill-rule="evenodd" fill-opacity="1" /><polyline clip-path="url(#clip950)" style="stroke:#e26f46; stroke-linecap:round; stroke-linejoin:round; stroke-width:10; stroke-opacity:1; fill:none" points="
  1449.56,349.285 1583.72,349.285 
  "/>
<path clip-path="url(#clip950)" d="M1635.83 335.135 Q1627.27 335.135 1622.29 341.848 Q1617.31 348.503 1617.31 360.135 Q1617.31 371.767 1622.23 378.48 Q1627.21 385.135 1635.83 385.135 Q1644.34 385.135 1649.31 378.422 Q1654.29 371.709 1654.29 360.135 Q1654.29 348.619 1649.31 341.906 Q1644.34 335.135 1635.83 335.135 M1635.83 326.108 Q1649.72 326.108 1657.65 335.135 Q1665.58 344.163 1665.58 360.135 Q1665.58 376.05 1657.65 385.135 Q1649.72 394.163 1635.83 394.163 Q1621.88 394.163 1613.96 385.135 Q1606.08 376.05 1606.08 360.135 Q1606.08 344.163 1613.96 335.135 Q1621.88 326.108 1635.83 326.108 Z" fill="#000000" fill-rule="evenodd" fill-opacity="1" /><path clip-path="url(#clip950)" d="M1693.53 382.762 L1693.53 417.137 L1682.82 417.137 L1682.82 327.67 L1693.53 327.67 L1693.53 337.508 Q1696.88 331.721 1701.98 328.943 Q1707.13 326.108 1714.24 326.108 Q1726.05 326.108 1733.4 335.483 Q1740.81 344.858 1740.81 360.135 Q1740.81 375.413 1733.4 384.788 Q1726.05 394.163 1714.24 394.163 Q1707.13 394.163 1701.98 391.385 Q1696.88 388.549 1693.53 382.762 M1729.75 360.135 Q1729.75 348.388 1724.89 341.733 Q1720.09 335.02 1711.64 335.02 Q1703.19 335.02 1698.33 341.733 Q1693.53 348.388 1693.53 360.135 Q1693.53 371.883 1698.33 378.596 Q1703.19 385.251 1711.64 385.251 Q1720.09 385.251 1724.89 378.596 Q1729.75 371.883 1729.75 360.135 Z" fill="#000000" fill-rule="evenodd" fill-opacity="1" /><path clip-path="url(#clip950)" d="M1768.99 309.267 L1768.99 327.67 L1790.92 327.67 L1790.92 335.946 L1768.99 335.946 L1768.99 371.131 Q1768.99 379.059 1771.13 381.316 Q1773.33 383.573 1779.98 383.573 L1790.92 383.573 L1790.92 392.485 L1779.98 392.485 Q1767.66 392.485 1762.97 387.913 Q1758.28 383.283 1758.28 371.131 L1758.28 335.946 L1750.47 335.946 L1750.47 327.67 L1758.28 327.67 L1758.28 309.267 L1768.99 309.267 Z" fill="#000000" fill-rule="evenodd" fill-opacity="1" /><polyline clip-path="url(#clip950)" style="stroke:#000000; stroke-linecap:round; stroke-linejoin:round; stroke-width:15; stroke-opacity:1; fill:none" stroke-dasharray="60, 38" points="
  1449.56,478.885 1583.72,478.885 
  "/>
<path clip-path="url(#clip950)" d="M1666.15 487.015 L1666.15 492.224 L1617.2 492.224 Q1617.89 503.219 1623.79 509.006 Q1629.75 514.735 1640.34 514.735 Q1646.48 514.735 1652.21 513.231 Q1657.99 511.726 1663.67 508.717 L1663.67 518.786 Q1657.94 521.217 1651.92 522.49 Q1645.9 523.763 1639.71 523.763 Q1624.2 523.763 1615.11 514.735 Q1606.08 505.707 1606.08 490.314 Q1606.08 474.4 1614.65 465.083 Q1623.27 455.708 1637.86 455.708 Q1650.93 455.708 1658.52 464.157 Q1666.15 472.548 1666.15 487.015 M1655.51 483.89 Q1655.39 475.152 1650.59 469.944 Q1645.84 464.735 1637.97 464.735 Q1629.06 464.735 1623.68 469.77 Q1618.35 474.805 1617.54 483.948 L1655.51 483.89 Z" fill="#000000" fill-rule="evenodd" fill-opacity="1" /><path clip-path="url(#clip950)" d="M1735.42 457.27 L1711.99 488.809 L1736.64 522.085 L1724.08 522.085 L1705.22 496.622 L1686.35 522.085 L1673.79 522.085 L1698.97 488.173 L1675.93 457.27 L1688.49 457.27 L1705.68 480.36 L1722.87 457.27 L1735.42 457.27 Z" fill="#000000" fill-rule="evenodd" fill-opacity="1" /><path clip-path="url(#clip950)" d="M1781.14 489.504 Q1768.24 489.504 1763.26 492.455 Q1758.28 495.407 1758.28 502.525 Q1758.28 508.196 1761.99 511.552 Q1765.75 514.851 1772.17 514.851 Q1781.03 514.851 1786.35 508.601 Q1791.73 502.293 1791.73 491.876 L1791.73 489.504 L1781.14 489.504 M1802.38 485.106 L1802.38 522.085 L1791.73 522.085 L1791.73 512.247 Q1788.09 518.149 1782.65 520.985 Q1777.21 523.763 1769.34 523.763 Q1759.38 523.763 1753.48 518.207 Q1747.64 512.594 1747.64 503.219 Q1747.64 492.282 1754.93 486.726 Q1762.28 481.17 1776.8 481.17 L1791.73 481.17 L1791.73 480.129 Q1791.73 472.779 1786.87 468.786 Q1782.07 464.735 1773.33 464.735 Q1767.77 464.735 1762.51 466.066 Q1757.24 467.397 1752.38 470.059 L1752.38 460.222 Q1758.23 457.965 1763.72 456.865 Q1769.22 455.708 1774.43 455.708 Q1788.49 455.708 1795.44 462.999 Q1802.38 470.291 1802.38 485.106 Z" fill="#000000" fill-rule="evenodd" fill-opacity="1" /><path clip-path="url(#clip950)" d="M1870.96 459.759 L1870.96 469.712 Q1866.44 467.224 1861.87 466.009 Q1857.36 464.735 1852.73 464.735 Q1842.37 464.735 1836.64 471.333 Q1830.91 477.872 1830.91 489.735 Q1830.91 501.599 1836.64 508.196 Q1842.37 514.735 1852.73 514.735 Q1857.36 514.735 1861.87 513.52 Q1866.44 512.247 1870.96 509.758 L1870.96 519.596 Q1866.5 521.68 1861.7 522.721 Q1856.95 523.763 1851.57 523.763 Q1836.93 523.763 1828.31 514.562 Q1819.68 505.36 1819.68 489.735 Q1819.68 473.879 1828.36 464.793 Q1837.1 455.708 1852.26 455.708 Q1857.18 455.708 1861.87 456.749 Q1866.56 457.733 1870.96 459.759 Z" fill="#000000" fill-rule="evenodd" fill-opacity="1" /><path clip-path="url(#clip950)" d="M1900.01 438.867 L1900.01 457.27 L1921.94 457.27 L1921.94 465.546 L1900.01 465.546 L1900.01 500.731 Q1900.01 508.659 1902.15 510.916 Q1904.35 513.173 1911 513.173 L1921.94 513.173 L1921.94 522.085 L1911 522.085 Q1898.68 522.085 1893.99 517.513 Q1889.3 512.883 1889.3 500.731 L1889.3 465.546 L1881.49 465.546 L1881.49 457.27 L1889.3 457.27 L1889.3 438.867 L1900.01 438.867 Z" fill="#000000" fill-rule="evenodd" fill-opacity="1" /></svg>
