<?xml version="1.0" encoding="utf-8"?>
<svg xmlns="http://www.w3.org/2000/svg" xmlns:xlink="http://www.w3.org/1999/xlink" width="540" height="400" viewBox="0 0 2160 1600">
<defs>
  <clipPath id="clip560">
    <rect x="0" y="0" width="2160" height="1600"/>
  </clipPath>
</defs>
<path clip-path="url(#clip560)" d="M0 1600 L2160 1600 L2160 0 L0 0  Z" fill="#ffffff" fill-rule="evenodd" fill-opacity="1"/>
<defs>
  <clipPath id="clip561">
    <rect x="432" y="0" width="1513" height="1513"/>
  </clipPath>
</defs>
<defs>
  <clipPath id="clip562">
    <rect x="328" y="47" width="1785" height="1281"/>
  </clipPath>
</defs>
<path clip-path="url(#clip560)" d="M328.297 1327.22 L2112.76 1327.22 L2112.76 47.2441 L328.297 47.2441  Z" fill="#ffffff" fill-rule="evenodd" fill-opacity="1"/>
<polyline clip-path="url(#clip562)" style="stroke:#000000; stroke-linecap:round; stroke-linejoin:round; stroke-width:2; stroke-opacity:0.1; fill:none" points="1778.17,1327.22 1778.17,47.2441 "/>
<polyline clip-path="url(#clip562)" style="stroke:#000000; stroke-linecap:round; stroke-linejoin:round; stroke-width:2; stroke-opacity:0.1; fill:none" points="1220.53,1327.22 1220.53,47.2441 "/>
<polyline clip-path="url(#clip562)" style="stroke:#000000; stroke-linecap:round; stroke-linejoin:round; stroke-width:2; stroke-opacity:0.1; fill:none" points="662.883,1327.22 662.883,47.2441 "/>
<polyline clip-path="url(#clip560)" style="stroke:#000000; stroke-linecap:round; stroke-linejoin:round; stroke-width:4; stroke-opacity:1; fill:none" points="328.297,1327.22 2112.76,1327.22 "/>
<polyline clip-path="url(#clip560)" style="stroke:#000000; stroke-linecap:round; stroke-linejoin:round; stroke-width:4; stroke-opacity:1; fill:none" points="328.297,47.2441 2112.76,47.2441 "/>
<polyline clip-path="url(#clip560)" style="stroke:#000000; stroke-linecap:round; stroke-linejoin:round; stroke-width:4; stroke-opacity:1; fill:none" points="1778.17,1327.22 1778.17,1308.33 "/>
<polyline clip-path="url(#clip560)" style="stroke:#000000; stroke-linecap:round; stroke-linejoin:round; stroke-width:4; stroke-opacity:1; fill:none" points="1220.53,1327.22 1220.53,1308.33 "/>
<polyline clip-path="url(#clip560)" style="stroke:#000000; stroke-linecap:round; stroke-linejoin:round; stroke-width:4; stroke-opacity:1; fill:none" points="662.883,1327.22 662.883,1308.33 "/>
<g clip-path="url(#clip560)">
<text style="fill:#000000; fill-opacity:1; font-family:Times New Roman,TimesNewRoman,Times,Baskerville,Georgia,serif; font-size:98px; text-anchor:middle;" transform="rotate(0, 1778.17, 1425.9)" x="1778.17" y="1425.9">5</text>
</g>
<g clip-path="url(#clip560)">
<text style="fill:#000000; fill-opacity:1; font-family:Times New Roman,TimesNewRoman,Times,Baskerville,Georgia,serif; font-size:98px; text-anchor:middle;" transform="rotate(0, 1220.53, 1425.9)" x="1220.53" y="1425.9">0</text>
</g>
<g clip-path="url(#clip560)">
<text style="fill:#000000; fill-opacity:1; font-family:Times New Roman,TimesNewRoman,Times,Baskerville,Georgia,serif; font-size:98px; text-anchor:middle;" transform="rotate(0, 662.883, 1425.9)" x="662.883" y="1425.9">−5</text>
</g>
<path clip-path="url(#clip560)" d="M1257.86 1493.49 Q1257.86 1499.48 1254.83 1511.08 Q1253.61 1516.1 1251.93 1520.68 Q1250.32 1525.18 1247.94 1529.56 Q1245.56 1533.94 1242.79 1537.1 Q1240.02 1540.19 1236.41 1542.12 Q1232.8 1544.06 1228.81 1544.06 Q1222.5 1544.06 1218.76 1540.32 Q1215.09 1536.52 1213.93 1530.01 Q1205.3 1544.06 1193.77 1544.06 Q1186.62 1544.06 1183.27 1538.97 Q1179.92 1533.82 1179.92 1525.18 Q1179.92 1517.91 1181.85 1510.37 Q1185.52 1496.07 1192.67 1486.09 Q1193.64 1484.93 1195.06 1484.93 Q1195.89 1484.93 1196.28 1485.18 Q1197.44 1485.89 1197.44 1487.05 Q1197.44 1487.89 1196.8 1488.73 Q1192.29 1494.97 1189.32 1500.32 Q1186.36 1505.67 1185.01 1511.08 Q1183.98 1515.72 1183.98 1519.64 Q1183.98 1526.28 1186.81 1530.4 Q1189.71 1534.52 1195.44 1534.52 Q1200.72 1534.52 1205.36 1531.24 Q1210 1527.89 1213.41 1522.29 Q1213.61 1516.17 1215.09 1510.37 Q1216.44 1504.19 1219.6 1504.19 Q1222.11 1504.19 1222.11 1507.6 Q1222.11 1508.76 1221.59 1511.08 Q1220.18 1517.2 1217.6 1522.67 Q1218.5 1528.02 1221.85 1531.3 Q1225.2 1534.52 1230.55 1534.52 Q1235.51 1534.52 1239.89 1530.92 Q1244.33 1527.31 1247.17 1522.03 Q1250.06 1516.68 1251.67 1510.37 Q1252.19 1508.24 1252.19 1505.54 Q1252.19 1498.32 1247.17 1493.88 Q1245.75 1492.46 1245.75 1490.59 Q1245.75 1488.4 1247.55 1486.41 Q1249.68 1484.28 1252.19 1484.28 Q1254.06 1484.28 1255.22 1485.44 Q1257.86 1487.76 1257.86 1493.49 Z" fill="#000000" fill-rule="nonzero" fill-opacity="1" /><polyline clip-path="url(#clip562)" style="stroke:#000000; stroke-linecap:round; stroke-linejoin:round; stroke-width:2; stroke-opacity:0.1; fill:none" points="328.297,1291 2112.76,1291 "/>
<polyline clip-path="url(#clip562)" style="stroke:#000000; stroke-linecap:round; stroke-linejoin:round; stroke-width:2; stroke-opacity:0.1; fill:none" points="328.297,1037.97 2112.76,1037.97 "/>
<polyline clip-path="url(#clip562)" style="stroke:#000000; stroke-linecap:round; stroke-linejoin:round; stroke-width:2; stroke-opacity:0.1; fill:none" points="328.297,784.944 2112.76,784.944 "/>
<polyline clip-path="url(#clip562)" style="stroke:#000000; stroke-linecap:round; stroke-linejoin:round; stroke-width:2; stroke-opacity:0.1; fill:none" points="328.297,531.916 2112.76,531.916 "/>
<polyline clip-path="url(#clip562)" style="stroke:#000000; stroke-linecap:round; stroke-linejoin:round; stroke-width:2; stroke-opacity:0.1; fill:none" points="328.297,278.889 2112.76,278.889 "/>
<polyline clip-path="url(#clip560)" style="stroke:#000000; stroke-linecap:round; stroke-linejoin:round; stroke-width:4; stroke-opacity:1; fill:none" points="328.297,1327.22 328.297,47.2441 "/>
<polyline clip-path="url(#clip560)" style="stroke:#000000; stroke-linecap:round; stroke-linejoin:round; stroke-width:4; stroke-opacity:1; fill:none" points="2112.76,1327.22 2112.76,47.2441 "/>
<polyline clip-path="url(#clip560)" style="stroke:#000000; stroke-linecap:round; stroke-linejoin:round; stroke-width:4; stroke-opacity:1; fill:none" points="328.297,1291 347.194,1291 "/>
<polyline clip-path="url(#clip560)" style="stroke:#000000; stroke-linecap:round; stroke-linejoin:round; stroke-width:4; stroke-opacity:1; fill:none" points="328.297,1037.97 347.194,1037.97 "/>
<polyline clip-path="url(#clip560)" style="stroke:#000000; stroke-linecap:round; stroke-linejoin:round; stroke-width:4; stroke-opacity:1; fill:none" points="328.297,784.944 347.194,784.944 "/>
<polyline clip-path="url(#clip560)" style="stroke:#000000; stroke-linecap:round; stroke-linejoin:round; stroke-width:4; stroke-opacity:1; fill:none" points="328.297,531.916 347.194,531.916 "/>
<polyline clip-path="url(#clip560)" style="stroke:#000000; stroke-linecap:round; stroke-linejoin:round; stroke-width:4; stroke-opacity:1; fill:none" points="328.297,278.889 347.194,278.889 "/>
<g clip-path="url(#clip560)">
<text style="fill:#000000; fill-opacity:1; font-family:Times New Roman,TimesNewRoman,Times,Baskerville,Georgia,serif; font-size:98px; text-anchor:middle;" transform="rotate(0, 234.718, 1323.5)" x="234.718" y="1323.5">0.0</text>
</g>
<g clip-path="url(#clip560)">
<text style="fill:#000000; fill-opacity:1; font-family:Times New Roman,TimesNewRoman,Times,Baskerville,Georgia,serif; font-size:98px; text-anchor:middle;" transform="rotate(0, 234.718, 1070.47)" x="234.718" y="1070.47">0.1</text>
</g>
<g clip-path="url(#clip560)">
<text style="fill:#000000; fill-opacity:1; font-family:Times New Roman,TimesNewRoman,Times,Baskerville,Georgia,serif; font-size:98px; text-anchor:middle;" transform="rotate(0, 234.718, 817.444)" x="234.718" y="817.444">0.2</text>
</g>
<g clip-path="url(#clip560)">
<text style="fill:#000000; fill-opacity:1; font-family:Times New Roman,TimesNewRoman,Times,Baskerville,Georgia,serif; font-size:98px; text-anchor:middle;" transform="rotate(0, 234.718, 564.416)" x="234.718" y="564.416">0.3</text>
</g>
<g clip-path="url(#clip560)">
<text style="fill:#000000; fill-opacity:1; font-family:Times New Roman,TimesNewRoman,Times,Baskerville,Georgia,serif; font-size:98px; text-anchor:middle;" transform="rotate(0, 234.718, 311.389)" x="234.718" y="311.389">0.4</text>
</g>
<path clip-path="url(#clip560)" d="M79.9972 754.181 Q89.5302 754.181 98.4834 759.076 Q107.437 763.907 112.847 771.508 Q118.258 779.044 118.258 786.645 Q118.258 795.211 109.369 799.656 Q141.639 807.707 142.477 808.158 Q145.246 810.026 145.246 812.731 Q145.246 814.406 144.216 815.437 Q143.25 816.467 141.704 816.467 Q141.188 816.403 139.578 816.016 L87.7266 803.134 Q75.6816 800.171 67.1149 791.218 Q58.4837 782.2 58.4837 772.538 Q58.4837 764.873 64.2163 759.527 Q69.949 754.181 79.9972 754.181 M74.329 763.65 Q67.8878 763.65 64.6672 766.226 Q61.3822 768.802 61.3822 772.796 Q61.3822 776.467 64.3452 780.912 Q67.3081 785.292 73.8781 789.157 Q77.6784 791.218 82.3805 792.699 Q87.0825 794.181 98.6766 797.079 Q103.314 798.11 103.572 798.11 Q104.087 798.11 105.247 797.852 Q106.406 797.53 108.21 796.757 Q109.949 795.92 111.495 794.76 Q113.04 793.601 114.2 791.475 Q115.295 789.35 115.295 786.773 Q115.295 782.78 112.074 778.529 Q108.789 774.213 102.799 771.057 Q97.9681 768.416 88.886 766.033 Q79.7396 763.65 74.329 763.65 Z" fill="#000000" fill-rule="nonzero" fill-opacity="1" /><path clip-path="url(#clip560)" d="M83.7975 740.523 Q61.5111 740.523 43.5402 732.214 Q36.004 728.671 29.6917 723.711 Q23.3793 718.752 20.6096 715.467 Q17.8399 712.182 17.8399 711.28 Q17.8399 709.992 19.1281 709.927 Q19.7723 709.927 21.3826 711.666 Q43.0249 732.922 83.7975 732.858 Q124.699 732.858 145.504 712.182 Q147.758 709.927 148.467 709.927 Q149.755 709.927 149.755 711.28 Q149.755 712.182 147.114 715.338 Q144.473 718.494 138.419 723.389 Q132.364 728.285 124.957 731.827 Q106.986 740.523 83.7975 740.523 Z" fill="#000000" fill-rule="nonzero" fill-opacity="1" /><path clip-path="url(#clip560)" d="M67.6946 624.602 Q73.6849 624.602 85.279 627.63 Q90.3031 628.854 94.8763 630.528 Q99.3851 632.139 103.765 634.522 Q108.145 636.905 111.301 639.675 Q114.393 642.444 116.325 646.051 Q118.258 649.659 118.258 653.652 Q118.258 659.964 114.522 663.7 Q110.722 667.372 104.216 668.531 Q118.258 677.162 118.258 688.692 Q118.258 695.842 113.169 699.191 Q108.016 702.541 99.3851 702.541 Q92.1066 702.541 84.5705 700.608 Q70.271 696.937 60.2872 689.787 Q59.1278 688.821 59.1278 687.404 Q59.1278 686.566 59.3855 686.18 Q60.094 685.021 61.2534 685.021 Q62.0908 685.021 62.9281 685.665 Q69.1761 690.173 74.5222 693.136 Q79.8684 696.099 85.279 697.452 Q89.9166 698.483 93.8457 698.483 Q100.48 698.483 104.602 695.648 Q108.725 692.75 108.725 687.017 Q108.725 681.736 105.44 677.098 Q102.09 672.46 96.4866 669.046 Q90.3675 668.853 84.5705 667.372 Q78.3869 666.019 78.3869 662.863 Q78.3869 660.351 81.8007 660.351 Q82.9602 660.351 85.279 660.866 Q91.3981 662.283 96.8731 664.86 Q102.219 663.958 105.504 660.609 Q108.725 657.259 108.725 651.913 Q108.725 646.953 105.118 642.573 Q101.511 638.129 96.229 635.295 Q90.8828 632.396 84.5705 630.786 Q82.4449 630.271 79.7396 630.271 Q72.5255 630.271 68.0811 635.295 Q66.664 636.712 64.7961 636.712 Q62.6061 636.712 60.6093 634.908 Q58.4837 632.783 58.4837 630.271 Q58.4837 628.403 59.6431 627.243 Q61.9619 624.602 67.6946 624.602 Z" fill="#000000" fill-rule="nonzero" fill-opacity="1" /><path clip-path="url(#clip560)" d="M148.467 608.656 Q147.823 608.656 146.212 606.981 Q124.57 585.725 83.7975 585.725 Q42.8961 585.725 22.2199 606.144 Q19.8367 608.656 19.1281 608.656 Q17.8399 608.656 17.8399 607.368 Q17.8399 606.466 20.4808 603.31 Q23.1217 600.089 29.1764 595.258 Q35.2311 590.363 42.6384 586.756 Q60.6093 578.06 83.7975 578.06 Q106.084 578.06 124.055 586.369 Q131.591 589.912 137.903 594.872 Q144.216 599.832 146.985 603.117 Q149.755 606.402 149.755 607.368 Q149.755 608.656 148.467 608.656 Z" fill="#000000" fill-rule="nonzero" fill-opacity="1" /><polyline clip-path="url(#clip562)" style="stroke:#009af9; stroke-linecap:round; stroke-linejoin:round; stroke-width:16; stroke-opacity:1; fill:none" points="105.239,1290.99 107.472,1290.99 109.705,1290.99 111.938,1290.99 114.17,1290.99 116.403,1290.99 118.636,1290.99 120.869,1290.99 123.102,1290.99 125.335,1290.99 127.567,1290.99 129.8,1290.99 132.033,1290.99 134.266,1290.99 136.499,1290.99 138.731,1290.99 140.964,1290.99 143.197,1290.99 145.43,1290.99 147.663,1290.99 149.895,1290.99 152.128,1290.99 154.361,1290.99 156.594,1290.99 158.827,1290.99 161.059,1290.99 163.292,1290.99 165.525,1290.99 167.758,1290.99 169.991,1290.99 172.223,1290.99 174.456,1290.99 176.689,1290.99 178.922,1290.99 181.155,1290.99 183.387,1290.99 185.62,1290.99 187.853,1290.99 190.086,1290.99 192.319,1290.99 194.552,1290.99 196.784,1290.99 199.017,1290.99 201.25,1290.99 203.483,1290.98 205.716,1290.98 207.948,1290.98 210.181,1290.98 212.414,1290.98 214.647,1290.98 216.88,1290.98 219.112,1290.98 221.345,1290.98 223.578,1290.98 225.811,1290.98 228.044,1290.98 230.276,1290.98 232.509,1290.98 234.742,1290.98 236.975,1290.98 239.208,1290.98 241.44,1290.98 243.673,1290.98 245.906,1290.98 248.139,1290.98 250.372,1290.98 252.604,1290.98 254.837,1290.98 257.07,1290.98 259.303,1290.98 261.536,1290.98 263.769,1290.98 266.001,1290.98 268.234,1290.98 270.467,1290.98 272.7,1290.98 274.933,1290.98 277.165,1290.98 279.398,1290.98 281.631,1290.98 283.864,1290.98 286.097,1290.98 288.329,1290.98 290.562,1290.98 292.795,1290.98 295.028,1290.98 297.261,1290.98 299.493,1290.98 301.726,1290.98 303.959,1290.98 306.192,1290.98 308.425,1290.98 310.657,1290.98 312.89,1290.98 315.123,1290.98 317.356,1290.98 319.589,1290.98 321.822,1290.98 324.054,1290.98 326.287,1290.98 328.52,1290.98 330.753,1290.98 332.986,1290.98 335.218,1290.98 337.451,1290.98 339.684,1290.98 341.917,1290.98 344.15,1290.98 346.382,1290.98 348.615,1290.98 350.848,1290.98 353.081,1290.98 355.314,1290.98 357.546,1290.98 359.779,1290.98 362.012,1290.98 364.245,1290.98 366.478,1290.98 368.71,1290.98 370.943,1290.97 373.176,1290.97 375.409,1290.97 377.642,1290.97 379.874,1290.97 382.107,1290.97 384.34,1290.97 386.573,1290.97 388.806,1290.97 391.039,1290.97 393.271,1290.97 395.504,1290.97 397.737,1290.97 399.97,1290.97 402.203,1290.97 404.435,1290.97 406.668,1290.97 408.901,1290.97 411.134,1290.97 413.367,1290.97 415.599,1290.97 417.832,1290.97 420.065,1290.97 422.298,1290.97 424.531,1290.97 426.763,1290.97 428.996,1290.97 431.229,1290.97 433.462,1290.97 435.695,1290.97 437.927,1290.97 440.16,1290.97 442.393,1290.97 444.626,1290.97 446.859,1290.97 449.092,1290.97 451.324,1290.96 453.557,1290.96 455.79,1290.96 458.023,1290.96 460.256,1290.96 462.488,1290.96 464.721,1290.96 466.954,1290.96 469.187,1290.96 471.42,1290.96 473.652,1290.96 475.885,1290.96 478.118,1290.96 480.351,1290.96 482.584,1290.96 484.816,1290.96 487.049,1290.96 489.282,1290.96 491.515,1290.96 493.748,1290.96 495.98,1290.95 498.213,1290.95 500.446,1290.95 502.679,1290.95 504.912,1290.95 507.144,1290.95 509.377,1290.95 511.61,1290.95 513.843,1290.95 516.076,1290.95 518.309,1290.95 520.541,1290.95 522.774,1290.94 525.007,1290.94 527.24,1290.94 529.473,1290.94 531.705,1290.94 533.938,1290.94 536.171,1290.94 538.404,1290.93 540.637,1290.93 542.869,1290.93 545.102,1290.93 547.335,1290.93 549.568,1290.92 551.801,1290.92 554.033,1290.92 556.266,1290.91 558.499,1290.91 560.732,1290.9 562.965,1290.9 565.197,1290.89 567.43,1290.89 569.663,1290.88 571.896,1290.87 574.129,1290.86 576.361,1290.85 578.594,1290.83 580.827,1290.82 583.06,1290.8 585.293,1290.77 587.526,1290.75 589.758,1290.71 591.991,1290.67 594.224,1290.62 596.457,1290.55 598.69,1290.47 600.922,1290.37 603.155,1290.24 605.388,1290.07 607.621,1289.85 609.854,1289.56 612.086,1289.18 614.319,1288.68 616.552,1288.02 618.785,1287.15 621.018,1286.06 623.25,1284.75 625.483,1283.31 627.716,1281.94 629.949,1280.91 632.182,1280.39 634.414,1280.38 636.647,1280.75 638.88,1281.32 641.113,1281.94 643.346,1282.53 645.579,1283.05 647.811,1283.48 650.044,1283.82 652.277,1284.08 654.51,1284.26 656.743,1284.38 658.975,1284.43 661.208,1284.43 663.441,1284.37 665.674,1284.25 667.907,1284.07 670.139,1283.84 672.372,1283.54 674.605,1283.17 676.838,1282.73 679.071,1282.19 681.303,1281.56 683.536,1280.8 685.769,1279.91 688.002,1278.84 690.235,1277.58 692.467,1276.07 694.7,1274.27 696.933,1272.09 699.166,1269.45 701.399,1266.24 703.631,1262.29 705.864,1257.41 708.097,1251.35 710.33,1243.77 712.563,1234.27 714.796,1222.36 717.028,1207.49 719.261,1189.19 721.494,1167.26 723.727,1142.2 725.96,1115.65 728.192,1090.71 730.425,1071.33 732.658,1060.74 734.891,1059.93 737.124,1067.29 739.356,1079.82 741.589,1094.57 743.822,1109.39 746.055,1123.05 748.288,1134.99 750.52,1145.05 752.753,1153.29 754.986,1159.83 757.219,1164.84 759.452,1168.46 761.684,1170.8 763.917,1171.96 766.15,1171.98 768.383,1170.88 770.616,1168.65 772.849,1165.24 775.081,1160.56 777.314,1154.49 779.547,1146.84 781.78,1137.39 784.013,1125.83 786.245,1111.78 788.478,1094.74 790.711,1074.11 792.944,1049.13 795.177,1018.87 797.409,982.232 799.642,937.993 801.875,884.904 804.108,821.962 806.341,748.914 808.573,667.069 810.806,580.34 813.039,496.061 815.272,424.607 817.505,376.921 819.737,360.4 821.97,375.637 824.203,416.526 826.436,473.472 828.669,537.092 830.901,600.369 833.134,659.047 835.367,711.077 837.6,755.84 839.833,793.503 842.066,824.596 844.298,849.762 846.531,869.627 848.764,884.735 850.997,895.526 853.23,902.327 855.462,905.355 857.695,904.72 859.928,900.427 862.161,892.378 864.394,880.367 866.626,864.078 868.859,843.08 871.092,816.825 873.325,784.65 875.558,745.803 877.79,699.493 880.023,645.006 882.256,581.911 884.489,510.412 886.722,431.86 888.954,349.408 891.187,268.586 893.42,197.382 895.653,145.213 897.886,120.569 900.118,128.043 902.351,166.428 904.584,229.217 906.817,307.136 909.05,391.06 911.283,473.889 913.515,551.08 915.748,620.299 917.981,680.763 920.214,732.622 922.447,776.497 924.679,813.198 926.912,843.551 929.145,868.318 931.378,888.159 933.611,903.619 935.843,915.134 938.076,923.038 940.309,927.573 942.542,928.901 944.775,927.113 947.007,922.243 949.24,914.286 951.473,903.217 953.706,889.029 955.939,871.78 958.171,851.671 960.404,829.15 962.637,805.047 964.87,780.712 967.103,758.116 969.336,739.808 971.568,728.639 973.801,727.188 976.034,737.031 978.267,758.151 980.5,788.84 982.732,826.184 984.965,866.866 987.198,907.914 989.431,947.118 991.664,983.115 993.896,1015.25 996.129,1043.39 998.362,1067.69 1000.59,1088.48 1002.83,1106.14 1005.06,1121.08 1007.29,1133.64 1009.53,1144.15 1011.76,1152.89 1013.99,1160.1 1016.22,1165.96 1018.46,1170.63 1020.69,1174.27 1022.92,1176.96 1025.16,1178.83 1027.39,1179.95 1029.62,1180.42 1031.85,1180.35 1034.09,1179.84 1036.32,1179.06 1038.55,1178.2 1040.79,1177.5 1043.02,1177.26 1045.25,1177.81 1047.48,1179.45 1049.72,1182.42 1051.95,1186.84 1054.18,1192.64 1056.41,1199.56 1058.65,1207.24 1060.88,1215.23 1063.11,1223.15 1065.35,1230.68 1067.58,1237.61 1069.81,1243.84 1072.04,1249.33 1074.28,1254.12 1076.51,1258.25 1078.74,1261.79 1080.98,1264.81 1083.21,1267.4 1085.44,1269.6 1087.67,1271.48 1089.91,1273.08 1092.14,1274.44 1094.37,1275.61 1096.61,1276.6 1098.84,1277.45 1101.07,1278.18 1103.3,1278.8 1105.54,1279.34 1107.77,1279.8 1110,1280.21 1112.24,1280.58 1114.47,1280.92 1116.7,1281.25 1118.93,1281.58 1121.17,1281.93 1123.4,1282.31 1125.63,1282.73 1127.86,1283.21 1130.1,1283.73 1132.33,1284.29 1134.56,1284.88 1136.8,1285.48 1139.03,1286.07 1141.26,1286.63 1143.49,1287.15 1145.73,1287.63 1147.96,1288.06 1150.19,1288.43 1152.43,1288.76 1154.66,1289.04 1156.89,1289.28 1159.12,1289.49 1161.36,1289.66 1163.59,1289.81 1165.82,1289.94 1168.06,1290.05 1170.29,1290.14 1172.52,1290.22 1174.75,1290.29 1176.99,1290.35 1179.22,1290.4 1181.45,1290.44 1183.68,1290.48 1185.92,1290.51 1188.15,1290.54 1190.38,1290.56 1192.62,1290.58 1194.85,1290.6 1197.08,1290.62 1199.31,1290.63 1201.55,1290.64 1203.78,1290.65 1206.01,1290.66 1208.25,1290.67 1210.48,1290.67 1212.71,1290.68 1214.94,1290.68 1217.18,1290.68 1219.41,1290.69 1221.64,1290.69 1223.88,1290.68 1226.11,1290.68 1228.34,1290.68 1230.57,1290.67 1232.81,1290.67 1235.04,1290.66 1237.27,1290.65 1239.51,1290.64 1241.74,1290.63 1243.97,1290.62 1246.2,1290.6 1248.44,1290.58 1250.67,1290.56 1252.9,1290.54 1255.13,1290.51 1257.37,1290.48 1259.6,1290.44 1261.83,1290.4 1264.07,1290.35 1266.3,1290.29 1268.53,1290.22 1270.76,1290.14 1273,1290.05 1275.23,1289.94 1277.46,1289.81 1279.7,1289.66 1281.93,1289.49 1284.16,1289.28 1286.39,1289.04 1288.63,1288.75 1290.86,1288.42 1293.09,1288.04 1295.33,1287.6 1297.56,1287.11 1299.79,1286.58 1302.02,1286.01 1304.26,1285.41 1306.49,1284.81 1308.72,1284.22 1310.95,1283.67 1313.19,1283.16 1315.42,1282.71 1317.65,1282.31 1319.89,1281.95 1322.12,1281.63 1324.35,1281.33 1326.58,1281.02 1328.82,1280.71 1331.05,1280.36 1333.28,1279.97 1335.52,1279.52 1337.75,1279 1339.98,1278.39 1342.21,1277.67 1344.45,1276.83 1346.68,1275.84 1348.91,1274.68 1351.15,1273.31 1353.38,1271.7 1355.61,1269.8 1357.84,1267.57 1360.08,1264.94 1362.31,1261.84 1364.54,1258.2 1366.78,1253.95 1369.01,1249 1371.24,1243.29 1373.47,1236.81 1375.71,1229.59 1377.94,1221.75 1380.17,1213.55 1382.4,1205.34 1384.64,1197.57 1386.87,1190.73 1389.1,1185.22 1391.34,1181.25 1393.57,1178.85 1395.8,1177.84 1398.03,1177.92 1400.27,1178.73 1402.5,1179.91 1404.73,1181.16 1406.97,1182.25 1409.2,1182.99 1411.43,1183.23 1413.66,1182.87 1415.9,1181.81 1418.13,1179.98 1420.36,1177.28 1422.6,1173.62 1424.83,1168.87 1427.06,1162.91 1429.29,1155.55 1431.53,1146.59 1433.76,1135.77 1435.99,1122.79 1438.22,1107.29 1440.46,1088.88 1442.69,1067.09 1444.92,1041.48 1447.16,1011.69 1449.39,977.497 1451.62,939.086 1453.85,897.232 1456.09,853.579 1458.32,810.789 1460.55,772.391 1462.79,742.199 1465.02,723.335 1467.25,717.276 1469.48,723.429 1471.72,739.471 1473.95,762.195 1476.18,788.387 1478.42,815.393 1480.65,841.31 1482.88,864.94 1485.11,885.623 1487.35,903.061 1489.58,917.173 1491.81,927.988 1494.05,935.575 1496.28,939.993 1498.51,941.269 1500.74,939.374 1502.98,934.209 1505.21,925.594 1507.44,913.257 1509.67,896.819 1511.91,875.782 1514.14,849.519 1516.37,817.262 1518.61,778.111 1520.84,731.073 1523.07,675.149 1525.3,609.531 1527.54,533.954 1529.77,449.277 1532,358.28 1534.24,266.529 1536.47,182.791 1538.7,118.182 1540.93,83.47 1543.17,85.1913 1545.4,122.804 1547.63,188.958 1549.87,272.676 1552.1,363.136 1554.33,452.076 1556.56,534.387 1558.8,607.599 1561.03,671.018 1563.26,724.966 1565.49,770.245 1567.73,807.816 1569.96,838.62 1572.19,863.502 1574.43,883.167 1576.66,898.184 1578.89,908.984 1581.12,915.872 1583.36,919.032 1585.59,918.535 1587.82,914.336 1590.06,906.279 1592.29,894.083 1594.52,877.34 1596.75,855.505 1598.99,827.897 1601.22,793.72 1603.45,752.122 1605.69,702.344 1607.92,644.02 1610.15,577.719 1612.38,505.798 1614.62,433.473 1616.85,369.594 1619.08,326.009 1621.32,314.334 1623.55,340.753 1625.78,402.266 1628.01,487.848 1630.25,583.696 1632.48,678.298 1634.71,764.585 1636.94,839.517 1639.18,902.698 1641.41,955.091 1643.64,998.174 1645.88,1033.48 1648.11,1062.41 1650.34,1086.13 1652.57,1105.6 1654.81,1121.6 1657.04,1134.73 1659.27,1145.47 1661.51,1154.2 1663.74,1161.21 1665.97,1166.71 1668.2,1170.87 1670.44,1173.8 1672.67,1175.57 1674.9,1176.22 1677.14,1175.75 1679.37,1174.12 1681.6,1171.25 1683.83,1167.03 1686.07,1161.3 1688.3,1153.86 1690.53,1144.49 1692.76,1132.98 1695,1119.19 1697.23,1103.23 1699.46,1085.71 1701.7,1068.12 1703.93,1053.19 1706.16,1044.78 1708.39,1046.7 1710.63,1060.55 1712.86,1084.37 1715.09,1113.51 1717.33,1143.13 1719.56,1169.99 1721.79,1192.71 1724.02,1211.18 1726.26,1225.87 1728.49,1237.45 1730.72,1246.59 1732.96,1253.8 1735.19,1259.54 1737.42,1264.13 1739.65,1267.83 1741.89,1270.84 1744.12,1273.3 1746.35,1275.33 1748.59,1277 1750.82,1278.4 1753.05,1279.58 1755.28,1280.56 1757.52,1281.39 1759.75,1282.08 1761.98,1282.67 1764.21,1283.16 1766.45,1283.57 1768.68,1283.9 1770.91,1284.17 1773.15,1284.37 1775.38,1284.52 1777.61,1284.61 1779.84,1284.65 1782.08,1284.62 1784.31,1284.54 1786.54,1284.39 1788.78,1284.16 1791.01,1283.85 1793.24,1283.45 1795.47,1282.94 1797.71,1282.32 1799.94,1281.59 1802.17,1280.81 1804.41,1280.08 1806.64,1279.59 1808.87,1279.58 1811.1,1280.23 1813.34,1281.49 1815.57,1283.1 1817.8,1284.72 1820.03,1286.14 1822.27,1287.28 1824.5,1288.15 1826.73,1288.8 1828.97,1289.29 1831.2,1289.65 1833.43,1289.92 1835.66,1290.13 1837.9,1290.29 1840.13,1290.41 1842.36,1290.5 1844.6,1290.58 1846.83,1290.64 1849.06,1290.69 1851.29,1290.73 1853.53,1290.76 1855.76,1290.78 1857.99,1290.81 1860.23,1290.83 1862.46,1290.84 1864.69,1290.85 1866.92,1290.86 1869.16,1290.87 1871.39,1290.88 1873.62,1290.89 1875.86,1290.9 1878.09,1290.9 1880.32,1290.91 1882.55,1290.91 1884.79,1290.91 1887.02,1290.92 1889.25,1290.92 1891.48,1290.92 1893.72,1290.93 1895.95,1290.93 1898.18,1290.93 1900.42,1290.93 1902.65,1290.94 1904.88,1290.94 1907.11,1290.94 1909.35,1290.94 1911.58,1290.94 1913.81,1290.94 1916.05,1290.94 1918.28,1290.94 1920.51,1290.95 1922.74,1290.95 1924.98,1290.95 1927.21,1290.95 1929.44,1290.95 1931.68,1290.95 1933.91,1290.95 1936.14,1290.95 1938.37,1290.95 1940.61,1290.95 1942.84,1290.95 1945.07,1290.95 1947.3,1290.96 1949.54,1290.96 1951.77,1290.96 1954,1290.96 1956.24,1290.96 1958.47,1290.96 1960.7,1290.96 1962.93,1290.96 1965.17,1290.96 1967.4,1290.96 1969.63,1290.96 1971.87,1290.96 1974.1,1290.96 1976.33,1290.96 1978.56,1290.96 1980.8,1290.96 1983.03,1290.96 1985.26,1290.96 1987.5,1290.96 1989.73,1290.96 1991.96,1290.97 1994.19,1290.97 1996.43,1290.97 1998.66,1290.97 2000.89,1290.97 2003.13,1290.97 2005.36,1290.97 2007.59,1290.97 2009.82,1290.97 2012.06,1290.97 2014.29,1290.97 2016.52,1290.97 2018.75,1290.97 2020.99,1290.97 2023.22,1290.97 2025.45,1290.97 2027.69,1290.97 2029.92,1290.97 2032.15,1290.97 2034.38,1290.97 2036.62,1290.97 2038.85,1290.97 2041.08,1290.97 2043.32,1290.97 2045.55,1290.97 2047.78,1290.97 2050.01,1290.97 2052.25,1290.97 2054.48,1290.97 2056.71,1290.97 2058.95,1290.97 2061.18,1290.97 2063.41,1290.97 2065.64,1290.97 2067.88,1290.97 2070.11,1290.97 2072.34,1290.98 2074.57,1290.98 2076.81,1290.98 2079.04,1290.98 2081.27,1290.98 2083.51,1290.98 2085.74,1290.98 2087.97,1290.98 2090.2,1290.98 2092.44,1290.98 2094.67,1290.98 2096.9,1290.98 2099.14,1290.98 2101.37,1290.98 2103.6,1290.98 2105.83,1290.98 2108.07,1290.98 2110.3,1290.98 2112.53,1290.98 2114.77,1290.98 2117,1290.98 2119.23,1290.98 2121.46,1290.98 2123.7,1290.98 2125.93,1290.98 2128.16,1290.98 2130.4,1290.98 2132.63,1290.98 2134.86,1290.98 2137.09,1290.98 2139.33,1290.98 2141.56,1290.98 2143.79,1290.98 2146.02,1290.98 2148.26,1290.98 2150.49,1290.98 2152.72,1290.98 2154.96,1290.98 2157.19,1290.98 2159.42,1290.98 2161.65,1290.98 2163.89,1290.98 2166.12,1290.98 2168.35,1290.98 2170.59,1290.98 2172.82,1290.98 2175.05,1290.98 2177.28,1290.98 2179.52,1290.98 2181.75,1290.98 2183.98,1290.98 2186.22,1290.98 2188.45,1290.98 2190.68,1290.98 2192.91,1290.98 2195.15,1290.98 2197.38,1290.98 2199.61,1290.98 2201.84,1290.98 2204.08,1290.98 2206.31,1290.98 2208.54,1290.98 2210.78,1290.98 2213.01,1290.98 2215.24,1290.98 2217.47,1290.98 2219.71,1290.98 2221.94,1290.98 2224.17,1290.98 2226.41,1290.98 2228.64,1290.98 2230.87,1290.98 2233.1,1290.98 2235.34,1290.98 2237.57,1290.98 2239.8,1290.99 2242.04,1290.99 2244.27,1290.99 2246.5,1290.99 2248.73,1290.99 2250.97,1290.99 2253.2,1290.99 2255.43,1290.99 2257.67,1290.99 2259.9,1290.99 2262.13,1290.99 2264.36,1290.99 2266.6,1290.99 2268.83,1290.99 2271.06,1290.99 2273.29,1290.99 2275.53,1290.99 2277.76,1290.99 2279.99,1290.99 2282.23,1290.99 2284.46,1290.99 2286.69,1290.99 2288.92,1290.99 2291.16,1290.99 2293.39,1290.99 2295.62,1290.99 2297.86,1290.99 2300.09,1290.99 2302.32,1290.99 2304.55,1290.99 2306.79,1290.99 2309.02,1290.99 2311.25,1290.99 2313.49,1290.99 2315.72,1290.99 2317.95,1290.99 2320.18,1290.99 2322.42,1290.99 2324.65,1290.99 2326.88,1290.99 2329.11,1290.99 2331.35,1290.99 2333.58,1290.99 2335.81,1290.99 "/>
<polyline clip-path="url(#clip562)" style="stroke:#e26f46; stroke-linecap:round; stroke-linejoin:round; stroke-width:16; stroke-opacity:1; fill:none" points="105.239,1290.99 107.472,1290.99 109.705,1290.99 111.938,1290.99 114.17,1290.99 116.403,1290.99 118.636,1290.99 120.869,1290.99 123.102,1290.99 125.335,1290.99 127.567,1290.99 129.8,1290.99 132.033,1290.99 134.266,1290.99 136.499,1290.99 138.731,1290.99 140.964,1290.99 143.197,1290.99 145.43,1290.99 147.663,1290.99 149.895,1290.99 152.128,1290.99 154.361,1290.99 156.594,1290.99 158.827,1290.99 161.059,1290.99 163.292,1290.99 165.525,1290.99 167.758,1290.99 169.991,1290.99 172.223,1290.99 174.456,1290.99 176.689,1290.99 178.922,1290.99 181.155,1290.99 183.387,1290.99 185.62,1290.99 187.853,1290.99 190.086,1290.99 192.319,1290.99 194.552,1290.99 196.784,1290.99 199.017,1290.99 201.25,1290.99 203.483,1290.98 205.716,1290.98 207.948,1290.98 210.181,1290.98 212.414,1290.98 214.647,1290.98 216.88,1290.98 219.112,1290.98 221.345,1290.98 223.578,1290.98 225.811,1290.98 228.044,1290.98 230.276,1290.98 232.509,1290.98 234.742,1290.98 236.975,1290.98 239.208,1290.98 241.44,1290.98 243.673,1290.98 245.906,1290.98 248.139,1290.98 250.372,1290.98 252.604,1290.98 254.837,1290.98 257.07,1290.98 259.303,1290.98 261.536,1290.98 263.769,1290.98 266.001,1290.98 268.234,1290.98 270.467,1290.98 272.7,1290.98 274.933,1290.98 277.165,1290.98 279.398,1290.98 281.631,1290.98 283.864,1290.98 286.097,1290.98 288.329,1290.98 290.562,1290.98 292.795,1290.98 295.028,1290.98 297.261,1290.98 299.493,1290.98 301.726,1290.98 303.959,1290.98 306.192,1290.98 308.425,1290.98 310.657,1290.98 312.89,1290.98 315.123,1290.98 317.356,1290.98 319.589,1290.98 321.822,1290.98 324.054,1290.98 326.287,1290.98 328.52,1290.98 330.753,1290.98 332.986,1290.98 335.218,1290.98 337.451,1290.98 339.684,1290.98 341.917,1290.98 344.15,1290.98 346.382,1290.98 348.615,1290.98 350.848,1290.98 353.081,1290.98 355.314,1290.98 357.546,1290.98 359.779,1290.98 362.012,1290.98 364.245,1290.98 366.478,1290.98 368.71,1290.98 370.943,1290.97 373.176,1290.97 375.409,1290.97 377.642,1290.97 379.874,1290.97 382.107,1290.97 384.34,1290.97 386.573,1290.97 388.806,1290.97 391.039,1290.97 393.271,1290.97 395.504,1290.97 397.737,1290.97 399.97,1290.97 402.203,1290.97 404.435,1290.97 406.668,1290.97 408.901,1290.97 411.134,1290.97 413.367,1290.97 415.599,1290.97 417.832,1290.97 420.065,1290.97 422.298,1290.97 424.531,1290.97 426.763,1290.97 428.996,1290.97 431.229,1290.97 433.462,1290.97 435.695,1290.97 437.927,1290.97 440.16,1290.97 442.393,1290.97 444.626,1290.97 446.859,1290.97 449.092,1290.97 451.324,1290.96 453.557,1290.96 455.79,1290.96 458.023,1290.96 460.256,1290.96 462.488,1290.96 464.721,1290.96 466.954,1290.96 469.187,1290.96 471.42,1290.96 473.652,1290.96 475.885,1290.96 478.118,1290.96 480.351,1290.96 482.584,1290.96 484.816,1290.96 487.049,1290.96 489.282,1290.96 491.515,1290.96 493.748,1290.95 495.98,1290.95 498.213,1290.95 500.446,1290.95 502.679,1290.95 504.912,1290.95 507.144,1290.95 509.377,1290.95 511.61,1290.95 513.843,1290.95 516.076,1290.95 518.309,1290.95 520.541,1290.94 522.774,1290.94 525.007,1290.94 527.24,1290.94 529.473,1290.94 531.705,1290.94 533.938,1290.93 536.171,1290.93 538.404,1290.93 540.637,1290.93 542.869,1290.93 545.102,1290.92 547.335,1290.92 549.568,1290.92 551.801,1290.91 554.033,1290.91 556.266,1290.9 558.499,1290.9 560.732,1290.89 562.965,1290.89 565.197,1290.88 567.43,1290.87 569.663,1290.86 571.896,1290.85 574.129,1290.83 576.361,1290.82 578.594,1290.8 580.827,1290.78 583.06,1290.75 585.293,1290.72 587.526,1290.69 589.758,1290.64 591.991,1290.59 594.224,1290.53 596.457,1290.45 598.69,1290.36 600.922,1290.25 603.155,1290.11 605.388,1289.94 607.621,1289.73 609.854,1289.47 612.086,1289.15 614.319,1288.76 616.552,1288.28 618.785,1287.73 621.018,1287.08 623.25,1286.36 625.483,1285.59 627.716,1284.81 629.949,1284.07 632.182,1283.43 634.414,1282.91 636.647,1282.53 638.88,1282.28 641.113,1282.14 643.346,1282.07 645.579,1282.05 647.811,1282.06 650.044,1282.06 652.277,1282.04 654.51,1281.99 656.743,1281.91 658.975,1281.79 661.208,1281.62 663.441,1281.39 665.674,1281.11 667.907,1280.76 670.139,1280.34 672.372,1279.84 674.605,1279.26 676.838,1278.58 679.071,1277.79 681.303,1276.87 683.536,1275.81 685.769,1274.59 688.002,1273.17 690.235,1271.54 692.467,1269.65 694.7,1267.46 696.933,1264.93 699.166,1261.99 701.399,1258.59 703.631,1254.64 705.864,1250.07 708.097,1244.79 710.33,1238.72 712.563,1231.77 714.796,1223.89 717.028,1215.05 719.261,1205.3 721.494,1194.74 723.727,1183.59 725.96,1172.16 728.192,1160.84 730.425,1150.11 732.658,1140.38 734.891,1132.01 737.124,1125.21 739.356,1120.04 741.589,1116.39 743.822,1114.04 746.055,1112.69 748.288,1112.04 750.52,1111.78 752.753,1111.66 754.986,1111.44 757.219,1110.93 759.452,1110.01 761.684,1108.53 763.917,1106.41 766.15,1103.56 768.383,1099.9 770.616,1095.37 772.849,1089.9 775.081,1083.42 777.314,1075.86 779.547,1067.13 781.78,1057.18 784.013,1045.91 786.245,1033.25 788.478,1019.14 790.711,1003.53 792.944,986.379 795.177,967.686 797.409,947.49 799.642,925.883 801.875,903.021 804.108,879.131 806.341,854.52 808.573,829.568 810.806,804.721 813.039,780.467 815.272,757.307 817.505,735.716 819.737,716.11 821.97,698.803 824.203,683.99 826.436,671.734 828.669,661.97 830.901,654.523 833.134,649.133 835.367,645.487 837.6,643.246 839.833,642.072 842.066,641.646 844.298,641.684 846.531,641.945 848.764,642.23 850.997,642.389 853.23,642.313 855.462,641.931 857.695,641.208 859.928,640.137 862.161,638.737 864.394,637.045 866.626,635.11 868.859,632.994 871.092,630.76 873.325,628.471 875.558,626.186 877.79,623.957 880.023,621.823 882.256,619.811 884.489,617.934 886.722,616.191 888.954,614.57 891.187,613.046 893.42,611.59 895.653,610.167 897.886,608.747 900.118,607.303 902.351,605.822 904.584,604.307 906.817,602.782 909.05,601.297 911.283,599.931 913.515,598.797 915.748,598.038 917.981,597.832 920.214,598.383 922.447,599.919 924.679,602.677 926.912,606.894 929.145,612.787 931.378,620.538 933.611,630.274 935.843,642.052 938.076,655.849 940.309,671.558 942.542,688.99 944.775,707.887 947.007,727.941 949.24,748.809 951.473,770.142 953.706,791.6 955.939,812.871 958.171,833.685 960.404,853.815 962.637,873.085 964.87,891.364 967.103,908.569 969.336,924.65 971.568,939.593 973.801,953.409 976.034,966.129 978.267,977.8 980.5,988.481 982.732,998.24 984.965,1007.15 987.198,1015.29 989.431,1022.73 991.664,1029.56 993.896,1035.87 996.129,1041.73 998.362,1047.22 1000.59,1052.43 1002.83,1057.44 1005.06,1062.34 1007.29,1067.19 1009.53,1072.09 1011.76,1077.11 1013.99,1082.31 1016.22,1087.78 1018.46,1093.58 1020.69,1099.77 1022.92,1106.38 1025.16,1113.47 1027.39,1121.04 1029.62,1129.09 1031.85,1137.58 1034.09,1146.48 1036.32,1155.68 1038.55,1165.09 1040.79,1174.58 1043.02,1184.01 1045.25,1193.25 1047.48,1202.16 1049.72,1210.64 1051.95,1218.59 1054.18,1225.94 1056.41,1232.68 1058.65,1238.77 1060.88,1244.24 1063.11,1249.11 1065.35,1253.41 1067.58,1257.18 1069.81,1260.48 1072.04,1263.34 1074.28,1265.82 1076.51,1267.95 1078.74,1269.78 1080.98,1271.32 1083.21,1272.62 1085.44,1273.7 1087.67,1274.56 1089.91,1275.24 1092.14,1275.72 1094.37,1276.02 1096.61,1276.13 1098.84,1276.04 1101.07,1275.72 1103.3,1275.15 1105.54,1274.28 1107.77,1273.07 1110,1271.49 1112.24,1269.59 1114.47,1267.62 1116.7,1266.18 1118.93,1266.26 1121.17,1268.59 1123.4,1272.73 1125.63,1277.28 1127.86,1281.17 1130.1,1284.06 1132.33,1286.08 1134.56,1287.46 1136.8,1288.4 1139.03,1289.05 1141.26,1289.51 1143.49,1289.83 1145.73,1290.07 1147.96,1290.24 1150.19,1290.37 1152.43,1290.47 1154.66,1290.55 1156.89,1290.61 1159.12,1290.65 1161.36,1290.69 1163.59,1290.72 1165.82,1290.74 1168.06,1290.76 1170.29,1290.77 1172.52,1290.78 1174.75,1290.79 1176.99,1290.8 1179.22,1290.81 1181.45,1290.81 1183.68,1290.82 1185.92,1290.82 1188.15,1290.82 1190.38,1290.82 1192.62,1290.82 1194.85,1290.81 1197.08,1290.81 1199.31,1290.8 1201.55,1290.78 1203.78,1290.77 1206.01,1290.74 1208.25,1290.7 1210.48,1290.64 1212.71,1290.54 1214.94,1290.35 1217.18,1290 1219.41,1289.37 1221.64,1289.01 1223.88,1289.57 1226.11,1290.15 1228.34,1290.46 1230.57,1290.62 1232.81,1290.7 1235.04,1290.75 1237.27,1290.78 1239.51,1290.8 1241.74,1290.82 1243.97,1290.82 1246.2,1290.83 1248.44,1290.83 1250.67,1290.84 1252.9,1290.84 1255.13,1290.84 1257.37,1290.84 1259.6,1290.83 1261.83,1290.83 1264.07,1290.82 1266.3,1290.82 1268.53,1290.81 1270.76,1290.8 1273,1290.78 1275.23,1290.77 1277.46,1290.74 1279.7,1290.72 1281.93,1290.68 1284.16,1290.64 1286.39,1290.58 1288.63,1290.51 1290.86,1290.41 1293.09,1290.28 1295.33,1290.1 1297.56,1289.86 1299.79,1289.53 1302.02,1289.05 1304.26,1288.37 1306.49,1287.36 1308.72,1285.88 1310.95,1283.7 1313.19,1280.58 1315.42,1276.47 1317.65,1271.86 1319.89,1268.06 1322.12,1266.34 1324.35,1266.78 1326.58,1268.45 1328.82,1270.42 1331.05,1272.21 1333.28,1273.65 1335.52,1274.72 1337.75,1275.47 1339.98,1275.94 1342.21,1276.16 1344.45,1276.18 1346.68,1275.99 1348.91,1275.62 1351.15,1275.07 1353.38,1274.33 1355.61,1273.4 1357.84,1272.27 1360.08,1270.91 1362.31,1269.3 1364.54,1267.42 1366.78,1265.24 1369.01,1262.73 1371.24,1259.84 1373.47,1256.55 1375.71,1252.81 1377.94,1248.59 1380.17,1243.84 1382.4,1238.55 1384.64,1232.69 1386.87,1226.26 1389.1,1219.26 1391.34,1211.71 1393.57,1203.65 1395.8,1195.15 1398.03,1186.26 1400.27,1177.08 1402.5,1167.71 1404.73,1158.25 1406.97,1148.81 1409.2,1139.5 1411.43,1130.41 1413.66,1121.63 1415.9,1113.24 1418.13,1105.29 1420.36,1097.83 1422.6,1090.88 1424.83,1084.43 1427.06,1078.46 1429.29,1072.93 1431.53,1067.78 1433.76,1062.93 1435.99,1058.3 1438.22,1053.78 1440.46,1049.28 1442.69,1044.69 1444.92,1039.9 1447.16,1034.79 1449.39,1029.27 1451.62,1023.22 1453.85,1016.54 1456.09,1009.14 1458.32,1000.92 1460.55,991.784 1462.79,981.645 1465.02,970.424 1467.25,958.048 1469.48,944.458 1471.72,929.613 1473.95,913.489 1476.18,896.096 1478.42,877.475 1480.65,857.712 1482.88,836.943 1485.11,815.359 1487.35,793.207 1489.58,770.791 1491.81,748.464 1494.05,726.612 1496.28,705.636 1498.51,685.926 1500.74,667.834 1502.98,651.648 1505.21,637.573 1507.44,625.716 1509.67,616.085 1511.91,608.593 1514.14,603.075 1516.37,599.31 1518.61,597.038 1520.84,595.986 1523.07,595.887 1525.3,596.49 1527.54,597.577 1529.77,598.966 1532,600.514 1534.24,602.116 1536.47,603.706 1538.7,605.25 1540.93,606.742 1543.17,608.198 1545.4,609.651 1547.63,611.146 1549.87,612.73 1552.1,614.449 1554.33,616.342 1556.56,618.434 1558.8,620.739 1561.03,623.248 1563.26,625.937 1565.49,628.762 1567.73,631.663 1569.96,634.566 1572.19,637.386 1574.43,640.035 1576.66,642.423 1578.89,644.466 1581.12,646.089 1583.36,647.234 1585.59,647.865 1587.82,647.971 1590.06,647.576 1592.29,646.742 1594.52,645.575 1596.75,644.233 1598.99,642.928 1601.22,641.927 1603.45,641.554 1605.69,642.184 1607.92,644.223 1610.15,648.092 1612.38,654.194 1614.62,662.876 1616.85,674.392 1619.08,688.863 1621.32,706.253 1623.55,726.358 1625.78,748.82 1628.01,773.154 1630.25,798.794 1632.48,825.144 1634.71,851.627 1636.94,877.719 1639.18,902.981 1641.41,927.07 1643.64,949.736 1645.88,970.817 1648.11,990.227 1650.34,1007.94 1652.57,1023.97 1654.81,1038.36 1657.04,1051.2 1659.27,1062.56 1661.51,1072.53 1663.74,1081.19 1665.97,1088.63 1668.2,1094.93 1670.44,1100.16 1672.67,1104.4 1674.9,1107.71 1677.14,1110.16 1679.37,1111.82 1681.6,1112.75 1683.83,1113.06 1686.07,1112.86 1688.3,1112.3 1690.53,1111.56 1692.76,1110.88 1695,1110.57 1697.23,1110.97 1699.46,1112.47 1701.7,1115.42 1703.93,1120.15 1706.16,1126.8 1708.39,1135.34 1710.63,1145.54 1712.86,1156.96 1715.09,1169.08 1717.33,1181.34 1719.56,1193.27 1721.79,1204.5 1724.02,1214.8 1726.26,1224.06 1728.49,1232.24 1730.72,1239.4 1732.96,1245.6 1735.19,1250.95 1737.42,1255.56 1739.65,1259.5 1741.89,1262.89 1744.12,1265.79 1746.35,1268.29 1748.59,1270.43 1750.82,1272.28 1753.05,1273.86 1755.28,1275.23 1757.52,1276.41 1759.75,1277.43 1761.98,1278.31 1764.21,1279.07 1766.45,1279.71 1768.68,1280.26 1770.91,1280.73 1773.15,1281.12 1775.38,1281.43 1777.61,1281.69 1779.84,1281.88 1782.08,1282.02 1784.31,1282.1 1786.54,1282.14 1788.78,1282.14 1791.01,1282.1 1793.24,1282.04 1795.47,1281.98 1797.71,1281.92 1799.94,1281.92 1802.17,1281.99 1804.41,1282.18 1806.64,1282.53 1808.87,1283.05 1811.1,1283.73 1813.34,1284.53 1815.57,1285.37 1817.8,1286.21 1820.03,1286.99 1822.27,1287.68 1824.5,1288.27 1826.73,1288.76 1828.97,1289.17 1831.2,1289.49 1833.43,1289.75 1835.66,1289.96 1837.9,1290.13 1840.13,1290.27 1842.36,1290.38 1844.6,1290.47 1846.83,1290.55 1849.06,1290.61 1851.29,1290.66 1853.53,1290.7 1855.76,1290.73 1857.99,1290.76 1860.23,1290.79 1862.46,1290.81 1864.69,1290.82 1866.92,1290.84 1869.16,1290.85 1871.39,1290.86 1873.62,1290.87 1875.86,1290.88 1878.09,1290.89 1880.32,1290.89 1882.55,1290.9 1884.79,1290.91 1887.02,1290.91 1889.25,1290.91 1891.48,1290.92 1893.72,1290.92 1895.95,1290.92 1898.18,1290.93 1900.42,1290.93 1902.65,1290.93 1904.88,1290.93 1907.11,1290.94 1909.35,1290.94 1911.58,1290.94 1913.81,1290.94 1916.05,1290.94 1918.28,1290.94 1920.51,1290.94 1922.74,1290.95 1924.98,1290.95 1927.21,1290.95 1929.44,1290.95 1931.68,1290.95 1933.91,1290.95 1936.14,1290.95 1938.37,1290.95 1940.61,1290.95 1942.84,1290.95 1945.07,1290.95 1947.3,1290.95 1949.54,1290.96 1951.77,1290.96 1954,1290.96 1956.24,1290.96 1958.47,1290.96 1960.7,1290.96 1962.93,1290.96 1965.17,1290.96 1967.4,1290.96 1969.63,1290.96 1971.87,1290.96 1974.1,1290.96 1976.33,1290.96 1978.56,1290.96 1980.8,1290.96 1983.03,1290.96 1985.26,1290.96 1987.5,1290.96 1989.73,1290.96 1991.96,1290.97 1994.19,1290.97 1996.43,1290.97 1998.66,1290.97 2000.89,1290.97 2003.13,1290.97 2005.36,1290.97 2007.59,1290.97 2009.82,1290.97 2012.06,1290.97 2014.29,1290.97 2016.52,1290.97 2018.75,1290.97 2020.99,1290.97 2023.22,1290.97 2025.45,1290.97 2027.69,1290.97 2029.92,1290.97 2032.15,1290.97 2034.38,1290.97 2036.62,1290.97 2038.85,1290.97 2041.08,1290.97 2043.32,1290.97 2045.55,1290.97 2047.78,1290.97 2050.01,1290.97 2052.25,1290.97 2054.48,1290.97 2056.71,1290.97 2058.95,1290.97 2061.18,1290.97 2063.41,1290.97 2065.64,1290.97 2067.88,1290.97 2070.11,1290.97 2072.34,1290.98 2074.57,1290.98 2076.81,1290.98 2079.04,1290.98 2081.27,1290.98 2083.51,1290.98 2085.74,1290.98 2087.97,1290.98 2090.2,1290.98 2092.44,1290.98 2094.67,1290.98 2096.9,1290.98 2099.14,1290.98 2101.37,1290.98 2103.6,1290.98 2105.83,1290.98 2108.07,1290.98 2110.3,1290.98 2112.53,1290.98 2114.77,1290.98 2117,1290.98 2119.23,1290.98 2121.46,1290.98 2123.7,1290.98 2125.93,1290.98 2128.16,1290.98 2130.4,1290.98 2132.63,1290.98 2134.86,1290.98 2137.09,1290.98 2139.33,1290.98 2141.56,1290.98 2143.79,1290.98 2146.02,1290.98 2148.26,1290.98 2150.49,1290.98 2152.72,1290.98 2154.96,1290.98 2157.19,1290.98 2159.42,1290.98 2161.65,1290.98 2163.89,1290.98 2166.12,1290.98 2168.35,1290.98 2170.59,1290.98 2172.82,1290.98 2175.05,1290.98 2177.28,1290.98 2179.52,1290.98 2181.75,1290.98 2183.98,1290.98 2186.22,1290.98 2188.45,1290.98 2190.68,1290.98 2192.91,1290.98 2195.15,1290.98 2197.38,1290.98 2199.61,1290.98 2201.84,1290.98 2204.08,1290.98 2206.31,1290.98 2208.54,1290.98 2210.78,1290.98 2213.01,1290.98 2215.24,1290.98 2217.47,1290.98 2219.71,1290.98 2221.94,1290.98 2224.17,1290.98 2226.41,1290.98 2228.64,1290.98 2230.87,1290.98 2233.1,1290.98 2235.34,1290.98 2237.57,1290.98 2239.8,1290.99 2242.04,1290.99 2244.27,1290.99 2246.5,1290.99 2248.73,1290.99 2250.97,1290.99 2253.2,1290.99 2255.43,1290.99 2257.67,1290.99 2259.9,1290.99 2262.13,1290.99 2264.36,1290.99 2266.6,1290.99 2268.83,1290.99 2271.06,1290.99 2273.29,1290.99 2275.53,1290.99 2277.76,1290.99 2279.99,1290.99 2282.23,1290.99 2284.46,1290.99 2286.69,1290.99 2288.92,1290.99 2291.16,1290.99 2293.39,1290.99 2295.62,1290.99 2297.86,1290.99 2300.09,1290.99 2302.32,1290.99 2304.55,1290.99 2306.79,1290.99 2309.02,1290.99 2311.25,1290.99 2313.49,1290.99 2315.72,1290.99 2317.95,1290.99 2320.18,1290.99 2322.42,1290.99 2324.65,1290.99 2326.88,1290.99 2329.11,1290.99 2331.35,1290.99 2333.58,1290.99 2335.81,1290.99 "/>
<polyline clip-path="url(#clip562)" style="stroke:#000000; stroke-linecap:round; stroke-linejoin:round; stroke-width:10; stroke-opacity:1; fill:none" stroke-dasharray="40, 25" points="105.239,1291 107.472,1291 109.705,1291 111.938,1291 114.17,1291 116.403,1291 118.636,1291 120.869,1291 123.102,1291 125.335,1291 127.567,1291 129.8,1291 132.033,1291 134.266,1291 136.499,1291 138.731,1291 140.964,1291 143.197,1291 145.43,1291 147.663,1291 149.895,1291 152.128,1291 154.361,1291 156.594,1291 158.827,1291 161.059,1291 163.292,1291 165.525,1291 167.758,1291 169.991,1291 172.223,1291 174.456,1291 176.689,1291 178.922,1291 181.155,1291 183.387,1291 185.62,1291 187.853,1291 190.086,1291 192.319,1291 194.552,1291 196.784,1291 199.017,1291 201.25,1291 203.483,1291 205.716,1291 207.948,1291 210.181,1291 212.414,1291 214.647,1291 216.88,1291 219.112,1291 221.345,1291 223.578,1291 225.811,1291 228.044,1291 230.276,1291 232.509,1291 234.742,1291 236.975,1291 239.208,1291 241.44,1291 243.673,1291 245.906,1291 248.139,1291 250.372,1291 252.604,1291 254.837,1291 257.07,1291 259.303,1291 261.536,1291 263.769,1291 266.001,1291 268.234,1291 270.467,1291 272.7,1291 274.933,1291 277.165,1291 279.398,1291 281.631,1291 283.864,1291 286.097,1291 288.329,1291 290.562,1291 292.795,1291 295.028,1291 297.261,1291 299.493,1291 301.726,1291 303.959,1291 306.192,1291 308.425,1291 310.657,1291 312.89,1291 315.123,1291 317.356,1291 319.589,1291 321.822,1291 324.054,1291 326.287,1291 328.52,1291 330.753,1291 332.986,1291 335.218,1291 337.451,1291 339.684,1291 341.917,1291 344.15,1291 346.382,1291 348.615,1291 350.848,1291 353.081,1291 355.314,1291 357.546,1291 359.779,1291 362.012,1291 364.245,1291 366.478,1291 368.71,1291 370.943,1291 373.176,1291 375.409,1291 377.642,1291 379.874,1291 382.107,1291 384.34,1291 386.573,1291 388.806,1291 391.039,1291 393.271,1291 395.504,1291 397.737,1291 399.97,1291 402.203,1291 404.435,1291 406.668,1291 408.901,1291 411.134,1291 413.367,1291 415.599,1291 417.832,1291 420.065,1291 422.298,1291 424.531,1291 426.763,1291 428.996,1291 431.229,1291 433.462,1291 435.695,1291 437.927,1291 440.16,1291 442.393,1291 444.626,1291 446.859,1291 449.092,1291 451.324,1291 453.557,1291 455.79,1291 458.023,1291 460.256,1291 462.488,1291 464.721,1291 466.954,1291 469.187,1291 471.42,1291 473.652,1291 475.885,1291 478.118,1291 480.351,1291 482.584,1291 484.816,1291 487.049,1291 489.282,1291 491.515,1291 493.748,1291 495.98,1291 498.213,1291 500.446,1291 502.679,1290.99 504.912,1290.99 507.144,1290.99 509.377,1290.99 511.61,1290.99 513.843,1290.99 516.076,1290.99 518.309,1290.99 520.541,1290.99 522.774,1290.98 525.007,1290.98 527.24,1290.98 529.473,1290.98 531.705,1290.97 533.938,1290.97 536.171,1290.97 538.404,1290.96 540.637,1290.96 542.869,1290.95 545.102,1290.95 547.335,1290.94 549.568,1290.93 551.801,1290.92 554.033,1290.91 556.266,1290.9 558.499,1290.89 560.732,1290.88 562.965,1290.86 565.197,1290.84 567.43,1290.82 569.663,1290.8 571.896,1290.78 574.129,1290.75 576.361,1290.72 578.594,1290.69 580.827,1290.65 583.06,1290.61 585.293,1290.56 587.526,1290.51 589.758,1290.46 591.991,1290.4 594.224,1290.33 596.457,1290.25 598.69,1290.17 600.922,1290.08 603.155,1289.98 605.388,1289.87 607.621,1289.75 609.854,1289.61 612.086,1289.46 614.319,1289.3 616.552,1289.13 618.785,1288.93 621.018,1288.72 623.25,1288.49 625.483,1288.24 627.716,1287.96 629.949,1287.66 632.182,1287.34 634.414,1286.98 636.647,1286.6 638.88,1286.18 641.113,1285.72 643.346,1285.23 645.579,1284.69 647.811,1284.12 650.044,1283.49 652.277,1282.82 654.51,1282.09 656.743,1281.31 658.975,1280.46 661.208,1279.55 663.441,1278.58 665.674,1277.53 667.907,1276.4 670.139,1275.19 672.372,1273.9 674.605,1272.52 676.838,1271.04 679.071,1269.46 681.303,1267.77 683.536,1265.97 685.769,1264.06 688.002,1262.02 690.235,1259.85 692.467,1257.55 694.7,1255.11 696.933,1252.52 699.166,1249.78 701.399,1246.88 703.631,1243.81 705.864,1240.57 708.097,1237.16 710.33,1233.56 712.563,1229.76 714.796,1225.78 717.028,1221.58 719.261,1217.18 721.494,1212.57 723.727,1207.73 725.96,1202.67 728.192,1197.38 730.425,1191.85 732.658,1186.08 734.891,1180.06 737.124,1173.8 739.356,1167.28 741.589,1160.51 743.822,1153.48 746.055,1146.19 748.288,1138.64 750.52,1130.82 752.753,1122.75 754.986,1114.41 757.219,1105.8 759.452,1096.94 761.684,1087.82 763.917,1078.44 766.15,1068.82 768.383,1058.95 770.616,1048.83 772.849,1038.49 775.081,1027.91 777.314,1017.12 779.547,1006.12 781.78,994.916 784.013,983.526 786.245,971.958 788.478,960.226 790.711,948.343 792.944,936.323 795.177,924.182 797.409,911.935 799.642,899.6 801.875,887.194 804.108,874.735 806.341,862.242 808.573,849.736 810.806,837.236 813.039,824.764 815.272,812.34 817.505,799.988 819.737,787.728 821.97,775.584 824.203,763.579 826.436,751.735 828.669,740.076 830.901,728.625 833.134,717.406 835.367,706.441 837.6,695.753 839.833,685.366 842.066,675.301 844.298,665.581 846.531,656.227 848.764,647.26 850.997,638.699 853.23,630.566 855.462,622.877 857.695,615.652 859.928,608.907 862.161,602.657 864.394,596.919 866.626,591.705 868.859,587.027 871.092,582.898 873.325,579.327 875.558,576.323 877.79,573.893 880.023,572.043 882.256,570.777 884.489,570.099 886.722,570.011 888.954,570.512 891.187,571.601 893.42,573.277 895.653,575.533 897.886,578.366 900.118,581.768 902.351,585.731 904.584,590.245 906.817,595.299 909.05,600.882 911.283,606.979 913.515,613.577 915.748,620.66 917.981,628.212 920.214,636.214 922.447,644.648 924.679,653.495 926.912,662.735 929.145,672.348 931.378,682.312 933.611,692.605 935.843,703.204 938.076,714.088 940.309,725.234 942.542,736.618 944.775,748.217 947.007,760.008 949.24,771.967 951.473,784.072 953.706,796.299 955.939,808.626 958.171,821.031 960.404,833.491 962.637,845.984 964.87,858.491 967.103,870.99 969.336,883.461 971.568,895.885 973.801,908.243 976.034,920.518 978.267,932.693 980.5,944.751 982.732,956.676 984.965,968.455 987.198,980.073 989.431,991.518 991.664,1002.78 993.896,1013.84 996.129,1024.7 998.362,1035.34 1000.59,1045.75 1002.83,1055.94 1005.06,1065.88 1007.29,1075.58 1009.53,1085.03 1011.76,1094.23 1013.99,1103.17 1016.22,1111.85 1018.46,1120.27 1020.69,1128.43 1022.92,1136.32 1025.16,1143.95 1027.39,1151.32 1029.62,1158.43 1031.85,1165.28 1034.09,1171.87 1036.32,1178.21 1038.55,1184.3 1040.79,1190.14 1043.02,1195.74 1045.25,1201.11 1047.48,1206.24 1049.72,1211.14 1051.95,1215.82 1054.18,1220.29 1056.41,1224.54 1058.65,1228.59 1060.88,1232.44 1063.11,1236.1 1065.35,1239.57 1067.58,1242.86 1069.81,1245.98 1072.04,1248.93 1074.28,1251.72 1076.51,1254.35 1078.74,1256.83 1080.98,1259.18 1083.21,1261.38 1085.44,1263.46 1087.67,1265.41 1089.91,1267.24 1092.14,1268.96 1094.37,1270.57 1096.61,1272.08 1098.84,1273.5 1101.07,1274.82 1103.3,1276.05 1105.54,1277.2 1107.77,1278.27 1110,1279.27 1112.24,1280.2 1114.47,1281.06 1116.7,1281.86 1118.93,1282.61 1121.17,1283.3 1123.4,1283.94 1125.63,1284.53 1127.86,1285.07 1130.1,1285.58 1132.33,1286.04 1134.56,1286.47 1136.8,1286.87 1139.03,1287.23 1141.26,1287.57 1143.49,1287.87 1145.73,1288.16 1147.96,1288.42 1150.19,1288.65 1152.43,1288.87 1154.66,1289.07 1156.89,1289.25 1159.12,1289.42 1161.36,1289.57 1163.59,1289.7 1165.82,1289.83 1168.06,1289.94 1170.29,1290.05 1172.52,1290.14 1174.75,1290.22 1176.99,1290.3 1179.22,1290.37 1181.45,1290.43 1183.68,1290.49 1185.92,1290.54 1188.15,1290.59 1190.38,1290.63 1192.62,1290.66 1194.85,1290.69 1197.08,1290.72 1199.31,1290.75 1201.55,1290.77 1203.78,1290.79 1206.01,1290.8 1208.25,1290.82 1210.48,1290.83 1212.71,1290.84 1214.94,1290.84 1217.18,1290.85 1219.41,1290.85 1221.64,1290.85 1223.88,1290.85 1226.11,1290.84 1228.34,1290.84 1230.57,1290.83 1232.81,1290.82 1235.04,1290.8 1237.27,1290.79 1239.51,1290.77 1241.74,1290.75 1243.97,1290.72 1246.2,1290.69 1248.44,1290.66 1250.67,1290.63 1252.9,1290.59 1255.13,1290.54 1257.37,1290.49 1259.6,1290.43 1261.83,1290.37 1264.07,1290.3 1266.3,1290.22 1268.53,1290.14 1270.76,1290.05 1273,1289.94 1275.23,1289.83 1277.46,1289.7 1279.7,1289.57 1281.93,1289.42 1284.16,1289.25 1286.39,1289.07 1288.63,1288.87 1290.86,1288.65 1293.09,1288.42 1295.33,1288.16 1297.56,1287.87 1299.79,1287.57 1302.02,1287.23 1304.26,1286.87 1306.49,1286.47 1308.72,1286.04 1310.95,1285.58 1313.19,1285.07 1315.42,1284.53 1317.65,1283.94 1319.89,1283.3 1322.12,1282.61 1324.35,1281.86 1326.58,1281.06 1328.82,1280.2 1331.05,1279.27 1333.28,1278.27 1335.52,1277.2 1337.75,1276.05 1339.98,1274.82 1342.21,1273.5 1344.45,1272.08 1346.68,1270.57 1348.91,1268.96 1351.15,1267.24 1353.38,1265.41 1355.61,1263.46 1357.84,1261.38 1360.08,1259.18 1362.31,1256.83 1364.54,1254.35 1366.78,1251.72 1369.01,1248.93 1371.24,1245.98 1373.47,1242.86 1375.71,1239.57 1377.94,1236.1 1380.17,1232.44 1382.4,1228.59 1384.64,1224.54 1386.87,1220.29 1389.1,1215.82 1391.34,1211.14 1393.57,1206.24 1395.8,1201.11 1398.03,1195.74 1400.27,1190.14 1402.5,1184.3 1404.73,1178.21 1406.97,1171.87 1409.2,1165.28 1411.43,1158.43 1413.66,1151.32 1415.9,1143.95 1418.13,1136.32 1420.36,1128.43 1422.6,1120.27 1424.83,1111.85 1427.06,1103.17 1429.29,1094.23 1431.53,1085.03 1433.76,1075.58 1435.99,1065.88 1438.22,1055.94 1440.46,1045.75 1442.69,1035.34 1444.92,1024.7 1447.16,1013.84 1449.39,1002.78 1451.62,991.518 1453.85,980.073 1456.09,968.455 1458.32,956.676 1460.55,944.751 1462.79,932.693 1465.02,920.518 1467.25,908.243 1469.48,895.885 1471.72,883.461 1473.95,870.99 1476.18,858.491 1478.42,845.984 1480.65,833.491 1482.88,821.031 1485.11,808.626 1487.35,796.299 1489.58,784.072 1491.81,771.967 1494.05,760.008 1496.28,748.217 1498.51,736.618 1500.74,725.234 1502.98,714.088 1505.21,703.204 1507.44,692.605 1509.67,682.312 1511.91,672.348 1514.14,662.735 1516.37,653.495 1518.61,644.648 1520.84,636.214 1523.07,628.212 1525.3,620.66 1527.54,613.577 1529.77,606.979 1532,600.882 1534.24,595.299 1536.47,590.245 1538.7,585.731 1540.93,581.768 1543.17,578.366 1545.4,575.533 1547.63,573.277 1549.87,571.601 1552.1,570.512 1554.33,570.011 1556.56,570.099 1558.8,570.777 1561.03,572.043 1563.26,573.893 1565.49,576.323 1567.73,579.327 1569.96,582.898 1572.19,587.027 1574.43,591.705 1576.66,596.919 1578.89,602.657 1581.12,608.907 1583.36,615.652 1585.59,622.877 1587.82,630.566 1590.06,638.699 1592.29,647.26 1594.52,656.227 1596.75,665.581 1598.99,675.301 1601.22,685.366 1603.45,695.753 1605.69,706.441 1607.92,717.406 1610.15,728.625 1612.38,740.076 1614.62,751.735 1616.85,763.579 1619.08,775.584 1621.32,787.728 1623.55,799.988 1625.78,812.34 1628.01,824.764 1630.25,837.236 1632.48,849.736 1634.71,862.242 1636.94,874.735 1639.18,887.194 1641.41,899.6 1643.64,911.935 1645.88,924.182 1648.11,936.323 1650.34,948.343 1652.57,960.226 1654.81,971.958 1657.04,983.526 1659.27,994.916 1661.51,1006.12 1663.74,1017.12 1665.97,1027.91 1668.2,1038.49 1670.44,1048.83 1672.67,1058.95 1674.9,1068.82 1677.14,1078.44 1679.37,1087.82 1681.6,1096.94 1683.83,1105.8 1686.07,1114.41 1688.3,1122.75 1690.53,1130.82 1692.76,1138.64 1695,1146.19 1697.23,1153.48 1699.46,1160.51 1701.7,1167.28 1703.93,1173.8 1706.16,1180.06 1708.39,1186.08 1710.63,1191.85 1712.86,1197.38 1715.09,1202.67 1717.33,1207.73 1719.56,1212.57 1721.79,1217.18 1724.02,1221.58 1726.26,1225.78 1728.49,1229.76 1730.72,1233.56 1732.96,1237.16 1735.19,1240.57 1737.42,1243.81 1739.65,1246.88 1741.89,1249.78 1744.12,1252.52 1746.35,1255.11 1748.59,1257.55 1750.82,1259.85 1753.05,1262.02 1755.28,1264.06 1757.52,1265.97 1759.75,1267.77 1761.98,1269.46 1764.21,1271.04 1766.45,1272.52 1768.68,1273.9 1770.91,1275.19 1773.15,1276.4 1775.38,1277.53 1777.61,1278.58 1779.84,1279.55 1782.08,1280.46 1784.31,1281.31 1786.54,1282.09 1788.78,1282.82 1791.01,1283.49 1793.24,1284.12 1795.47,1284.69 1797.71,1285.23 1799.94,1285.72 1802.17,1286.18 1804.41,1286.6 1806.64,1286.98 1808.87,1287.34 1811.1,1287.66 1813.34,1287.96 1815.57,1288.24 1817.8,1288.49 1820.03,1288.72 1822.27,1288.93 1824.5,1289.13 1826.73,1289.3 1828.97,1289.46 1831.2,1289.61 1833.43,1289.75 1835.66,1289.87 1837.9,1289.98 1840.13,1290.08 1842.36,1290.17 1844.6,1290.25 1846.83,1290.33 1849.06,1290.4 1851.29,1290.46 1853.53,1290.51 1855.76,1290.56 1857.99,1290.61 1860.23,1290.65 1862.46,1290.69 1864.69,1290.72 1866.92,1290.75 1869.16,1290.78 1871.39,1290.8 1873.62,1290.82 1875.86,1290.84 1878.09,1290.86 1880.32,1290.88 1882.55,1290.89 1884.79,1290.9 1887.02,1290.91 1889.25,1290.92 1891.48,1290.93 1893.72,1290.94 1895.95,1290.95 1898.18,1290.95 1900.42,1290.96 1902.65,1290.96 1904.88,1290.97 1907.11,1290.97 1909.35,1290.97 1911.58,1290.98 1913.81,1290.98 1916.05,1290.98 1918.28,1290.98 1920.51,1290.99 1922.74,1290.99 1924.98,1290.99 1927.21,1290.99 1929.44,1290.99 1931.68,1290.99 1933.91,1290.99 1936.14,1290.99 1938.37,1290.99 1940.61,1291 1942.84,1291 1945.07,1291 1947.3,1291 1949.54,1291 1951.77,1291 1954,1291 1956.24,1291 1958.47,1291 1960.7,1291 1962.93,1291 1965.17,1291 1967.4,1291 1969.63,1291 1971.87,1291 1974.1,1291 1976.33,1291 1978.56,1291 1980.8,1291 1983.03,1291 1985.26,1291 1987.5,1291 1989.73,1291 1991.96,1291 1994.19,1291 1996.43,1291 1998.66,1291 2000.89,1291 2003.13,1291 2005.36,1291 2007.59,1291 2009.82,1291 2012.06,1291 2014.29,1291 2016.52,1291 2018.75,1291 2020.99,1291 2023.22,1291 2025.45,1291 2027.69,1291 2029.92,1291 2032.15,1291 2034.38,1291 2036.62,1291 2038.85,1291 2041.08,1291 2043.32,1291 2045.55,1291 2047.78,1291 2050.01,1291 2052.25,1291 2054.48,1291 2056.71,1291 2058.95,1291 2061.18,1291 2063.41,1291 2065.64,1291 2067.88,1291 2070.11,1291 2072.34,1291 2074.57,1291 2076.81,1291 2079.04,1291 2081.27,1291 2083.51,1291 2085.74,1291 2087.97,1291 2090.2,1291 2092.44,1291 2094.67,1291 2096.9,1291 2099.14,1291 2101.37,1291 2103.6,1291 2105.83,1291 2108.07,1291 2110.3,1291 2112.53,1291 2114.77,1291 2117,1291 2119.23,1291 2121.46,1291 2123.7,1291 2125.93,1291 2128.16,1291 2130.4,1291 2132.63,1291 2134.86,1291 2137.09,1291 2139.33,1291 2141.56,1291 2143.79,1291 2146.02,1291 2148.26,1291 2150.49,1291 2152.72,1291 2154.96,1291 2157.19,1291 2159.42,1291 2161.65,1291 2163.89,1291 2166.12,1291 2168.35,1291 2170.59,1291 2172.82,1291 2175.05,1291 2177.28,1291 2179.52,1291 2181.75,1291 2183.98,1291 2186.22,1291 2188.45,1291 2190.68,1291 2192.91,1291 2195.15,1291 2197.38,1291 2199.61,1291 2201.84,1291 2204.08,1291 2206.31,1291 2208.54,1291 2210.78,1291 2213.01,1291 2215.24,1291 2217.47,1291 2219.71,1291 2221.94,1291 2224.17,1291 2226.41,1291 2228.64,1291 2230.87,1291 2233.1,1291 2235.34,1291 2237.57,1291 2239.8,1291 2242.04,1291 2244.27,1291 2246.5,1291 2248.73,1291 2250.97,1291 2253.2,1291 2255.43,1291 2257.67,1291 2259.9,1291 2262.13,1291 2264.36,1291 2266.6,1291 2268.83,1291 2271.06,1291 2273.29,1291 2275.53,1291 2277.76,1291 2279.99,1291 2282.23,1291 2284.46,1291 2286.69,1291 2288.92,1291 2291.16,1291 2293.39,1291 2295.62,1291 2297.86,1291 2300.09,1291 2302.32,1291 2304.55,1291 2306.79,1291 2309.02,1291 2311.25,1291 2313.49,1291 2315.72,1291 2317.95,1291 2320.18,1291 2322.42,1291 2324.65,1291 2326.88,1291 2329.11,1291 2331.35,1291 2333.58,1291 2335.81,1291 "/>
<path clip-path="url(#clip560)" d="M1637.71 402.83 L2053.27 402.83 L2053.27 89.9101 L1637.71 89.9101  Z" fill="#ffffff" fill-rule="evenodd" fill-opacity="1"/>
<polyline clip-path="url(#clip560)" style="stroke:#000000; stroke-linecap:round; stroke-linejoin:round; stroke-width:4; stroke-opacity:1; fill:none" points="1637.71,402.83 2053.27,402.83 2053.27,89.9101 1637.71,89.9101 1637.71,402.83 "/>
<polyline clip-path="url(#clip560)" style="stroke:#009af9; stroke-linecap:round; stroke-linejoin:round; stroke-width:24; stroke-opacity:1; fill:none" points="1657.54,168.14 1776.5,168.14 "/>
<g clip-path="url(#clip560)">
<text style="fill:#000000; fill-opacity:1; font-family:Times New Roman,TimesNewRoman,Times,Baskerville,Georgia,serif; font-size:79px; text-anchor:start;" transform="rotate(0, 1796.33, 194.14)" x="1796.33" y="194.14">w/o opt</text>
</g>
<polyline clip-path="url(#clip560)" style="stroke:#e26f46; stroke-linecap:round; stroke-linejoin:round; stroke-width:24; stroke-opacity:1; fill:none" points="1657.54,246.37 1776.5,246.37 "/>
<g clip-path="url(#clip560)">
<text style="fill:#000000; fill-opacity:1; font-family:Times New Roman,TimesNewRoman,Times,Baskerville,Georgia,serif; font-size:79px; text-anchor:start;" transform="rotate(0, 1796.33, 272.37)" x="1796.33" y="272.37">w opt</text>
</g>
<polyline clip-path="url(#clip560)" style="stroke:#000000; stroke-linecap:round; stroke-linejoin:round; stroke-width:15; stroke-opacity:1; fill:none" stroke-dasharray="60, 38" points="1657.54,324.6 1776.5,324.6 "/>
<g clip-path="url(#clip560)">
<text style="fill:#000000; fill-opacity:1; font-family:Times New Roman,TimesNewRoman,Times,Baskerville,Georgia,serif; font-size:79px; text-anchor:start;" transform="rotate(0, 1796.33, 350.6)" x="1796.33" y="350.6">exact</text>
</g>
</svg>
