<?xml version="1.0" encoding="utf-8"?>
<svg xmlns="http://www.w3.org/2000/svg" xmlns:xlink="http://www.w3.org/1999/xlink" width="540" height="400" viewBox="0 0 2160 1600">
<defs>
  <clipPath id="clip110">
    <rect x="0" y="0" width="2160" height="1600"/>
  </clipPath>
</defs>
<path clip-path="url(#clip110)" d="M0 1600 L2160 1600 L2160 0 L0 0  Z" fill="#ffffff" fill-rule="evenodd" fill-opacity="1"/>
<defs>
  <clipPath id="clip111">
    <rect x="432" y="0" width="1513" height="1513"/>
  </clipPath>
</defs>
<defs>
  <clipPath id="clip112">
    <rect x="306" y="202" width="1812" height="1158"/>
  </clipPath>
</defs>
<path clip-path="url(#clip110)" d="M328.297 1327.22 L2112.76 1327.22 L2112.76 47.2441 L328.297 47.2441  Z" fill="#ffffff" fill-rule="evenodd" fill-opacity="1"/>
<defs>
  <clipPath id="clip113">
    <rect x="328" y="47" width="1785" height="1281"/>
  </clipPath>
</defs>
<polyline clip-path="url(#clip113)" style="stroke:#000000; stroke-linecap:round; stroke-linejoin:round; stroke-width:2; stroke-opacity:0.1; fill:none" points="1778.17,1327.22 1778.17,47.2441 "/>
<polyline clip-path="url(#clip113)" style="stroke:#000000; stroke-linecap:round; stroke-linejoin:round; stroke-width:2; stroke-opacity:0.1; fill:none" points="1220.53,1327.22 1220.53,47.2441 "/>
<polyline clip-path="url(#clip113)" style="stroke:#000000; stroke-linecap:round; stroke-linejoin:round; stroke-width:2; stroke-opacity:0.1; fill:none" points="662.883,1327.22 662.883,47.2441 "/>
<polyline clip-path="url(#clip110)" style="stroke:#000000; stroke-linecap:round; stroke-linejoin:round; stroke-width:4; stroke-opacity:1; fill:none" points="328.297,1327.22 2112.76,1327.22 "/>
<polyline clip-path="url(#clip110)" style="stroke:#000000; stroke-linecap:round; stroke-linejoin:round; stroke-width:4; stroke-opacity:1; fill:none" points="328.297,47.2441 2112.76,47.2441 "/>
<polyline clip-path="url(#clip110)" style="stroke:#000000; stroke-linecap:round; stroke-linejoin:round; stroke-width:4; stroke-opacity:1; fill:none" points="1778.17,1327.22 1778.17,1308.33 "/>
<polyline clip-path="url(#clip110)" style="stroke:#000000; stroke-linecap:round; stroke-linejoin:round; stroke-width:4; stroke-opacity:1; fill:none" points="1220.53,1327.22 1220.53,1308.33 "/>
<polyline clip-path="url(#clip110)" style="stroke:#000000; stroke-linecap:round; stroke-linejoin:round; stroke-width:4; stroke-opacity:1; fill:none" points="662.883,1327.22 662.883,1308.33 "/>
<g clip-path="url(#clip110)">
<text style="fill:#000000; fill-opacity:1; font-family:Times New Roman,TimesNewRoman,Times,Baskerville,Georgia,serif; font-size:98px; text-anchor:middle;" transform="rotate(0, 1778.17, 1425.9)" x="1778.17" y="1425.9">5</text>
</g>
<g clip-path="url(#clip110)">
<text style="fill:#000000; fill-opacity:1; font-family:Times New Roman,TimesNewRoman,Times,Baskerville,Georgia,serif; font-size:98px; text-anchor:middle;" transform="rotate(0, 1220.53, 1425.9)" x="1220.53" y="1425.9">0</text>
</g>
<g clip-path="url(#clip110)">
<text style="fill:#000000; fill-opacity:1; font-family:Times New Roman,TimesNewRoman,Times,Baskerville,Georgia,serif; font-size:98px; text-anchor:middle;" transform="rotate(0, 662.883, 1425.9)" x="662.883" y="1425.9">−5</text>
</g>
<path clip-path="url(#clip110)" d="M1257.86 1493.49 Q1257.86 1499.48 1254.83 1511.08 Q1253.61 1516.1 1251.93 1520.68 Q1250.32 1525.18 1247.94 1529.56 Q1245.56 1533.94 1242.79 1537.1 Q1240.02 1540.19 1236.41 1542.12 Q1232.8 1544.06 1228.81 1544.06 Q1222.5 1544.06 1218.76 1540.32 Q1215.09 1536.52 1213.93 1530.01 Q1205.3 1544.06 1193.77 1544.06 Q1186.62 1544.06 1183.27 1538.97 Q1179.92 1533.82 1179.92 1525.18 Q1179.92 1517.91 1181.85 1510.37 Q1185.52 1496.07 1192.67 1486.09 Q1193.64 1484.93 1195.06 1484.93 Q1195.89 1484.93 1196.28 1485.18 Q1197.44 1485.89 1197.44 1487.05 Q1197.44 1487.89 1196.8 1488.73 Q1192.29 1494.97 1189.32 1500.32 Q1186.36 1505.67 1185.01 1511.08 Q1183.98 1515.72 1183.98 1519.64 Q1183.98 1526.28 1186.81 1530.4 Q1189.71 1534.52 1195.44 1534.52 Q1200.72 1534.52 1205.36 1531.24 Q1210 1527.89 1213.41 1522.29 Q1213.61 1516.17 1215.09 1510.37 Q1216.44 1504.19 1219.6 1504.19 Q1222.11 1504.19 1222.11 1507.6 Q1222.11 1508.76 1221.59 1511.08 Q1220.18 1517.2 1217.6 1522.67 Q1218.5 1528.02 1221.85 1531.3 Q1225.2 1534.52 1230.55 1534.52 Q1235.51 1534.52 1239.89 1530.92 Q1244.33 1527.31 1247.17 1522.03 Q1250.06 1516.68 1251.67 1510.37 Q1252.19 1508.24 1252.19 1505.54 Q1252.19 1498.32 1247.17 1493.88 Q1245.75 1492.46 1245.75 1490.59 Q1245.75 1488.4 1247.55 1486.41 Q1249.68 1484.28 1252.19 1484.28 Q1254.06 1484.28 1255.22 1485.44 Q1257.86 1487.76 1257.86 1493.49 Z" fill="#000000" fill-rule="nonzero" fill-opacity="1" /><polyline clip-path="url(#clip113)" style="stroke:#000000; stroke-linecap:round; stroke-linejoin:round; stroke-width:2; stroke-opacity:0.1; fill:none" points="328.297,1291.01 2112.76,1291.01 "/>
<polyline clip-path="url(#clip113)" style="stroke:#000000; stroke-linecap:round; stroke-linejoin:round; stroke-width:2; stroke-opacity:0.1; fill:none" points="328.297,912.652 2112.76,912.652 "/>
<polyline clip-path="url(#clip113)" style="stroke:#000000; stroke-linecap:round; stroke-linejoin:round; stroke-width:2; stroke-opacity:0.1; fill:none" points="328.297,534.291 2112.76,534.291 "/>
<polyline clip-path="url(#clip113)" style="stroke:#000000; stroke-linecap:round; stroke-linejoin:round; stroke-width:2; stroke-opacity:0.1; fill:none" points="328.297,155.931 2112.76,155.931 "/>
<polyline clip-path="url(#clip110)" style="stroke:#000000; stroke-linecap:round; stroke-linejoin:round; stroke-width:4; stroke-opacity:1; fill:none" points="328.297,1327.22 328.297,47.2441 "/>
<polyline clip-path="url(#clip110)" style="stroke:#000000; stroke-linecap:round; stroke-linejoin:round; stroke-width:4; stroke-opacity:1; fill:none" points="2112.76,1327.22 2112.76,47.2441 "/>
<polyline clip-path="url(#clip110)" style="stroke:#000000; stroke-linecap:round; stroke-linejoin:round; stroke-width:4; stroke-opacity:1; fill:none" points="328.297,1291.01 347.194,1291.01 "/>
<polyline clip-path="url(#clip110)" style="stroke:#000000; stroke-linecap:round; stroke-linejoin:round; stroke-width:4; stroke-opacity:1; fill:none" points="328.297,912.652 347.194,912.652 "/>
<polyline clip-path="url(#clip110)" style="stroke:#000000; stroke-linecap:round; stroke-linejoin:round; stroke-width:4; stroke-opacity:1; fill:none" points="328.297,534.291 347.194,534.291 "/>
<polyline clip-path="url(#clip110)" style="stroke:#000000; stroke-linecap:round; stroke-linejoin:round; stroke-width:4; stroke-opacity:1; fill:none" points="328.297,155.931 347.194,155.931 "/>
<g clip-path="url(#clip110)">
<text style="fill:#000000; fill-opacity:1; font-family:Times New Roman,TimesNewRoman,Times,Baskerville,Georgia,serif; font-size:98px; text-anchor:middle;" transform="rotate(0, 234.718, 1323.51)" x="234.718" y="1323.51">0.0</text>
</g>
<g clip-path="url(#clip110)">
<text style="fill:#000000; fill-opacity:1; font-family:Times New Roman,TimesNewRoman,Times,Baskerville,Georgia,serif; font-size:98px; text-anchor:middle;" transform="rotate(0, 234.718, 945.152)" x="234.718" y="945.152">0.1</text>
</g>
<g clip-path="url(#clip110)">
<text style="fill:#000000; fill-opacity:1; font-family:Times New Roman,TimesNewRoman,Times,Baskerville,Georgia,serif; font-size:98px; text-anchor:middle;" transform="rotate(0, 234.718, 566.791)" x="234.718" y="566.791">0.2</text>
</g>
<g clip-path="url(#clip110)">
<text style="fill:#000000; fill-opacity:1; font-family:Times New Roman,TimesNewRoman,Times,Baskerville,Georgia,serif; font-size:98px; text-anchor:middle;" transform="rotate(0, 234.718, 188.431)" x="234.718" y="188.431">0.3</text>
</g>
<path clip-path="url(#clip110)" d="M79.9972 754.181 Q89.5302 754.181 98.4834 759.076 Q107.437 763.907 112.847 771.508 Q118.258 779.044 118.258 786.645 Q118.258 795.211 109.369 799.656 Q141.639 807.707 142.477 808.158 Q145.246 810.026 145.246 812.731 Q145.246 814.406 144.216 815.437 Q143.25 816.467 141.704 816.467 Q141.188 816.403 139.578 816.016 L87.7266 803.134 Q75.6816 800.171 67.1149 791.218 Q58.4837 782.2 58.4837 772.538 Q58.4837 764.873 64.2163 759.527 Q69.949 754.181 79.9972 754.181 M74.329 763.65 Q67.8878 763.65 64.6672 766.226 Q61.3822 768.802 61.3822 772.796 Q61.3822 776.467 64.3452 780.912 Q67.3081 785.292 73.8781 789.157 Q77.6784 791.218 82.3805 792.699 Q87.0825 794.181 98.6766 797.079 Q103.314 798.11 103.572 798.11 Q104.087 798.11 105.247 797.852 Q106.406 797.53 108.21 796.757 Q109.949 795.92 111.495 794.76 Q113.04 793.601 114.2 791.475 Q115.295 789.35 115.295 786.773 Q115.295 782.78 112.074 778.529 Q108.789 774.213 102.799 771.057 Q97.9681 768.416 88.886 766.033 Q79.7396 763.65 74.329 763.65 Z" fill="#000000" fill-rule="nonzero" fill-opacity="1" /><path clip-path="url(#clip110)" d="M83.7975 740.523 Q61.5111 740.523 43.5402 732.214 Q36.004 728.671 29.6917 723.711 Q23.3793 718.752 20.6096 715.467 Q17.8399 712.182 17.8399 711.28 Q17.8399 709.992 19.1281 709.927 Q19.7723 709.927 21.3826 711.666 Q43.0249 732.922 83.7975 732.858 Q124.699 732.858 145.504 712.182 Q147.758 709.927 148.467 709.927 Q149.755 709.927 149.755 711.28 Q149.755 712.182 147.114 715.338 Q144.473 718.494 138.419 723.389 Q132.364 728.285 124.957 731.827 Q106.986 740.523 83.7975 740.523 Z" fill="#000000" fill-rule="nonzero" fill-opacity="1" /><path clip-path="url(#clip110)" d="M67.6946 624.602 Q73.6849 624.602 85.279 627.63 Q90.3031 628.854 94.8763 630.528 Q99.3851 632.139 103.765 634.522 Q108.145 636.905 111.301 639.675 Q114.393 642.444 116.325 646.051 Q118.258 649.659 118.258 653.652 Q118.258 659.964 114.522 663.7 Q110.722 667.372 104.216 668.531 Q118.258 677.162 118.258 688.692 Q118.258 695.842 113.169 699.191 Q108.016 702.541 99.3851 702.541 Q92.1066 702.541 84.5705 700.608 Q70.271 696.937 60.2872 689.787 Q59.1278 688.821 59.1278 687.404 Q59.1278 686.566 59.3855 686.18 Q60.094 685.021 61.2534 685.021 Q62.0908 685.021 62.9281 685.665 Q69.1761 690.173 74.5222 693.136 Q79.8684 696.099 85.279 697.452 Q89.9166 698.483 93.8457 698.483 Q100.48 698.483 104.602 695.648 Q108.725 692.75 108.725 687.017 Q108.725 681.736 105.44 677.098 Q102.09 672.46 96.4866 669.046 Q90.3675 668.853 84.5705 667.372 Q78.3869 666.019 78.3869 662.863 Q78.3869 660.351 81.8007 660.351 Q82.9602 660.351 85.279 660.866 Q91.3981 662.283 96.8731 664.86 Q102.219 663.958 105.504 660.609 Q108.725 657.259 108.725 651.913 Q108.725 646.953 105.118 642.573 Q101.511 638.129 96.229 635.295 Q90.8828 632.396 84.5705 630.786 Q82.4449 630.271 79.7396 630.271 Q72.5255 630.271 68.0811 635.295 Q66.664 636.712 64.7961 636.712 Q62.6061 636.712 60.6093 634.908 Q58.4837 632.783 58.4837 630.271 Q58.4837 628.403 59.6431 627.243 Q61.9619 624.602 67.6946 624.602 Z" fill="#000000" fill-rule="nonzero" fill-opacity="1" /><path clip-path="url(#clip110)" d="M148.467 608.656 Q147.823 608.656 146.212 606.981 Q124.57 585.725 83.7975 585.725 Q42.8961 585.725 22.2199 606.144 Q19.8367 608.656 19.1281 608.656 Q17.8399 608.656 17.8399 607.368 Q17.8399 606.466 20.4808 603.31 Q23.1217 600.089 29.1764 595.258 Q35.2311 590.363 42.6384 586.756 Q60.6093 578.06 83.7975 578.06 Q106.084 578.06 124.055 586.369 Q131.591 589.912 137.903 594.872 Q144.216 599.832 146.985 603.117 Q149.755 606.402 149.755 607.368 Q149.755 608.656 148.467 608.656 Z" fill="#000000" fill-rule="nonzero" fill-opacity="1" /><polyline clip-path="url(#clip113)" style="stroke:#009af9; stroke-linecap:round; stroke-linejoin:round; stroke-width:12; stroke-opacity:1; fill:none" points="105.239,1291 107.472,1291 109.705,1291 111.938,1291 114.17,1291 116.403,1291 118.636,1291 120.869,1291 123.102,1291 125.335,1291 127.567,1291 129.8,1291 132.033,1291 134.266,1291 136.499,1291 138.731,1291 140.964,1291 143.197,1291 145.43,1291 147.663,1291 149.895,1291 152.128,1291 154.361,1291 156.594,1291 158.827,1291 161.059,1291 163.292,1291 165.525,1291 167.758,1291 169.991,1291 172.223,1291 174.456,1291 176.689,1291 178.922,1291 181.155,1291 183.387,1291 185.62,1291 187.853,1291 190.086,1291 192.319,1291 194.552,1291 196.784,1291 199.017,1291 201.25,1291 203.483,1291 205.716,1291 207.948,1291 210.181,1290.99 212.414,1290.99 214.647,1290.99 216.88,1290.99 219.112,1290.99 221.345,1290.99 223.578,1290.99 225.811,1290.99 228.044,1290.99 230.276,1290.99 232.509,1290.99 234.742,1290.99 236.975,1290.99 239.208,1290.99 241.44,1290.99 243.673,1290.99 245.906,1290.99 248.139,1290.99 250.372,1290.99 252.604,1290.99 254.837,1290.99 257.07,1290.99 259.303,1290.99 261.536,1290.99 263.769,1290.99 266.001,1290.99 268.234,1290.99 270.467,1290.99 272.7,1290.99 274.933,1290.99 277.165,1290.99 279.398,1290.99 281.631,1290.99 283.864,1290.99 286.097,1290.99 288.329,1290.99 290.562,1290.99 292.795,1290.99 295.028,1290.99 297.261,1290.99 299.493,1290.99 301.726,1290.99 303.959,1290.99 306.192,1290.99 308.425,1290.99 310.657,1290.99 312.89,1290.99 315.123,1290.99 317.356,1290.99 319.589,1290.99 321.822,1290.99 324.054,1290.99 326.287,1290.99 328.52,1290.99 330.753,1290.99 332.986,1290.99 335.218,1290.99 337.451,1290.99 339.684,1290.99 341.917,1290.99 344.15,1290.99 346.382,1290.99 348.615,1290.99 350.848,1290.99 353.081,1290.99 355.314,1290.99 357.546,1290.99 359.779,1290.99 362.012,1290.99 364.245,1290.99 366.478,1290.99 368.71,1290.99 370.943,1290.99 373.176,1290.99 375.409,1290.99 377.642,1290.99 379.874,1290.99 382.107,1290.99 384.34,1290.99 386.573,1290.99 388.806,1290.98 391.039,1290.98 393.271,1290.98 395.504,1290.98 397.737,1290.98 399.97,1290.98 402.203,1290.98 404.435,1290.98 406.668,1290.98 408.901,1290.98 411.134,1290.98 413.367,1290.98 415.599,1290.98 417.832,1290.98 420.065,1290.98 422.298,1290.98 424.531,1290.98 426.763,1290.98 428.996,1290.98 431.229,1290.98 433.462,1290.98 435.695,1290.98 437.927,1290.98 440.16,1290.98 442.393,1290.98 444.626,1290.98 446.859,1290.98 449.092,1290.98 451.324,1290.98 453.557,1290.98 455.79,1290.98 458.023,1290.98 460.256,1290.98 462.488,1290.98 464.721,1290.98 466.954,1290.98 469.187,1290.98 471.42,1290.98 473.652,1290.98 475.885,1290.98 478.118,1290.98 480.351,1290.98 482.584,1290.98 484.816,1290.97 487.049,1290.97 489.282,1290.97 491.515,1290.97 493.748,1290.97 495.98,1290.97 498.213,1290.97 500.446,1290.97 502.679,1290.97 504.912,1290.97 507.144,1290.97 509.377,1290.97 511.61,1290.97 513.843,1290.97 516.076,1290.97 518.309,1290.97 520.541,1290.97 522.774,1290.97 525.007,1290.97 527.24,1290.97 529.473,1290.97 531.705,1290.97 533.938,1290.97 536.171,1290.97 538.404,1290.97 540.637,1290.97 542.869,1290.96 545.102,1290.96 547.335,1290.96 549.568,1290.96 551.801,1290.96 554.033,1290.96 556.266,1290.96 558.499,1290.96 560.732,1290.96 562.965,1290.96 565.197,1290.96 567.43,1290.96 569.663,1290.96 571.896,1290.95 574.129,1290.95 576.361,1290.95 578.594,1290.95 580.827,1290.95 583.06,1290.95 585.293,1290.95 587.526,1290.94 589.758,1290.94 591.991,1290.94 594.224,1290.94 596.457,1290.94 598.69,1290.93 600.922,1290.93 603.155,1290.93 605.388,1290.92 607.621,1290.92 609.854,1290.91 612.086,1290.91 614.319,1290.9 616.552,1290.89 618.785,1290.88 621.018,1290.87 623.25,1290.86 625.483,1290.85 627.716,1290.84 629.949,1290.83 632.182,1290.81 634.414,1290.79 636.647,1290.77 638.88,1290.75 641.113,1290.73 643.346,1290.71 645.579,1290.68 647.811,1290.65 650.044,1290.62 652.277,1290.59 654.51,1290.56 656.743,1290.53 658.975,1290.49 661.208,1290.46 663.441,1290.42 665.674,1290.38 667.907,1290.35 670.139,1290.31 672.372,1290.27 674.605,1290.22 676.838,1290.18 679.071,1290.13 681.303,1290.08 683.536,1290.03 685.769,1289.98 688.002,1289.92 690.235,1289.86 692.467,1289.79 694.7,1289.71 696.933,1289.64 699.166,1289.55 701.399,1289.46 703.631,1289.36 705.864,1289.25 708.097,1289.13 710.33,1289.01 712.563,1288.87 714.796,1288.72 717.028,1288.56 719.261,1288.38 721.494,1288.19 723.727,1287.98 725.96,1287.76 728.192,1287.52 730.425,1287.26 732.658,1286.98 734.891,1286.68 737.124,1286.36 739.356,1286.01 741.589,1285.65 743.822,1285.26 746.055,1284.85 748.288,1284.41 750.52,1283.95 752.753,1283.46 754.986,1282.95 757.219,1282.41 759.452,1281.85 761.684,1281.25 763.917,1280.63 766.15,1279.97 768.383,1279.28 770.616,1278.56 772.849,1277.8 775.081,1277.01 777.314,1276.17 779.547,1275.29 781.78,1274.37 784.013,1273.4 786.245,1272.37 788.478,1271.3 790.711,1270.17 792.944,1268.97 795.177,1267.72 797.409,1266.4 799.642,1265.01 801.875,1263.55 804.108,1262.01 806.341,1260.4 808.573,1258.71 810.806,1256.93 813.039,1255.08 815.272,1253.13 817.505,1251.1 819.737,1248.97 821.97,1246.75 824.203,1244.43 826.436,1242 828.669,1239.48 830.901,1236.85 833.134,1234.1 835.367,1231.25 837.6,1228.27 839.833,1225.17 842.066,1221.94 844.298,1218.59 846.531,1215.09 848.764,1211.46 850.997,1207.69 853.23,1203.76 855.462,1199.69 857.695,1195.46 859.928,1191.07 862.161,1186.52 864.394,1181.8 866.626,1176.92 868.859,1171.87 871.092,1166.64 873.325,1161.24 875.558,1155.66 877.79,1149.9 880.023,1143.96 882.256,1137.83 884.489,1131.51 886.722,1125 888.954,1118.29 891.187,1111.39 893.42,1104.28 895.653,1096.97 897.886,1089.45 900.118,1081.72 902.351,1073.78 904.584,1065.62 906.817,1057.25 909.05,1048.67 911.283,1039.87 913.515,1030.85 915.748,1021.62 917.981,1012.18 920.214,1002.52 922.447,992.653 924.679,982.572 926.912,972.28 929.145,961.777 931.378,951.065 933.611,940.145 935.843,929.018 938.076,917.685 940.309,906.149 942.542,894.413 944.775,882.479 947.007,870.353 949.24,858.038 951.473,845.54 953.706,832.865 955.939,820.019 958.171,807.009 960.404,793.84 962.637,780.519 964.87,767.053 967.103,753.448 969.336,739.711 971.568,725.849 973.801,711.868 976.034,697.777 978.267,683.583 980.5,669.297 982.732,654.928 984.965,640.487 987.198,625.984 989.431,611.432 991.664,596.842 993.896,582.225 996.129,567.593 998.362,552.956 1000.59,538.326 1002.83,523.713 1005.06,509.129 1007.29,494.584 1009.53,480.093 1011.76,465.666 1013.99,451.318 1016.22,437.063 1018.46,422.914 1020.69,408.887 1022.92,394.995 1025.16,381.251 1027.39,367.667 1029.62,354.256 1031.85,341.029 1034.09,327.999 1036.32,315.179 1038.55,302.581 1040.79,290.22 1043.02,278.109 1045.25,266.264 1047.48,254.696 1049.72,243.418 1051.95,232.442 1054.18,221.777 1056.41,211.435 1058.65,201.426 1060.88,191.76 1063.11,182.45 1065.35,173.506 1067.58,164.941 1069.81,156.764 1072.04,148.986 1074.28,141.614 1076.51,134.655 1078.74,128.115 1080.98,122.002 1083.21,116.325 1085.44,111.091 1087.67,106.308 1089.91,101.983 1092.14,98.1202 1094.37,94.7228 1096.61,91.7935 1098.84,89.3354 1101.07,87.3528 1103.3,85.85 1105.54,84.8308 1107.77,84.2969 1110,84.2477 1112.24,84.6818 1114.47,85.598 1116.7,86.9965 1118.93,88.8779 1121.17,91.2419 1123.4,94.0856 1125.63,97.4039 1127.86,101.191 1130.1,105.444 1132.33,110.158 1134.56,115.331 1136.8,120.956 1139.03,127.025 1141.26,133.527 1143.49,140.457 1145.73,147.808 1147.96,155.573 1150.19,163.739 1152.43,172.296 1154.66,181.232 1156.89,190.539 1159.12,200.207 1161.36,210.222 1163.59,220.568 1165.82,231.237 1168.06,242.217 1170.29,253.495 1172.52,265.053 1174.75,276.882 1176.99,288.97 1179.22,301.304 1181.45,313.868 1183.68,326.654 1185.92,339.651 1188.15,352.845 1190.38,366.226 1192.62,379.787 1194.85,393.514 1197.08,407.395 1199.31,421.421 1201.55,435.573 1203.78,449.836 1206.01,464.192 1208.25,478.619 1210.48,493.106 1212.71,507.637 1214.94,522.211 1217.18,536.826 1219.41,551.467 1221.64,566.104 1223.88,580.725 1226.11,595.338 1228.34,609.932 1230.57,624.49 1232.81,638.984 1235.04,653.408 1237.27,667.745 1239.51,681.999 1241.74,696.168 1243.97,710.243 1246.2,724.226 1248.44,738.104 1250.67,751.866 1252.9,765.504 1255.13,779.006 1257.37,792.356 1259.6,805.545 1261.83,818.567 1264.07,831.408 1266.3,844.057 1268.53,856.512 1270.76,868.767 1273,880.815 1275.23,892.648 1277.46,904.267 1279.7,915.671 1281.93,926.855 1284.16,937.814 1286.39,948.55 1288.63,959.063 1290.86,969.355 1293.09,979.421 1295.33,989.26 1297.56,998.873 1299.79,1008.26 1302.02,1017.43 1304.26,1026.37 1306.49,1035.09 1308.72,1043.58 1310.95,1051.85 1313.19,1059.89 1315.42,1067.72 1317.65,1075.32 1319.89,1082.7 1322.12,1089.85 1324.35,1096.78 1326.58,1103.48 1328.82,1109.96 1331.05,1116.21 1333.28,1122.25 1335.52,1128.05 1337.75,1133.63 1339.98,1138.97 1342.21,1144.09 1344.45,1148.97 1346.68,1153.63 1348.91,1158.05 1351.15,1162.25 1353.38,1166.21 1355.61,1169.93 1357.84,1173.4 1360.08,1176.64 1362.31,1179.63 1364.54,1182.38 1366.78,1184.89 1369.01,1187.16 1371.24,1189.18 1373.47,1190.95 1375.71,1192.48 1377.94,1193.75 1380.17,1194.77 1382.4,1195.54 1384.64,1196.05 1386.87,1196.3 1389.1,1196.29 1391.34,1196.04 1393.57,1195.52 1395.8,1194.76 1398.03,1193.74 1400.27,1192.47 1402.5,1190.95 1404.73,1189.19 1406.97,1187.17 1409.2,1184.91 1411.43,1182.39 1413.66,1179.63 1415.9,1176.63 1418.13,1173.38 1420.36,1169.9 1422.6,1166.18 1424.83,1162.23 1427.06,1158.07 1429.29,1153.68 1431.53,1149.09 1433.76,1144.29 1435.99,1139.3 1438.22,1134.12 1440.46,1128.75 1442.69,1123.2 1444.92,1117.48 1447.16,1111.6 1449.39,1105.56 1451.62,1099.37 1453.85,1093.04 1456.09,1086.59 1458.32,1080.02 1460.55,1073.34 1462.79,1066.57 1465.02,1059.72 1467.25,1052.8 1469.48,1045.83 1471.72,1038.81 1473.95,1031.76 1476.18,1024.7 1478.42,1017.62 1480.65,1010.56 1482.88,1003.51 1485.11,996.484 1487.35,989.505 1489.58,982.581 1491.81,975.727 1494.05,968.955 1496.28,962.281 1498.51,955.718 1500.74,949.282 1502.98,942.986 1505.21,936.845 1507.44,930.871 1509.67,925.077 1511.91,919.475 1514.14,914.076 1516.37,908.892 1518.61,903.931 1520.84,899.204 1523.07,894.72 1525.3,890.488 1527.54,886.516 1529.77,882.814 1532,879.39 1534.24,876.253 1536.47,873.41 1538.7,870.87 1540.93,868.639 1543.17,866.723 1545.4,865.129 1547.63,863.86 1549.87,862.92 1552.1,862.311 1554.33,862.035 1556.56,862.091 1558.8,862.479 1561.03,863.198 1563.26,864.245 1565.49,865.617 1567.73,867.312 1569.96,869.326 1572.19,871.654 1574.43,874.293 1576.66,877.239 1578.89,880.485 1581.12,884.027 1583.36,887.859 1585.59,891.974 1587.82,896.364 1590.06,901.022 1592.29,905.938 1594.52,911.102 1596.75,916.504 1598.99,922.132 1601.22,927.974 1603.45,934.017 1605.69,940.249 1607.92,946.655 1610.15,953.223 1612.38,959.94 1614.62,966.791 1616.85,973.765 1619.08,980.848 1621.32,988.027 1623.55,995.292 1625.78,1002.63 1628.01,1010.03 1630.25,1017.47 1632.48,1024.96 1634.71,1032.46 1636.94,1039.98 1639.18,1047.51 1641.41,1055.02 1643.64,1062.5 1645.88,1069.95 1648.11,1077.35 1650.34,1084.7 1652.57,1091.97 1654.81,1099.16 1657.04,1106.25 1659.27,1113.24 1661.51,1120.12 1663.74,1126.88 1665.97,1133.51 1668.2,1140 1670.44,1146.35 1672.67,1152.56 1674.9,1158.62 1677.14,1164.52 1679.37,1170.27 1681.6,1175.86 1683.83,1181.28 1686.07,1186.54 1688.3,1191.64 1690.53,1196.57 1692.76,1201.33 1695,1205.93 1697.23,1210.35 1699.46,1214.61 1701.7,1218.69 1703.93,1222.61 1706.16,1226.36 1708.39,1229.94 1710.63,1233.36 1712.86,1236.61 1715.09,1239.71 1717.33,1242.64 1719.56,1245.42 1721.79,1248.06 1724.02,1250.55 1726.26,1252.9 1728.49,1255.12 1730.72,1257.21 1732.96,1259.18 1735.19,1261.03 1737.42,1262.78 1739.65,1264.43 1741.89,1265.98 1744.12,1267.45 1746.35,1268.83 1748.59,1270.14 1750.82,1271.38 1753.05,1272.56 1755.28,1273.67 1757.52,1274.74 1759.75,1275.75 1761.98,1276.72 1764.21,1277.65 1766.45,1278.54 1768.68,1279.39 1770.91,1280.21 1773.15,1280.99 1775.38,1281.74 1777.61,1282.46 1779.84,1283.14 1782.08,1283.79 1784.31,1284.41 1786.54,1284.99 1788.78,1285.54 1791.01,1286.05 1793.24,1286.52 1795.47,1286.96 1797.71,1287.37 1799.94,1287.74 1802.17,1288.08 1804.41,1288.38 1806.64,1288.66 1808.87,1288.91 1811.1,1289.14 1813.34,1289.34 1815.57,1289.52 1817.8,1289.68 1820.03,1289.82 1822.27,1289.94 1824.5,1290.06 1826.73,1290.16 1828.97,1290.24 1831.2,1290.32 1833.43,1290.39 1835.66,1290.45 1837.9,1290.51 1840.13,1290.55 1842.36,1290.6 1844.6,1290.63 1846.83,1290.67 1849.06,1290.7 1851.29,1290.72 1853.53,1290.75 1855.76,1290.77 1857.99,1290.79 1860.23,1290.8 1862.46,1290.82 1864.69,1290.83 1866.92,1290.84 1869.16,1290.86 1871.39,1290.87 1873.62,1290.87 1875.86,1290.88 1878.09,1290.89 1880.32,1290.9 1882.55,1290.9 1884.79,1290.91 1887.02,1290.91 1889.25,1290.92 1891.48,1290.92 1893.72,1290.93 1895.95,1290.93 1898.18,1290.93 1900.42,1290.94 1902.65,1290.94 1904.88,1290.94 1907.11,1290.94 1909.35,1290.94 1911.58,1290.95 1913.81,1290.95 1916.05,1290.95 1918.28,1290.95 1920.51,1290.95 1922.74,1290.96 1924.98,1290.96 1927.21,1290.96 1929.44,1290.96 1931.68,1290.96 1933.91,1290.96 1936.14,1290.96 1938.37,1290.96 1940.61,1290.96 1942.84,1290.96 1945.07,1290.97 1947.3,1290.97 1949.54,1290.97 1951.77,1290.97 1954,1290.97 1956.24,1290.97 1958.47,1290.97 1960.7,1290.97 1962.93,1290.97 1965.17,1290.97 1967.4,1290.97 1969.63,1290.97 1971.87,1290.97 1974.1,1290.97 1976.33,1290.97 1978.56,1290.97 1980.8,1290.97 1983.03,1290.98 1985.26,1290.98 1987.5,1290.98 1989.73,1290.98 1991.96,1290.98 1994.19,1290.98 1996.43,1290.98 1998.66,1290.98 2000.89,1290.98 2003.13,1290.98 2005.36,1290.98 2007.59,1290.98 2009.82,1290.98 2012.06,1290.98 2014.29,1290.98 2016.52,1290.98 2018.75,1290.98 2020.99,1290.98 2023.22,1290.98 2025.45,1290.98 2027.69,1290.98 2029.92,1290.98 2032.15,1290.98 2034.38,1290.98 2036.62,1290.98 2038.85,1290.98 2041.08,1290.98 2043.32,1290.98 2045.55,1290.98 2047.78,1290.98 2050.01,1290.98 2052.25,1290.98 2054.48,1290.98 2056.71,1290.98 2058.95,1290.99 2061.18,1290.99 2063.41,1290.99 2065.64,1290.99 2067.88,1290.99 2070.11,1290.99 2072.34,1290.99 2074.57,1290.99 2076.81,1290.99 2079.04,1290.99 2081.27,1290.99 2083.51,1290.99 2085.74,1290.99 2087.97,1290.99 2090.2,1290.99 2092.44,1290.99 2094.67,1290.99 2096.9,1290.99 2099.14,1290.99 2101.37,1290.99 2103.6,1290.99 2105.83,1290.99 2108.07,1290.99 2110.3,1290.99 2112.53,1290.99 2114.77,1290.99 2117,1290.99 2119.23,1290.99 2121.46,1290.99 2123.7,1290.99 2125.93,1290.99 2128.16,1290.99 2130.4,1290.99 2132.63,1290.99 2134.86,1290.99 2137.09,1290.99 2139.33,1290.99 2141.56,1290.99 2143.79,1290.99 2146.02,1290.99 2148.26,1290.99 2150.49,1290.99 2152.72,1290.99 2154.96,1290.99 2157.19,1290.99 2159.42,1290.99 2161.65,1290.99 2163.89,1290.99 2166.12,1290.99 2168.35,1290.99 2170.59,1290.99 2172.82,1290.99 2175.05,1290.99 2177.28,1290.99 2179.52,1290.99 2181.75,1290.99 2183.98,1290.99 2186.22,1290.99 2188.45,1290.99 2190.68,1290.99 2192.91,1290.99 2195.15,1290.99 2197.38,1290.99 2199.61,1290.99 2201.84,1290.99 2204.08,1290.99 2206.31,1290.99 2208.54,1290.99 2210.78,1290.99 2213.01,1290.99 2215.24,1290.99 2217.47,1290.99 2219.71,1291 2221.94,1291 2224.17,1291 2226.41,1291 2228.64,1291 2230.87,1291 2233.1,1291 2235.34,1291 2237.57,1291 2239.8,1291 2242.04,1291 2244.27,1291 2246.5,1291 2248.73,1291 2250.97,1291 2253.2,1291 2255.43,1291 2257.67,1291 2259.9,1291 2262.13,1291 2264.36,1291 2266.6,1291 2268.83,1291 2271.06,1291 2273.29,1291 2275.53,1291 2277.76,1291 2279.99,1291 2282.23,1291 2284.46,1291 2286.69,1291 2288.92,1291 2291.16,1291 2293.39,1291 2295.62,1291 2297.86,1291 2300.09,1291 2302.32,1291 2304.55,1291 2306.79,1291 2309.02,1291 2311.25,1291 2313.49,1291 2315.72,1291 2317.95,1291 2320.18,1291 2322.42,1291 2324.65,1291 2326.88,1291 2329.11,1291 2331.35,1291 2333.58,1291 2335.81,1291 "/>
<polyline clip-path="url(#clip113)" style="stroke:#e26f46; stroke-linecap:round; stroke-linejoin:round; stroke-width:12; stroke-opacity:1; fill:none" points="105.239,1279.77 107.472,1279.77 109.705,1279.76 111.938,1279.75 114.17,1279.74 116.403,1279.74 118.636,1279.73 120.869,1279.72 123.102,1279.72 125.335,1279.71 127.567,1279.7 129.8,1279.69 132.033,1279.69 134.266,1279.68 136.499,1279.67 138.731,1279.66 140.964,1279.66 143.197,1279.65 145.43,1279.64 147.663,1279.63 149.895,1279.63 152.128,1279.62 154.361,1279.61 156.594,1279.6 158.827,1279.59 161.059,1279.58 163.292,1279.58 165.525,1279.57 167.758,1279.56 169.991,1279.55 172.223,1279.54 174.456,1279.53 176.689,1279.52 178.922,1279.51 181.155,1279.51 183.387,1279.5 185.62,1279.49 187.853,1279.48 190.086,1279.47 192.319,1279.46 194.552,1279.45 196.784,1279.44 199.017,1279.43 201.25,1279.42 203.483,1279.41 205.716,1279.4 207.948,1279.39 210.181,1279.38 212.414,1279.37 214.647,1279.36 216.88,1279.35 219.112,1279.34 221.345,1279.33 223.578,1279.32 225.811,1279.3 228.044,1279.29 230.276,1279.28 232.509,1279.27 234.742,1279.26 236.975,1279.25 239.208,1279.24 241.44,1279.22 243.673,1279.21 245.906,1279.2 248.139,1279.19 250.372,1279.18 252.604,1279.16 254.837,1279.15 257.07,1279.14 259.303,1279.13 261.536,1279.11 263.769,1279.1 266.001,1279.09 268.234,1279.07 270.467,1279.06 272.7,1279.05 274.933,1279.03 277.165,1279.02 279.398,1279.01 281.631,1278.99 283.864,1278.98 286.097,1278.96 288.329,1278.95 290.562,1278.94 292.795,1278.92 295.028,1278.91 297.261,1278.89 299.493,1278.88 301.726,1278.86 303.959,1278.85 306.192,1278.83 308.425,1278.81 310.657,1278.8 312.89,1278.78 315.123,1278.77 317.356,1278.75 319.589,1278.73 321.822,1278.72 324.054,1278.7 326.287,1278.68 328.52,1278.66 330.753,1278.65 332.986,1278.63 335.218,1278.61 337.451,1278.59 339.684,1278.57 341.917,1278.56 344.15,1278.54 346.382,1278.52 348.615,1278.5 350.848,1278.48 353.081,1278.46 355.314,1278.44 357.546,1278.42 359.779,1278.4 362.012,1278.38 364.245,1278.36 366.478,1278.34 368.71,1278.32 370.943,1278.3 373.176,1278.27 375.409,1278.25 377.642,1278.23 379.874,1278.21 382.107,1278.19 384.34,1278.16 386.573,1278.14 388.806,1278.12 391.039,1278.09 393.271,1278.07 395.504,1278.04 397.737,1278.02 399.97,1278 402.203,1277.97 404.435,1277.94 406.668,1277.92 408.901,1277.89 411.134,1277.87 413.367,1277.84 415.599,1277.81 417.832,1277.79 420.065,1277.76 422.298,1277.73 424.531,1277.7 426.763,1277.67 428.996,1277.65 431.229,1277.62 433.462,1277.59 435.695,1277.56 437.927,1277.53 440.16,1277.5 442.393,1277.46 444.626,1277.43 446.859,1277.4 449.092,1277.37 451.324,1277.34 453.557,1277.3 455.79,1277.27 458.023,1277.24 460.256,1277.2 462.488,1277.17 464.721,1277.13 466.954,1277.1 469.187,1277.06 471.42,1277.02 473.652,1276.99 475.885,1276.95 478.118,1276.91 480.351,1276.87 482.584,1276.83 484.816,1276.79 487.049,1276.75 489.282,1276.71 491.515,1276.67 493.748,1276.63 495.98,1276.59 498.213,1276.54 500.446,1276.5 502.679,1276.46 504.912,1276.41 507.144,1276.37 509.377,1276.32 511.61,1276.27 513.843,1276.23 516.076,1276.18 518.309,1276.13 520.541,1276.08 522.774,1276.03 525.007,1275.98 527.24,1275.93 529.473,1275.88 531.705,1275.82 533.938,1275.77 536.171,1275.72 538.404,1275.66 540.637,1275.6 542.869,1275.55 545.102,1275.49 547.335,1275.43 549.568,1275.37 551.801,1275.31 554.033,1275.25 556.266,1275.19 558.499,1275.12 560.732,1275.06 562.965,1274.99 565.197,1274.93 567.43,1274.86 569.663,1274.79 571.896,1274.72 574.129,1274.65 576.361,1274.58 578.594,1274.51 580.827,1274.43 583.06,1274.36 585.293,1274.28 587.526,1274.2 589.758,1274.12 591.991,1274.04 594.224,1273.96 596.457,1273.88 598.69,1273.79 600.922,1273.71 603.155,1273.62 605.388,1273.53 607.621,1273.44 609.854,1273.35 612.086,1273.25 614.319,1273.16 616.552,1273.06 618.785,1272.96 621.018,1272.86 623.25,1272.76 625.483,1272.66 627.716,1272.55 629.949,1272.44 632.182,1272.33 634.414,1272.22 636.647,1272.11 638.88,1271.99 641.113,1271.87 643.346,1271.75 645.579,1271.63 647.811,1271.5 650.044,1271.37 652.277,1271.24 654.51,1271.11 656.743,1270.98 658.975,1270.84 661.208,1270.7 663.441,1270.55 665.674,1270.41 667.907,1270.26 670.139,1270.1 672.372,1269.95 674.605,1269.79 676.838,1269.63 679.071,1269.46 681.303,1269.29 683.536,1269.12 685.769,1268.94 688.002,1268.76 690.235,1268.57 692.467,1268.39 694.7,1268.19 696.933,1267.99 699.166,1267.79 701.399,1267.59 703.631,1267.38 705.864,1267.16 708.097,1266.94 710.33,1266.71 712.563,1266.48 714.796,1266.24 717.028,1266 719.261,1265.75 721.494,1265.5 723.727,1265.24 725.96,1264.97 728.192,1264.7 730.425,1264.41 732.658,1264.13 734.891,1263.83 737.124,1263.53 739.356,1263.22 741.589,1262.9 743.822,1262.57 746.055,1262.23 748.288,1261.89 750.52,1261.53 752.753,1261.17 754.986,1260.79 757.219,1260.41 759.452,1260.01 761.684,1259.61 763.917,1259.19 766.15,1258.76 768.383,1258.31 770.616,1257.86 772.849,1257.39 775.081,1256.9 777.314,1256.4 779.547,1255.89 781.78,1255.36 784.013,1254.81 786.245,1254.25 788.478,1253.66 790.711,1253.06 792.944,1252.44 795.177,1251.8 797.409,1251.14 799.642,1250.45 801.875,1249.75 804.108,1249.02 806.341,1248.26 808.573,1247.48 810.806,1246.67 813.039,1245.83 815.272,1244.96 817.505,1244.05 819.737,1243.12 821.97,1242.15 824.203,1241.14 826.436,1240.1 828.669,1239.02 830.901,1237.89 833.134,1236.72 835.367,1235.5 837.6,1234.24 839.833,1232.92 842.066,1231.55 844.298,1230.12 846.531,1228.64 848.764,1227.09 850.997,1225.47 853.23,1223.78 855.462,1222.02 857.695,1220.18 859.928,1218.27 862.161,1216.26 864.394,1214.16 866.626,1211.97 868.859,1209.67 871.092,1207.26 873.325,1204.74 875.558,1202.1 877.79,1199.33 880.023,1196.43 882.256,1193.38 884.489,1190.17 886.722,1186.81 888.954,1183.28 891.187,1179.56 893.42,1175.65 895.653,1171.54 897.886,1167.21 900.118,1162.65 902.351,1157.84 904.584,1152.78 906.817,1147.45 909.05,1141.83 911.283,1135.9 913.515,1129.65 915.748,1123.05 917.981,1116.09 920.214,1108.75 922.447,1101.01 924.679,1092.84 926.912,1084.23 929.145,1075.16 931.378,1065.59 933.611,1055.52 935.843,1044.91 938.076,1033.75 940.309,1022.03 942.542,1009.71 944.775,996.796 947.007,983.264 949.24,969.107 951.473,954.321 953.706,938.904 955.939,922.862 958.171,906.203 960.404,888.945 962.637,871.111 964.87,852.73 967.103,833.84 969.336,814.487 971.568,794.721 973.801,774.601 976.034,754.19 978.267,733.557 980.5,712.772 982.732,691.909 984.965,671.04 987.198,650.237 989.431,629.566 991.664,609.09 993.896,588.862 996.129,568.93 998.362,549.33 1000.59,530.09 1002.83,511.228 1005.06,492.751 1007.29,474.66 1009.53,456.944 1011.76,439.591 1013.99,422.58 1016.22,405.89 1018.46,389.498 1020.69,373.383 1022.92,357.527 1025.16,341.917 1027.39,326.546 1029.62,311.416 1031.85,296.535 1034.09,281.924 1036.32,267.611 1038.55,253.632 1040.79,240.031 1043.02,226.859 1045.25,214.17 1047.48,202.019 1049.72,190.46 1051.95,179.542 1054.18,169.306 1056.41,159.785 1058.65,150.997 1060.88,142.947 1063.11,135.626 1065.35,129.01 1067.58,123.063 1069.81,117.737 1072.04,112.977 1074.28,108.726 1076.51,104.928 1078.74,101.529 1080.98,98.4863 1083.21,95.7698 1085.44,93.3626 1087.67,91.2631 1089.91,89.4843 1092.14,88.0509 1094.37,86.9953 1096.61,86.3525 1098.84,86.1533 1101.07,86.4185 1103.3,87.1532 1105.54,88.3429 1107.77,89.9521 1110,91.9263 1112.24,94.1973 1114.47,96.6905 1116.7,99.3356 1118.93,102.077 1121.17,104.883 1123.4,107.753 1125.63,110.717 1127.86,113.833 1130.1,117.178 1132.33,120.83 1134.56,124.858 1136.8,129.3 1139.03,134.167 1141.26,139.436 1143.49,145.07 1145.73,151.038 1147.96,157.337 1150.19,164.009 1152.43,171.144 1154.66,178.857 1156.89,187.26 1159.12,196.419 1161.36,206.327 1163.59,216.904 1165.82,228.026 1168.06,239.575 1170.29,251.483 1172.52,263.734 1174.75,276.331 1176.99,289.227 1179.22,302.287 1181.45,315.32 1183.68,328.174 1185.92,340.845 1188.15,353.491 1190.38,366.327 1192.62,379.484 1194.85,392.966 1197.08,406.763 1199.31,420.939 1201.55,435.5 1203.78,450.188 1206.01,464.619 1208.25,478.75 1210.48,492.954 1212.71,507.445 1214.94,522.146 1217.18,536.996 1219.41,551.438 1221.64,566.023 1223.88,580.875 1226.11,595.395 1228.34,609.77 1230.57,624.198 1232.81,638.962 1235.04,653.792 1237.27,668.229 1239.51,682.223 1241.74,696.007 1243.97,709.737 1246.2,723.473 1248.44,737.315 1250.67,751.371 1252.9,765.621 1255.13,779.859 1257.37,793.808 1259.6,807.271 1261.83,820.203 1264.07,832.667 1266.3,844.743 1268.53,856.472 1270.76,867.859 1273,878.91 1275.23,889.678 1277.46,900.273 1279.7,910.844 1281.93,921.528 1284.16,932.416 1286.39,943.532 1288.63,954.833 1290.86,966.237 1293.09,977.657 1295.33,989.022 1297.56,1000.29 1299.79,1011.45 1302.02,1022.51 1304.26,1033.47 1306.49,1044.32 1308.72,1055.02 1310.95,1065.5 1313.19,1075.68 1315.42,1085.47 1317.65,1094.77 1319.89,1103.51 1322.12,1111.61 1324.35,1119.04 1326.58,1125.77 1328.82,1131.8 1331.05,1137.14 1333.28,1141.81 1335.52,1145.84 1337.75,1149.28 1339.98,1152.15 1342.21,1154.5 1344.45,1156.36 1346.68,1157.77 1348.91,1158.76 1351.15,1159.37 1353.38,1159.61 1355.61,1159.52 1357.84,1159.12 1360.08,1158.44 1362.31,1157.48 1364.54,1156.27 1366.78,1154.82 1369.01,1153.14 1371.24,1151.25 1373.47,1149.17 1375.71,1146.88 1377.94,1144.42 1380.17,1141.79 1382.4,1138.98 1384.64,1136.03 1386.87,1132.92 1389.1,1129.67 1391.34,1126.29 1393.57,1122.78 1395.8,1119.15 1398.03,1115.42 1400.27,1111.59 1402.5,1107.67 1404.73,1103.67 1406.97,1099.61 1409.2,1095.49 1411.43,1091.33 1413.66,1087.15 1415.9,1082.95 1418.13,1078.75 1420.36,1074.58 1422.6,1070.44 1424.83,1066.35 1427.06,1062.32 1429.29,1058.39 1431.53,1054.55 1433.76,1050.83 1435.99,1047.24 1438.22,1043.79 1440.46,1040.51 1442.69,1037.4 1444.92,1034.48 1447.16,1031.75 1449.39,1029.23 1451.62,1026.92 1453.85,1024.82 1456.09,1022.95 1458.32,1021.31 1460.55,1019.89 1462.79,1018.7 1465.02,1017.74 1467.25,1017 1469.48,1016.48 1471.72,1016.18 1473.95,1016.09 1476.18,1016.2 1478.42,1016.5 1480.65,1017 1482.88,1017.68 1485.11,1018.52 1487.35,1019.54 1489.58,1020.71 1491.81,1022.02 1494.05,1023.47 1496.28,1025.05 1498.51,1026.75 1500.74,1028.56 1502.98,1030.48 1505.21,1032.49 1507.44,1034.59 1509.67,1036.77 1511.91,1039.03 1514.14,1041.35 1516.37,1043.73 1518.61,1046.17 1520.84,1048.65 1523.07,1051.18 1525.3,1053.75 1527.54,1056.35 1529.77,1058.97 1532,1061.62 1534.24,1064.3 1536.47,1066.98 1538.7,1069.69 1540.93,1072.39 1543.17,1075.11 1545.4,1077.83 1547.63,1080.54 1549.87,1083.26 1552.1,1085.97 1554.33,1088.67 1556.56,1091.36 1558.8,1094.03 1561.03,1096.7 1563.26,1099.35 1565.49,1101.98 1567.73,1104.59 1569.96,1107.18 1572.19,1109.75 1574.43,1112.29 1576.66,1114.81 1578.89,1117.31 1581.12,1119.78 1583.36,1122.22 1585.59,1124.63 1587.82,1127.02 1590.06,1129.37 1592.29,1131.7 1594.52,1133.99 1596.75,1136.26 1598.99,1138.49 1601.22,1140.69 1603.45,1142.86 1605.69,1145 1607.92,1147.1 1610.15,1149.18 1612.38,1151.22 1614.62,1153.23 1616.85,1155.2 1619.08,1157.15 1621.32,1159.06 1623.55,1160.94 1625.78,1162.79 1628.01,1164.61 1630.25,1166.39 1632.48,1168.15 1634.71,1169.88 1636.94,1171.57 1639.18,1173.23 1641.41,1174.87 1643.64,1176.47 1645.88,1178.05 1648.11,1179.59 1650.34,1181.11 1652.57,1182.6 1654.81,1184.07 1657.04,1185.5 1659.27,1186.91 1661.51,1188.29 1663.74,1189.65 1665.97,1190.98 1668.2,1192.29 1670.44,1193.57 1672.67,1194.83 1674.9,1196.06 1677.14,1197.27 1679.37,1198.46 1681.6,1199.62 1683.83,1200.77 1686.07,1201.89 1688.3,1202.99 1690.53,1204.06 1692.76,1205.12 1695,1206.16 1697.23,1207.18 1699.46,1208.18 1701.7,1209.16 1703.93,1210.12 1706.16,1211.06 1708.39,1211.99 1710.63,1212.9 1712.86,1213.79 1715.09,1214.66 1717.33,1215.52 1719.56,1216.36 1721.79,1217.19 1724.02,1218 1726.26,1218.79 1728.49,1219.57 1730.72,1220.34 1732.96,1221.09 1735.19,1221.83 1737.42,1222.56 1739.65,1223.27 1741.89,1223.97 1744.12,1224.65 1746.35,1225.33 1748.59,1225.99 1750.82,1226.64 1753.05,1227.28 1755.28,1227.9 1757.52,1228.52 1759.75,1229.12 1761.98,1229.72 1764.21,1230.3 1766.45,1230.87 1768.68,1231.44 1770.91,1231.99 1773.15,1232.53 1775.38,1233.07 1777.61,1233.59 1779.84,1234.11 1782.08,1234.62 1784.31,1235.12 1786.54,1235.61 1788.78,1236.09 1791.01,1236.56 1793.24,1237.03 1795.47,1237.49 1797.71,1237.94 1799.94,1238.38 1802.17,1238.82 1804.41,1239.25 1806.64,1239.67 1808.87,1240.08 1811.1,1240.49 1813.34,1240.89 1815.57,1241.29 1817.8,1241.68 1820.03,1242.06 1822.27,1242.44 1824.5,1242.81 1826.73,1243.17 1828.97,1243.53 1831.2,1243.88 1833.43,1244.23 1835.66,1244.58 1837.9,1244.91 1840.13,1245.25 1842.36,1245.57 1844.6,1245.9 1846.83,1246.21 1849.06,1246.53 1851.29,1246.83 1853.53,1247.14 1855.76,1247.44 1857.99,1247.73 1860.23,1248.02 1862.46,1248.31 1864.69,1248.59 1866.92,1248.87 1869.16,1249.14 1871.39,1249.41 1873.62,1249.68 1875.86,1249.94 1878.09,1250.2 1880.32,1250.45 1882.55,1250.7 1884.79,1250.95 1887.02,1251.2 1889.25,1251.44 1891.48,1251.67 1893.72,1251.91 1895.95,1252.14 1898.18,1252.37 1900.42,1252.59 1902.65,1252.81 1904.88,1253.03 1907.11,1253.25 1909.35,1253.46 1911.58,1253.67 1913.81,1253.88 1916.05,1254.09 1918.28,1254.29 1920.51,1254.49 1922.74,1254.68 1924.98,1254.88 1927.21,1255.07 1929.44,1255.26 1931.68,1255.45 1933.91,1255.63 1936.14,1255.81 1938.37,1255.99 1940.61,1256.17 1942.84,1256.35 1945.07,1256.52 1947.3,1256.69 1949.54,1256.86 1951.77,1257.03 1954,1257.19 1956.24,1257.35 1958.47,1257.52 1960.7,1257.67 1962.93,1257.83 1965.17,1257.99 1967.4,1258.14 1969.63,1258.29 1971.87,1258.44 1974.1,1258.59 1976.33,1258.74 1978.56,1258.88 1980.8,1259.02 1983.03,1259.17 1985.26,1259.3 1987.5,1259.44 1989.73,1259.58 1991.96,1259.71 1994.19,1259.85 1996.43,1259.98 1998.66,1260.11 2000.89,1260.24 2003.13,1260.37 2005.36,1260.49 2007.59,1260.62 2009.82,1260.74 2012.06,1260.86 2014.29,1260.98 2016.52,1261.1 2018.75,1261.22 2020.99,1261.34 2023.22,1261.45 2025.45,1261.57 2027.69,1261.68 2029.92,1261.79 2032.15,1261.9 2034.38,1262.01 2036.62,1262.12 2038.85,1262.23 2041.08,1262.33 2043.32,1262.44 2045.55,1262.54 2047.78,1262.65 2050.01,1262.75 2052.25,1262.85 2054.48,1262.95 2056.71,1263.05 2058.95,1263.14 2061.18,1263.24 2063.41,1263.34 2065.64,1263.43 2067.88,1263.53 2070.11,1263.62 2072.34,1263.71 2074.57,1263.8 2076.81,1263.89 2079.04,1263.98 2081.27,1264.07 2083.51,1264.16 2085.74,1264.24 2087.97,1264.33 2090.2,1264.41 2092.44,1264.5 2094.67,1264.58 2096.9,1264.66 2099.14,1264.75 2101.37,1264.83 2103.6,1264.91 2105.83,1264.99 2108.07,1265.07 2110.3,1265.14 2112.53,1265.22 2114.77,1265.3 2117,1265.37 2119.23,1265.45 2121.46,1265.52 2123.7,1265.6 2125.93,1265.67 2128.16,1265.74 2130.4,1265.82 2132.63,1265.89 2134.86,1265.96 2137.09,1266.03 2139.33,1266.1 2141.56,1266.17 2143.79,1266.24 2146.02,1266.3 2148.26,1266.37 2150.49,1266.44 2152.72,1266.5 2154.96,1266.57 2157.19,1266.63 2159.42,1266.7 2161.65,1266.76 2163.89,1266.82 2166.12,1266.89 2168.35,1266.95 2170.59,1267.01 2172.82,1267.07 2175.05,1267.13 2177.28,1267.19 2179.52,1267.25 2181.75,1267.31 2183.98,1267.37 2186.22,1267.42 2188.45,1267.48 2190.68,1267.54 2192.91,1267.6 2195.15,1267.65 2197.38,1267.71 2199.61,1267.76 2201.84,1267.82 2204.08,1267.87 2206.31,1267.93 2208.54,1267.98 2210.78,1268.03 2213.01,1268.08 2215.24,1268.14 2217.47,1268.19 2219.71,1268.24 2221.94,1268.29 2224.17,1268.34 2226.41,1268.39 2228.64,1268.44 2230.87,1268.49 2233.1,1268.54 2235.34,1268.59 2237.57,1268.64 2239.8,1268.68 2242.04,1268.73 2244.27,1268.78 2246.5,1268.83 2248.73,1268.87 2250.97,1268.92 2253.2,1268.96 2255.43,1269.01 2257.67,1269.05 2259.9,1269.1 2262.13,1269.14 2264.36,1269.19 2266.6,1269.23 2268.83,1269.27 2271.06,1269.32 2273.29,1269.36 2275.53,1269.4 2277.76,1269.44 2279.99,1269.49 2282.23,1269.53 2284.46,1269.57 2286.69,1269.61 2288.92,1269.65 2291.16,1269.69 2293.39,1269.73 2295.62,1269.77 2297.86,1269.81 2300.09,1269.85 2302.32,1269.89 2304.55,1269.93 2306.79,1269.97 2309.02,1270 2311.25,1270.04 2313.49,1270.08 2315.72,1270.12 2317.95,1270.15 2320.18,1270.19 2322.42,1270.23 2324.65,1270.26 2326.88,1270.3 2329.11,1270.34 2331.35,1270.37 2333.58,1270.41 2335.81,1270.44 "/>
<polyline clip-path="url(#clip113)" style="stroke:#000000; stroke-linecap:round; stroke-linejoin:round; stroke-width:6; stroke-opacity:1; fill:none" stroke-dasharray="24, 15" points="662.883,1290.61 663.999,1290.59 665.116,1290.57 666.232,1290.56 667.348,1290.54 668.465,1290.52 669.581,1290.5 670.698,1290.48 671.814,1290.46 672.93,1290.43 674.047,1290.41 675.163,1290.39 676.28,1290.36 677.396,1290.34 678.512,1290.31 679.629,1290.28 680.745,1290.25 681.862,1290.22 682.978,1290.19 684.094,1290.16 685.211,1290.13 686.327,1290.09 687.444,1290.06 688.56,1290.02 689.676,1289.98 690.793,1289.94 691.909,1289.9 693.026,1289.86 694.142,1289.82 695.258,1289.77 696.375,1289.72 697.491,1289.68 698.608,1289.63 699.724,1289.57 700.84,1289.52 701.957,1289.47 703.073,1289.41 704.19,1289.35 705.306,1289.29 706.422,1289.22 707.539,1289.16 708.655,1289.09 709.772,1289.02 710.888,1288.95 712.005,1288.87 713.121,1288.79 714.237,1288.71 715.354,1288.63 716.47,1288.55 717.587,1288.46 718.703,1288.37 719.819,1288.27 720.936,1288.17 722.052,1288.07 723.169,1287.97 724.285,1287.86 725.401,1287.75 726.518,1287.64 727.634,1287.52 728.751,1287.4 729.867,1287.27 730.983,1287.15 732.1,1287.01 733.216,1286.87 734.333,1286.73 735.449,1286.59 736.565,1286.44 737.682,1286.28 738.798,1286.12 739.915,1285.96 741.031,1285.79 742.147,1285.61 743.264,1285.43 744.38,1285.24 745.497,1285.05 746.613,1284.86 747.729,1284.65 748.846,1284.44 749.962,1284.23 751.079,1284.01 752.195,1283.78 753.311,1283.54 754.428,1283.3 755.544,1283.05 756.661,1282.8 757.777,1282.53 758.893,1282.26 760.01,1281.98 761.126,1281.69 762.243,1281.4 763.359,1281.1 764.475,1280.78 765.592,1280.46 766.708,1280.13 767.825,1279.8 768.941,1279.45 770.057,1279.09 771.174,1278.72 772.29,1278.34 773.407,1277.96 774.523,1277.56 775.64,1277.15 776.756,1276.73 777.872,1276.3 778.989,1275.85 780.105,1275.4 781.222,1274.93 782.338,1274.45 783.454,1273.96 784.571,1273.45 785.687,1272.94 786.804,1272.41 787.92,1271.86 789.036,1271.3 790.153,1270.73 791.269,1270.14 792.386,1269.54 793.502,1268.92 794.618,1268.29 795.735,1267.64 796.851,1266.97 797.968,1266.29 799.084,1265.59 800.2,1264.88 801.317,1264.14 802.433,1263.39 803.55,1262.62 804.666,1261.84 805.782,1261.03 806.899,1260.2 808.015,1259.36 809.132,1258.49 810.248,1257.61 811.364,1256.7 812.481,1255.77 813.597,1254.83 814.714,1253.86 815.83,1252.86 816.946,1251.85 818.063,1250.81 819.179,1249.75 820.296,1248.66 821.412,1247.55 822.528,1246.42 823.645,1245.26 824.761,1244.08 825.878,1242.87 826.994,1241.63 828.11,1240.37 829.227,1239.07 830.343,1237.76 831.46,1236.41 832.576,1235.04 833.692,1233.63 834.809,1232.2 835.925,1230.74 837.042,1229.25 838.158,1227.72 839.275,1226.17 840.391,1224.58 841.507,1222.97 842.624,1221.32 843.74,1219.63 844.857,1217.92 845.973,1216.17 847.089,1214.38 848.206,1212.56 849.322,1210.71 850.439,1208.82 851.555,1206.9 852.671,1204.93 853.788,1202.93 854.904,1200.9 856.021,1198.82 857.137,1196.71 858.253,1194.56 859.37,1192.37 860.486,1190.14 861.603,1187.87 862.719,1185.56 863.835,1183.21 864.952,1180.82 866.068,1178.38 867.185,1175.9 868.301,1173.38 869.417,1170.82 870.534,1168.22 871.65,1165.56 872.767,1162.87 873.883,1160.13 874.999,1157.35 876.116,1154.52 877.232,1151.64 878.349,1148.72 879.465,1145.75 880.581,1142.73 881.698,1139.67 882.814,1136.56 883.931,1133.4 885.047,1130.19 886.163,1126.93 887.28,1123.63 888.396,1120.27 889.513,1116.86 890.629,1113.41 891.745,1109.9 892.862,1106.35 893.978,1102.74 895.095,1099.08 896.211,1095.37 897.327,1091.61 898.444,1087.79 899.56,1083.93 900.677,1080.01 901.793,1076.03 902.91,1072.01 904.026,1067.93 905.142,1063.8 906.259,1059.62 907.375,1055.38 908.492,1051.09 909.608,1046.75 910.724,1042.35 911.841,1037.9 912.957,1033.39 914.074,1028.83 915.19,1024.22 916.306,1019.55 917.423,1014.83 918.539,1010.05 919.656,1005.22 920.772,1000.34 921.888,995.4 923.005,990.409 924.121,985.364 925.238,980.265 926.354,975.113 927.47,969.908 928.587,964.65 929.703,959.339 930.82,953.976 931.936,948.56 933.052,943.091 934.169,937.571 935.285,932 936.402,926.377 937.518,920.703 938.634,914.978 939.751,909.203 940.867,903.378 941.984,897.504 943.1,891.581 944.216,885.61 945.333,879.59 946.449,873.523 947.566,867.409 948.682,861.248 949.798,855.041 950.915,848.789 952.031,842.493 953.148,836.152 954.264,829.768 955.38,823.341 956.497,816.872 957.613,810.361 958.73,803.811 959.846,797.22 960.962,790.59 962.079,783.922 963.195,777.217 964.312,770.476 965.428,763.698 966.544,756.886 967.661,750.04 968.777,743.162 969.894,736.251 971.01,729.31 972.127,722.338 973.243,715.338 974.359,708.31 975.476,701.256 976.592,694.175 977.709,687.071 978.825,679.943 979.941,672.792 981.058,665.621 982.174,658.43 983.291,651.221 984.407,643.994 985.523,636.751 986.64,629.493 987.756,622.221 988.873,614.938 989.989,607.644 991.105,600.34 992.222,593.028 993.338,585.709 994.455,578.385 995.571,571.057 996.687,563.727 997.804,556.396 998.92,549.065 1000.04,541.735 1001.15,534.41 1002.27,527.089 1003.39,519.775 1004.5,512.469 1005.62,505.172 1006.74,497.886 1007.85,490.613 1008.97,483.354 1010.08,476.112 1011.2,468.886 1012.32,461.68 1013.43,454.494 1014.55,447.33 1015.67,440.191 1016.78,433.077 1017.9,425.99 1019.02,418.932 1020.13,411.904 1021.25,404.909 1022.36,397.947 1023.48,391.021 1024.6,384.132 1025.71,377.282 1026.83,370.473 1027.95,363.705 1029.06,356.982 1030.18,350.304 1031.3,343.673 1032.41,337.091 1033.53,330.56 1034.65,324.08 1035.76,317.655 1036.88,311.285 1037.99,304.972 1039.11,298.718 1040.23,292.524 1041.34,286.392 1042.46,280.324 1043.58,274.321 1044.69,268.385 1045.81,262.518 1046.93,256.72 1048.04,250.994 1049.16,245.341 1050.27,239.762 1051.39,234.26 1052.51,228.835 1053.62,223.49 1054.74,218.225 1055.86,213.042 1056.97,207.942 1058.09,202.928 1059.21,197.999 1060.32,193.159 1061.44,188.407 1062.56,183.746 1063.67,179.177 1064.79,174.701 1065.9,170.319 1067.02,166.032 1068.14,161.842 1069.25,157.75 1070.37,153.758 1071.49,149.865 1072.6,146.074 1073.72,142.385 1074.84,138.801 1075.95,135.32 1077.07,131.945 1078.18,128.677 1079.3,125.517 1080.42,122.465 1081.53,119.522 1082.65,116.69 1083.77,113.969 1084.88,111.359 1086,108.862 1087.12,106.479 1088.23,104.21 1089.35,102.056 1090.47,100.017 1091.58,98.0938 1092.7,96.2876 1093.81,94.5984 1094.93,93.027 1096.05,91.5736 1097.16,90.2388 1098.28,89.023 1099.4,87.9265 1100.51,86.9496 1101.63,86.0927 1102.75,85.356 1103.86,84.7398 1104.98,84.2441 1106.09,83.8692 1107.21,83.6152 1108.33,83.4821 1109.44,83.47 1110.56,83.5789 1111.68,83.8087 1112.79,84.1594 1113.91,84.631 1115.03,85.2231 1116.14,85.9357 1117.26,86.7686 1118.38,87.7215 1119.49,88.7941 1120.61,89.9861 1121.72,91.2971 1122.84,92.7267 1123.96,94.2746 1125.07,95.9402 1126.19,97.7231 1127.31,99.6227 1128.42,101.638 1129.54,103.77 1130.66,106.016 1131.77,108.377 1132.89,110.851 1134.01,113.437 1135.12,116.136 1136.24,118.947 1137.35,121.867 1138.47,124.897 1139.59,128.036 1140.7,131.283 1141.82,134.636 1142.94,138.096 1144.05,141.66 1145.17,145.328 1146.29,149.098 1147.4,152.97 1148.52,156.943 1149.63,161.015 1150.75,165.186 1151.87,169.453 1152.98,173.816 1154.1,178.273 1155.22,182.824 1156.33,187.467 1157.45,192.2 1158.57,197.023 1159.68,201.934 1160.8,206.931 1161.92,212.014 1163.03,217.18 1164.15,222.429 1165.26,227.758 1166.38,233.167 1167.5,238.654 1168.61,244.217 1169.73,249.855 1170.85,255.566 1171.96,261.35 1173.08,267.203 1174.2,273.126 1175.31,279.115 1176.43,285.17 1177.54,291.289 1178.66,297.47 1179.78,303.712 1180.89,310.013 1182.01,316.372 1183.13,322.786 1184.24,329.254 1185.36,335.775 1186.48,342.346 1187.59,348.967 1188.71,355.635 1189.83,362.35 1190.94,369.108 1192.06,375.908 1193.17,382.75 1194.29,389.631 1195.41,396.549 1196.52,403.502 1197.64,410.49 1198.76,417.511 1199.87,424.562 1200.99,431.642 1202.11,438.75 1203.22,445.884 1204.34,453.041 1205.45,460.222 1206.57,467.423 1207.69,474.643 1208.8,481.882 1209.92,489.136 1211.04,496.404 1212.15,503.686 1213.27,510.979 1214.39,518.281 1215.5,525.592 1216.62,532.91 1217.74,540.232 1218.85,547.558 1219.97,554.886 1221.08,562.215 1222.2,569.543 1223.32,576.868 1224.43,584.19 1225.55,591.506 1226.67,598.816 1227.78,606.118 1228.9,613.41 1230.02,620.692 1231.13,627.961 1232.25,635.217 1233.36,642.458 1234.48,649.683 1235.6,656.89 1236.71,664.079 1237.83,671.248 1238.95,678.396 1240.06,685.521 1241.18,692.624 1242.3,699.701 1243.41,706.752 1244.53,713.777 1245.65,720.774 1246.76,727.741 1247.88,734.678 1248.99,741.584 1250.11,748.458 1251.23,755.299 1252.34,762.105 1253.46,768.876 1254.58,775.611 1255.69,782.309 1256.81,788.968 1257.93,795.589 1259.04,802.171 1260.16,808.712 1261.28,815.211 1262.39,821.668 1263.51,828.083 1264.62,834.453 1265.74,840.78 1266.86,847.061 1267.97,853.296 1269.09,859.485 1270.21,865.627 1271.32,871.721 1272.44,877.767 1273.56,883.763 1274.67,889.71 1275.79,895.607 1276.9,901.454 1278.02,907.249 1279.14,912.993 1280.25,918.684 1281.37,924.323 1282.49,929.909 1283.6,935.442 1284.72,940.92 1285.84,946.344 1286.95,951.714 1288.07,957.029 1289.19,962.288 1290.3,967.492 1291.42,972.64 1292.53,977.731 1293.65,982.766 1294.77,987.745 1295.88,992.666 1297,997.529 1298.12,1002.34 1299.23,1007.08 1300.35,1011.77 1301.47,1016.41 1302.58,1020.98 1303.7,1025.5 1304.81,1029.95 1305.93,1034.35 1307.05,1038.69 1308.16,1042.97 1309.28,1047.19 1310.4,1051.36 1311.51,1055.46 1312.63,1059.5 1313.75,1063.49 1314.86,1067.41 1315.98,1071.28 1317.1,1075.08 1318.21,1078.83 1319.33,1082.51 1320.44,1086.14 1321.56,1089.71 1322.68,1093.21 1323.79,1096.66 1324.91,1100.05 1326.03,1103.37 1327.14,1106.64 1328.26,1109.85 1329.38,1113 1330.49,1116.09 1331.61,1119.11 1332.72,1122.08 1333.84,1124.99 1334.96,1127.84 1336.07,1130.63 1337.19,1133.36 1338.31,1136.03 1339.42,1138.64 1340.54,1141.19 1341.66,1143.68 1342.77,1146.11 1343.89,1148.48 1345.01,1150.79 1346.12,1153.04 1347.24,1155.24 1348.35,1157.37 1349.47,1159.44 1350.59,1161.46 1351.7,1163.41 1352.82,1165.31 1353.94,1167.14 1355.05,1168.92 1356.17,1170.64 1357.29,1172.29 1358.4,1173.89 1359.52,1175.43 1360.63,1176.91 1361.75,1178.33 1362.87,1179.69 1363.98,1180.99 1365.1,1182.23 1366.22,1183.41 1367.33,1184.53 1368.45,1185.6 1369.57,1186.6 1370.68,1187.54 1371.8,1188.43 1372.92,1189.25 1374.03,1190.02 1375.15,1190.72 1376.26,1191.37 1377.38,1191.95 1378.5,1192.48 1379.61,1192.95 1380.73,1193.35 1381.85,1193.7 1382.96,1193.99 1384.08,1194.21 1385.2,1194.38 1386.31,1194.49 1387.43,1194.54 1388.54,1194.53 1389.66,1194.45 1390.78,1194.32 1391.89,1194.13 1393.01,1193.88 1394.13,1193.57 1395.24,1193.2 1396.36,1192.77 1397.48,1192.28 1398.59,1191.73 1399.71,1191.12 1400.83,1190.46 1401.94,1189.73 1403.06,1188.94 1404.17,1188.09 1405.29,1187.19 1406.41,1186.22 1407.52,1185.2 1408.64,1184.12 1409.76,1182.98 1410.87,1181.78 1411.99,1180.52 1413.11,1179.21 1414.22,1177.83 1415.34,1176.4 1416.46,1174.91 1417.57,1173.37 1418.69,1171.77 1419.8,1170.11 1420.92,1168.39 1422.04,1166.62 1423.15,1164.8 1424.27,1162.91 1425.39,1160.98 1426.5,1158.99 1427.62,1156.94 1428.74,1154.85 1429.85,1152.7 1430.97,1150.49 1432.08,1148.24 1433.2,1145.93 1434.32,1143.57 1435.43,1141.17 1436.55,1138.71 1437.67,1136.21 1438.78,1133.65 1439.9,1131.05 1441.02,1128.41 1442.13,1125.71 1443.25,1122.98 1444.37,1120.2 1445.48,1117.37 1446.6,1114.5 1447.71,1111.6 1448.83,1108.65 1449.95,1105.66 1451.06,1102.63 1452.18,1099.57 1453.3,1096.47 1454.41,1093.33 1455.53,1090.16 1456.65,1086.96 1457.76,1083.73 1458.88,1080.46 1459.99,1077.17 1461.11,1073.84 1462.23,1070.5 1463.34,1067.12 1464.46,1063.72 1465.58,1060.3 1466.69,1056.86 1467.81,1053.4 1468.93,1049.92 1470.04,1046.43 1471.16,1042.91 1472.28,1039.39 1473.39,1035.85 1474.51,1032.3 1475.62,1028.75 1476.74,1025.18 1477.86,1021.61 1478.97,1018.04 1480.09,1014.47 1481.21,1010.89 1482.32,1007.31 1483.44,1003.74 1484.56,1000.17 1485.67,996.614 1486.79,993.061 1487.9,989.518 1489.02,985.987 1490.14,982.47 1491.25,978.968 1492.37,975.483 1493.49,972.017 1494.6,968.573 1495.72,965.151 1496.84,961.753 1497.95,958.382 1499.07,955.039 1500.19,951.726 1501.3,948.445 1502.42,945.197 1503.53,941.985 1504.65,938.811 1505.77,935.675 1506.88,932.581 1508,929.528 1509.12,926.521 1510.23,923.559 1511.35,920.645 1512.47,917.781 1513.58,914.968 1514.7,912.207 1515.81,909.502 1516.93,906.852 1518.05,904.26 1519.16,901.727 1520.28,899.255 1521.4,896.845 1522.51,894.499 1523.63,892.218 1524.75,890.004 1525.86,887.857 1526.98,885.78 1528.1,883.773 1529.21,881.838 1530.33,879.976 1531.44,878.188 1532.56,876.475 1533.68,874.839 1534.79,873.279 1535.91,871.799 1537.03,870.397 1538.14,869.076 1539.26,867.836 1540.38,866.678 1541.49,865.602 1542.61,864.609 1543.73,863.701 1544.84,862.877 1545.96,862.138 1547.07,861.484 1548.19,860.917 1549.31,860.436 1550.42,860.042 1551.54,859.735 1552.66,859.515 1553.77,859.382 1554.89,859.337 1556.01,859.38 1557.12,859.51 1558.24,859.727 1559.35,860.032 1560.47,860.425 1561.59,860.904 1562.7,861.47 1563.82,862.123 1564.94,862.861 1566.05,863.686 1567.17,864.595 1568.29,865.589 1569.4,866.667 1570.52,867.829 1571.64,869.073 1572.75,870.4 1573.87,871.807 1574.98,873.295 1576.1,874.863 1577.22,876.509 1578.33,878.233 1579.45,880.033 1580.57,881.909 1581.68,883.86 1582.8,885.883 1583.92,887.979 1585.03,890.146 1586.15,892.382 1587.26,894.687 1588.38,897.059 1589.5,899.497 1590.61,901.999 1591.73,904.564 1592.85,907.19 1593.96,909.876 1595.08,912.621 1596.2,915.422 1597.31,918.279 1598.43,921.19 1599.55,924.153 1600.66,927.167 1601.78,930.229 1602.89,933.339 1604.01,936.494 1605.13,939.693 1606.24,942.935 1607.36,946.217 1608.48,949.538 1609.59,952.896 1610.71,956.289 1611.83,959.716 1612.94,963.175 1614.06,966.664 1615.17,970.181 1616.29,973.725 1617.41,977.294 1618.52,980.886 1619.64,984.5 1620.76,988.134 1621.87,991.786 1622.99,995.454 1624.11,999.136 1625.22,1002.83 1626.34,1006.54 1627.46,1010.26 1628.57,1013.98 1629.69,1017.71 1630.8,1021.45 1631.92,1025.19 1633.04,1028.93 1634.15,1032.67 1635.27,1036.41 1636.39,1040.15 1637.5,1043.88 1638.62,1047.61 1639.74,1051.33 1640.85,1055.04 1641.97,1058.74 1643.08,1062.43 1644.2,1066.11 1645.32,1069.77 1646.43,1073.42 1647.55,1077.05 1648.67,1080.66 1649.78,1084.26 1650.9,1087.83 1652.02,1091.39 1653.13,1094.92 1654.25,1098.43 1655.37,1101.92 1656.48,1105.38 1657.6,1108.81 1658.71,1112.22 1659.83,1115.59 1660.95,1118.95 1662.06,1122.27 1663.18,1125.56 1664.3,1128.82 1665.41,1132.04 1666.53,1135.24 1667.65,1138.4 1668.76,1141.53 1669.88,1144.63 1671,1147.69 1672.11,1150.71 1673.23,1153.7 1674.34,1156.65 1675.46,1159.57 1676.58,1162.45 1677.69,1165.29 1678.81,1168.09 1679.93,1170.86 1681.04,1173.59 1682.16,1176.28 1683.28,1178.93 1684.39,1181.54 1685.51,1184.11 1686.62,1186.65 1687.74,1189.14 1688.86,1191.6 1689.97,1194.01 1691.09,1196.39 1692.21,1198.73 1693.32,1201.02 1694.44,1203.28 1695.56,1205.5 1696.67,1207.68 1697.79,1209.82 1698.91,1211.92 1700.02,1213.99 1701.14,1216.01 1702.25,1218 1703.37,1219.95 1704.49,1221.86 1705.6,1223.73 1706.72,1225.57 1707.84,1227.37 1708.95,1229.13 1710.07,1230.86 1711.19,1232.55 1712.3,1234.2 1713.42,1235.82 1714.53,1237.4 1715.65,1238.95 1716.77,1240.46 1717.88,1241.94 1719,1243.39 1720.12,1244.8 1721.23,1246.18 1722.35,1247.53 1723.47,1248.85 1724.58,1250.13 1725.7,1251.38 1726.82,1252.61 1727.93,1253.8 1729.05,1254.96 1730.16,1256.1 1731.28,1257.2 1732.4,1258.28 1733.51,1259.33 1734.63,1260.35 1735.75,1261.35 1736.86,1262.31 1737.98,1263.26 1739.1,1264.17 1740.21,1265.07 1741.33,1265.93 1742.44,1266.78 1743.56,1267.6 1744.68,1268.39 1745.79,1269.17 1746.91,1269.92 1748.03,1270.65 1749.14,1271.36 1750.26,1272.05 1751.38,1272.71 1752.49,1273.36 1753.61,1273.99 1754.73,1274.6 1755.84,1275.19 1756.96,1275.76 1758.07,1276.32 1759.19,1276.86 1760.31,1277.38 1761.42,1277.88 1762.54,1278.37 1763.66,1278.84 1764.77,1279.3 1765.89,1279.74 1767.01,1280.17 1768.12,1280.58 1769.24,1280.98 1770.35,1281.37 1771.47,1281.74 1772.59,1282.11 1773.7,1282.45 1774.82,1282.79 1775.94,1283.12 1777.05,1283.43 1778.17,1283.73 "/>
<path clip-path="url(#clip110)" d="M1555.02 402.83 L2053.27 402.83 L2053.27 89.9101 L1555.02 89.9101  Z" fill="#ffffff" fill-rule="evenodd" fill-opacity="1"/>
<polyline clip-path="url(#clip110)" style="stroke:#000000; stroke-linecap:round; stroke-linejoin:round; stroke-width:4; stroke-opacity:1; fill:none" points="1555.02,402.83 2053.27,402.83 2053.27,89.9101 1555.02,89.9101 1555.02,402.83 "/>
<polyline clip-path="url(#clip110)" style="stroke:#009af9; stroke-linecap:round; stroke-linejoin:round; stroke-width:18; stroke-opacity:1; fill:none" points="1574.84,168.14 1693.81,168.14 "/>
<g clip-path="url(#clip110)">
<text style="fill:#000000; fill-opacity:1; font-family:Times New Roman,TimesNewRoman,Times,Baskerville,Georgia,serif; font-size:79px; text-anchor:start;" transform="rotate(0, 1713.64, 194.14)" x="1713.64" y="194.14">opt 128bit</text>
</g>
<polyline clip-path="url(#clip110)" style="stroke:#e26f46; stroke-linecap:round; stroke-linejoin:round; stroke-width:18; stroke-opacity:1; fill:none" points="1574.84,246.37 1693.81,246.37 "/>
<g clip-path="url(#clip110)">
<text style="fill:#000000; fill-opacity:1; font-family:Times New Roman,TimesNewRoman,Times,Baskerville,Georgia,serif; font-size:79px; text-anchor:start;" transform="rotate(0, 1713.64, 272.37)" x="1713.64" y="272.37">opt 64bit</text>
</g>
<polyline clip-path="url(#clip110)" style="stroke:#000000; stroke-linecap:round; stroke-linejoin:round; stroke-width:9; stroke-opacity:1; fill:none" stroke-dasharray="36, 23" points="1574.84,324.6 1693.81,324.6 "/>
<g clip-path="url(#clip110)">
<text style="fill:#000000; fill-opacity:1; font-family:Times New Roman,TimesNewRoman,Times,Baskerville,Georgia,serif; font-size:79px; text-anchor:start;" transform="rotate(0, 1713.64, 350.6)" x="1713.64" y="350.6">exact</text>
</g>
</svg>
