<?xml version="1.0" encoding="utf-8"?>
<svg xmlns="http://www.w3.org/2000/svg" xmlns:xlink="http://www.w3.org/1999/xlink" width="540" height="400" viewBox="0 0 2160 1600">
<defs>
  <clipPath id="clip580">
    <rect x="0" y="0" width="2160" height="1600"/>
  </clipPath>
</defs>
<path clip-path="url(#clip580)" d="M0 1600 L2160 1600 L2160 0 L0 0  Z" fill="#ffffff" fill-rule="evenodd" fill-opacity="1"/>
<defs>
  <clipPath id="clip581">
    <rect x="432" y="0" width="1513" height="1513"/>
  </clipPath>
</defs>
<defs>
  <clipPath id="clip582">
    <rect x="140" y="202" width="1978" height="1296"/>
  </clipPath>
</defs>
<path clip-path="url(#clip580)" d="M328.297 1327.22 L2112.76 1327.22 L2112.76 47.2441 L328.297 47.2441  Z" fill="#ffffff" fill-rule="evenodd" fill-opacity="1"/>
<defs>
  <clipPath id="clip583">
    <rect x="328" y="47" width="1785" height="1281"/>
  </clipPath>
</defs>
<polyline clip-path="url(#clip583)" style="stroke:#000000; stroke-linecap:round; stroke-linejoin:round; stroke-width:2; stroke-opacity:0.1; fill:none" points="1964.05,1327.22 1964.05,47.2441 "/>
<polyline clip-path="url(#clip583)" style="stroke:#000000; stroke-linecap:round; stroke-linejoin:round; stroke-width:2; stroke-opacity:0.1; fill:none" points="1220.53,1327.22 1220.53,47.2441 "/>
<polyline clip-path="url(#clip583)" style="stroke:#000000; stroke-linecap:round; stroke-linejoin:round; stroke-width:2; stroke-opacity:0.1; fill:none" points="477.002,1327.22 477.002,47.2441 "/>
<polyline clip-path="url(#clip580)" style="stroke:#000000; stroke-linecap:round; stroke-linejoin:round; stroke-width:4; stroke-opacity:1; fill:none" points="328.297,1327.22 2112.76,1327.22 "/>
<polyline clip-path="url(#clip580)" style="stroke:#000000; stroke-linecap:round; stroke-linejoin:round; stroke-width:4; stroke-opacity:1; fill:none" points="328.297,47.2441 2112.76,47.2441 "/>
<polyline clip-path="url(#clip580)" style="stroke:#000000; stroke-linecap:round; stroke-linejoin:round; stroke-width:4; stroke-opacity:1; fill:none" points="1964.05,1327.22 1964.05,1308.33 "/>
<polyline clip-path="url(#clip580)" style="stroke:#000000; stroke-linecap:round; stroke-linejoin:round; stroke-width:4; stroke-opacity:1; fill:none" points="1220.53,1327.22 1220.53,1308.33 "/>
<polyline clip-path="url(#clip580)" style="stroke:#000000; stroke-linecap:round; stroke-linejoin:round; stroke-width:4; stroke-opacity:1; fill:none" points="477.002,1327.22 477.002,1308.33 "/>
<g clip-path="url(#clip580)">
<text style="fill:#000000; fill-opacity:1; font-family:Times New Roman,TimesNewRoman,Times,Baskerville,Georgia,serif; font-size:98px; text-anchor:middle;" transform="rotate(0, 1964.05, 1425.9)" x="1964.05" y="1425.9">5</text>
</g>
<g clip-path="url(#clip580)">
<text style="fill:#000000; fill-opacity:1; font-family:Times New Roman,TimesNewRoman,Times,Baskerville,Georgia,serif; font-size:98px; text-anchor:middle;" transform="rotate(0, 1220.53, 1425.9)" x="1220.53" y="1425.9">0</text>
</g>
<g clip-path="url(#clip580)">
<text style="fill:#000000; fill-opacity:1; font-family:Times New Roman,TimesNewRoman,Times,Baskerville,Georgia,serif; font-size:98px; text-anchor:middle;" transform="rotate(0, 477.002, 1425.9)" x="477.002" y="1425.9">−5</text>
</g>
<path clip-path="url(#clip580)" d="M1257.86 1493.49 Q1257.86 1499.48 1254.83 1511.08 Q1253.61 1516.1 1251.93 1520.68 Q1250.32 1525.18 1247.94 1529.56 Q1245.56 1533.94 1242.79 1537.1 Q1240.02 1540.19 1236.41 1542.12 Q1232.8 1544.06 1228.81 1544.06 Q1222.5 1544.06 1218.76 1540.32 Q1215.09 1536.52 1213.93 1530.01 Q1205.3 1544.06 1193.77 1544.06 Q1186.62 1544.06 1183.27 1538.97 Q1179.92 1533.82 1179.92 1525.18 Q1179.92 1517.91 1181.85 1510.37 Q1185.52 1496.07 1192.67 1486.09 Q1193.64 1484.93 1195.06 1484.93 Q1195.89 1484.93 1196.28 1485.18 Q1197.44 1485.89 1197.44 1487.05 Q1197.44 1487.89 1196.8 1488.73 Q1192.29 1494.97 1189.32 1500.32 Q1186.36 1505.67 1185.01 1511.08 Q1183.98 1515.72 1183.98 1519.64 Q1183.98 1526.28 1186.81 1530.4 Q1189.71 1534.52 1195.44 1534.52 Q1200.72 1534.52 1205.36 1531.24 Q1210 1527.89 1213.41 1522.29 Q1213.61 1516.17 1215.09 1510.37 Q1216.44 1504.19 1219.6 1504.19 Q1222.11 1504.19 1222.11 1507.6 Q1222.11 1508.76 1221.59 1511.08 Q1220.18 1517.2 1217.6 1522.67 Q1218.5 1528.02 1221.85 1531.3 Q1225.2 1534.52 1230.55 1534.52 Q1235.51 1534.52 1239.89 1530.92 Q1244.33 1527.31 1247.17 1522.03 Q1250.06 1516.68 1251.67 1510.37 Q1252.19 1508.24 1252.19 1505.54 Q1252.19 1498.32 1247.17 1493.88 Q1245.75 1492.46 1245.75 1490.59 Q1245.75 1488.4 1247.55 1486.41 Q1249.68 1484.28 1252.19 1484.28 Q1254.06 1484.28 1255.22 1485.44 Q1257.86 1487.76 1257.86 1493.49 Z" fill="#000000" fill-rule="nonzero" fill-opacity="1" /><polyline clip-path="url(#clip583)" style="stroke:#000000; stroke-linecap:round; stroke-linejoin:round; stroke-width:2; stroke-opacity:0.1; fill:none" points="328.297,1291 2112.76,1291 "/>
<polyline clip-path="url(#clip583)" style="stroke:#000000; stroke-linecap:round; stroke-linejoin:round; stroke-width:2; stroke-opacity:0.1; fill:none" points="328.297,912.63 2112.76,912.63 "/>
<polyline clip-path="url(#clip583)" style="stroke:#000000; stroke-linecap:round; stroke-linejoin:round; stroke-width:2; stroke-opacity:0.1; fill:none" points="328.297,534.262 2112.76,534.262 "/>
<polyline clip-path="url(#clip583)" style="stroke:#000000; stroke-linecap:round; stroke-linejoin:round; stroke-width:2; stroke-opacity:0.1; fill:none" points="328.297,155.893 2112.76,155.893 "/>
<polyline clip-path="url(#clip580)" style="stroke:#000000; stroke-linecap:round; stroke-linejoin:round; stroke-width:4; stroke-opacity:1; fill:none" points="328.297,1327.22 328.297,47.2441 "/>
<polyline clip-path="url(#clip580)" style="stroke:#000000; stroke-linecap:round; stroke-linejoin:round; stroke-width:4; stroke-opacity:1; fill:none" points="2112.76,1327.22 2112.76,47.2441 "/>
<polyline clip-path="url(#clip580)" style="stroke:#000000; stroke-linecap:round; stroke-linejoin:round; stroke-width:4; stroke-opacity:1; fill:none" points="328.297,1291 347.194,1291 "/>
<polyline clip-path="url(#clip580)" style="stroke:#000000; stroke-linecap:round; stroke-linejoin:round; stroke-width:4; stroke-opacity:1; fill:none" points="328.297,912.63 347.194,912.63 "/>
<polyline clip-path="url(#clip580)" style="stroke:#000000; stroke-linecap:round; stroke-linejoin:round; stroke-width:4; stroke-opacity:1; fill:none" points="328.297,534.262 347.194,534.262 "/>
<polyline clip-path="url(#clip580)" style="stroke:#000000; stroke-linecap:round; stroke-linejoin:round; stroke-width:4; stroke-opacity:1; fill:none" points="328.297,155.893 347.194,155.893 "/>
<g clip-path="url(#clip580)">
<text style="fill:#000000; fill-opacity:1; font-family:Times New Roman,TimesNewRoman,Times,Baskerville,Georgia,serif; font-size:98px; text-anchor:middle;" transform="rotate(0, 234.718, 1323.5)" x="234.718" y="1323.5">0.0</text>
</g>
<g clip-path="url(#clip580)">
<text style="fill:#000000; fill-opacity:1; font-family:Times New Roman,TimesNewRoman,Times,Baskerville,Georgia,serif; font-size:98px; text-anchor:middle;" transform="rotate(0, 234.718, 945.13)" x="234.718" y="945.13">0.1</text>
</g>
<g clip-path="url(#clip580)">
<text style="fill:#000000; fill-opacity:1; font-family:Times New Roman,TimesNewRoman,Times,Baskerville,Georgia,serif; font-size:98px; text-anchor:middle;" transform="rotate(0, 234.718, 566.762)" x="234.718" y="566.762">0.2</text>
</g>
<g clip-path="url(#clip580)">
<text style="fill:#000000; fill-opacity:1; font-family:Times New Roman,TimesNewRoman,Times,Baskerville,Georgia,serif; font-size:98px; text-anchor:middle;" transform="rotate(0, 234.718, 188.393)" x="234.718" y="188.393">0.3</text>
</g>
<path clip-path="url(#clip580)" d="M79.9972 754.181 Q89.5302 754.181 98.4834 759.076 Q107.437 763.907 112.847 771.508 Q118.258 779.044 118.258 786.645 Q118.258 795.211 109.369 799.656 Q141.639 807.707 142.477 808.158 Q145.246 810.026 145.246 812.731 Q145.246 814.406 144.216 815.437 Q143.25 816.467 141.704 816.467 Q141.188 816.403 139.578 816.016 L87.7266 803.134 Q75.6816 800.171 67.1149 791.218 Q58.4837 782.2 58.4837 772.538 Q58.4837 764.873 64.2163 759.527 Q69.949 754.181 79.9972 754.181 M74.329 763.65 Q67.8878 763.65 64.6672 766.226 Q61.3822 768.802 61.3822 772.796 Q61.3822 776.467 64.3452 780.912 Q67.3081 785.292 73.8781 789.157 Q77.6784 791.218 82.3805 792.699 Q87.0825 794.181 98.6766 797.079 Q103.314 798.11 103.572 798.11 Q104.087 798.11 105.247 797.852 Q106.406 797.53 108.21 796.757 Q109.949 795.92 111.495 794.76 Q113.04 793.601 114.2 791.475 Q115.295 789.35 115.295 786.773 Q115.295 782.78 112.074 778.529 Q108.789 774.213 102.799 771.057 Q97.9681 768.416 88.886 766.033 Q79.7396 763.65 74.329 763.65 Z" fill="#000000" fill-rule="nonzero" fill-opacity="1" /><path clip-path="url(#clip580)" d="M83.7975 740.523 Q61.5111 740.523 43.5402 732.214 Q36.004 728.671 29.6917 723.711 Q23.3793 718.752 20.6096 715.467 Q17.8399 712.182 17.8399 711.28 Q17.8399 709.992 19.1281 709.927 Q19.7723 709.927 21.3826 711.666 Q43.0249 732.922 83.7975 732.858 Q124.699 732.858 145.504 712.182 Q147.758 709.927 148.467 709.927 Q149.755 709.927 149.755 711.28 Q149.755 712.182 147.114 715.338 Q144.473 718.494 138.419 723.389 Q132.364 728.285 124.957 731.827 Q106.986 740.523 83.7975 740.523 Z" fill="#000000" fill-rule="nonzero" fill-opacity="1" /><path clip-path="url(#clip580)" d="M67.6946 624.602 Q73.6849 624.602 85.279 627.63 Q90.3031 628.854 94.8763 630.528 Q99.3851 632.139 103.765 634.522 Q108.145 636.905 111.301 639.675 Q114.393 642.444 116.325 646.051 Q118.258 649.659 118.258 653.652 Q118.258 659.964 114.522 663.7 Q110.722 667.372 104.216 668.531 Q118.258 677.162 118.258 688.692 Q118.258 695.842 113.169 699.191 Q108.016 702.541 99.3851 702.541 Q92.1066 702.541 84.5705 700.608 Q70.271 696.937 60.2872 689.787 Q59.1278 688.821 59.1278 687.404 Q59.1278 686.566 59.3855 686.18 Q60.094 685.021 61.2534 685.021 Q62.0908 685.021 62.9281 685.665 Q69.1761 690.173 74.5222 693.136 Q79.8684 696.099 85.279 697.452 Q89.9166 698.483 93.8457 698.483 Q100.48 698.483 104.602 695.648 Q108.725 692.75 108.725 687.017 Q108.725 681.736 105.44 677.098 Q102.09 672.46 96.4866 669.046 Q90.3675 668.853 84.5705 667.372 Q78.3869 666.019 78.3869 662.863 Q78.3869 660.351 81.8007 660.351 Q82.9602 660.351 85.279 660.866 Q91.3981 662.283 96.8731 664.86 Q102.219 663.958 105.504 660.609 Q108.725 657.259 108.725 651.913 Q108.725 646.953 105.118 642.573 Q101.511 638.129 96.229 635.295 Q90.8828 632.396 84.5705 630.786 Q82.4449 630.271 79.7396 630.271 Q72.5255 630.271 68.0811 635.295 Q66.664 636.712 64.7961 636.712 Q62.6061 636.712 60.6093 634.908 Q58.4837 632.783 58.4837 630.271 Q58.4837 628.403 59.6431 627.243 Q61.9619 624.602 67.6946 624.602 Z" fill="#000000" fill-rule="nonzero" fill-opacity="1" /><path clip-path="url(#clip580)" d="M148.467 608.656 Q147.823 608.656 146.212 606.981 Q124.57 585.725 83.7975 585.725 Q42.8961 585.725 22.2199 606.144 Q19.8367 608.656 19.1281 608.656 Q17.8399 608.656 17.8399 607.368 Q17.8399 606.466 20.4808 603.31 Q23.1217 600.089 29.1764 595.258 Q35.2311 590.363 42.6384 586.756 Q60.6093 578.06 83.7975 578.06 Q106.084 578.06 124.055 586.369 Q131.591 589.912 137.903 594.872 Q144.216 599.832 146.985 603.117 Q149.755 606.402 149.755 607.368 Q149.755 608.656 148.467 608.656 Z" fill="#000000" fill-rule="nonzero" fill-opacity="1" /><polyline clip-path="url(#clip583)" style="stroke:#009af9; stroke-linecap:round; stroke-linejoin:round; stroke-width:20; stroke-opacity:1; fill:none" points="-266.523,1290.99 -263.546,1290.99 -260.569,1290.98 -257.592,1290.98 -254.615,1290.98 -251.638,1290.98 -248.661,1290.98 -245.684,1290.98 -242.706,1290.98 -239.729,1290.98 -236.752,1290.98 -233.775,1290.98 -230.798,1290.98 -227.821,1290.98 -224.844,1290.98 -221.867,1290.98 -218.89,1290.98 -215.913,1290.98 -212.936,1290.98 -209.959,1290.98 -206.982,1290.98 -204.005,1290.98 -201.027,1290.98 -198.05,1290.98 -195.073,1290.98 -192.096,1290.98 -189.119,1290.98 -186.142,1290.98 -183.165,1290.98 -180.188,1290.98 -177.211,1290.98 -174.234,1290.98 -171.257,1290.98 -168.28,1290.98 -165.303,1290.98 -162.325,1290.98 -159.348,1290.98 -156.371,1290.98 -153.394,1290.98 -150.417,1290.98 -147.44,1290.98 -144.463,1290.98 -141.486,1290.98 -138.509,1290.98 -135.532,1290.98 -132.555,1290.98 -129.578,1290.98 -126.601,1290.98 -123.623,1290.98 -120.646,1290.98 -117.669,1290.98 -114.692,1290.98 -111.715,1290.98 -108.738,1290.98 -105.761,1290.98 -102.784,1290.98 -99.8069,1290.98 -96.8298,1290.98 -93.8527,1290.98 -90.8756,1290.98 -87.8985,1290.98 -84.9215,1290.98 -81.9444,1290.98 -78.9673,1290.98 -75.9902,1290.98 -73.0132,1290.98 -70.0361,1290.98 -67.059,1290.98 -64.0819,1290.98 -61.1049,1290.98 -58.1278,1290.98 -55.1507,1290.98 -52.1736,1290.98 -49.1966,1290.98 -46.2195,1290.98 -43.2424,1290.98 -40.2653,1290.98 -37.2883,1290.98 -34.3112,1290.98 -31.3341,1290.98 -28.357,1290.98 -25.38,1290.98 -22.4029,1290.98 -19.4258,1290.98 -16.4487,1290.98 -13.4717,1290.98 -10.4946,1290.98 -7.5175,1290.98 -4.54042,1290.98 -1.56335,1290.98 1.41373,1290.98 4.3908,1290.98 7.36788,1290.98 10.345,1290.98 13.322,1290.98 16.2991,1290.98 19.2762,1290.98 22.2533,1290.98 25.2303,1290.98 28.2074,1290.98 31.1845,1290.98 34.1616,1290.98 37.1386,1290.98 40.1157,1290.98 43.0928,1290.98 46.0699,1290.98 49.0469,1290.98 52.024,1290.97 55.0011,1290.97 57.9782,1290.97 60.9552,1290.97 63.9323,1290.97 66.9094,1290.97 69.8865,1290.97 72.8635,1290.97 75.8406,1290.97 78.8177,1290.97 81.7948,1290.97 84.7719,1290.97 87.7489,1290.97 90.726,1290.97 93.7031,1290.97 96.6802,1290.97 99.6572,1290.97 102.634,1290.97 105.611,1290.97 108.588,1290.97 111.566,1290.97 114.543,1290.97 117.52,1290.97 120.497,1290.97 123.474,1290.97 126.451,1290.97 129.428,1290.97 132.405,1290.97 135.382,1290.97 138.359,1290.97 141.336,1290.97 144.313,1290.97 147.29,1290.97 150.268,1290.97 153.245,1290.97 156.222,1290.97 159.199,1290.97 162.176,1290.97 165.153,1290.97 168.13,1290.97 171.107,1290.97 174.084,1290.97 177.061,1290.97 180.038,1290.97 183.015,1290.97 185.992,1290.97 188.97,1290.97 191.947,1290.97 194.924,1290.97 197.901,1290.97 200.878,1290.97 203.855,1290.97 206.832,1290.96 209.809,1290.96 212.786,1290.96 215.763,1290.96 218.74,1290.96 221.717,1290.96 224.694,1290.96 227.671,1290.96 230.649,1290.96 233.626,1290.96 236.603,1290.96 239.58,1290.96 242.557,1290.96 245.534,1290.96 248.511,1290.96 251.488,1290.96 254.465,1290.96 257.442,1290.96 260.419,1290.96 263.396,1290.96 266.373,1290.96 269.351,1290.96 272.328,1290.96 275.305,1290.96 278.282,1290.96 281.259,1290.96 284.236,1290.96 287.213,1290.96 290.19,1290.96 293.167,1290.96 296.144,1290.95 299.121,1290.95 302.098,1290.95 305.075,1290.95 308.053,1290.95 311.03,1290.95 314.007,1290.95 316.984,1290.95 319.961,1290.95 322.938,1290.95 325.915,1290.95 328.892,1290.95 331.869,1290.95 334.846,1290.95 337.823,1290.95 340.8,1290.95 343.777,1290.95 346.755,1290.94 349.732,1290.94 352.709,1290.94 355.686,1290.94 358.663,1290.94 361.64,1290.94 364.617,1290.94 367.594,1290.94 370.571,1290.93 373.548,1290.93 376.525,1290.93 379.502,1290.93 382.479,1290.93 385.457,1290.92 388.434,1290.92 391.411,1290.92 394.388,1290.92 397.365,1290.91 400.342,1290.91 403.319,1290.9 406.296,1290.9 409.273,1290.89 412.25,1290.89 415.227,1290.88 418.204,1290.87 421.181,1290.86 424.158,1290.85 427.136,1290.84 430.113,1290.83 433.09,1290.81 436.067,1290.8 439.044,1290.78 442.021,1290.76 444.998,1290.74 447.975,1290.72 450.952,1290.69 453.929,1290.67 456.906,1290.64 459.883,1290.61 462.86,1290.58 465.838,1290.55 468.815,1290.51 471.792,1290.48 474.769,1290.44 477.746,1290.41 480.723,1290.37 483.7,1290.33 486.677,1290.29 489.654,1290.25 492.631,1290.21 495.608,1290.17 498.585,1290.12 501.562,1290.07 504.54,1290.02 507.517,1289.96 510.494,1289.9 513.471,1289.84 516.448,1289.77 519.425,1289.7 522.402,1289.62 525.379,1289.54 528.356,1289.45 531.333,1289.35 534.31,1289.24 537.287,1289.12 540.264,1288.99 543.242,1288.86 546.219,1288.71 549.196,1288.54 552.173,1288.37 555.15,1288.17 558.127,1287.97 561.104,1287.74 564.081,1287.5 567.058,1287.24 570.035,1286.96 573.012,1286.66 575.989,1286.34 578.966,1286 581.944,1285.63 584.921,1285.25 587.898,1284.83 590.875,1284.4 593.852,1283.94 596.829,1283.45 599.806,1282.94 602.783,1282.4 605.76,1281.83 608.737,1281.24 611.714,1280.61 614.691,1279.96 617.668,1279.27 620.645,1278.55 623.623,1277.79 626.6,1276.99 629.577,1276.16 632.554,1275.28 635.531,1274.35 638.508,1273.38 641.485,1272.36 644.462,1271.28 647.439,1270.15 650.416,1268.96 653.393,1267.7 656.37,1266.38 659.347,1264.99 662.325,1263.53 665.302,1262 668.279,1260.39 671.256,1258.69 674.233,1256.92 677.21,1255.06 680.187,1253.12 683.164,1251.08 686.141,1248.95 689.118,1246.73 692.095,1244.41 695.072,1241.99 698.049,1239.47 701.027,1236.83 704.004,1234.09 706.981,1231.23 709.958,1228.25 712.935,1225.15 715.912,1221.93 718.889,1218.57 721.866,1215.08 724.843,1211.45 727.82,1207.67 730.797,1203.75 733.774,1199.67 736.751,1195.44 739.729,1191.05 742.706,1186.5 745.683,1181.79 748.66,1176.91 751.637,1171.85 754.614,1166.63 757.591,1161.23 760.568,1155.65 763.545,1149.89 766.522,1143.94 769.499,1137.81 772.476,1131.5 775.453,1124.98 778.431,1118.28 781.408,1111.37 784.385,1104.26 787.362,1096.95 790.339,1089.43 793.316,1081.7 796.293,1073.76 799.27,1065.6 802.247,1057.23 805.224,1048.65 808.201,1039.85 811.178,1030.83 814.155,1021.6 817.133,1012.16 820.11,1002.5 823.087,992.634 826.064,982.552 829.041,972.259 832.018,961.757 834.995,951.044 837.972,940.124 840.949,928.997 843.926,917.664 846.903,906.128 849.88,894.391 852.857,882.457 855.834,870.331 858.812,858.015 861.789,845.517 864.766,832.842 867.743,819.996 870.72,806.985 873.697,793.816 876.674,780.495 879.651,767.028 882.628,753.423 885.605,739.686 888.582,725.823 891.559,711.842 894.536,697.751 897.514,683.557 900.491,669.271 903.468,654.901 906.445,640.46 909.422,625.957 912.399,611.404 915.376,596.814 918.353,582.196 921.33,567.564 924.307,552.927 927.284,538.296 930.261,523.683 933.238,509.099 936.216,494.554 939.193,480.062 942.17,465.635 945.147,451.286 948.124,437.031 951.101,422.882 954.078,408.855 957.055,394.963 960.032,381.218 963.009,367.634 965.986,354.222 968.963,340.995 971.94,327.965 974.918,315.144 977.895,302.546 980.872,290.185 983.849,278.074 986.826,266.228 989.803,254.66 992.78,243.382 995.757,232.406 998.734,221.741 1001.71,211.399 1004.69,201.389 1007.67,191.723 1010.64,182.412 1013.62,173.468 1016.6,164.903 1019.57,156.727 1022.55,148.948 1025.53,141.576 1028.5,134.616 1031.48,128.077 1034.46,121.964 1037.44,116.286 1040.41,111.052 1043.39,106.269 1046.37,101.944 1049.34,98.0812 1052.32,94.6838 1055.3,91.7544 1058.28,89.2962 1061.25,87.3135 1064.23,85.8107 1067.21,84.7915 1070.18,84.2576 1073.16,84.2084 1076.14,84.6425 1079.12,85.5587 1082.09,86.9572 1085.07,88.8387 1088.05,91.2027 1091.02,94.0465 1094,97.3648 1096.98,101.152 1099.95,105.405 1102.93,110.119 1105.91,115.293 1108.89,120.918 1111.86,126.986 1114.84,133.489 1117.82,140.419 1120.79,147.77 1123.77,155.535 1126.75,163.702 1129.73,172.258 1132.7,181.194 1135.68,190.502 1138.66,200.17 1141.63,210.185 1144.61,220.532 1147.59,231.201 1150.56,242.182 1153.54,253.459 1156.52,265.018 1159.5,276.847 1162.47,288.935 1165.45,301.269 1168.43,313.834 1171.4,326.62 1174.38,339.617 1177.36,352.812 1180.34,366.193 1183.31,379.754 1186.29,393.482 1189.27,407.363 1192.24,421.389 1195.22,435.542 1198.2,449.804 1201.18,464.161 1204.15,478.589 1207.13,493.075 1210.11,507.606 1213.08,522.182 1216.06,536.796 1219.04,551.437 1222.01,566.075 1224.99,580.697 1227.97,595.31 1230.95,609.904 1233.92,624.462 1236.9,638.956 1239.88,653.381 1242.85,667.718 1245.83,681.973 1248.81,696.142 1251.79,710.217 1254.76,724.2 1257.74,738.079 1260.72,751.841 1263.69,765.479 1266.67,778.982 1269.65,792.332 1272.63,805.522 1275.6,818.544 1278.58,831.384 1281.56,844.034 1284.53,856.489 1287.51,868.745 1290.49,880.793 1293.46,892.626 1296.44,904.245 1299.42,915.649 1302.4,926.834 1305.37,937.794 1308.35,948.529 1311.33,959.043 1314.3,969.335 1317.28,979.401 1320.26,989.24 1323.24,998.853 1326.21,1008.24 1329.19,1017.41 1332.17,1026.35 1335.14,1035.07 1338.12,1043.56 1341.1,1051.83 1344.07,1059.88 1347.05,1067.7 1350.03,1075.3 1353.01,1082.68 1355.98,1089.83 1358.96,1096.76 1361.94,1103.46 1364.91,1109.94 1367.89,1116.2 1370.87,1122.23 1373.85,1128.04 1376.82,1133.61 1379.8,1138.96 1382.78,1144.07 1385.75,1148.96 1388.73,1153.61 1391.71,1158.04 1394.69,1162.23 1397.66,1166.19 1400.64,1169.91 1403.62,1173.39 1406.59,1176.62 1409.57,1179.62 1412.55,1182.37 1415.52,1184.88 1418.5,1187.14 1421.48,1189.16 1424.46,1190.94 1427.43,1192.46 1430.41,1193.74 1433.39,1194.76 1436.36,1195.52 1439.34,1196.03 1442.32,1196.28 1445.3,1196.28 1448.27,1196.02 1451.25,1195.51 1454.23,1194.74 1457.2,1193.72 1460.18,1192.46 1463.16,1190.94 1466.14,1189.17 1469.11,1187.16 1472.09,1184.89 1475.07,1182.38 1478.04,1179.62 1481.02,1176.61 1484,1173.37 1486.97,1169.88 1489.95,1166.16 1492.93,1162.22 1495.91,1158.05 1498.88,1153.67 1501.86,1149.07 1504.84,1144.28 1507.81,1139.28 1510.79,1134.1 1513.77,1128.73 1516.75,1123.18 1519.72,1117.46 1522.7,1111.58 1525.68,1105.54 1528.65,1099.35 1531.63,1093.03 1534.61,1086.57 1537.58,1080 1540.56,1073.32 1543.54,1066.55 1546.52,1059.7 1549.49,1052.78 1552.47,1045.81 1555.45,1038.79 1558.42,1031.75 1561.4,1024.68 1564.38,1017.61 1567.36,1010.54 1570.33,1003.49 1573.31,996.464 1576.29,989.485 1579.26,982.561 1582.24,975.707 1585.22,968.935 1588.2,962.26 1591.17,955.698 1594.15,949.261 1597.13,942.965 1600.1,936.824 1603.08,930.85 1606.06,925.055 1609.03,919.454 1612.01,914.055 1614.99,908.87 1617.97,903.909 1620.94,899.182 1623.92,894.698 1626.9,890.466 1629.87,886.494 1632.85,882.792 1635.83,879.368 1638.81,876.231 1641.78,873.388 1644.76,870.848 1647.74,868.616 1650.71,866.701 1653.69,865.106 1656.67,863.837 1659.64,862.897 1662.62,862.289 1665.6,862.012 1668.58,862.068 1671.55,862.457 1674.53,863.175 1677.51,864.222 1680.48,865.595 1683.46,867.29 1686.44,869.303 1689.42,871.632 1692.39,874.271 1695.37,877.217 1698.35,880.463 1701.32,884.005 1704.3,887.837 1707.28,891.952 1710.26,896.342 1713.23,901 1716.21,905.916 1719.19,911.081 1722.16,916.483 1725.14,922.111 1728.12,927.953 1731.09,933.996 1734.07,940.228 1737.05,946.635 1740.03,953.203 1743,959.919 1745.98,966.771 1748.96,973.745 1751.93,980.828 1754.91,988.008 1757.89,995.272 1760.87,1002.61 1763.84,1010.01 1766.82,1017.45 1769.8,1024.94 1772.77,1032.44 1775.75,1039.97 1778.73,1047.49 1781.71,1055 1784.68,1062.48 1787.66,1069.93 1790.64,1077.34 1793.61,1084.68 1796.59,1091.95 1799.57,1099.14 1802.54,1106.23 1805.52,1113.22 1808.5,1120.1 1811.48,1126.86 1814.45,1133.49 1817.43,1139.98 1820.41,1146.34 1823.38,1152.55 1826.36,1158.6 1829.34,1164.51 1832.32,1170.25 1835.29,1175.84 1838.27,1181.26 1841.25,1186.53 1844.22,1191.62 1847.2,1196.55 1850.18,1201.32 1853.15,1205.91 1856.13,1210.34 1859.11,1214.59 1862.09,1218.68 1865.06,1222.6 1868.04,1226.35 1871.02,1229.93 1873.99,1233.35 1876.97,1236.6 1879.95,1239.69 1882.93,1242.63 1885.9,1245.41 1888.88,1248.04 1891.86,1250.53 1894.83,1252.88 1897.81,1255.1 1900.79,1257.19 1903.77,1259.16 1906.74,1261.02 1909.72,1262.77 1912.7,1264.42 1915.67,1265.97 1918.65,1267.44 1921.63,1268.82 1924.6,1270.13 1927.58,1271.37 1930.56,1272.54 1933.54,1273.66 1936.51,1274.72 1939.49,1275.74 1942.47,1276.71 1945.44,1277.63 1948.42,1278.52 1951.4,1279.37 1954.38,1280.19 1957.35,1280.98 1960.33,1281.73 1963.31,1282.44 1966.28,1283.13 1969.26,1283.78 1972.24,1284.4 1975.22,1284.98 1978.19,1285.52 1981.17,1286.03 1984.15,1286.51 1987.12,1286.95 1990.1,1287.35 1993.08,1287.73 1996.05,1288.06 1999.03,1288.37 2002.01,1288.65 2004.99,1288.9 2007.96,1289.12 2010.94,1289.32 2013.92,1289.5 2016.89,1289.66 2019.87,1289.81 2022.85,1289.93 2025.83,1290.04 2028.8,1290.14 2031.78,1290.23 2034.76,1290.31 2037.73,1290.38 2040.71,1290.44 2043.69,1290.49 2046.66,1290.54 2049.64,1290.58 2052.62,1290.62 2055.6,1290.65 2058.57,1290.68 2061.55,1290.71 2064.53,1290.73 2067.5,1290.76 2070.48,1290.77 2073.46,1290.79 2076.44,1290.81 2079.41,1290.82 2082.39,1290.83 2085.37,1290.84 2088.34,1290.85 2091.32,1290.86 2094.3,1290.87 2097.28,1290.88 2100.25,1290.88 2103.23,1290.89 2106.21,1290.89 2109.18,1290.9 2112.16,1290.9 2115.14,1290.91 2118.11,1290.91 2121.09,1290.92 2124.07,1290.92 2127.05,1290.92 2130.02,1290.92 2133,1290.93 2135.98,1290.93 2138.95,1290.93 2141.93,1290.93 2144.91,1290.94 2147.89,1290.94 2150.86,1290.94 2153.84,1290.94 2156.82,1290.94 2159.79,1290.94 2162.77,1290.94 2165.75,1290.95 2168.72,1290.95 2171.7,1290.95 2174.68,1290.95 2177.66,1290.95 2180.63,1290.95 2183.61,1290.95 2186.59,1290.95 2189.56,1290.95 2192.54,1290.95 2195.52,1290.95 2198.5,1290.96 2201.47,1290.96 2204.45,1290.96 2207.43,1290.96 2210.4,1290.96 2213.38,1290.96 2216.36,1290.96 2219.34,1290.96 2222.31,1290.96 2225.29,1290.96 2228.27,1290.96 2231.24,1290.96 2234.22,1290.96 2237.2,1290.96 2240.17,1290.96 2243.15,1290.96 2246.13,1290.96 2249.11,1290.96 2252.08,1290.96 2255.06,1290.96 2258.04,1290.96 2261.01,1290.97 2263.99,1290.97 2266.97,1290.97 2269.95,1290.97 2272.92,1290.97 2275.9,1290.97 2278.88,1290.97 2281.85,1290.97 2284.83,1290.97 2287.81,1290.97 2290.79,1290.97 2293.76,1290.97 2296.74,1290.97 2299.72,1290.97 2302.69,1290.97 2305.67,1290.97 2308.65,1290.97 2311.62,1290.97 2314.6,1290.97 2317.58,1290.97 2320.56,1290.97 2323.53,1290.97 2326.51,1290.97 2329.49,1290.97 2332.46,1290.97 2335.44,1290.97 2338.42,1290.97 2341.4,1290.97 2344.37,1290.97 2347.35,1290.97 2350.33,1290.97 2353.3,1290.97 2356.28,1290.97 2359.26,1290.97 2362.23,1290.97 2365.21,1290.97 2368.19,1290.97 2371.17,1290.97 2374.14,1290.97 2377.12,1290.97 2380.1,1290.97 2383.07,1290.97 2386.05,1290.97 2389.03,1290.98 2392.01,1290.98 2394.98,1290.98 2397.96,1290.98 2400.94,1290.98 2403.91,1290.98 2406.89,1290.98 2409.87,1290.98 2412.85,1290.98 2415.82,1290.98 2418.8,1290.98 2421.78,1290.98 2424.75,1290.98 2427.73,1290.98 2430.71,1290.98 2433.68,1290.98 2436.66,1290.98 2439.64,1290.98 2442.62,1290.98 2445.59,1290.98 2448.57,1290.98 2451.55,1290.98 2454.52,1290.98 2457.5,1290.98 2460.48,1290.98 2463.46,1290.98 2466.43,1290.98 2469.41,1290.98 2472.39,1290.98 2475.36,1290.98 2478.34,1290.98 2481.32,1290.98 2484.29,1290.98 2487.27,1290.98 2490.25,1290.98 2493.23,1290.98 2496.2,1290.98 2499.18,1290.98 2502.16,1290.98 2505.13,1290.98 2508.11,1290.98 2511.09,1290.98 2514.07,1290.98 2517.04,1290.98 2520.02,1290.98 2523,1290.98 2525.97,1290.98 2528.95,1290.98 2531.93,1290.98 2534.91,1290.98 2537.88,1290.98 2540.86,1290.98 2543.84,1290.98 2546.81,1290.98 2549.79,1290.98 2552.77,1290.98 2555.74,1290.98 2558.72,1290.98 2561.7,1290.98 2564.68,1290.98 2567.65,1290.98 2570.63,1290.98 2573.61,1290.98 2576.58,1290.98 2579.56,1290.98 2582.54,1290.98 2585.52,1290.98 2588.49,1290.98 2591.47,1290.98 2594.45,1290.98 2597.42,1290.98 2600.4,1290.98 2603.38,1290.98 2606.36,1290.98 2609.33,1290.98 2612.31,1290.98 2615.29,1290.98 2618.26,1290.98 2621.24,1290.98 2624.22,1290.98 2627.19,1290.98 2630.17,1290.98 2633.15,1290.98 2636.13,1290.98 2639.1,1290.98 2642.08,1290.98 2645.06,1290.98 2648.03,1290.98 2651.01,1290.98 2653.99,1290.98 2656.97,1290.98 2659.94,1290.98 2662.92,1290.98 2665.9,1290.98 2668.87,1290.98 2671.85,1290.98 2674.83,1290.98 2677.8,1290.99 2680.78,1290.99 2683.76,1290.99 2686.74,1290.99 2689.71,1290.99 2692.69,1290.99 2695.67,1290.99 2698.64,1290.99 2701.62,1290.99 2704.6,1290.99 2707.58,1290.99 "/>
<polyline clip-path="url(#clip583)" style="stroke:#e26f46; stroke-linecap:round; stroke-linejoin:round; stroke-width:20; stroke-opacity:1; fill:none" points="-266.523,1279.76 -263.546,1279.75 -260.569,1279.75 -257.592,1279.74 -254.615,1279.73 -251.638,1279.72 -248.661,1279.72 -245.684,1279.71 -242.706,1279.7 -239.729,1279.7 -236.752,1279.69 -233.775,1279.68 -230.798,1279.67 -227.821,1279.67 -224.844,1279.66 -221.867,1279.65 -218.89,1279.64 -215.913,1279.64 -212.936,1279.63 -209.959,1279.62 -206.982,1279.61 -204.005,1279.6 -201.027,1279.6 -198.05,1279.59 -195.073,1279.58 -192.096,1279.57 -189.119,1279.56 -186.142,1279.55 -183.165,1279.54 -180.188,1279.54 -177.211,1279.53 -174.234,1279.52 -171.257,1279.51 -168.28,1279.5 -165.303,1279.49 -162.325,1279.48 -159.348,1279.47 -156.371,1279.46 -153.394,1279.45 -150.417,1279.44 -147.44,1279.44 -144.463,1279.43 -141.486,1279.42 -138.509,1279.41 -135.532,1279.4 -132.555,1279.39 -129.578,1279.38 -126.601,1279.37 -123.623,1279.36 -120.646,1279.34 -117.669,1279.33 -114.692,1279.32 -111.715,1279.31 -108.738,1279.3 -105.761,1279.29 -102.784,1279.28 -99.8069,1279.27 -96.8298,1279.26 -93.8527,1279.25 -90.8756,1279.23 -87.8985,1279.22 -84.9215,1279.21 -81.9444,1279.2 -78.9673,1279.19 -75.9902,1279.18 -73.0132,1279.16 -70.0361,1279.15 -67.059,1279.14 -64.0819,1279.13 -61.1049,1279.11 -58.1278,1279.1 -55.1507,1279.09 -52.1736,1279.07 -49.1966,1279.06 -46.2195,1279.05 -43.2424,1279.03 -40.2653,1279.02 -37.2883,1279.01 -34.3112,1278.99 -31.3341,1278.98 -28.357,1278.97 -25.38,1278.95 -22.4029,1278.94 -19.4258,1278.92 -16.4487,1278.91 -13.4717,1278.89 -10.4946,1278.88 -7.5175,1278.86 -4.54042,1278.85 -1.56335,1278.83 1.41373,1278.82 4.3908,1278.8 7.36788,1278.78 10.345,1278.77 13.322,1278.75 16.2991,1278.74 19.2762,1278.72 22.2533,1278.7 25.2303,1278.68 28.2074,1278.67 31.1845,1278.65 34.1616,1278.63 37.1386,1278.61 40.1157,1278.6 43.0928,1278.58 46.0699,1278.56 49.0469,1278.54 52.024,1278.52 55.0011,1278.5 57.9782,1278.49 60.9552,1278.47 63.9323,1278.45 66.9094,1278.43 69.8865,1278.41 72.8635,1278.39 75.8406,1278.37 78.8177,1278.35 81.7948,1278.32 84.7719,1278.3 87.7489,1278.28 90.726,1278.26 93.7031,1278.24 96.6802,1278.22 99.6572,1278.19 102.634,1278.17 105.611,1278.15 108.588,1278.13 111.566,1278.1 114.543,1278.08 117.52,1278.05 120.497,1278.03 123.474,1278.01 126.451,1277.98 129.428,1277.96 132.405,1277.93 135.382,1277.91 138.359,1277.88 141.336,1277.85 144.313,1277.83 147.29,1277.8 150.268,1277.77 153.245,1277.75 156.222,1277.72 159.199,1277.69 162.176,1277.66 165.153,1277.63 168.13,1277.6 171.107,1277.57 174.084,1277.54 177.061,1277.51 180.038,1277.48 183.015,1277.45 185.992,1277.42 188.97,1277.39 191.947,1277.36 194.924,1277.32 197.901,1277.29 200.878,1277.26 203.855,1277.22 206.832,1277.19 209.809,1277.15 212.786,1277.12 215.763,1277.08 218.74,1277.05 221.717,1277.01 224.694,1276.97 227.671,1276.94 230.649,1276.9 233.626,1276.86 236.603,1276.82 239.58,1276.78 242.557,1276.74 245.534,1276.7 248.511,1276.66 251.488,1276.62 254.465,1276.57 257.442,1276.53 260.419,1276.49 263.396,1276.44 266.373,1276.4 269.351,1276.35 272.328,1276.31 275.305,1276.26 278.282,1276.21 281.259,1276.17 284.236,1276.12 287.213,1276.07 290.19,1276.02 293.167,1275.97 296.144,1275.91 299.121,1275.86 302.098,1275.81 305.075,1275.76 308.053,1275.7 311.03,1275.65 314.007,1275.59 316.984,1275.53 319.961,1275.48 322.938,1275.42 325.915,1275.36 328.892,1275.3 331.869,1275.23 334.846,1275.17 337.823,1275.11 340.8,1275.04 343.777,1274.98 346.755,1274.91 349.732,1274.85 352.709,1274.78 355.686,1274.71 358.663,1274.64 361.64,1274.57 364.617,1274.49 367.594,1274.42 370.571,1274.34 373.548,1274.27 376.525,1274.19 379.502,1274.11 382.479,1274.03 385.457,1273.95 388.434,1273.86 391.411,1273.78 394.388,1273.69 397.365,1273.61 400.342,1273.52 403.319,1273.43 406.296,1273.33 409.273,1273.24 412.25,1273.15 415.227,1273.05 418.204,1272.95 421.181,1272.85 424.158,1272.75 427.136,1272.64 430.113,1272.54 433.09,1272.43 436.067,1272.32 439.044,1272.21 442.021,1272.09 444.998,1271.98 447.975,1271.86 450.952,1271.74 453.929,1271.61 456.906,1271.49 459.883,1271.36 462.86,1271.23 465.838,1271.1 468.815,1270.96 471.792,1270.82 474.769,1270.68 477.746,1270.54 480.723,1270.39 483.7,1270.24 486.677,1270.09 489.654,1269.93 492.631,1269.77 495.608,1269.61 498.585,1269.45 501.562,1269.28 504.54,1269.1 507.517,1268.93 510.494,1268.74 513.471,1268.56 516.448,1268.37 519.425,1268.18 522.402,1267.98 525.379,1267.78 528.356,1267.57 531.333,1267.36 534.31,1267.15 537.287,1266.92 540.264,1266.7 543.242,1266.47 546.219,1266.23 549.196,1265.99 552.173,1265.74 555.15,1265.48 558.127,1265.22 561.104,1264.96 564.081,1264.68 567.058,1264.4 570.035,1264.11 573.012,1263.82 575.989,1263.51 578.966,1263.2 581.944,1262.88 584.921,1262.56 587.898,1262.22 590.875,1261.87 593.852,1261.52 596.829,1261.15 599.806,1260.78 602.783,1260.4 605.76,1260 608.737,1259.59 611.714,1259.17 614.691,1258.74 617.668,1258.3 620.645,1257.84 623.623,1257.37 626.6,1256.89 629.577,1256.39 632.554,1255.87 635.531,1255.34 638.508,1254.8 641.485,1254.23 644.462,1253.65 647.439,1253.05 650.416,1252.43 653.393,1251.79 656.37,1251.12 659.347,1250.44 662.325,1249.73 665.302,1249 668.279,1248.25 671.256,1247.46 674.233,1246.65 677.21,1245.81 680.187,1244.94 683.164,1244.04 686.141,1243.1 689.118,1242.14 692.095,1241.13 695.072,1240.09 698.049,1239 701.027,1237.88 704.004,1236.7 706.981,1235.49 709.958,1234.22 712.935,1232.91 715.912,1231.54 718.889,1230.11 721.866,1228.62 724.843,1227.07 727.82,1225.45 730.797,1223.77 733.774,1222.01 736.751,1220.17 739.729,1218.25 742.706,1216.24 745.683,1214.15 748.66,1211.95 751.637,1209.65 754.614,1207.25 757.591,1204.73 760.568,1202.09 763.545,1199.32 766.522,1196.41 769.499,1193.36 772.476,1190.16 775.453,1186.8 778.431,1183.26 781.408,1179.54 784.385,1175.63 787.362,1171.52 790.339,1167.19 793.316,1162.63 796.293,1157.83 799.27,1152.77 802.247,1147.43 805.224,1141.81 808.201,1135.88 811.178,1129.63 814.155,1123.03 817.133,1116.07 820.11,1108.73 823.087,1100.99 826.064,1092.83 829.041,1084.22 832.018,1075.14 834.995,1065.57 837.972,1055.5 840.949,1044.89 843.926,1033.74 846.903,1022.01 849.88,1009.69 852.857,996.776 855.834,983.244 858.812,969.087 861.789,954.301 864.766,938.884 867.743,922.841 870.72,906.182 873.697,888.923 876.674,871.088 879.651,852.707 882.628,833.817 885.605,814.463 888.582,794.697 891.559,774.577 894.536,754.165 897.514,733.531 900.491,712.746 903.468,691.883 906.445,671.014 909.422,650.21 912.399,629.539 915.376,609.062 918.353,588.834 921.33,568.901 924.307,549.301 927.284,530.061 930.261,511.198 933.238,492.721 936.216,474.629 939.193,456.913 942.17,439.559 945.147,422.548 948.124,405.858 951.101,389.466 954.078,373.35 957.055,357.494 960.032,341.883 963.009,326.512 965.986,311.381 968.963,296.501 971.94,281.889 974.918,267.576 977.895,253.596 980.872,239.995 983.849,226.823 986.826,214.134 989.803,201.982 992.78,190.423 995.757,179.505 998.734,169.269 1001.71,159.747 1004.69,150.959 1007.67,142.909 1010.64,135.588 1013.62,128.972 1016.6,123.024 1019.57,117.698 1022.55,112.938 1025.53,108.688 1028.5,104.889 1031.48,101.49 1034.46,98.4473 1037.44,95.7308 1040.41,93.3235 1043.39,91.224 1046.37,89.4451 1049.34,88.0117 1052.32,86.9561 1055.3,86.3132 1058.28,86.114 1061.25,86.3792 1064.23,87.114 1067.21,88.3037 1070.18,89.9129 1073.16,91.8872 1076.14,94.1582 1079.12,96.6514 1082.09,99.2966 1085.07,102.038 1088.05,104.845 1091.02,107.714 1094,110.678 1096.98,113.794 1099.95,117.139 1102.93,120.792 1105.91,124.819 1108.89,129.262 1111.86,134.129 1114.84,139.398 1117.82,145.032 1120.79,151 1123.77,157.299 1126.75,163.972 1129.73,171.106 1132.7,178.819 1135.68,187.222 1138.66,196.382 1141.63,206.29 1144.61,216.867 1147.59,227.989 1150.56,239.539 1153.54,251.447 1156.52,263.699 1159.5,276.296 1162.47,289.192 1165.45,302.253 1168.43,315.285 1171.4,328.14 1174.38,340.811 1177.36,353.457 1180.34,366.294 1183.31,379.451 1186.29,392.933 1189.27,406.731 1192.24,420.907 1195.22,435.468 1198.2,450.157 1201.18,464.588 1204.15,478.72 1207.13,492.924 1210.11,507.415 1213.08,522.117 1216.06,536.966 1219.04,551.409 1222.01,565.994 1224.99,580.847 1227.97,595.367 1230.95,609.742 1233.92,624.171 1236.9,638.934 1239.88,653.765 1242.85,668.202 1245.83,682.196 1248.81,695.981 1251.79,709.711 1254.76,723.448 1257.74,737.29 1260.72,751.347 1263.69,765.597 1266.67,779.835 1269.65,793.784 1272.63,807.247 1275.6,820.18 1278.58,832.643 1281.56,844.72 1284.53,856.45 1287.51,867.837 1290.49,878.888 1293.46,889.656 1296.44,900.252 1299.42,910.822 1302.4,921.506 1305.37,932.395 1308.35,943.511 1311.33,954.812 1314.3,966.217 1317.28,977.637 1320.26,989.002 1323.24,1000.27 1326.21,1011.43 1329.19,1022.49 1332.17,1033.45 1335.14,1044.3 1338.12,1055 1341.1,1065.48 1344.07,1075.66 1347.05,1085.45 1350.03,1094.75 1353.01,1103.49 1355.98,1111.59 1358.96,1119.02 1361.94,1125.75 1364.91,1131.78 1367.89,1137.12 1370.87,1141.79 1373.85,1145.83 1376.82,1149.26 1379.8,1152.13 1382.78,1154.48 1385.75,1156.34 1388.73,1157.75 1391.71,1158.74 1394.69,1159.35 1397.66,1159.59 1400.64,1159.51 1403.62,1159.11 1406.59,1158.42 1409.57,1157.46 1412.55,1156.25 1415.52,1154.8 1418.5,1153.13 1421.48,1151.24 1424.46,1149.15 1427.43,1146.87 1430.41,1144.41 1433.39,1141.77 1436.36,1138.97 1439.34,1136.01 1442.32,1132.9 1445.3,1129.65 1448.27,1126.27 1451.25,1122.76 1454.23,1119.14 1457.2,1115.4 1460.18,1111.57 1463.16,1107.65 1466.14,1103.65 1469.11,1099.59 1472.09,1095.47 1475.07,1091.31 1478.04,1087.13 1481.02,1082.93 1484,1078.74 1486.97,1074.56 1489.95,1070.42 1492.93,1066.33 1495.91,1062.31 1498.88,1058.37 1501.86,1054.53 1504.84,1050.81 1507.81,1047.22 1510.79,1043.77 1513.77,1040.49 1516.75,1037.38 1519.72,1034.46 1522.7,1031.73 1525.68,1029.21 1528.65,1026.9 1531.63,1024.8 1534.61,1022.93 1537.58,1021.29 1540.56,1019.87 1543.54,1018.68 1546.52,1017.72 1549.49,1016.98 1552.47,1016.46 1555.45,1016.16 1558.42,1016.07 1561.4,1016.18 1564.38,1016.48 1567.36,1016.98 1570.33,1017.66 1573.31,1018.51 1576.29,1019.52 1579.26,1020.69 1582.24,1022 1585.22,1023.45 1588.2,1025.03 1591.17,1026.73 1594.15,1028.55 1597.13,1030.46 1600.1,1032.47 1603.08,1034.57 1606.06,1036.75 1609.03,1039.01 1612.01,1041.33 1614.99,1043.71 1617.97,1046.15 1620.94,1048.63 1623.92,1051.16 1626.9,1053.73 1629.87,1056.33 1632.85,1058.95 1635.83,1061.61 1638.81,1064.28 1641.78,1066.97 1644.76,1069.67 1647.74,1072.38 1650.71,1075.09 1653.69,1077.81 1656.67,1080.53 1659.64,1083.24 1662.62,1085.95 1665.6,1088.65 1668.58,1091.34 1671.55,1094.02 1674.53,1096.68 1677.51,1099.33 1680.48,1101.96 1683.46,1104.57 1686.44,1107.16 1689.42,1109.73 1692.39,1112.27 1695.37,1114.8 1698.35,1117.29 1701.32,1119.76 1704.3,1122.2 1707.28,1124.61 1710.26,1127 1713.23,1129.35 1716.21,1131.68 1719.19,1133.98 1722.16,1136.24 1725.14,1138.47 1728.12,1140.67 1731.09,1142.84 1734.07,1144.98 1737.05,1147.09 1740.03,1149.16 1743,1151.2 1745.98,1153.21 1748.96,1155.19 1751.93,1157.13 1754.91,1159.04 1757.89,1160.93 1760.87,1162.77 1763.84,1164.59 1766.82,1166.38 1769.8,1168.13 1772.77,1169.86 1775.75,1171.55 1778.73,1173.22 1781.71,1174.85 1784.68,1176.46 1787.66,1178.03 1790.64,1179.58 1793.61,1181.1 1796.59,1182.59 1799.57,1184.05 1802.54,1185.49 1805.52,1186.9 1808.5,1188.28 1811.48,1189.64 1814.45,1190.97 1817.43,1192.27 1820.41,1193.56 1823.38,1194.81 1826.36,1196.05 1829.34,1197.26 1832.32,1198.44 1835.29,1199.61 1838.27,1200.75 1841.25,1201.87 1844.22,1202.97 1847.2,1204.05 1850.18,1205.11 1853.15,1206.15 1856.13,1207.16 1859.11,1208.16 1862.09,1209.14 1865.06,1210.1 1868.04,1211.05 1871.02,1211.97 1873.99,1212.88 1876.97,1213.77 1879.95,1214.65 1882.93,1215.5 1885.9,1216.35 1888.88,1217.17 1891.86,1217.98 1894.83,1218.78 1897.81,1219.56 1900.79,1220.33 1903.77,1221.08 1906.74,1221.82 1909.72,1222.54 1912.7,1223.25 1915.67,1223.95 1918.65,1224.64 1921.63,1225.31 1924.6,1225.97 1927.58,1226.62 1930.56,1227.26 1933.54,1227.89 1936.51,1228.5 1939.49,1229.11 1942.47,1229.7 1945.44,1230.29 1948.42,1230.86 1951.4,1231.42 1954.38,1231.98 1957.35,1232.52 1960.33,1233.05 1963.31,1233.58 1966.28,1234.1 1969.26,1234.6 1972.24,1235.1 1975.22,1235.59 1978.19,1236.07 1981.17,1236.55 1984.15,1237.01 1987.12,1237.47 1990.1,1237.92 1993.08,1238.37 1996.05,1238.8 1999.03,1239.23 2002.01,1239.65 2004.99,1240.07 2007.96,1240.48 2010.94,1240.88 2013.92,1241.27 2016.89,1241.66 2019.87,1242.04 2022.85,1242.42 2025.83,1242.79 2028.8,1243.16 2031.78,1243.52 2034.76,1243.87 2037.73,1244.22 2040.71,1244.56 2043.69,1244.9 2046.66,1245.23 2049.64,1245.56 2052.62,1245.88 2055.6,1246.2 2058.57,1246.51 2061.55,1246.82 2064.53,1247.12 2067.5,1247.42 2070.48,1247.72 2073.46,1248.01 2076.44,1248.29 2079.41,1248.57 2082.39,1248.85 2085.37,1249.13 2088.34,1249.4 2091.32,1249.66 2094.3,1249.92 2097.28,1250.18 2100.25,1250.44 2103.23,1250.69 2106.21,1250.94 2109.18,1251.18 2112.16,1251.42 2115.14,1251.66 2118.11,1251.89 2121.09,1252.13 2124.07,1252.35 2127.05,1252.58 2130.02,1252.8 2133,1253.02 2135.98,1253.24 2138.95,1253.45 2141.93,1253.66 2144.91,1253.87 2147.89,1254.07 2150.86,1254.27 2153.84,1254.47 2156.82,1254.67 2159.79,1254.86 2162.77,1255.06 2165.75,1255.25 2168.72,1255.43 2171.7,1255.62 2174.68,1255.8 2177.66,1255.98 2180.63,1256.16 2183.61,1256.33 2186.59,1256.51 2189.56,1256.68 2192.54,1256.85 2195.52,1257.01 2198.5,1257.18 2201.47,1257.34 2204.45,1257.5 2207.43,1257.66 2210.4,1257.82 2213.38,1257.97 2216.36,1258.13 2219.34,1258.28 2222.31,1258.43 2225.29,1258.58 2228.27,1258.72 2231.24,1258.87 2234.22,1259.01 2237.2,1259.15 2240.17,1259.29 2243.15,1259.43 2246.13,1259.57 2249.11,1259.7 2252.08,1259.83 2255.06,1259.97 2258.04,1260.1 2261.01,1260.23 2263.99,1260.35 2266.97,1260.48 2269.95,1260.6 2272.92,1260.73 2275.9,1260.85 2278.88,1260.97 2281.85,1261.09 2284.83,1261.21 2287.81,1261.32 2290.79,1261.44 2293.76,1261.55 2296.74,1261.67 2299.72,1261.78 2302.69,1261.89 2305.67,1262 2308.65,1262.11 2311.62,1262.21 2314.6,1262.32 2317.58,1262.42 2320.56,1262.53 2323.53,1262.63 2326.51,1262.73 2329.49,1262.83 2332.46,1262.93 2335.44,1263.03 2338.42,1263.13 2341.4,1263.23 2344.37,1263.32 2347.35,1263.42 2350.33,1263.51 2353.3,1263.6 2356.28,1263.7 2359.26,1263.79 2362.23,1263.88 2365.21,1263.97 2368.19,1264.06 2371.17,1264.14 2374.14,1264.23 2377.12,1264.32 2380.1,1264.4 2383.07,1264.48 2386.05,1264.57 2389.03,1264.65 2392.01,1264.73 2394.98,1264.81 2397.96,1264.89 2400.94,1264.97 2403.91,1265.05 2406.89,1265.13 2409.87,1265.21 2412.85,1265.29 2415.82,1265.36 2418.8,1265.44 2421.78,1265.51 2424.75,1265.59 2427.73,1265.66 2430.71,1265.73 2433.68,1265.8 2436.66,1265.87 2439.64,1265.94 2442.62,1266.01 2445.59,1266.08 2448.57,1266.15 2451.55,1266.22 2454.52,1266.29 2457.5,1266.36 2460.48,1266.42 2463.46,1266.49 2466.43,1266.55 2469.41,1266.62 2472.39,1266.68 2475.36,1266.75 2478.34,1266.81 2481.32,1266.87 2484.29,1266.93 2487.27,1266.99 2490.25,1267.06 2493.23,1267.12 2496.2,1267.18 2499.18,1267.24 2502.16,1267.29 2505.13,1267.35 2508.11,1267.41 2511.09,1267.47 2514.07,1267.53 2517.04,1267.58 2520.02,1267.64 2523,1267.69 2525.97,1267.75 2528.95,1267.8 2531.93,1267.86 2534.91,1267.91 2537.88,1267.97 2540.86,1268.02 2543.84,1268.07 2546.81,1268.12 2549.79,1268.17 2552.77,1268.23 2555.74,1268.28 2558.72,1268.33 2561.7,1268.38 2564.68,1268.43 2567.65,1268.48 2570.63,1268.53 2573.61,1268.57 2576.58,1268.62 2579.56,1268.67 2582.54,1268.72 2585.52,1268.76 2588.49,1268.81 2591.47,1268.86 2594.45,1268.9 2597.42,1268.95 2600.4,1269 2603.38,1269.04 2606.36,1269.08 2609.33,1269.13 2612.31,1269.17 2615.29,1269.22 2618.26,1269.26 2621.24,1269.3 2624.22,1269.35 2627.19,1269.39 2630.17,1269.43 2633.15,1269.47 2636.13,1269.51 2639.1,1269.56 2642.08,1269.6 2645.06,1269.64 2648.03,1269.68 2651.01,1269.72 2653.99,1269.76 2656.97,1269.8 2659.94,1269.84 2662.92,1269.87 2665.9,1269.91 2668.87,1269.95 2671.85,1269.99 2674.83,1270.03 2677.8,1270.07 2680.78,1270.1 2683.76,1270.14 2686.74,1270.18 2689.71,1270.21 2692.69,1270.25 2695.67,1270.29 2698.64,1270.32 2701.62,1270.36 2704.6,1270.39 2707.58,1270.43 "/>
<polyline clip-path="url(#clip583)" style="stroke:#000000; stroke-linecap:round; stroke-linejoin:round; stroke-width:10; stroke-opacity:1; fill:none" stroke-dasharray="40, 25" points="-266.523,1291 -263.546,1291 -260.569,1291 -257.592,1291 -254.615,1291 -251.638,1291 -248.661,1291 -245.684,1291 -242.706,1291 -239.729,1291 -236.752,1291 -233.775,1291 -230.798,1291 -227.821,1291 -224.844,1291 -221.867,1291 -218.89,1291 -215.913,1291 -212.936,1291 -209.959,1291 -206.982,1291 -204.005,1291 -201.027,1291 -198.05,1291 -195.073,1291 -192.096,1291 -189.119,1291 -186.142,1291 -183.165,1291 -180.188,1291 -177.211,1291 -174.234,1291 -171.257,1291 -168.28,1291 -165.303,1291 -162.325,1291 -159.348,1291 -156.371,1291 -153.394,1291 -150.417,1291 -147.44,1291 -144.463,1291 -141.486,1291 -138.509,1291 -135.532,1291 -132.555,1291 -129.578,1291 -126.601,1291 -123.623,1291 -120.646,1291 -117.669,1291 -114.692,1291 -111.715,1291 -108.738,1291 -105.761,1291 -102.784,1291 -99.8069,1291 -96.8298,1291 -93.8527,1291 -90.8756,1291 -87.8985,1291 -84.9215,1291 -81.9444,1291 -78.9673,1291 -75.9902,1291 -73.0132,1291 -70.0361,1291 -67.059,1291 -64.0819,1291 -61.1049,1291 -58.1278,1291 -55.1507,1291 -52.1736,1291 -49.1966,1291 -46.2195,1291 -43.2424,1291 -40.2653,1291 -37.2883,1291 -34.3112,1291 -31.3341,1291 -28.357,1291 -25.38,1291 -22.4029,1291 -19.4258,1291 -16.4487,1291 -13.4717,1291 -10.4946,1291 -7.5175,1291 -4.54042,1291 -1.56335,1291 1.41373,1291 4.3908,1291 7.36788,1291 10.345,1291 13.322,1291 16.2991,1291 19.2762,1291 22.2533,1291 25.2303,1291 28.2074,1291 31.1845,1291 34.1616,1291 37.1386,1291 40.1157,1291 43.0928,1291 46.0699,1291 49.0469,1291 52.024,1291 55.0011,1291 57.9782,1291 60.9552,1291 63.9323,1291 66.9094,1291 69.8865,1291 72.8635,1291 75.8406,1291 78.8177,1291 81.7948,1291 84.7719,1291 87.7489,1291 90.726,1291 93.7031,1291 96.6802,1291 99.6572,1291 102.634,1291 105.611,1291 108.588,1291 111.566,1291 114.543,1291 117.52,1291 120.497,1291 123.474,1291 126.451,1291 129.428,1291 132.405,1291 135.382,1291 138.359,1291 141.336,1291 144.313,1291 147.29,1291 150.268,1291 153.245,1291 156.222,1291 159.199,1291 162.176,1291 165.153,1291 168.13,1291 171.107,1291 174.084,1291 177.061,1291 180.038,1291 183.015,1291 185.992,1291 188.97,1291 191.947,1291 194.924,1291 197.901,1291 200.878,1291 203.855,1291 206.832,1291 209.809,1291 212.786,1291 215.763,1291 218.74,1291 221.717,1291 224.694,1291 227.671,1291 230.649,1291 233.626,1291 236.603,1291 239.58,1291 242.557,1291 245.534,1291 248.511,1291 251.488,1291 254.465,1291 257.442,1291 260.419,1291 263.396,1291 266.373,1291 269.351,1291 272.328,1291 275.305,1291 278.282,1291 281.259,1291 284.236,1291 287.213,1291 290.19,1291 293.167,1291 296.144,1291 299.121,1291 302.098,1291 305.075,1291 308.053,1291 311.03,1291 314.007,1291 316.984,1291 319.961,1291 322.938,1291 325.915,1290.99 328.892,1290.99 331.869,1290.99 334.846,1290.99 337.823,1290.99 340.8,1290.99 343.777,1290.99 346.755,1290.99 349.732,1290.99 352.709,1290.99 355.686,1290.99 358.663,1290.99 361.64,1290.99 364.617,1290.98 367.594,1290.98 370.571,1290.98 373.548,1290.98 376.525,1290.98 379.502,1290.98 382.479,1290.97 385.457,1290.97 388.434,1290.97 391.411,1290.96 394.388,1290.96 397.365,1290.96 400.342,1290.95 403.319,1290.95 406.296,1290.94 409.273,1290.94 412.25,1290.93 415.227,1290.93 418.204,1290.92 421.181,1290.91 424.158,1290.91 427.136,1290.9 430.113,1290.89 433.09,1290.88 436.067,1290.87 439.044,1290.86 442.021,1290.85 444.998,1290.83 447.975,1290.82 450.952,1290.8 453.929,1290.78 456.906,1290.77 459.883,1290.75 462.86,1290.72 465.838,1290.7 468.815,1290.67 471.792,1290.65 474.769,1290.62 477.746,1290.59 480.723,1290.55 483.7,1290.51 486.677,1290.47 489.654,1290.43 492.631,1290.39 495.608,1290.34 498.585,1290.28 501.562,1290.23 504.54,1290.16 507.517,1290.1 510.494,1290.03 513.471,1289.95 516.448,1289.87 519.425,1289.78 522.402,1289.69 525.379,1289.59 528.356,1289.48 531.333,1289.36 534.31,1289.24 537.287,1289.11 540.264,1288.97 543.242,1288.82 546.219,1288.66 549.196,1288.49 552.173,1288.31 555.15,1288.11 558.127,1287.9 561.104,1287.68 564.081,1287.45 567.058,1287.2 570.035,1286.93 573.012,1286.65 575.989,1286.35 578.966,1286.03 581.944,1285.69 584.921,1285.32 587.898,1284.94 590.875,1284.54 593.852,1284.1 596.829,1283.65 599.806,1283.16 602.783,1282.65 605.76,1282.11 608.737,1281.53 611.714,1280.93 614.691,1280.29 617.668,1279.61 620.645,1278.89 623.623,1278.14 626.6,1277.34 629.577,1276.5 632.554,1275.61 635.531,1274.68 638.508,1273.7 641.485,1272.66 644.462,1271.57 647.439,1270.42 650.416,1269.22 653.393,1267.95 656.37,1266.62 659.347,1265.22 662.325,1263.76 665.302,1262.22 668.279,1260.6 671.256,1258.91 674.233,1257.14 677.21,1255.29 680.187,1253.35 683.164,1251.32 686.141,1249.19 689.118,1246.98 692.095,1244.66 695.072,1242.24 698.049,1239.71 701.027,1237.07 704.004,1234.32 706.981,1231.46 709.958,1228.47 712.935,1225.37 715.912,1222.13 718.889,1218.76 721.866,1215.26 724.843,1211.63 727.82,1207.85 730.797,1203.92 733.774,1199.85 736.751,1195.63 739.729,1191.24 742.706,1186.7 745.683,1182 748.66,1177.13 751.637,1172.09 754.614,1166.88 757.591,1161.49 760.568,1155.92 763.545,1150.17 766.522,1144.23 769.499,1138.1 772.476,1131.78 775.453,1125.27 778.431,1118.56 781.408,1111.65 784.385,1104.53 787.362,1097.21 790.339,1089.69 793.316,1081.95 796.293,1074.01 799.27,1065.86 802.247,1057.49 805.224,1048.91 808.201,1040.11 811.178,1031.1 814.155,1021.87 817.133,1012.43 820.11,1002.77 823.087,992.891 826.064,982.801 829.041,972.497 832.018,961.981 834.995,951.254 837.972,940.317 840.949,929.173 843.926,917.825 846.903,906.275 849.88,894.527 852.857,882.584 855.834,870.449 858.812,858.128 861.789,845.624 864.766,832.942 867.743,820.088 870.72,807.067 873.697,793.886 876.674,780.55 879.651,767.067 882.628,753.443 885.605,739.685 888.582,725.802 891.559,711.802 894.536,697.693 897.514,683.483 900.491,669.183 903.468,654.801 906.445,640.347 909.422,625.831 912.399,611.264 915.376,596.657 918.353,582.019 921.33,567.363 924.307,552.701 927.284,538.043 930.261,523.401 933.238,508.789 936.216,494.218 939.193,479.7 942.17,465.249 945.147,450.878 948.124,436.599 951.101,422.425 954.078,408.37 957.055,394.447 960.032,380.669 963.009,367.05 965.986,353.604 968.963,340.342 971.94,327.279 974.918,314.428 977.895,301.803 980.872,289.415 983.849,277.279 986.826,265.407 989.803,253.812 992.78,242.506 995.757,231.502 998.734,220.811 1001.71,210.445 1004.69,200.416 1007.67,190.735 1010.64,181.413 1013.62,172.46 1016.6,163.887 1019.57,155.704 1022.55,147.919 1025.53,140.542 1028.5,133.581 1031.48,127.045 1034.46,120.941 1037.44,115.277 1040.41,110.058 1043.39,105.291 1046.37,100.983 1049.34,97.1371 1052.32,93.7589 1055.3,90.8522 1058.28,88.4206 1061.25,86.4669 1064.23,84.9936 1067.21,84.0022 1070.18,83.4942 1073.16,83.47 1076.14,83.9296 1079.12,84.8727 1082.09,86.2979 1085.07,88.2036 1088.05,90.5875 1091.02,93.4468 1094,96.778 1096.98,100.577 1099.95,104.84 1102.93,109.561 1105.91,114.734 1108.89,120.355 1111.86,126.415 1114.84,132.908 1117.82,139.827 1120.79,147.162 1123.77,154.907 1126.75,163.051 1129.73,171.585 1132.7,180.5 1135.68,189.785 1138.66,199.431 1141.63,209.425 1144.61,219.758 1147.59,230.416 1150.56,241.39 1153.54,252.666 1156.52,264.233 1159.5,276.077 1162.47,288.187 1165.45,300.549 1168.43,313.151 1171.4,325.979 1174.38,339.021 1177.36,352.262 1180.34,365.69 1183.31,379.291 1186.29,393.052 1189.27,406.96 1192.24,421.001 1195.22,435.161 1198.2,449.428 1201.18,463.789 1204.15,478.23 1207.13,492.738 1210.11,507.301 1213.08,521.906 1216.06,536.541 1219.04,551.193 1222.01,565.85 1224.99,580.501 1227.97,595.134 1230.95,609.737 1233.92,624.3 1236.9,638.812 1239.88,653.262 1242.85,667.639 1245.83,681.935 1248.81,696.139 1251.79,710.242 1254.76,724.236 1257.74,738.11 1260.72,751.858 1263.69,765.47 1266.67,778.94 1269.65,792.26 1272.63,805.423 1275.6,818.422 1278.58,831.25 1281.56,843.903 1284.53,856.374 1287.51,868.658 1290.49,880.749 1293.46,892.643 1296.44,904.336 1299.42,915.824 1302.4,927.102 1305.37,938.167 1308.35,949.016 1311.33,959.645 1314.3,970.053 1317.28,980.236 1320.26,990.192 1323.24,999.92 1326.21,1009.42 1329.19,1018.68 1332.17,1027.71 1335.14,1036.51 1338.12,1045.07 1341.1,1053.4 1344.07,1061.48 1347.05,1069.33 1350.03,1076.94 1353.01,1084.32 1355.98,1091.45 1358.96,1098.34 1361.94,1105 1364.91,1111.41 1367.89,1117.59 1370.87,1123.53 1373.85,1129.22 1376.82,1134.68 1379.8,1139.9 1382.78,1144.88 1385.75,1149.63 1388.73,1154.13 1391.71,1158.4 1394.69,1162.43 1397.66,1166.22 1400.64,1169.77 1403.62,1173.08 1406.59,1176.16 1409.57,1179 1412.55,1181.6 1415.52,1183.96 1418.5,1186.09 1421.48,1187.98 1424.46,1189.63 1427.43,1191.04 1430.41,1192.21 1433.39,1193.14 1436.36,1193.83 1439.34,1194.29 1442.32,1194.51 1445.3,1194.48 1448.27,1194.22 1451.25,1193.72 1454.23,1192.98 1457.2,1192 1460.18,1190.78 1463.16,1189.33 1466.14,1187.63 1469.11,1185.71 1472.09,1183.54 1475.07,1181.14 1478.04,1178.51 1481.02,1175.65 1484,1172.56 1486.97,1169.24 1489.95,1165.7 1492.93,1161.94 1495.91,1157.96 1498.88,1153.76 1501.86,1149.36 1504.84,1144.74 1507.81,1139.93 1510.79,1134.92 1513.77,1129.72 1516.75,1124.33 1519.72,1118.77 1522.7,1113.04 1525.68,1107.14 1528.65,1101.09 1531.63,1094.89 1534.61,1088.55 1537.58,1082.08 1540.56,1075.49 1543.54,1068.79 1546.52,1062 1549.49,1055.12 1552.47,1048.16 1555.45,1041.13 1558.42,1034.06 1561.4,1026.95 1564.38,1019.81 1567.36,1012.66 1570.33,1005.51 1573.31,998.374 1576.29,991.269 1579.26,984.207 1582.24,977.203 1585.22,970.272 1588.2,963.428 1591.17,956.686 1594.15,950.061 1597.13,943.566 1600.1,937.217 1603.08,931.028 1606.06,925.013 1609.03,919.185 1612.01,913.56 1614.99,908.148 1617.97,902.964 1620.94,898.021 1623.92,893.329 1626.9,888.9 1629.87,884.745 1632.85,880.875 1635.83,877.3 1638.81,874.027 1641.78,871.066 1644.76,868.423 1647.74,866.107 1650.71,864.122 1653.69,862.474 1656.67,861.167 1659.64,860.206 1662.62,859.591 1665.6,859.326 1668.58,859.411 1671.55,859.846 1674.53,860.631 1677.51,861.763 1680.48,863.24 1683.46,865.059 1686.44,867.215 1689.42,869.704 1692.39,872.519 1695.37,875.654 1698.35,879.101 1701.32,882.853 1704.3,886.9 1707.28,891.234 1710.26,895.843 1713.23,900.718 1716.21,905.848 1719.19,911.22 1722.16,916.823 1725.14,922.644 1728.12,928.671 1731.09,934.89 1734.07,941.288 1737.05,947.852 1740.03,954.567 1743,961.421 1745.98,968.399 1748.96,975.487 1751.93,982.671 1754.91,989.938 1757.89,997.274 1760.87,1004.66 1763.84,1012.1 1766.82,1019.56 1769.8,1027.04 1772.77,1034.52 1775.75,1042 1778.73,1049.45 1781.71,1056.87 1784.68,1064.25 1787.66,1071.58 1790.64,1078.84 1793.61,1086.03 1796.59,1093.14 1799.57,1100.16 1802.54,1107.08 1805.52,1113.89 1808.5,1120.59 1811.48,1127.17 1814.45,1133.63 1817.43,1139.95 1820.41,1146.14 1823.38,1152.19 1826.36,1158.1 1829.34,1163.86 1832.32,1169.47 1835.29,1174.92 1838.27,1180.22 1841.25,1185.37 1844.22,1190.36 1847.2,1195.19 1850.18,1199.86 1853.15,1204.38 1856.13,1208.74 1859.11,1212.95 1862.09,1217 1865.06,1220.89 1868.04,1224.64 1871.02,1228.24 1873.99,1231.69 1876.97,1235 1879.95,1238.16 1882.93,1241.19 1885.9,1244.08 1888.88,1246.85 1891.86,1249.48 1894.83,1251.99 1897.81,1254.37 1900.79,1256.64 1903.77,1258.79 1906.74,1260.84 1909.72,1262.77 1912.7,1264.61 1915.67,1266.34 1918.65,1267.98 1921.63,1269.53 1924.6,1270.99 1927.58,1272.37 1930.56,1273.67 1933.54,1274.88 1936.51,1276.03 1939.49,1277.11 1942.47,1278.11 1945.44,1279.06 1948.42,1279.94 1951.4,1280.77 1954.38,1281.55 1957.35,1282.27 1960.33,1282.94 1963.31,1283.57 1966.28,1284.15 1969.26,1284.7 1972.24,1285.2 1975.22,1285.67 1978.19,1286.11 1981.17,1286.51 1984.15,1286.88 1987.12,1287.23 1990.1,1287.55 1993.08,1287.84 1996.05,1288.11 1999.03,1288.36 2002.01,1288.6 2004.99,1288.81 2007.96,1289 2010.94,1289.18 2013.92,1289.35 2016.89,1289.5 2019.87,1289.64 2022.85,1289.76 2025.83,1289.88 2028.8,1289.98 2031.78,1290.08 2034.76,1290.17 2037.73,1290.25 2040.71,1290.32 2043.69,1290.39 2046.66,1290.45 2049.64,1290.5 2052.62,1290.55 2055.6,1290.6 2058.57,1290.64 2061.55,1290.68 2064.53,1290.71 2067.5,1290.74 2070.48,1290.77 2073.46,1290.79 2076.44,1290.81 2079.41,1290.83 2082.39,1290.85 2085.37,1290.87 2088.34,1290.88 2091.32,1290.89 2094.3,1290.91 2097.28,1290.92 2100.25,1290.93 2103.23,1290.93 2106.21,1290.94 2109.18,1290.95 2112.16,1290.95 2115.14,1290.96 2118.11,1290.96 2121.09,1290.97 2124.07,1290.97 2127.05,1290.97 2130.02,1290.98 2133,1290.98 2135.98,1290.98 2138.95,1290.98 2141.93,1290.99 2144.91,1290.99 2147.89,1290.99 2150.86,1290.99 2153.84,1290.99 2156.82,1290.99 2159.79,1290.99 2162.77,1290.99 2165.75,1290.99 2168.72,1291 2171.7,1291 2174.68,1291 2177.66,1291 2180.63,1291 2183.61,1291 2186.59,1291 2189.56,1291 2192.54,1291 2195.52,1291 2198.5,1291 2201.47,1291 2204.45,1291 2207.43,1291 2210.4,1291 2213.38,1291 2216.36,1291 2219.34,1291 2222.31,1291 2225.29,1291 2228.27,1291 2231.24,1291 2234.22,1291 2237.2,1291 2240.17,1291 2243.15,1291 2246.13,1291 2249.11,1291 2252.08,1291 2255.06,1291 2258.04,1291 2261.01,1291 2263.99,1291 2266.97,1291 2269.95,1291 2272.92,1291 2275.9,1291 2278.88,1291 2281.85,1291 2284.83,1291 2287.81,1291 2290.79,1291 2293.76,1291 2296.74,1291 2299.72,1291 2302.69,1291 2305.67,1291 2308.65,1291 2311.62,1291 2314.6,1291 2317.58,1291 2320.56,1291 2323.53,1291 2326.51,1291 2329.49,1291 2332.46,1291 2335.44,1291 2338.42,1291 2341.4,1291 2344.37,1291 2347.35,1291 2350.33,1291 2353.3,1291 2356.28,1291 2359.26,1291 2362.23,1291 2365.21,1291 2368.19,1291 2371.17,1291 2374.14,1291 2377.12,1291 2380.1,1291 2383.07,1291 2386.05,1291 2389.03,1291 2392.01,1291 2394.98,1291 2397.96,1291 2400.94,1291 2403.91,1291 2406.89,1291 2409.87,1291 2412.85,1291 2415.82,1291 2418.8,1291 2421.78,1291 2424.75,1291 2427.73,1291 2430.71,1291 2433.68,1291 2436.66,1291 2439.64,1291 2442.62,1291 2445.59,1291 2448.57,1291 2451.55,1291 2454.52,1291 2457.5,1291 2460.48,1291 2463.46,1291 2466.43,1291 2469.41,1291 2472.39,1291 2475.36,1291 2478.34,1291 2481.32,1291 2484.29,1291 2487.27,1291 2490.25,1291 2493.23,1291 2496.2,1291 2499.18,1291 2502.16,1291 2505.13,1291 2508.11,1291 2511.09,1291 2514.07,1291 2517.04,1291 2520.02,1291 2523,1291 2525.97,1291 2528.95,1291 2531.93,1291 2534.91,1291 2537.88,1291 2540.86,1291 2543.84,1291 2546.81,1291 2549.79,1291 2552.77,1291 2555.74,1291 2558.72,1291 2561.7,1291 2564.68,1291 2567.65,1291 2570.63,1291 2573.61,1291 2576.58,1291 2579.56,1291 2582.54,1291 2585.52,1291 2588.49,1291 2591.47,1291 2594.45,1291 2597.42,1291 2600.4,1291 2603.38,1291 2606.36,1291 2609.33,1291 2612.31,1291 2615.29,1291 2618.26,1291 2621.24,1291 2624.22,1291 2627.19,1291 2630.17,1291 2633.15,1291 2636.13,1291 2639.1,1291 2642.08,1291 2645.06,1291 2648.03,1291 2651.01,1291 2653.99,1291 2656.97,1291 2659.94,1291 2662.92,1291 2665.9,1291 2668.87,1291 2671.85,1291 2674.83,1291 2677.8,1291 2680.78,1291 2683.76,1291 2686.74,1291 2689.71,1291 2692.69,1291 2695.67,1291 2698.64,1291 2701.62,1291 2704.6,1291 2707.58,1291 "/>
<path clip-path="url(#clip580)" d="M1555.02 402.83 L2053.27 402.83 L2053.27 89.9101 L1555.02 89.9101  Z" fill="#ffffff" fill-rule="evenodd" fill-opacity="1"/>
<polyline clip-path="url(#clip580)" style="stroke:#000000; stroke-linecap:round; stroke-linejoin:round; stroke-width:4; stroke-opacity:1; fill:none" points="1555.02,402.83 2053.27,402.83 2053.27,89.9101 1555.02,89.9101 1555.02,402.83 "/>
<polyline clip-path="url(#clip580)" style="stroke:#009af9; stroke-linecap:round; stroke-linejoin:round; stroke-width:30; stroke-opacity:1; fill:none" points="1574.84,168.14 1693.81,168.14 "/>
<g clip-path="url(#clip580)">
<text style="fill:#000000; fill-opacity:1; font-family:Times New Roman,TimesNewRoman,Times,Baskerville,Georgia,serif; font-size:79px; text-anchor:start;" transform="rotate(0, 1713.64, 194.14)" x="1713.64" y="194.14">opt 128bit</text>
</g>
<polyline clip-path="url(#clip580)" style="stroke:#e26f46; stroke-linecap:round; stroke-linejoin:round; stroke-width:30; stroke-opacity:1; fill:none" points="1574.84,246.37 1693.81,246.37 "/>
<g clip-path="url(#clip580)">
<text style="fill:#000000; fill-opacity:1; font-family:Times New Roman,TimesNewRoman,Times,Baskerville,Georgia,serif; font-size:79px; text-anchor:start;" transform="rotate(0, 1713.64, 272.37)" x="1713.64" y="272.37">opt 64bit</text>
</g>
<polyline clip-path="url(#clip580)" style="stroke:#000000; stroke-linecap:round; stroke-linejoin:round; stroke-width:15; stroke-opacity:1; fill:none" stroke-dasharray="60, 38" points="1574.84,324.6 1693.81,324.6 "/>
<g clip-path="url(#clip580)">
<text style="fill:#000000; fill-opacity:1; font-family:Times New Roman,TimesNewRoman,Times,Baskerville,Georgia,serif; font-size:79px; text-anchor:start;" transform="rotate(0, 1713.64, 350.6)" x="1713.64" y="350.6">exact</text>
</g>
</svg>
